<svg xmlns="http://www.w3.org/2000/svg" xmlns:xlink="http://www.w3.org/1999/xlink" width="761" height="416.968" viewBox="0 0 761 416.968"><defs><style>.a{fill:none;opacity:0;}.b{fill:#f2e9e4;}.c{fill:#e0e0e0;}.d,.m,.n,.r,.t,.y{fill:#344154;}.e{fill:#d9a171;}.f,.h,.w,.x{fill:#fff;}.f,.w,.x{stroke:#5e6178;stroke-miterlimit:10;stroke-width:0;}.g{fill:#5e6178;}.i{fill:#ffa8a7;}.j{fill:#f0f0f0;}.k{fill:#f28f8f;}.l{fill:#aed3f2;}.m{opacity:0.25;}.n,.o{opacity:0.2;}.p{opacity:0.1;}.q{fill:#fafafa;}.r,.u{opacity:0.15;}.s{clip-path:url(#a);}.t,.v{opacity:0.4;}.w{opacity:0.7;}.x,.y{opacity:0.5;}.z{fill:#839eb6;}</style><clipPath id="a"><path class="a" d="M305.149,259.543l-18.566,10.741-11.408,6.578a11.136,11.136,0,0,0-1.073.623,15.147,15.147,0,0,0-7.244,12.983v53.325a15.409,15.409,0,0,1-23,13.294,45.977,45.977,0,0,1-22.971-39.814V261.95a45.978,45.978,0,0,0-22.982-39.815l84.278-48.624h0a46.02,46.02,0,0,1,22.988,39.814v24.1C305.157,244.319,305.149,259.543,305.149,259.543Z" transform="translate(-197.908 -173.51)"/></clipPath></defs><g transform="translate(9961.5 12418)"><g transform="translate(-9905.282 -12235.703)"><ellipse class="b" cx="316.948" cy="114.951" rx="316.948" ry="114.951"/></g><g transform="translate(-9901.987 -12174.465)"><ellipse class="c" cx="59.341" cy="34.266" rx="59.341" ry="34.266" transform="translate(401.739 79.003)"/><path class="c" d="M228.54,377.428l170.258,98.3,78.036-45.051-170.3-98.315Z" transform="translate(-162.263 -302.294)"/><path class="c" d="M187.975,392.136,152.748,371.8a1.151,1.151,0,0,1,0-2.181L276.631,298.07a4.215,4.215,0,0,1,3.782,0l35.236,20.349a1.152,1.152,0,0,1,0,2.181L191.758,392.136a4.163,4.163,0,0,1-3.782,0Z" transform="translate(-151.966 -297.622)"/></g><g transform="translate(-9889.832 -12418)"><path class="d" d="M291.378,25.417,184.1,87.3a8.655,8.655,0,0,0-3.895,6.76V335.995c0,2.484,1.792,3.462,3.895,2.25l107.274-61.92a8.655,8.655,0,0,0,3.895-6.76V27.676C295.273,25.183,293.516,24.171,291.378,25.417Zm-1.731,221.852c0,2.138-1.5,3.462-3.35,4.553l-97.51,56.3c-1.792,1.065-3.341.208-3.341-1.93V116.73a7.444,7.444,0,0,1,3.341-5.808l97.519-56.259c1.861-1.065,3.35-.2,3.35,1.921Z" transform="translate(-167.919 -17.411)"/><path class="d" d="M181.719,347.554a8.733,8.733,0,0,1-7.322-.242l-4.475-2.6a8.6,8.6,0,0,1-3.912-6.751V96.1a7.387,7.387,0,0,1,1.134-3.791h0l12.282,7.08h0a12.826,12.826,0,0,0-.684,1.437,7.167,7.167,0,0,0-.476,2.406V345.062C178.3,347.372,179.8,348.394,181.719,347.554Z" transform="translate(-166.01 -26.478)"/><path class="e" d="M246.794,326.469c3.4-1.965,6.163-.372,6.163,3.575a13.623,13.623,0,0,1-6.163,10.672c-3.393,1.965-6.154.372-6.154-3.583A13.623,13.623,0,0,1,246.794,326.469Z" transform="translate(-176.046 -57.853)"/><path class="d" d="M246.257,67.242c1.445-.866,2.6-.164,2.6,1.506a5.738,5.738,0,0,1-2.6,4.527c-1.437.866-2.6.164-2.6-1.5a5.782,5.782,0,0,1,2.6-4.535Z" transform="translate(-176.452 -23.057)"/><path class="d" d="M234.661,83.823l20.184-11.641c1.212-.692,2.19-.2,2.19,1.108a4.691,4.691,0,0,1-2.19,3.583L234.661,88.514c-1.2.684-2.181.2-2.181-1.117a4.648,4.648,0,0,1,2.181-3.575Z" transform="translate(-174.948 -23.729)"/><path class="e" d="M290.487,251.595c0,2.129-1.5,3.462-3.35,4.544L189.6,312.4c-1.792,1.073-3.341.208-3.341-1.93V121.03a7.444,7.444,0,0,1,3.341-5.808L287.12,58.928c1.861-1.073,3.35-.208,3.35,1.921Z" transform="translate(-168.733 -21.927)"/><path class="f" d="M188.041,313.323a2.19,2.19,0,0,1-1.1-.286,2.787,2.787,0,0,1-1.2-2.519V120.968a7.842,7.842,0,0,1,3.583-6.189l97.51-56.259a2.467,2.467,0,0,1,4.016,2.311v190.71c0,2.6-2.043,4.051-3.583,4.934l-97.519,56.259a3.393,3.393,0,0,1-1.705.589ZM288.546,58.858a2.683,2.683,0,0,0-1.272.4L189.746,115.55a6.924,6.924,0,0,0-3.116,5.375V310.476a1.6,1.6,0,0,0,2.692,1.549l97.51-56.346c2.155-1.238,3.125-2.519,3.125-4.155V60.771a1.913,1.913,0,0,0-.762-1.792A1.221,1.221,0,0,0,288.546,58.858Z" transform="translate(-168.662 -21.857)"/><path class="g" d="M293.5,25.883c-.277-2.025-1.9-2.761-3.852-1.627L182.376,86.141a7.859,7.859,0,0,0-2.744,2.917l-12.282-7.08a7.9,7.9,0,0,1,2.77-2.908L277.367,17.176a8.655,8.655,0,0,1,7.79,0l4.475,2.6a8.759,8.759,0,0,1,3.869,6.111Z" transform="translate(-166.19 -16.25)"/><g transform="translate(20.296 81.063)"><path class="h" d="M207.238,169.209a19.561,19.561,0,0,1-2.6,8.906,16.722,16.722,0,0,1-6.18,6.266q-4.2,2.415-6.6.043t-2.4-8.95v-1.783a28.623,28.623,0,0,1,1.108-8.032,21.993,21.993,0,0,1,3.168-6.734,15.389,15.389,0,0,1,4.786-4.475q3.774-2.181,6.059-.814c1.541.866,2.423,2.925,2.666,6.059l-4.492,2.6c-.113-1.818-.5-2.951-1.177-3.41s-1.731-.286-3.081.511a7.928,7.928,0,0,0-3.367,4.094,20.356,20.356,0,0,0-1.143,7.322v2.2q0,4.708,1.073,6.275t3.376.225a7.9,7.9,0,0,0,3.107-3.064,10.6,10.6,0,0,0,1.177-4.6Z" transform="translate(-189.46 -115.717)"/><path class="h" d="M212.276,166.3a21.543,21.543,0,0,1,.926-6.266,18.176,18.176,0,0,1,2.674-5.444,13.3,13.3,0,0,1,4.059-3.722c2.181-1.264,3.973-1.4,5.358-.415s2.155,2.969,2.311,5.938v1.463a20.462,20.462,0,0,1-2.077,9.183,14.255,14.255,0,0,1-5.591,6.232q-3.462,2.025-5.6.234t-2.086-6.924ZM216.6,164.2c0,2.06.294,3.462.866,4.215s1.4.814,2.484.19a5.981,5.981,0,0,0,2.467-3.055,14.973,14.973,0,0,0,.866-5.661,7.33,7.33,0,0,0-.866-4.172c-.571-.77-1.419-.866-2.484-.225a5.929,5.929,0,0,0-2.458,3.073,15.19,15.19,0,0,0-.874,5.635Z" transform="translate(-192.524 -115.272)"/><path class="h" d="M241.765,154.347c0-.7-.26-1.108-.788-1.212a5.8,5.8,0,0,0-2.519.372q-5.79,1.731-5.79-3.211a11.252,11.252,0,0,1,1.792-5.842,12.983,12.983,0,0,1,4.683-4.631c2.06-1.186,3.7-1.5,4.942-.917s1.844,1.9,1.844,3.973l-4.328,2.493a2.043,2.043,0,0,0-.6-1.731c-.4-.312-1.021-.216-1.878.268a4.648,4.648,0,0,0-1.688,1.636,3.955,3.955,0,0,0-.6,2.025c0,.64.225,1.03.675,1.16a4.587,4.587,0,0,0,2.3-.26,13.8,13.8,0,0,1,2.726-.606c2.285-.2,3.462,1.073,3.462,3.834a10.767,10.767,0,0,1-1.9,5.886,14.411,14.411,0,0,1-4.916,4.665,6.924,6.924,0,0,1-3.618,1.117,3.107,3.107,0,0,1-2.484-1.22,5.029,5.029,0,0,1-.866-3.133l4.111-2.372c0,1,.32,1.627.866,1.87a2.389,2.389,0,0,0,2.129-.407,5.392,5.392,0,0,0,1.887-1.731A3.679,3.679,0,0,0,241.765,154.347Z" transform="translate(-195.208 -113.769)"/><path class="h" d="M256.289,124.45v5.314l2.77-1.6V132.4l-2.77,1.6v10.828a2.259,2.259,0,0,0,.338,1.523c.234.216.675.13,1.324-.242a9.9,9.9,0,0,0,1.272-.866v4.371a12.921,12.921,0,0,1-2.6,2.034q-4.553,2.6-4.648-3.462V136.507l-2.389,1.4v-4.241l2.363-1.368v-5.314Z" transform="translate(-197.545 -111.863)"/><path class="h" d="M262,137.578a21.586,21.586,0,0,1,.926-6.266,18.254,18.254,0,0,1,2.674-5.444,13.156,13.156,0,0,1,4.059-3.713c2.181-1.264,3.973-1.4,5.349-.415s2.155,2.96,2.32,5.929v1.463a20.461,20.461,0,0,1-2.077,9.183,14.229,14.229,0,0,1-5.591,6.24q-3.462,2.025-5.6.234t-2.086-6.924Zm4.328-2.086c0,2.051.294,3.462.866,4.206s1.4.822,2.484.2a6.059,6.059,0,0,0,2.458-3.029A15.06,15.06,0,0,0,273,131.2a7.349,7.349,0,0,0-.866-4.172c-.571-.77-1.419-.866-2.484-.225a5.929,5.929,0,0,0-2.458,3.073,15.206,15.206,0,0,0-.866,5.617Z" transform="translate(-199.21 -111.411)"/><path class="h" d="M291.515,125.636c0-.71-.26-1.117-.788-1.212a5.947,5.947,0,0,0-2.527.364q-5.782,1.731-5.782-3.211a11.252,11.252,0,0,1,1.792-5.842,13.043,13.043,0,0,1,4.682-4.631q3.09-1.783,4.942-.909c1.229.58,1.844,1.9,1.844,3.964l-4.328,2.5a2.051,2.051,0,0,0-.6-1.731c-.4-.312-1.03-.216-1.878.277a4.51,4.51,0,0,0-1.688,1.705,3.912,3.912,0,0,0-.6,2.025c0,.632.225,1.021.675,1.151a4.587,4.587,0,0,0,2.3-.312,13.8,13.8,0,0,1,2.726-.606c2.285-.2,3.462,1.082,3.462,3.834a10.75,10.75,0,0,1-1.9,5.886,14.411,14.411,0,0,1-4.916,4.665,6.924,6.924,0,0,1-3.618,1.125,3.125,3.125,0,0,1-2.484-1.229,5.02,5.02,0,0,1-.865-3.124l4.111-2.372c0,1,.32,1.619.866,1.861a2.389,2.389,0,0,0,2.129-.407,5.444,5.444,0,0,0,1.887-1.731,3.722,3.722,0,0,0,.554-2.043Z" transform="translate(-201.898 -109.908)"/></g></g><g transform="translate(-9502.015 -12396.183)"><path class="i" d="M672.517,110.12c-7.937.372-10.646,1.887-14.809,6.786s-23.638,41.052-23.638,41.052,3.678,10.3,11.711,9.426l15-24.235Z" transform="translate(-616.768 -50.691)"/><path class="c" d="M675.294,110.1s-5.7-.736-9.772.744-6.059,4.406-8.9,8.655c-2.155,3.315-9.755,17.051-9.755,17.051s3.748,10.282,14.2,10.282Z" transform="translate(-618.489 -50.664)"/><g transform="translate(22.461)"><path class="d" d="M708.176,407.931V406.2c-.684,2.025-3.826,10.707-8.595,15.06-3.748,3.462-8.976,7.5-10.283,11.312s7.193,5.358,10.741,4.734c4.111-.727,9.452-3.064,12.351-6.621,2.034-2.5,3.332-5.479,4.786-7.5s4.812-4.172,5.6-6.448c.433-1.246-.078-4-.692-6.318-.545-2.129-1.16-4.466-1.887-4.267v1.316a9.564,9.564,0,0,1-6.007,2.034C712.391,409.619,708.176,409.3,708.176,407.931Z" transform="translate(-646.637 -90.497)"/><path class="i" d="M697.025,422.765c1.177-1.056,2.363-2.086,3.462-3.055,3.332-3.038,5.868-8.205,7.331-11.728a16.523,16.523,0,0,0,1.255-6.318V394.8h11.988v11.157h0v.268h-.069c-.571,2.5-6.059,9.149-9.235,13.468-2.095,2.917-6.059,6.613-10.854,7.253C696.4,427.638,694.065,426.219,697.025,422.765Z" transform="translate(-647.517 -88.972)"/><path class="d" d="M659.046,394.215v-1.774c-.675,2.025-3.826,10.707-8.595,15-3.748,3.462-8.958,7.5-10.282,11.321s7.21,5.358,10.741,4.726c4.129-.727,9.452-3.064,12.351-6.63,2.034-2.493,3.332-5.47,4.795-7.5s4.812-4.172,5.6-6.448c.441-1.246-.087-4-.684-6.31s-1.168-4.475-1.887-4.276v1.246a9.426,9.426,0,0,1-6.059,2.043C663.373,395.9,659.046,395.556,659.046,394.215Z" transform="translate(-640.03 -88.638)"/><path class="i" d="M647.973,409.1c1.177-1.047,2.354-2.077,3.462-3.064,3.332-3.038,5.886-8.2,7.331-11.719a16.532,16.532,0,0,0,1.255-6.327V381.13h12.031v11.139h0v.3h0c-.571,2.493-6.1,9.149-9.235,13.485-2.1,2.9-6.059,6.6-10.871,7.236C647.332,413.908,644.978,412.523,647.973,409.1Z" transform="translate(-640.919 -87.134)"/><path class="g" d="M713.383,191.783c9.322,20.366-.338,92.1-.338,92.1.277,3.306,4.068,9.806,5.461,24.356,1.662,17.189-2.6,60.345-2.6,60.345a13.043,13.043,0,0,1-12.117.485s-11.512-64.984-13.667-82.087c-1.887-14.922-5.531-47.7-5.531-47.7l-5.8,47.6a88.2,88.2,0,0,1,3.254,14.714c.969,10-8.751,56.865-8.751,56.865s-4.146,1.523-12.031.364c0,0-3.462-62.11-4.328-74.219-1.523-20.331-.589-83.731,3.151-95.831Z" transform="translate(-642.21 -61.268)"/><path class="d" d="M685.637,242.93l-3.021-18.92s-12.81-2.657-18.626-8.11c0,0,6.1,7.565,15.147,10l3.462,14.558-2.328,46.86Z" transform="translate(-643.252 -64.915)"/><path class="j" d="M697.305,110.448h0c3.549.234,4.734.156,7.314.424,5.133.519,6.37,8.049,8.482,12.5a20.47,20.47,0,0,1,.563,15.406l-8.283,24.079s3.895,9.434,8.43,18.349c-20.9,11.659-47.016,5.531-53.3-2.995-.277-1.792,1.35-15.917,2.337-25.1-3.67-9.235-4.648-15.095-3.1-21.24,2.891-11.338,13.225-21.768,16.168-21.759Z" transform="translate(-642.587 -50.69)"/><path class="g" d="M715.12,55.464l-4.328-.381a3.315,3.315,0,0,0,1.246-1.246,3.739,3.739,0,0,0-1.385-4.925l-2.787,5.072a25.187,25.187,0,0,0-23.127-12.49l-2.242.113a25.213,25.213,0,0,0-23.854,26.528h0c.762,14.376,1.61,30.458,1.61,30.458l25.966-1.385a26.71,26.71,0,0,0,25.351-27.991.659.659,0,0,0,0-.13l-.208-3.791a24.953,24.953,0,0,0-1.35-6.924,3.341,3.341,0,0,0,1.246.364,3.678,3.678,0,0,0,3.86-3.272Z" transform="translate(-642.529 -41.458)"/><path class="i" d="M664.068,72.358a51.666,51.666,0,0,0,.208,8.266c.987,12.983,5.366,15.917,7.5,16.731s6.249,0,10.109-.866v7.634s-4.717,6.768-4.18,10.3,8.127,3.99,13.052.242a22.815,22.815,0,0,0,6.924-10.135V86.656s2.856,3.462,7.071.286S708.738,76.634,706,74.2s-8.2-1.419-9.019,2.2c0,0-9.123-.762-10.274-15.77C678.314,71.665,664.6,63.729,664.068,72.358Z" transform="translate(-643.252 -44.036)"/><path class="g" d="M701.4,76.953l.355,6.4h0a4.38,4.38,0,0,1-4.6-4.137l-.372-7.141Z" transform="translate(-647.661 -45.576)"/><path class="d" d="M682.8,78.351a1.636,1.636,0,1,0,1.627-1.731,1.679,1.679,0,0,0-1.627,1.731Z" transform="translate(-645.781 -46.186)"/><path class="k" d="M682,91.88l-4.328,1.653A2.285,2.285,0,0,0,680.544,95h.1A2.493,2.493,0,0,0,682,91.88Z" transform="translate(-645.092 -48.238)"/><path class="g" d="M684.87,69.965l3.808,1.246a1.939,1.939,0,0,0-1.177-2.475h-.069A2.1,2.1,0,0,0,684.87,69.965Z" transform="translate(-646.06 -45.114)"/><path class="d" d="M666.626,79.163a1.653,1.653,0,0,0,1.61,1.731h0a1.679,1.679,0,0,0,1.636-1.731,1.638,1.638,0,0,0-3.263-.286,1.572,1.572,0,0,0,0,.286Z" transform="translate(-643.604 -46.289)"/><path class="k" d="M676.845,77.84l.26,9.824-5.245-1.324Z" transform="translate(-644.31 -46.35)"/><path class="k" d="M684.68,100.979c4.137-.77,12.585-3.748,13.745-7.149a8.8,8.8,0,0,1-2.77,4.492c-2.441,2.32-10.958,5.245-10.958,5.245Z" transform="translate(-646.034 -48.5)"/><path class="l" d="M693.533,185.731c6.864-1.627,8.179-4.215,6.353-11.035a3.742,3.742,0,0,0-.216-.666c-1.333-3.22-6.708-1.307-6.708-1.307s2.2-2.735,4.657-6.249,3.575-9.244,3.9-13.295.987-12.161.987-12.161,5.349-3.2,3.263-9.045l8.249-5,1.549,1.073a21.006,21.006,0,0,1-.338,12.983l-8.283,24.053a137.286,137.286,0,0,1,8.43,18.349c-15.406,8.595-33.626,7.5-44.679,2.96A61.037,61.037,0,0,0,693.533,185.731Z" transform="translate(-644.154 -52.957)"/><path class="d" d="M698.126,75.732l-9.452.5a5.262,5.262,0,0,0-5.375-3.895h-.814a5.254,5.254,0,0,0-4.682,3.523,4.423,4.423,0,0,0-3.133-1.177,3.894,3.894,0,0,0-2.718,1.047,5.245,5.245,0,0,0-4.734-2.493H666.4a5.274,5.274,0,1,0,.563,10.533h.814a5.28,5.28,0,0,0,5-5.539h0a6.062,6.062,0,0,0-.389-1.662,2.891,2.891,0,0,1,2.25-.866,3.462,3.462,0,0,1,2.856,1.212h0a4.518,4.518,0,0,0,0,1.082,5.271,5.271,0,0,0,5.531,4.994h.814a5.254,5.254,0,0,0,5-5.5v-.251l8.448-.45a4.389,4.389,0,0,1,.831-1.056ZM667.772,82.82h-.814a4.388,4.388,0,1,1-.935-8.726,4.232,4.232,0,0,1,.467,0h.814a4.381,4.381,0,1,1,.467,8.75Zm16.056-.866h-.822a4.38,4.38,0,0,1-.467-8.742h.814a4.38,4.38,0,0,1,.476,8.742Z" transform="translate(-642.905 -45.609)"/></g><path class="e" d="M614.08,156.54l42.212,11.122,11.624,47.76-40.143-11.659Z" transform="translate(-614.08 -56.933)"/><path class="m" d="M614.08,156.54l42.212,11.122,11.624,47.76-40.143-11.659Z" transform="translate(-614.08 -56.933)"/><path class="n" d="M646.94,202.12c.277,2.6,2.086,5.574,7.357,8.1s15.58,1.108,15.58,1.108l-1.419-5.886Z" transform="translate(-618.499 -63.062)"/><g class="o" transform="translate(10.802 133.432)"><path class="d" d="M634.774,195.62c-.381,1.065-2.268,4.691-7.79,5.124l-.424-1.463Z" transform="translate(-626.56 -195.62)"/></g><g class="p" transform="translate(12.418 104.895)"><path class="d" d="M628.776,164.944l-.338-1.61c-.2-.866,2.294-.926,5.531-.087l6.206,1.61c3.254.866,6.059,2.25,6.249,3.142l.355,1.61Z" transform="translate(-628.427 -162.65)"/></g><path class="d" d="M625,157.966c-.121-.545.866-.7,2.242-.32l2.493.684s-.736-3.462,4.726-2.259,6.665,5.193,6.665,5.193l2.6.753a5.31,5.31,0,0,1,2.943,1.731l.312,1-21.742-5.721S625.146,158.572,625,157.966Z" transform="translate(-615.547 -56.836)"/><path class="d" d="M628.395,160.174c1.982.476,2.813.753,3.107,2.112.338,1.575.493,2.718.493,2.718l9.616,2.493s-.459-1.982-.606-2.744.173-1.255,1.731-.866l.13-.615L627.78,159.43Z" transform="translate(-615.922 -57.322)"/><path class="d" d="M628.043,165.121s-.156-.727-.355-1.619,2.294-.917,5.539-.087l6.249,1.619c3.246.866,6.059,2.242,6.249,3.133l.338,1.61Z" transform="translate(-615.909 -57.777)"/><path class="i" d="M618.729,174.114s1.575,5.392,1.939,6.682,5.081,3.6,8.2,4.449,6.5,1.878,4.994,6.249c-1.35,4-6.457,4.908-9.062,4.8s-6.154-2.6-7.556-6.6c-1.792-5.115-.865-10.568-1.541-13.563S617.163,172.322,618.729,174.114Z" transform="translate(-614.281 -59.17)"/><path class="i" d="M701.877,110.91c5.479.338,11.139,3.315,12,9.893s6.189,41.234,4.1,45.085c-4.838,9.01-36.707,26.139-39.875,27.6a35.607,35.607,0,0,1-14.714,3.955c-5,0-11.589-.113-14.939-4.6-2.96-3.981-4.631-11.347,2.069-10.083a72.348,72.348,0,0,0,15.354.675l-.77-3.211a15.579,15.579,0,0,1,5.107.866c3.35,1,6.388-1.878,12.3-5.531,7.608-4.708,19.2-14.653,19.2-14.653l-4.726-28.891S696.839,119.461,701.877,110.91Z" transform="translate(-618.353 -50.797)"/><path class="c" d="M708.57,110.881a11.65,11.65,0,0,1,6.154.554c3.211,1.246,6.059,2.848,7.409,9.339s3.973,30.1,3.973,30.1-7.011,5.072-18.418,2.657l-4.111-21.4S700.4,117.018,708.57,110.881Z" transform="translate(-626.033 -50.768)"/></g><g transform="translate(-9869.873 -12292.94)"><path class="g" d="M193.5,218.573,289.236,163.3v13.26L193.5,231.841Z" transform="translate(-189.666 -161.084)"/><path class="d" d="M197.92,221.818v4.414L286,175.383V170.96Z" transform="translate(-190.26 -162.114)"/><path class="d" d="M192.9,218.228l-3.834-2.207,95.745-55.281,3.826,2.216Z" transform="translate(-189.07 -160.74)"/><path class="d" d="M189.07,224.61l3.834,2.207v13.269l-3.834-2.216Z" transform="translate(-189.07 -169.329)"/><path class="d" d="M498.979,426.105,414.72,474.722v-2.155l84.251-48.617Z" transform="translate(-219.414 -196.134)"/><path class="l" d="M305.149,259.543l-18.566,10.741-11.408,6.578a11.136,11.136,0,0,0-1.073.623,15.147,15.147,0,0,0-7.244,12.983v53.325a15.409,15.409,0,0,1-23,13.294,45.977,45.977,0,0,1-22.971-39.814V261.95a45.978,45.978,0,0,0-22.982-39.815l84.278-48.624h0a46.02,46.02,0,0,1,22.988,39.814v24.1C305.157,244.319,305.149,259.543,305.149,259.543Z" transform="translate(-190.258 -162.457)"/><path class="g" d="M335.79,417.691a45.925,45.925,0,0,1-22.98-39.814V324.543a45.812,45.812,0,0,0-22.954-39.814h0a15.311,15.311,0,0,0-22.962,13.277v53.3a15.32,15.32,0,0,1-22.98,13.286,45.951,45.951,0,0,1-22.971-39.814V269.5A45.96,45.96,0,0,0,197.92,229.69v2.2A44.142,44.142,0,0,1,219,269.5V324.82a48.011,48.011,0,0,0,23.923,41.433,17.042,17.042,0,0,0,17.207,0c.329-.19.649-.389.978-.606h0a17,17,0,0,0,7.651-14.29V298.023a13.433,13.433,0,0,1,20.15-11.641,44.142,44.142,0,0,1,22.036,38.152V377.9a47.959,47.959,0,0,0,23.915,41.416l50.72,29.272V446.41Z" transform="translate(-190.26 -170.012)"/><path class="q" d="M481.824,398.552l-84.251,48.582L347.8,418.39a45.925,45.925,0,0,1-22.98-39.814V325.225a45.96,45.96,0,0,0-3.583-17.847,48.01,48.01,0,0,0-2.553-5.133,45.934,45.934,0,0,0-16.817-16.809,15.156,15.156,0,0,0-14.653-.364l11.408-6.578,22.954-13.234L370.708,236.9l.113-.069a15.155,15.155,0,0,1,15.294,0,45.873,45.873,0,0,1,22.971,39.814v53.351a45.993,45.993,0,0,0,22.969,39.813Z" transform="translate(-202.267 -170.693)"/><path class="c" d="M320.6,333.073a44.142,44.142,0,0,0-22.054-38.152,13.433,13.433,0,0,0-20.15,11.641V359.9a17.008,17.008,0,0,1-7.547,14.264h0c-.32.216-.649.415-.978.606l50.789-29.333Z" transform="translate(-199.935 -178.541)"/><path class="r" d="M320.6,333.073a44.142,44.142,0,0,0-22.054-38.152,13.433,13.433,0,0,0-20.15,11.641V359.9a17.008,17.008,0,0,1-7.547,14.264h0c-.32.216-.649.415-.978.606l50.789-29.333Z" transform="translate(-199.935 -178.541)"/><g class="s" transform="translate(7.649 11.053)"><g transform="translate(13.815 8.279)"><path class="e" d="M215.03,223.69a6.561,6.561,0,0,0,7.167.537l60.111-34.708c2.259-1.307,2.787-3.739,1.021-5.262s-5.141-1.541-7.392-.242l-60.154,34.734C213.524,220.063,213.255,222.193,215.03,223.69Z" transform="translate(-213.87 -183.075)"/><path class="t" d="M271.116,212.124a.675.675,0,0,1-.666-.684.692.692,0,0,1,.32-.563l28.112-16.229a.666.666,0,0,1,.866.242.692.692,0,0,1-.242.866l-28.06,16.272A.658.658,0,0,1,271.116,212.124Z" transform="translate(-221.478 -184.622)"/><path class="t" d="M273.616,216.28a.658.658,0,0,1-.338-1.229l28.112-16.229a.675.675,0,0,1,.666,1.16l-28.112,16.237A.718.718,0,0,1,273.616,216.28Z" transform="translate(-221.814 -185.186)"/><path class="t" d="M275.719,220.654a.658.658,0,0,1-.649-.684.632.632,0,0,1,.32-.554L303.5,203.188a.649.649,0,0,1,.865.242.666.666,0,0,1-.251.866l-28.1,16.229A.615.615,0,0,1,275.719,220.654Z" transform="translate(-222.099 -185.769)"/><path class="t" d="M277.415,225.189a.658.658,0,0,1-.346-1.229l28.112-16.229a.658.658,0,1,1,.658,1.134l-28.112,16.229a.684.684,0,0,1-.312.1Z" transform="translate(-222.323 -186.375)"/><path class="t" d="M278.639,229.637a.645.645,0,0,1-.329-1.2L306.4,212.188a.658.658,0,0,1,.866.234h0a.658.658,0,0,1-.242.866l-28.069,16.237A.8.8,0,0,1,278.639,229.637Z" transform="translate(-222.492 -186.98)"/><path class="t" d="M279.485,234.407a.666.666,0,0,1-.338-1.246l28.1-16.229a.675.675,0,0,1,.866.338.658.658,0,0,1-.216.814l-28.06,16.211a.658.658,0,0,1-.355.113Z" transform="translate(-222.602 -187.621)"/><path class="t" d="M279.9,239.493a.667.667,0,0,1-.675-.649.649.649,0,0,1,.346-.6L307.7,221.992a.666.666,0,0,1,.866.338.649.649,0,0,1-.216.814l-28.1,16.246a.7.7,0,0,1-.364.1Z" transform="translate(-222.657 -188.301)"/><path class="t" d="M233.666,272.255a.485.485,0,0,1-.415-.242.476.476,0,0,1,.182-.64l68.195-39.382a.485.485,0,0,1,.649.173.467.467,0,0,1-.164.64h0l-68.221,39.382A.459.459,0,0,1,233.666,272.255Z" transform="translate(-216.468 -189.645)"/><path class="t" d="M233.666,277.12a.5.5,0,0,1-.415-.242.485.485,0,0,1,.182-.649l68.195-39.4a.476.476,0,0,1,.649.173.459.459,0,0,1-.156.632h0l-68.23,39.407a.571.571,0,0,1-.225.078Z" transform="translate(-216.468 -190.295)"/><path class="t" d="M233.666,281.981a.485.485,0,0,1-.415-.242.476.476,0,0,1,.182-.64l68.195-39.407a.494.494,0,0,1,.476.866h0L233.892,281.92A.554.554,0,0,1,233.666,281.981Z" transform="translate(-216.468 -190.949)"/><path class="t" d="M233.666,286.847a.485.485,0,0,1-.415-.242.459.459,0,0,1,.164-.623h0l68.195-39.408a.476.476,0,0,1,.623.242.459.459,0,0,1-.147.571l-68.2,39.364A.381.381,0,0,1,233.666,286.847Z" transform="translate(-216.468 -191.608)"/><path class="t" d="M233.657,268.056a.467.467,0,0,1-.528-.4.476.476,0,0,1,.294-.5l36.1-20.851a.476.476,0,1,1,.571.762l-.1.061-36.118,20.842A.451.451,0,0,1,233.657,268.056Z" transform="translate(-216.459 -191.565)"/><path class="e" d="M232.538,243.066a44.843,44.843,0,0,1,4.908,17.908.675.675,0,0,0,.623.736.658.658,0,0,0,.485-.147l2.008-1.16a2.077,2.077,0,0,0,.866-1.792A48.929,48.929,0,0,0,239.782,249a52.34,52.34,0,0,0-3.228-8.257,1.143,1.143,0,0,0-1.541-.467h-.052l-1.973,1.143a1.255,1.255,0,0,0-.45,1.645Z" transform="translate(-216.361 -190.749)"/><path class="e" d="M239.393,233.452a47.605,47.605,0,0,1,4.838,10.3A45.007,45.007,0,0,1,246.386,255a.671.671,0,0,0,1.091.6l2.008-1.168a2.069,2.069,0,0,0,.952-1.792,47.956,47.956,0,0,0-2.181-11.2,46.038,46.038,0,0,0-4.8-10.239,1.3,1.3,0,0,0-1.679-.415l-2,1.117a1.065,1.065,0,0,0-.433,1.454.354.354,0,0,0,.043.1Z" transform="translate(-217.278 -189.471)"/><path class="e" d="M257.332,238.418l-1.965,1.134a1.549,1.549,0,0,0-.666,1.731,45.5,45.5,0,0,1,1.792,10.153.675.675,0,0,0,.606.736.718.718,0,0,0,.485-.147l2.008-1.16a2.069,2.069,0,0,0,.952-1.792,48.511,48.511,0,0,0-1.844-10.127.866.866,0,0,0-1.1-.632,1.065,1.065,0,0,0-.268.1Z" transform="translate(-219.352 -190.498)"/><path class="e" d="M266.359,229.09a1,1,0,0,0-1.3-.58,1.175,1.175,0,0,0-.208.113l-1.956,1.168a1.393,1.393,0,0,0-.571,1.679c.355.866.692,1.792,1.039,2.813a44.211,44.211,0,0,1,2.147,11.252.675.675,0,0,0,.623.736.71.71,0,0,0,.476-.147l2.008-1.16a2.069,2.069,0,0,0,.952-1.792,47.467,47.467,0,0,0-2.2-11.252,27.561,27.561,0,0,0-1.013-2.83Z" transform="translate(-220.373 -189.176)"/><path class="t" d="M233.53,258.682a.338.338,0,0,0-.45-.121l-.866.485c-.182-1.16-.4-2.3-.658-3.462l1.134-.649a.346.346,0,0,0,.061-.476.338.338,0,0,0-.4-.1l-.969.563c-.286-1.143-.6-2.268-.969-3.367l1.082-.623a.32.32,0,0,0,.13-.45.338.338,0,0,0-.459-.13l-.978.563c-.372-1.073-.77-2.138-1.22-3.176v-.078l1.073-.623a.338.338,0,0,0,.13-.45h0a.329.329,0,0,0-.4-.1l-1.013.58c-.467-1.047-.987-2.086-1.549-3.125l1.065-.615a.338.338,0,0,0,.13-.45h0a.338.338,0,0,0-.459-.121l-1.056.615c-.571-1-1.177-2-1.844-2.986l1.212-.684a.329.329,0,0,0,.13-.441h0a.329.329,0,0,0-.45-.13h0l-1.238.727c-.718-1.03-1.463-2.051-2.268-3.064a.346.346,0,0,0-.485,0,.355.355,0,0,0,0,.415q1.177,1.463,2.216,2.977l-1.151.658a.338.338,0,0,0-.121.45.32.32,0,0,0,.286.164.268.268,0,0,0,.164,0l1.194-.675c.658.987,1.272,1.965,1.835,2.969l-1.333.77a.338.338,0,0,0,.173.623.242.242,0,0,0,.156,0l1.324-.762c.571,1.039,1.091,2.086,1.549,3.133l-1.376.8a.338.338,0,0,0-.121.45.32.32,0,0,0,.294.164.208.208,0,0,0,.156-.043l1.316-.762h0a33.593,33.593,0,0,1,1.246,3.254l-1.4.814a.329.329,0,0,0,.156.615.294.294,0,0,0,.173,0l1.3-.744c.372,1.108.684,2.224.961,3.376l-1.4.8a.338.338,0,0,0-.13.45h0a.337.337,0,0,0,.286.156.294.294,0,0,0,.173,0l1.229-.71c.26,1.134.467,2.285.649,3.462l-1.515.866a.346.346,0,0,0-.121.459.355.355,0,0,0,.294.164.26.26,0,0,0,.156-.052l1.29-.736c.2,1.4.338,2.839.415,4.328a.329.329,0,0,0,.329.312h0a.32.32,0,0,0,.312-.346h0c-.078-1.558-.225-3.1-.441-4.613l1.056-.606a.329.329,0,0,0,.113-.64Z" transform="translate(-214.947 -190.284)"/><g class="u" transform="translate(21.223 82.221)"><path class="e" d="M239.248,329.791a52.986,52.986,0,0,1-.312-7.591c.268-.978,4.328-14.939,11.823-19.284a5.071,5.071,0,0,1,1.48-.623,2.891,2.891,0,0,1,.606-.069c1.991,0,2.874,2.761,3.739,5.427a26.94,26.94,0,0,0,1.177,3.211c.511,1.073,1.385,2.493,3.029,2.493a4.19,4.19,0,0,0,2.051-.623c3.583-2.051,4.631-7.608,5.73-13.476a66.919,66.919,0,0,1,1.792-7.79c1.091-3.462,2.51-5.548,4.475-6.673a3.583,3.583,0,0,1,1.67-.554c2.086,0,2.874,3.722,3.635,7.314a29.674,29.674,0,0,0,1.523,5.5c.762,1.731,1.792,2.6,3.055,2.6a4.379,4.379,0,0,0,2.095-.649c4.414-2.545,5.747-6.872,7.037-11.044,1.1-3.583,2.129-6.924,5.046-8.595a4.276,4.276,0,0,1,2.164-.675,3.021,3.021,0,0,1,.961.156,19.542,19.542,0,0,1,.13,2.008l.061,8.456c.069,1.619.182,2.891.329,3.981Z" transform="translate(-238.46 -278.153)"/><path class="d" d="M302.967,293.4c-.19-1.264-.294-2.683-.381-4.232V280.71a17.462,17.462,0,0,0-.182-2.328,3.038,3.038,0,0,0-1.385-.312h0a4.734,4.734,0,0,0-2.4.744c-6.5,3.774-4.025,14.982-12.117,19.639a3.955,3.955,0,0,1-1.913.606c-1.212,0-2.017-.865-2.6-2.294-1.9-4.276-1.852-13.078-5.583-13.078a3.834,3.834,0,0,0-1.9.606c-2.311,1.333-3.7,3.886-4.665,6.924-2.406,7.539-2.259,18.133-7.279,20.989a3.739,3.739,0,0,1-1.792.571c-1.186,0-1.982-.866-2.6-2.224-1.549-3.263-2.095-8.915-5.375-8.915a3.313,3.313,0,0,0-.71.087,5.806,5.806,0,0,0-1.61.666c-7.98,4.639-12.065,19.622-12.065,19.622a54.894,54.894,0,0,0,.39,8.43l.866-.528a10.194,10.194,0,0,1-.147-1.013,54.8,54.8,0,0,1-.225-6.742c.372-1.324,4.38-14.714,11.6-18.955a4.949,4.949,0,0,1,1.342-.563,1.99,1.99,0,0,1,.5-.061c1.636,0,2.484,2.6,3.289,5.107a26.7,26.7,0,0,0,1.194,3.263c.338.684,1.324,2.77,3.462,2.77a4.6,4.6,0,0,0,2.285-.7c3.782-2.147,4.838-7.79,5.955-13.8a65.388,65.388,0,0,1,1.792-7.729c1.056-3.306,2.4-5.375,4.241-6.414a3,3,0,0,1,1.428-.485c1.731,0,2.484,3.687,3.176,6.924a30,30,0,0,0,1.541,5.6c.866,1.887,2.008,2.856,3.462,2.856a4.8,4.8,0,0,0,2.4-.744c4.57-2.64,6-7.253,7.253-11.321,1.073-3.462,2.077-6.717,4.838-8.318a3.886,3.886,0,0,1,1.921-.623h0a2.137,2.137,0,0,1,.519.069c.1.943.113,1.627.113,1.636v8.5c.069,1.463.164,2.683.294,3.687a6.2,6.2,0,0,0,.182.987l.866-.485" transform="translate(-238.39 -278.07)"/></g><g class="v" transform="translate(21.189 75.84)"><path class="e" d="M238.376,316.78v4.267a54.892,54.892,0,0,0,.389,8.43l64.2-37.07c-.19-1.264-.3-2.683-.381-4.241l-.043-8.448s0-12.637-8.058-8c-8.439,4.873-6.059,20.331-12.039,23.785s-4.007-10.317-12.031-5.678-4.016,14.948-12.039,19.578-4.016-18.73-12.04-14.108S238.376,311.449,238.376,316.78Z" transform="translate(-238.35 -270.698)"/></g><path class="t" d="M234.949,339.96a.312.312,0,0,1-.286-.173.329.329,0,0,1,.121-.45h0l68.29-39.113a.337.337,0,0,1,.45.13.329.329,0,0,1-.113.45h0l-68.29,39.113A.4.4,0,0,1,234.949,339.96Z" transform="translate(-216.66 -198.823)"/><path class="f" d="M247.646,301.523a.346.346,0,0,1-.346-.329v-.675a.329.329,0,0,1,.32-.329h0a.329.329,0,0,1,.329.329v.675a.346.346,0,0,1-.3.329Z" transform="translate(-218.365 -198.824)"/><path class="f" d="M247.783,327.477a.346.346,0,0,1-.329-.3c0-.433-.069-.866-.1-1.29a.329.329,0,0,1,.312-.355h0a.312.312,0,0,1,.346.26v.043a12.21,12.21,0,0,0,.1,1.272.346.346,0,0,1-.294.372h0Zm-.147-2.6a.346.346,0,0,1-.346-.329v-1.29a.329.329,0,0,1,.338-.338.338.338,0,0,1,.338.338v1.272a.329.329,0,0,1-.32.346Zm0-2.6a.355.355,0,0,1-.338-.329v-1.29a.355.355,0,0,1,.338-.338h0a.346.346,0,0,1,.329.338v1.29a.346.346,0,0,1-.338.329Zm0-2.6a.338.338,0,0,1-.338-.329v-1.29a.346.346,0,0,1,.346-.338h0a.346.346,0,0,1,.329.338v1.29a.329.329,0,0,1-.329.329Zm0-2.6a.346.346,0,0,1-.338-.329v-1.316a.338.338,0,0,1,.675,0v1.29a.338.338,0,0,1-.32.355h0Zm0-2.6a.338.338,0,0,1-.338-.329v-1.281a.346.346,0,0,1,.338-.338.338.338,0,0,1,.329.338h0v1.281a.329.329,0,0,1-.3.355h-.069Zm0-2.6a.329.329,0,0,1-.338-.312v-1.3a.346.346,0,0,1,.338-.338.338.338,0,0,1,.329.338v1.281a.329.329,0,0,1-.312.338h0Zm0-2.6h0a.329.329,0,0,1-.338-.312v-1.3a.338.338,0,0,1,.338-.338.32.32,0,0,1,.329.329h0v1.281a.329.329,0,0,1-.312.338h0Zm0-2.6h0a.338.338,0,0,1-.338-.338V305.31a.338.338,0,1,1,.675,0v1.29a.346.346,0,0,1-.364.329h0Zm0-2.6a.346.346,0,0,1-.338-.329V302.5a.338.338,0,0,1,.346-.338h0a.329.329,0,0,1,.329.329v1.29a.338.338,0,0,1-.346.338h0Z" transform="translate(-218.364 -199.088)"/><path class="f" d="M248.046,333.435a.338.338,0,0,1-.329-.286l-.078-.666a.331.331,0,1,1,.658-.078l.078.658a.329.329,0,0,1-.277.372h-.052Z" transform="translate(-218.41 -203.116)"/><path class="f" d="M303.228,272.792a.338.338,0,0,1-.338-.338h0v-.666a.329.329,0,0,1,.338-.338h0a.338.338,0,0,1,.329.338v.666A.346.346,0,0,1,303.228,272.792Z" transform="translate(-225.84 -194.959)"/><path class="f" d="M303.423,298.8a.346.346,0,0,1-.329-.312c-.052-.424-.078-.866-.1-1.29a.346.346,0,0,1,.312-.355.32.32,0,0,1,.355.294h0c0,.433.061.866.1,1.272a.329.329,0,0,1-.294.364h0Zm-.156-2.6a.346.346,0,0,1-.338-.338v-1.29a.329.329,0,0,1,.329-.329h0a.338.338,0,0,1,.338.329v1.281a.346.346,0,0,1-.329.346Zm0-2.6a.338.338,0,0,1-.329-.338v-1.324a.329.329,0,0,1,.329-.329h0a.346.346,0,0,1,.346.329v1.281a.337.337,0,0,1-.329.338h0Zm0-2.6a.346.346,0,0,1-.338-.338v-1.29a.338.338,0,0,1,.329-.329h0a.346.346,0,0,1,.346.329v1.29a.355.355,0,0,1-.337.424Zm0-2.6a.346.346,0,0,1-.329-.338v-1.151a.329.329,0,0,1,.329-.329.337.337,0,0,1,.338.329v1.29a.329.329,0,0,1-.329.338h0Zm0-2.6a.346.346,0,0,1-.338-.338v-1.151a.343.343,0,0,1,.675,0v1.29a.355.355,0,0,1-.355.338h0Zm0-2.6a.338.338,0,0,1-.338-.32h0v-1.281a.342.342,0,1,1,.675-.113V282.9a.329.329,0,0,1-.329.329h0Zm0-2.6h0a.338.338,0,0,1-.338-.32h0v-1.281a.329.329,0,0,1,.32-.346h0a.346.346,0,0,1,.338.346V280.3a.329.329,0,0,1-.338.329h0Zm0-2.6h0a.329.329,0,0,1-.329-.329h0v-1.281a.329.329,0,0,1,.329-.338.338.338,0,0,1,.338.338V277.7a.346.346,0,0,1-.346.338h0Zm0-2.6h0a.346.346,0,0,1-.329-.338v-1.246a.338.338,0,0,1,.389-.286.346.346,0,0,1,.286.286v1.29a.346.346,0,0,1-.381.294h0Z" transform="translate(-225.845 -195.242)"/><path class="f" d="M303.685,304.794a.346.346,0,0,1-.338-.286l-.078-.675a.32.32,0,0,1,.277-.363h0a.338.338,0,0,1,.381.277h0l.078.666a.338.338,0,0,1-.277.372h-.052Z" transform="translate(-225.891 -199.264)"/><path class="f" d="M275.406,295.092a.346.346,0,0,1-.346-.338v-.666a.338.338,0,1,1,.675,0v.632a.338.338,0,0,1-.312.372Z" transform="translate(-222.098 -197.958)"/><path class="f" d="M275.553,312.925a.338.338,0,0,1-.329-.312c0-.407-.069-.866-.1-1.246a.346.346,0,0,1,.312-.364.329.329,0,0,1,.355.286h0c0,.415.061.866.1,1.238a.346.346,0,0,1-.294.372h-.043Zm-.147-2.5a.346.346,0,0,1-.346-.329V308.84a.346.346,0,0,1,.329-.346h0a.346.346,0,0,1,.329.338v1.255a.346.346,0,0,1-.329.338Zm0-2.51a.312.312,0,0,1-.329-.312v-1.229a.338.338,0,0,1,.329-.338h0a.329.329,0,0,1,.329.329h0v1.22A.329.329,0,0,1,275.406,307.914Zm0-2.5a.346.346,0,0,1-.346-.338V303.82a.338.338,0,0,1,.338-.329h0a.329.329,0,0,1,.338.32h0v1.255a.346.346,0,0,1-.329.346Zm0-2.51a.329.329,0,0,1-.329-.329v-1.29a.338.338,0,0,1,.389-.286.346.346,0,0,1,.277.286v1.246a.338.338,0,0,1-.3.364h0Zm0-2.5h0a.338.338,0,0,1-.329-.338v-1.255a.338.338,0,0,1,.389-.286.346.346,0,0,1,.277.286v1.255a.338.338,0,0,1-.346.32Zm0-2.51h0a.338.338,0,0,1-.329-.338v-1.246a.338.338,0,1,1,.666-.1.208.208,0,0,1,0,.1v1.255a.338.338,0,0,1-.338.32Z" transform="translate(-222.098 -198.247)"/><path class="f" d="M275.856,317.554a.338.338,0,0,1-.329-.286l-.078-.675a.32.32,0,0,1,.268-.364h0a.32.32,0,0,1,.364.286l.087.666a.338.338,0,0,1-.286.372h-.052Z" transform="translate(-222.15 -200.98)"/><path class="t" d="M247.46,297.574c.632-.364,1.151-.121,1.151.545a2.484,2.484,0,0,1-1.151,1.887c-.64.364-1.16.113-1.16-.545a2.432,2.432,0,0,1,1.16-1.887Z" transform="translate(-218.231 -198.449)"/><path class="t" d="M275.28,291.143c.632-.372,1.151-.13,1.151.545a2.432,2.432,0,0,1-1.151,1.87c-.641.381-1.16.13-1.16-.537A2.458,2.458,0,0,1,275.28,291.143Z" transform="translate(-221.971 -197.584)"/><path class="t" d="M303.091,270.444c.641-.364,1.16-.113,1.16.554a2.458,2.458,0,0,1-1.16,1.878c-.64.364-1.151.121-1.151-.545a2.424,2.424,0,0,1,1.151-1.887Z" transform="translate(-225.713 -194.801)"/><path class="t" d="M234.989,305.3a.338.338,0,0,0,.13-.45h0a.32.32,0,0,0-.45-.121h0l-.866.5v-3.462l1.212-.7a.338.338,0,0,0,.13-.45h0a.338.338,0,0,0-.45-.121l-.866.511v-3.635a.333.333,0,1,0-.666,0v4.059l-1.212.692a.338.338,0,0,0-.121.459h0a.338.338,0,0,0,.286.164.311.311,0,0,0,.173-.052l.866-.5v3.462l-1.22.7a.329.329,0,0,0-.121.45.338.338,0,0,0,.286.164.4.4,0,0,0,.173-.043l.866-.5v3.462l-1.22.7a.32.32,0,0,0-.13.433h0a.337.337,0,0,0,.294.164.321.321,0,0,0,.156-.043l.866-.511v3.462l-1.22.692a.329.329,0,0,0-.13.45h0a.372.372,0,0,0,.3.173.32.32,0,0,0,.156,0l.866-.511v3.462l-1.22.7a.329.329,0,0,0-.13.45h0a.372.372,0,0,0,.3.173h.156l.866-.511v3.462l-1.22.7a.338.338,0,0,0-.121.459.364.364,0,0,0,.294.173.337.337,0,0,0,.156-.052l.866-.511v3.462l-1.22.692a.338.338,0,0,0-.121.459.32.32,0,0,0,.286.173.355.355,0,0,0,.164-.043l.866-.511V331.1l-1.246.718a.329.329,0,0,0-.147.441.32.32,0,0,0,.312.182.389.389,0,0,0,.164-.043l.961-.554c.069,1.255.182,2.51.329,3.73a.338.338,0,0,0,.338.286h0a.32.32,0,0,0,.286-.364h0c-.164-1.316-.277-2.683-.355-4.016l1.151-.658a.338.338,0,0,0-.338-.58l-.866.485c0-1.142-.052-2.285,0-3.462l1.2-.692a.338.338,0,0,0,.121-.45.329.329,0,0,0-.45-.13h0l-.866.5V323.03l1.2-.7a.329.329,0,0,0,.138-.441.338.338,0,0,0-.45-.147h0l-.866.5v-3.462l1.212-.7a.338.338,0,0,0,.113-.459h0a.338.338,0,0,0-.459-.113l-.866.5v-3.462l1.212-.692a.338.338,0,0,0,.113-.459.329.329,0,0,0-.459-.121l-.866.5v-3.462l1.2-.7a.32.32,0,0,0,.13-.433h0a.32.32,0,0,0-.424-.13h0l-.866.5v-3.531Z" transform="translate(-216.25 -198.399)"/><path class="e" d="M320.961,329.437l-64.214,37.027c-2.25,1.3-5.522,1.151-7.158-.511s-.961-4.2,1.3-5.5l64.118-37.027a5.877,5.877,0,0,1,6.881.77C323.6,325.871,323.22,328.147,320.961,329.437Z" transform="translate(-218.551 -201.845)"/><path class="t" d="M236.309,344.675a.467.467,0,0,1-.234-.866l72.246-41.667a.459.459,0,0,1,.623.242.485.485,0,0,1-.147.571l-72.254,41.71a.372.372,0,0,1-.234.009Z" transform="translate(-216.826 -199.08)"/><path class="t" d="M238.007,349.191a.5.5,0,0,1-.407-.242.476.476,0,0,1,.173-.649l72.263-41.71a.459.459,0,0,1,.632.156h0a.485.485,0,0,1-.173.649L238.258,349.1A.441.441,0,0,1,238.007,349.191Z" transform="translate(-217.052 -199.675)"/><path class="t" d="M240.113,353.513a.476.476,0,0,1-.493-.459.459.459,0,0,1,.26-.433l72.272-41.736a.476.476,0,0,1,.467.814l-72.28,41.744a.683.683,0,0,1-.225.069Z" transform="translate(-217.332 -200.258)"/><path class="t" d="M242.605,357.629a.485.485,0,0,1-.415-.242.45.45,0,0,1,.156-.623h0l72.3-41.77a.467.467,0,0,1,.623.242.485.485,0,0,1-.147.571l-72.237,41.77a.546.546,0,0,1-.277.052Z" transform="translate(-217.669 -200.809)"/></g></g><path class="e" d="M315.26,278.84l59.488-34.327c2.259-1.3,5.842-2.069,7.859-1.255s1.645,2.934-.615,4.232l-60.172,34.716c-2.259,1.307-5.461,1.445-7.253.476S313.053,280.138,315.26,278.84Z" transform="translate(-205.788 -171.791)"/><path class="t" d="M323.447,289.036a.5.5,0,0,1-.415-.242.493.493,0,0,1,.182-.649l68.533-39.555a.467.467,0,0,1,.641.173.459.459,0,0,1-.165.632h0L323.7,288.95a.381.381,0,0,1-.251.087Z" transform="translate(-207.077 -172.545)"/><path class="t" d="M326.726,292.568a.5.5,0,0,1-.415-.242.485.485,0,0,1,.182-.649l68.636-39.607a.45.45,0,0,1,.623.156h0a.485.485,0,0,1-.173.649L326.943,292.49a.562.562,0,0,1-.216.078Z" transform="translate(-207.517 -173.012)"/><path class="t" d="M338.521,334.294h0a.329.329,0,0,1-.329-.329h0V330.33c0-2.735,0-2.735-.078-4.587v-.3a44,44,0,0,0-2.406-12.412,34.4,34.4,0,0,0-6.18-10.793.329.329,0,0,1,.052-.467.32.32,0,0,1,.467.052,35.244,35.244,0,0,1,6.275,10.992,45.006,45.006,0,0,1,2.467,12.516v.312c.078,1.861.078,1.861.069,4.622V333.9a.338.338,0,0,1-.286.381Z" transform="translate(-207.948 -179.694)"/><path class="e" d="M338.946,303.39c-.3-.537-.632-1.056-.978-1.575a1.047,1.047,0,0,1,.225-1.471l.112-.078,26.182-15.112a1.246,1.246,0,0,1,1.67.389,13.841,13.841,0,0,1,.866,1.627,1.255,1.255,0,0,1-.493,1.645L340.487,303.84a1.134,1.134,0,0,1-1.549-.424Z" transform="translate(-209.065 -177.447)"/><path class="e" d="M342.07,307.4c.19.6.381,1.194.537,1.792a.866.866,0,0,0,1.091.649,1.03,1.03,0,0,0,.225-.1l62.128-35.867a1.619,1.619,0,0,0,.727-1.731c-.173-.615-.346-1.212-.528-1.792a.866.866,0,0,0-1.393-.528L342.711,305.7a1.515,1.515,0,0,0-.64,1.705Z" transform="translate(-209.636 -175.384)"/><path class="w" d="M342.07,307.4c.19.6.381,1.194.537,1.792a.866.866,0,0,0,1.091.649,1.03,1.03,0,0,0,.225-.1l62.128-35.867a1.619,1.619,0,0,0,.727-1.731c-.173-.615-.346-1.212-.528-1.792a.866.866,0,0,0-1.393-.528L342.711,305.7a1.515,1.515,0,0,0-.64,1.705Z" transform="translate(-209.636 -175.384)"/><path class="e" d="M344.169,318.736c.087.658.147,1.307.2,1.921a.671.671,0,0,0,1.091.6l42.091-24.3a2.034,2.034,0,0,0,.943-1.792c-.052-.649-.121-1.281-.2-1.93a.736.736,0,0,0-.744-.727.77.77,0,0,0-.433.156l-42.091,24.287a1.9,1.9,0,0,0-.857,1.783Z" transform="translate(-209.925 -178.459)"/><path class="r" d="M344.169,318.736c.087.658.147,1.307.2,1.921a.671.671,0,0,0,1.091.6l42.091-24.3a2.034,2.034,0,0,0,.943-1.792c-.052-.649-.121-1.281-.2-1.93a.736.736,0,0,0-.744-.727.77.77,0,0,0-.433.156l-42.091,24.287a1.9,1.9,0,0,0-.857,1.783Z" transform="translate(-209.925 -178.459)"/><path class="e" d="M344.57,330.818v1.9c0,.641.45.866,1.021.58L363.6,322.916a2.233,2.233,0,0,0,1.021-1.792v-1.9c0-.649-.45-.866-1.021-.589l-18.012,10.386a2.233,2.233,0,0,0-1.021,1.8Z" transform="translate(-209.98 -181.956)"/><path class="x" d="M344.57,330.818v1.9c0,.641.45.866,1.021.58L363.6,322.916a2.233,2.233,0,0,0,1.021-1.792v-1.9c0-.649-.45-.866-1.021-.589l-18.012,10.386a2.233,2.233,0,0,0-1.021,1.8Z" transform="translate(-209.98 -181.956)"/><path class="t" d="M408.654,298.16a.346.346,0,0,0-.338.346h0v1.619l-4.8,2.77v-1.212a.338.338,0,0,0-.389-.286.346.346,0,0,0-.277.286v1.593l-4.8,2.778v-1.194a.338.338,0,1,0-.666-.113.242.242,0,0,0,0,.113v1.575l-4.8,2.77v-1.16a.346.346,0,0,0-.329-.346.338.338,0,0,0-.338.329v1.567l-4.8,2.77v-1.142a.338.338,0,0,0-.338-.329.329.329,0,0,0-.329.329v1.515l-4.8,2.778V314.38a.329.329,0,0,0-.32-.329h0a.329.329,0,0,0-.329.329v1.515l-4.821,2.77v-1.108a.338.338,0,0,0-.666,0v1.489l-4.8,2.778v-1.082a.338.338,0,0,0-.39-.286.329.329,0,0,0-.277.286v1.515l-4.8,2.77v-1.039a.338.338,0,0,0-.389-.277.346.346,0,0,0-.286.277v1.445l-4.8,2.778v-1.039a.338.338,0,1,0-.675,0v1.419l-4.8,2.778v-1.021a.338.338,0,1,0-.675,0v1.428l-4.8,2.77v-1.039a.338.338,0,0,0-.666,0v1.385l-4.163,2.406a.32.32,0,0,0-.13.45h0a.337.337,0,0,0,.294.164.286.286,0,0,0,.164-.052l3.834-2.207v1.359a.329.329,0,0,0,.389.277.32.32,0,0,0,.277-.277v-1.731l4.8-2.77v1.316a.337.337,0,0,0,.389.286.346.346,0,0,0,.286-.286V332.1l4.8-2.778v1.316a.338.338,0,1,0,.675,0V328.9l4.8-2.77v1.316a.346.346,0,0,0,.4.277.338.338,0,0,0,.277-.277v-1.731l4.8-2.77v1.272a.338.338,0,0,0,.389.286.346.346,0,0,0,.277-.286v-1.653l4.8-2.778v1.255a.338.338,0,0,0,.389.286.329.329,0,0,0,.277-.286v-1.593l4.8-2.77v1.246a.329.329,0,0,0,.329.329.338.338,0,0,0,.338-.329v-1.61l4.752-2.718v1.212a.338.338,0,0,0,.666,0v-1.645l4.8-2.77v1.186a.329.329,0,0,0,.338.329.338.338,0,0,0,.329-.329v-1.575l4.8-2.77v1.168a.329.329,0,0,0,.389.277.338.338,0,0,0,.277-.277v-1.549l4.838-2.778V305.2a.338.338,0,0,0,.39.286.329.329,0,0,0,.277-.286v-1.532l4.8-2.761v1.117a.338.338,0,1,0,.675,0v-3.514a.355.355,0,0,0-.32-.346Z" transform="translate(-209.876 -179.219)"/><path class="e" d="M355.473,349.06a12.118,12.118,0,0,0-3.462,1.411c-6.647,3.912-12.031,13.675-12.031,21.82v.632l12.014-5.5Z" transform="translate(-209.363 -186.064)"/><path class="e" d="M357.342,349.033,353.88,367.4l11.9-6.924a19.045,19.045,0,0,0,.13-2.224C365.859,351.577,362.276,348,357.342,349.033Z" transform="translate(-211.232 -186.037)"/><path class="e" d="M364.235,368.489a25.766,25.766,0,0,0,1.506-6.189l-11.9,6.924Z" transform="translate(-211.227 -187.844)"/><path class="e" d="M340,375.636c.268,7.7,5.557,10.923,12.022,7.167,4.475-2.6,8.309-7.79,10.386-13.433l-10.386.718Z" transform="translate(-209.366 -188.795)"/><path class="w" d="M357.342,349.033,353.88,367.4l11.9-6.924a19.045,19.045,0,0,0,.13-2.224C365.859,351.577,362.276,348,357.342,349.033Z" transform="translate(-211.232 -186.037)"/><path class="r" d="M364.235,368.489a25.766,25.766,0,0,0,1.506-6.189l-11.9,6.924Z" transform="translate(-211.227 -187.844)"/><path class="x" d="M340,375.636c.268,7.7,5.557,10.923,12.022,7.167,4.475-2.6,8.309-7.79,10.386-13.433l-10.386.718Z" transform="translate(-209.366 -188.795)"/><path class="f" d="M339.926,373.326a.519.519,0,0,1-.251-.069.493.493,0,0,1-.225-.39v-.649c0-8.283,5.5-18.254,12.265-22.218a12.3,12.3,0,0,1,3.635-1.471.476.476,0,0,1,.433.13.459.459,0,0,1,.13.415l-3.523,18.392a.467.467,0,0,1-.26.338l-12,5.5A.389.389,0,0,1,339.926,373.326Zm14.913-23.7a12,12,0,0,0-2.683,1.186c-6.491,3.808-11.763,13.346-11.806,21.309l11.131-5.089Z" transform="translate(-209.292 -185.991)"/><path class="f" d="M353.766,367.8a.442.442,0,0,1-.277-.087.485.485,0,0,1-.19-.476l3.505-18.332a.485.485,0,0,1,.372-.381,6.838,6.838,0,0,1,5.912,1.255c2.051,1.662,3.185,4.665,3.185,8.439a20.19,20.19,0,0,1-.13,2.282.536.536,0,0,1-.234.349L354,367.777A.589.589,0,0,1,353.766,367.8Zm3.955-18.427-3.263,17.008,10.81-6.223a18.048,18.048,0,0,0,.113-1.93c0-3.462-1.013-6.223-2.848-7.712A5.79,5.79,0,0,0,357.722,349.376Z" transform="translate(-211.153 -185.964)"/><path class="f" d="M353.766,369.607a.476.476,0,0,1-.45-.329.459.459,0,0,1,.208-.545l11.91-6.924a.459.459,0,0,1,.493,0,.485.485,0,0,1,.216.45,26.129,26.129,0,0,1-1.541,6.266.5.5,0,0,1-.407.3l-10.386.718Zm11.321-6.491-9.339,5.375,8.067-.563A25.6,25.6,0,0,0,365.087,363.116Zm-.866,5.3" transform="translate(-211.153 -187.768)"/><path class="f" d="M346.784,384.816a6.708,6.708,0,0,1-3.263-.814c-2.5-1.393-3.964-4.328-4.111-8.387a.467.467,0,0,1,.277-.441l12.013-5.5h.164l10.386-.71a.467.467,0,0,1,.476.623c-2.172,5.9-6.275,11.122-10.594,13.649A10.854,10.854,0,0,1,346.784,384.816Zm-6.414-8.958c.19,3.514,1.471,6.059,3.583,7.279s4.812.866,7.695-.8c4.007-2.311,7.79-7.054,9.91-12.472l-9.573.666Z" transform="translate(-209.286 -188.74)"/><path class="e" d="M397.514,326.62c-3.921,4.708-6.6,11.252-6.6,17.077a12.351,12.351,0,0,0,1.523,6.379l10.516-13.32Z" transform="translate(-216.212 -183.046)"/><path class="e" d="M409.411,319.33a10.006,10.006,0,0,0-5.427,1.541,20.5,20.5,0,0,0-5.444,4.769l5.444,10.118Z" transform="translate(-217.238 -182.066)"/><path class="e" d="M415.744,323.173a6.266,6.266,0,0,0-5.487-3.843l-5.427,16.445Z" transform="translate(-218.084 -182.066)"/><path class="e" d="M414.111,323.77l-10.914,12.6L392.68,349.71c2.06,3.358,5.989,4.163,10.516,1.558,6.639-3.843,12.031-13.615,12.031-21.846a12.983,12.983,0,0,0-1.117-5.652Z" transform="translate(-216.45 -182.663)"/><path class="w" d="M409.411,319.33a10.006,10.006,0,0,0-5.427,1.541,20.5,20.5,0,0,0-5.444,4.769l5.444,10.118Z" transform="translate(-217.238 -182.066)"/><path class="r" d="M415.744,323.173a6.266,6.266,0,0,0-5.487-3.843l-5.427,16.445Z" transform="translate(-218.084 -182.066)"/><path class="x" d="M414.111,323.77l-10.914,12.6L392.68,349.71c2.06,3.358,5.989,4.163,10.516,1.558,6.639-3.843,12.031-13.615,12.031-21.846a12.983,12.983,0,0,0-1.117-5.652Z" transform="translate(-216.45 -182.663)"/><path class="f" d="M392.374,350.469h0a.485.485,0,0,1-.381-.234,12.758,12.758,0,0,1-1.584-6.613c0-5.738,2.6-12.4,6.7-17.388a.511.511,0,0,1,.407-.164.476.476,0,0,1,.372.251l5.435,10.127a.441.441,0,0,1-.043.511L392.737,350.3a.459.459,0,0,1-.364.173Zm4.985-23.075c-3.73,4.743-6.059,10.906-6.059,16.229a12.507,12.507,0,0,0,1.117,5.522l9.85-12.533Z" transform="translate(-216.143 -182.972)"/><path class="f" d="M403.911,336.16a.467.467,0,0,1-.424-.251l-5.436-10.118a.485.485,0,0,1,.052-.537,20.615,20.615,0,0,1,5.565-4.856,10.386,10.386,0,0,1,5.687-1.619.467.467,0,0,1,.363.208.45.45,0,0,1,.061.415l-5.427,16.445a.476.476,0,0,1-.407.329Zm-4.882-10.542,4.769,8.88,4.882-14.775a10.16,10.16,0,0,0-4.535,1.489,19.484,19.484,0,0,0-5.115,4.406Z" transform="translate(-217.164 -181.992)"/><path class="f" d="M404.756,336.157a.432.432,0,0,1-.234-.069.459.459,0,0,1-.216-.554l5.427-16.445a.467.467,0,0,1,.467-.329,6.768,6.768,0,0,1,5.894,4.111.476.476,0,0,1-.078.519L405.1,335.975A.459.459,0,0,1,404.756,336.157Zm5.756-16.445-4.579,13.848,9.175-10.568A5.816,5.816,0,0,0,410.512,319.712Z" transform="translate(-218.01 -181.989)"/><path class="f" d="M398.013,353.185a6.6,6.6,0,0,1-5.816-3.315.493.493,0,0,1,0-.554l10.508-13.3,10.949-12.619a.493.493,0,0,1,.424-.164.468.468,0,0,1,.355.26,13.33,13.33,0,0,1,1.177,5.842c0,8.352-5.5,18.341-12.282,22.244A10.637,10.637,0,0,1,398.013,353.185Zm-4.83-3.575c2.051,3.029,5.652,3.462,9.694,1.117,6.509-3.756,11.8-13.372,11.8-21.431a13.148,13.148,0,0,0-.779-4.76l-10.386,12.022Z" transform="translate(-216.373 -182.59)"/><path class="e" d="M373.4,339l1.965-1.142c.571-.32,1.021-.052,1.021.6v1.9a2.233,2.233,0,0,1-1.021,1.792l-1.965,1.134c-.563.329-1.021.069-1.021-.589V340.8A2.242,2.242,0,0,1,373.4,339Z" transform="translate(-213.72 -184.539)"/><path class="e" d="M373.4,348.8l1.965-1.143c.571-.329,1.021-.061,1.021.6v1.887a2.233,2.233,0,0,1-1.021,1.792l-1.965,1.194c-.563.338-1.021.069-1.021-.589v-1.913A2.224,2.224,0,0,1,373.4,348.8Z" transform="translate(-213.72 -185.856)"/><path class="w" d="M373.4,348.8l1.965-1.143c.571-.329,1.021-.061,1.021.6v1.887a2.233,2.233,0,0,1-1.021,1.792l-1.965,1.194c-.563.338-1.021.069-1.021-.589v-1.913A2.224,2.224,0,0,1,373.4,348.8Z" transform="translate(-213.72 -185.856)"/><path class="e" d="M373.4,358.631l1.965-1.142c.571-.32,1.021-.061,1.021.6v1.887a2.233,2.233,0,0,1-1.021,1.792L373.4,362.9c-.563.329-1.021.052-1.021-.589v-1.9A2.242,2.242,0,0,1,373.4,358.631Z" transform="translate(-213.72 -187.179)"/><path class="r" d="M373.4,358.631l1.965-1.142c.571-.32,1.021-.061,1.021.6v1.887a2.233,2.233,0,0,1-1.021,1.792L373.4,362.9c-.563.329-1.021.052-1.021-.589v-1.9A2.242,2.242,0,0,1,373.4,358.631Z" transform="translate(-213.72 -187.179)"/><path class="e" d="M373.4,368.441l1.965-1.143c.571-.32,1.021-.052,1.021.589v1.9a2.233,2.233,0,0,1-1.021,1.792l-1.965,1.134c-.563.32-1.021.061-1.021-.589v-1.887a2.233,2.233,0,0,1,1.021-1.8Z" transform="translate(-213.72 -188.498)"/><path class="x" d="M373.4,368.441l1.965-1.143c.571-.32,1.021-.052,1.021.589v1.9a2.233,2.233,0,0,1-1.021,1.792l-1.965,1.134c-.563.32-1.021.061-1.021-.589v-1.887a2.233,2.233,0,0,1,1.021-1.8Z" transform="translate(-213.72 -188.498)"/><path class="t" d="M379.25,338.267a.658.658,0,0,1-.571-.338.666.666,0,0,1,.242-.866l5.989-3.462a.675.675,0,0,1,.866.338.658.658,0,0,1-.216.814l-6,3.462a.658.658,0,0,1-.312.052Z" transform="translate(-214.557 -183.978)"/><path class="t" d="M379.145,348.135a.658.658,0,0,1-.675-.641.632.632,0,0,1,.346-.6l5.989-3.462a.675.675,0,0,1,.788,1.091l-.121.069-6,3.462A.623.623,0,0,1,379.145,348.135Z" transform="translate(-214.539 -185.294)"/><path class="t" d="M379,358.057a.675.675,0,0,1-.658-.684.658.658,0,0,1,.32-.563l6-3.462a.666.666,0,0,1,.866.242.692.692,0,0,1-.242.866l-6,3.462a.709.709,0,0,1-.286.139Z" transform="translate(-214.521 -186.631)"/><path class="t" d="M378.9,367.969a.649.649,0,0,1-.571-.329.666.666,0,0,1,.242-.866l6-3.462a.67.67,0,0,1,.753,1.108.233.233,0,0,1-.087.052l-6.007,3.462a.615.615,0,0,1-.329.035Z" transform="translate(-214.51 -187.965)"/><path class="t" d="M340.719,400.86a.641.641,0,0,1-.571-.346.649.649,0,0,1,.242-.866l28.1-16.22a.658.658,0,0,1,.866.242.675.675,0,0,1-.251.866L341.014,400.8a.658.658,0,0,1-.294.061Z" transform="translate(-209.375 -190.675)"/><path class="t" d="M341.745,405.654a.666.666,0,0,1-.675-.649.675.675,0,0,1,.346-.6l28.1-16.211a.669.669,0,1,1,.666,1.16l-28.086,16.211a.683.683,0,0,1-.346.087Z" transform="translate(-209.51 -191.314)"/><path class="t" d="M343.256,410.269a.666.666,0,0,1-.666-.675.658.658,0,0,1,.32-.563L371,392.82a.666.666,0,0,1,.935.147.658.658,0,0,1-.147.935l-.113.069-28.086,16.211a.649.649,0,0,1-.329.087Z" transform="translate(-209.714 -191.931)"/><path class="t" d="M391.64,371.456a.64.64,0,0,1-.571-.329.667.667,0,0,1,.234-.866l28.086-16.272a.684.684,0,0,1,.866.242.675.675,0,0,1-.251.866l-28.078,16.211a.683.683,0,0,1-.286.147Z" transform="translate(-216.223 -186.718)"/><path class="t" d="M392.676,376.281a.649.649,0,0,1-.329-1.22l28.086-16.211a.675.675,0,0,1,.866.242.667.667,0,0,1-.251.866l-28.069,16.211A.745.745,0,0,1,392.676,376.281Z" transform="translate(-216.359 -187.371)"/><path class="t" d="M394.176,380.907a.658.658,0,0,1-.338-1.229l28.086-16.211a.673.673,0,1,1,.666,1.168L394.47,380.82A.683.683,0,0,1,394.176,380.907Z" transform="translate(-216.561 -187.989)"/><path class="e" d="M351.876,412.436l64.049-36.967a4.925,4.925,0,0,1,6.414,1.151c1.376,1.878.814,4.328-1.437,5.635l-64.049,36.958c-2.259,1.3-5.375.961-6.734-.866S349.635,413.734,351.876,412.436Z" transform="translate(-210.64 -189.519)"/><path class="t" d="M364.359,436.482a.675.675,0,0,1-.58-.329.658.658,0,0,1,.251-.865l28.078-16.3a.675.675,0,0,1,.865.242.658.658,0,0,1-.242.866l-28.078,16.211a.71.71,0,0,1-.294.173Z" transform="translate(-212.554 -195.458)"/><path class="t" d="M360.306,433.624a.684.684,0,0,1-.666-.684.692.692,0,0,1,.32-.563l28.086-16.211a.659.659,0,0,1,.658,1.143l-28.069,16.22A.657.657,0,0,1,360.306,433.624Z" transform="translate(-212.007 -195.076)"/><path class="t" d="M368.659,439.016a.692.692,0,0,1-.58-.346.666.666,0,0,1,.242-.866l28.1-16.22a.658.658,0,1,1,.649,1.142l-28.078,16.2a.788.788,0,0,1-.329.087Z" transform="translate(-213.132 -195.802)"/><path class="t" d="M410.685,409.755a.666.666,0,0,1-.338-1.246L438.425,392.3a.675.675,0,0,1,.675,1.168L411.023,409.66a.684.684,0,0,1-.338.1Z" transform="translate(-218.78 -191.867)"/><path class="t" d="M406.628,406.888a.675.675,0,0,1-.338-1.246l28.086-16.2a.658.658,0,0,1,.866.242.675.675,0,0,1-.251.865L406.94,406.792a.771.771,0,0,1-.312.1Z" transform="translate(-218.238 -191.484)"/><path class="t" d="M414.95,412.279a.649.649,0,0,1-.571-.329.658.658,0,0,1,.242-.866l28.086-16.2a.667.667,0,1,1,.744,1.108l-.087.052-28.078,16.185a.657.657,0,0,1-.338.052Z" transform="translate(-219.358 -192.21)"/><path class="e" d="M411.134,437.956c-6.059-3.514-16.445-3.254-23.075.58s-7.089,9.8-1,13.312,16.445,3.272,23.075-.563S417.21,441.487,411.134,437.956Zm-4.146,11.5c-4.752,2.744-12.117,2.925-16.445.415s-4.042-6.786.7-9.521,12.117-2.926,16.488-.407S411.731,446.715,406.988,449.458Z" transform="translate(-215.118 -197.685)"/><path class="e" d="M395.823,443.014c2.848-1.653,7.279-1.792,9.893-.251s2.415,4.068-.433,5.712-7.279,1.792-9.85.242S392.976,444.65,395.823,443.014Z" transform="translate(-216.573 -198.519)"/><path class="y" d="M395.823,443.014c2.848-1.653,7.279-1.792,9.893-.251s2.415,4.068-.433,5.712-7.279,1.792-9.85.242S392.976,444.65,395.823,443.014Z" transform="translate(-216.573 -198.519)"/><path class="r" d="M411.134,437.956c-6.059-3.514-16.445-3.254-23.075.58s-7.089,9.8-1,13.312,16.445,3.272,23.075-.563S417.21,441.487,411.134,437.956Zm-4.146,11.5c-4.752,2.744-12.117,2.925-16.445.415s-4.042-6.786.7-9.521,12.117-2.926,16.488-.407S411.731,446.715,406.988,449.458Z" transform="translate(-215.118 -197.685)"/><path class="e" d="M396,436.2l1.385,2.484a19.907,19.907,0,0,1,8.136-.156l1.878-2.553A27.7,27.7,0,0,0,396,436.2Z" transform="translate(-216.896 -197.686)"/><path class="w" d="M396,436.2l1.385,2.484a19.907,19.907,0,0,1,8.136-.156l1.878-2.553A27.7,27.7,0,0,0,396,436.2Z" transform="translate(-216.896 -197.686)"/><path class="t" d="M402.5,433.167h0a.666.666,0,0,1-.623-.71l.19-3.064,12.334-7.167a.675.675,0,0,1,.917.251.667.667,0,0,1-.242.917l-11.771,6.8-.138,2.346a.666.666,0,0,1-.666.623Z" transform="translate(-217.687 -195.891)"/><path class="e" d="M452.834,413.9c-6.059-3.523-16.445-3.263-23.075.571s-7.089,9.8-1,13.32,16.445,3.263,23.084-.571S458.936,417.418,452.834,413.9ZM448.688,425.4c-4.743,2.744-12.117,2.934-16.445.415s-4.033-6.777.71-9.521,12.117-2.917,16.445-.407,4.042,6.777-.71,9.521Z" transform="translate(-220.725 -194.45)"/><path class="e" d="M437.529,418.954c2.848-1.645,7.27-1.792,9.85-.251s2.423,4.068-.433,5.712-7.27,1.792-9.85.242S434.673,420.642,437.529,418.954Z" transform="translate(-222.177 -195.284)"/><path class="y" d="M437.529,418.954c2.848-1.645,7.27-1.792,9.85-.251s2.423,4.068-.433,5.712-7.27,1.792-9.85.242S434.673,420.642,437.529,418.954Z" transform="translate(-222.177 -195.284)"/><path class="r" d="M452.834,413.9c-6.059-3.523-16.445-3.263-23.075.571s-7.089,9.8-1,13.32,16.445,3.263,23.084-.571S458.936,417.418,452.834,413.9ZM448.688,425.4c-4.743,2.744-12.117,2.934-16.445.415s-4.033-6.777.71-9.521,12.117-2.917,16.445-.407,4.042,6.777-.71,9.521Z" transform="translate(-220.725 -194.45)"/><path class="e" d="M454.179,413.905c-5.141-2.977-13.312-3.246-19.7-.943l2.207,2.25c4.579-1.645,10.386-1.445,14.091.675a8.369,8.369,0,0,1,1.679,1.281l4.111-1.463a10.757,10.757,0,0,0-2.389-1.8Z" transform="translate(-222.071 -194.45)"/><path class="w" d="M454.179,413.905c-5.141-2.977-13.312-3.246-19.7-.943l2.207,2.25c4.579-1.645,10.386-1.445,14.091.675a8.369,8.369,0,0,1,1.679,1.281l4.111-1.463a10.757,10.757,0,0,0-2.389-1.8Z" transform="translate(-222.071 -194.45)"/><path class="t" d="M444.316,409.053h-.043a.675.675,0,0,1-.623-.71l.19-3.073,12.334-7.115a.667.667,0,1,1,.675,1.151L445.1,406.058l-.147,2.354a.675.675,0,0,1-.64.641Z" transform="translate(-223.304 -192.653)"/><path class="t" d="M406.9,457.53a.667.667,0,0,1-.675-.667.684.684,0,0,1,.338-.588l68.2-39.286a.666.666,0,0,1,.866.242.675.675,0,0,1-.242.909l-68.2,39.33A.864.864,0,0,1,406.9,457.53Z" transform="translate(-218.271 -195.189)"/><path class="t" d="M411.15,459.953a.675.675,0,0,1-.329-1.246l68.195-39.347a.675.675,0,0,1,.943.147.666.666,0,0,1-.156.935.493.493,0,0,1-.113.069L411.5,459.867a.684.684,0,0,1-.346.087Z" transform="translate(-218.847 -195.5)"/><path class="t" d="M415.4,462.384a.667.667,0,0,1-.571-.338.675.675,0,0,1,.242-.866l68.273-39.364a.675.675,0,0,1,.909.242.666.666,0,0,1-.251.909l-68.195,39.364a.779.779,0,0,1-.407.052Z" transform="translate(-219.419 -195.836)"/></g><g transform="translate(-9719.331 -12387.121)"><path class="l" d="M431.178,81.029a34.284,34.284,0,1,1-39-28.71,34.284,34.284,0,0,1,39,28.71Z" transform="translate(-363.001 -51.926)"/><path class="l" d="M424.379,83.554a26.122,26.122,0,1,1-29.722-21.881,26.122,26.122,0,0,1,29.722,21.881Z" transform="translate(-364.269 -53.197)"/><path class="z" d="M424.174,82.53a16.688,16.688,0,0,1-1.151-3,27.7,27.7,0,0,0-4.172-7.461,25.888,25.888,0,0,0-9.858-7.677,23.794,23.794,0,0,0-3.41-1.246,23.308,23.308,0,0,0-3.7-.762,24.435,24.435,0,0,0-3.938-.19,25.412,25.412,0,0,0-7.911,1.445,26.114,26.114,0,0,0-3.557,1.584,24.285,24.285,0,0,0-3.185,2.025,24.548,24.548,0,0,0-2.752,2.372,25.845,25.845,0,0,0-6.5,10.672,27.869,27.869,0,0,0-1.255,8.456c0,2.051.147,3.194,0,3.22s-.511-1.082-.77-3.168a24.339,24.339,0,0,1,.667-8.863,26.182,26.182,0,0,1,6.543-11.572,24.752,24.752,0,0,1,2.908-2.6,25.17,25.17,0,0,1,3.41-2.276,27.181,27.181,0,0,1,3.852-1.731,29.479,29.479,0,0,1,4.224-1.125,28.416,28.416,0,0,1,4.328-.433,26.017,26.017,0,0,1,4.215.26,24.643,24.643,0,0,1,3.981.866,25.4,25.4,0,0,1,3.644,1.394,26.252,26.252,0,0,1,10.2,8.56,24.088,24.088,0,0,1,3.782,8.084C424.27,81.361,424.287,82.53,424.174,82.53Z" transform="translate(-364.194 -53.038)"/><path class="z" d="M406.039,103.6l.744,4.492-4.007.658-.727-4.328c-4.007.415-8.015-.2-10.508-1.558l1.393-5.254a16.445,16.445,0,0,0,8.248,1.558l-1.108-6.7c-4.631-.338-9.841-1-10.793-6.734-.7-4.25,1.783-8.4,7.989-10.179l-.736-4.449,4.007-.666.727,4.328a18.462,18.462,0,0,1,8.526,1.108l-1.186,5.262a16.791,16.791,0,0,0-6.483-1.073l1.134,6.82c4.613.3,9.754.978,10.689,6.63C414.659,97.687,412.21,101.8,406.039,103.6Zm-6.924-17.051-.943-5.7c-2.043.866-2.692,2.138-2.475,3.462s1.549,1.965,3.4,2.233Zm8.5,8.517c-.234-1.4-1.523-1.973-3.35-2.285l.917,5.531c1.913-.779,2.623-1.965,2.415-3.246Z" transform="translate(-366.52 -54.416)"/></g><g transform="translate(-9610.841 -12311.023)"><g transform="translate(0 0)"><path class="l" d="M530.189,157.705a21.041,21.041,0,1,1-23.966-17.613,21.041,21.041,0,0,1,23.966,17.613Z" transform="translate(-488.347 -139.847)"/><path class="l" d="M526.047,159.226A16.03,16.03,0,1,1,507.811,145.8,16.03,16.03,0,0,1,526.047,159.226Z" transform="translate(-489.13 -140.623)"/><path class="z" d="M525.888,158.638a9.583,9.583,0,0,1-.71-1.844,16.879,16.879,0,0,0-2.6-4.579,15.874,15.874,0,0,0-8.136-5.479,14.936,14.936,0,0,0-2.276-.467,15.653,15.653,0,0,0-2.4-.13,18.34,18.34,0,0,0-2.458.251,16.835,16.835,0,0,0-2.4.641,14.715,14.715,0,0,0-2.2.969,15.586,15.586,0,0,0-1.956,1.238,15.327,15.327,0,0,0-1.688,1.454,15.8,15.8,0,0,0-3.981,6.552,16.773,16.773,0,0,0-.77,5.193,10.075,10.075,0,0,1,0,1.973,4.725,4.725,0,0,1-.476-1.947,14.819,14.819,0,0,1,.415-5.461,16.351,16.351,0,0,1,1.411-3.549,16,16,0,0,1,2.6-3.549,15.789,15.789,0,0,1,1.783-1.593,14.536,14.536,0,0,1,2.095-1.368,15.353,15.353,0,0,1,2.363-1.065,17.148,17.148,0,0,1,2.6-.692,18.677,18.677,0,0,1,2.657-.268,16.974,16.974,0,0,1,2.6.156,14.717,14.717,0,0,1,2.441.545,14.043,14.043,0,0,1,2.233.866,16.262,16.262,0,0,1,3.7,2.389,16.444,16.444,0,0,1,2.6,2.83,14.715,14.715,0,0,1,2.32,4.959A4.683,4.683,0,0,1,525.888,158.638Z" transform="translate(-489.075 -140.529)"/></g><path class="z" d="M514.763,171.555l.459,2.752-2.458.407-.45-2.683a11.806,11.806,0,0,1-6.448-.952l.866-3.228a10.04,10.04,0,0,0,5.063.961l-.684-4.111c-2.839-.208-6.059-.615-6.621-4.129-.433-2.6,1.091-5.193,4.908-6.249l-.459-2.735,2.467-.407.441,2.683a11.39,11.39,0,0,1,5.245.675l-.736,3.228a10.317,10.317,0,0,0-3.973-.658l.692,4.189c2.839.182,5.989.6,6.561,4.068C520.051,167.919,518.545,170.447,514.763,171.555ZM510.5,161.09l-.58-3.462c-1.255.511-1.653,1.307-1.515,2.121S509.362,160.926,510.5,161.09Zm5.193,5.193c-.138-.866-.935-1.212-2.051-1.411l.563,3.4c1.2-.441,1.636-1.168,1.506-1.956Z" transform="translate(-490.508 -141.371)"/></g><g transform="translate(-9961.5 -12220.744)"><path class="l" d="M125.049,262.006a21.041,21.041,0,1,1-23.932-17.613A21.041,21.041,0,0,1,125.049,262.006Z" transform="translate(-83.208 -244.153)"/><path class="l" d="M120.875,263.526A16.038,16.038,0,1,1,102.639,250.1,16.038,16.038,0,0,1,120.875,263.526Z" transform="translate(-83.985 -244.928)"/><path class="z" d="M120.745,262.938a9.581,9.581,0,0,1-.71-1.844,16.877,16.877,0,0,0-2.6-4.579,15.891,15.891,0,0,0-6.059-4.717,15.668,15.668,0,0,0-2.086-.762,14.937,14.937,0,0,0-2.276-.467,15.66,15.66,0,0,0-2.4-.13,18.619,18.619,0,0,0-2.467.251,16.715,16.715,0,0,0-2.389.64,14.713,14.713,0,0,0-2.164.969,17.022,17.022,0,0,0-3.687,2.692,16.048,16.048,0,0,0-2.527,3.254,16.445,16.445,0,0,0-2.233,8.491,8.6,8.6,0,0,1,0,1.973,4.769,4.769,0,0,1-.467-1.947A14.818,14.818,0,0,1,89.1,261.3a15.943,15.943,0,0,1,4.016-7.1,15.07,15.07,0,0,1,1.783-1.593A14.536,14.536,0,0,1,97,251.245a16.226,16.226,0,0,1,2.363-1.065,17.15,17.15,0,0,1,2.6-.692,18.563,18.563,0,0,1,2.657-.268,17.043,17.043,0,0,1,2.6.156,14.932,14.932,0,0,1,2.441.545,14.041,14.041,0,0,1,2.233.866,16,16,0,0,1,6.275,5.193,14.913,14.913,0,0,1,2.32,4.959,4.873,4.873,0,0,1,.268,2Z" transform="translate(-83.933 -244.834)"/><path class="z" d="M109.621,275.837l.459,2.752-2.467.407-.441-2.683a11.711,11.711,0,0,1-6.448-.952l.866-3.22a10.135,10.135,0,0,0,5.063.952L105.96,269c-2.839-.208-6.059-.615-6.621-4.129-.433-2.6,1.091-5.193,4.9-6.249l-.45-2.726,2.458-.415.45,2.683a11.356,11.356,0,0,1,5.236.675l-.727,3.228a10.387,10.387,0,0,0-3.973-.658l.692,4.189c2.83.182,5.989.6,6.561,4.068C114.91,272.219,113.4,274.747,109.621,275.837Zm-4.258-10.464-.58-3.462c-1.255.511-1.653,1.307-1.523,2.121s.969,1.194,2.1,1.359Zm5.193,5.193c-.138-.866-.935-1.212-2.051-1.411l.563,3.4c1.22-.424,1.636-1.151,1.506-1.913Z" transform="translate(-85.368 -245.676)"/></g><g transform="translate(-9610.743 -12223.894)"><path class="g" d="M548.492,346.486l-52.364-10.023A2.969,2.969,0,0,1,493.782,333l16.852-88.05a4.2,4.2,0,0,1,4.908-3.332l49.941,9.564a4.2,4.2,0,0,1,3.332,4.908l-16.86,88.05a2.951,2.951,0,0,1-3.462,2.346Z" transform="translate(-489.169 -240.652)"/><g class="v" transform="translate(4.55 0.873)"><path class="e" d="M548.49,346.466l-52.373-10.023a2.951,2.951,0,0,1-2.346-3.462l16.861-88.05a4.189,4.189,0,0,1,4.908-3.332l49.932,9.521a4.2,4.2,0,0,1,3.332,4.908L551.952,344.12A2.96,2.96,0,0,1,548.49,346.466Z" transform="translate(-493.717 -241.523)"/></g><g transform="translate(0)"><path class="g" d="M543.231,345.456l-52.373-10.023a2.969,2.969,0,0,1-2.346-3.462l16.861-88.05a4.2,4.2,0,0,1,4.908-3.332l49.932,9.521a4.206,4.206,0,0,1,3.332,4.916L546.693,343.11a2.96,2.96,0,0,1-3.462,2.346Z" transform="translate(-488.46 -240.514)"/><rect class="g" width="19.941" height="8.813" rx="2.416" transform="matrix(0.982, 0.19, -0.19, 0.982, 10.037, 74.768)"/><g class="o" transform="translate(8.359 74.768)"><rect class="e" width="19.941" height="8.813" rx="2.416" transform="matrix(0.982, 0.19, -0.19, 0.982, 1.677, 0)"/></g><g transform="translate(16.644 9.535)"><rect class="q" width="19.864" height="50.642" transform="matrix(0.188, -0.982, 0.982, 0.188, 0.095, 19.623)"/><path class="d" d="M557.492,280.655a1.592,1.592,0,0,1,.061-.355c.061-.234.1-.563.19-1,.164-.866.407-2.2.727-3.878.632-3.367,1.558-8.24,2.7-14.29v.069l-49.733-9.521h0l.1-.069c-1.307,6.829-2.6,13.416-3.739,19.509l-.069-.1,35.712,6.881,10.386,2.008,2.77.537.718.147.242.052-.234-.043-.71-.13-2.761-.519L543.471,278l-35.7-6.794h-.078v-.078c1.168-6.059,2.432-12.689,3.73-19.509v-.087h.087l49.733,9.521h.061v.061c-1.168,6.059-2.121,10.932-2.77,14.307-.329,1.67-.58,2.969-.753,3.86l-.2,1C557.518,280.543,557.492,280.655,557.492,280.655Z" transform="translate(-507.69 -251.53)"/></g><g transform="translate(15.055 37.23)"><rect class="g" width="8.603" height="8.603" rx="2.08" transform="matrix(0.982, 0.188, -0.188, 0.982, 2.915, 0.257)"/><g class="o" transform="translate(1.297 0.257)"><rect class="e" width="8.603" height="8.603" rx="2.08" transform="matrix(0.982, 0.188, -0.188, 0.982, 1.618, 0)"/></g><rect class="d" width="8.603" height="8.603" rx="2.08" transform="matrix(0.982, 0.188, -0.188, 0.982, 1.618, 0)"/><path class="h" d="M512.525,287.312l-.666,3.523-.822-.156.554-2.865-.71-.138.1-.675Z" transform="translate(-506.53 -283.995)"/></g><g transform="translate(26.851 39.485)"><rect class="g" width="8.603" height="8.603" rx="2.08" transform="matrix(0.982, 0.188, -0.188, 0.982, 2.915, 0.248)"/><g class="o" transform="translate(1.297 0.248)"><rect class="e" width="8.603" height="8.603" rx="2.08" transform="matrix(0.982, 0.188, -0.188, 0.982, 1.618, 0)"/></g><rect class="d" width="8.603" height="8.603" rx="2.08" transform="matrix(0.982, 0.188, -0.188, 0.982, 1.618, 0)"/><path class="h" d="M526.807,293.047l-.121.666-2.666-.511.1-.528,1.6-1.021c.372-.242.459-.407.493-.58a.523.523,0,0,0-.476-.545.866.866,0,0,0-.8.216l-.519-.5a1.636,1.636,0,0,1,1.523-.381c.788.147,1.238.649,1.117,1.29a1.454,1.454,0,0,1-.8,1l-.961.615Z" transform="translate(-520.093 -286.627)"/></g><g transform="translate(39.071 41.828)"><rect class="g" width="8.603" height="8.603" rx="2.08" transform="matrix(0.982, 0.188, -0.188, 0.982, 2.915, 0.248)"/><g class="o" transform="translate(1.297 0.248)"><rect class="e" width="8.603" height="8.603" rx="2.08" transform="matrix(0.982, 0.188, -0.188, 0.982, 1.618, 0)"/></g><rect class="d" width="8.603" height="8.603" rx="2.08" transform="matrix(0.982, 0.188, -0.188, 0.982, 1.618, 0)"/><path class="h" d="M540.96,295.309c-.113.6-.675,1.056-1.679.866a2.467,2.467,0,0,1-1.281-.666l.441-.563a1.731,1.731,0,0,0,.943.511c.407.078.692-.043.744-.329s-.113-.467-.571-.563l-.372-.069.1-.537.866-.684-1.5-.286.13-.649,2.467.467-.1.528-.969.753a1.013,1.013,0,0,1,.779,1.22Z" transform="translate(-534.193 -289.311)"/></g><g transform="translate(51.318 44.168)"><rect class="g" width="8.603" height="8.603" rx="2.08" transform="matrix(0.982, 0.188, -0.188, 0.982, 2.89, 0.252)"/><g class="o" transform="translate(1.272 0.252)"><rect class="e" width="8.603" height="8.603" rx="2.08" transform="matrix(0.982, 0.188, -0.188, 0.982, 1.618, 0)"/></g><rect class="d" width="8.603" height="8.603" rx="2.08" transform="matrix(0.982, 0.188, -0.188, 0.982, 1.618, 0)"/><g transform="translate(3.142 2.598)"><rect class="h" width="0.329" height="3.843" transform="matrix(0.188, -0.982, 0.982, 0.188, 0, 2.082)"/><path class="h" d="M554.446,295.276a.615.615,0,0,1-.727.493.623.623,0,0,1,.234-1.22.614.614,0,0,1,.493.727Z" transform="translate(-551.633 -294.546)"/><path class="h" d="M553.717,299.084a.626.626,0,1,1-.5-.736A.626.626,0,0,1,553.717,299.084Z" transform="translate(-551.528 -295.055)"/></g></g><g transform="translate(12.682 49.615)"><g class="o" transform="translate(1.474 0.359)"><path class="e" d="M512.246,308.014l-6.691-1.281a.865.865,0,0,1-.718-1.047l1.281-6.7a.866.866,0,0,1,1.056-.71l6.691,1.281a.866.866,0,0,1,.71,1.047l-1.281,6.7a.866.866,0,0,1-1.047.71Z" transform="translate(-504.815 -298.253)"/></g><rect class="d" width="8.603" height="8.603" rx="2.08" transform="matrix(0.982, 0.188, -0.188, 0.982, 1.618, 0)"/><path class="h" d="M510.118,304.631l-.537-.1-.147.736-.8-.147.147-.744-1.9-.364.1-.545,2.086-1.921.866.164L508,303.541l.943.182.13-.658.77.147-.13.658.58.113Z" transform="translate(-503.62 -298.337)"/></g><g transform="translate(24.477 51.87)"><rect class="g" width="8.603" height="8.603" rx="2.08" transform="matrix(0.982, 0.188, -0.188, 0.982, 2.924, 0.25)"/><g class="o" transform="translate(1.306 0.25)"><rect class="e" width="8.603" height="8.603" rx="2.08" transform="matrix(0.982, 0.188, -0.188, 0.982, 1.618, 0)"/></g><rect class="d" width="8.603" height="8.603" rx="2.08" transform="matrix(0.982, 0.188, -0.188, 0.982, 1.618, 0)"/><path class="h" d="M523.69,306.822c-.112.623-.675,1.082-1.688.866a2.6,2.6,0,0,1-1.272-.632l.441-.563a1.731,1.731,0,0,0,.943.5c.407.078.692-.043.744-.329s-.086-.493-.727-.615l-.866-.173.563-1.878,2.147.407-.13.658-1.463-.277-.19.658.294.052C523.491,305.653,523.811,306.2,523.69,306.822Z" transform="translate(-517.277 -300.921)"/></g><g transform="translate(36.688 54.213)"><rect class="g" width="8.603" height="8.603" rx="2.08" transform="matrix(0.982, 0.188, -0.188, 0.982, 2.934, 0.241)"/><g class="o" transform="translate(1.316 0.241)"><rect class="e" width="8.603" height="8.603" rx="2.08" transform="matrix(0.982, 0.188, -0.188, 0.982, 1.618, 0)"/></g><rect class="d" width="8.603" height="8.603" rx="2.08" transform="matrix(0.982, 0.188, -0.188, 0.982, 1.618, 0)"/><path class="h" d="M538.111,309.575a1.229,1.229,0,0,1-1.558.917,1.532,1.532,0,0,1-1.238-2.043,1.731,1.731,0,0,1,2.155-1.558,2.042,2.042,0,0,1,.935.433l-.415.545a1.143,1.143,0,0,0-.623-.3.943.943,0,0,0-1.186.866,1.177,1.177,0,0,1,.926-.147,1.134,1.134,0,0,1,1,1.29Zm-.8-.1a.545.545,0,0,0-.5-.649.563.563,0,0,0-.71.415c-.052.3.13.563.519.64a.537.537,0,0,0,.693-.4Z" transform="translate(-531.437 -303.646)"/></g><g transform="translate(48.91 56.557)"><rect class="g" width="8.603" height="8.603" rx="2.08" transform="matrix(0.982, 0.188, -0.188, 0.982, 2.915, 0.248)"/><g class="o" transform="translate(1.297 0.248)"><rect class="e" width="8.603" height="8.603" rx="2.08" transform="matrix(0.982, 0.188, -0.188, 0.982, 1.618, 0)"/></g><rect class="d" width="8.603" height="8.603" rx="2.08" transform="matrix(0.982, 0.188, -0.188, 0.982, 1.618, 0)"/><g transform="translate(3.37 3.319)"><rect class="h" width="3.843" height="0.329" transform="matrix(0.836, -0.549, 0.549, 0.836, 0, 2.606)"/><rect class="h" width="0.329" height="3.843" transform="matrix(0.827, -0.562, 0.562, 0.827, 0.478, 0.185)"/></g></g><g transform="translate(10.327 61.902)"><rect class="g" width="8.603" height="8.603" rx="2.08" transform="matrix(0.982, 0.188, -0.188, 0.982, 2.924, 0.25)"/><g class="o" transform="translate(1.306 0.25)"><rect class="e" width="8.603" height="8.603" rx="2.08" transform="matrix(0.982, 0.188, -0.188, 0.982, 1.618, 0)"/></g><rect class="d" width="8.603" height="8.603" rx="2.08" transform="matrix(0.982, 0.188, -0.188, 0.982, 1.618, 0)"/><path class="h" d="M507.528,315.918l-.1.528-1.878,2.744-.866-.173,1.809-2.6-1.16-.225-.113.571-.727-.138.242-1.238Z" transform="translate(-500.943 -312.484)"/></g><g transform="translate(22.123 64.148)"><rect class="g" width="8.603" height="8.603" rx="2.08" transform="matrix(0.982, 0.188, -0.188, 0.982, 2.924, 0.25)"/><g class="o" transform="translate(1.306 0.25)"><rect class="e" width="8.603" height="8.603" rx="2.08" transform="matrix(0.982, 0.188, -0.188, 0.982, 1.618, 0)"/></g><rect class="d" width="8.603" height="8.603" rx="2.08" transform="matrix(0.982, 0.188, -0.188, 0.982, 1.618, 0)"/><path class="h" d="M521.28,321.173c-.13.666-.8.969-1.731.8s-1.4-.7-1.272-1.368a.9.9,0,0,0,.424-1.532c.121-.615.744-.866,1.549-.744s1.29.649,1.168,1.264a.881.881,0,0,0-.138,1.584Zm-.866-.182c.061-.312-.156-.554-.563-.632s-.692.061-.753.372.156.563.554.64.744-.069.8-.381Zm-.917-1.731c-.052.268.13.476.459.537s.589-.061.632-.329-.13-.485-.467-.545-.528.061-.58.338Z" transform="translate(-514.59 -315.121)"/></g><g transform="translate(34.343 66.491)"><rect class="g" width="8.603" height="8.603" rx="2.08" transform="matrix(0.982, 0.188, -0.188, 0.982, 2.924, 0.259)"/><g class="o" transform="translate(1.306 0.259)"><rect class="e" width="8.603" height="8.603" rx="2.08" transform="matrix(0.982, 0.188, -0.188, 0.982, 1.618, 0)"/></g><rect class="d" width="8.603" height="8.603" rx="2.08" transform="matrix(0.982, 0.188, -0.188, 0.982, 1.618, 0)"/><path class="h" d="M535.41,323.018a1.731,1.731,0,0,1-2.155,1.549,1.948,1.948,0,0,1-.935-.424l.415-.545a1.143,1.143,0,0,0,.632.3.961.961,0,0,0,1.186-.866,1.238,1.238,0,0,1-.935.147,1.134,1.134,0,0,1-1-1.333,1.238,1.238,0,0,1,1.558-.917,1.541,1.541,0,0,1,1.238,2.086Zm-.788-.788a.554.554,0,0,0-.519-.64.528.528,0,0,0-.684.407.537.537,0,0,0,.493.64.563.563,0,0,0,.727-.407Z" transform="translate(-528.701 -317.812)"/></g><g transform="translate(46.564 68.835)"><rect class="g" width="8.603" height="8.603" rx="2.08" transform="matrix(0.982, 0.188, -0.188, 0.982, 2.924, 0.25)"/><g class="o" transform="translate(1.306 0.25)"><rect class="e" width="8.603" height="8.603" rx="2.08" transform="matrix(0.982, 0.188, -0.188, 0.982, 1.618, 0)"/></g><rect class="d" width="8.603" height="8.603" rx="2.08" transform="matrix(0.982, 0.188, -0.188, 0.982, 1.618, 0)"/><rect class="h" width="0.329" height="3.843" transform="translate(3.133 4.795) rotate(-79.17)"/></g><g transform="translate(31.969 78.876)"><rect class="g" width="8.603" height="8.603" rx="2.08" transform="matrix(0.982, 0.188, -0.188, 0.982, 2.924, 0.25)"/><g class="o" transform="translate(1.306 0.25)"><rect class="e" width="8.603" height="8.603" rx="2.08" transform="matrix(0.982, 0.188, -0.188, 0.982, 1.618, 0)"/></g><rect class="d" width="8.603" height="8.603" rx="2.08" transform="matrix(0.982, 0.188, -0.188, 0.982, 1.618, 0)"/></g><g transform="translate(43.906 81.228)"><rect class="e" width="8.588" height="8.588" rx="2.076" transform="matrix(0.982, 0.19, -0.19, 0.982, 1.635, 0.52)"/><g class="v" transform="translate(0 0.52)"><rect class="e" width="8.588" height="8.588" rx="2.076" transform="matrix(0.982, 0.19, -0.19, 0.982, 1.635, 0)"/></g><rect class="e" width="8.603" height="8.603" rx="2.08" transform="matrix(0.982, 0.188, -0.188, 0.982, 1.901, 0)"/><g transform="translate(3.239 4.008)"><rect class="h" width="0.329" height="3.843" transform="translate(0.277 0.323) rotate(-79.17)"/><rect class="h" width="0.329" height="3.843" transform="translate(0 1.765) rotate(-79.17)"/></g></g><rect class="d" width="20.773" height="8.828" rx="2.5" transform="matrix(0.982, 0.188, -0.188, 0.982, 9.152, 74.097)"/><path class="h" d="M508.994,332.756c.216-1.16.987-1.731,1.852-1.532a1.631,1.631,0,0,1,1.168,2.112c-.216,1.16-1,1.731-1.861,1.532A1.648,1.648,0,0,1,508.994,332.756Zm2.2.424c.147-.8-.069-1.186-.476-1.264s-.744.2-.866,1,.061,1.186.467,1.264.753-.225.909-1.021Z" transform="translate(-491.216 -252.706)"/><g transform="translate(35.092 81.978)"><rect class="h" width="3.843" height="0.329" transform="matrix(0.203, -0.979, 0.979, 0.203, 1.395, 3.763)"/><rect class="h" width="0.329" height="3.843" transform="translate(0 1.695) rotate(-79.17)"/></g><g transform="translate(22.703 14.849)"><path class="d" d="M517.416,259.332h-.043l-2.6.822-.087-1.463,3.272-1.021,1.558.3-2.6,13.571-1.731-.338Z" transform="translate(-514.69 -257.67)"/><path class="d" d="M523.385,273.4a1.264,1.264,0,0,1,1.506-1.082,1.342,1.342,0,0,1-.519,2.6,1.255,1.255,0,0,1-.987-1.515Z" transform="translate(-515.855 -259.636)"/><path class="d" d="M534.793,262.662h0l-2.6.822-.087-1.471L535.373,261l1.567.294-2.6,13.58-1.731-.338Z" transform="translate(-517.033 -258.118)"/><path class="d" d="M540.36,276.081l.216-1.134,1.731-1.125c4.094-2.6,6-4.085,6.414-6.128a2.467,2.467,0,0,0-2.19-3.168,4.639,4.639,0,0,0-3.1.6l-.338-1.411a6.058,6.058,0,0,1,4.1-.641,3.886,3.886,0,0,1,3.4,4.743c-.476,2.5-2.683,4.18-6.059,6.4l-1.281.788v.043l6.1,1.168-.294,1.523Z" transform="translate(-518.142 -258.381)"/><path class="d" d="M563.16,267.946l-5.193-1-1.186,3.393a7.265,7.265,0,0,1,1.125.121,5.825,5.825,0,0,1,2.778,1.3,3.929,3.929,0,0,1,1.281,3.86c-.511,2.649-2.995,4.232-5.946,3.661a6.647,6.647,0,0,1-3.22-1.48l.727-1.307a6.258,6.258,0,0,0,2.761,1.307,3.047,3.047,0,0,0,3.774-2.328c.32-1.731-.615-3.237-3.324-3.756a14.8,14.8,0,0,0-1.913-.216l2.129-6.353,6.491,1.246Z" transform="translate(-519.815 -258.676)"/></g></g></g><g transform="translate(-9374.443 -12391.73)"><circle class="q" cx="33.963" cy="33.963" r="33.963" transform="translate(0 48.032) rotate(-45)"/><path class="d" d="M777.8,94.617v3.35a14.3,14.3,0,0,0,.13,1.437,22.041,22.041,0,0,0,.467,3.531,32.611,32.611,0,0,0,3.168,9.235,33.876,33.876,0,0,0,21.725,17.311,31.555,31.555,0,0,0,4.224.779c.727.069,1.454.19,2.181.216h3.367l1.134-.1c.762-.069,1.532-.1,2.294-.208a37.425,37.425,0,0,0,9.088-2.674c.736-.338,1.445-.744,2.172-1.117a16.361,16.361,0,0,0,2.129-1.255,38.893,38.893,0,0,0,4.025-3,36.6,36.6,0,0,0,3.557-3.678,32.485,32.485,0,0,0,5.409-8.958,33.565,33.565,0,0,0,1.411-21.231l-.753-2.6c-.338-.866-.666-1.636-.961-2.441a10.437,10.437,0,0,0-.537-1.134l-.606-1.168-.606-1.151-.718-1.1a30.842,30.842,0,0,0-6.647-7.608,17.229,17.229,0,0,0-1.921-1.541c-.684-.459-1.333-.961-2.025-1.385A33.706,33.706,0,0,0,825.25,65.9a36.119,36.119,0,0,0-4.4-1.61c-.744-.2-1.506-.346-2.242-.519l-1.117-.242c-.363-.078-.736-.1-1.117-.156l-2.224-.26c-.744-.052-1.471,0-2.207-.052a32.215,32.215,0,0,0-4.284.208,33.929,33.929,0,0,0-23.8,14.4,32.674,32.674,0,0,0-4.328,8.742,22.689,22.689,0,0,0-.961,3.462c-.113.5-.242.961-.32,1.394s-.1.866-.138,1.177c-.1.692-.164,1.22-.216,1.61a3.968,3.968,0,0,1-.087.537v-.563c0-.364.087-.961.156-1.61a11.148,11.148,0,0,1,.138-1.186c.043-.433.182-.866.277-1.419a25.228,25.228,0,0,1,.866-3.462,32.028,32.028,0,0,1,4.328-8.828A34.137,34.137,0,0,1,807.6,62.9a31.652,31.652,0,0,1,4.328-.225c.744,0,1.5,0,2.233.052l2.25.26a6.362,6.362,0,0,1,1.134.147l1.125.251c.762.173,1.515.3,2.276.519a35.773,35.773,0,0,1,4.492,1.644,35.138,35.138,0,0,1,4.328,2.233c.7.433,1.359.961,2.051,1.411a17.863,17.863,0,0,1,1.965,1.549,40.293,40.293,0,0,1,3.652,3.54,40.274,40.274,0,0,1,3.09,4.172l.718,1.108.615,1.16.615,1.177a9.874,9.874,0,0,1,.519,1.2c.338.866.667,1.653.961,2.475s.511,1.731.77,2.6a33.929,33.929,0,0,1-1.428,21.517,32.77,32.77,0,0,1-5.5,9.079,39.046,39.046,0,0,1-3.557,3.722,40.07,40.07,0,0,1-4.094,3.038,19.285,19.285,0,0,1-2.155,1.272c-.744.381-1.463.779-2.207,1.125a37.35,37.35,0,0,1-9.227,2.683c-.779.1-1.541.147-2.311.225l-1.16.1h-3.4c-.744-.052-1.489-.164-2.216-.242a33.678,33.678,0,0,1-26.139-18.4,32.337,32.337,0,0,1-3.116-9.322,23.6,23.6,0,0,1-.433-3.566c0-.519-.086-.961-.1-1.437s0-.866,0-1.194V95.154a5.22,5.22,0,0,1,.112-.537Z" transform="translate(-763.653 -48.763)"/><path class="d" d="M832.319,100.2a6.923,6.923,0,0,1-1.194.087l-3.306.052c-2.8,0-6.734.069-11.1.078h-.234V97.989c0-4.916,0-9.374.069-12.593,0-1.558,0-2.882.069-3.843a8.472,8.472,0,0,1,.086-1.4,9.525,9.525,0,0,1,.086,1.4c0,.961,0,2.259.069,3.843,0,3.22.061,7.695.061,12.593V100.2l-.216-.216c4.406,0,8.309,0,11.1.069l3.306.069A7.028,7.028,0,0,1,832.319,100.2Z" transform="translate(-768.869 -51.113)"/><path class="d" d="M816.832,69.31a9.773,9.773,0,0,1,.225,2.882,9.773,9.773,0,0,1-.225,2.882,9.215,9.215,0,0,1-.216-2.882,9.217,9.217,0,0,1,.216-2.882Z" transform="translate(-768.883 -49.655)"/><path class="d" d="M834.124,74.61a8.993,8.993,0,0,1-1.826,2.138,9.872,9.872,0,0,1-2.138,1.844,8.871,8.871,0,0,1,1.826-2.147,9.029,9.029,0,0,1,2.138-1.835Z" transform="translate(-770.709 -50.368)"/><path class="d" d="M844.454,86a11.66,11.66,0,0,1-2.337,1.549,11.854,11.854,0,0,1-2.467,1.368,11.451,11.451,0,0,1,4.8-2.917Z" transform="translate(-771.985 -51.899)"/><path class="d" d="M850.12,102.966a35.434,35.434,0,0,1-7.79,0A34.4,34.4,0,0,1,850.12,102.966Z" transform="translate(-772.346 -54.151)"/><path class="d" d="M787.858,102.336a29.826,29.826,0,0,1-7.348,0,30.691,30.691,0,0,1,7.348,0Z" transform="translate(-764.032 -54.066)"/><path class="d" d="M792.505,115a16.213,16.213,0,0,1-2.77,2.51,16.488,16.488,0,0,1-3.055,2.181,15.941,15.941,0,0,1,2.77-2.519A15.422,15.422,0,0,1,792.505,115Z" transform="translate(-764.862 -55.799)"/><path class="d" d="M803.672,124.74a26.422,26.422,0,0,1-1.921,3.28,25.554,25.554,0,0,1-1.93,3.2,12.394,12.394,0,0,1,1.627-3.462,12.2,12.2,0,0,1,2.224-3.021Z" transform="translate(-766.629 -57.109)"/><path class="d" d="M816.832,136.145a17.311,17.311,0,0,1-.216-3.843,16.887,16.887,0,0,1,.216-3.852,17.932,17.932,0,0,1,.225,3.852A17.875,17.875,0,0,1,816.832,136.145Z" transform="translate(-768.884 -57.608)"/><path class="d" d="M835.338,130.551a11.512,11.512,0,0,1-3.211-2.2,11.683,11.683,0,0,1-2.6-2.882,32.23,32.23,0,0,1,2.882,2.545,35.75,35.75,0,0,1,2.926,2.536Z" transform="translate(-770.624 -57.207)"/><path class="d" d="M844.606,120.794a13.377,13.377,0,0,1-2.6-2.268,13.051,13.051,0,0,1-2.259-2.6,13.05,13.05,0,0,1,2.6,2.259,12.85,12.85,0,0,1,2.259,2.605Z" transform="translate(-771.999 -55.924)"/><path class="d" d="M792.348,89.638a10.732,10.732,0,0,1-2.276-1.921,10.515,10.515,0,0,1-1.922-2.276,10.274,10.274,0,0,1,2.268,1.921,10.127,10.127,0,0,1,1.93,2.276Z" transform="translate(-765.06 -51.824)"/><path class="d" d="M803.623,77.827a9.912,9.912,0,0,1-2.242-1.921,10.209,10.209,0,0,1-1.922-2.216,9.7,9.7,0,0,1,2.242,1.922,10.686,10.686,0,0,1,1.921,2.216Z" transform="translate(-766.581 -50.244)"/></g><g transform="translate(-9531.359 -12393.887)"><g transform="translate(0)"><path class="q" d="M632.914,92.6l-5.41-9.521a25.533,25.533,0,1,0-6.119,6.812h0Z" transform="translate(-580.183 -44.118)"/><path class="d" d="M632.907,92.6,621.353,90h-.113l.069-.1h0l.113.113a26.131,26.131,0,0,1-5.245,3.159,25.644,25.644,0,0,1-6.985,2,22.971,22.971,0,0,1-4.042.2c-.692,0-1.4-.052-2.112-.113l-2.155-.329a25.542,25.542,0,0,1-19.907-31.419,25.23,25.23,0,0,1,5.462-10.482l1.021-1.22c.338-.381.744-.7,1.117-1.056a10.6,10.6,0,0,1,1.16-1l1.22-.917a10.383,10.383,0,0,1,1.272-.866l1.29-.788,1.359-.658a12.716,12.716,0,0,1,1.359-.606,26.1,26.1,0,0,1,11.434-1.731,25.309,25.309,0,0,1,10.49,3.1,25.967,25.967,0,0,1,7.79,6.63,25.7,25.7,0,0,1,4.276,8.283,27.488,27.488,0,0,1,1.108,8.292,25.265,25.265,0,0,1-3.808,12.645V83.05l5.34,9.573L627.385,83.1h0v-.043a25.632,25.632,0,0,0,2.5-5.461,25.3,25.3,0,0,0,1.212-7.115,27.3,27.3,0,0,0-1.125-8.214,25.593,25.593,0,0,0-12.005-14.714A24.935,24.935,0,0,0,607.582,44.5,25.689,25.689,0,0,0,596.33,46.23a11.64,11.64,0,0,0-1.35.6l-1.342.649-1.272.779a10.1,10.1,0,0,0-1.255.866l-1.2.866c-.415.294-.762.666-1.143,1a11.5,11.5,0,0,0-1.108,1.047l-1.03,1.125a24.867,24.867,0,0,0-5.4,10.386,25.584,25.584,0,0,0-.3,11.252,25.154,25.154,0,0,0,4.293,9.659A25.5,25.5,0,0,0,600.961,94.6l2.138.329c.7.061,1.4.078,2.094.121a22.5,22.5,0,0,0,4-.19,25.326,25.326,0,0,0,6.924-1.947,25.757,25.757,0,0,0,5.193-3.116l.476-.364-.363.476h0l-.043-.121Z" transform="translate(-580.177 -44.109)"/></g><path class="z" d="M617.709,73.541c-4.129,0-7-3.029-7-7.911s2.874-7.92,7-7.92,7.037,3.081,7.037,7.92S621.829,73.541,617.709,73.541Zm0-3.358c1.731,0,2.951-1.515,2.951-4.553s-1.212-4.553-2.951-4.553-2.96,1.48-2.96,4.553,1.177,4.561,2.96,4.561Zm2.467,16.566h-4.821l-19.336-28.7h4.812Zm-21.69.329c-4.129,0-7.045-3.073-7.045-7.911s2.917-7.92,7.045-7.92,7,3.073,7,7.92-2.917,7.92-7,7.92Zm0-3.358c1.731,0,2.951-1.48,2.951-4.553s-1.212-4.553-2.951-4.553-2.951,1.515-2.951,4.553,1.169,4.561,2.951,4.561Z" transform="translate(-581.691 -45.938)"/></g><g transform="translate(-9373.467 -12269.873)"><path class="z" d="M931.716,318.028v-9.322c0-6.059,0-14.956-.061-26.286,0-22.651-.069-55.065-.121-94.178l.234.234-163.091.052h0l.286-.286V318.072l-.251-.26,117.833.13,33.375.069h.1l-33.314.069-118,.13h-.251V188H932.1v.234c-.052,39.174-.1,71.64-.121,94.343,0,11.312-.052,20.184-.061,26.234v6.881A10.391,10.391,0,0,1,931.716,318.028Z" transform="translate(-763.388 -187.472)"/><g transform="translate(23.516 24.823)"><rect class="z" width="5.894" height="65.867" transform="translate(2.787)"/><rect class="l" width="5.894" height="43.501" transform="translate(14.177 22.374)"/><rect class="z" width="5.894" height="58.016" transform="translate(25.559 8.188)"/><rect class="l" width="5.894" height="63.322" transform="translate(36.949 2.545)"/><rect class="z" width="5.894" height="42.16" transform="translate(48.331 23.715)"/><rect class="l" width="5.894" height="33.894" transform="translate(59.721 31.981)"/><rect class="z" width="5.894" height="59.107" transform="translate(71.112 6.76)"/><rect class="l" width="5.894" height="48.452" transform="translate(82.493 17.423)"/><rect class="z" width="5.894" height="56.969" transform="translate(93.884 8.906)"/><rect class="l" width="5.894" height="38.81" transform="translate(105.266 27.056)"/><rect class="z" width="5.894" height="46.193" transform="translate(116.656 19.673)"/><path class="z" d="M914.735,297.442c0,.13-27.983.242-62.482.242s-62.482-.113-62.482-.242,27.965-.242,62.482-.242S914.735,297.3,914.735,297.442Z" transform="translate(-789.77 -226.98)"/><path class="z" d="M801.351,303.432a39.613,39.613,0,0,1-8.75,0A39.617,39.617,0,0,1,801.351,303.432Z" transform="translate(-790.151 -227.785)"/><path class="z" d="M817.864,303.732a56.594,56.594,0,0,1-10.464,0,56.6,56.6,0,0,1,10.464,0Z" transform="translate(-792.141 -227.826)"/><path class="z" d="M832.166,303.732a56.508,56.508,0,0,1-10.456,0A56.508,56.508,0,0,1,832.166,303.732Z" transform="translate(-794.065 -227.826)"/><path class="z" d="M846.474,303.732a56.594,56.594,0,0,1-10.464,0,56.6,56.6,0,0,1,10.464,0Z" transform="translate(-795.988 -227.826)"/><path class="z" d="M860.784,303.732a56.594,56.594,0,0,1-10.464,0A56.594,56.594,0,0,1,860.784,303.732Z" transform="translate(-797.912 -227.826)"/><path class="z" d="M875.094,303.732a56.594,56.594,0,0,1-10.464,0,56.6,56.6,0,0,1,10.464,0Z" transform="translate(-799.837 -227.826)"/><path class="z" d="M889.376,303.732a56.509,56.509,0,0,1-10.456,0,56.508,56.508,0,0,1,10.456,0Z" transform="translate(-801.758 -227.826)"/><path class="z" d="M903.7,303.732a56.594,56.594,0,0,1-10.464,0A56.594,56.594,0,0,1,903.7,303.732Z" transform="translate(-803.684 -227.826)"/><path class="z" d="M918.014,303.732a56.594,56.594,0,0,1-10.464,0,56.6,56.6,0,0,1,10.464,0Z" transform="translate(-805.608 -227.826)"/><path class="z" d="M932.374,303.732a56.594,56.594,0,0,1-10.464,0A56.594,56.594,0,0,1,932.374,303.732Z" transform="translate(-807.539 -227.826)"/></g><rect class="l" width="172.967" height="4.882"/></g></g></svg>