<svg xmlns="http://www.w3.org/2000/svg" width="79.311" height="79.311" viewBox="0 0 79.311 79.311"><g transform="translate(8241 8975)"><path d="M39.655,0A39.655,39.655,0,1,1,0,39.655,39.655,39.655,0,0,1,39.655,0Z" transform="translate(-8241 -8975)" fill="#d9a171"/><path d="M13.477,46.141a3.659,3.659,0,0,0,2.686-.94,3.447,3.447,0,0,0,.928-2.625H24.8a9.133,9.133,0,0,1-3.113,7.129,11.579,11.579,0,0,1-8.02,2.783A11.723,11.723,0,0,1,4.59,48.875q-3.32-3.613-3.32-10.01v-.342a16.09,16.09,0,0,1,1.477-7.068,10.754,10.754,0,0,1,4.26-4.712A12.7,12.7,0,0,1,13.6,25.1a11.433,11.433,0,0,1,8.179,2.856A10.131,10.131,0,0,1,24.8,35.691H17.09a4.516,4.516,0,0,0-1-3.149,3.455,3.455,0,0,0-2.686-1.1q-3.2,0-3.735,4.077A28.769,28.769,0,0,0,9.5,39.085q0,3.979.952,5.518A3.3,3.3,0,0,0,13.477,46.141Z" transform="translate(-8214.27 -8974.096)" fill="#fff"/></g></svg>