<svg xmlns="http://www.w3.org/2000/svg" width="79.311" height="79.311" viewBox="0 0 79.311 79.311"><g transform="translate(8246 9616)"><path d="M39.655,0A39.655,39.655,0,1,1,0,39.655,39.655,39.655,0,0,1,39.655,0Z" transform="translate(-8246 -9616)" fill="#d9a171"/><path d="M17.188,52a9.29,9.29,0,0,1-.781-2.368,7.651,7.651,0,0,1-6.348,2.856A9.372,9.372,0,0,1,3.711,50.23,7.188,7.188,0,0,1,1.1,44.554,7.388,7.388,0,0,1,4.272,38.06q3.174-2.2,9.229-2.2H16.04V34.471q0-3.638-3.149-3.638-2.93,0-2.93,2.881H1.733a7.387,7.387,0,0,1,3.259-6.226A13.685,13.685,0,0,1,13.306,25.1a12.009,12.009,0,0,1,7.983,2.466,8.573,8.573,0,0,1,3,6.763V46.019a11.976,11.976,0,0,0,1.123,5.566V52Zm-5.151-5.371a4.589,4.589,0,0,0,2.551-.659A4.131,4.131,0,0,0,16.04,44.48V40.257H13.647q-4.3,0-4.3,3.857a2.355,2.355,0,0,0,.757,1.819A2.739,2.739,0,0,0,12.036,46.629Z" transform="translate(-8220.099 -9615.096)" fill="#fff"/></g></svg>