<svg xmlns="http://www.w3.org/2000/svg" width="79.311" height="79.311" viewBox="0 0 79.311 79.311"><g transform="translate(8246 9210)"><path d="M39.655,0A39.655,39.655,0,1,1,0,39.655,39.655,39.655,0,0,1,39.655,0Z" transform="translate(-8246 -9210)" fill="#d9a171"/><path d="M26.831,39.012q0,6.494-2.686,9.985a8.995,8.995,0,0,1-7.568,3.491,7.806,7.806,0,0,1-6.494-3.2L9.741,52H2.368V14.5H10.6V27.708A7.531,7.531,0,0,1,16.528,25.1a9,9,0,0,1,7.617,3.54q2.686,3.54,2.686,9.961ZM18.579,38.5q0-3.809-1.013-5.432a3.414,3.414,0,0,0-3.113-1.624A3.938,3.938,0,0,0,10.6,33.567v10.5a3.96,3.96,0,0,0,3.906,2.1,3.5,3.5,0,0,0,3.687-2.832A20.369,20.369,0,0,0,18.579,38.5Z" transform="translate(-8217.368 -9203.5)" fill="#fff"/></g></svg>