<svg xmlns="http://www.w3.org/2000/svg" width="551.646" height="365.006" viewBox="0 0 551.646 365.006"><defs><style>.a{fill:#aed3f2;}.b{fill:#5e6178;}.c{fill:#d9a171;}.d{fill:#344154;}.e{opacity:0.3;}.f{fill:#6595bf;}.g{fill:#4c708f;}.h{opacity:0.6;}.i{fill:#fff;stroke:#5e6178;stroke-miterlimit:10;stroke-width:0;}.j{fill:#c78976;}.k{fill:#8b5d54;}</style></defs><g transform="translate(-16.1 -98.914)"><g transform="translate(16.779 102.624)"><path class="a" d="M389.474,208.527a50.273,50.273,0,1,1,55.888-77.719h0a50.261,50.261,0,0,1-55.888,77.719Zm29.886-92.455A46.9,46.9,0,1,0,442.649,132.8,46.9,46.9,0,0,0,419.361,116.072Z" transform="translate(45.706 -100.502)"/><path class="a" d="M468.8,238.474h0a6.231,6.231,0,0,1-8.778-.829h0l-39.706-48.437a1.078,1.078,0,0,1,.142-1.516h0l6.373-5.224a1.09,1.09,0,0,1,1.493.118l41.2,46.98a6.243,6.243,0,0,1-.58,8.813Z" transform="translate(57.778 -87.248)"/><path class="a" d="M390.185,206.28A50.273,50.273,0,1,1,446.12,128.5h0a50.273,50.273,0,0,1-55.935,77.778Zm29.886-92.4a19.908,19.908,0,1,0-.012-.083Z" transform="translate(45.86 -100.909)"/><path class="a" d="M420.45,186.134l8.031-6.574h0l42.727,52.18a4.016,4.016,0,0,1-.569,5.662h0l-1.777,1.457a4.028,4.028,0,0,1-5.662-.557h0l-42.727-52.192Z" transform="translate(57.848 -87.74)"/><path class="a" d="M365.08,149.575a11.591,11.591,0,0,1,.071-1.575,13.566,13.566,0,0,1,.225-1.848,20.991,20.991,0,0,1,.462-2.369c.118-.438.225-.9.344-1.386s.32-.959.474-1.481c.308-1.031.77-2.073,1.185-3.2a39.3,39.3,0,0,1,3.945-6.752,37.772,37.772,0,0,1,5.354-5.733,32.438,32.438,0,0,1,2.677-2.085,12.452,12.452,0,0,1,1.279-.841l1.185-.734a21.037,21.037,0,0,1,2.168-1.185,14.4,14.4,0,0,1,1.694-.746,10.976,10.976,0,0,1,1.481-.521,10.405,10.405,0,0,1-1.41.7,16.742,16.742,0,0,0-1.658.841c-.616.355-1.362.7-2.12,1.185l-1.185.746c-.415.261-.841.58-1.244.841-.841.6-1.729,1.35-2.642,2.12a37.04,37.04,0,0,0-9.086,12.379,22.6,22.6,0,0,0-1.185,3.139c-.178.509-.367.983-.5,1.457s-.249.924-.367,1.362c-.272.853-.391,1.694-.545,2.369a18.061,18.061,0,0,0-.3,1.812,10.765,10.765,0,0,1-.308,1.5Z" transform="translate(47.629 -98.895)"/><path class="a" d="M202.3,232.3H129.012L96.97,193.225l.651-.545,31.794,38.783H202.3Z" transform="translate(-1.854 -85.318)"/><path class="a" d="M188.8,226.148a2.76,2.76,0,1,1-2.748-2.748,2.76,2.76,0,0,1,2.748,2.748Z" transform="translate(14.076 -79.649)"/><path class="b" d="M43.33,174.476a41.779,41.779,0,1,1,12.642,29.477A41.791,41.791,0,0,1,43.33,174.476Zm61.775-1a20,20,0,1,0-5.6,14.275,19.984,19.984,0,0,0,5.6-14.275Z" transform="translate(-11.754 -96.48)"/><path class="c" d="M43.331,174.534A41.945,41.945,0,0,1,84.447,131.89l.355,21.9a20.077,20.077,0,1,0,.64,40.148l.343,21.911A41.922,41.922,0,0,1,43.331,174.534Z" transform="translate(-11.754 -96.538)"/><path class="a" d="M74.87,129a47.762,47.762,0,0,1,48.9,47.572l-25.515.415c-.2-12.947-10.057-21.121-22.945-20.9Z" transform="translate(-5.932 -97.073)"/><path class="a" d="M193.96,123.183a24.745,24.745,0,1,1-28.11-20.872h.059a24.722,24.722,0,0,1,28.05,20.872Z" transform="translate(6.961 -102.046)"/><path class="a" d="M187.189,123.109a18.87,18.87,0,1,1-21.429-15.9h0A18.858,18.858,0,0,1,187.189,123.109Z" transform="translate(7.869 -101.131)"/><path class="a" d="M187.2,122.622a10.957,10.957,0,0,1-.841-2.168,19.687,19.687,0,0,0-3-5.413,18.8,18.8,0,0,0-7.107-5.579,18.136,18.136,0,0,0-5.141-1.481,18.761,18.761,0,0,0-2.819-.166,19.9,19.9,0,0,0-2.9.284,19.332,19.332,0,0,0-2.819.734,18.055,18.055,0,0,0-2.594,1.185,16.726,16.726,0,0,0-2.31,1.445,18.234,18.234,0,0,0-2,1.694,19.035,19.035,0,0,0-2.985,3.814,18.658,18.658,0,0,0-1.694,3.862,19.913,19.913,0,0,0-1,6.124,10.755,10.755,0,0,1,0,2.369,5.449,5.449,0,0,1-.545-2.286,17.508,17.508,0,0,1,.521-6.42,18.739,18.739,0,0,1,1.682-4.17,19.32,19.32,0,0,1,5.212-6.029,18.078,18.078,0,0,1,2.369-1.587,20.306,20.306,0,0,1,2.8-1.244,20.767,20.767,0,0,1,3.032-.794,21.49,21.49,0,0,1,3.127-.3,18.693,18.693,0,0,1,3.044.2,20.137,20.137,0,0,1,2.878.64,19.284,19.284,0,0,1,6.965,3.862,19.06,19.06,0,0,1,3.021,3.376,17.248,17.248,0,0,1,2.689,5.84,5.568,5.568,0,0,1,.415,2.2Z" transform="translate(7.814 -101.224)"/><path class="a" d="M170.619,135.737l.521,3.246-2.9.474-.474-3.186a13.9,13.9,0,0,1-7.6-1.185l1.031-3.779a12.035,12.035,0,0,0,5.923,1.185l-.782-4.833c-3.34-.261-7.107-.758-7.759-4.916-.5-3.068,1.315-6.053,5.8-7.309l-.509-3.21,2.89-.474.509,3.151a13.314,13.314,0,0,1,6.16.853l-.841,3.791a12.13,12.13,0,0,0-4.679-.794l.794,4.928c3.329.237,7.048.746,7.688,4.821C176.862,131.532,175.073,134.553,170.619,135.737Zm-4.951-12.343-.652-4.11c-1.481.592-1.955,1.528-1.8,2.488s1.113,1.457,2.452,1.658Zm6.1,6.183c-.154-1.007-1.09-1.421-2.369-1.682l.64,3.992c1.362-.486,1.872-1.339,1.729-2.274Z" transform="translate(9.501 -100.255)"/><path class="a" d="M49.4,264.679A17.911,17.911,0,1,1,44.661,239.8h0A17.875,17.875,0,0,1,49.4,264.679Z" transform="translate(-16.673 -77.194)"/><path class="a" d="M45.206,261.6a13.646,13.646,0,1,1-3.637-18.953h0A13.622,13.622,0,0,1,45.206,261.6Z" transform="translate(-16.011 -76.531)"/><path class="a" d="M45.1,261.36a7.4,7.4,0,0,1,.616-1.564,14.511,14.511,0,0,0,1.066-4.359,13.753,13.753,0,0,0-1.031-6.444A11.93,11.93,0,0,0,44.9,247.3a12.282,12.282,0,0,0-1.185-1.6,12.827,12.827,0,0,0-1.421-1.469,13.714,13.714,0,0,0-1.694-1.267,13.031,13.031,0,0,0-3.791-1.67,13.192,13.192,0,0,0-1.931-.355,12.618,12.618,0,0,0-1.9-.071,13.208,13.208,0,0,0-3.459.569,13.479,13.479,0,0,0-2.819,1.185,14.132,14.132,0,0,0-3.483,2.784,11.571,11.571,0,0,1-1.185,1.185,3.969,3.969,0,0,1,.841-1.493,12.817,12.817,0,0,1,3.423-3.163,13.634,13.634,0,0,1,2.938-1.4,13.882,13.882,0,0,1,3.672-.7,11.7,11.7,0,0,1,2.037,0,12.51,12.51,0,0,1,2.1.355,13.882,13.882,0,0,1,4.1,1.777,14.579,14.579,0,0,1,1.812,1.374,14.9,14.9,0,0,1,1.528,1.587,13.836,13.836,0,0,1,2.1,3.554,13.646,13.646,0,0,1,.853,6.882A12.616,12.616,0,0,1,46,259.809a4.134,4.134,0,0,1-.9,1.552Z" transform="translate(-15.683 -76.623)"/><path class="a" d="M29.821,260.656l-1.315,1.99-1.777-1.185,1.279-1.931a10.01,10.01,0,0,1-3.459-4.336l2.369-1.528a8.659,8.659,0,0,0,2.606,3.554l1.955-2.961c-1.647-1.765-3.376-3.885-1.682-6.408,1.244-1.872,3.66-2.582,6.669-1.042l1.3-1.978,1.753,1.185-1.279,1.931a9.547,9.547,0,0,1,2.878,3.447l-2.369,1.6a8.671,8.671,0,0,0-2.12-2.689l-1.907,3.021c1.694,1.765,3.376,3.838,1.694,6.337C35.247,261.461,32.806,262.125,29.821,260.656Zm3.376-8.991,1.694-2.535c-1.078-.4-1.789-.142-2.18.45s-.095,1.327.509,2.085Zm.225,6.29c.415-.628.118-1.3-.474-2.073l-1.611,2.44c1.042.426,1.729.19,2.109-.367Z" transform="translate(-15.22 -75.694)"/><path class="a" d="M311.567,140.012a17.9,17.9,0,1,1-19.427-16.24h0a17.875,17.875,0,0,1,19.427,16.24Z" transform="translate(31.159 -98.05)"/><path class="a" d="M306.654,139.715a13.646,13.646,0,1,1-14.807-12.367h0a13.622,13.622,0,0,1,14.771,12.379Z" transform="translate(31.819 -97.386)"/><path class="a" d="M306.649,139.384a7.729,7.729,0,0,1-.509-1.611,14.215,14.215,0,0,0-1.931-4.027,13.4,13.4,0,0,0-4.88-4.347,12.693,12.693,0,0,0-1.741-.758,13.2,13.2,0,0,0-3.921-.758,13.374,13.374,0,0,0-4.181.5,14.333,14.333,0,0,0-1.919.7,13.563,13.563,0,0,0-5.556,4.738,13.811,13.811,0,0,0-1.41,2.724,14.485,14.485,0,0,0-.936,4.359,8.091,8.091,0,0,1-.107,1.694,3.945,3.945,0,0,1-.3-1.694,12.664,12.664,0,0,1,.64-4.608,13.679,13.679,0,0,1,1.386-2.95,13.915,13.915,0,0,1,2.369-2.867,12.652,12.652,0,0,1,1.6-1.256,13.646,13.646,0,0,1,3.921-1.836,15.614,15.614,0,0,1,2.215-.45,16.232,16.232,0,0,1,2.274-.083,17.039,17.039,0,0,1,2.191.272,13.932,13.932,0,0,1,2.049.592,16.119,16.119,0,0,1,1.848.841,13.717,13.717,0,0,1,5.07,4.738,12.426,12.426,0,0,1,1.682,4.336,4.147,4.147,0,0,1,.142,1.753Z" transform="translate(31.788 -97.47)"/><path class="a" d="M294.105,148.249l.249,2.369-2.12.225-.237-2.31a9.962,9.962,0,0,1-5.425-1.185l.912-2.689a8.469,8.469,0,0,0,4.217,1.078l-.355-3.554c-2.369-.332-5.07-.853-5.4-3.862-.225-2.239,1.185-4.335,4.5-5.07l-.237-2.369,2.108-.213.237,2.3a9.619,9.619,0,0,1,4.418.841l-.794,2.7a8.826,8.826,0,0,0-3.341-.77l.367,3.554c2.369.32,5.058.853,5.354,3.8C298.8,145.477,297.386,147.514,294.105,148.249Zm-3.056-9.109-.308-3c-1.09.355-1.469,1.019-1.4,1.682s.746,1.113,1.706,1.315Zm4.146,4.738c-.083-.734-.734-1.078-1.694-1.3l.284,2.926c1.066-.367,1.481-.971,1.41-1.647Z" transform="translate(33.019 -96.763)"/><path class="a" d="M486.945,278.025a23.336,23.336,0,1,1-11.561-30.917h.059a23.289,23.289,0,0,1,11.5,30.917Z" transform="translate(61.894 -75.662)"/><path class="a" d="M481.058,274.838a17.768,17.768,0,1,1-8.789-23.537,17.768,17.768,0,0,1,8.789,23.537Z" transform="translate(62.77 -74.796)"/><path class="a" d="M481.11,274.435a11.053,11.053,0,0,1,.462-2.132,18.81,18.81,0,0,0,.4-5.816,17.661,17.661,0,0,0-2.748-8.043,18.3,18.3,0,0,0-1.481-1.978,16.483,16.483,0,0,0-1.824-1.812,17.509,17.509,0,0,0-2.144-1.576,20.69,20.69,0,0,0-2.44-1.267,18.546,18.546,0,0,0-2.606-.841,16.441,16.441,0,0,0-2.63-.426,17.354,17.354,0,0,0-5.07.284,17.65,17.65,0,0,0-7.664,3.66,18.325,18.325,0,0,0-3.873,4.347,10.907,10.907,0,0,1-1.185,1.824,5.507,5.507,0,0,1,.746-2.085,16.513,16.513,0,0,1,3.625-4.857,18.084,18.084,0,0,1,13.445-4.549,17.4,17.4,0,0,1,2.831.45,19.607,19.607,0,0,1,2.819.924,18.432,18.432,0,0,1,2.63,1.362,17.668,17.668,0,0,1,2.3,1.694,17.027,17.027,0,0,1,1.943,1.978A17.958,17.958,0,0,1,482.2,262.2a19.13,19.13,0,0,1,.675,4.182,16.5,16.5,0,0,1-.841,6.018A5.117,5.117,0,0,1,481.11,274.435Z" transform="translate(62.99 -74.903)"/><path class="a" d="M461.176,276.958l-1.244,2.831-2.535-1.113,1.185-2.76a13.03,13.03,0,0,1-5.4-4.809l2.748-2.476a11.135,11.135,0,0,0,4.122,3.968l1.86-4.229c-2.535-1.919-5.236-4.217-3.637-7.854,1.185-2.689,4.146-4.122,8.351-2.819l1.185-2.807L470.344,256l-1.185,2.76a12.545,12.545,0,0,1,4.454,3.8l-2.642,2.535a11.252,11.252,0,0,0-3.293-3.009l-1.9,4.3c2.535,1.883,5.2,4.217,3.625,7.747C468.295,276.793,465.369,278.226,461.176,276.958Zm2.369-12.308,1.587-3.554c-1.481-.284-2.369.213-2.7,1.054s.19,1.658,1.2,2.5Zm1.682,8.019c.4-.888-.118-1.682-1.042-2.535l-1.54,3.494c1.362.261,2.2-.142,2.559-.959Z" transform="translate(63.889 -73.837)"/><rect class="a" width="22.957" height="112.237" transform="translate(214.271 248.798)"/><rect class="a" width="22.957" height="112.237" transform="translate(505.01 249.059)"/><rect class="a" width="22.957" height="128.501" transform="translate(22.515 232.534)"/><rect class="a" width="22.957" height="185.597" transform="translate(70.454 175.45)"/><rect class="a" width="22.957" height="146.767" transform="translate(118.393 214.268)"/><rect class="a" width="22.957" height="196.436" transform="translate(166.332 164.623)"/><rect class="a" width="22.957" height="195.464" transform="translate(262.211 165.571)"/><rect class="a" width="22.957" height="131.261" transform="translate(310.15 229.774)"/><rect class="a" width="22.957" height="186.865" transform="translate(358.089 174.183)"/><rect class="a" width="22.957" height="228.952" transform="translate(406.028 132.095)"/><rect class="a" width="22.957" height="187.812" transform="translate(453.967 173.223)"/></g><g transform="translate(16.1 462.795)"><path class="d" d="M566.317,406.325c0,.118-123.194.213-275.091.213S16.1,406.408,16.1,406.325s123.194-.225,275.126-.225S566.317,406.195,566.317,406.325Z" transform="translate(-16.1 -406.1)"/></g><g transform="translate(86.423 293.497)"><rect class="b" width="101.695" height="169.451" transform="translate(135.199)"/><g class="e" transform="translate(135.199)"><rect class="f" width="101.695" height="169.451"/></g><rect class="f" width="101.695" height="169.451" transform="translate(156.296)"/><path class="b" d="M210.354,333.32c.071.095-4.478,3.755-10.14,8.162s-10.341,7.925-10.424,7.83,4.478-3.755,10.14-8.173S210.271,333.226,210.354,333.32Z" transform="translate(-54.366 -250.235)"/><path class="b" d="M210.354,325.26c.071.083-4.478,3.743-10.14,8.162s-10.341,7.925-10.424,7.818,4.478-3.755,10.14-8.173S210.271,325.154,210.354,325.26Z" transform="translate(-54.366 -251.723)"/><path class="b" d="M210.354,317.2c.071.095-4.478,3.755-10.14,8.173s-10.341,7.889-10.424,7.806,4.466-3.755,10.14-8.173S210.271,317.094,210.354,317.2Z" transform="translate(-54.366 -253.21)"/><path class="b" d="M210.354,309.121c.071.107-4.478,3.767-10.14,8.173s-10.341,7.913-10.424,7.818,4.466-3.743,10.14-8.162S210.271,308.979,210.354,309.121Z" transform="translate(-54.366 -254.702)"/><path class="b" d="M210.354,301.06c.071.095-4.478,3.755-10.14,8.173s-10.341,7.913-10.424,7.818,4.478-3.755,10.14-8.173S210.271,300.989,210.354,301.06Z" transform="translate(-54.366 -256.189)"/><path class="b" d="M210.354,293c.071.083-4.478,3.743-10.14,8.162S189.873,309.086,189.79,309s4.466-3.755,10.14-8.173S210.271,293,210.354,293Z" transform="translate(-54.366 -257.676)"/><path class="b" d="M210.354,284.93c.071.107-4.478,3.755-10.14,8.173s-10.341,7.913-10.424,7.818,4.478-3.755,10.14-8.173S210.271,284.836,210.354,284.93Z" transform="translate(-54.366 -259.166)"/><path class="b" d="M210.354,276.87c.071.095-4.478,3.755-10.14,8.173s-10.341,7.913-10.424,7.806,4.478-3.743,10.14-8.162S210.271,276.764,210.354,276.87Z" transform="translate(-54.366 -260.654)"/><path class="b" d="M210.354,268.8c.071.095-4.478,3.755-10.14,8.174s-10.341,7.913-10.424,7.83,4.478-3.755,10.14-8.173S210.271,268.682,210.354,268.8Z" transform="translate(-54.366 -262.143)"/><path class="b" d="M206.167,263.48c.083.095-3.554,3.032-8.055,6.539s-8.292,6.3-8.292,6.207,3.554-3.021,8.055-6.551S206.1,263.386,206.167,263.48Z" transform="translate(-54.361 -263.125)"/><path class="b" d="M194.105,263.332a8.944,8.944,0,0,1-2.037,1.86,8.47,8.47,0,0,1-2.3,1.5,17.162,17.162,0,0,1,4.335-3.376Z" transform="translate(-54.37 -263.154)"/><path class="b" d="M189.74,359.542c-.071-.095,4.478-3.755,10.14-8.173s10.341-7.925,10.412-7.818-4.466,3.755-10.14,8.173S189.823,359.649,189.74,359.542Z" transform="translate(-54.376 -248.347)"/><path class="b" d="M190.27,369.742c-.059-.095,4.478-3.755,10.14-8.173s10.341-7.913,10.424-7.818-4.478,3.755-10.14,8.173S190.353,369.837,190.27,369.742Z" transform="translate(-54.278 -246.465)"/><path class="b" d="M189.79,379.114c-.083-.095,4.466-3.755,10.14-8.173s10.341-7.913,10.412-7.83-4.466,3.767-10.14,8.173S189.873,379.208,189.79,379.114Z" transform="translate(-54.366 -244.737)"/><path class="b" d="M189.79,387.172c-.083-.095,4.466-3.743,10.14-8.162s10.341-7.925,10.412-7.83-4.466,3.755-10.14,8.173S189.873,387.267,189.79,387.172Z" transform="translate(-54.366 -243.248)"/><path class="b" d="M189.79,395.242c-.083-.107,4.466-3.755,10.14-8.173s10.341-7.925,10.412-7.818-4.466,3.743-10.14,8.162S189.873,395.313,189.79,395.242Z" transform="translate(-54.366 -241.758)"/><path class="b" d="M189.79,403.3c-.083-.095,4.466-3.755,10.14-8.173s10.341-7.913,10.412-7.818-4.466,3.755-10.14,8.162S189.873,403.4,189.79,403.3Z" transform="translate(-54.366 -240.271)"/><path class="b" d="M193.31,408.128c-.071-.107,3.554-3.032,8.067-6.551s8.292-6.29,8.292-6.207-3.554,3.032-8.067,6.551S193.393,408.223,193.31,408.128Z" transform="translate(-53.717 -238.783)"/><path class="b" d="M203.49,406.818a16.951,16.951,0,0,1,4.335-3.388,8.944,8.944,0,0,1-2.037,1.86,9.036,9.036,0,0,1-2.3,1.528Z" transform="translate(-51.838 -237.295)"/><rect class="b" width="89.588" height="119.818" transform="translate(287.948 49.586)"/><g class="e" transform="translate(287.948 49.586)"><rect class="d" width="89.588" height="119.818" transform="translate(0)"/></g><rect class="g" width="89.588" height="119.818" transform="translate(305.918 49.586)"/><path class="b" d="M336.524,366.73c.071.095-3.9,3.3-8.861,7.178s-9.062,6.918-9.133,6.823,3.885-3.317,8.861-7.178S336.441,366.624,336.524,366.73Z" transform="translate(-30.606 -244.069)"/><path class="b" d="M336.524,359.67c.071.095-3.9,3.317-8.861,7.167s-9.062,6.93-9.133,6.835,3.885-3.317,8.861-7.178S336.441,359.576,336.524,359.67Z" transform="translate(-30.606 -245.372)"/><path class="b" d="M336.524,352.61c.071.095-3.9,3.3-8.861,7.167s-9.062,6.93-9.133,6.835,3.885-3.3,8.861-7.178S336.441,352.516,336.524,352.61Z" transform="translate(-30.606 -246.675)"/><path class="b" d="M336.524,345.55c.071.095-3.9,3.3-8.861,7.178s-9.062,6.918-9.133,6.823,3.885-3.3,8.861-7.167S336.441,345.456,336.524,345.55Z" transform="translate(-30.606 -247.978)"/><path class="b" d="M336.524,338.49c.071.095-3.9,3.317-8.861,7.178s-9.062,6.918-9.133,6.823,3.885-3.3,8.861-7.167S336.441,338.407,336.524,338.49Z" transform="translate(-30.606 -249.281)"/><path class="b" d="M336.524,331.471c.071.095-3.9,3.3-8.861,7.107s-9.062,6.93-9.133,6.835,3.885-3.3,8.861-7.178S336.441,331.329,336.524,331.471Z" transform="translate(-30.606 -250.577)"/><path class="b" d="M336.524,324.38c.071.095-3.9,3.3-8.861,7.167s-9.062,6.93-9.133,6.835,3.885-3.317,8.861-7.178S336.441,324.274,336.524,324.38Z" transform="translate(-30.606 -251.885)"/><path class="b" d="M336.524,317.32c.071.095-3.9,3.3-8.861,7.167s-9.062,6.918-9.133,6.835,3.885-3.3,8.861-7.178S336.441,317.226,336.524,317.32Z" transform="translate(-30.606 -253.188)"/><path class="b" d="M336.524,310.26c.071.095-3.9,3.3-8.861,7.167s-9.062,6.93-9.133,6.835,3.885-3.3,8.861-7.178S336.441,310.166,336.524,310.26Z" transform="translate(-30.606 -254.491)"/><path class="b" d="M332.875,305.6c.071.095-3.08,2.665-7.036,5.757a90.11,90.11,0,0,1-7.309,5.4c-.071-.095,3.068-2.665,7.036-5.757A90.122,90.122,0,0,1,332.875,305.6Z" transform="translate(-30.606 -255.351)"/><path class="b" d="M322.322,305.47a6.61,6.61,0,0,1-1.765,1.647,6.786,6.786,0,0,1-2.026,1.268c-.083-.095.711-.841,1.765-1.682a6.455,6.455,0,0,1,2.026-1.232Z" transform="translate(-30.607 -255.375)"/><path class="b" d="M336.524,394.47c.071.095-3.9,3.3-8.861,7.107s-9.062,6.918-9.133,6.835,3.885-3.317,8.861-7.178S336.441,394.376,336.524,394.47Z" transform="translate(-30.606 -238.949)"/><path class="b" d="M336.524,387.41c.071.095-3.9,3.3-8.861,7.107s-9.062,6.918-9.133,6.835,3.885-3.3,8.861-7.178S336.441,387.316,336.524,387.41Z" transform="translate(-30.606 -240.252)"/><path class="b" d="M336.524,380.35c.071.095-3.9,3.3-8.861,7.178s-9.062,6.918-9.133,6.811,3.885-3.293,8.861-7.167S336.441,380.256,336.524,380.35Z" transform="translate(-30.606 -241.555)"/><path class="b" d="M336.524,373.29c.071.095-3.9,3.3-8.861,7.178s-9.062,6.918-9.133,6.823,3.885-3.317,8.861-7.167S336.441,373.2,336.524,373.29Z" transform="translate(-30.606 -242.858)"/><rect class="b" width="96.056" height="81.593" transform="translate(0.005 87.93)"/><g class="e" transform="translate(0.005 87.93)"><rect class="d" width="96.056" height="81.593"/></g><rect class="g" width="96.056" height="81.593" transform="translate(17.287 87.93)"/><path class="b" d="M92.426,395.15c.071.095-3.66,3.115-8.292,6.752s-8.553,6.515-8.624,6.42,3.66-3.127,8.292-6.752S92.355,395.056,92.426,395.15Z" transform="translate(-75.458 -238.824)"/><path class="b" d="M92.426,388.531c.071.095-3.66,3.127-8.292,6.752s-8.553,6.515-8.624,6.42,3.66-3.127,8.292-6.752A107.406,107.406,0,0,1,92.426,388.531Z" transform="translate(-75.458 -240.046)"/><path class="b" d="M92.426,381.84c.071.095-3.66,3.127-8.292,6.764s-8.553,6.527-8.624,6.42,3.66-3.127,8.292-6.764S92.355,381.746,92.426,381.84Z" transform="translate(-75.458 -241.28)"/><path class="b" d="M92.426,375.19c.071.095-3.66,3.127-8.292,6.764s-8.553,6.515-8.624,6.42,3.66-3.127,8.292-6.752S92.355,375.1,92.426,375.19Z" transform="translate(-75.458 -242.508)"/><path class="b" d="M92.426,368.561c.071.095-3.66,3.127-8.292,6.752s-8.553,6.515-8.624,6.42,3.66-3.127,8.292-6.752S92.355,368.442,92.426,368.561Z" transform="translate(-75.458 -243.731)"/><path class="b" d="M92.426,361.89c.071.095-3.66,3.127-8.292,6.752s-8.553,6.515-8.624,6.42,3.66-3.115,8.292-6.752S92.355,361.784,92.426,361.89Z" transform="translate(-75.458 -244.962)"/><path class="b" d="M92.426,355.23c.071.095-3.66,3.127-8.292,6.764s-8.553,6.527-8.624,6.42,3.66-3.127,8.292-6.764S92.355,355.136,92.426,355.23Z" transform="translate(-75.458 -246.191)"/><path class="b" d="M92.426,348.59c.071.083-3.66,3.115-8.292,6.752s-8.553,6.527-8.624,6.432,3.66-3.127,8.292-6.764S92.355,348.484,92.426,348.59Z" transform="translate(-75.458 -247.417)"/><path class="b" d="M92.426,341.92c.071.107-3.66,3.127-8.292,6.764s-8.553,6.515-8.624,6.42,3.66-3.127,8.292-6.764S92.355,341.837,92.426,341.92Z" transform="translate(-75.458 -248.648)"/><path class="b" d="M88.986,337.53a78.779,78.779,0,0,1-6.622,5.437q-3.329,2.7-6.894,5.07a82.757,82.757,0,0,1,6.622-5.437C85.823,339.722,88.915,337.436,88.986,337.53Z" transform="translate(-75.465 -249.458)"/><path class="b" d="M79.048,337.41c.071.095-.663.794-1.647,1.564a6.207,6.207,0,0,1-1.931,1.185c-.071-.095.663-.794,1.694-1.564a5.994,5.994,0,0,1,1.883-1.185Z" transform="translate(-75.466 -249.48)"/></g><g transform="translate(209.495 98.914)"><g class="e" transform="translate(35.723 187.165)"><path class="d" d="M292.25,257.146a5,5,0,0,0-2.476-.13c-25.812,2.867-54.419,4.809-80.254,7.676v.272a156.515,156.515,0,0,0,51.055,5.923c1.623-.071,3.459-.083,4.561,1.1s.841,3.329.474,5.07q-5.437,23.691-10.886,47.382c-.569,2.476-.96,5.532.983,7.167,2.689,2.274,6.634-.426,8.908-3.1,15.364-18.183,22.353-41.874,28.927-64.843C294.192,261.327,294.512,258.081,292.25,257.146Z" transform="translate(-209.52 -256.918)"/></g><path class="c" d="M309.613,251.115a13.516,13.516,0,0,0-9.69-3.21L294,266.858c4.359.19,8.707,2.44,12.912,1.279a9.216,9.216,0,0,0,6.432-7.6,11,11,0,0,0-3.731-9.417Z" transform="translate(-158.206 -71.422)"/><path class="a" d="M299.826,247.571c0-.154.652-.272,1.8-.261a14.607,14.607,0,0,1,4.88.912,13.244,13.244,0,0,1,5.923,4.608,12.059,12.059,0,0,1,1.978,4.1,10.981,10.981,0,0,1,.142,4.963,9.937,9.937,0,0,1-2.156,4.513,9.477,9.477,0,0,1-3.838,2.665,13.777,13.777,0,0,1-7.486.486,23.912,23.912,0,0,1-4.667-1.445c-1.054-.462-1.6-.794-1.552-.948s.687-.107,1.8.083,2.7.521,4.643.7a13.243,13.243,0,0,0,6.468-.841,7.652,7.652,0,0,0,2.9-2.144,7.9,7.9,0,0,0,1.635-3.554,9.7,9.7,0,0,0-1.552-7.356,12.876,12.876,0,0,0-4.857-4.336,21.594,21.594,0,0,0-4.336-1.5C300.43,247.914,299.766,247.725,299.826,247.571Z" transform="translate(-158.049 -71.526)"/><path class="c" d="M255.428,306.23,243.44,339.824l41.72,15.139c1.185-4.075-17.484-19.9-17.484-19.9l8.612-21.215Z" transform="translate(-167.537 -60.652)"/><g class="h" transform="translate(86.002 267.898)"><path class="i" d="M253.854,325.093a1.824,1.824,0,0,0-1.883,1.516,1.765,1.765,0,0,0,1.493,1.883,1.919,1.919,0,0,0,1.99-1.623c0-.888-.853-1.907-1.765-1.789" transform="translate(-251.965 -325.072)"/></g><path class="a" d="M243.44,335.116l1.185-3.376,39.624,15.8s1.575,1.493.888,2.724Z" transform="translate(-167.537 -55.943)"/><path class="d" d="M265.253,330.692c-.071.19-1.125-.083-2.369.213s-2.085.948-2.251.841.58-1.185,2.073-1.54S265.372,330.514,265.253,330.692Z" transform="translate(-164.368 -56.246)"/><path class="d" d="M268.278,333.512c0,.2-1.042.237-2.037.841s-1.54,1.457-1.741,1.362.095-1.267,1.35-2.014S268.349,333.3,268.278,333.512Z" transform="translate(-163.661 -55.666)"/><path class="d" d="M268.184,339.1c-.2,0-.118-1.185.853-2.061s2.037-1.031,2.061-.853-.782.58-1.528,1.35S268.4,339.163,268.184,339.1Z" transform="translate(-162.987 -55.134)"/><path class="d" d="M266.419,326.6c-.154.154-.983-.462-2.156-.841s-2.215-.3-2.263-.521,1.09-.616,2.476-.2S266.584,326.484,266.419,326.6Z" transform="translate(-164.112 -57.214)"/><path class="d" d="M267.272,322.677a4.3,4.3,0,0,1-2.085-.77,10.213,10.213,0,0,1-1.955-1.421,10.377,10.377,0,0,1-.971-1.066,2.547,2.547,0,0,1-.45-.723.96.96,0,0,1,.3-1.125,1.256,1.256,0,0,1,1.066-.142,3.791,3.791,0,0,1,.746.4,8.292,8.292,0,0,1,1.185.912,7.758,7.758,0,0,1,1.469,1.966,3.672,3.672,0,0,1,.6,2.132c-.118,0-.355-.77-1.066-1.86a8.4,8.4,0,0,0-1.481-1.694,8.287,8.287,0,0,0-1.078-.841c-.391-.272-.77-.415-.948-.261s-.083.095,0,.249a2.558,2.558,0,0,0,.344.533c.261.355.545.7.841,1.031a12.4,12.4,0,0,0,1.741,1.5A15.777,15.777,0,0,1,267.272,322.677Z" transform="translate(-164.16 -58.596)"/><path class="d" d="M266.116,322.947a3.554,3.554,0,0,1,.178-2.215,7.368,7.368,0,0,1,1.113-2.191,7.686,7.686,0,0,1,1-1.066,1.86,1.86,0,0,1,1.694-.58,1.066,1.066,0,0,1,.652.912,2.855,2.855,0,0,1-.059.841,4.951,4.951,0,0,1-.509,1.4,5.046,5.046,0,0,1-1.694,1.836c-1.185.794-2.144.734-2.132.651a18.957,18.957,0,0,0,1.824-1.078,4.987,4.987,0,0,0,1.362-1.694,3.992,3.992,0,0,0,.4-1.185c.095-.462.059-.877-.118-.9a1.279,1.279,0,0,0-.983.426,6.989,6.989,0,0,0-.924.948,7.286,7.286,0,0,0-1.185,1.931C266.293,322.13,266.2,322.947,266.116,322.947Z" transform="translate(-163.37 -58.688)"/><path class="d" d="M220.715,225.768c-6.835.166-13.314,1.185-18.029,6.077-6.243,6.574-13.954,15.944-14.357,22.436-.711,9.7,5.2,12.58,9.476,14.961a11.916,11.916,0,0,0,6.207,1.422l78.975-.592,2.476-13.374-51.078-12.592,2.132-19.225Z" transform="translate(-177.719 -75.666)"/><path class="d" d="M229.343,225.065l24.876-1.185s42.9,2.369,52.121,10.815,8.008,17.934,4.963,27.044-30.076,67.71-30.076,67.71a10.152,10.152,0,0,1,.96,7.439,9.856,9.856,0,0,1-7.013,6.681l-23.893-8.778s-3.246-1.185-.948-4.217,3.8-3.625,3.8-3.625v-6.065s8.4-15.257,9.169-17.354,8.8-33.168,8.8-33.168l5.342-9.18s-12.924-6.077-24.118-10.472l-26.191-6.444Z" transform="translate(-170.545 -75.85)"/><path class="b" d="M265.451,317.542a24.471,24.471,0,0,1-2.1-1.362,28.287,28.287,0,0,0-11.147-4.229,24.672,24.672,0,0,1-2.488-.367,9.559,9.559,0,0,1,2.535,0A23.54,23.54,0,0,1,258.178,313a23.2,23.2,0,0,1,5.366,2.879A9.62,9.62,0,0,1,265.451,317.542Z" transform="translate(-166.378 -59.679)"/><path class="b" d="M274.314,314.79a8.564,8.564,0,0,1-1.386-1.469c-.805-.948-1.872-2.286-3-3.8s-2.085-2.961-2.748-4a7.818,7.818,0,0,1-.983-1.765,10.139,10.139,0,0,1,1.256,1.587l2.843,3.909,2.878,3.874A8,8,0,0,1,274.314,314.79Z" transform="translate(-163.336 -61.109)"/><path class="b" d="M282.538,248.32c0,.071-.841.261-2.251.723a23.846,23.846,0,0,0-9.583,5.923,18.018,18.018,0,0,1-1.635,1.682,8.045,8.045,0,0,1,1.4-1.931,20.279,20.279,0,0,1,9.713-6.065,7.926,7.926,0,0,1,2.357-.332Z" transform="translate(-162.807 -71.34)"/><path class="b" d="M259.82,290.472a1.932,1.932,0,0,1,.095-.521l.367-1.445,1.433-5.331,4.892-17.531c.983-3.423,1.836-6.693,2.8-9.642a20.031,20.031,0,0,1,4.49-6.859,25.231,25.231,0,0,1,4.264-3.554c.557-.355.995-.616,1.3-.782a3.4,3.4,0,0,1,.462-.237l-1.682,1.185a28.525,28.525,0,0,0-4.134,3.554,20.138,20.138,0,0,0-4.336,6.764c-.924,2.9-1.765,6.207-2.748,9.607l-5,17.555-1.575,5.295c-.178.58-.32,1.054-.438,1.421a1.991,1.991,0,0,1-.19.521Z" transform="translate(-164.514 -72.032)"/><path class="b" d="M241.569,248.811c-.13,0-.652-4.643-1.185-10.377a103.791,103.791,0,0,1-.7-10.424c.142-.012.64,4.632,1.185,10.377A103.791,103.791,0,0,1,241.569,248.811Z" transform="translate(-168.236 -75.088)"/><path class="b" d="M208.137,257.393c-.071,0-.45-.723-1.185-1.812a17.555,17.555,0,0,0-8.162-6.373c-1.256-.5-2.073-.687-2.061-.758a7.108,7.108,0,0,1,2.168.438,15.743,15.743,0,0,1,8.292,6.515A6.575,6.575,0,0,1,208.137,257.393Z" transform="translate(-176.158 -71.315)"/><path class="b" d="M222.543,242.462c0,.083-1.1-.592-2.926-1.421a27.6,27.6,0,0,0-15.269-2.2c-1.978.3-3.186.651-3.2.557a2.985,2.985,0,0,1,.841-.308,20.3,20.3,0,0,1,2.369-.569,25.065,25.065,0,0,1,15.4,2.227,15.821,15.821,0,0,1,2.085,1.185,3.21,3.21,0,0,1,.7.533Z" transform="translate(-175.342 -73.217)"/><path class="b" d="M278.83,253.588a5.146,5.146,0,0,1-.616-.107l-1.765-.379-6.42-1.445c-5.437-1.185-12.959-2.855-21.322-4.513s-15.9-3.021-21.322-3.9l-6.5-1.113-1.765-.32a5.158,5.158,0,0,1-.616-.13,2.751,2.751,0,0,1,.628,0l1.777.225c1.54.213,3.779.545,6.527.971,5.508.853,13.1,2.18,21.441,3.826s15.861,3.329,21.322,4.632c2.713.652,4.9,1.185,6.408,1.587l1.741.462A3.555,3.555,0,0,1,278.83,253.588Z" transform="translate(-172.14 -72.568)"/><path class="b" d="M229.3,244.9a26.76,26.76,0,0,0-1.09-2.535A10.9,10.9,0,0,0,226.4,240a31.209,31.209,0,0,0-2.76-2.369,42.121,42.121,0,0,0-5.662-3.554,17.388,17.388,0,0,1-2.369-1.374,14.948,14.948,0,0,1,2.535,1.078,32.09,32.09,0,0,1,5.792,3.447,26.211,26.211,0,0,1,2.8,2.452,10.874,10.874,0,0,1,1.789,2.488,8.554,8.554,0,0,1,.7,1.931,2.369,2.369,0,0,1,.083.805Z" transform="translate(-172.673 -74.222)"/><path class="d" d="M302,253.11c.107.095-1.185,1.433-2.239,3.459s-1.362,3.874-1.5,3.838a10.057,10.057,0,0,1,3.743-7.3Z" transform="translate(-157.419 -70.455)"/><path class="d" d="M367.289,156.67l-.071.118-.237.332-.924,1.3-3.554,4.833c-3.115,4.158-7.546,10.057-12.817,17.105l-.118.154-.142-.118L338.22,172.46h.3l-8.41,11.36c-3.163,4.264-6.231,8.446-9.133,12.308l-.118.166-.2-.142-13.729-8.031.237-.059-11.846,14.8-3.329,4.075-.888,1.078-.308.355a2.3,2.3,0,0,1,.272-.391l.841-1.113,3.246-4.158,11.775-14.843.107-.13.13.083,13.753,8-.272.059,9.121-12.319,8.446-11.348.13-.178.166.13,11.147,7.937h-.261l12.935-17.022,3.66-4.738.983-1.185.261-.32Z" transform="translate(-158.798 -88.254)"/><path class="d" d="M356,169.243a4.545,4.545,0,0,1,0-.983c0-.723.118-1.623.19-2.677.178-2.263.438-5.39.77-8.837h0l.3.225c-3.246,1.185-6.2,2.18-8.292,2.914l-2.535.841a4.136,4.136,0,0,1-.948.249,4.359,4.359,0,0,1,.9-.4l2.488-.971c2.12-.794,5.07-1.883,8.292-3.032l.332-.118v.379c-.332,3.435-.651,6.551-.9,8.813-.13,1.054-.237,1.943-.332,2.665A4.054,4.054,0,0,1,356,169.243Z" transform="translate(-148.704 -88.295)"/><path class="c" d="M286.9,209.282c-.379-2.582-8.1-11.135-8.1-11.135s-6.752-16.418-7.877-21.014a68.925,68.925,0,0,0-3.163-8.446c-2.7-4.572-4.039-4.655-8.671-7.261l-8.967-3.956-1.1-2.452a10.1,10.1,0,0,0-4.632-4.869L221.88,138.54l-6.953,12.3s-13.374,6.3-14.144,7.309c-2.748,3.494-.841,59.666-.841,59.666s-1.35,21.891-2.843,28.039-2.369,10.661-2.369,10.661l6.681-7.664c3.921-4.916,12.509-7.178,18.681-7.107l52.76.225-3.175-15.7,43.77,9.251s7.344-14.309,7.925-14.594S286.9,209.282,286.9,209.282Z" transform="translate(-176.527 -91.601)"/><path class="i" d="M216.713,153.146c-.367-.367,4.229,10.578,7.19,22.507,1.883,7.415,2.274,19.439,2.274,26.06l1.185,18.7v16.371l25.231-1.694-3.779-27.458s-3.08-17.768-3.945-24.5c-.782-6.183-4.537-30.929-4.537-30.929S227.315,163.925,216.713,153.146Z" transform="translate(-172.474 -89.078)"/><path class="d" d="M264.1,208.633a2,2,0,0,1,0-.652,8.989,8.989,0,0,1,.332-1.682,11.7,11.7,0,0,1,2.89-4.916,11.419,11.419,0,0,1,4.9-2.89,9.145,9.145,0,0,1,1.694-.344h.64a17.461,17.461,0,0,0-2.239.64,12.166,12.166,0,0,0-7.6,7.6C264.282,207.769,264.187,208.633,264.1,208.633Z" transform="translate(-163.728 -80.599)"/><path class="d" d="M265.2,198.746a7.972,7.972,0,0,1,3.862-1.113,7.783,7.783,0,0,1,3.992.474c0,.13-1.777-.213-3.956,0S265.247,198.876,265.2,198.746Z" transform="translate(-163.521 -80.709)"/><path class="c" d="M204.283,154.66a24.663,24.663,0,0,0-14.215,17.164c-2.369,9.654-12.509,49.1-10.424,55s42.644,11.692,42.644,11.692l4.738-20.28-20.6-5.639s.272-18.775.533-26.558S204.283,154.66,204.283,154.66Z" transform="translate(-179.363 -88.625)"/><path class="i" d="M219.838,210.73l7.214,1.9-4.276,15.636-7.1-.32Z" transform="translate(-172.66 -78.277)"/><path class="j" d="M268.4,223.772l-6.5-6.894-13.374-3.388s-12.26,3.684-12.556,3.672-10.661-2.843-10.661-2.843L221.68,227.61l18.692,1.279,21.322-.841s1.113-1.042.45-1.741,3.554,1.185,4.075,1.185,1.457.4,2.12-.4A2.831,2.831,0,0,0,268.4,223.772Z" transform="translate(-171.553 -77.768)"/><path class="k" d="M258.1,224.892a12.094,12.094,0,0,1-2.12-.628c-1.3-.415-3.092-.959-5.07-1.481s-3.838-.888-5.177-1.185a11.173,11.173,0,0,1-2.156-.5,9.277,9.277,0,0,1,2.215.166,46.468,46.468,0,0,1,5.236,1.031,45.014,45.014,0,0,1,5.07,1.623,8.375,8.375,0,0,1,2,.971Z" transform="translate(-167.511 -76.365)"/><path class="k" d="M264.315,222.987a28.9,28.9,0,0,1-2.973-.948c-1.812-.616-4.359-1.374-7.19-2.156A40.279,40.279,0,0,0,246.9,218.1a16.879,16.879,0,0,0-3.092.118,2.476,2.476,0,0,1,.853-.272,8.824,8.824,0,0,1,2.3-.19,29.236,29.236,0,0,1,7.368,1.694c2.8.841,5.366,1.587,7.178,2.3.9.344,1.623.652,2.109.841A3.15,3.15,0,0,1,264.315,222.987Z" transform="translate(-167.469 -76.983)"/><path class="d" d="M179.463,215.655a6.278,6.278,0,0,0,.107.959,4.395,4.395,0,0,0,1.41,2.31c1.765,1.635,5.129,3.009,9.394,3.779h0a62.486,62.486,0,0,0,6.551,1.682c2.381.5,4.928,1.09,7.593,1.635,5.4,1.1,11.372,2.263,17.7,3.447l-.272.178,1.433-5.923,3.281-13.433.166.284-18.29-5.224h0a18.1,18.1,0,0,0-7.984-1.386,17.65,17.65,0,0,0-6.029,1.41,19.758,19.758,0,0,0-3.459,1.919l-.841.616-.3.19a1.66,1.66,0,0,1,.261-.249,8.6,8.6,0,0,1,.841-.64,18.7,18.7,0,0,1,3.447-2.037,17.769,17.769,0,0,1,6.089-1.516,18.29,18.29,0,0,1,8.15,1.35h0l18.325,5.141.213.059v.225c-1.042,4.276-2.132,8.778-3.269,13.433-.5,2.026-.983,4-1.433,5.923l-.059.225h-.225c-6.326-1.185-12.3-2.369-17.685-3.554-2.7-.557-5.248-1.113-7.6-1.694s-4.584-1.078-6.574-1.753h0c-4.312-.841-7.688-2.251-9.476-3.968a4.466,4.466,0,0,1-1.386-2.369A2.879,2.879,0,0,1,179.463,215.655Z" transform="translate(-179.348 -79.59)"/><path class="d" d="M205.6,205.484s-.746-.569-1.99-1.4a19.048,19.048,0,0,0-10.981-3.2c-1.493,0-2.369.2-2.428.118a7.261,7.261,0,0,1,2.369-.45,16.8,16.8,0,0,1,11.182,3.246,7.889,7.889,0,0,1,1.848,1.682Z" transform="translate(-177.363 -80.163)"/><path class="d" d="M206.406,176.83a5.354,5.354,0,0,1,0,1.185c0,.794-.083,1.943-.19,3.376-.237,2.831-.652,6.764-1.4,10.981a77.21,77.21,0,0,1-2.535,10.827c-.225.663-.462,1.279-.663,1.8l-.58,1.327a6.054,6.054,0,0,1-.64,1.066,6.727,6.727,0,0,1,.462-1.185l.509-1.35c.19-.509.379-1.185.58-1.812a93.949,93.949,0,0,0,2.369-10.791c.734-4.229,1.185-8.162,1.528-10.981.13-1.339.249-2.464.344-3.388a5.378,5.378,0,0,1,.213-1.054Z" transform="translate(-175.481 -84.534)"/><path class="d" d="M223.05,172.434s-.095-.237-.308-.651a3.98,3.98,0,0,0-1.327-1.445,3.317,3.317,0,0,0-2.867-.415,3.7,3.7,0,0,0-2.369,2.736l-.118.628-.332-.58a60.975,60.975,0,0,1-2.689-6.8,35.75,35.75,0,0,1-1.99-12.011c0-.794.118-1.493.154-2.12a10.406,10.406,0,0,1,.284-1.564,7.107,7.107,0,0,1,.391-1.291,30.412,30.412,0,0,0-.509,4.975,38.628,38.628,0,0,0,2.109,11.846,66.075,66.075,0,0,0,2.642,6.764h-.4a4.087,4.087,0,0,1,2.724-3,3.554,3.554,0,0,1,3.1.557,3.873,3.873,0,0,1,1.3,1.587,2.667,2.667,0,0,1,.166.521,1.907,1.907,0,0,1,.035.261Z" transform="translate(-173.515 -89.685)"/><path class="d" d="M239.7,174.285a7.831,7.831,0,0,1-.178-1.054,11.207,11.207,0,0,1-.178-2.95,6.267,6.267,0,0,1,2-3.9,3.661,3.661,0,0,1,2.369-.924,3.222,3.222,0,0,1,2.535,1.185l-.355.225-.794-2.109c-1.564-4.146-2.95-7.913-3.921-10.661L240,150.855a7.532,7.532,0,0,1-.355-1.185,8.288,8.288,0,0,1,.521,1.185c.332.841.746,1.907,1.267,3.2,1.054,2.7,2.488,6.444,4.039,10.661l.782,2.1.509,1.362-.841-1.125a2.855,2.855,0,0,0-2.227-1.066,3.435,3.435,0,0,0-2.191.794,6.172,6.172,0,0,0-1.954,3.625,13.09,13.09,0,0,0,0,2.89A4.111,4.111,0,0,1,239.7,174.285Z" transform="translate(-168.298 -89.546)"/><path class="d" d="M252.281,172.29c.118,0,2,12.319,4.229,27.541s3.9,27.588,3.779,27.6-2.014-12.308-4.229-27.541S252.162,172.3,252.281,172.29Z" transform="translate(-165.906 -85.372)"/><g class="e" transform="translate(39.845 76.364)"><path class="d" d="M213,163.38a27.661,27.661,0,0,0,2.191,9.95,7.108,7.108,0,0,1,3.483-2.8c1.812-.426,3.66.7,4.963,2.061a8.931,8.931,0,0,0-1.587-3.8,4.442,4.442,0,0,0-3.483-1.824,3.08,3.08,0,0,0-2.938,2.369l-2.535-5.923" transform="translate(-213 -163.38)"/></g><path class="d" d="M206.745,169.864c-.083,0,0-.924-.32-2.369a14.084,14.084,0,0,0-2.144-5.236,14.378,14.378,0,0,0-2.014-2.369,13.032,13.032,0,0,0-2.014-1.575c-1.185-.782-2.109-1.078-2.073-1.185a1.955,1.955,0,0,1,.628.154,4.643,4.643,0,0,1,.711.272,8.052,8.052,0,0,1,.9.462,11.844,11.844,0,0,1,2.144,1.54,13.9,13.9,0,0,1,2.108,2.452,13.03,13.03,0,0,1,2.073,5.437,8.778,8.778,0,0,1,.095,1.765C206.8,169.639,206.78,169.864,206.745,169.864Z" transform="translate(-175.89 -88.17)"/><g class="e" transform="translate(87.133 92.403)"><path class="d" d="M252.92,176.92l5.65,39.825.284.628A85.289,85.289,0,0,0,252.92,176.92Z" transform="translate(-252.92 -176.92)"/></g><path class="a" d="M289.349,196.4l-18.384,32.1-45.286,1-.118,2.037,43.829-.32h1.4l46.3.095,9.358-16.146L338.4,198.037a1.694,1.694,0,0,0-.4-2.369,1.753,1.753,0,0,0-.983-.308l-46.2.178A1.67,1.67,0,0,0,289.349,196.4Z" transform="translate(-170.837 -81.114)"/><path class="j" d="M313.1,212.08s2.369,2.18,2,4.027-.249,3.234-2,3.388a2.665,2.665,0,0,1-2.369,2.748,2.9,2.9,0,0,1-2.843,3.376s-1.031,3.115-3.175,2.369a18.442,18.442,0,0,1-3.554-1.623l-.628-1.185s-3.127-1.185-2.369-2.95c.474-1.066,2.1-1.35,2.1-1.35a3.009,3.009,0,0,1,.2-2.748c.746-1.019,3.2-.178,3.2-.178a3.554,3.554,0,0,1,.77-2.369c.841-.983,4.738,1.694,4.738,1.694l2.12-2.535Z" transform="translate(-157.46 -78.028)"/><path class="k" d="M307.519,224.251a20.657,20.657,0,0,1-3.909-2.168,21.606,21.606,0,0,1-3.66-2.523,42.315,42.315,0,0,1,7.6,4.738Z" transform="translate(-157.107 -76.647)"/><path class="k" d="M309.831,221.318a18.954,18.954,0,0,1-3.625-1.919,18.36,18.36,0,0,1-3.376-2.369,19.309,19.309,0,0,1,3.625,1.919,17.77,17.77,0,0,1,3.376,2.369Z" transform="translate(-156.576 -77.114)"/><path class="k" d="M305.47,215.26a12.449,12.449,0,0,1,3.21,1.694,26.907,26.907,0,0,1,3.033,2.014,9.926,9.926,0,0,1-3.246-1.646,17.4,17.4,0,0,1-3-2.061Z" transform="translate(-156.089 -77.441)"/><path class="d" d="M331.063,196.445H327.7l-9.192.071-30.337.071h-2.215a1.824,1.824,0,0,0-1.694.794c-.7,1.244-1.386,2.488-2.061,3.708l-3.9,7.107-6.634,11.917-4.5,8.019-1.256,2.168-.332.557a.984.984,0,0,1-.13.178,1.684,1.684,0,0,1,.095-.213c.071-.142.166-.332.3-.569.272-.545.675-1.279,1.185-2.215l4.383-8.079c1.872-3.388,4.087-7.475,6.551-11.964,1.185-2.263,2.535-4.62,3.874-7.107l2.037-3.731a2.263,2.263,0,0,1,2.061-1h2.215l30.337.059,9.192.083h3.186Z" transform="translate(-163.475 -80.967)"/><path class="i" d="M293.384,210.122a1.955,1.955,0,1,0,2.926-.332,2.085,2.085,0,0,0-2.926.332Z" transform="translate(-158.383 -78.534)"/><path class="j" d="M241.281,159.788l-.249-7.3s9.678-2.12,9.2-11.9c-.237-4.738-1.5-14.416-2.76-23.17a18.242,18.242,0,0,0-19.19-15.6h-.948c-10.14,1.185-14.76,10.507-13.255,20.6l2.369,38.475a12.438,12.438,0,0,0,12.77,11.668h0A12.45,12.45,0,0,0,241.281,159.788Z" transform="translate(-173.007 -98.385)"/><path class="k" d="M238.839,145.063a23.573,23.573,0,0,1-12.959-2.973s3.3,6.93,13.03,5.449Z" transform="translate(-170.778 -90.945)"/><path class="d" d="M241.64,122.907a1.41,1.41,0,0,1-1.256,1.5,1.339,1.339,0,0,1-1.5-1.185h0a1.4,1.4,0,0,1,1.291-1.445,1.339,1.339,0,0,1,1.469,1.125Z" transform="translate(-168.379 -94.695)"/><path class="d" d="M241.6,119.323c-.154.2-1.267-.521-2.772-.426s-2.535.924-2.725.746.071-.415.533-.794a3.838,3.838,0,0,1,4.395-.261C241.513,118.92,241.691,119.24,241.6,119.323Z" transform="translate(-168.903 -95.388)"/><path class="d" d="M229.3,123.427a1.41,1.41,0,0,1-1.268,1.493,1.339,1.339,0,0,1-1.516-1.185h0a1.386,1.386,0,0,1,1.256-1.493,1.339,1.339,0,0,1,1.516,1.185Z" transform="translate(-170.661 -94.611)"/><path class="d" d="M229.146,120.338c-.154.19-1.267-.521-2.772-.426s-2.535.912-2.724.734.059-.415.533-.794a3.814,3.814,0,0,1,2.168-.841,3.743,3.743,0,0,1,2.215.569C229.052,119.935,229.253,120.255,229.146,120.338Z" transform="translate(-171.201 -95.206)"/><path class="d" d="M233.7,131.2a9.784,9.784,0,0,1,2.369-.592c.391-.059.746-.154.794-.415a1.99,1.99,0,0,0-.332-1.185l-1.3-2.855a49.754,49.754,0,0,1-3.021-7.486,51.649,51.649,0,0,1,3.554,7.226c.438,1.007.853,1.955,1.267,2.867a2.215,2.215,0,0,1,.3,1.493.96.96,0,0,1-.6.6,2.273,2.273,0,0,1-.64.13A9.643,9.643,0,0,1,233.7,131.2Z" transform="translate(-169.61 -95.268)"/><path class="d" d="M229.832,130.34c.249,0,.344,1.6,1.812,2.677s3.2.782,3.222,1.007-.367.344-1.1.415a4.146,4.146,0,0,1-2.677-.758,3.553,3.553,0,0,1-1.422-2.251C229.548,130.778,229.7,130.34,229.832,130.34Z" transform="translate(-170.087 -93.114)"/><path class="d" d="M229.363,115.29c-.118.415-1.623.32-3.376.64s-3.151.841-3.376.533.107-.569.652-1a5.8,5.8,0,0,1,2.488-1.054,5.923,5.923,0,0,1,2.689.154C229.067,114.793,229.446,115.124,229.363,115.29Z" transform="translate(-171.394 -96.07)"/><path class="d" d="M240.8,115.7c-.237.367-1.3.071-2.535.13s-2.286.367-2.535,0c-.118-.178,0-.533.474-.853a3.72,3.72,0,0,1,4.1-.118C240.8,115.189,240.951,115.556,240.8,115.7Z" transform="translate(-168.969 -96.075)"/><path class="d" d="M246.649,113.19s-2.95-5.923-5.994-7.214c-3.672-1.5-4.975,2.535-8.446,1.765s-6.989-2.18-10.306.663c-3.637,3.115-1.694,5.023-1.694,9.382.13,17.65-2.772,22.8-4.217,14.582-.166-.9-2.724-1.469-3.329-5.271-.794-4.951-1.362-10.993-.462-14.57.746-3.032,2.369-5.188,5.212-7.6,4.584-3.874,11.17-4.347,15.684-4.229S246.649,105.5,246.649,113.19Z" transform="translate(-173.387 -98.589)"/><path class="j" d="M216.891,127.551a2.653,2.653,0,0,0-2.878-2.369h-.13c-1.812.284-3.791,1.445-3.435,5.212.628,6.657,7.2,4.655,7.19,4.466S217.187,130.335,216.891,127.551Z" transform="translate(-173.634 -94.068)"/><path class="k" d="M215.6,132.146l-.3.2a1.185,1.185,0,0,1-.853.095,2.89,2.89,0,0,1-1.575-2.452,3.743,3.743,0,0,1,.178-1.694,1.35,1.35,0,0,1,.782-.983.6.6,0,0,1,.723.261c.095.178.071.32.107.32s.142-.118,0-.391a.865.865,0,0,0-.308-.4.888.888,0,0,0-.652-.107,1.647,1.647,0,0,0-1.113,1.185,3.873,3.873,0,0,0-.237,1.907,3.033,3.033,0,0,0,1.966,2.713,1.185,1.185,0,0,0,1.042-.272C215.6,132.312,215.624,132.146,215.6,132.146Z" transform="translate(-173.28 -93.736)"/><path class="d" d="M216.388,119.438a6.29,6.29,0,0,0,2.9,1.185,2.156,2.156,0,0,0,2.369-1.682,2.268,2.268,0,0,1,.19-1.386c.284-.379,1.019-.355,1.587-.332a4.288,4.288,0,0,0,4.229-3.329,1.8,1.8,0,0,0,2.369.071,9.478,9.478,0,0,0,1.682-2.061,2.748,2.748,0,0,1,2.227-1.279,7,7,0,0,0,1.481.225c.841-.13,1.185-1.185,1.315-2.061s.118-1.907.841-2.369a3.4,3.4,0,0,1,2.369-.213c.817.083,1.848-.178,2-.983a1.563,1.563,0,0,0-.367-1.185,4.336,4.336,0,0,0-5.212-1.327,5.923,5.923,0,0,0-10.851-.474,5.923,5.923,0,0,0-8.375.924,6.1,6.1,0,0,0-1.007,1.848,4.324,4.324,0,0,0-4.478,6.574,4.134,4.134,0,0,0-2.061,3.388,2.369,2.369,0,0,0,2.819,2.239,2.394,2.394,0,1,0,4.276,2.156h0" transform="translate(-173.783 -98.914)"/><path class="b" d="M236.919,103.65v.486a4.254,4.254,0,0,1-.415,1.315,4.738,4.738,0,0,1-1.386,1.694,4.454,4.454,0,0,1-2.689.948l.095-.154a2.369,2.369,0,0,1,0,1.848,6.68,6.68,0,0,1-1.031,1.694,4.384,4.384,0,0,1-.711.841,2.2,2.2,0,0,1-1.031.462,2.44,2.44,0,0,1-2.2-.64l.249-.083a5.046,5.046,0,0,1-1.907,3.554,3.625,3.625,0,0,1-2.156.841,6.954,6.954,0,0,1-2.2-.332l.178-.095a5.378,5.378,0,0,1-1.445,2.168,2.89,2.89,0,0,1-2.3.77,3.72,3.72,0,0,1-3.009-2.713l.154.071a3.471,3.471,0,0,1-2.274.474,3.672,3.672,0,0,1-1.694-.616,3.554,3.554,0,0,1-.794-.77c-.13-.213-.19-.332-.19-.332a4.063,4.063,0,0,0,1.054,1.007,3.554,3.554,0,0,0,1.6.545,3.257,3.257,0,0,0,2.144-.486l.13-.083v.154a3.471,3.471,0,0,0,2.843,2.535,2.547,2.547,0,0,0,2.073-.734,4.987,4.987,0,0,0,1.362-2.049v-.13h.13a6.313,6.313,0,0,0,2.1.332,3.4,3.4,0,0,0,1.99-.794,4.738,4.738,0,0,0,1.8-3.376v-.32l.225.237a2.251,2.251,0,0,0,2.867.166,5.745,5.745,0,0,0,.651-.77,6.563,6.563,0,0,0,1.031-1.635,2.215,2.215,0,0,0,0-1.694l-.059-.154h.166a4.395,4.395,0,0,0,2.582-.841,4.9,4.9,0,0,0,1.374-1.587,5.318,5.318,0,0,0,.7-1.753Z" transform="translate(-173.679 -98.04)"/><path class="d" d="M235.66,125.205a11.761,11.761,0,0,1-.438-1.564,6.527,6.527,0,0,1,.7-4.217,6.349,6.349,0,0,1,1.99-2.239A6.456,6.456,0,0,1,241.133,116a6.539,6.539,0,0,1,1.86.118,6.29,6.29,0,0,1,1.824.687,6.5,6.5,0,0,1,3.21,6.965,6.514,6.514,0,0,1-4.774,5.011,6.74,6.74,0,0,1-3,0,6.633,6.633,0,0,1-3.684-2.251,10.373,10.373,0,0,1-.912-1.35,2.851,2.851,0,0,0,.178.391,3.339,3.339,0,0,0,.249.45,4.818,4.818,0,0,0,.391.569,6.645,6.645,0,0,0,6.823,2.369,6.835,6.835,0,0,0,3.1-1.694,6.42,6.42,0,0,0,1.185-1.54,5.816,5.816,0,0,0,.7-1.9,6.74,6.74,0,0,0-3.329-7.25,6.219,6.219,0,0,0-1.883-.7,6.3,6.3,0,0,0-1.943-.118,6.716,6.716,0,0,0-5.354,3.554,6.479,6.479,0,0,0-.628,4.359,3.445,3.445,0,0,0,.178.687,1.849,1.849,0,0,0,.178.486,1.6,1.6,0,0,0,.154.355Z" transform="translate(-169.092 -95.809)"/><path class="d" d="M221.109,126.068c-.178-.509-.32-1.042-.45-1.564a6.645,6.645,0,0,1,.711-4.229,6.421,6.421,0,0,1,1.978-2.239,6.5,6.5,0,0,1,3.234-1.185,5.792,5.792,0,0,1,1.86.118,6.267,6.267,0,0,1,1.824.675,6.509,6.509,0,1,1-8.256,9.784,11.148,11.148,0,0,1-.9-1.35,2.86,2.86,0,0,0,.178.391,2.368,2.368,0,0,0,.237.45,4.907,4.907,0,0,0,.4.569,6.657,6.657,0,0,0,9.915.616,6.172,6.172,0,0,0,1.185-1.54,6.362,6.362,0,0,0,.7-1.907,6.7,6.7,0,0,0-3.376-7.238,6.409,6.409,0,0,0-1.9-.7,5.922,5.922,0,0,0-1.931-.107,6.645,6.645,0,0,0-5.354,3.554,6.575,6.575,0,0,0-.628,4.371,3.555,3.555,0,0,0,.178.675,3.385,3.385,0,0,0,.178.486,3.3,3.3,0,0,0,.213.367Z" transform="translate(-171.788 -95.653)"/><path class="d" d="M231.64,121.194a4.56,4.56,0,0,1,4.087-.2,1.552,1.552,0,0,0-.533-.367,3.352,3.352,0,0,0-3.056.166C231.782,120.957,231.617,121.123,231.64,121.194Z" transform="translate(-169.715 -94.961)"/><path class="d" d="M215.37,126.181a21.323,21.323,0,0,0,3.115-1.469,22.414,22.414,0,0,0,2.985-1.682,21.759,21.759,0,0,0-3.1,1.457,22.627,22.627,0,0,0-3,1.694Z" transform="translate(-172.718 -94.463)"/></g><g transform="translate(100.145 361.739)"><path class="c" d="M142.989,358.7a27.517,27.517,0,1,1-15.079-35.857h0A27.482,27.482,0,0,1,142.989,358.7Z" transform="translate(-86.509 -320.789)"/><path class="c" d="M135.907,355.231a20.979,20.979,0,1,1-11.538-27.34h0a20.943,20.943,0,0,1,11.49,27.3Z" transform="translate(-85.492 -319.764)"/><path class="d" d="M135.93,355.253a2.709,2.709,0,0,1,.095-.332l.308-.948.237-.7c.071-.261.13-.545.2-.841a14.891,14.891,0,0,0,.415-2.168,20.41,20.41,0,0,0-.071-6.006,20.825,20.825,0,0,0-19.77-17.626,20.459,20.459,0,0,0-2.95.071c-.5.059-.983.142-1.481.225a10.448,10.448,0,0,0-1.493.32,28.288,28.288,0,0,0-2.938.948,23.883,23.883,0,0,0-2.784,1.457,20,20,0,0,0-4.928,4.158,20.588,20.588,0,0,0-4.94,12.106,20.138,20.138,0,0,0,.58,6.409,19.427,19.427,0,0,0,2.369,5.745,19.142,19.142,0,0,0,3.8,4.6,20.86,20.86,0,0,0,26.451,1.267,19.557,19.557,0,0,0,4.229-4.217,14.4,14.4,0,0,0,1.185-1.824c.178-.284.332-.521.462-.758s.225-.462.32-.663l.45-.888c0-.107.095-.2.154-.308a1.114,1.114,0,0,1-.118.332l-.4.912-.308.663c-.118.249-.284.5-.438.782a14.572,14.572,0,0,1-1.185,1.848,19.521,19.521,0,0,1-4.217,4.336,20.623,20.623,0,0,1-7.214,3.554,20.932,20.932,0,0,1-9.725.32A21.323,21.323,0,0,1,102.288,363a24.314,24.314,0,0,1-2.109-2.168,19.771,19.771,0,0,1-1.694-2.547,25.125,25.125,0,0,1-1.469-2.8,23,23,0,0,1-1-3.056,20.256,20.256,0,0,1-.6-6.539,20.742,20.742,0,0,1,5.058-12.367A20.5,20.5,0,0,1,105.5,329.3a24.948,24.948,0,0,1,2.855-1.469,23.91,23.91,0,0,1,3-.971,10.791,10.791,0,0,1,1.516-.332c.5-.059,1.007-.166,1.516-.213a21.559,21.559,0,0,1,13.622,3.3,21.144,21.144,0,0,1,9.382,14.617,20.137,20.137,0,0,1,0,6.077,14.985,14.985,0,0,1-.45,2.168c-.083.32-.154.6-.225.853l-.249.687c-.154.391-.272.7-.355.936a1.682,1.682,0,0,1-.178.3Z" transform="translate(-85.515 -319.787)"/><g class="e" transform="translate(11.174 6.593)"><path class="d" d="M135.5,355.335a11.111,11.111,0,0,1,.438-2.535,22.282,22.282,0,0,0,.19-6.87,21.631,21.631,0,0,0-1.125-4.6,20.6,20.6,0,0,0-6.5-9.038,19.713,19.713,0,0,0-2.582-1.741,20.234,20.234,0,0,0-5.994-2.227,19.346,19.346,0,0,0-3.092-.379,19.6,19.6,0,0,0-3.009.095,19.315,19.315,0,0,0-2.843.509,20.375,20.375,0,0,0-4.987,1.978,21.83,21.83,0,0,0-3.826,2.736,22.506,22.506,0,0,0-4.324,5.319,14.593,14.593,0,0,1-1.327,2.215c-.118,0,.083-.948.77-2.535a19.5,19.5,0,0,1,4.11-5.864,21.036,21.036,0,0,1,3.992-3.032,21.323,21.323,0,0,1,5.271-2.251,18.951,18.951,0,0,1,3.044-.6,18.567,18.567,0,0,1,3.246-.142,20.316,20.316,0,0,1,3.376.379,22.093,22.093,0,0,1,3.329.936,23.49,23.49,0,0,1,3.127,1.469,21.2,21.2,0,0,1,2.772,1.9,22.091,22.091,0,0,1,2.369,2.227,21.46,21.46,0,0,1,1.919,2.464,21.145,21.145,0,0,1,3.471,10.033,19.249,19.249,0,0,1-.734,7.107,6.4,6.4,0,0,1-1.078,2.452Z" transform="translate(-96.483 -326.355)"/></g><g class="e" transform="translate(18.835 13.611)"><path class="d" d="M112.58,358.637l-1.279,3.376-3.044-1.185,1.3-3.3a15.4,15.4,0,0,1-6.61-5.4l3.115-3.044a13.362,13.362,0,0,0,5.07,4.466l1.99-5.07c-3.056-2.144-6.373-4.738-4.738-9.086,1.267-3.222,4.738-5.07,9.7-3.731l1.327-3.376,3.032,1.185-1.291,3.317a14.677,14.677,0,0,1,5.425,4.264l-2.973,3.139a13.646,13.646,0,0,0-4.027-3.376l-2.026,5.165c3.056,2.108,6.326,4.738,4.643,8.967C120.955,358.1,117.579,359.928,112.58,358.637Zm2.274-14.617,1.682-4.312c-1.753-.272-2.736.367-3.127,1.362s.261,2,1.445,2.926Zm2.369,9.37c.415-1.066-.237-1.99-1.374-2.961l-1.635,4.229C115.8,354.893,116.786,354.36,117.224,353.389Z" transform="translate(-102.95 -332.28)"/></g><rect class="c" width="52.855" height="9.595" transform="translate(81.533 72.366)"/><path class="d" d="M160.283,391.477a53.3,53.3,0,0,1,0-9.477A51.164,51.164,0,0,1,160.283,391.477Z" transform="translate(-73.573 -309.492)"/><path class="d" d="M157.843,391.477a53.307,53.307,0,0,1,0-9.477A51.16,51.16,0,0,1,157.843,391.477Z" transform="translate(-74.023 -309.492)"/><path class="d" d="M165.644,391.477a51.16,51.16,0,0,1,0-9.477,51.164,51.164,0,0,1,0,9.477Z" transform="translate(-72.585 -309.492)"/><path class="d" d="M163.2,391.477a51.163,51.163,0,0,1,0-9.477A51.16,51.16,0,0,1,163.2,391.477Z" transform="translate(-73.035 -309.492)"/><path class="d" d="M171.033,391.477a53.3,53.3,0,0,1,0-9.477A51.161,51.161,0,0,1,171.033,391.477Z" transform="translate(-71.589 -309.492)"/><path class="d" d="M168.563,391.477a53.305,53.305,0,0,1,0-9.477A51.161,51.161,0,0,1,168.563,391.477Z" transform="translate(-72.045 -309.492)"/><path class="d" d="M176.344,391.477a51.159,51.159,0,0,1,0-9.477A53.3,53.3,0,0,1,176.344,391.477Z" transform="translate(-70.61 -309.492)"/><path class="d" d="M173.924,391.477a51.159,51.159,0,0,1,0-9.477A49.2,49.2,0,0,1,173.924,391.477Z" transform="translate(-71.057 -309.492)"/><path class="d" d="M181.723,391.477a53.3,53.3,0,0,1,0-9.477A51.161,51.161,0,0,1,181.723,391.477Z" transform="translate(-69.616 -309.492)"/><path class="d" d="M179.283,391.477a53.3,53.3,0,0,1,0-9.477A51.161,51.161,0,0,1,179.283,391.477Z" transform="translate(-70.066 -309.492)"/><path class="d" d="M187.094,391.477a51.164,51.164,0,0,1,0-9.477A53.3,53.3,0,0,1,187.094,391.477Z" transform="translate(-68.626 -309.492)"/><path class="d" d="M184.654,391.477a51.164,51.164,0,0,1,0-9.477,53.305,53.305,0,0,1,0,9.477Z" transform="translate(-69.077 -309.492)"/><path class="d" d="M192.454,391.477a51.161,51.161,0,0,1,0-9.477,51.159,51.159,0,0,1,0,9.477Z" transform="translate(-67.637 -309.492)"/><path class="d" d="M190.033,391.477a53.3,53.3,0,0,1,0-9.477A51.161,51.161,0,0,1,190.033,391.477Z" transform="translate(-68.082 -309.492)"/><path class="d" d="M197.814,391.477a51.161,51.161,0,0,1,0-9.477A53.305,53.305,0,0,1,197.814,391.477Z" transform="translate(-66.648 -309.492)"/><path class="d" d="M195.374,391.477a51.164,51.164,0,0,1,0-9.477A53.3,53.3,0,0,1,195.374,391.477Z" transform="translate(-67.098 -309.492)"/><path class="d" d="M208.78,381.915c0,.13-11.9.213-26.605.213s-26.605-.083-26.605-.213,11.9-.225,26.605-.225S208.78,381.8,208.78,381.915Z" transform="translate(-74.404 -309.55)"/><rect class="c" width="52.855" height="9.595" transform="translate(77.387 81.889)"/><path class="d" d="M156.784,399.556a51.159,51.159,0,0,1,0-9.477A51.164,51.164,0,0,1,156.784,399.556Z" transform="translate(-74.22 -308.001)"/><path class="d" d="M154.344,399.556a51.161,51.161,0,0,1,0-9.477A51.167,51.167,0,0,1,154.344,399.556Z" transform="translate(-74.671 -308.001)"/><path class="d" d="M162.143,399.556a53.308,53.308,0,0,1,0-9.476A51.161,51.161,0,0,1,162.143,399.556Z" transform="translate(-73.23 -308.001)"/><path class="d" d="M159.7,399.556a53.3,53.3,0,0,1,0-9.476A51.161,51.161,0,0,1,159.7,399.556Z" transform="translate(-73.68 -308.001)"/><path class="d" d="M167.514,399.556a51.163,51.163,0,0,1,0-9.477A53.305,53.305,0,0,1,167.514,399.556Z" transform="translate(-72.24 -308.001)"/><path class="d" d="M165.034,399.556a51.159,51.159,0,0,1,0-9.477A51.159,51.159,0,0,1,165.034,399.556Z" transform="translate(-72.698 -308.001)"/><path class="d" d="M172.863,399.556a53.3,53.3,0,0,1,0-9.476A51.159,51.159,0,0,1,172.863,399.556Z" transform="translate(-71.251 -308.001)"/><path class="d" d="M170.423,399.556a53.3,53.3,0,0,1,0-9.476A51.158,51.158,0,0,1,170.423,399.556Z" transform="translate(-71.702 -308.001)"/><path class="d" d="M178.234,399.556a51.159,51.159,0,0,1,0-9.477A53.308,53.308,0,0,1,178.234,399.556Z" transform="translate(-70.262 -308.001)"/><path class="d" d="M175.794,399.556a51.163,51.163,0,0,1,0-9.477,51.16,51.16,0,0,1,0,9.477Z" transform="translate(-70.712 -308.001)"/><path class="d" d="M183.594,399.556a51.161,51.161,0,0,1,0-9.477A51.161,51.161,0,0,1,183.594,399.556Z" transform="translate(-69.272 -308.001)"/><path class="d" d="M181.143,399.556a53.3,53.3,0,0,1,0-9.476,51.163,51.163,0,0,1,0,9.476Z" transform="translate(-69.723 -308.001)"/><path class="d" d="M188.954,399.556a51.16,51.16,0,0,1,0-9.477,53.307,53.307,0,0,1,0,9.477Z" transform="translate(-68.283 -308.001)"/><path class="d" d="M186.514,399.556a51.159,51.159,0,0,1,0-9.477A51.167,51.167,0,0,1,186.514,399.556Z" transform="translate(-68.733 -308.001)"/><path class="d" d="M194.314,399.556a51.159,51.159,0,0,1,0-9.477A51.161,51.161,0,0,1,194.314,399.556Z" transform="translate(-67.294 -308.001)"/><path class="d" d="M191.874,399.556a51.164,51.164,0,0,1,0-9.477A51.159,51.159,0,0,1,191.874,399.556Z" transform="translate(-67.744 -308.001)"/><path class="d" d="M205.274,390.033c0,.13-11.846.225-26.546.225s-26.558-.095-26.558-.225,11.846-.213,26.558-.213S205.274,389.82,205.274,390.033Z" transform="translate(-75.031 -308.049)"/><rect class="c" width="52.855" height="9.595" transform="translate(73.988 91.555)"/><path class="d" d="M153.913,407.716a53.306,53.306,0,0,1,0-9.476A51.161,51.161,0,0,1,153.913,407.716Z" transform="translate(-74.749 -306.495)"/><path class="d" d="M151.473,407.716a53.309,53.309,0,0,1,0-9.476A51.161,51.161,0,0,1,151.473,407.716Z" transform="translate(-75.199 -306.495)"/><path class="d" d="M159.284,407.716a51.164,51.164,0,0,1,0-9.477A53.3,53.3,0,0,1,159.284,407.716Z" transform="translate(-73.759 -306.495)"/><path class="d" d="M156.844,407.716a51.164,51.164,0,0,1,0-9.477A51.161,51.161,0,0,1,156.844,407.716Z" transform="translate(-74.209 -306.495)"/><path class="d" d="M164.644,407.716a51.161,51.161,0,0,1,0-9.477A51.163,51.163,0,0,1,164.644,407.716Z" transform="translate(-72.77 -306.495)"/><path class="d" d="M162.2,407.716a51.16,51.16,0,0,1,0-9.477A51.164,51.164,0,0,1,162.2,407.716Z" transform="translate(-73.22 -306.495)"/><path class="d" d="M170.034,407.716a51.159,51.159,0,0,1,0-9.477,53.3,53.3,0,0,1,0,9.477Z" transform="translate(-71.775 -306.495)"/><path class="d" d="M167.564,407.716a51.164,51.164,0,0,1,0-9.477A53.3,53.3,0,0,1,167.564,407.716Z" transform="translate(-72.231 -306.495)"/><path class="d" d="M175.364,407.716a51.163,51.163,0,0,1,0-9.477,51.163,51.163,0,0,1,0,9.477Z" transform="translate(-70.791 -306.495)"/><path class="d" d="M172.924,407.716a51.163,51.163,0,0,1,0-9.477,51.159,51.159,0,0,1,0,9.477Z" transform="translate(-71.242 -306.495)"/><path class="d" d="M180.723,407.716a53.306,53.306,0,0,1,0-9.476,51.159,51.159,0,0,1,0,9.476Z" transform="translate(-69.801 -306.495)"/><path class="d" d="M178.284,407.716a51.161,51.161,0,0,1,0-9.477A51.159,51.159,0,0,1,178.284,407.716Z" transform="translate(-70.252 -306.495)"/><path class="d" d="M186.084,407.716a51.159,51.159,0,0,1,0-9.477,51.161,51.161,0,0,1,0,9.477Z" transform="translate(-68.813 -306.495)"/><path class="d" d="M183.644,407.716a51.161,51.161,0,0,1,0-9.477A51.161,51.161,0,0,1,183.644,407.716Z" transform="translate(-69.263 -306.495)"/><path class="d" d="M191.443,407.716a53.309,53.309,0,0,1,0-9.476A51.162,51.162,0,0,1,191.443,407.716Z" transform="translate(-67.822 -306.495)"/><path class="d" d="M189.033,407.716a53.308,53.308,0,0,1,0-9.476,51.162,51.162,0,0,1,0,9.476Z" transform="translate(-68.267 -306.495)"/><path class="d" d="M202.414,398.115c0,.118-11.846.213-26.546.213s-26.558-.095-26.558-.213,11.846-.225,26.558-.225S202.414,398.02,202.414,398.115Z" transform="translate(-75.559 -306.56)"/><g class="e" transform="translate(84.613 81.984)"><path class="d" d="M158.48,390a80.55,80.55,0,0,0,24.414,1.777c8.114-.545,16.3-1.729,24.426-1.635Z" transform="translate(-158.48 -390)"/></g><g class="e" transform="translate(74.639 91.674)"><path class="d" d="M150.06,398.18a80.55,80.55,0,0,0,24.414,1.777c8.114-.533,16.3-1.729,24.426-1.623Z" transform="translate(-150.06 -398.18)"/></g><ellipse class="i" cx="0.663" cy="0.225" rx="0.663" ry="0.225" transform="translate(82.031 72.709)"/><path class="i" d="M164.565,382.425a21.666,21.666,0,0,1-6.065,0,20.813,20.813,0,0,1,6.065,0Z" transform="translate(-73.863 -309.455)"/><path class="i" d="M171.645,382.425a21.666,21.666,0,0,1-6.065,0A20.813,20.813,0,0,1,171.645,382.425Z" transform="translate(-72.556 -309.455)"/><path class="c" d="M345.3,377.7a27.529,27.529,0,1,1-35.537-16.039h0A27.494,27.494,0,0,1,345.3,377.7Z" transform="translate(-49.224 -313.579)"/><path class="c" d="M338.116,378.984a20.979,20.979,0,1,1-27-12.213h0a20.943,20.943,0,0,1,27,12.2Z" transform="translate(-48.207 -312.553)"/><path class="d" d="M338.153,379.007c-.059-.107-.107-.2-.154-.308l-.415-.9-.308-.675c-.118-.237-.272-.486-.426-.77a18.885,18.885,0,0,0-1.185-1.86,20.138,20.138,0,0,0-4.146-4.359,20.813,20.813,0,0,0-26.475.5,21.767,21.767,0,0,0-2.12,2.061c-.32.379-.616.782-.936,1.185a14.455,14.455,0,0,0-.853,1.244,27.427,27.427,0,0,0-1.5,2.7,23.784,23.784,0,0,0-1.054,2.961,19.757,19.757,0,0,0-.77,6.4,20.434,20.434,0,0,0,4.6,12.248,19.972,19.972,0,0,0,4.738,4.3,25.914,25.914,0,0,0,2.831,1.493,23.755,23.755,0,0,0,2.867,1.078,19.461,19.461,0,0,0,5.923.794A20.86,20.86,0,0,0,339.041,390a20.031,20.031,0,0,0,.237-6.006,14.751,14.751,0,0,0-.344-2.168c-.071-.32-.107-.616-.178-.853s-.154-.486-.213-.7c-.118-.4-.213-.723-.284-.948a1.859,1.859,0,0,1-.071-.332,1.35,1.35,0,0,1,.107.308c.095.237.2.545.332.948l.237.7c.071.261.13.557.2.841a15.4,15.4,0,0,1,.379,2.191,19.653,19.653,0,0,1-.166,6.065,21.121,21.121,0,0,1-9.8,14.369,21.5,21.5,0,0,1-13.717,2.914,21.729,21.729,0,0,1-3.021-.64,23.956,23.956,0,0,1-2.973-1.054,24.95,24.95,0,0,1-2.807-1.564,20.3,20.3,0,0,1-4.892-4.383,20.872,20.872,0,0,1-4.738-12.509,20.267,20.267,0,0,1,.794-6.527,18.859,18.859,0,0,1,2.63-5.769,9.373,9.373,0,0,1,.888-1.268c.32-.4.628-.841.959-1.185a21.133,21.133,0,0,1,29.069-2.488,19.65,19.65,0,0,1,4.122,4.478,13.34,13.34,0,0,1,1.185,1.883c.154.3.308.545.426.794l.272.687.391.912a2.2,2.2,0,0,1,.083.308Z" transform="translate(-48.243 -312.576)"/><g class="e" transform="translate(249.28 52.895)"><path class="d" d="M338.049,379.275a13.336,13.336,0,0,1-1.41-2.18,21.713,21.713,0,0,0-8.41-7.783,20.992,20.992,0,0,0-7.937-2.215,21.259,21.259,0,0,0-3.009,0,22.222,22.222,0,0,0-3.08.474,24.023,24.023,0,0,0-3.044.983,20.947,20.947,0,0,0-2.855,1.469,18.333,18.333,0,0,0-2.535,1.824,18.024,18.024,0,0,0-2.144,2.108,20.776,20.776,0,0,0-1.753,2.31,21.026,21.026,0,0,0-2.3,4.833,21.936,21.936,0,0,0-.96,4.62,22.507,22.507,0,0,0,.45,6.835,12.142,12.142,0,0,1,.533,2.535,6.457,6.457,0,0,1-1.185-2.369,19.628,19.628,0,0,1-.888-7.107,21.05,21.05,0,0,1,.841-4.916,21.322,21.322,0,0,1,2.369-5.248,20.705,20.705,0,0,1,4.1-4.845,22.023,22.023,0,0,1,2.7-1.99A21,21,0,0,1,313.92,366a20.707,20.707,0,0,1,6.563-.474,21.145,21.145,0,0,1,8.446,2.582,21.81,21.81,0,0,1,4.039,2.926,19.391,19.391,0,0,1,4.3,5.721A7.581,7.581,0,0,1,338.049,379.275Z" transform="translate(-297.491 -365.443)"/></g><g class="e" transform="translate(260.27 59.489)"><path class="d" d="M323.39,396.194l1.339,3.376-3.044,1.185-1.327-3.281a15.4,15.4,0,0,1-8.505.521l.213-4.359a13.184,13.184,0,0,0,6.752-.142l-1.99-5.07c-3.7.5-7.9.841-9.595-3.554-1.267-3.222,0-6.894,4.572-9.287l-1.327-3.388,3.044-1.185,1.291,3.3a14.961,14.961,0,0,1,6.894-.569v4.336a13.622,13.622,0,0,0-5.271.249l2.026,5.165c3.684-.533,7.818-.841,9.477,3.423C329.17,390.117,327.962,393.754,323.39,396.194ZM315.1,383.957l-1.694-4.3c-1.457.983-1.753,2.12-1.362,3.127s1.552,1.244,3.044,1.173Zm8.091,5.271c-.415-1.054-1.516-1.291-3.009-1.185l1.694,4.217c1.339-.948,1.694-2.014,1.315-2.985Z" transform="translate(-306.768 -371.01)"/></g><rect class="c" width="52.855" height="9.595" transform="translate(323.018 72.318)"/><path class="d" d="M364.154,391.477a51.167,51.167,0,0,1,0-9.477,53.294,53.294,0,0,1,0,9.477Z" transform="translate(-35.948 -309.492)"/><path class="d" d="M361.714,391.477a51.161,51.161,0,0,1,0-9.477,53.3,53.3,0,0,1,0,9.477Z" transform="translate(-36.398 -309.492)"/><path class="d" d="M369.514,391.477a51.159,51.159,0,0,1,0-9.477,51.161,51.161,0,0,1,0,9.477Z" transform="translate(-34.959 -309.492)"/><path class="d" d="M367.034,391.477a51.151,51.151,0,0,1,0-9.477,51.166,51.166,0,0,1,0,9.476Z" transform="translate(-35.416 -309.492)"/><path class="d" d="M374.873,391.477a53.3,53.3,0,0,1,0-9.477,51.167,51.167,0,0,1,0,9.477Z" transform="translate(-33.968 -309.492)"/><path class="d" d="M372.434,391.477a51.159,51.159,0,0,1,0-9.477,53.312,53.312,0,0,1,0,9.477Z" transform="translate(-34.42 -309.492)"/><path class="d" d="M380.234,391.477a51.167,51.167,0,0,1,0-9.477A51.156,51.156,0,0,1,380.234,391.477Z" transform="translate(-32.98 -309.492)"/><path class="d" d="M377.794,391.477a51.161,51.161,0,0,1,0-9.477,51.159,51.159,0,0,1,0,9.477Z" transform="translate(-33.43 -309.492)"/><path class="d" d="M385.593,391.477a53.3,53.3,0,0,1,0-9.477,51.158,51.158,0,0,1,0,9.476Z" transform="translate(-31.99 -309.492)"/><path class="d" d="M383.173,391.477a53.3,53.3,0,0,1,0-9.477,51.161,51.161,0,0,1,0,9.477Z" transform="translate(-32.436 -309.492)"/><path class="d" d="M390.966,391.477a49.194,49.194,0,0,1,0-9.477A53.305,53.305,0,0,1,390.966,391.477Z" transform="translate(-31.001 -309.492)"/><path class="d" d="M388.514,391.477a51.159,51.159,0,0,1,0-9.477,51.161,51.161,0,0,1,0,9.477Z" transform="translate(-31.452 -309.492)"/><path class="d" d="M396.313,391.477a53.3,53.3,0,0,1,0-9.477,51.161,51.161,0,0,1,0,9.477Z" transform="translate(-30.011 -309.492)"/><path class="d" d="M393.873,391.477a53.3,53.3,0,0,1,0-9.477A51.156,51.156,0,0,1,393.873,391.477Z" transform="translate(-30.461 -309.492)"/><path class="d" d="M401.684,391.477a51.156,51.156,0,0,1,0-9.477A53.3,53.3,0,0,1,401.684,391.477Z" transform="translate(-29.021 -309.492)"/><path class="d" d="M399.244,391.477a51.159,51.159,0,0,1,0-9.477A53.3,53.3,0,0,1,399.244,391.477Z" transform="translate(-29.472 -309.492)"/><path class="d" d="M412.652,381.875c0,.118-11.9.213-26.605.213s-26.617-.095-26.617-.213,11.917-.225,26.617-.225S412.652,381.757,412.652,381.875Z" transform="translate(-36.779 -309.557)"/><rect class="c" width="52.855" height="9.595" transform="translate(318.884 81.83)"/><path class="d" d="M360.654,399.477a51.029,51.029,0,0,1,0-9.477A51.029,51.029,0,0,1,360.654,399.477Z" transform="translate(-36.594 -308.016)"/><path class="d" d="M358.214,399.477a51.029,51.029,0,0,1,0-9.477A51.029,51.029,0,0,1,358.214,399.477Z" transform="translate(-37.044 -308.016)"/><path class="d" d="M366.033,399.477a53.156,53.156,0,0,1,0-9.477A51.045,51.045,0,0,1,366.033,399.477Z" transform="translate(-35.6 -308.016)"/><path class="d" d="M363.574,399.477a51.029,51.029,0,0,1,0-9.477A51.034,51.034,0,0,1,363.574,399.477Z" transform="translate(-36.055 -308.016)"/><path class="d" d="M371.374,399.477a51.029,51.029,0,0,1,0-9.477A51.034,51.034,0,0,1,371.374,399.477Z" transform="translate(-34.615 -308.016)"/><path class="d" d="M368.914,399.477a51.034,51.034,0,0,1,0-9.477A51.029,51.029,0,0,1,368.914,399.477Z" transform="translate(-35.069 -308.016)"/><path class="d" d="M376.764,399.477a51.029,51.029,0,0,1,0-9.477A53.156,53.156,0,0,1,376.764,399.477Z" transform="translate(-33.621 -308.016)"/><path class="d" d="M374.3,399.477a51.034,51.034,0,0,1,0-9.477,53.15,53.15,0,0,1,0,9.477Z" transform="translate(-34.075 -308.016)"/><path class="d" d="M382.094,399.477a51.029,51.029,0,0,1,0-9.477,49.074,49.074,0,0,1,0,9.477Z" transform="translate(-32.637 -308.016)"/><path class="d" d="M379.654,399.477a51.029,51.029,0,0,1,0-9.477A51.034,51.034,0,0,1,379.654,399.477Z" transform="translate(-33.087 -308.016)"/><path class="d" d="M387.453,399.477a53.15,53.15,0,0,1,0-9.477A51.034,51.034,0,0,1,387.453,399.477Z" transform="translate(-31.646 -308.016)"/><path class="d" d="M385.034,399.477a51.029,51.029,0,0,1,0-9.477A53.15,53.15,0,0,1,385.034,399.477Z" transform="translate(-32.094 -308.016)"/><path class="d" d="M392.824,399.477a51.029,51.029,0,0,1,0-9.477,51.026,51.026,0,0,1,0,9.477Z" transform="translate(-30.657 -308.016)"/><path class="d" d="M390.384,399.477a51.029,51.029,0,0,1,0-9.477A51.029,51.029,0,0,1,390.384,399.477Z" transform="translate(-31.107 -308.016)"/><path class="d" d="M398.153,399.477a53.145,53.145,0,0,1,0-9.477,51.026,51.026,0,0,1,0,9.477Z" transform="translate(-29.672 -308.016)"/><path class="d" d="M395.733,399.477a53.145,53.145,0,0,1,0-9.477A51.034,51.034,0,0,1,395.733,399.477Z" transform="translate(-30.118 -308.016)"/><path class="d" d="M409.139,389.9c0,.13-11.846.225-26.546.225S356,390.057,356,389.9s11.846-.213,26.546-.213S409.139,389.8,409.139,389.9Z" transform="translate(-37.412 -308.073)"/><rect class="c" width="52.855" height="9.595" transform="translate(315.484 91.496)"/><path class="d" d="M357.783,407.667a53.156,53.156,0,0,1,0-9.477,51.034,51.034,0,0,1,0,9.476Z" transform="translate(-37.122 -306.504)"/><path class="d" d="M355.364,407.667a51.029,51.029,0,0,1,0-9.477,51.029,51.029,0,0,1,0,9.476Z" transform="translate(-37.57 -306.504)"/><path class="d" d="M363.154,407.667a51.029,51.029,0,0,1,0-9.477A53.145,53.145,0,0,1,363.154,407.667Z" transform="translate(-36.133 -306.504)"/><path class="d" d="M360.716,407.667a49.081,49.081,0,0,1,0-9.476,51.028,51.028,0,0,1,0,9.476Z" transform="translate(-36.584 -306.504)"/><path class="d" d="M368.5,407.667a53.148,53.148,0,0,1,0-9.477,51.037,51.037,0,0,1,0,9.476Z" transform="translate(-35.144 -306.504)"/><path class="d" d="M366.034,407.667a51.026,51.026,0,0,1,0-9.477,53.145,53.145,0,0,1,0,9.477Z" transform="translate(-35.601 -306.504)"/><path class="d" d="M373.9,407.667a53.15,53.15,0,0,1,0-9.477,51.029,51.029,0,0,1,0,9.476Z" transform="translate(-34.147 -306.504)"/><path class="d" d="M371.434,407.667a51.034,51.034,0,0,1,0-9.477,51.029,51.029,0,0,1,0,9.476Z" transform="translate(-34.604 -306.504)"/><path class="d" d="M379.234,407.667a51.029,51.029,0,0,1,0-9.477,51.029,51.029,0,0,1,0,9.476Z" transform="translate(-33.165 -306.504)"/><path class="d" d="M376.764,407.667a51.029,51.029,0,0,1,0-9.477A53.156,53.156,0,0,1,376.764,407.667Z" transform="translate(-33.621 -306.504)"/><path class="d" d="M384.6,407.667a51.029,51.029,0,0,1,0-9.477,51.034,51.034,0,0,1,0,9.476Z" transform="translate(-32.174 -306.504)"/><path class="d" d="M382.154,407.667a51.029,51.029,0,0,1,0-9.477,51.034,51.034,0,0,1,0,9.476Z" transform="translate(-32.626 -306.504)"/><path class="d" d="M389.954,407.667a51.026,51.026,0,0,1,0-9.477,51.026,51.026,0,0,1,0,9.476Z" transform="translate(-31.186 -306.504)"/><path class="d" d="M387.514,407.667a51.029,51.029,0,0,1,0-9.477,51.034,51.034,0,0,1,0,9.476Z" transform="translate(-31.637 -306.504)"/><path class="d" d="M395.306,407.667a49.073,49.073,0,0,1,0-9.476,51.028,51.028,0,0,1,0,9.476Z" transform="translate(-30.2 -306.504)"/><path class="d" d="M392.874,407.667a51.029,51.029,0,0,1,0-9.477,53.145,53.145,0,0,1,0,9.477Z" transform="translate(-30.647 -306.504)"/><path class="d" d="M406.274,398.033c0,.13-11.846.225-26.558.225s-26.546-.095-26.546-.225,11.846-.213,26.546-.213S406.274,397.95,406.274,398.033Z" transform="translate(-37.935 -306.573)"/><g class="e" transform="translate(326.062 81.984)"><path class="d" d="M362.31,390a80.55,80.55,0,0,0,24.414,1.777c8.1-.545,16.3-1.729,24.426-1.635Z" transform="translate(-362.31 -390)"/></g><g class="e" transform="translate(316.1 91.627)"><path class="d" d="M353.9,398.14a80.906,80.906,0,0,0,24.414,1.777c8.1-.545,16.3-1.729,24.426-1.635Z" transform="translate(-353.9 -398.14)"/></g><ellipse class="i" cx="0.663" cy="0.225" rx="0.663" ry="0.225" transform="translate(323.539 72.662)"/><path class="i" d="M368.435,382.373a20.813,20.813,0,0,1-6.065,0,21.668,21.668,0,0,1,6.065,0Z" transform="translate(-36.237 -309.463)"/><path class="i" d="M375.535,382.373a20.813,20.813,0,0,1-6.065,0A21.668,21.668,0,0,1,375.535,382.373Z" transform="translate(-34.926 -309.463)"/><rect class="c" width="52.855" height="9.595" transform="translate(3.708 53.105)"/><path class="d" d="M94.584,375.257a51.162,51.162,0,0,1,0-9.477,51.162,51.162,0,0,1,0,9.476Z" transform="translate(-85.7 -312.486)"/><path class="d" d="M92.184,375.257a51.159,51.159,0,0,1,0-9.477,53.307,53.307,0,0,1,0,9.477Z" transform="translate(-86.143 -312.486)"/><path class="d" d="M99.943,375.257a53.3,53.3,0,0,1,0-9.477,51.164,51.164,0,0,1,0,9.476Z" transform="translate(-84.709 -312.486)"/><path class="d" d="M97.5,375.257a53.3,53.3,0,0,1,0-9.477,51.164,51.164,0,0,1,0,9.476Z" transform="translate(-85.16 -312.486)"/><path class="d" d="M105.314,375.257a51.161,51.161,0,0,1,0-9.477,53.3,53.3,0,0,1,0,9.476Z" transform="translate(-83.72 -312.486)"/><path class="d" d="M102.873,375.257a53.305,53.305,0,0,1,0-9.477,51.161,51.161,0,0,1,0,9.476Z" transform="translate(-84.169 -312.486)"/><path class="d" d="M110.663,375.257a53.305,53.305,0,0,1,0-9.477,51.162,51.162,0,0,1,0,9.476Z" transform="translate(-82.731 -312.486)"/><path class="d" d="M108.223,375.257a53.305,53.305,0,0,1,0-9.477,51.161,51.161,0,0,1,0,9.476Z" transform="translate(-83.181 -312.486)"/><path class="d" d="M116.034,375.257a51.159,51.159,0,0,1,0-9.477A53.3,53.3,0,0,1,116.034,375.257Z" transform="translate(-81.741 -312.486)"/><path class="d" d="M113.573,375.257a53.3,53.3,0,0,1,0-9.477,51.158,51.158,0,0,1,0,9.476Z" transform="translate(-82.194 -312.486)"/><path class="d" d="M121.424,375.257a51.161,51.161,0,0,1,0-9.477,51.164,51.164,0,0,1,0,9.476Z" transform="translate(-80.746 -312.486)"/><path class="d" d="M118.943,375.257a53.305,53.305,0,0,1,0-9.477,49.194,49.194,0,0,1,0,9.477Z" transform="translate(-81.203 -312.486)"/><path class="d" d="M126.754,375.257a51.16,51.16,0,0,1,0-9.477,53.3,53.3,0,0,1,0,9.476Z" transform="translate(-79.763 -312.486)"/><path class="d" d="M124.314,375.257a51.159,51.159,0,0,1,0-9.477,53.3,53.3,0,0,1,0,9.477Z" transform="translate(-80.213 -312.486)"/><path class="d" d="M132.124,375.257a51.164,51.164,0,0,1,0-9.477,53.3,53.3,0,0,1,0,9.476Z" transform="translate(-78.772 -312.486)"/><path class="d" d="M129.674,375.257a51.161,51.161,0,0,1,0-9.477,51.162,51.162,0,0,1,0,9.476Z" transform="translate(-79.224 -312.486)"/><path class="d" d="M143.068,365.655c0,.118-11.846.213-26.546.213S90,365.75,90,365.655s11.846-.225,26.546-.225S143.068,365.537,143.068,365.655Z" transform="translate(-86.506 -312.55)"/><rect class="c" width="52.855" height="9.595" transform="translate(0.249 62.854)"/><path class="d" d="M91.663,383.477a53.3,53.3,0,0,1,0-9.476,51.161,51.161,0,0,1,0,9.476Z" transform="translate(-86.238 -310.969)"/><path class="d" d="M89.223,383.477a53.305,53.305,0,0,1,0-9.476,51.161,51.161,0,0,1,0,9.476Z" transform="translate(-86.688 -310.969)"/><path class="d" d="M97.034,383.477a51.162,51.162,0,0,1,0-9.476,53.307,53.307,0,0,1,0,9.476Z" transform="translate(-85.248 -310.969)"/><path class="d" d="M94.584,383.477a51.163,51.163,0,0,1,0-9.476,51.161,51.161,0,0,1,0,9.476Z" transform="translate(-85.7 -310.969)"/><path class="d" d="M102.383,383.477a53.306,53.306,0,0,1,0-9.476,51.162,51.162,0,0,1,0,9.476Z" transform="translate(-84.259 -310.969)"/><path class="d" d="M99.943,383.477a53.3,53.3,0,0,1,0-9.476,51.162,51.162,0,0,1,0,9.476Z" transform="translate(-84.709 -310.969)"/><path class="d" d="M107.754,383.477a51.163,51.163,0,0,1,0-9.476,53.305,53.305,0,0,1,0,9.476Z" transform="translate(-83.269 -310.969)"/><path class="d" d="M105.314,383.477a51.162,51.162,0,0,1,0-9.476,53.3,53.3,0,0,1,0,9.476Z" transform="translate(-83.72 -310.969)"/><path class="d" d="M113.116,383.477a49.193,49.193,0,0,1,0-9.476,51.161,51.161,0,0,1,0,9.476Z" transform="translate(-82.282 -310.969)"/><path class="d" d="M110.663,383.477a53.305,53.305,0,0,1,0-9.476,51.161,51.161,0,0,1,0,9.476Z" transform="translate(-82.731 -310.969)"/><path class="d" d="M118.474,383.477a51.162,51.162,0,0,1,0-9.476,53.3,53.3,0,0,1,0,9.476Z" transform="translate(-81.291 -310.969)"/><path class="d" d="M116.034,383.477a51.161,51.161,0,0,1,0-9.476,53.307,53.307,0,0,1,0,9.476Z" transform="translate(-81.741 -310.969)"/><path class="d" d="M123.834,383.477a51.162,51.162,0,0,1,0-9.476,51.161,51.161,0,0,1,0,9.476Z" transform="translate(-80.302 -310.969)"/><path class="d" d="M121.424,383.477a51.162,51.162,0,0,1,0-9.476,51.161,51.161,0,0,1,0,9.476Z" transform="translate(-80.746 -310.969)"/><path class="d" d="M129.194,383.477a51.161,51.161,0,0,1,0-9.476,53.3,53.3,0,0,1,0,9.476Z" transform="translate(-79.312 -310.969)"/><path class="d" d="M126.754,383.477a51.161,51.161,0,0,1,0-9.476A53.3,53.3,0,0,1,126.754,383.477Z" transform="translate(-79.763 -310.969)"/><path class="d" d="M140.154,373.885c0,.13-11.846.213-26.558.213s-26.546-.083-26.546-.213,11.846-.225,26.546-.225S140.154,373.767,140.154,373.885Z" transform="translate(-87.05 -311.032)"/><rect class="c" width="52.855" height="9.595" transform="translate(4.572 72.52)"/><path class="d" d="M95.314,391.647a51.161,51.161,0,0,1,0-9.477,53.3,53.3,0,0,1,0,9.477Z" transform="translate(-85.565 -309.461)"/><path class="d" d="M92.895,391.658a51.409,51.409,0,0,1,0-9.548,51.16,51.16,0,0,1,0,9.477Z" transform="translate(-86.012 -309.472)"/><path class="d" d="M100.674,391.647a51.159,51.159,0,0,1,0-9.477A51.162,51.162,0,0,1,100.674,391.647Z" transform="translate(-84.576 -309.461)"/><path class="d" d="M98.234,391.647a51.161,51.161,0,0,1,0-9.477,51.159,51.159,0,0,1,0,9.477Z" transform="translate(-85.026 -309.461)"/><path class="d" d="M106.034,391.647a51.161,51.161,0,0,1,0-9.477A53.3,53.3,0,0,1,106.034,391.647Z" transform="translate(-83.587 -309.461)"/><path class="d" d="M103.595,391.658a51.407,51.407,0,0,1,0-9.548,51.162,51.162,0,0,1,0,9.477Z" transform="translate(-84.038 -309.472)"/><path class="d" d="M111.394,391.647a51.16,51.16,0,0,1,0-9.477,51.16,51.16,0,0,1,0,9.477Z" transform="translate(-82.598 -309.461)"/><path class="d" d="M108.954,391.647a51.16,51.16,0,0,1,0-9.477,51.159,51.159,0,0,1,0,9.477Z" transform="translate(-83.048 -309.461)"/><path class="d" d="M116.753,391.647a53.305,53.305,0,0,1,0-9.476,51.16,51.16,0,0,1,0,9.476Z" transform="translate(-81.607 -309.461)"/><path class="d" d="M114.295,391.658a51.408,51.408,0,0,1,0-9.548,53.305,53.305,0,0,1,0,9.477Z" transform="translate(-82.063 -309.472)"/><path class="d" d="M122.135,391.658a51.408,51.408,0,0,1,0-9.548,51.161,51.161,0,0,1,0,9.477Z" transform="translate(-80.616 -309.472)"/><path class="d" d="M119.674,391.647a51.163,51.163,0,0,1,0-9.477,51.161,51.161,0,0,1,0,9.477Z" transform="translate(-81.069 -309.461)"/><path class="d" d="M127.473,391.647a53.3,53.3,0,0,1,0-9.476,51.162,51.162,0,0,1,0,9.476Z" transform="translate(-79.628 -309.461)"/><path class="d" d="M125.033,391.647a53.305,53.305,0,0,1,0-9.476,51.162,51.162,0,0,1,0,9.476Z" transform="translate(-80.079 -309.461)"/><path class="d" d="M132.835,391.658a51.409,51.409,0,0,1,0-9.548,51.16,51.16,0,0,1,0,9.477Z" transform="translate(-78.641 -309.472)"/><path class="d" d="M130.394,391.647a51.16,51.16,0,0,1,0-9.477,49.194,49.194,0,0,1,0,9.477Z" transform="translate(-79.091 -309.461)"/><path class="d" d="M143.812,382.035c0,.118-11.917.213-26.605.213s-26.617-.095-26.617-.213,11.917-.225,26.617-.225S143.812,381.928,143.812,382.035Z" transform="translate(-86.397 -309.527)"/><rect class="c" width="52.855" height="9.595" transform="translate(0.426 82.043)"/><path class="d" d="M91.813,399.686a53.3,53.3,0,0,1,0-9.476,51.161,51.161,0,0,1,0,9.476Z" transform="translate(-86.21 -307.977)"/><path class="d" d="M89.373,399.686a53.3,53.3,0,0,1,0-9.476A51.162,51.162,0,0,1,89.373,399.686Z" transform="translate(-86.66 -307.977)"/><path class="d" d="M97.174,399.686a51.159,51.159,0,0,1,0-9.476A51.161,51.161,0,0,1,97.174,399.686Z" transform="translate(-85.222 -307.977)"/><path class="d" d="M94.734,399.686a51.161,51.161,0,0,1,0-9.476A51.161,51.161,0,0,1,94.734,399.686Z" transform="translate(-85.672 -307.977)"/><path class="d" d="M102.534,399.686a51.159,51.159,0,0,1,0-9.476A51.161,51.161,0,0,1,102.534,399.686Z" transform="translate(-84.233 -307.977)"/><path class="d" d="M100.093,399.686a53.3,53.3,0,0,1,0-9.476A51.161,51.161,0,0,1,100.093,399.686Z" transform="translate(-84.682 -307.977)"/><path class="d" d="M107.874,399.686a51.161,51.161,0,0,1,0-9.476,53.307,53.307,0,0,1,0,9.477Z" transform="translate(-83.247 -307.977)"/><path class="d" d="M105.464,399.686a51.159,51.159,0,0,1,0-9.476,53.3,53.3,0,0,1,0,9.477Z" transform="translate(-83.692 -307.977)"/><path class="d" d="M113.254,399.686a51.159,51.159,0,0,1,0-9.476,51.161,51.161,0,0,1,0,9.476Z" transform="translate(-82.254 -307.977)"/><path class="d" d="M110.813,399.686a53.306,53.306,0,0,1,0-9.476A51.162,51.162,0,0,1,110.813,399.686Z" transform="translate(-82.703 -307.977)"/><path class="d" d="M118.624,399.686a51.158,51.158,0,0,1,0-9.476,53.308,53.308,0,0,1,0,9.477Z" transform="translate(-81.263 -307.977)"/><path class="d" d="M116.184,399.686a51.161,51.161,0,0,1,0-9.476,53.3,53.3,0,0,1,0,9.477Z" transform="translate(-81.714 -307.977)"/><path class="d" d="M124.034,399.686a51.161,51.161,0,0,1,0-9.476,51.161,51.161,0,0,1,0,9.476Z" transform="translate(-80.265 -307.977)"/><path class="d" d="M121.533,399.686a53.3,53.3,0,0,1,0-9.476A49.2,49.2,0,0,1,121.533,399.686Z" transform="translate(-80.725 -307.977)"/><path class="d" d="M129.344,399.686a51.158,51.158,0,0,1,0-9.476,53.3,53.3,0,0,1,0,9.477Z" transform="translate(-79.285 -307.977)"/><path class="d" d="M126.9,399.686a51.161,51.161,0,0,1,0-9.476,53.3,53.3,0,0,1,0,9.477Z" transform="translate(-79.735 -307.977)"/><path class="d" d="M140.272,390.085c0,.118-11.846.213-26.546.213s-26.546-.095-26.546-.213,11.846-.225,26.546-.225S140.272,390.026,140.272,390.085Z" transform="translate(-87.026 -308.042)"/><rect class="c" width="52.855" height="9.595" transform="translate(5.721 91.769)"/><path class="d" d="M96.283,407.9a53.305,53.305,0,0,1,0-9.477A51.16,51.16,0,0,1,96.283,407.9Z" transform="translate(-85.385 -306.462)"/><path class="d" d="M93.854,407.9a51.16,51.16,0,0,1,0-9.477A53.305,53.305,0,0,1,93.854,407.9Z" transform="translate(-85.835 -306.462)"/><path class="d" d="M101.644,407.9a51.159,51.159,0,0,1,0-9.477A51.162,51.162,0,0,1,101.644,407.9Z" transform="translate(-84.397 -306.462)"/><path class="d" d="M99.2,407.9a51.161,51.161,0,0,1,0-9.477A51.162,51.162,0,0,1,99.2,407.9Z" transform="translate(-84.847 -306.462)"/><path class="d" d="M107.033,407.9a53.305,53.305,0,0,1,0-9.477A51.16,51.16,0,0,1,107.033,407.9Z" transform="translate(-83.401 -306.462)"/><path class="d" d="M104.563,407.9a53.3,53.3,0,0,1,0-9.477A51.164,51.164,0,0,1,104.563,407.9Z" transform="translate(-83.857 -306.462)"/><path class="d" d="M112.374,407.9a51.16,51.16,0,0,1,0-9.477A53.307,53.307,0,0,1,112.374,407.9Z" transform="translate(-82.417 -306.462)"/><path class="d" d="M109.924,407.9a51.161,51.161,0,0,1,0-9.477,49.194,49.194,0,0,1,0,9.477Z" transform="translate(-82.869 -306.462)"/><path class="d" d="M117.723,407.9a53.305,53.305,0,0,1,0-9.477,51.162,51.162,0,0,1,0,9.477Z" transform="translate(-81.428 -306.462)"/><path class="d" d="M115.283,407.9a53.3,53.3,0,0,1,0-9.477A51.161,51.161,0,0,1,115.283,407.9Z" transform="translate(-81.878 -306.462)"/><path class="d" d="M123.094,407.9a51.16,51.16,0,0,1,0-9.477A53.3,53.3,0,0,1,123.094,407.9Z" transform="translate(-80.438 -306.462)"/><path class="d" d="M120.654,407.9a51.16,51.16,0,0,1,0-9.477A51.16,51.16,0,0,1,120.654,407.9Z" transform="translate(-80.889 -306.462)"/><path class="d" d="M128.454,407.9a51.161,51.161,0,0,1,0-9.477A51.156,51.156,0,0,1,128.454,407.9Z" transform="translate(-79.449 -306.462)"/><path class="d" d="M126.033,407.9a53.305,53.305,0,0,1,0-9.477A51.161,51.161,0,0,1,126.033,407.9Z" transform="translate(-79.894 -306.462)"/><path class="d" d="M133.814,407.9a51.161,51.161,0,0,1,0-9.477A53.3,53.3,0,0,1,133.814,407.9Z" transform="translate(-78.46 -306.462)"/><path class="d" d="M131.4,407.9a53.305,53.305,0,0,1,0-9.477A51.161,51.161,0,0,1,131.4,407.9Z" transform="translate(-78.903 -306.462)"/><path class="d" d="M144.76,398.293c0,.13-11.846.225-26.534.225s-26.546-.095-26.546-.225,11.846-.213,26.546-.213S144.76,398.175,144.76,398.293Z" transform="translate(-86.195 -306.525)"/><g class="e" transform="translate(4.572 72.508)"><path class="d" d="M90.91,382a80.908,80.908,0,0,0,24.414,1.777c8.1-.533,16.3-1.694,24.426-1.635Z" transform="translate(-90.91 -382)"/></g><g class="e" transform="translate(5.046 62.96)"><path class="d" d="M91.31,373.94a80.918,80.918,0,0,0,24.414,1.789c8.1-.545,16.3-1.741,24.426-1.647Z" transform="translate(-91.31 -373.94)"/></g><g class="e" transform="translate(7.605 82.126)"><path class="d" d="M93.47,390.12a80.55,80.55,0,0,0,24.414,1.789c8.114-.545,16.3-1.729,24.426-1.635Z" transform="translate(-93.47 -390.12)"/></g><g class="e" transform="translate(5.532 91.721)"><path class="d" d="M91.72,398.22A81.285,81.285,0,0,0,116.134,400c8.114-.545,16.3-1.729,24.426-1.647Z" transform="translate(-91.72 -398.22)"/></g><path class="i" d="M91.035,371.979a15.683,15.683,0,0,1,0-5.259A15.684,15.684,0,0,1,91.035,371.979Z" transform="translate(-86.356 -312.312)"/><path class="i" d="M88.225,380.7a18.005,18.005,0,0,1,0-5.638,18.74,18.74,0,0,1,0,5.639Z" transform="translate(-86.874 -310.773)"/><path class="i" d="M92.225,388.929a14.215,14.215,0,0,1,0-5,14.215,14.215,0,0,1,0,5Z" transform="translate(-86.136 -309.136)"/><path class="i" d="M88.116,396.539a11.029,11.029,0,0,1,0-4.49A11.454,11.454,0,0,1,88.116,396.539Z" transform="translate(-86.896 -307.637)"/><path class="i" d="M107.137,374.559c0,.118-3.9.213-8.718.213s-8.718-.095-8.718-.213a85.711,85.711,0,0,1,8.718-.225,85.6,85.6,0,0,1,8.718.225Z" transform="translate(-86.561 -310.912)"/><path class="i" d="M111.915,366.753a86.877,86.877,0,0,1-8.778.225,86.77,86.77,0,0,1-8.778-.225c0-.118,3.921-.213,8.778-.213S111.915,366.635,111.915,366.753Z" transform="translate(-85.701 -312.346)"/><path class="i" d="M117.219,366.875a19.62,19.62,0,0,1-5.769,0A18.833,18.833,0,0,1,117.219,366.875Z" transform="translate(-82.547 -312.325)"/></g></g></svg>