<svg xmlns="http://www.w3.org/2000/svg" width="310.364" height="309.47" viewBox="0 0 310.364 309.47"><defs><style>.a{fill:#f2e9e4;stroke:#aed3f2;stroke-miterlimit:10;stroke-width:5px;}.b{fill:#aed3f2;}.c{fill:#839eb6;}.d{fill:#fafafa;}.e{fill:#5e6178;}.f{opacity:0.3;}.g{fill:#d9a171;}.h{fill:#344154;}.i{fill:#fff;}.j,.o{fill:none;opacity:0;}.k{fill:#ffbf9d;}.l{fill:#dbdbdb;}.m{fill:#c7c7c7;}.n{fill:#ff9a6c;}.o{stroke:#1a2e35;stroke-linecap:round;stroke-linejoin:round;stroke-width:0.75px;}.p{opacity:0.6;}</style></defs><g transform="translate(-19.119 -41.76)"><circle class="a" cx="152.235" cy="152.235" r="152.235" transform="translate(22.513 44.26)"/><g transform="translate(19.119 47.62)"><g transform="translate(118.615 244.851)"><path class="b" d="M218.836,488.089c-1.037-.893-3.354-3.709-1.569-6.984a6.226,6.226,0,0,1,3.282-2.324,13.435,13.435,0,0,0,3.617-1.877c1.969-1.667,2.507-4.444,3.807-6.669a8.332,8.332,0,0,1,7.22-4.339c3.38.151,6.2,2.914,7.47,6.058s1.313,6.636,1.346,10.03c0,1.877-.066,3.991-1.444,5.251-1.273,1.168-3.183,1.181-4.91,1.129l-18.451-.571" transform="translate(-205.596 -437.351)"/><path class="c" d="M248.35,422.41H199.83l8.736,52.117a5.809,5.809,0,0,0,4.142,4.641l.171.046c.144.039.282.085.433.112a6.111,6.111,0,0,0,.985.118v.046l.236-.033h21.641a6.453,6.453,0,0,0,1.188-.118,5.862,5.862,0,0,0,4.91-5.1l4.214-35.911.19-1.424h0l1.667-14.224Zm-9.15,33.246h-4.982l.512-15.136h5.77Zm1.772-15.13h4.765l-1.772,15.13h-4.286Zm-14.224,31.9-.3-13.128h7.168l-.433,13.128ZM219,459.3h6.964l.3,13.128h-6.249Zm.538,13.128h-5.809L211.665,459.3h6.879Zm-.82-16.771-1.175-15.136h8l.348,15.13Zm7.647,0-.348-15.136h8.224l-.505,15.13Zm-.433-18.753-.322-14.007H234.8l-.466,14.007Zm-.479,0h-8.192l-1.09-14.007h8.953Zm-8.677,0h-8.664c-.308-1.936-.6-3.768-.866-5.415-.9-5.665-1.241-7.791-1.431-8.592h9.846Zm.282,3.623,1.175,15.13h-7.168q-.368-2.3-.729-4.641c-.564-3.571-1.122-7.141-1.654-10.5Zm-6.478,15.13h-4.687l-2.534-15.136h4.838C208.927,445.206,209.748,450.4,210.575,455.656Zm.571,3.63c.709,4.542,1.411,9.025,2.054,13.128h-4.5L206.5,459.286Zm22.514,13.128.44-13.128h4.785l-1.122,13.128Zm1.181-35.523.466-14.007H242L240.8,436.89ZM205.35,422.883c.2,1.011,1.076,6.525,2.265,14.007h-4.87l-2.35-14.007ZM242,472.413h-3.748l1.122-13.128h4.168Zm4.168-35.523h-4.87l1.2-14.007h5.33Z" transform="translate(-199.83 -422.41)"/></g><g transform="translate(127.576 153.535)"><path class="b" d="M255.4,323.086l-26.177,8.159a3.433,3.433,0,0,1-4.3-2.251l-11.29-36.232a3.433,3.433,0,0,1,2.251-4.3l16.6-5.172,16.981,9.242,8.185,26.255a3.433,3.433,0,0,1-2.251,4.3Z" transform="translate(-213.481 -283.29)"/><path class="c" d="M242.44,283.29l3.183,10.2a3.183,3.183,0,0,0,3.991,2.094l9.806-3.052Z" transform="translate(-223.432 -283.29)"/><path class="d" d="M237.41,299.229a41.46,41.46,0,0,1-5.986,2.12A41.45,41.45,0,0,1,225.3,303a40.155,40.155,0,0,1,5.98-2.127A37,37,0,0,1,237.41,299.229Z" transform="translate(-217.542 -288.76)"/><path class="d" d="M247.954,304.305c.039.125-4.391,1.628-9.892,3.341A100.774,100.774,0,0,1,228,310.515a100.736,100.736,0,0,1,9.892-3.341C243.392,305.46,247.914,304.174,247.954,304.305Z" transform="translate(-218.47 -290.508)"/><path class="d" d="M252.046,310.786c.039.131-4.792,1.753-10.791,3.623s-10.9,3.282-10.935,3.144,4.785-1.753,10.791-3.623S252.007,310.654,252.046,310.786Z" transform="translate(-219.267 -292.735)"/><path class="d" d="M254.206,317.706c.039.131-4.792,1.753-10.791,3.623s-10.9,3.282-10.935,3.144,4.785-1.753,10.784-3.623S254.16,317.574,254.206,317.706Z" transform="translate(-220.009 -295.113)"/><path class="d" d="M256.356,324.626c.039.131-4.792,1.753-10.784,3.623s-10.9,3.282-10.942,3.144,4.792-1.753,10.791-3.623S256.317,324.494,256.356,324.626Z" transform="translate(-220.748 -297.491)"/><path class="d" d="M258.516,331.546c.039.131-4.792,1.753-10.791,3.623s-10.9,3.282-10.935,3.144,4.792-1.753,10.791-3.623S258.477,331.414,258.516,331.546Z" transform="translate(-221.49 -299.869)"/></g><g transform="translate(252.824)"><path class="b" d="M432.051,101.326,406.5,91.388a3.433,3.433,0,0,1-1.969-4.444l13.784-35.366a3.439,3.439,0,0,1,4.444-1.969l16.206,6.308,7.516,17.808L436.5,99.363a3.42,3.42,0,0,1-4.45,1.963Z" transform="translate(-404.297 -49.379)"/><path class="c" d="M454.949,59.36l-3.873,9.951a3.2,3.2,0,0,0,1.818,4.135l9.57,3.722Z" transform="translate(-420.296 -52.808)"/><path class="d" d="M441.971,70.225a41.562,41.562,0,0,1-6-2.074,41.911,41.911,0,0,1-5.822-2.527,40.929,40.929,0,0,1,6.006,2.068A39.847,39.847,0,0,1,441.971,70.225Z" transform="translate(-413.18 -54.957)"/><path class="d" d="M446.261,81.764c-.046.131-4.444-1.457-9.846-3.551s-9.688-3.886-9.636-4.017,4.444,1.464,9.846,3.558S446.314,81.639,446.261,81.764Z" transform="translate(-412.022 -57.904)"/><path class="d" d="M445.234,89.607c-.052.131-4.844-1.615-10.7-3.892S424,81.488,424,81.356s4.838,1.615,10.7,3.9S445.28,89.482,445.234,89.607Z" transform="translate(-411.067 -60.364)"/><path class="d" d="M442.624,96.367c-.052.125-4.838-1.615-10.692-3.892s-10.568-4.234-10.5-4.358,4.838,1.615,10.692,3.892S442.67,96.236,442.624,96.367Z" transform="translate(-410.184 -62.688)"/><path class="d" d="M439.994,103.117c-.052.131-4.838-1.615-10.692-3.892S418.734,95,418.8,94.866s4.838,1.615,10.692,3.9S440.047,102.992,439.994,103.117Z" transform="translate(-409.28 -65.007)"/><path class="d" d="M437.364,109.877c-.046.125-4.838-1.615-10.693-3.892s-10.568-4.234-10.5-4.358,4.838,1.615,10.693,3.892S437.417,109.746,437.364,109.877Z" transform="translate(-408.376 -67.33)"/></g><g transform="translate(0 145.659)"><path class="c" d="M60.428,278.766a2.048,2.048,0,0,1,1.72,2.324c-.105.715-.2,1.411-.256,1.72l-2.35,15.464a1.346,1.346,0,0,1-1.529,1.136l-35.4-5.382a1.313,1.313,0,0,1-1.129-1.457l1.805-20.046a1.359,1.359,0,0,1,1.543-1.221l8.008,1.221A3.2,3.2,0,0,1,34.81,273.6l1.451,1.654Z" transform="translate(-19.929 -271.29)"/><rect class="b" width="39.12" height="23.61" transform="translate(4.139 4.079) rotate(8.65)"/><path class="b" d="M19.868,279.562l-.748,24.792a.866.866,0,0,0,.735.886l37.689,5.73a.866.866,0,0,0,.971-.656l5.6-24.05a.866.866,0,0,0-.709-1.063l-42.54-6.465a.873.873,0,0,0-1,.827Z" transform="translate(-19.119 -273.845)"/></g><g transform="translate(18.012 151.697)"><path class="e" d="M142.682,285.81c-7.64,3.938-13.508,10.778-17.722,18.287s-6.931,15.753-9.623,23.925L113,370.2c8.9-15.136,16.035-32.924,17.965-50.371l-5.907-.532c3.971-.6,7.306-3.479,9.426-6.892s3.21-7.338,4.273-11.211l-7.22,1.077A26.794,26.794,0,0,0,142.682,285.81Z" transform="translate(-69.39 -282.318)"/><g class="f" transform="translate(43.61 3.492)"><path class="g" d="M142.682,285.81c-7.64,3.938-13.508,10.778-17.722,18.287s-6.931,15.753-9.623,23.925L113,370.2c8.9-15.136,16.035-32.924,17.965-50.371l-5.907-.532c3.971-.6,7.306-3.479,9.426-6.892s3.21-7.338,4.273-11.211l-7.22,1.077A26.794,26.794,0,0,0,142.682,285.81Z" transform="translate(-113 -285.81)"/></g><path class="e" d="M100.977,378.258S81.666,355.147,81.89,333.086h7.778s-8.474-5.573-7.8-8.69.893-14.933.893-14.933l7.128,1.779s-5.35-2.671-6.019-6.905,1.562-23.846,1.562-23.846,8.69,9.137,11.369,18.5,9.695,20.282,7.634,48.8S100.977,378.258,100.977,378.258Z" transform="translate(-58.68 -280.49)"/><path class="e" d="M125.876,393.625s20.919-13.935,25.6-31.723l-6.268-1.707s8.028-2.626,8.172-5.251,2.547-12.2,2.547-12.2l-6.124-.125s4.89-.978,6.354-4.24,3.938-19.508,3.938-19.508-8.986,5.441-13.18,12.379-12.235,14.185-16.817,37.571S125.876,393.625,125.876,393.625Z" transform="translate(-73.812 -293.678)"/><path class="h" d="M95.36,311.19a1.443,1.443,0,0,1,.066.236c.046.184.1.414.171.715l.61,2.744c.269,1.188.578,2.625.919,4.345s.742,3.636,1.136,5.783c.827,4.286,1.7,9.406,2.626,15.1s1.739,11.992,2.507,18.608,1.313,12.931,1.8,18.687.748,10.942.919,15.3c.112,2.179.164,4.155.217,5.907s.085,3.223.1,4.444,0,2.146,0,2.809v.729a1,1,0,0,1,0,.249,1.116,1.116,0,0,1,0-.243,5.447,5.447,0,0,0-.039-.735c0-.656-.053-1.6-.092-2.8s-.085-2.711-.164-4.444-.144-3.7-.269-5.907c-.2-4.358-.551-9.537-.991-15.287s-1.07-12.064-1.825-18.674-1.634-12.891-2.481-18.6-1.726-10.824-2.521-15.1c-.381-2.146-.761-4.083-1.083-5.789s-.61-3.164-.86-4.358-.414-2.107-.545-2.757c-.053-.3-.1-.538-.131-.715a1.432,1.432,0,0,1-.066-.249Z" transform="translate(-63.329 -291.039)"/><path class="e" d="M86.16,422.772S68.509,402.726,63,390.609l4.142-1.772a10.733,10.733,0,0,1-8.408-2.75,31.565,31.565,0,0,1-5.711-7.076l5.455-.925a20.269,20.269,0,0,1-11.92-9.235c6.439,1.063,12.261,4.595,17.066,9.019a84.615,84.615,0,0,1,10.345,11.979,40.815,40.815,0,0,1,4.01,6.6C80.981,402.582,86.166,415.407,86.16,422.772Z" transform="translate(-46.56 -310.852)"/><path class="h" d="M149.251,336.6a.754.754,0,0,1-.079.2l-.269.584-1.076,2.225c-.952,1.923-2.291,4.726-3.938,8.2s-3.505,7.64-5.52,12.294-4.122,9.813-6.242,15.267-4,10.706-5.658,15.5-3.052,9.143-4.181,12.806-2.028,6.643-2.626,8.7c-.3,1.011-.538,1.8-.7,2.37-.079.249-.144.453-.19.61a.768.768,0,0,1-.079.2.861.861,0,0,1,.039-.21c.039-.164.092-.368.158-.624.151-.571.368-1.372.656-2.389.551-2.074,1.4-5.061,2.514-8.736s2.488-8.028,4.116-12.839,3.525-10.056,5.632-15.523,4.253-10.614,6.268-15.267,3.938-8.809,5.592-12.268,3.032-6.249,4.024-8.152c.479-.939.86-1.674,1.136-2.2l.3-.564Z" transform="translate(-71.345 -299.77)"/><path class="h" d="M102.414,446.146a1.589,1.589,0,0,1-.085-.368c-.046-.282-.105-.656-.171-1.063-.138-.926-.368-2.265-.656-3.9s-.775-3.584-1.352-5.711-1.313-4.444-2.219-6.833-1.89-4.595-2.849-6.6-1.917-3.735-2.763-5.179-1.549-2.626-2.061-3.38l-.571-.912c-.125-.21-.19-.322-.177-.335a1.877,1.877,0,0,1,.236.3c.171.23.374.519.656.873.551.761,1.313,1.9,2.166,3.328s1.844,3.183,2.842,5.166a71.292,71.292,0,0,1,2.882,6.616c.912,2.4,1.621,4.726,2.205,6.866s1,4.1,1.313,5.75.486,3,.578,3.938c.039.433.079.788.105,1.07a1.523,1.523,0,0,1-.079.374Z" transform="translate(-61.318 -325.634)"/><rect class="g" width="38.674" height="7.89" transform="translate(25.737 115.792)"/><path class="g" d="M91.39,468.92l4.181,26.538h23.367l3.9-26.538Z" transform="translate(-61.964 -345.238)"/><path class="h" d="M123.971,468.827c0,.1-7.319.184-16.337.184s-16.344-.085-16.344-.184,7.319-.177,16.344-.177S123.971,468.729,123.971,468.827Z" transform="translate(-61.93 -345.145)"/></g><g transform="translate(35.977 10.07)"><g transform="translate(0.072 0.21)"><rect class="i" width="172.694" height="108.172" transform="translate(0.066)"/><rect class="e" width="172.694" height="9.911" transform="translate(0.066)"/><rect class="b" width="172.76" height="19.501" transform="translate(0 106.026)"/><path class="j" d="M106.7,239.212l-1.267-.184-.571-1.149-.564,1.149-1.273.184.919.9-.007.059-.21,1.2,1.136-.6,1.136.6-.217-1.26.046-.046Z" transform="translate(-83.998 -124.431)"/><path class="j" d="M92.928,238.33a.761.761,0,1,0,.755.761.761.761,0,0,0-.755-.761Z" transform="translate(-80.266 -124.585)"/><path class="h" d="M127.72,239.842h1.542l.486,1.011h.335l-1.549-3.223h-.085l-1.549,3.223h.335Zm.768-1.608.656,1.313h-1.254Z" transform="translate(-92.204 -124.345)"/><rect class="h" width="3.656" height="0.256" transform="translate(34.447 117.164)"/><path class="h" d="M92.7,237.3h-.243a1.365,1.365,0,0,0-1.313,1.385,5.75,5.75,0,0,0,1.313,2.757s.092.164.243,0a5.75,5.75,0,0,0,1.313-2.757A1.359,1.359,0,0,0,92.7,237.3Zm-.118,2.2a.761.761,0,1,1,.755-.761.761.761,0,0,1-.755.761Z" transform="translate(-79.916 -124.232)"/><path class="h" d="M118.686,240.519a.781.781,0,0,1-1.562,0v-2.534a.505.505,0,1,1,1.011,0v2.146h0a.289.289,0,0,1-.276.223.3.3,0,0,1-.282-.23v-1.648h-.19v1.575h0v.079h0a.479.479,0,0,0,.466.407.473.473,0,0,0,.459-.407h0v-.079h0v-2.087h0a.7.7,0,1,0-1.392,0h0v2.626h0a.971.971,0,0,0,1.93,0h0v-2.127h-.19Z" transform="translate(-88.774 -124.221)"/><path class="h" d="M105.322,238.53l-.729-1.47-.722,1.47-1.621.236,1.149,1.142-.282,1.615,1.451-.761,1.451.761-.276-1.615,1.168-1.142Zm.407,2.56-1.136-.6-1.136.6.21-1.2v-.066l-.919-.893,1.273-.184.564-1.149.571,1.149,1.267.184-.873.853-.046.039Z" transform="translate(-83.733 -124.149)"/><path class="h" d="M150.249,234.32H150v7.516h.236Zm-.118,7.516Z" transform="translate(-100.141 -123.208)"/><rect class="h" width="2.993" height="3.19" transform="translate(42.514 113.771)"/><path class="h" d="M139.755,237.23v.249h1.1v-.249h.945v.492H138.81v-.492Z" transform="translate(-96.296 -124.207)"/><rect class="h" width="1.103" height="0.243" transform="translate(43.459 112.78)"/><rect class="h" width="1.103" height="0.243" transform="translate(43.459 113.023)"/><path class="h" d="M160.161,240.489l.919-.919.112.112-1.031,1.031-1.031-1.031.112-.112Z" transform="translate(-103.278 -125.012)"/><g transform="translate(3.827 3.879)"><circle class="i" cx="1.076" cy="1.076" r="1.076"/><circle class="i" cx="1.076" cy="1.076" r="1.076" transform="translate(3.82)"/><circle class="i" cx="1.076" cy="1.076" r="1.076" transform="translate(7.64)"/></g><g transform="translate(16.331 22.717)"><rect class="k" width="99.521" height="10.404" transform="translate(0 10.404)"/><rect class="g" width="99.521" height="10.404"/><rect class="l" width="99.521" height="10.404" transform="translate(0 20.801)"/><rect class="k" width="99.521" height="10.404" transform="translate(0 31.198)"/><rect class="l" width="99.521" height="10.404" transform="translate(0 41.602)"/><rect class="m" width="29.839" height="52.13"/><path class="h" d="M98.92,131.271l49.76-.131,49.76.131-49.76.131Z" transform="translate(-98.92 -110.471)"/><path class="h" d="M98.92,147.121l49.76-.131,49.76.131-49.76.131Z" transform="translate(-98.92 -115.917)"/><path class="h" d="M98.92,162.958l49.76-.138,49.76.138-49.76.131Z" transform="translate(-98.92 -121.356)"/><path class="h" d="M98.92,178.8l49.76-.131,49.76.131-49.76.131Z" transform="translate(-98.92 -126.803)"/><path class="h" d="M107,107.4c3.177-.21,6.354-.23,9.531-.263s6.354,0,9.537.263c-3.183.223-6.36.23-9.537.263S110.2,107.64,107,107.4Z" transform="translate(-101.696 -102.218)"/><path class="h" d="M107,117.037c2.4-.164,4.8-.171,7.22-.19s4.8,0,7.22.19c-2.409.164-4.8.171-7.22.2S109.429,117.2,107,117.037Z" transform="translate(-101.696 -105.557)"/><path class="h" d="M155,107.393c2.383-.21,4.778-.23,7.161-.263a58.2,58.2,0,0,1,7.168.263c-2.389.223-4.778.23-7.168.263A62.241,62.241,0,0,1,155,107.393Z" transform="translate(-118.19 -102.214)"/><path class="h" d="M155,123.273c2.383-.223,4.778-.23,7.161-.263a58.2,58.2,0,0,1,7.168.263c-2.389.223-4.778.23-7.168.263a67.022,67.022,0,0,1-7.161-.263Z" transform="translate(-118.19 -107.671)"/><path class="h" d="M155,139.123c2.383-.223,4.778-.23,7.161-.263a58.2,58.2,0,0,1,7.168.263c-2.389.223-4.778.23-7.168.263a70.643,70.643,0,0,1-7.161-.263Z" transform="translate(-118.19 -113.117)"/><path class="h" d="M155,154.953c2.383-.21,4.778-.23,7.161-.263a58.194,58.194,0,0,1,7.168.263c-2.389.223-4.778.23-7.168.263a67.026,67.026,0,0,1-7.161-.263Z" transform="translate(-118.19 -118.557)"/><path class="h" d="M155,170.853c2.383-.223,4.778-.23,7.161-.263a58.2,58.2,0,0,1,7.168.263c-2.389.223-4.778.23-7.168.263a67.026,67.026,0,0,1-7.161-.263Z" transform="translate(-118.19 -124.02)"/><path class="h" d="M186.54,107.393c2.4-.21,4.778-.23,7.168-.263a57.949,57.949,0,0,1,7.161.263c-2.383.223-4.778.23-7.161.263a62.407,62.407,0,0,1-7.168-.263Z" transform="translate(-129.028 -102.214)"/><path class="h" d="M194,170.862a9.6,9.6,0,0,1,2.324-.263,9.013,9.013,0,0,1,2.284.263,10.161,10.161,0,0,1-4.595,0Z" transform="translate(-131.591 -124.029)"/><path class="h" d="M194,154.962a10.161,10.161,0,0,1,4.595,0,9.977,9.977,0,0,1-4.595,0Z" transform="translate(-131.591 -118.566)"/><path class="h" d="M194,139.13a9.977,9.977,0,0,1,4.595,0A10.161,10.161,0,0,1,194,139.13Z" transform="translate(-131.591 -113.124)"/><path class="h" d="M194,123.282a9.6,9.6,0,0,1,2.324-.263,9.012,9.012,0,0,1,2.284.263,9.011,9.011,0,0,1-2.284.263A9.6,9.6,0,0,1,194,123.282Z" transform="translate(-131.591 -107.68)"/><path class="h" d="M218.09,107.393c2.389-.21,4.772-.23,7.168-.263a57.894,57.894,0,0,1,7.155.263c-2.383.223-4.772.23-7.155.263a62.3,62.3,0,0,1-7.168-.263Z" transform="translate(-139.869 -102.214)"/><path class="h" d="M218.09,123.273c2.389-.223,4.772-.23,7.168-.263a57.892,57.892,0,0,1,7.155.263c-2.383.223-4.772.23-7.155.263a67.085,67.085,0,0,1-7.168-.263Z" transform="translate(-139.869 -107.671)"/><path class="h" d="M218.09,139.123c2.389-.223,4.772-.23,7.168-.263a57.889,57.889,0,0,1,7.155.263c-2.383.223-4.772.23-7.155.263a70.7,70.7,0,0,1-7.168-.263Z" transform="translate(-139.869 -113.117)"/><path class="h" d="M218.09,154.953c2.389-.21,4.772-.23,7.168-.263a57.889,57.889,0,0,1,7.155.263c-2.383.223-4.772.23-7.155.263a67.081,67.081,0,0,1-7.168-.263Z" transform="translate(-139.869 -118.557)"/><path class="h" d="M218.09,170.853c2.389-.223,4.772-.23,7.168-.263a57.9,57.9,0,0,1,7.155.263c-2.383.223-4.772.23-7.155.263a67.089,67.089,0,0,1-7.168-.263Z" transform="translate(-139.869 -124.02)"/><g transform="translate(8.27 22.756)"><path class="h" d="M116.328,137.952H113.88v1.661h2.875v1.024H112.6v-6.2h4.142v1.024H113.88v1.477h2.448Z" transform="translate(-111.891 -134.361)"/><path class="h" d="M121.333,138.457v2.179H120.06v-6.2h2.415a2.79,2.79,0,0,1,1.227.256,1.91,1.91,0,0,1,.814.729,2.022,2.022,0,0,1,.282,1.07,1.759,1.759,0,0,1-.656,1.431,2.573,2.573,0,0,1-1.726.532Zm0-1.037h1.142a1.122,1.122,0,0,0,.768-.236.873.873,0,0,0,.269-.656,1.037,1.037,0,0,0-.269-.735.991.991,0,0,0-.742-.289h-1.168Z" transform="translate(-114.454 -134.36)"/><path class="h" d="M131.7,138.967a.656.656,0,0,0-.256-.551,3.178,3.178,0,0,0-.919-.407,6.714,6.714,0,0,1-1.05-.427,1.72,1.72,0,0,1-1.057-1.536,1.523,1.523,0,0,1,.282-.893,1.877,1.877,0,0,1,.814-.617,3.118,3.118,0,0,1,1.188-.217,2.79,2.79,0,0,1,1.182.236,1.917,1.917,0,0,1,.807.656,1.812,1.812,0,0,1,.289,1H131.7a.847.847,0,0,0-.269-.656,1.116,1.116,0,0,0-.755-.236,1.149,1.149,0,0,0-.729.2.617.617,0,0,0-.256.519.591.591,0,0,0,.3.505,3.348,3.348,0,0,0,.893.381,3.938,3.938,0,0,1,1.588.814,1.608,1.608,0,0,1,.5,1.208,1.483,1.483,0,0,1-.61,1.26,2.626,2.626,0,0,1-1.634.459,3.085,3.085,0,0,1-1.313-.263,2.074,2.074,0,0,1-.9-.715,1.851,1.851,0,0,1-.309-1.057h1.313c0,.656.407,1.024,1.227,1.024a1.181,1.181,0,0,0,.709-.184.6.6,0,0,0,.236-.505Z" transform="translate(-117.255 -134.319)"/><path class="h" d="M115.624,155.286h-2.238l-.427,1.273H111.6l2.31-6.19h1.181l2.317,6.19H116.05Zm-1.9-1.031h1.549l-.788-2.324Z" transform="translate(-111.548 -139.835)"/><path class="h" d="M123.621,154.293H122.6v2.265H121.33v-6.19h2.3a2.625,2.625,0,0,1,1.687.486,1.687,1.687,0,0,1,.6,1.385,1.9,1.9,0,0,1-.276,1.057,1.871,1.871,0,0,1-.827.656l1.313,2.527v.059h-1.372Zm-1.017-1.031h1.031a1.063,1.063,0,0,0,.748-.249.886.886,0,0,0,.263-.656.932.932,0,0,0-.249-.656,1.017,1.017,0,0,0-.761-.256H122.6Z" transform="translate(-114.891 -139.832)"/><path class="h" d="M131.073,155.536h2.711v1.024H129.8v-6.19h1.273Z" transform="translate(-117.801 -139.835)"/><path class="h" d="M115.537,171.206H113.3l-.427,1.28H111.52l2.3-6.2h1.181l2.317,6.2h-1.359Zm-1.89-1.031H115.2l-.781-2.317Z" transform="translate(-111.52 -145.305)"/><path class="h" d="M124.951,169.953H122.5v2.534H121.19v-6.2h4.037v1.037H122.47v1.595h2.448Z" transform="translate(-114.843 -145.305)"/><path class="h" d="M129.773,170.3v2.186H128.46v-6.2h2.415a2.77,2.77,0,0,1,1.227.256,1.871,1.871,0,0,1,.814.729,2.009,2.009,0,0,1,.289,1.07,1.779,1.779,0,0,1-.656,1.431,2.573,2.573,0,0,1-1.726.525Zm0-1.031h1.136a1.129,1.129,0,0,0,.775-.236.873.873,0,0,0,.263-.656,1.017,1.017,0,0,0-.263-.735,1,1,0,0,0-.742-.289h-1.168Z" transform="translate(-117.341 -145.305)"/></g></g></g><path class="h" d="M247.458,190.463c0-1.214-.059-49.412-.151-125.533l.151.151H74.081l.177-.184V190.43l-.164-.164,173.39.164-173.39.164H73.93V64.72H247.648V64.9C247.517,141.044,247.458,189.249,247.458,190.463Z" transform="translate(-73.93 -64.72)"/></g><g transform="translate(139.514 33.342)"><g transform="translate(86.289 159.852)"><rect class="c" width="4.01" height="2.159" transform="translate(32.793 68.638)"/><rect class="b" width="9.248" height="45.894" transform="translate(26.17 14.316)"/><path class="e" d="M414.932,360.441H371.5a8.362,8.362,0,0,1-8.369-8.362h0a8.369,8.369,0,0,1,8.369-8.369h43.433a8.369,8.369,0,0,1,8.369,8.369h0a8.362,8.362,0,0,1-8.369,8.362Z" transform="translate(-363.13 -343.71)"/><rect class="c" width="5.861" height="32.576" transform="translate(27.903 60.203)"/><path class="c" d="M374.27,500.938c-1.155.144,49.406,0,49.406,0s-21.569-2.416-22.973-15.878h-5.862S393.377,498.5,374.27,500.938Z" transform="translate(-366.951 -392.28)"/><path class="h" d="M421.187,369.107c0,.1-10.043.184-22.429.184s-22.429-.085-22.429-.184,10.036-.177,22.429-.177S421.187,369.009,421.187,369.107Z" transform="translate(-367.666 -352.376)"/><path class="h" d="M412.21,435.337a59.426,59.426,0,0,1-9.34,0,61.622,61.622,0,0,1,9.34,0Z" transform="translate(-376.785 -375.134)"/><path class="c" d="M418.572,451.6h0a1.188,1.188,0,0,1-1.181-1.188v-4.595a1.188,1.188,0,0,1,1.181-1.181h0a1.188,1.188,0,0,1,1.188,1.181v4.595a1.188,1.188,0,0,1-1.188,1.188Z" transform="translate(-381.775 -378.391)"/></g><g transform="translate(0 25.248)"><g transform="translate(30.648 15.614)"><path class="k" d="M278.393,164.7s2.028-2.219,2.626-2.271,6.951,1.844,6.951,1.844a4.339,4.339,0,0,1,1.969.945c.571.656,6.813,7.457,6.813,7.457l-6.944,6.111s-8.139-1.464-8.848-2.31-1.28-2.225-.761-2.626a3.6,3.6,0,0,1-.473-1.969,13.582,13.582,0,0,1,.427-1.444s-1.227-.873-1.273-1.49a2.429,2.429,0,0,0-.236-.945l-.282-.473Z" transform="translate(-278.36 -162.428)"/><path class="n" d="M281.334,167.91c.039,0,0,.217-.112.525a2.415,2.415,0,0,1-.761,1.063,1.562,1.562,0,0,1-1.313.3c-.341-.085-.486-.276-.459-.3s.2.072.5.092a1.628,1.628,0,0,0,1.083-.328,3.281,3.281,0,0,0,.755-.919C281.2,168.074,281.294,167.9,281.334,167.91Z" transform="translate(-278.472 -164.312)"/></g><g transform="translate(1.576 3.341)"><path class="c" d="M238.205,143.73a3.774,3.774,0,0,0-3.807,3.748l-.328,41.805a3.774,3.774,0,0,0,3.748,3.807l30.194.236a3.774,3.774,0,0,0,3.807-3.748l.2-41.825a3.873,3.873,0,0,0-3.853-3.892Z" transform="translate(-234.07 -143.73)"/><path class="c" d="M258.244,162.9a45.659,45.659,0,0,1-6.991.217,44.286,44.286,0,0,1-6.984-.328,45.113,45.113,0,0,1,6.99-.223A42.879,42.879,0,0,1,258.244,162.9Z" transform="translate(-237.575 -150.201)"/><path class="c" d="M267.19,171.163c0,.151-5.153.236-11.5.184s-11.5-.21-11.5-.361,5.153-.236,11.5-.184S267.19,171.012,267.19,171.163Z" transform="translate(-237.547 -153.027)"/><path class="c" d="M269.187,179.646c0,.151-5.612.23-12.53.177s-12.537-.223-12.537-.374,5.619-.23,12.537-.177S269.194,179.495,269.187,179.646Z" transform="translate(-237.523 -155.937)"/><path class="c" d="M269.127,187.634c0,.151-5.612.23-12.537.171s-12.53-.223-12.53-.374,5.612-.23,12.537-.171S269.127,187.483,269.127,187.634Z" transform="translate(-237.503 -158.681)"/><path class="c" d="M269.067,195.616c0,.151-5.612.23-12.537.177S244,195.57,244,195.419s5.612-.23,12.537-.177S269.067,195.465,269.067,195.616Z" transform="translate(-237.482 -161.424)"/><path class="c" d="M269.007,203.6c0,.151-5.619.23-12.537.177s-12.537-.223-12.53-.374,5.612-.23,12.53-.171S269.007,203.446,269.007,203.6Z" transform="translate(-237.461 -164.168)"/></g><g transform="translate(0 2.086)"><path class="i" d="M236.075,141.83a3.774,3.774,0,0,0-3.807,3.748l-.328,41.805a3.774,3.774,0,0,0,3.748,3.807l30.194.236a3.774,3.774,0,0,0,3.807-3.748l.21-41.825a3.879,3.879,0,0,0-3.853-3.912Z" transform="translate(-231.762 -141.822)"/><path class="h" d="M235.982,141.826h28.979a12.541,12.541,0,0,1,1.556.046,4.057,4.057,0,0,1,2.717,1.667,3.866,3.866,0,0,1,.656,1.549,9.054,9.054,0,0,1,.072,1.68c0,4.463-.033,9.229-.052,14.243s-.046,10.279-.066,15.753q0,4.1-.039,8.323v2.127a4.5,4.5,0,0,1-.387,2.153,3.991,3.991,0,0,1-3.63,2.264l-16.9-.138-8.034-.072H236.96a17.63,17.63,0,0,1-1.969-.066,3.833,3.833,0,0,1-1.792-.847,3.991,3.991,0,0,1-1.523-3.387c0-1.221,0-2.429.033-3.617q.039-3.564.066-6.912c.046-4.457.085-8.612.118-12.406.085-7.581.158-13.712.2-17.965a6.238,6.238,0,0,1,.118-1.51,3.781,3.781,0,0,1,2.1-2.56,3.676,3.676,0,0,1,1.227-.328,3.066,3.066,0,0,1,.433,0,4.089,4.089,0,0,0-1.628.4,3.748,3.748,0,0,0-2.015,2.52,6.338,6.338,0,0,0-.1,1.483c0,4.253-.046,10.391-.085,17.965,0,3.794-.046,7.949-.072,12.412,0,2.225-.033,4.536-.046,6.912v3.617a3.663,3.663,0,0,0,1.4,3.118,3.519,3.519,0,0,0,1.641.715,17.8,17.8,0,0,0,1.89.059h3.9l8.034.059,16.9.131a3.623,3.623,0,0,0,3.282-2.054,4.063,4.063,0,0,0,.354-2.009v-2.12q0-4.227.046-8.323c0-5.461.059-10.725.085-15.753s.059-9.78.085-14.237a9.442,9.442,0,0,0-.059-1.628,3.512,3.512,0,0,0-.6-1.431,3.735,3.735,0,0,0-2.521-1.562,14.317,14.317,0,0,0-1.51-.053h-4.417l-17.959-.112-4.883-.053h-1.273Z" transform="translate(-231.669 -141.818)"/><path class="h" d="M256.114,161a45.116,45.116,0,0,1-6.99.223,44.288,44.288,0,0,1-6.984-.328,45.116,45.116,0,0,1,6.99-.223A44.288,44.288,0,0,1,256.114,161Z" transform="translate(-235.267 -148.294)"/><path class="h" d="M265.06,169.263c0,.151-5.153.236-11.5.184s-11.5-.21-11.5-.361,5.153-.236,11.506-.184S265.06,169.112,265.06,169.263Z" transform="translate(-235.239 -151.119)"/><path class="h" d="M267.067,177.8c0,.151-5.619.23-12.537.177S242,177.75,242,177.6s5.612-.23,12.537-.177S267.067,177.612,267.067,177.8Z" transform="translate(-235.219 -154.047)"/><path class="h" d="M267,185.727c0,.151-5.612.23-12.53.177s-12.537-.223-12.537-.374,5.619-.23,12.537-.171S267,185.576,267,185.727Z" transform="translate(-235.195 -156.773)"/><path class="h" d="M266.937,193.716c0,.151-5.612.23-12.537.171s-12.53-.217-12.53-.368,5.612-.23,12.537-.177S266.937,193.565,266.937,193.716Z" transform="translate(-235.174 -159.517)"/><path class="h" d="M266.877,201.7c0,.151-5.619.23-12.537.177s-12.53-.223-12.53-.374,5.612-.23,12.537-.177S266.877,201.545,266.877,201.7Z" transform="translate(-235.153 -162.259)"/></g><path class="o" d="M242.932,145.191v-3.479a1.044,1.044,0,0,0-1.05-1.05h0a1.05,1.05,0,0,0-1.05,1.05v4.877a1.693,1.693,0,0,0,1.687,1.687h0a1.694,1.694,0,0,0,1.687-1.687v-5.6a2.343,2.343,0,0,0-2.343-2.35h0a2.343,2.343,0,0,0-2.212,1.562v.269" transform="translate(-234.411 -138.64)"/><path class="k" d="M293.787,169.778l-3.315-2.061-8.48-4.477s-1.68,1.641,1.162,3.991l3.512,2.783s3.118,5.717,3.781,6.137a39.384,39.384,0,0,0,3.735,1.529Z" transform="translate(-248.791 -147.093)"/><path class="n" d="M294.437,177.678a1.246,1.246,0,0,1-.341-.072c-.223-.066-.545-.158-.958-.3s-.919-.322-1.483-.571a8.917,8.917,0,0,1-.893-.459,2.842,2.842,0,0,1-.853-.742,39.742,39.742,0,0,1-2.868-4.673l-.381-.656a2.12,2.12,0,0,0-.505-.558c-.394-.348-.834-.656-1.273-1.024a31.291,31.291,0,0,1-2.7-2.205,2.8,2.8,0,0,1-.486-3.459l.072-.105.118.066c3.393,1.917,6.314,3.669,8.533,4.687,1.076.591,1.9,1.116,2.461,1.477l.656.42a.88.88,0,0,1,.21.164,1.017,1.017,0,0,1-.236-.118l-.656-.381c-.584-.335-1.418-.834-2.494-1.4-2.232-.971-5.185-2.7-8.579-4.595l.184-.039a2.317,2.317,0,0,0-.309,1.575,2.75,2.75,0,0,0,.775,1.51,32.717,32.717,0,0,0,2.658,2.179c.446.341.88.656,1.313,1.044a4.051,4.051,0,0,1,.3.282,2.01,2.01,0,0,1,.249.348l.387.656a41.65,41.65,0,0,0,2.783,4.673,4.279,4.279,0,0,0,1.654,1.181c.558.263,1.05.459,1.457.617l.939.348A2.478,2.478,0,0,1,294.437,177.678Z" transform="translate(-248.725 -146.959)"/></g><g transform="translate(92.435)"><g transform="translate(28.124 11.164)"><path class="h" d="M432,137.818c-.118-2.061-.374-12.077-.492-13.6a8.434,8.434,0,0,0-2.52-5.507,5.294,5.294,0,0,0-5.711-1.1h0a3.538,3.538,0,0,0-2.527,2.475c-4.214,14.992-3.551,30.948-5.409,46.446,5.5.9,12.9.532,18.464.236C433.811,154.391,432.76,151.195,432,137.818Z" transform="translate(-415.34 -117.183)"/><path class="e" d="M434.847,161.185a1.77,1.77,0,0,1-.046-.4c0-.3-.033-.656-.052-1.149-.033-1.05-.079-2.481-.131-4.227-.072-3.617-.177-8.533-.289-13.948-.046-2.724-.085-5.317-.118-7.686,0-1.175,0-2.3-.039-3.348a17.067,17.067,0,0,0-.2-2.888,4.706,4.706,0,0,0-2.14-3.387,3.833,3.833,0,0,0-1.457-.446h.105a1.5,1.5,0,0,1,.3,0,2.921,2.921,0,0,1,1.116.335,4.141,4.141,0,0,1,1.385,1.214,5.593,5.593,0,0,1,.939,2.251,15.656,15.656,0,0,1,.249,2.927c0,1.05.053,2.173.079,3.348.039,2.37.092,4.962.144,7.686.072,5.422.138,10.331.184,13.948V160.8A1.726,1.726,0,0,1,434.847,161.185Z" transform="translate(-420.505 -119.422)"/><path class="e" d="M429.518,160.13a4.307,4.307,0,0,1-.066-.9c0-.584-.033-1.424-.033-2.461,0-2.081.039-4.956.118-8.126s.164-5.96.223-8.113c.033-.985.059-1.812.085-2.461a3.978,3.978,0,0,1,.072-.9,4.311,4.311,0,0,1,.066.9c0,.584.033,1.424.033,2.461,0,2.081-.039,4.956-.118,8.126s-.164,5.96-.23,8.113q-.046,1.477-.079,2.461A4.537,4.537,0,0,1,429.518,160.13Z" transform="translate(-420.178 -124.051)"/></g><path class="h" d="M394.072,100.237c4.129-.427,7.621,1.385,10.909,3.938a20.518,20.518,0,0,1,6.905,10.128,24.664,24.664,0,0,1-.158,14.2,12.734,12.734,0,0,1-8.533,8.087c-5.75,1.621-12.222.965-16.738-2.941a20.537,20.537,0,0,1-6.682-15.989,19.692,19.692,0,0,1,3.879-11.5,15.044,15.044,0,0,1,10.437-5.907" transform="translate(-374.993 -100.175)"/><g transform="translate(1.708 0.063)"><path class="h" d="M403.434,114.921c-.492-1.6-.151-3.334-.276-5-.282-3.682-3.026-6.8-6.334-8.441-3.072-1.529-6.951-1.5-10.843-.512a14.513,14.513,0,0,0-7.1,3.991,11.474,11.474,0,0,0-2.777,10.148l18.832-1.5a21.062,21.062,0,0,0,5.409,4.089,3.938,3.938,0,0,0,1.93.44,1.746,1.746,0,0,0,1.529-1.1A3.677,3.677,0,0,0,403.434,114.921Z" transform="translate(-375.357 -100.271)"/><path class="k" d="M384.983,109.113l16.062,4.5a3.046,3.046,0,0,1,2.626,3.164l-2.5,35.228a10.994,10.994,0,0,1-2.731,6.5l-1.687,1.9a8.059,8.059,0,0,1-13.357-1.877,3.742,3.742,0,0,1-.309-.952,6.741,6.741,0,0,1-.1-.8,25.819,25.819,0,0,1,.066-5.356c.046-3.151.085-4.444.079-4.411s-6.61-1.313-7.752-9.977c-.571-4.332-.171-11.388.348-17.151C376.207,114.712,379.824,108.424,384.983,109.113Z" transform="translate(-375.095 -103.291)"/><g transform="translate(2.068 19.211)"><path class="h" d="M379.2,135.385a1.109,1.109,0,0,0,1.037,1.149,1.07,1.07,0,0,0,1.175-.971,1.116,1.116,0,0,0-1.037-1.155,1.063,1.063,0,0,0-1.175.978Z" transform="translate(-378.573 -131.209)"/><path class="h" d="M378.262,130.649c.131.151.991-.453,2.186-.414s2.055.656,2.192.512-.072-.328-.446-.617a3.013,3.013,0,0,0-1.746-.591,2.954,2.954,0,0,0-1.746.512C378.327,130.327,378.2,130.583,378.262,130.649Z" transform="translate(-378.245 -129.538)"/><g transform="translate(11.331 0.452)"><path class="h" d="M395.509,136.039a1.1,1.1,0,0,0,1.037,1.149,1.063,1.063,0,0,0,1.175-.971,1.116,1.116,0,0,0-1.044-1.149,1.063,1.063,0,0,0-1.168.971Z" transform="translate(-395.508 -131.888)"/><path class="h" d="M395.542,131.338c.131.144.991-.453,2.186-.42s2.054.656,2.192.512-.066-.328-.446-.617a3.059,3.059,0,0,0-1.746-.584,2.875,2.875,0,0,0-1.746.512C395.607,131.01,395.476,131.273,395.542,131.338Z" transform="translate(-395.514 -130.227)"/></g><path class="h" d="M387.634,140.174a7.548,7.548,0,0,0-1.93-.4c-.3-.039-.591-.112-.656-.322a1.562,1.562,0,0,1,.23-.9l.958-2.3a40.11,40.11,0,0,0,2.192-6.026,42.35,42.35,0,0,0-2.672,5.835l-.873,2.31a1.772,1.772,0,0,0-.19,1.195.755.755,0,0,0,.492.459,2.028,2.028,0,0,0,.519.085,7.956,7.956,0,0,0,1.93.059Z" transform="translate(-380.45 -129.776)"/><path class="n" d="M387.339,165.44a22.015,22.015,0,0,0,11.684-2.79s-3.072,5.907-11.723,4.877Z" transform="translate(-381.357 -140.916)"/><path class="n" d="M389.8,149.385a2.14,2.14,0,0,1,1.969-.748,1.969,1.969,0,0,1,1.313.761,1.26,1.26,0,0,1,.1,1.437,1.457,1.457,0,0,1-1.582.354,4.668,4.668,0,0,1-1.5-.952,1.313,1.313,0,0,1-.328-.368.381.381,0,0,1,0-.44" transform="translate(-382.179 -136.093)"/><path class="h" d="M392.482,146.78c-.2,0-.23,1.28-1.365,2.173s-2.514.715-2.527.893.3.263.886.3a3.282,3.282,0,0,0,2.107-.656,2.829,2.829,0,0,0,1.063-1.825C392.705,147.1,392.574,146.773,392.482,146.78Z" transform="translate(-381.8 -135.463)"/></g><path class="h" d="M396,126.094c.112.328,1.313.21,2.7.414s2.527.617,2.717.335c.092-.138-.1-.453-.551-.781a4.785,4.785,0,0,0-4.129-.564C396.221,125.694,395.951,125.937,396,126.094Z" transform="translate(-382.275 -108.858)"/><path class="h" d="M378.986,122.648c.2.276,1.031,0,2.022,0s1.825.23,2.028-.053c.085-.131-.039-.407-.4-.656a2.947,2.947,0,0,0-3.282,0C379.026,122.234,378.9,122.51,378.986,122.648Z" transform="translate(-376.423 -107.545)"/><path class="h" d="M411.1,112.672c-1.365-5.067-8.316-12.307-13.567-12.182L389,105.123a8.093,8.093,0,0,0,5.192,6.419c1.457.512,3.229.715,4.05,2.028s.23,3.2,1,4.595c1.07,1.9,4.24,1.969,5.015,4,.341.893.092,1.936.446,2.822.473,1.181,3.341,2.783,4.595,2.455s1.313-2.4,1.779-3.459a5.724,5.724,0,0,0,.348-3.833C410.956,117.673,411.75,115.094,411.1,112.672Z" transform="translate(-379.873 -100.345)"/><path class="k" d="M414.322,141.652c0-.656.807-2.146,1.444-2.232,1.713-.217,4.772,0,4.687,4.319-.118,5.907-6.026,4.595-6.032,4.4S414.256,143.878,414.322,141.652Z" transform="translate(-388.568 -113.704)"/><path class="n" d="M417.3,146.928a1.91,1.91,0,0,0,.276.158,1.024,1.024,0,0,0,.768,0,2.482,2.482,0,0,0,1.221-2.264,3.368,3.368,0,0,0-.256-1.477,1.2,1.2,0,0,0-.761-.807.518.518,0,0,0-.61.269c-.085.164-.046.289-.079.3s-.125-.1-.072-.341a.656.656,0,0,1,.236-.368.768.768,0,0,1,.578-.138,1.451,1.451,0,0,1,1.057.932,3.552,3.552,0,0,1,.322,1.654,2.663,2.663,0,0,1-1.556,2.521,1.07,1.07,0,0,1-.932-.171C417.3,147.073,417.277,146.941,417.3,146.928Z" transform="translate(-389.594 -114.694)"/></g><path class="g" d="M428.42,125.6a5.316,5.316,0,0,0,.335-1.753,12.884,12.884,0,0,0-.4-4.293,13.056,13.056,0,0,0-1.785-3.938,5,5,0,0,0-1.162-1.352,19.418,19.418,0,0,1,2.573,5.382A20.323,20.323,0,0,1,428.42,125.6Z" transform="translate(-390.674 -105.015)"/><path class="h" d="M385.133,104.91c-.7,2.363-4.549,5.2-6.268,6.958-3.282,3.361-3.9,3.853-4.562,14.585a25.527,25.527,0,0,1-1.772-10.824,12.891,12.891,0,0,1,3.938-8.218,10.016,10.016,0,0,1,8.664-2.5" transform="translate(-372.493 -101.742)"/><path class="e" d="M414.564,115.251a6.2,6.2,0,0,1-1.017.177,11.563,11.563,0,0,1-1.2.131c-.473.033-1.011.092-1.608.085a28.02,28.02,0,0,1-4.181-.236,31.16,31.16,0,0,1-5.008-1.1,32.363,32.363,0,0,1-4.739-1.969,28.583,28.583,0,0,1-3.558-2.2,11.478,11.478,0,0,1-1.273-.985c-.368-.328-.656-.564-.919-.794a6.143,6.143,0,0,1-.729-.735,5.647,5.647,0,0,1,.821.656c.249.21.564.466.945.742s.794.617,1.313.939a31.75,31.75,0,0,0,3.571,2.114,34.732,34.732,0,0,0,4.693,1.91,35.557,35.557,0,0,0,4.949,1.116,32.406,32.406,0,0,0,4.135.3h1.595c.473,0,.873-.039,1.2-.066A5.539,5.539,0,0,1,414.564,115.251Z" transform="translate(-378.622 -102.737)"/><path class="e" d="M418.932,123.389a2.711,2.711,0,0,1-.7.125,17.6,17.6,0,0,1-1.917.118,23.7,23.7,0,0,1-12.123-3.21,16.683,16.683,0,0,1-1.6-1.05,2.514,2.514,0,0,1-.545-.453c.033-.046.853.525,2.271,1.313a26.662,26.662,0,0,0,12.005,3.177C417.928,123.421,418.926,123.33,418.932,123.389Z" transform="translate(-382.649 -106.615)"/><path class="e" d="M425.265,126.1a3.975,3.975,0,0,1,.144.9,23.166,23.166,0,0,1,.079,2.481,34.754,34.754,0,0,1-.236,3.669,24.052,24.052,0,0,1-.886,4.431,11.88,11.88,0,0,1-5.008,6.374,12.024,12.024,0,0,1-2.258,1.037,3.689,3.689,0,0,1-.88.23,5.581,5.581,0,0,1,.827-.361,14.216,14.216,0,0,0,2.179-1.122,11.027,11.027,0,0,0,2.671-2.415,11.919,11.919,0,0,0,2.12-3.853,25.437,25.437,0,0,0,.906-4.358c.177-1.365.269-2.626.315-3.636a21.749,21.749,0,0,0,0-2.468A6.491,6.491,0,0,1,425.265,126.1Z" transform="translate(-387.518 -109.083)"/></g><path class="k" d="M302.54,178l17.132,17.348c2.258-.519,29.9-17.066,29.9-17.066l4.372,21.267s-28.3,13-36.1,11.428c-1.267-.256-3.361-.42-4.673-2.107-6.222-8-18.064-24.864-18.064-24.864Z" transform="translate(-253.468 -126.917)"/><g transform="translate(33.765 111.247)"><path class="k" d="M340.66,414.68l8.461,18.333,13.646-6.308-8.75-22.685Z" transform="translate(-302.885 -315.828)"/><g transform="translate(37.932 108.224)"><path class="e" d="M347.657,442.272,352.6,451.7s-12.648,13.075-11.46,16l29.734-14.257-8.192-18.9Z" transform="translate(-340.955 -434.54)"/><path class="c" d="M371.156,451.992a1.352,1.352,0,0,1,1.5.985,1.313,1.313,0,0,1-.965,1.5,1.418,1.418,0,0,1-1.588-1.05,1.313,1.313,0,0,1,1.175-1.444" transform="translate(-350.933 -440.532)"/><g class="p" transform="translate(0 16.534)"><path class="i" d="M370.818,462.1l-1.241-2.37-28.041,14.552s-1.05,1.214-.453,2.074Z" transform="translate(-340.9 -459.73)"/></g><path class="h" d="M357.786,460.5c.079.144.834-.138,1.772,0s1.615.551,1.72.427-.512-.853-1.654-.985S357.694,460.38,357.786,460.5Z" transform="translate(-346.7 -443.261)"/><path class="h" d="M354,464.871c.033.158.781.105,1.569.486s1.241.958,1.378.88-.158-.939-1.149-1.392S353.926,464.759,354,464.871Z" transform="translate(-345.399 -444.877)"/><path class="h" d="M352.777,470.944c.151,0,0-.86-.748-1.477s-1.588-.6-1.588-.453.617.374,1.227.886S352.632,471.017,352.777,470.944Z" transform="translate(-344.178 -446.356)"/><path class="h" d="M355.62,454.48c.125.105.7-.414,1.543-.755s1.615-.387,1.628-.545-.847-.381-1.838,0S355.495,454.4,355.62,454.48Z" transform="translate(-345.951 -440.873)"/></g><path class="h" d="M328.613,387.374,307.55,330.105s.5-9.518,2.251-12.524,54.86-20.545,54.86-20.545,13.528-3.282,22.547,0,18.182,7.279,17.283,13.6a16.7,16.7,0,0,1-.7,2.842,22.973,22.973,0,0,1-21.234,15.589l-7.017.788-35.8,6.833a2.737,2.737,0,0,0-2.114,3.485L349.2,378.7S336.562,384.867,328.613,387.374Z" transform="translate(-291.508 -278.566)"/><path class="k" d="M311.039,373.179l-.5,20.177,15.025.368,2.166-24.214Z" transform="translate(-292.535 -303.97)"/><g transform="translate(0 86.702)"><path class="e" d="M301.115,401.75l-.656,11.52s-17.118,6.15-17.348,9.3l32.977.328,1.011-20.564Z" transform="translate(-283.11 -401.75)"/><path class="h" d="M307.845,407.746a1.919,1.919,0,0,1,0-.584,3.591,3.591,0,0,1,.656-1.5,2.14,2.14,0,0,1,.394-.433.814.814,0,0,1,.742-.151.492.492,0,0,1,.328.3.558.558,0,0,1,0,.4,3.823,3.823,0,0,1-.348.6c-.256.387-.466.775-.794,1.214a1.011,1.011,0,0,1-.886.354,2.009,2.009,0,0,1-.853-.335,7.274,7.274,0,0,1-1.254-1.037c-.177-.19-.341-.381-.492-.578a1.753,1.753,0,0,1-.368-.656.61.61,0,0,1,.374-.722.919.919,0,0,1,.794.164,4.6,4.6,0,0,1,.834.847,5.461,5.461,0,0,1,.82,1.431c.138.361.171.564.144.571a11.116,11.116,0,0,0-1.188-1.851,4.444,4.444,0,0,0-.8-.761.591.591,0,0,0-.473-.112.3.3,0,0,0-.151.374,1.62,1.62,0,0,0,.322.532c.144.184.309.368.479.545a7.014,7.014,0,0,0,1.188.971,1.613,1.613,0,0,0,.656.276.571.571,0,0,0,.532-.217c.276-.361.538-.8.794-1.168a3.6,3.6,0,0,0,.328-.538c.066-.164.033-.276-.1-.322-.3-.112-.591.19-.794.453a5.2,5.2,0,0,0-.886,1.936Z" transform="translate(-290.615 -402.724)"/><path class="c" d="M324.313,417.259a1.346,1.346,0,0,1,.912,1.549,1.313,1.313,0,0,1-1.523.919,1.418,1.418,0,0,1-.958-1.641,1.313,1.313,0,0,1,1.687-.788" transform="translate(-296.719 -407.065)"/><g class="p" transform="translate(0.028 18.497)"><path class="i" d="M316.134,432.6l-.066-2.671-31.592.656s-1.47.624-1.313,1.661Z" transform="translate(-283.152 -429.93)"/></g><path class="h" d="M308.78,418.944c0,.164.807.243,1.6.775s1.175,1.195,1.352,1.195-.085-1-1.044-1.615S308.747,418.819,308.78,418.944Z" transform="translate(-291.93 -407.621)"/><path class="h" d="M303.489,421.127c-.039.158.656.44,1.195,1.122s.689,1.411.853,1.4.269-.912-.414-1.759S303.5,420.976,303.489,421.127Z" transform="translate(-290.112 -408.387)"/><path class="h" d="M299.787,425.978c.151.033.381-.768,0-1.654s-1.149-1.247-1.221-1.109.394.61.715,1.313S299.629,425.959,299.787,425.978Z" transform="translate(-288.418 -409.116)"/><path class="h" d="M309.277,412.821c.066.144.807-.066,1.72,0s1.615.361,1.7.223-.591-.715-1.661-.788S309.2,412.7,309.277,412.821Z" transform="translate(-292.1 -405.358)"/></g><path class="h" d="M316.447,289.656s-9-.722-10,9.052-5.7,55.051-5.7,55.051L325.5,355.82l3.282-46.6,33.567-14.283S322.46,288.4,316.447,289.656Z" transform="translate(-289.168 -276.476)"/><path class="h" d="M378.835,269.66s-5.468,15.32-4.424,17.027,15.1,8.736,15.1,8.736l35.169,13.5a29.473,29.473,0,0,0,3.61-14.572c0-8.828-12.235-24.693-12.235-24.693Z" transform="translate(-314.437 -269.66)"/><path class="e" d="M365.941,296.61a.658.658,0,0,1-.164.092l-.505.23-1.969.866-7.273,3.183L330.8,311.845l.112-.158c-.322,4.595-.656,9.57-1.024,14.716-.853,12.018-1.641,23.1-2.265,31.874v.158h-.158l-15.327-1.313-4.221-.394L306.8,356.6l-.381-.059a2.38,2.38,0,0,1,.381,0l1.109.072,4.227.308,15.34,1.214-.171.144c.6-8.776,1.365-19.862,2.192-31.881.361-5.146.709-10.115,1.037-14.716v-.118l.105-.046,25.29-10.732,7.352-3.085,1.969-.807.512-.2Z" transform="translate(-291.12 -278.92)"/><path class="e" d="M426.522,296.864a5.092,5.092,0,0,1-.985-.269l-2.626-.853a57.162,57.162,0,0,0-8.855-2.238,25.993,25.993,0,0,0-9.071.112,36.771,36.771,0,0,0-3.636,1.057,4.189,4.189,0,0,1,.912-.466,16.364,16.364,0,0,1,2.665-.86,24.2,24.2,0,0,1,9.189-.23,48.653,48.653,0,0,1,8.894,2.363c1.109.394,1.969.729,2.626.971A4.848,4.848,0,0,1,426.522,296.864Z" transform="translate(-323.739 -277.605)"/><path class="e" d="M421.8,286.5a26.6,26.6,0,0,0-3.072,0c-.952.066-2.074.21-3.328.354s-2.626.322-4.056.591a18.792,18.792,0,0,0-6.885,2.573,20.882,20.882,0,0,0-2.389,1.923,2.547,2.547,0,0,1,.505-.656,10.351,10.351,0,0,1,1.726-1.5,17.584,17.584,0,0,1,6.971-2.711c1.444-.276,2.829-.433,4.083-.564s2.4-.243,3.354-.269a12.469,12.469,0,0,1,2.278.1A2.771,2.771,0,0,1,421.8,286.5Z" transform="translate(-323.987 -275.353)"/><path class="h" d="M352.261,450.579a1.444,1.444,0,0,1-.269-.6,4.345,4.345,0,0,1-.144-1.792,2.625,2.625,0,0,1,.144-.61.742.742,0,0,1,.591-.473.5.5,0,0,1,.44.151.7.7,0,0,1,.184.407,4.683,4.683,0,0,1,0,.748c-.039.505-.039.985-.118,1.569a.945.945,0,0,1-.617.748,1.884,1.884,0,0,1-.932.039,7.362,7.362,0,0,1-1.634-.486c-.249-.105-.492-.23-.722-.354a2.232,2.232,0,0,1-.656-.5.7.7,0,0,1,0-.893.84.84,0,0,1,.788-.19,4.966,4.966,0,0,1,1.168.486,6.184,6.184,0,0,1,1.437,1.063c.3.3.433.5.414.512a12.887,12.887,0,0,0-1.969-1.313,5.178,5.178,0,0,0-1.1-.407c-.19,0-.4,0-.479.1a.354.354,0,0,0,.046.44,1.969,1.969,0,0,0,.551.394,7.523,7.523,0,0,0,.7.328,7.419,7.419,0,0,0,1.549.453,1.615,1.615,0,0,0,.735,0,.558.558,0,0,0,.374-.46c.066-.479.085-1.031.131-1.51a5.252,5.252,0,0,0,.033-.656c0-.2-.112-.3-.249-.282-.322,0-.433.453-.492.8a6.485,6.485,0,0,0,.1,2.284Z" transform="translate(-305.533 -330.632)"/></g><g transform="translate(75.623 47.558)"><path class="k" d="M376.018,177.69a11.4,11.4,0,0,0-5.835,5.074c-2.192,3.886-1.608,5.8-1.037,8.093s1.582,6.853,1.641,6.564S376.018,177.69,376.018,177.69Z" transform="translate(-354.35 -174.369)"/><path class="g" d="M413.914,182.876s-2.868-6.925-3.446-7.568l-10.581-2.678-6.623,3.243a11.6,11.6,0,0,1-6.177,1.227,6.917,6.917,0,0,1-5.494-2.927h0l-4.142,1.116s-6.564,19.836-6.433,25.323,2.409,21.083,2.153,24.155.807,11.552,4.555,11.552h37.21s8.408-2.33,8.769-7.378S413.914,182.876,413.914,182.876Z" transform="translate(-355.174 -172.63)"/><path class="h" d="M408.878,232.206a3.085,3.085,0,0,1-.624.532,11.816,11.816,0,0,1-5.107,2.074,10.844,10.844,0,0,1-4.056-.177,13.345,13.345,0,0,1-6.321-3.663,16.007,16.007,0,0,1-1.451-1.687,3.169,3.169,0,0,1-.44-.656c.059-.046.735.9,2.081,2.173a13.981,13.981,0,0,0,6.216,3.485,11.388,11.388,0,0,0,7.036-.656C407.92,232.883,408.832,232.154,408.878,232.206Z" transform="translate(-361.999 -191.872)"/><g class="f" transform="translate(29.353 37.368)"><path class="g" d="M391.751,229.77a10.83,10.83,0,0,0,3.827,7.3,9,9,0,0,0,7.962,1.739,7.713,7.713,0,0,0,5.435-5.907,22.684,22.684,0,0,1-5.907,2.068A11.651,11.651,0,0,1,391.6,229.56l.3.322" transform="translate(-391.6 -229.56)"/></g><g class="f" transform="translate(45.861 22.96)"><path class="g" d="M431.716,228.266c-3.938-7.627-8.093-15.523-14.966-20.656h0c1.523,5.218,2.888,10.115,4.595,15.281.479,1.464,1.227,3.164,2.75,3.407.558.085,1.136-.046,1.693.059a3.61,3.61,0,0,1,2.12,1.871,5.169,5.169,0,0,0,1.89,2.153c.873.42,2.2,0,2.284-.945a2.284,2.284,0,0,0-.368-1.168Z" transform="translate(-416.75 -207.61)"/></g><path class="g" d="M441.482,202.959l-18.74,8.789s-8.316-16.626-8.973-18.943-2.068-6.249.052-11.073a9.439,9.439,0,0,1,11.257-5.087C433.349,179.546,441.482,202.959,441.482,202.959Z" transform="translate(-369.496 -173.874)"/><path class="g" d="M364.5,202.885c-.88,0-10.935,5.251-10.935,5.251l-6.682-19.285c8.638-4.687,18.241-11.3,23.243-12.642l-4.345,15.1Z" transform="translate(-346.88 -173.86)"/><path class="k" d="M417.262,224.93c3.551,5.835,6.026,9.189,6.026,9.189l-31.848,19.4,3.715,8.618L433.882,246.2a8.842,8.842,0,0,0,5.317-6.052,7.286,7.286,0,0,0-.092-3.873l-6.564-18.182Z" transform="translate(-362.192 -188.251)"/><path class="n" d="M447.585,245.439a28.055,28.055,0,0,0-3.814-1.969,33.908,33.908,0,0,0-4.181-.985A10.3,10.3,0,0,1,447.585,245.439Z" transform="translate(-378.737 -196.624)"/><path class="h" d="M373.755,190.71a4.9,4.9,0,0,0-.538.893,16.688,16.688,0,0,0-1.037,2.573A39.034,39.034,0,0,0,370.6,203a51.2,51.2,0,0,0,.105,8.914,26.567,26.567,0,0,0,.414,2.685,4.5,4.5,0,0,0,.269.965,4.086,4.086,0,0,0-.1-.985c-.079-.656-.19-1.549-.269-2.685a62.322,62.322,0,0,1,0-8.874,45.292,45.292,0,0,1,1.438-8.782,22.307,22.307,0,0,1,.893-2.58,4.8,4.8,0,0,0,.4-.945Z" transform="translate(-354.982 -178.843)"/><path class="k" d="M353.8,277.977l7.942-3.8,15.5-1.234,1.26-.873,3.715,8.618s-4.063,1.969-6.2,2.114L363,282.408l-6.82.715Z" transform="translate(-349.258 -206.799)"/><path class="h" d="M442.668,213.14a1.392,1.392,0,0,0-.374.131l-1.037.44-3.794,1.68-12.471,5.678-1.516.7.236.085c-2.166-4.457-4.063-8.448-5.4-11.329l-1.569-3.407-.42-.919a1.463,1.463,0,0,0-.171-.315,1.314,1.314,0,0,0,.105.341c.079.217.2.538.361.945.328.82.827,1.969,1.47,3.453,1.313,2.914,3.144,6.918,5.3,11.388l.072.158.164-.072,1.516-.7,12.406-5.77,3.741-1.785,1.011-.5a1.832,1.832,0,0,0,.368-.2Z" transform="translate(-370.682 -184.055)"/><path class="h" d="M424.771,176.81c0,.066-.88.039-2.238.368a10.581,10.581,0,0,0-7.653,7c-.446,1.313-.5,2.205-.565,2.2a1.929,1.929,0,0,1,0-.656,8.725,8.725,0,0,1,.322-1.648,10.154,10.154,0,0,1,7.844-7.168,8.205,8.205,0,0,1,1.674-.171,1.687,1.687,0,0,1,.617.072Z" transform="translate(-370.042 -174.04)"/><path class="i" d="M437.076,195.25a3.721,3.721,0,0,1-.249.827,8.528,8.528,0,0,1-1.063,2.12l-.5.617-.263.328c-.1.105-.217.2-.322.3l-.656.617c-.256.184-.532.361-.807.551a15.1,15.1,0,0,1-3.938,1.7c-2.941.82-5.665,1.214-7.555,1.8a31.952,31.952,0,0,0-2.993,1.129,4.071,4.071,0,0,1,.735-.459,6.4,6.4,0,0,1,.919-.44l.591-.249.656-.223c1.89-.656,4.628-1.09,7.529-1.9a15.471,15.471,0,0,0,3.879-1.634l.788-.519.656-.584c.105-.092.217-.184.315-.282l.263-.309.5-.584a9.611,9.611,0,0,0,1.142-2.015A4.391,4.391,0,0,1,437.076,195.25Z" transform="translate(-371.569 -180.403)"/><path class="i" d="M433.642,188.509a3.855,3.855,0,0,0-.781.184,3.545,3.545,0,0,0-1.556,1.477c-.256.387-.505.847-.84,1.313a6.519,6.519,0,0,1-1.26,1.313,11.106,11.106,0,0,1-3.689,1.792c-1.4.427-2.75.656-3.938.965a17.471,17.471,0,0,0-3.124,1.017,10.949,10.949,0,0,0-2.534,1.648.822.822,0,0,1,.125-.177,3.5,3.5,0,0,1,.427-.446,7.969,7.969,0,0,1,1.871-1.26,16.582,16.582,0,0,1,3.157-1.1c1.214-.322,2.56-.571,3.938-.991a11.106,11.106,0,0,0,3.59-1.707,6.728,6.728,0,0,0,1.227-1.214c.328-.433.591-.88.86-1.273a3.558,3.558,0,0,1,1.72-1.464,1.753,1.753,0,0,1,.617-.092.486.486,0,0,1,.19.02Z" transform="translate(-370.603 -178.079)"/><path class="i" d="M403.129,213.91a1.775,1.775,0,0,1-.3.171l-.873.407c-.768.348-1.877.84-3.282,1.385a35.318,35.318,0,0,1-5.054,1.562,18.969,18.969,0,0,1-6.465.381,28.27,28.27,0,0,1-6.236-1.779,23.474,23.474,0,0,0-5.041-1.392,10.22,10.22,0,0,0-3.5.072c-.814.177-1.247.368-1.254.335a1.1,1.1,0,0,1,.3-.158,5.744,5.744,0,0,1,.926-.309,9.728,9.728,0,0,1,3.564-.2,22.974,22.974,0,0,1,5.12,1.313,29.275,29.275,0,0,0,6.163,1.739,19.279,19.279,0,0,0,6.36-.348,37.017,37.017,0,0,0,5.034-1.483c1.4-.512,2.534-.965,3.282-1.267l.9-.348A1.8,1.8,0,0,1,403.129,213.91Z" transform="translate(-355.213 -186.815)"/><path class="i" d="M373,203.676a1.382,1.382,0,0,1,.243-.19,3.526,3.526,0,0,1,.788-.407,6.465,6.465,0,0,1,3.236-.328,12.472,12.472,0,0,1,4.542,1.634,41.881,41.881,0,0,0,5.172,2.731,15.1,15.1,0,0,0,5.711.86,28.744,28.744,0,0,0,4.739-.571c1.313-.256,2.415-.512,3.164-.656a7.121,7.121,0,0,1,1.162-.23,6.564,6.564,0,0,1-1.129.368c-.735.21-1.805.505-3.144.8a27.571,27.571,0,0,1-4.778.656,15.163,15.163,0,0,1-5.848-.853,40.472,40.472,0,0,1-5.212-2.776,12.6,12.6,0,0,0-4.411-1.68,6.7,6.7,0,0,0-3.151.21A10.988,10.988,0,0,0,373,203.676Z" transform="translate(-355.855 -182.954)"/><path class="i" d="M363.251,209.945h-.217a3.513,3.513,0,0,1-.591-.177,4.936,4.936,0,0,1-1.818-1.352,7.877,7.877,0,0,1-1.556-2.98,17.679,17.679,0,0,1-.5-4.076,26.951,26.951,0,0,0-.289-4.043,9.039,9.039,0,0,0-1.129-3.052A6.2,6.2,0,0,0,355,192.19a.656.656,0,0,1,.21.066,3.507,3.507,0,0,1,.551.276,5.343,5.343,0,0,1,1.608,1.6,8.861,8.861,0,0,1,1.241,3.124,25.479,25.479,0,0,1,.354,4.076,18.673,18.673,0,0,0,.46,4,7.778,7.778,0,0,0,1.431,2.908,5.146,5.146,0,0,0,1.68,1.385C362.969,209.847,363.257,209.912,363.251,209.945Z" transform="translate(-349.67 -179.351)"/><path class="i" d="M366.878,203.7a20.67,20.67,0,0,1-1-2.258c-.656-1.49-1.431-3.38-2.324-5.468s-1.785-4.05-2.442-5.415-1.116-2.192-1.076-2.219.164.177.4.532.545.893.906,1.569c.722,1.346,1.615,3.282,2.547,5.389s1.7,4.089,2.225,5.52c.269.715.466,1.313.6,1.707A2.114,2.114,0,0,1,366.878,203.7Z" transform="translate(-351.401 -178.027)"/></g><g transform="translate(32.51 88.123)"><path class="c" d="M284.194,234.45l44.693.361c1.451,0,2.836.7,3.052,2.133l4.883,32.57h23.046a1.342,1.342,0,1,1,0,2.685H286.353l-5.021-34.375a2.927,2.927,0,0,1,2.862-3.374Z" transform="translate(-281.232 -234.437)"/><path class="h" d="M284.159,234.443a2.278,2.278,0,0,0-.7.066,2.941,2.941,0,0,0-2.258,2.56,8.342,8.342,0,0,0,.164,1.838c.184,1.313.4,2.829.656,4.536.985,6.826,2.4,16.672,4.142,28.769v.118h.158l71.329.039h1.917a1.845,1.845,0,0,0,1.017-.19,1.523,1.523,0,0,0,0-2.665,1.871,1.871,0,0,0-1.011-.184H336.788l.171.151c-1.759-11.664-3.4-22.547-4.87-32.307a2.52,2.52,0,0,0-.827-1.707,3.282,3.282,0,0,0-1.707-.748,14.043,14.043,0,0,0-1.805-.066H326l-6.728-.046-11.946-.085-17.02-.092h-4.555l4.555.066,17.02.19,11.959.118,6.728.066h1.753a15.55,15.55,0,0,1,1.759.059,3.1,3.1,0,0,1,1.562.656,2.238,2.238,0,0,1,.722,1.529c1.457,9.76,3.085,20.643,4.824,32.314v.144h22.895a1.548,1.548,0,0,1,.834.144,1.168,1.168,0,0,1,.532,1.418,1.155,1.155,0,0,1-.525.617,1.457,1.457,0,0,1-.84.144h-1.917l-71.29.158.138.118c-1.792-12.091-3.282-21.93-4.266-28.756-.256-1.7-.479-3.216-.656-4.529a8.312,8.312,0,0,1-.184-1.812,2.9,2.9,0,0,1,.519-1.385,2.941,2.941,0,0,1,1.654-1.142A5.4,5.4,0,0,1,284.159,234.443Z" transform="translate(-281.197 -234.43)"/><circle class="i" cx="2.796" cy="2.796" r="2.796" transform="translate(22.431 15.674)"/><path class="h" d="M359.923,272.086c-.066,0-1.483-8.284-3.177-18.523S353.733,235,353.8,235s1.483,8.284,3.177,18.523S359.988,272.073,359.923,272.086Z" transform="translate(-306.143 -234.626)"/></g></g><path class="h" d="M22.7,509.254c0-.1,67.043-.184,149.727-.184s149.747.085,149.747.184-67.03.177-149.747.177S22.7,509.352,22.7,509.254Z" transform="translate(-20.35 -207.337)"/></g></g></svg>