<svg xmlns="http://www.w3.org/2000/svg" width="1031" height="293.788" viewBox="0 0 1031 293.788"><defs><style>.a{fill:#d9a171;}.b{fill:#f6f6f6;}.c{fill:#fff;}.d{fill:none;stroke:#afafaf;stroke-linecap:round;}.e{fill:#5e6178;}.f{fill:#12263f;}</style></defs><g transform="translate(5527.5 -9435.704)"><path class="a" d="M0,0H1030V80H0Z" transform="translate(-5527 9496.676)"/><path class="b" d="M0,0H1030V80H0Z" transform="translate(-5527 9648.992)"/><path class="c" d="M0,0H1030V80H0Z" transform="translate(-5527 9576.676)"/><path class="c" d="M30.316,14.667a4.673,4.673,0,0,1-.721,2.36,4.35,4.35,0,0,1-1.85,1.586,6.3,6.3,0,0,1-2.72.563,5.025,5.025,0,0,1-3.973-1.644,6.786,6.786,0,0,1-1.45-4.641v-.633a7.746,7.746,0,0,1,.655-3.292,4.961,4.961,0,0,1,1.885-2.18,5.26,5.26,0,0,1,2.848-.769,5.516,5.516,0,0,1,3.744,1.226,4.844,4.844,0,0,1,1.608,3.379H27.267a2.292,2.292,0,0,0-.589-1.679,2.422,2.422,0,0,0-1.687-.51A1.843,1.843,0,0,0,23.3,9.3a5.536,5.536,0,0,0-.562,2.751v.905a6.126,6.126,0,0,0,.514,2.927,1.882,1.882,0,0,0,1.771.879,2.369,2.369,0,0,0,1.626-.5,2.126,2.126,0,0,0,.6-1.591Zm12.3-1.8a7.546,7.546,0,0,1-.694,3.313A5.132,5.132,0,0,1,39.945,18.4a5.494,5.494,0,0,1-2.914.778,5.572,5.572,0,0,1-2.9-.751,5.123,5.123,0,0,1-1.973-2.149,7.329,7.329,0,0,1-.743-3.208v-.721a7.58,7.58,0,0,1,.69-3.318A5.119,5.119,0,0,1,34.083,6.81,5.854,5.854,0,0,1,39.914,6.8,5.211,5.211,0,0,1,41.9,9a7.362,7.362,0,0,1,.716,3.274Zm-3.138-.536a5.381,5.381,0,0,0-.637-2.9,2.044,2.044,0,0,0-1.824-.989q-2.32,0-2.452,3.48l-.009.94a5.535,5.535,0,0,0,.624,2.892,2.041,2.041,0,0,0,1.854,1.011,2.016,2.016,0,0,0,1.8-.993,5.383,5.383,0,0,0,.642-2.856ZM54.891,19H51.823l-4.535-7.963V19H44.2V6.2h3.085l4.526,7.963V6.2h3.076Zm12.3-4.333a4.673,4.673,0,0,1-.721,2.36,4.35,4.35,0,0,1-1.85,1.586,6.3,6.3,0,0,1-2.72.563,5.025,5.025,0,0,1-3.973-1.644,6.786,6.786,0,0,1-1.45-4.641v-.633a7.746,7.746,0,0,1,.655-3.292,4.961,4.961,0,0,1,1.885-2.18,5.26,5.26,0,0,1,2.848-.769,5.516,5.516,0,0,1,3.744,1.226,4.844,4.844,0,0,1,1.608,3.379H64.146a2.292,2.292,0,0,0-.589-1.679,2.422,2.422,0,0,0-1.687-.51,1.843,1.843,0,0,0-1.687.861,5.536,5.536,0,0,0-.562,2.751v.905a6.126,6.126,0,0,0,.514,2.927,1.882,1.882,0,0,0,1.771.879,2.369,2.369,0,0,0,1.626-.5,2.126,2.126,0,0,0,.6-1.591Zm9.4-1.09H71.739v3.05h5.73V19H68.654V6.2h8.833V8.585H71.739v2.7h4.852Zm5.221,1.081V19H78.727V6.2h5.106a5.948,5.948,0,0,1,2.6.541,4.074,4.074,0,0,1,1.749,1.538,4.2,4.2,0,0,1,.62,2.263,3.7,3.7,0,0,1-1.34,2.993,5.561,5.561,0,0,1-3.678,1.121Zm0-2.382h2.021a1.906,1.906,0,0,0,1.367-.448,1.665,1.665,0,0,0,.47-1.266,2.059,2.059,0,0,0-.483-1.433,1.712,1.712,0,0,0-1.318-.545H81.812Zm18.677-3.691H96.647V19H93.563V8.585H89.792V6.2h10.7Zm11.892,4.28a7.546,7.546,0,0,1-.694,3.313,5.132,5.132,0,0,1-1.973,2.219,5.494,5.494,0,0,1-2.914.778,5.572,5.572,0,0,1-2.9-.751,5.123,5.123,0,0,1-1.973-2.149,7.329,7.329,0,0,1-.743-3.208v-.721a7.58,7.58,0,0,1,.69-3.318A5.119,5.119,0,0,1,103.85,6.81a5.854,5.854,0,0,1,5.832-.009A5.211,5.211,0,0,1,111.664,9a7.362,7.362,0,0,1,.716,3.274Zm-3.138-.536a5.381,5.381,0,0,0-.637-2.9,2.044,2.044,0,0,0-1.824-.989q-2.32,0-2.452,3.48l-.009.94a5.535,5.535,0,0,0,.624,2.892,2.041,2.041,0,0,0,1.854,1.011,2.016,2.016,0,0,0,1.8-.993,5.383,5.383,0,0,0,.642-2.856Z" transform="translate(-5519 9520.867)"/><path class="c" d="M71,14.667a4.673,4.673,0,0,1-.721,2.36,4.35,4.35,0,0,1-1.85,1.586,6.3,6.3,0,0,1-2.72.563,5.025,5.025,0,0,1-3.973-1.644,6.786,6.786,0,0,1-1.45-4.641v-.633a7.746,7.746,0,0,1,.655-3.292,4.961,4.961,0,0,1,1.885-2.18,5.26,5.26,0,0,1,2.848-.769,5.516,5.516,0,0,1,3.744,1.226,4.844,4.844,0,0,1,1.608,3.379H67.953a2.292,2.292,0,0,0-.589-1.679,2.422,2.422,0,0,0-1.687-.51,1.843,1.843,0,0,0-1.687.861,5.536,5.536,0,0,0-.562,2.751v.905a6.126,6.126,0,0,0,.514,2.927,1.882,1.882,0,0,0,1.771.879,2.369,2.369,0,0,0,1.626-.5,2.126,2.126,0,0,0,.6-1.591Zm12.3-1.8a7.546,7.546,0,0,1-.694,3.313A5.132,5.132,0,0,1,80.631,18.4a5.494,5.494,0,0,1-2.914.778,5.572,5.572,0,0,1-2.9-.751,5.123,5.123,0,0,1-1.973-2.149,7.329,7.329,0,0,1-.743-3.208v-.721a7.58,7.58,0,0,1,.69-3.318A5.119,5.119,0,0,1,74.769,6.81,5.854,5.854,0,0,1,80.6,6.8,5.211,5.211,0,0,1,82.583,9a7.362,7.362,0,0,1,.716,3.274Zm-3.138-.536a5.381,5.381,0,0,0-.637-2.9A2.044,2.044,0,0,0,77.7,8.444q-2.32,0-2.452,3.48l-.009.94a5.535,5.535,0,0,0,.624,2.892,2.041,2.041,0,0,0,1.854,1.011,2.016,2.016,0,0,0,1.8-.993,5.383,5.383,0,0,0,.642-2.856ZM91.49,15.6a1.268,1.268,0,0,0-.479-1.055,5.954,5.954,0,0,0-1.683-.782,16.147,16.147,0,0,1-1.969-.782q-2.487-1.222-2.487-3.357a3.011,3.011,0,0,1,.62-1.876A4.008,4.008,0,0,1,87.245,6.48a6.823,6.823,0,0,1,2.549-.453,5.969,5.969,0,0,1,2.474.492,3.917,3.917,0,0,1,1.7,1.4A3.661,3.661,0,0,1,94.575,10H91.5a1.547,1.547,0,0,0-.479-1.213,1.867,1.867,0,0,0-1.3-.431,2.106,2.106,0,0,0-1.305.365,1.074,1.074,0,0,0,.048,1.819,6.65,6.65,0,0,0,1.854.826,11.36,11.36,0,0,1,2.18.918,3.663,3.663,0,0,1,2.074,3.3,3.125,3.125,0,0,1-1.266,2.637,5.629,5.629,0,0,1-3.472.958,6.888,6.888,0,0,1-2.817-.558,4.247,4.247,0,0,1-1.9-1.529,3.985,3.985,0,0,1-.637-2.237h3.094a1.963,1.963,0,0,0,.532,1.516,2.513,2.513,0,0,0,1.727.488,1.985,1.985,0,0,0,1.208-.33A1.088,1.088,0,0,0,91.49,15.6ZM106.2,8.585h-3.841V19H99.277V8.585H95.507V6.2h10.7Zm11.892,4.28a7.546,7.546,0,0,1-.694,3.313,5.132,5.132,0,0,1-1.973,2.219,5.494,5.494,0,0,1-2.914.778,5.572,5.572,0,0,1-2.9-.751,5.123,5.123,0,0,1-1.973-2.149,7.329,7.329,0,0,1-.743-3.208v-.721a7.58,7.58,0,0,1,.69-3.318,5.119,5.119,0,0,1,1.978-2.219A5.854,5.854,0,0,1,115.4,6.8,5.211,5.211,0,0,1,117.378,9a7.362,7.362,0,0,1,.716,3.274Zm-3.138-.536a5.381,5.381,0,0,0-.637-2.9,2.044,2.044,0,0,0-1.824-.989q-2.32,0-2.452,3.48l-.009.94a5.535,5.535,0,0,0,.624,2.892,2.041,2.041,0,0,0,1.854,1.011,2.016,2.016,0,0,0,1.8-.993,5.383,5.383,0,0,0,.642-2.856ZM128.22,6.2l2.856,8.9,2.848-8.9h4.061V19h-3.094V16.012l.3-6.117L132.1,19h-2.039l-3.1-9.114.3,6.126V19h-3.085V6.2Zm19.661,7.374h-4.852v3.05h5.73V19h-8.815V6.2h8.833V8.585h-5.748v2.7h4.852Zm8.736,2.021a1.268,1.268,0,0,0-.479-1.055,5.954,5.954,0,0,0-1.683-.782,16.147,16.147,0,0,1-1.969-.782Q150,11.758,150,9.622a3.011,3.011,0,0,1,.62-1.876,4.008,4.008,0,0,1,1.753-1.266,6.823,6.823,0,0,1,2.549-.453,5.969,5.969,0,0,1,2.474.492,3.917,3.917,0,0,1,1.7,1.4A3.661,3.661,0,0,1,159.7,10h-3.076a1.547,1.547,0,0,0-.479-1.213,1.867,1.867,0,0,0-1.3-.431,2.106,2.106,0,0,0-1.305.365,1.074,1.074,0,0,0,.048,1.819,6.65,6.65,0,0,0,1.854.826,11.36,11.36,0,0,1,2.18.918,3.663,3.663,0,0,1,2.074,3.3,3.125,3.125,0,0,1-1.266,2.637,5.629,5.629,0,0,1-3.472.958,6.888,6.888,0,0,1-2.817-.558,4.247,4.247,0,0,1-1.9-1.529,3.985,3.985,0,0,1-.637-2.237h3.094a1.963,1.963,0,0,0,.532,1.516,2.513,2.513,0,0,0,1.727.488,1.985,1.985,0,0,0,1.208-.33A1.088,1.088,0,0,0,156.617,15.6Z" transform="translate(-4740 9520.867)"/><path class="d" d="M0,0V152.316" transform="translate(-5527 9576.676)"/><path class="d" d="M0,0V152.316" transform="translate(-4916.476 9576.676)"/><path class="d" d="M0,0V152.316" transform="translate(-5003.693 9576.676)"/><path class="d" d="M0,0V152.316" transform="translate(-4742.041 9576.676)"/><path class="d" d="M0,0V152.316" transform="translate(-4497 9576.676)"/><path class="d" d="M0,0V60" transform="translate(-4977.14 9436.204)"/><path class="e" d="M0,0H1030V60.672H0Z" transform="translate(-5527 9436)"/><path class="c" d="M58.067,19H55V13.656H50.456V19H47.371V6.2h3.085v5.08H55V6.2h3.067Zm12.788-6.135a7.546,7.546,0,0,1-.694,3.313A5.132,5.132,0,0,1,68.188,18.4a5.494,5.494,0,0,1-2.914.778,5.572,5.572,0,0,1-2.9-.751A5.123,5.123,0,0,1,60.4,16.275a7.329,7.329,0,0,1-.743-3.208v-.721a7.58,7.58,0,0,1,.69-3.318A5.119,5.119,0,0,1,62.325,6.81,5.854,5.854,0,0,1,68.157,6.8,5.211,5.211,0,0,1,70.139,9a7.362,7.362,0,0,1,.716,3.274Zm-3.138-.536a5.381,5.381,0,0,0-.637-2.9,2.044,2.044,0,0,0-1.824-.989q-2.32,0-2.452,3.48l-.009.94a5.535,5.535,0,0,0,.624,2.892,2.041,2.041,0,0,0,1.854,1.011,2.016,2.016,0,0,0,1.8-.993,5.383,5.383,0,0,0,.642-2.856ZM77.543,6.2H80.62v8.78a4.2,4.2,0,0,1-.567,2.18,3.87,3.87,0,0,1-1.582,1.485,4.835,4.835,0,0,1-2.263.527,4.661,4.661,0,0,1-3.252-1.055,3.833,3.833,0,0,1-1.16-2.988h3.094a2.113,2.113,0,0,0,.3,1.274,1.2,1.2,0,0,0,1.015.4,1.148,1.148,0,0,0,.989-.479,2.251,2.251,0,0,0,.347-1.34ZM89.831,16.609H85.6L84.865,19h-3.3L86.262,6.2h2.9L93.891,19H90.578Zm-3.489-2.382h2.751l-1.38-4.438ZM99.305,19V6.2h4.122a6.064,6.064,0,0,1,3.05.769,5.406,5.406,0,0,1,2.114,2.171,6.554,6.554,0,0,1,.769,3.142v.589a6.592,6.592,0,0,1-.743,3.151,5.429,5.429,0,0,1-2.092,2.18,5.93,5.93,0,0,1-3.01.8ZM102.39,8.585v8.042h1.072a2.4,2.4,0,0,0,2.039-.945,4.63,4.63,0,0,0,.712-2.808V12.32a4.592,4.592,0,0,0-.712-2.795,2.442,2.442,0,0,0-2.074-.94Zm16.488,4.992h-4.852v3.05h5.73V19h-8.815V6.2h8.833V8.585h-5.748v2.7h4.852Zm16.972,1.09a4.673,4.673,0,0,1-.721,2.36,4.35,4.35,0,0,1-1.85,1.586,6.3,6.3,0,0,1-2.72.563,5.025,5.025,0,0,1-3.973-1.644,6.786,6.786,0,0,1-1.45-4.641v-.633a7.746,7.746,0,0,1,.655-3.292,4.961,4.961,0,0,1,1.885-2.18,5.26,5.26,0,0,1,2.848-.769,5.516,5.516,0,0,1,3.744,1.226,4.844,4.844,0,0,1,1.608,3.379H132.8a2.292,2.292,0,0,0-.589-1.679,2.422,2.422,0,0,0-1.687-.51,1.843,1.843,0,0,0-1.687.861,5.536,5.536,0,0,0-.562,2.751v.905a6.126,6.126,0,0,0,.514,2.927,1.882,1.882,0,0,0,1.771.879,2.369,2.369,0,0,0,1.626-.5,2.126,2.126,0,0,0,.6-1.591Zm12.3-1.8a7.546,7.546,0,0,1-.694,3.313,5.132,5.132,0,0,1-1.973,2.219,5.494,5.494,0,0,1-2.914.778,5.572,5.572,0,0,1-2.9-.751,5.123,5.123,0,0,1-1.973-2.149,7.329,7.329,0,0,1-.743-3.208v-.721a7.58,7.58,0,0,1,.69-3.318,5.119,5.119,0,0,1,1.978-2.219,5.854,5.854,0,0,1,5.832-.009A5.211,5.211,0,0,1,147.43,9a7.362,7.362,0,0,1,.716,3.274Zm-3.138-.536a5.381,5.381,0,0,0-.637-2.9,2.044,2.044,0,0,0-1.824-.989q-2.32,0-2.452,3.48l-.009.94a5.535,5.535,0,0,0,.624,2.892,2.041,2.041,0,0,0,1.854,1.011,2.016,2.016,0,0,0,1.8-.993,5.383,5.383,0,0,0,.642-2.856Zm11.329,3.27a1.268,1.268,0,0,0-.479-1.055,5.954,5.954,0,0,0-1.683-.782,16.147,16.147,0,0,1-1.969-.782q-2.487-1.222-2.487-3.357a3.011,3.011,0,0,1,.62-1.876,4.008,4.008,0,0,1,1.753-1.266,6.823,6.823,0,0,1,2.549-.453,5.969,5.969,0,0,1,2.474.492,3.917,3.917,0,0,1,1.7,1.4A3.661,3.661,0,0,1,159.422,10h-3.076a1.547,1.547,0,0,0-.479-1.213,1.867,1.867,0,0,0-1.3-.431,2.106,2.106,0,0,0-1.305.365,1.074,1.074,0,0,0,.048,1.819,6.65,6.65,0,0,0,1.854.826,11.36,11.36,0,0,1,2.18.918,3.663,3.663,0,0,1,2.074,3.3,3.125,3.125,0,0,1-1.266,2.637,5.629,5.629,0,0,1-3.472.958,6.888,6.888,0,0,1-2.817-.558,4.247,4.247,0,0,1-1.9-1.529,3.985,3.985,0,0,1-.637-2.237h3.094a1.963,1.963,0,0,0,.532,1.516,2.513,2.513,0,0,0,1.727.488,1.985,1.985,0,0,0,1.208-.33A1.088,1.088,0,0,0,156.337,15.6ZM171.05,8.585h-3.841V19h-3.085V8.585h-3.771V6.2h10.7Zm11.892,4.28a7.546,7.546,0,0,1-.694,3.313,5.132,5.132,0,0,1-1.973,2.219,5.494,5.494,0,0,1-2.914.778,5.572,5.572,0,0,1-2.9-.751,5.123,5.123,0,0,1-1.973-2.149,7.329,7.329,0,0,1-.743-3.208v-.721a7.58,7.58,0,0,1,.69-3.318,5.119,5.119,0,0,1,1.978-2.219,5.854,5.854,0,0,1,5.832-.009A5.211,5.211,0,0,1,182.226,9a7.362,7.362,0,0,1,.716,3.274Zm-3.138-.536a5.381,5.381,0,0,0-.637-2.9,2.044,2.044,0,0,0-1.824-.989q-2.32,0-2.452,3.48l-.009.94a5.535,5.535,0,0,0,.624,2.892,2.041,2.041,0,0,0,1.854,1.011,2.016,2.016,0,0,0,1.8-.993,5.383,5.383,0,0,0,.642-2.856Zm11.329,3.27a1.268,1.268,0,0,0-.479-1.055,5.954,5.954,0,0,0-1.683-.782A16.147,16.147,0,0,1,187,12.979q-2.487-1.222-2.487-3.357a3.011,3.011,0,0,1,.62-1.876,4.008,4.008,0,0,1,1.753-1.266,6.823,6.823,0,0,1,2.549-.453,5.969,5.969,0,0,1,2.474.492,3.917,3.917,0,0,1,1.7,1.4A3.661,3.661,0,0,1,194.218,10h-3.076a1.547,1.547,0,0,0-.479-1.213,1.867,1.867,0,0,0-1.3-.431,2.106,2.106,0,0,0-1.305.365,1.074,1.074,0,0,0,.048,1.819,6.65,6.65,0,0,0,1.854.826,11.36,11.36,0,0,1,2.18.918,3.663,3.663,0,0,1,2.074,3.3,3.125,3.125,0,0,1-1.266,2.637,5.629,5.629,0,0,1-3.472.958,6.888,6.888,0,0,1-2.817-.558,4.247,4.247,0,0,1-1.9-1.529,3.985,3.985,0,0,1-.637-2.237h3.094a1.963,1.963,0,0,0,.532,1.516,2.513,2.513,0,0,0,1.727.488,1.985,1.985,0,0,0,1.208-.33A1.088,1.088,0,0,0,191.133,15.6Zm17.086-2.021h-4.852v3.05h5.73V19h-8.815V6.2h8.833V8.585h-5.748v2.7h4.852Zm8.736,2.021a1.268,1.268,0,0,0-.479-1.055,5.954,5.954,0,0,0-1.683-.782,16.147,16.147,0,0,1-1.969-.782q-2.487-1.222-2.487-3.357a3.011,3.011,0,0,1,.62-1.876A4.008,4.008,0,0,1,212.71,6.48a6.823,6.823,0,0,1,2.549-.453,5.969,5.969,0,0,1,2.474.492,3.917,3.917,0,0,1,1.7,1.4A3.661,3.661,0,0,1,220.041,10h-3.076a1.547,1.547,0,0,0-.479-1.213,1.867,1.867,0,0,0-1.3-.431,2.106,2.106,0,0,0-1.305.365,1.074,1.074,0,0,0,.048,1.819,6.65,6.65,0,0,0,1.854.826,11.36,11.36,0,0,1,2.18.918,3.663,3.663,0,0,1,2.074,3.3,3.125,3.125,0,0,1-1.266,2.637,5.629,5.629,0,0,1-3.472.958,6.888,6.888,0,0,1-2.817-.558,4.247,4.247,0,0,1-1.9-1.529,3.985,3.985,0,0,1-.637-2.237h3.094a1.963,1.963,0,0,0,.532,1.516,2.513,2.513,0,0,0,1.727.488,1.985,1.985,0,0,0,1.208-.33A1.088,1.088,0,0,0,216.956,15.6Zm14.713-7.014h-3.841V19h-3.085V8.585h-3.771V6.2h10.7Zm8.569,8.024H236.01L235.272,19h-3.3l4.693-12.8h2.9L244.3,19h-3.313Zm-3.489-2.382H239.5l-1.38-4.438Zm1.775-11.452h3.129l-2.443,2.76h-2.417ZM255.917,19H252.85l-4.535-7.963V19H245.23V6.2h3.085l4.526,7.963V6.2h3.076Zm1.951,0V6.2h4.122a6.064,6.064,0,0,1,3.05.769,5.406,5.406,0,0,1,2.114,2.171,6.554,6.554,0,0,1,.769,3.142v.589a6.592,6.592,0,0,1-.743,3.151,5.429,5.429,0,0,1-2.092,2.18,5.93,5.93,0,0,1-3.01.8Zm3.085-10.415v8.042h1.072a2.4,2.4,0,0,0,2.039-.945,4.63,4.63,0,0,0,.712-2.808V12.32a4.592,4.592,0,0,0-.712-2.795,2.442,2.442,0,0,0-2.074-.94Zm15.82,8.024h-4.228L271.808,19h-3.3l4.693-12.8h2.9L280.834,19h-3.313Zm-3.489-2.382h2.751l-1.38-4.438Zm13.236.255h-1.67V19h-3.085V6.2H286.8a5.617,5.617,0,0,1,3.56,1.011,3.426,3.426,0,0,1,1.283,2.856,4.163,4.163,0,0,1-.541,2.215,3.837,3.837,0,0,1-1.692,1.424l2.672,5.159V19h-3.3Zm-1.67-2.382H286.8a1.754,1.754,0,0,0,1.323-.461,1.781,1.781,0,0,0,.444-1.288,1.8,1.8,0,0,0-.448-1.3,1.737,1.737,0,0,0-1.318-.47h-1.951Zm23.493,2.566a4.673,4.673,0,0,1-.721,2.36,4.35,4.35,0,0,1-1.85,1.586,6.3,6.3,0,0,1-2.72.563,5.025,5.025,0,0,1-3.973-1.644,6.786,6.786,0,0,1-1.45-4.641v-.633a7.746,7.746,0,0,1,.655-3.292,4.961,4.961,0,0,1,1.885-2.18,5.26,5.26,0,0,1,2.848-.769,5.516,5.516,0,0,1,3.744,1.226,4.844,4.844,0,0,1,1.608,3.379h-3.076a2.292,2.292,0,0,0-.589-1.679,2.422,2.422,0,0,0-1.687-.51,1.843,1.843,0,0,0-1.687.861,5.536,5.536,0,0,0-.562,2.751v.905a6.126,6.126,0,0,0,.514,2.927,1.882,1.882,0,0,0,1.771.879,2.369,2.369,0,0,0,1.626-.5,2.126,2.126,0,0,0,.6-1.591ZM313.09,19h-3.076V6.2h3.076Zm10.2-5.1H318.32V19h-3.085V6.2H323.8V8.585H318.32v2.944h4.975Zm14.326,0h-4.975V19h-3.085V6.2h8.561V8.585h-5.476v2.944h4.975Zm5.071,5.1h-3.076V6.2h3.076Zm7.242-12.8h3.076v8.78a4.2,4.2,0,0,1-.567,2.18,3.87,3.87,0,0,1-1.582,1.485,4.835,4.835,0,0,1-2.263.527,4.661,4.661,0,0,1-3.252-1.055,3.833,3.833,0,0,1-1.16-2.988h3.094a2.113,2.113,0,0,0,.3,1.274,1.2,1.2,0,0,0,1.015.4,1.148,1.148,0,0,0,.989-.479,2.251,2.251,0,0,0,.347-1.34Zm15.855,6.662a7.546,7.546,0,0,1-.694,3.313,5.132,5.132,0,0,1-1.973,2.219,5.494,5.494,0,0,1-2.914.778,5.572,5.572,0,0,1-2.9-.751,5.123,5.123,0,0,1-1.973-2.149,7.329,7.329,0,0,1-.743-3.208v-.721a7.58,7.58,0,0,1,.69-3.318A5.119,5.119,0,0,1,357.26,6.81a5.854,5.854,0,0,1,5.832-.009A5.211,5.211,0,0,1,365.073,9a7.362,7.362,0,0,1,.716,3.274Zm-3.138-.536a5.381,5.381,0,0,0-.637-2.9,2.044,2.044,0,0,0-1.824-.989q-2.32,0-2.452,3.48l-.009.94a5.535,5.535,0,0,0,.624,2.892,2.041,2.041,0,0,0,1.854,1.011,2.016,2.016,0,0,0,1.8-.993,5.383,5.383,0,0,0,.642-2.856Zm11.329,3.27a1.268,1.268,0,0,0-.479-1.055,5.954,5.954,0,0,0-1.683-.782,16.147,16.147,0,0,1-1.969-.782q-2.487-1.222-2.487-3.357a3.011,3.011,0,0,1,.62-1.876,4.008,4.008,0,0,1,1.753-1.266,6.823,6.823,0,0,1,2.549-.453,5.969,5.969,0,0,1,2.474.492,3.917,3.917,0,0,1,1.7,1.4A3.661,3.661,0,0,1,377.066,10H373.99a1.547,1.547,0,0,0-.479-1.213,1.867,1.867,0,0,0-1.3-.431,2.106,2.106,0,0,0-1.305.365,1.074,1.074,0,0,0,.048,1.819,6.65,6.65,0,0,0,1.854.826,11.36,11.36,0,0,1,2.18.918,3.663,3.663,0,0,1,2.074,3.3,3.125,3.125,0,0,1-1.266,2.637,5.629,5.629,0,0,1-3.472.958,6.888,6.888,0,0,1-2.817-.558,4.247,4.247,0,0,1-1.9-1.529,3.985,3.985,0,0,1-.637-2.237h3.094a1.963,1.963,0,0,0,.532,1.516,2.513,2.513,0,0,0,1.727.488,1.985,1.985,0,0,0,1.208-.33A1.088,1.088,0,0,0,373.981,15.6ZM388.1,15.52,390.645,6.2h3.445L389.784,19h-3.375L382.137,6.2h3.419Zm13.535,1.09H397.4L396.666,19h-3.3l4.693-12.8h2.9L405.692,19h-3.313Zm-3.489-2.382h2.751l-1.38-4.438Zm13.236.255h-1.67V19h-3.085V6.2h5.036a5.617,5.617,0,0,1,3.56,1.011A3.426,3.426,0,0,1,416.5,10.07a4.163,4.163,0,0,1-.541,2.215,3.837,3.837,0,0,1-1.692,1.424l2.672,5.159V19h-3.3Zm-1.67-2.382h1.951a1.754,1.754,0,0,0,1.323-.461,1.781,1.781,0,0,0,.444-1.288,1.8,1.8,0,0,0-.448-1.3,1.737,1.737,0,0,0-1.318-.47h-1.951ZM421.653,19h-3.076V6.2h3.076Zm12.981-6.135a7.546,7.546,0,0,1-.694,3.313,5.132,5.132,0,0,1-1.973,2.219,5.494,5.494,0,0,1-2.914.778,5.572,5.572,0,0,1-2.9-.751,5.123,5.123,0,0,1-1.973-2.149,7.329,7.329,0,0,1-.743-3.208v-.721a7.58,7.58,0,0,1,.69-3.318A5.119,5.119,0,0,1,426.1,6.81a5.854,5.854,0,0,1,5.832-.009A5.211,5.211,0,0,1,433.918,9a7.362,7.362,0,0,1,.716,3.274Zm-3.138-.536a5.381,5.381,0,0,0-.637-2.9,2.044,2.044,0,0,0-1.824-.989q-2.32,0-2.452,3.48l-.009.94a5.535,5.535,0,0,0,.624,2.892,2.041,2.041,0,0,0,1.854,1.011,2.016,2.016,0,0,0,1.8-.993,5.383,5.383,0,0,0,.642-2.856Zm11.329,3.27a1.268,1.268,0,0,0-.479-1.055,5.954,5.954,0,0,0-1.683-.782,16.147,16.147,0,0,1-1.969-.782q-2.487-1.222-2.487-3.357a3.011,3.011,0,0,1,.62-1.876,4.008,4.008,0,0,1,1.753-1.266,6.823,6.823,0,0,1,2.549-.453,5.969,5.969,0,0,1,2.474.492,3.917,3.917,0,0,1,1.7,1.4A3.661,3.661,0,0,1,445.911,10h-3.076a1.547,1.547,0,0,0-.479-1.213,1.867,1.867,0,0,0-1.3-.431,2.106,2.106,0,0,0-1.305.365,1.074,1.074,0,0,0,.048,1.819,6.65,6.65,0,0,0,1.854.826,11.36,11.36,0,0,1,2.18.918,3.663,3.663,0,0,1,2.074,3.3,3.125,3.125,0,0,1-1.266,2.637,5.629,5.629,0,0,1-3.472.958,6.888,6.888,0,0,1-2.817-.558,4.247,4.247,0,0,1-1.9-1.529,3.985,3.985,0,0,1-.637-2.237h3.094a1.963,1.963,0,0,0,.532,1.516,2.513,2.513,0,0,0,1.727.488,1.985,1.985,0,0,0,1.208-.33A1.088,1.088,0,0,0,442.826,15.6Zm12.234-.94V19h-3.085V6.2h5.106a5.948,5.948,0,0,1,2.6.541,4.074,4.074,0,0,1,1.749,1.538,4.2,4.2,0,0,1,.62,2.263,3.7,3.7,0,0,1-1.34,2.993,5.561,5.561,0,0,1-3.678,1.121Zm0-2.382h2.021a1.906,1.906,0,0,0,1.367-.448,1.665,1.665,0,0,0,.47-1.266,2.059,2.059,0,0,0-.483-1.433,1.712,1.712,0,0,0-1.318-.545H455.06Zm13.386,2.206h-1.67V19h-3.085V6.2h5.036a5.617,5.617,0,0,1,3.56,1.011,3.426,3.426,0,0,1,1.283,2.856,4.163,4.163,0,0,1-.541,2.215,3.837,3.837,0,0,1-1.692,1.424l2.672,5.159V19h-3.3Zm-1.67-2.382h1.951a1.754,1.754,0,0,0,1.323-.461,1.781,1.781,0,0,0,.444-1.288,1.8,1.8,0,0,0-.448-1.3,1.737,1.737,0,0,0-1.318-.47h-1.951Zm16.594,1.477h-4.852v3.05h5.73V19h-8.815V6.2h8.833V8.585h-5.748v2.7h4.852Zm8.736,2.021a1.268,1.268,0,0,0-.479-1.055,5.954,5.954,0,0,0-1.683-.782,16.147,16.147,0,0,1-1.969-.782q-2.487-1.222-2.487-3.357a3.011,3.011,0,0,1,.62-1.876,4.008,4.008,0,0,1,1.753-1.266,6.823,6.823,0,0,1,2.549-.453,5.969,5.969,0,0,1,2.474.492,3.917,3.917,0,0,1,1.7,1.4A3.661,3.661,0,0,1,495.191,10h-3.076a1.547,1.547,0,0,0-.479-1.213,1.867,1.867,0,0,0-1.3-.431,2.106,2.106,0,0,0-1.305.365,1.074,1.074,0,0,0,.048,1.819,6.65,6.65,0,0,0,1.854.826,11.36,11.36,0,0,1,2.18.918,3.663,3.663,0,0,1,2.074,3.3,3.125,3.125,0,0,1-1.266,2.637,5.629,5.629,0,0,1-3.472.958,6.888,6.888,0,0,1-2.817-.558,4.247,4.247,0,0,1-1.9-1.529,3.985,3.985,0,0,1-.637-2.237h3.094a1.963,1.963,0,0,0,.532,1.516,2.513,2.513,0,0,0,1.727.488,1.985,1.985,0,0,0,1.208-.33A1.088,1.088,0,0,0,492.106,15.6Zm14.7-9.4v8.376a4.814,4.814,0,0,1-.606,2.465,3.929,3.929,0,0,1-1.74,1.586,6.131,6.131,0,0,1-2.681.545,5.3,5.3,0,0,1-3.683-1.213,4.326,4.326,0,0,1-1.371-3.322V6.2h3.1v8.5q.053,2.1,1.951,2.1a1.889,1.889,0,0,0,1.45-.527,2.465,2.465,0,0,0,.492-1.714V6.2Zm5.01,8.455V19h-3.085V6.2h5.106a5.948,5.948,0,0,1,2.6.541,4.074,4.074,0,0,1,1.749,1.538,4.2,4.2,0,0,1,.62,2.263,3.7,3.7,0,0,1-1.34,2.993,5.561,5.561,0,0,1-3.678,1.121Zm0-2.382h2.021a1.906,1.906,0,0,0,1.367-.448,1.665,1.665,0,0,0,.47-1.266,2.059,2.059,0,0,0-.483-1.433,1.712,1.712,0,0,0-1.318-.545H511.82ZM530.488,6.2v8.376a4.814,4.814,0,0,1-.606,2.465,3.929,3.929,0,0,1-1.74,1.586,6.131,6.131,0,0,1-2.681.545,5.3,5.3,0,0,1-3.683-1.213,4.326,4.326,0,0,1-1.371-3.322V6.2h3.1v8.5q.053,2.1,1.951,2.1a1.889,1.889,0,0,0,1.45-.527,2.465,2.465,0,0,0,.492-1.714V6.2Zm9.861,7.374H535.5v3.05h5.73V19h-8.815V6.2h8.833V8.585H535.5v2.7h4.852Zm8.736,2.021a1.268,1.268,0,0,0-.479-1.055,5.954,5.954,0,0,0-1.683-.782,16.147,16.147,0,0,1-1.969-.782q-2.487-1.222-2.487-3.357a3.011,3.011,0,0,1,.62-1.876A4.008,4.008,0,0,1,544.84,6.48a6.823,6.823,0,0,1,2.549-.453,5.969,5.969,0,0,1,2.474.492,3.917,3.917,0,0,1,1.7,1.4A3.661,3.661,0,0,1,552.17,10h-3.076a1.547,1.547,0,0,0-.479-1.213,1.867,1.867,0,0,0-1.3-.431,2.106,2.106,0,0,0-1.305.365,1.074,1.074,0,0,0,.048,1.819,6.65,6.65,0,0,0,1.854.826,11.36,11.36,0,0,1,2.18.918,3.663,3.663,0,0,1,2.074,3.3,3.125,3.125,0,0,1-1.266,2.637,5.629,5.629,0,0,1-3.472.958,6.888,6.888,0,0,1-2.817-.558,4.247,4.247,0,0,1-1.9-1.529,3.985,3.985,0,0,1-.637-2.237h3.094a1.963,1.963,0,0,0,.532,1.516,2.513,2.513,0,0,0,1.727.488,1.985,1.985,0,0,0,1.208-.33A1.088,1.088,0,0,0,549.085,15.6ZM563.8,8.585h-3.841V19h-3.085V8.585H553.1V6.2h10.7Zm7.515,8.024h-4.228L566.347,19h-3.3l4.693-12.8h2.9L575.374,19H572.06Zm-3.489-2.382h2.751l-1.38-4.438ZM576.305,19V6.2h4.122a6.064,6.064,0,0,1,3.05.769,5.406,5.406,0,0,1,2.114,2.171,6.554,6.554,0,0,1,.769,3.142v.589a6.592,6.592,0,0,1-.743,3.151,5.429,5.429,0,0,1-2.092,2.18,5.93,5.93,0,0,1-3.01.8ZM579.39,8.585v8.042h1.072a2.4,2.4,0,0,0,2.039-.945,4.63,4.63,0,0,0,.712-2.808V12.32a4.592,4.592,0,0,0-.712-2.795,2.442,2.442,0,0,0-2.074-.94Zm19.389,4.28a7.546,7.546,0,0,1-.694,3.313,5.132,5.132,0,0,1-1.973,2.219,5.494,5.494,0,0,1-2.914.778,5.572,5.572,0,0,1-2.9-.751,5.123,5.123,0,0,1-1.973-2.149,7.329,7.329,0,0,1-.743-3.208v-.721a7.58,7.58,0,0,1,.69-3.318,5.119,5.119,0,0,1,1.978-2.219,5.854,5.854,0,0,1,5.832-.009A5.211,5.211,0,0,1,598.063,9a7.362,7.362,0,0,1,.716,3.274Zm-3.138-.536a5.381,5.381,0,0,0-.637-2.9,2.044,2.044,0,0,0-1.824-.989q-2.32,0-2.452,3.48l-.009.94a5.535,5.535,0,0,0,.624,2.892,2.041,2.041,0,0,0,1.854,1.011,2.016,2.016,0,0,0,1.8-.993,5.383,5.383,0,0,0,.642-2.856ZM606.97,15.6a1.268,1.268,0,0,0-.479-1.055,5.954,5.954,0,0,0-1.683-.782,16.147,16.147,0,0,1-1.969-.782q-2.487-1.222-2.487-3.357a3.011,3.011,0,0,1,.62-1.876,4.008,4.008,0,0,1,1.753-1.266,6.823,6.823,0,0,1,2.549-.453,5.969,5.969,0,0,1,2.474.492,3.917,3.917,0,0,1,1.7,1.4A3.661,3.661,0,0,1,610.055,10h-3.076a1.547,1.547,0,0,0-.479-1.213,1.867,1.867,0,0,0-1.3-.431,2.106,2.106,0,0,0-1.305.365,1.074,1.074,0,0,0,.048,1.819,6.65,6.65,0,0,0,1.854.826,11.36,11.36,0,0,1,2.18.918,3.663,3.663,0,0,1,2.074,3.3,3.125,3.125,0,0,1-1.266,2.637,5.629,5.629,0,0,1-3.472.958,6.888,6.888,0,0,1-2.817-.558,4.247,4.247,0,0,1-1.9-1.529,3.985,3.985,0,0,1-.637-2.237h3.094a1.963,1.963,0,0,0,.532,1.516,2.513,2.513,0,0,0,1.727.488,1.985,1.985,0,0,0,1.208-.33A1.088,1.088,0,0,0,606.97,15.6Z" transform="translate(-5340.266 9455.676)"/><path class="f" d="M7.6,14.031H2.836L1.766,17H.219L4.563,5.625H5.875L10.227,17H8.688ZM3.289,12.8H7.156L5.219,7.477Zm12.641-.4H13.258V17H11.75V5.625h3.766a4.457,4.457,0,0,1,2.957.875,3.148,3.148,0,0,1,1.035,2.547,3.062,3.062,0,0,1-.574,1.852,3.428,3.428,0,0,1-1.6,1.18l2.672,4.828V17H18.4Zm-2.672-1.227h2.3a2.6,2.6,0,0,0,1.777-.578A1.953,1.953,0,0,0,18,9.047a2.057,2.057,0,0,0-.629-1.617,2.666,2.666,0,0,0-1.816-.57h-2.3ZM25.781,12.4H23.109V17H21.6V5.625h3.766a4.457,4.457,0,0,1,2.957.875,3.148,3.148,0,0,1,1.035,2.547,3.062,3.062,0,0,1-.574,1.852,3.428,3.428,0,0,1-1.6,1.18l2.672,4.828V17H28.25Zm-2.672-1.227h2.3a2.6,2.6,0,0,0,1.777-.578,1.953,1.953,0,0,0,.66-1.547,2.057,2.057,0,0,0-.629-1.617,2.666,2.666,0,0,0-1.816-.57h-2.3ZM33.07,17h-1.5V5.625h1.5Zm9.172-5.258h-4.93v4.031h5.727V17H35.813V5.625h7.148V6.859H37.313v3.656h4.93ZM53.648,17H52.141L46.414,8.234V17H44.906V5.625h1.508l5.742,8.8v-8.8h1.492Zm2.664,0V5.625h3.211a5.169,5.169,0,0,1,2.625.656A4.438,4.438,0,0,1,63.91,8.148a6.078,6.078,0,0,1,.629,2.781v.727a6.1,6.1,0,0,1-.621,2.82,4.369,4.369,0,0,1-1.773,1.859A5.5,5.5,0,0,1,59.461,17Zm1.5-10.141v8.914h1.578a3.435,3.435,0,0,0,2.7-1.078,4.452,4.452,0,0,0,.965-3.07v-.664a4.522,4.522,0,0,0-.91-3.012,3.24,3.24,0,0,0-2.582-1.09Zm17.742,4.82a7.037,7.037,0,0,1-.562,2.918A4.261,4.261,0,0,1,73.4,16.5,4.4,4.4,0,0,1,67,14.613a6.752,6.752,0,0,1-.59-2.832v-.82a6.953,6.953,0,0,1,.57-2.9,4.218,4.218,0,0,1,4-2.594,4.41,4.41,0,0,1,2.41.66,4.253,4.253,0,0,1,1.605,1.914,7.071,7.071,0,0,1,.563,2.918Zm-1.492-.734A5.1,5.1,0,0,0,73.25,7.84a2.68,2.68,0,0,0-2.273-1.082A2.651,2.651,0,0,0,68.738,7.84a5,5,0,0,0-.84,3v.836a5.107,5.107,0,0,0,.824,3.082,2.888,2.888,0,0,0,4.52.063,5.079,5.079,0,0,0,.82-3.035ZM4.672,83.93a7.053,7.053,0,0,1-2.809-1.363,2.6,2.6,0,0,1-.879-2,2.751,2.751,0,0,1,1.074-2.223,4.269,4.269,0,0,1,2.793-.879,4.66,4.66,0,0,1,2.09.453,3.436,3.436,0,0,1,1.422,1.25,3.2,3.2,0,0,1,.5,1.742H7.359A2.069,2.069,0,0,0,6.7,79.293a2.675,2.675,0,0,0-1.852-.59,2.736,2.736,0,0,0-1.73.488A1.628,1.628,0,0,0,2.5,80.547a1.465,1.465,0,0,0,.59,1.176A5.79,5.79,0,0,0,5.1,82.6a9.3,9.3,0,0,1,2.219.879A3.367,3.367,0,0,1,8.5,84.6a2.861,2.861,0,0,1,.387,1.508,2.658,2.658,0,0,1-1.078,2.215,4.6,4.6,0,0,1-2.883.832,5.347,5.347,0,0,1-2.187-.449,3.681,3.681,0,0,1-1.566-1.23A3,3,0,0,1,.625,85.7H2.133a1.959,1.959,0,0,0,.762,1.629,3.207,3.207,0,0,0,2.035.6,2.948,2.948,0,0,0,1.82-.484,1.573,1.573,0,0,0,.633-1.32A1.545,1.545,0,0,0,6.8,84.832,6.755,6.755,0,0,0,4.672,83.93Zm12.57-.187h-4.93v4.031h5.727V89H10.813V77.625h7.148v1.234H12.313v3.656h4.93Zm6.836.656H21.406V89H19.9V77.625h3.766a4.457,4.457,0,0,1,2.957.875,3.148,3.148,0,0,1,1.035,2.547,3.062,3.062,0,0,1-.574,1.852,3.428,3.428,0,0,1-1.6,1.18l2.672,4.828V89H26.547Zm-2.672-1.227h2.3a2.6,2.6,0,0,0,1.777-.578,1.953,1.953,0,0,0,.66-1.547,2.057,2.057,0,0,0-.629-1.617,2.666,2.666,0,0,0-1.816-.57h-2.3Zm11.969,3.836,3.25-9.383h1.641L34.047,89H32.719L28.508,77.625h1.633ZM41.4,89H39.9V77.625h1.5Zm11.109-3.609a4.185,4.185,0,0,1-1.332,2.785,4.365,4.365,0,0,1-2.98.98,4.008,4.008,0,0,1-3.23-1.445,5.815,5.815,0,0,1-1.215-3.867V82.75a6.481,6.481,0,0,1,.566-2.789,4.231,4.231,0,0,1,1.605-1.848,4.47,4.47,0,0,1,2.406-.645,4.11,4.11,0,0,1,2.906,1.012,4.235,4.235,0,0,1,1.273,2.8H51a3.254,3.254,0,0,0-.848-1.969,2.569,2.569,0,0,0-1.824-.609,2.685,2.685,0,0,0-2.254,1.063,4.875,4.875,0,0,0-.816,3.023v1.1a5.011,5.011,0,0,0,.773,2.945A2.5,2.5,0,0,0,48.2,87.93a2.887,2.887,0,0,0,1.918-.566A3.143,3.143,0,0,0,51,85.391ZM56.164,89h-1.5V77.625h1.5Zm11.492-5.32a7.037,7.037,0,0,1-.562,2.918A4.261,4.261,0,0,1,65.5,88.5a4.4,4.4,0,0,1-6.4-1.887,6.752,6.752,0,0,1-.59-2.832v-.82a6.953,6.953,0,0,1,.57-2.9,4.218,4.218,0,0,1,4-2.594,4.41,4.41,0,0,1,2.41.66,4.253,4.253,0,0,1,1.605,1.914,7.071,7.071,0,0,1,.563,2.918Zm-1.492-.734a5.1,5.1,0,0,0-.812-3.105,2.68,2.68,0,0,0-2.273-1.082A2.651,2.651,0,0,0,60.84,79.84a5,5,0,0,0-.84,3v.836a5.107,5.107,0,0,0,.824,3.082,2.888,2.888,0,0,0,4.52.063,5.079,5.079,0,0,0,.82-3.035Zm7.094.984a7.053,7.053,0,0,1-2.809-1.363,2.6,2.6,0,0,1-.879-2,2.751,2.751,0,0,1,1.074-2.223,4.269,4.269,0,0,1,2.793-.879,4.66,4.66,0,0,1,2.09.453,3.436,3.436,0,0,1,1.422,1.25,3.2,3.2,0,0,1,.5,1.742H75.945a2.069,2.069,0,0,0-.656-1.621,2.675,2.675,0,0,0-1.852-.59,2.736,2.736,0,0,0-1.73.488,1.628,1.628,0,0,0-.621,1.355,1.465,1.465,0,0,0,.59,1.176,5.79,5.79,0,0,0,2.008.879,9.3,9.3,0,0,1,2.219.879A3.367,3.367,0,0,1,77.09,84.6a2.861,2.861,0,0,1,.387,1.508A2.658,2.658,0,0,1,76.4,88.324a4.6,4.6,0,0,1-2.883.832,5.347,5.347,0,0,1-2.187-.449,3.681,3.681,0,0,1-1.566-1.23,3,3,0,0,1-.551-1.773h1.508a1.959,1.959,0,0,0,.762,1.629,3.207,3.207,0,0,0,2.035.6,2.948,2.948,0,0,0,1.82-.484,1.573,1.573,0,0,0,.633-1.32,1.545,1.545,0,0,0-.586-1.293A6.755,6.755,0,0,0,73.258,83.93ZM2.82,101.547V106H1.32V94.625h4.2a4.215,4.215,0,0,1,2.926.953A3.231,3.231,0,0,1,9.5,98.1a3.189,3.189,0,0,1-1.035,2.551,4.4,4.4,0,0,1-2.965.895Zm0-1.227h2.7a2.7,2.7,0,0,0,1.844-.566A2.069,2.069,0,0,0,8,98.117a2.138,2.138,0,0,0-.641-1.625A2.528,2.528,0,0,0,5.6,95.859H2.82Zm16.6-5.7v7.734a3.628,3.628,0,0,1-1.012,2.633,4.077,4.077,0,0,1-2.723,1.148l-.4.016a4.258,4.258,0,0,1-2.977-1.008,3.6,3.6,0,0,1-1.125-2.773v-7.75h1.484v7.7a2.372,2.372,0,0,0,2.617,2.6,2.63,2.63,0,0,0,1.949-.68,2.6,2.6,0,0,0,.676-1.914V94.625Zm-3.406-3.047h1.75l-2.094,2.3H14.508ZM21.789,106V94.625h3.719a4.317,4.317,0,0,1,2.785.766,2.759,2.759,0,0,1,.934,2.266,2.31,2.31,0,0,1-.453,1.41,2.938,2.938,0,0,1-1.234.949A2.638,2.638,0,0,1,29,101a2.814,2.814,0,0,1,.535,1.723,3.042,3.042,0,0,1-.992,2.406,4.1,4.1,0,0,1-2.8.875Zm1.5-5.32v4.094h2.477a2.385,2.385,0,0,0,1.652-.543,1.907,1.907,0,0,0,.605-1.5q0-2.055-2.234-2.055Zm0-1.2h2.266a2.378,2.378,0,0,0,1.574-.492,1.649,1.649,0,0,0,.59-1.336,1.621,1.621,0,0,0-.547-1.363,2.69,2.69,0,0,0-1.664-.426H23.289Zm9.969,5.3h5.391V106h-6.9V94.625h1.508ZM41.969,106h-1.5V94.625h1.5Zm11.109-3.609a4.185,4.185,0,0,1-1.332,2.785,4.365,4.365,0,0,1-2.98.98,4.008,4.008,0,0,1-3.23-1.445,5.815,5.815,0,0,1-1.215-3.867V99.75a6.481,6.481,0,0,1,.566-2.789,4.231,4.231,0,0,1,1.605-1.848,4.47,4.47,0,0,1,2.406-.645A4.11,4.11,0,0,1,51.8,95.48a4.235,4.235,0,0,1,1.273,2.8H51.57a3.254,3.254,0,0,0-.848-1.969A2.569,2.569,0,0,0,48.9,95.7a2.685,2.685,0,0,0-2.254,1.063,4.875,4.875,0,0,0-.816,3.023v1.1a5.011,5.011,0,0,0,.773,2.945,2.5,2.5,0,0,0,2.164,1.094,2.887,2.887,0,0,0,1.918-.566,3.143,3.143,0,0,0,.887-1.973Zm10.8-1.711a7.037,7.037,0,0,1-.562,2.918,4.261,4.261,0,0,1-1.594,1.9,4.4,4.4,0,0,1-6.4-1.887,6.752,6.752,0,0,1-.59-2.832v-.82a6.953,6.953,0,0,1,.57-2.9,4.218,4.218,0,0,1,4-2.594,4.41,4.41,0,0,1,2.41.66,4.253,4.253,0,0,1,1.605,1.914,7.071,7.071,0,0,1,.563,2.918Zm-1.492-.734a5.1,5.1,0,0,0-.812-3.105A2.68,2.68,0,0,0,59.3,95.758a2.651,2.651,0,0,0-2.238,1.082,5,5,0,0,0-.84,3v.836a5.107,5.107,0,0,0,.824,3.082,2.888,2.888,0,0,0,4.52.063,5.079,5.079,0,0,0,.82-3.035Zm7.094.984a7.053,7.053,0,0,1-2.809-1.363,2.6,2.6,0,0,1-.879-2,2.751,2.751,0,0,1,1.074-2.223,4.269,4.269,0,0,1,2.793-.879,4.66,4.66,0,0,1,2.09.453,3.436,3.436,0,0,1,1.422,1.25,3.2,3.2,0,0,1,.5,1.742H72.164a2.069,2.069,0,0,0-.656-1.621,2.675,2.675,0,0,0-1.852-.59,2.736,2.736,0,0,0-1.73.488,1.628,1.628,0,0,0-.621,1.355,1.465,1.465,0,0,0,.59,1.176A5.79,5.79,0,0,0,69.9,99.6a9.3,9.3,0,0,1,2.219.879,3.367,3.367,0,0,1,1.188,1.121,2.861,2.861,0,0,1,.387,1.508,2.658,2.658,0,0,1-1.078,2.215,4.6,4.6,0,0,1-2.883.832,5.347,5.347,0,0,1-2.187-.449,3.681,3.681,0,0,1-1.566-1.23,3,3,0,0,1-.551-1.773h1.508a1.959,1.959,0,0,0,.762,1.629,3.207,3.207,0,0,0,2.035.6,2.948,2.948,0,0,0,1.82-.484,1.573,1.573,0,0,0,.633-1.32,1.545,1.545,0,0,0-.586-1.293A6.755,6.755,0,0,0,69.477,100.93Z" transform="translate(-5503 9606)"/><path class="f" d="M9.32,14.07a1.626,1.626,0,0,0-.5-1.211,4.508,4.508,0,0,0-1.7-.891,5.447,5.447,0,0,1-2.426-1.324A2.921,2.921,0,0,1,3.93,8.57a3,3,0,0,1,.746-2.1,3.17,3.17,0,0,1,2.051-.977V3.781H7.891V5.5A3.011,3.011,0,0,1,9.934,6.6a3.959,3.959,0,0,1,.73,2.523H9.227A2.706,2.706,0,0,0,8.7,7.375a1.722,1.722,0,0,0-1.414-.648,1.953,1.953,0,0,0-1.422.48,1.786,1.786,0,0,0-.492,1.34,1.632,1.632,0,0,0,.52,1.27,4.789,4.789,0,0,0,1.711.859,7.188,7.188,0,0,1,1.859.852,2.991,2.991,0,0,1,.984,1.082,3.128,3.128,0,0,1,.316,1.445,2.9,2.9,0,0,1-.793,2.125,3.516,3.516,0,0,1-2.223.953v1.492H6.594V17.133A3.369,3.369,0,0,1,4.316,16.1a3.493,3.493,0,0,1-.824-2.449H4.938a2.3,2.3,0,0,0,.57,1.672,2.153,2.153,0,0,0,1.617.586,2.426,2.426,0,0,0,1.609-.492A1.662,1.662,0,0,0,9.32,14.07ZM23.977,17H16.523V15.961l3.938-4.375a9.354,9.354,0,0,0,1.207-1.613A2.693,2.693,0,0,0,22,8.688a2.041,2.041,0,0,0-.539-1.461,1.885,1.885,0,0,0-1.437-.57,2.232,2.232,0,0,0-1.676.613,2.343,2.343,0,0,0-.6,1.707H16.3a3.355,3.355,0,0,1,1.012-2.539,3.751,3.751,0,0,1,2.707-.969,3.6,3.6,0,0,1,2.508.832,2.838,2.838,0,0,1,.922,2.215q0,1.68-2.141,4l-3.047,3.3h5.711Zm1.711-.758a.905.905,0,0,1,.223-.625.848.848,0,0,1,.668-.25.874.874,0,0,1,.676.25.887.887,0,0,1,.23.625.839.839,0,0,1-.23.6.89.89,0,0,1-.676.242.8.8,0,0,1-.891-.844Zm11.164-4.094a6.61,6.61,0,0,1-.867,3.773,3.084,3.084,0,0,1-2.711,1.234,3.107,3.107,0,0,1-2.7-1.207,6.274,6.274,0,0,1-.906-3.605v-1.93a6.463,6.463,0,0,1,.867-3.727,3.108,3.108,0,0,1,2.719-1.219,3.136,3.136,0,0,1,2.7,1.176,6.237,6.237,0,0,1,.891,3.629Zm-1.445-1.977A5.3,5.3,0,0,0,34.891,7.5a1.775,1.775,0,0,0-1.633-.84,1.751,1.751,0,0,0-1.617.836,5.171,5.171,0,0,0-.523,2.57v2.313a5.381,5.381,0,0,0,.535,2.723,1.771,1.771,0,0,0,1.621.879,1.747,1.747,0,0,0,1.59-.828,5.186,5.186,0,0,0,.543-2.609Zm10.43,1.977a6.61,6.61,0,0,1-.867,3.773,3.084,3.084,0,0,1-2.711,1.234,3.107,3.107,0,0,1-2.7-1.207,6.274,6.274,0,0,1-.906-3.605v-1.93a6.463,6.463,0,0,1,.867-3.727,3.108,3.108,0,0,1,2.719-1.219,3.136,3.136,0,0,1,2.7,1.176,6.237,6.237,0,0,1,.891,3.629Zm-1.445-1.977A5.3,5.3,0,0,0,43.875,7.5a1.775,1.775,0,0,0-1.633-.84,1.751,1.751,0,0,0-1.617.836,5.171,5.171,0,0,0-.523,2.57v2.313a5.381,5.381,0,0,0,.535,2.723,1.771,1.771,0,0,0,1.621.879,1.747,1.747,0,0,0,1.59-.828,5.186,5.186,0,0,0,.543-2.609Zm10.43,1.977a6.61,6.61,0,0,1-.867,3.773,3.6,3.6,0,0,1-5.406.027,6.274,6.274,0,0,1-.906-3.605v-1.93a6.463,6.463,0,0,1,.867-3.727,3.668,3.668,0,0,1,5.422-.043,6.237,6.237,0,0,1,.891,3.629Zm-1.445-1.977A5.3,5.3,0,0,0,52.859,7.5a1.775,1.775,0,0,0-1.633-.84,1.751,1.751,0,0,0-1.617.836,5.171,5.171,0,0,0-.523,2.57v2.313a5.381,5.381,0,0,0,.535,2.723,1.771,1.771,0,0,0,1.621.879,1.747,1.747,0,0,0,1.59-.828,5.186,5.186,0,0,0,.543-2.609Zm3.477,6.07a.905.905,0,0,1,.223-.625.848.848,0,0,1,.668-.25.874.874,0,0,1,.676.25.887.887,0,0,1,.23.625.839.839,0,0,1-.23.6.89.89,0,0,1-.676.242.8.8,0,0,1-.891-.844Zm11.164-4.094a6.61,6.61,0,0,1-.867,3.773,3.6,3.6,0,0,1-5.406.027,6.274,6.274,0,0,1-.906-3.605v-1.93A6.463,6.463,0,0,1,61.7,6.688a3.668,3.668,0,0,1,5.422-.043,6.237,6.237,0,0,1,.891,3.629ZM66.57,10.172A5.3,5.3,0,0,0,66.055,7.5a1.775,1.775,0,0,0-1.633-.84,1.751,1.751,0,0,0-1.617.836,5.171,5.171,0,0,0-.523,2.57v2.313a5.381,5.381,0,0,0,.535,2.723,1.771,1.771,0,0,0,1.621.879,1.747,1.747,0,0,0,1.59-.828,5.186,5.186,0,0,0,.543-2.609ZM77,12.148a6.61,6.61,0,0,1-.867,3.773,3.6,3.6,0,0,1-5.406.027,6.274,6.274,0,0,1-.906-3.605v-1.93a6.463,6.463,0,0,1,.867-3.727,3.668,3.668,0,0,1,5.422-.043A6.237,6.237,0,0,1,77,10.273Zm-1.445-1.977A5.3,5.3,0,0,0,75.039,7.5a1.775,1.775,0,0,0-1.633-.84,1.751,1.751,0,0,0-1.617.836,5.171,5.171,0,0,0-.523,2.57v2.313A5.381,5.381,0,0,0,71.8,15.1a1.771,1.771,0,0,0,1.621.879,1.747,1.747,0,0,0,1.59-.828,5.186,5.186,0,0,0,.543-2.609Zm10.43,1.977a6.61,6.61,0,0,1-.867,3.773,3.6,3.6,0,0,1-5.406.027,6.274,6.274,0,0,1-.906-3.605v-1.93a6.463,6.463,0,0,1,.867-3.727,3.668,3.668,0,0,1,5.422-.043,6.237,6.237,0,0,1,.891,3.629Zm-1.445-1.977A5.3,5.3,0,0,0,84.023,7.5a1.775,1.775,0,0,0-1.633-.84,1.751,1.751,0,0,0-1.617.836,5.171,5.171,0,0,0-.523,2.57v2.313a5.381,5.381,0,0,0,.535,2.723,1.771,1.771,0,0,0,1.621.879A1.747,1.747,0,0,0,84,15.148a5.186,5.186,0,0,0,.543-2.609Zm3.4,9.094-.82-.562a3.77,3.77,0,0,0,.766-2.109v-1.3H89.3v1.133A3.559,3.559,0,0,1,88.91,18,3.7,3.7,0,0,1,87.938,19.266Zm10.172-7.117a6.61,6.61,0,0,1-.867,3.773,3.6,3.6,0,0,1-5.406.027,6.274,6.274,0,0,1-.906-3.605v-1.93A6.463,6.463,0,0,1,91.8,6.688a3.668,3.668,0,0,1,5.422-.043,6.237,6.237,0,0,1,.891,3.629Zm-1.445-1.977A5.3,5.3,0,0,0,96.148,7.5a1.775,1.775,0,0,0-1.633-.84,1.751,1.751,0,0,0-1.617.836,5.171,5.171,0,0,0-.523,2.57v2.313A5.381,5.381,0,0,0,92.91,15.1a1.771,1.771,0,0,0,1.621.879,1.747,1.747,0,0,0,1.59-.828,5.186,5.186,0,0,0,.543-2.609Zm10.43,1.977a6.61,6.61,0,0,1-.867,3.773,3.6,3.6,0,0,1-5.406.027,6.274,6.274,0,0,1-.906-3.605v-1.93a6.463,6.463,0,0,1,.867-3.727,3.668,3.668,0,0,1,5.422-.043,6.237,6.237,0,0,1,.891,3.629Zm-1.445-1.977a5.3,5.3,0,0,0-.516-2.676,1.775,1.775,0,0,0-1.633-.84,1.751,1.751,0,0,0-1.617.836,5.171,5.171,0,0,0-.523,2.57v2.313a5.381,5.381,0,0,0,.535,2.723,1.771,1.771,0,0,0,1.621.879,1.747,1.747,0,0,0,1.59-.828,5.186,5.186,0,0,0,.543-2.609ZM9.32,93.07a1.626,1.626,0,0,0-.5-1.211,4.508,4.508,0,0,0-1.7-.891,5.447,5.447,0,0,1-2.426-1.324A2.921,2.921,0,0,1,3.93,87.57a3,3,0,0,1,.746-2.1,3.17,3.17,0,0,1,2.051-.977V82.781H7.891V84.5a3.011,3.011,0,0,1,2.043,1.1,3.959,3.959,0,0,1,.73,2.523H9.227a2.706,2.706,0,0,0-.523-1.75,1.722,1.722,0,0,0-1.414-.648,1.953,1.953,0,0,0-1.422.48,1.786,1.786,0,0,0-.492,1.34,1.632,1.632,0,0,0,.52,1.27,4.789,4.789,0,0,0,1.711.859,7.188,7.188,0,0,1,1.859.852,2.991,2.991,0,0,1,.984,1.082,3.128,3.128,0,0,1,.316,1.445,2.9,2.9,0,0,1-.793,2.125,3.516,3.516,0,0,1-2.223.953v1.492H6.594V96.133A3.369,3.369,0,0,1,4.316,95.1a3.493,3.493,0,0,1-.824-2.449H4.938a2.3,2.3,0,0,0,.57,1.672,2.153,2.153,0,0,0,1.617.586,2.426,2.426,0,0,0,1.609-.492A1.662,1.662,0,0,0,9.32,93.07ZM21.273,96H19.82V86.367l-2.914,1.07V86.125l4.141-1.555h.227Zm4.414-.758a.905.905,0,0,1,.223-.625.848.848,0,0,1,.668-.25.874.874,0,0,1,.676.25.887.887,0,0,1,.23.625.839.839,0,0,1-.23.6.89.89,0,0,1-.676.242.8.8,0,0,1-.891-.844Zm4.7-4.945.578-5.672h5.828v1.336h-4.6l-.344,3.1a3.671,3.671,0,0,1,1.9-.492A3.138,3.138,0,0,1,36.211,89.6a4.026,4.026,0,0,1,.914,2.777,3.886,3.886,0,0,1-.949,2.77,3.46,3.46,0,0,1-2.652,1.012,3.6,3.6,0,0,1-2.461-.836,3.337,3.337,0,0,1-1.086-2.312h1.367a2.3,2.3,0,0,0,.7,1.473,2.162,2.162,0,0,0,1.484.5,1.95,1.95,0,0,0,1.582-.687,2.874,2.874,0,0,0,.574-1.9,2.638,2.638,0,0,0-.621-1.832,2.113,2.113,0,0,0-1.652-.691,2.383,2.383,0,0,0-1.484.414l-.383.313Zm15.453.852a6.61,6.61,0,0,1-.867,3.773,3.084,3.084,0,0,1-2.711,1.234,3.107,3.107,0,0,1-2.7-1.207,6.274,6.274,0,0,1-.906-3.605v-1.93a6.463,6.463,0,0,1,.867-3.727,3.108,3.108,0,0,1,2.719-1.219,3.136,3.136,0,0,1,2.7,1.176,6.237,6.237,0,0,1,.891,3.629Zm-1.445-1.977a5.3,5.3,0,0,0-.516-2.676,1.775,1.775,0,0,0-1.633-.84,1.751,1.751,0,0,0-1.617.836,5.171,5.171,0,0,0-.523,2.57v2.313a5.381,5.381,0,0,0,.535,2.723,1.771,1.771,0,0,0,1.621.879,1.747,1.747,0,0,0,1.59-.828,5.186,5.186,0,0,0,.543-2.609Zm10.43,1.977a6.61,6.61,0,0,1-.867,3.773,3.6,3.6,0,0,1-5.406.027,6.274,6.274,0,0,1-.906-3.605v-1.93a6.463,6.463,0,0,1,.867-3.727,3.668,3.668,0,0,1,5.422-.043,6.237,6.237,0,0,1,.891,3.629Zm-1.445-1.977a5.3,5.3,0,0,0-.516-2.676,1.775,1.775,0,0,0-1.633-.84,1.751,1.751,0,0,0-1.617.836,5.171,5.171,0,0,0-.523,2.57v2.313a5.381,5.381,0,0,0,.535,2.723,1.771,1.771,0,0,0,1.621.879,1.747,1.747,0,0,0,1.59-.828,5.186,5.186,0,0,0,.543-2.609Zm3.477,6.07a.905.905,0,0,1,.223-.625.848.848,0,0,1,.668-.25.874.874,0,0,1,.676.25.887.887,0,0,1,.23.625.839.839,0,0,1-.23.6.89.89,0,0,1-.676.242.8.8,0,0,1-.891-.844Zm11.164-4.094a6.61,6.61,0,0,1-.867,3.773,3.6,3.6,0,0,1-5.406.027,6.274,6.274,0,0,1-.906-3.605v-1.93a6.463,6.463,0,0,1,.867-3.727,3.668,3.668,0,0,1,5.422-.043,6.237,6.237,0,0,1,.891,3.629ZM66.57,89.172a5.3,5.3,0,0,0-.516-2.676,1.775,1.775,0,0,0-1.633-.84,1.751,1.751,0,0,0-1.617.836,5.171,5.171,0,0,0-.523,2.57v2.313a5.381,5.381,0,0,0,.535,2.723,1.771,1.771,0,0,0,1.621.879,1.747,1.747,0,0,0,1.59-.828,5.186,5.186,0,0,0,.543-2.609ZM77,91.148a6.61,6.61,0,0,1-.867,3.773,3.6,3.6,0,0,1-5.406.027,6.274,6.274,0,0,1-.906-3.605v-1.93a6.463,6.463,0,0,1,.867-3.727,3.668,3.668,0,0,1,5.422-.043A6.237,6.237,0,0,1,77,89.273Zm-1.445-1.977a5.3,5.3,0,0,0-.516-2.676,1.775,1.775,0,0,0-1.633-.84,1.751,1.751,0,0,0-1.617.836,5.171,5.171,0,0,0-.523,2.57v2.313A5.381,5.381,0,0,0,71.8,94.1a1.771,1.771,0,0,0,1.621.879,1.747,1.747,0,0,0,1.59-.828,5.186,5.186,0,0,0,.543-2.609Zm10.43,1.977a6.61,6.61,0,0,1-.867,3.773,3.6,3.6,0,0,1-5.406.027,6.274,6.274,0,0,1-.906-3.605v-1.93a6.463,6.463,0,0,1,.867-3.727,3.668,3.668,0,0,1,5.422-.043,6.237,6.237,0,0,1,.891,3.629Zm-1.445-1.977a5.3,5.3,0,0,0-.516-2.676,1.775,1.775,0,0,0-1.633-.84,1.751,1.751,0,0,0-1.617.836,5.171,5.171,0,0,0-.523,2.57v2.313a5.381,5.381,0,0,0,.535,2.723,1.771,1.771,0,0,0,1.621.879A1.747,1.747,0,0,0,84,94.148a5.186,5.186,0,0,0,.543-2.609Zm3.4,9.094-.82-.562a3.77,3.77,0,0,0,.766-2.109v-1.3H89.3v1.133A3.559,3.559,0,0,1,88.91,97,3.7,3.7,0,0,1,87.938,98.266Zm10.172-7.117a6.61,6.61,0,0,1-.867,3.773,3.6,3.6,0,0,1-5.406.027,6.274,6.274,0,0,1-.906-3.605v-1.93a6.463,6.463,0,0,1,.867-3.727,3.668,3.668,0,0,1,5.422-.043,6.237,6.237,0,0,1,.891,3.629Zm-1.445-1.977a5.3,5.3,0,0,0-.516-2.676,1.775,1.775,0,0,0-1.633-.84,1.751,1.751,0,0,0-1.617.836,5.171,5.171,0,0,0-.523,2.57v2.313A5.381,5.381,0,0,0,92.91,94.1a1.771,1.771,0,0,0,1.621.879,1.747,1.747,0,0,0,1.59-.828,5.186,5.186,0,0,0,.543-2.609Zm10.43,1.977a6.61,6.61,0,0,1-.867,3.773,3.6,3.6,0,0,1-5.406.027,6.274,6.274,0,0,1-.906-3.605v-1.93a6.463,6.463,0,0,1,.867-3.727,3.668,3.668,0,0,1,5.422-.043,6.237,6.237,0,0,1,.891,3.629Zm-1.445-1.977a5.3,5.3,0,0,0-.516-2.676,1.775,1.775,0,0,0-1.633-.84,1.751,1.751,0,0,0-1.617.836,5.171,5.171,0,0,0-.523,2.57v2.313a5.381,5.381,0,0,0,.535,2.723,1.771,1.771,0,0,0,1.621.879,1.747,1.747,0,0,0,1.59-.828,5.186,5.186,0,0,0,.543-2.609Z" transform="translate(-4680 9610)"/></g></svg>