<svg xmlns="http://www.w3.org/2000/svg" width="1030" height="574.576" viewBox="0 0 1030 574.576"><defs><style>.a{fill:#f6f6f6;}.b{fill:#fff;}.c{fill:#12263f;}.d{fill:none;stroke:#afafaf;stroke-linecap:round;}.e{fill:#d9a171;}.f{fill:#6595bf;opacity:0.42;}</style></defs><g transform="translate(5527 -3681.747)"><path class="a" d="M0,0H1030V80H0Z" transform="translate(-5527 3795.151)"/><path class="a" d="M0,0H1030V80H0Z" transform="translate(-5527 3955.151)"/><path class="a" d="M0,0H1030V80H0Z" transform="translate(-5527 4095.823)"/><path class="b" d="M0,0H1030V80H0Z" transform="translate(-5527 3875.151)"/><path class="b" d="M0,0H1030V80H0Z" transform="translate(-5527 4175.823)"/><path class="c" d="M3.6,13.141V17H.859V5.625H5.4a5.287,5.287,0,0,1,2.309.48A3.621,3.621,0,0,1,9.262,7.473a3.734,3.734,0,0,1,.551,2.012,3.291,3.291,0,0,1-1.191,2.66,4.943,4.943,0,0,1-3.27,1Zm0-2.117H5.4a1.7,1.7,0,0,0,1.215-.4A1.48,1.48,0,0,0,7.031,9.5,1.83,1.83,0,0,0,6.6,8.227,1.522,1.522,0,0,0,5.43,7.742H3.6Zm11.9,1.961H14.016V17H11.273V5.625H15.75a4.993,4.993,0,0,1,3.164.9,3.046,3.046,0,0,1,1.141,2.539,3.7,3.7,0,0,1-.48,1.969,3.411,3.411,0,0,1-1.5,1.266l2.375,4.586V17H17.508Zm-1.484-2.117H15.75a1.559,1.559,0,0,0,1.176-.41,1.583,1.583,0,0,0,.395-1.145,1.6,1.6,0,0,0-.4-1.152,1.544,1.544,0,0,0-1.172-.418H14.016Zm17.328.68a6.708,6.708,0,0,1-.617,2.945,4.561,4.561,0,0,1-1.754,1.973,4.884,4.884,0,0,1-2.59.691,4.953,4.953,0,0,1-2.578-.668,4.554,4.554,0,0,1-1.754-1.91,6.515,6.515,0,0,1-.66-2.852v-.641A6.737,6.737,0,0,1,22,8.137a4.55,4.55,0,0,1,1.758-1.973,5.2,5.2,0,0,1,5.184-.008,4.632,4.632,0,0,1,1.762,1.957,6.544,6.544,0,0,1,.637,2.91Zm-2.789-.477A4.783,4.783,0,0,0,27.988,8.5a1.817,1.817,0,0,0-1.621-.879q-2.062,0-2.18,3.094l-.008.836a4.92,4.92,0,0,0,.555,2.57,1.814,1.814,0,0,0,1.648.9,1.792,1.792,0,0,0,1.6-.883,4.785,4.785,0,0,0,.57-2.539ZM37,13.906l2.266-8.281h3.063L38.5,17h-3L31.7,5.625h3.039ZM50.211,12.18H45.9v2.711h5.094V17H43.156V5.625h7.852V7.742H45.9v2.4h4.313Zm8.953,0H54.852v2.711h5.094V17H52.109V5.625h7.852V7.742H54.852v2.4h4.313Zm1.9,4.82V5.625h3.664a5.39,5.39,0,0,1,2.711.684,4.805,4.805,0,0,1,1.879,1.93A5.826,5.826,0,0,1,70,11.031v.523a5.86,5.86,0,0,1-.66,2.8,4.826,4.826,0,0,1-1.859,1.938A5.271,5.271,0,0,1,64.8,17ZM63.8,7.742v7.148h.953a2.133,2.133,0,0,0,1.813-.84,4.116,4.116,0,0,0,.633-2.5v-.492a4.082,4.082,0,0,0-.633-2.484,2.17,2.17,0,0,0-1.844-.836Zm17.234,3.8a6.708,6.708,0,0,1-.617,2.945,4.561,4.561,0,0,1-1.754,1.973,4.884,4.884,0,0,1-2.59.691,4.953,4.953,0,0,1-2.578-.668,4.554,4.554,0,0,1-1.754-1.91,6.515,6.515,0,0,1-.66-2.852v-.641A6.738,6.738,0,0,1,71.7,8.137a4.55,4.55,0,0,1,1.758-1.973,5.2,5.2,0,0,1,5.184-.008A4.632,4.632,0,0,1,80.4,8.113a6.544,6.544,0,0,1,.637,2.91ZM78.25,11.07A4.783,4.783,0,0,0,77.684,8.5a1.817,1.817,0,0,0-1.621-.879q-2.062,0-2.18,3.094l-.008.836a4.92,4.92,0,0,0,.555,2.57,1.814,1.814,0,0,0,1.648.9,1.792,1.792,0,0,0,1.6-.883,4.785,4.785,0,0,0,.57-2.539Zm8.43,1.914H85.2V17H82.453V5.625H86.93a4.993,4.993,0,0,1,3.164.9,3.046,3.046,0,0,1,1.141,2.539,3.7,3.7,0,0,1-.48,1.969,3.411,3.411,0,0,1-1.5,1.266l2.375,4.586V17H88.688ZM85.2,10.867H86.93a1.559,1.559,0,0,0,1.176-.41A1.583,1.583,0,0,0,88.5,9.313a1.6,1.6,0,0,0-.4-1.152,1.544,1.544,0,0,0-1.172-.418H85.2Zm14.75,1.313H95.633v2.711h5.094V17H92.891V5.625h7.852V7.742H95.633v2.4h4.313Zm7.766,1.8a1.127,1.127,0,0,0-.426-.937,5.292,5.292,0,0,0-1.5-.7,14.353,14.353,0,0,1-1.75-.7,3.314,3.314,0,0,1-2.211-2.984A2.676,2.676,0,0,1,102.379,7a3.562,3.562,0,0,1,1.559-1.125,6.065,6.065,0,0,1,2.266-.4,5.305,5.305,0,0,1,2.2.438,3.482,3.482,0,0,1,1.512,1.246A3.254,3.254,0,0,1,110.453,9h-2.734a1.375,1.375,0,0,0-.426-1.078,1.66,1.66,0,0,0-1.152-.383,1.872,1.872,0,0,0-1.16.324.955.955,0,0,0,.043,1.617,5.911,5.911,0,0,0,1.648.734,10.1,10.1,0,0,1,1.938.816,3.256,3.256,0,0,1,1.844,2.93,2.778,2.778,0,0,1-1.125,2.344,5,5,0,0,1-3.086.852,6.122,6.122,0,0,1-2.5-.5,3.775,3.775,0,0,1-1.687-1.359,3.542,3.542,0,0,1-.566-1.988h2.75a1.745,1.745,0,0,0,.473,1.348,2.234,2.234,0,0,0,1.535.434,1.765,1.765,0,0,0,1.074-.293A.967.967,0,0,0,107.711,13.977Z" transform="translate(-5517 3825.827)"/><path class="c" d="M3.6,13.141V17H.859V5.625H5.4a5.287,5.287,0,0,1,2.309.48A3.621,3.621,0,0,1,9.262,7.473a3.734,3.734,0,0,1,.551,2.012,3.291,3.291,0,0,1-1.191,2.66,4.943,4.943,0,0,1-3.27,1Zm0-2.117H5.4a1.7,1.7,0,0,0,1.215-.4A1.48,1.48,0,0,0,7.031,9.5,1.83,1.83,0,0,0,6.6,8.227,1.522,1.522,0,0,0,5.43,7.742H3.6Zm11.9,1.961H14.016V17H11.273V5.625H15.75a4.993,4.993,0,0,1,3.164.9,3.046,3.046,0,0,1,1.141,2.539,3.7,3.7,0,0,1-.48,1.969,3.411,3.411,0,0,1-1.5,1.266l2.375,4.586V17H17.508Zm-1.484-2.117H15.75a1.559,1.559,0,0,0,1.176-.41,1.583,1.583,0,0,0,.395-1.145,1.6,1.6,0,0,0-.4-1.152,1.544,1.544,0,0,0-1.172-.418H14.016Zm17.328.68a6.708,6.708,0,0,1-.617,2.945,4.561,4.561,0,0,1-1.754,1.973,4.884,4.884,0,0,1-2.59.691,4.953,4.953,0,0,1-2.578-.668,4.554,4.554,0,0,1-1.754-1.91,6.515,6.515,0,0,1-.66-2.852v-.641A6.737,6.737,0,0,1,22,8.137a4.55,4.55,0,0,1,1.758-1.973,5.2,5.2,0,0,1,5.184-.008,4.632,4.632,0,0,1,1.762,1.957,6.544,6.544,0,0,1,.637,2.91Zm-2.789-.477A4.783,4.783,0,0,0,27.988,8.5a1.817,1.817,0,0,0-1.621-.879q-2.062,0-2.18,3.094l-.008.836a4.92,4.92,0,0,0,.555,2.57,1.814,1.814,0,0,0,1.648.9,1.792,1.792,0,0,0,1.6-.883,4.785,4.785,0,0,0,.57-2.539Zm4.2,5.93V5.625h3.664a5.39,5.39,0,0,1,2.711.684,4.805,4.805,0,0,1,1.879,1.93,5.826,5.826,0,0,1,.684,2.793v.523a5.86,5.86,0,0,1-.66,2.8,4.826,4.826,0,0,1-1.859,1.938A5.271,5.271,0,0,1,36.5,17ZM35.5,7.742v7.148h.953a2.133,2.133,0,0,0,1.813-.84,4.116,4.116,0,0,0,.633-2.5v-.492a4.082,4.082,0,0,0-.633-2.484,2.17,2.17,0,0,0-1.844-.836ZM52.023,5.625V13.07a4.279,4.279,0,0,1-.539,2.191,3.492,3.492,0,0,1-1.547,1.41,5.449,5.449,0,0,1-2.383.484,4.708,4.708,0,0,1-3.273-1.078,3.845,3.845,0,0,1-1.219-2.953v-7.5H45.82V13.18q.047,1.867,1.734,1.867a1.679,1.679,0,0,0,1.289-.469,2.191,2.191,0,0,0,.438-1.523V5.625Zm10.914,7.523a4.154,4.154,0,0,1-.641,2.1,3.866,3.866,0,0,1-1.645,1.41,5.6,5.6,0,0,1-2.418.5A4.467,4.467,0,0,1,54.7,15.7a6.032,6.032,0,0,1-1.289-4.125v-.562A6.885,6.885,0,0,1,54,8.082a4.41,4.41,0,0,1,1.676-1.937A4.676,4.676,0,0,1,58.2,5.461a4.9,4.9,0,0,1,3.328,1.09,4.306,4.306,0,0,1,1.43,3H60.227A2.037,2.037,0,0,0,59.7,8.063a2.153,2.153,0,0,0-1.5-.453,1.638,1.638,0,0,0-1.5.766,4.921,4.921,0,0,0-.5,2.445v.8a5.445,5.445,0,0,0,.457,2.6,1.672,1.672,0,0,0,1.574.781,2.106,2.106,0,0,0,1.445-.445,1.89,1.89,0,0,0,.531-1.414Zm10.5,0a4.154,4.154,0,0,1-.641,2.1,3.866,3.866,0,0,1-1.645,1.41,5.6,5.6,0,0,1-2.418.5A4.467,4.467,0,0,1,65.2,15.7a6.032,6.032,0,0,1-1.289-4.125v-.562A6.885,6.885,0,0,1,64.5,8.082a4.41,4.41,0,0,1,1.676-1.937A4.676,4.676,0,0,1,68.7,5.461a4.9,4.9,0,0,1,3.328,1.09,4.306,4.306,0,0,1,1.43,3H70.727A2.037,2.037,0,0,0,70.2,8.063a2.153,2.153,0,0,0-1.5-.453,1.638,1.638,0,0,0-1.5.766,4.921,4.921,0,0,0-.5,2.445v.8a5.445,5.445,0,0,0,.457,2.6,1.672,1.672,0,0,0,1.574.781,2.106,2.106,0,0,0,1.445-.445,1.89,1.89,0,0,0,.531-1.414ZM77.656,17H74.922V5.625h2.734ZM89.2,11.547a6.708,6.708,0,0,1-.617,2.945,4.561,4.561,0,0,1-1.754,1.973,4.884,4.884,0,0,1-2.59.691,4.953,4.953,0,0,1-2.578-.668,4.554,4.554,0,0,1-1.754-1.91,6.515,6.515,0,0,1-.66-2.852v-.641a6.738,6.738,0,0,1,.613-2.949,4.55,4.55,0,0,1,1.758-1.973A5.2,5.2,0,0,1,86.8,6.156a4.632,4.632,0,0,1,1.762,1.957,6.544,6.544,0,0,1,.637,2.91Zm-2.789-.477A4.783,4.783,0,0,0,85.84,8.5a1.817,1.817,0,0,0-1.621-.879q-2.062,0-2.18,3.094l-.008.836a4.92,4.92,0,0,0,.555,2.57,1.814,1.814,0,0,0,1.648.9,1.792,1.792,0,0,0,1.6-.883,4.785,4.785,0,0,0,.57-2.539ZM84.539,2.578H87.32L85.148,5.031H83ZM100.109,17H97.383L93.352,9.922V17H90.609V5.625h2.742L97.375,12.7V5.625h2.734ZM3.781,38H1.047V26.625H3.781Zm11.406,0H12.461L8.43,30.922V38H5.688V26.625H8.43L12.453,33.7V26.625h2.734Zm10.664-9.258H22.438V38H19.7V28.742H16.344V26.625h9.508Zm8.211,4.438H29.75v2.711h5.094V38H27.008V26.625h7.852v2.117H29.75v2.4h4.313Zm6.125.8H38.7V38H35.961V26.625h4.477a4.993,4.993,0,0,1,3.164.9,3.046,3.046,0,0,1,1.141,2.539,3.7,3.7,0,0,1-.48,1.969,3.411,3.411,0,0,1-1.5,1.266l2.375,4.586V38H42.2ZM38.7,31.867h1.734a1.559,1.559,0,0,0,1.176-.41,1.583,1.583,0,0,0,.395-1.145,1.6,1.6,0,0,0-.4-1.152,1.544,1.544,0,0,0-1.172-.418H38.7ZM55.9,38H53.172l-4.031-7.078V38H46.4V26.625h2.742L53.164,33.7V26.625H55.9Zm8.2-2.125H60.336L59.68,38H56.75l4.172-11.375H63.5L67.7,38H64.758Zm-3.1-2.117h2.445l-1.227-3.945Z" transform="translate(-5385 3814.827)"/><path class="c" d="M25.617,11.742h-4.93v4.031h5.727V17H19.188V5.625h7.148V6.859H20.688v3.656h4.93ZM37.023,17H35.516L29.789,8.234V17H28.281V5.625h1.508l5.742,8.8v-8.8h1.492ZM47.547,6.859H43.891V17H42.4V6.859H38.75V5.625h8.8ZM53.406,12.4H50.734V17H49.227V5.625h3.766a4.457,4.457,0,0,1,2.957.875,3.148,3.148,0,0,1,1.035,2.547A3.062,3.062,0,0,1,56.41,10.9a3.428,3.428,0,0,1-1.6,1.18l2.672,4.828V17H55.875Zm-2.672-1.227h2.3a2.6,2.6,0,0,0,1.777-.578,1.953,1.953,0,0,0,.66-1.547,2.057,2.057,0,0,0-.629-1.617,2.666,2.666,0,0,0-1.816-.57h-2.3Zm14.633,2.859H60.6L59.531,17H57.984L62.328,5.625h1.313L67.992,17H66.453ZM61.055,12.8h3.867l-1.937-5.32ZM69.523,17V5.625h3.211a5.169,5.169,0,0,1,2.625.656,4.438,4.438,0,0,1,1.762,1.867,6.078,6.078,0,0,1,.629,2.781v.727a6.1,6.1,0,0,1-.621,2.82,4.369,4.369,0,0,1-1.773,1.859A5.5,5.5,0,0,1,72.672,17Zm1.5-10.141v8.914H72.6A3.435,3.435,0,0,0,75.3,14.7a4.452,4.452,0,0,0,.965-3.07v-.664a4.522,4.522,0,0,0-.91-3.012,3.24,3.24,0,0,0-2.582-1.09ZM86.3,14.031H81.531L80.461,17H78.914L83.258,5.625H84.57L88.922,17H87.383ZM81.984,12.8h3.867l-1.937-5.32Z" transform="translate(-5259 3985.651)"/><path class="c" d="M31.262,11.93a7.053,7.053,0,0,1-2.809-1.363,2.6,2.6,0,0,1-.879-2,2.751,2.751,0,0,1,1.074-2.223,4.269,4.269,0,0,1,2.793-.879,4.66,4.66,0,0,1,2.09.453,3.436,3.436,0,0,1,1.422,1.25,3.2,3.2,0,0,1,.5,1.742H33.949a2.069,2.069,0,0,0-.656-1.621,2.675,2.675,0,0,0-1.852-.59,2.736,2.736,0,0,0-1.73.488,1.628,1.628,0,0,0-.621,1.355,1.465,1.465,0,0,0,.59,1.176,5.79,5.79,0,0,0,2.008.879,9.3,9.3,0,0,1,2.219.879A3.367,3.367,0,0,1,35.094,12.6a2.861,2.861,0,0,1,.387,1.508A2.658,2.658,0,0,1,34.4,16.324a4.6,4.6,0,0,1-2.883.832,5.347,5.347,0,0,1-2.187-.449,3.681,3.681,0,0,1-1.566-1.23,3,3,0,0,1-.551-1.773h1.508a1.959,1.959,0,0,0,.762,1.629,3.207,3.207,0,0,0,2.035.6,2.948,2.948,0,0,0,1.82-.484,1.573,1.573,0,0,0,.633-1.32,1.545,1.545,0,0,0-.586-1.293A6.755,6.755,0,0,0,31.262,11.93Zm12.422,2.1H38.918L37.848,17H36.3L40.645,5.625h1.313L46.309,17H44.77ZM39.371,12.8h3.867L41.3,7.477Zm9.977,2.977h5.391V17h-6.9V5.625h1.508ZM58.059,17h-1.5V5.625h1.5ZM60.8,17V5.625h3.211a5.169,5.169,0,0,1,2.625.656A4.438,4.438,0,0,1,68.4,8.148a6.078,6.078,0,0,1,.629,2.781v.727a6.1,6.1,0,0,1-.621,2.82,4.369,4.369,0,0,1-1.773,1.859A5.5,5.5,0,0,1,63.949,17ZM62.3,6.859v8.914h1.578a3.435,3.435,0,0,0,2.7-1.078,4.452,4.452,0,0,0,.965-3.07v-.664a4.522,4.522,0,0,0-.91-3.012,3.24,3.24,0,0,0-2.582-1.09Zm15.273,7.172H72.809L71.738,17H70.191L74.535,5.625h1.313L80.2,17H78.66ZM73.262,12.8h3.867l-1.937-5.32Z" transform="translate(-5129 3985.651)"/><path class="c" d="M31.262,11.93a7.053,7.053,0,0,1-2.809-1.363,2.6,2.6,0,0,1-.879-2,2.751,2.751,0,0,1,1.074-2.223,4.269,4.269,0,0,1,2.793-.879,4.66,4.66,0,0,1,2.09.453,3.436,3.436,0,0,1,1.422,1.25,3.2,3.2,0,0,1,.5,1.742H33.949a2.069,2.069,0,0,0-.656-1.621,2.675,2.675,0,0,0-1.852-.59,2.736,2.736,0,0,0-1.73.488,1.628,1.628,0,0,0-.621,1.355,1.465,1.465,0,0,0,.59,1.176,5.79,5.79,0,0,0,2.008.879,9.3,9.3,0,0,1,2.219.879A3.367,3.367,0,0,1,35.094,12.6a2.861,2.861,0,0,1,.387,1.508A2.658,2.658,0,0,1,34.4,16.324a4.6,4.6,0,0,1-2.883.832,5.347,5.347,0,0,1-2.187-.449,3.681,3.681,0,0,1-1.566-1.23,3,3,0,0,1-.551-1.773h1.508a1.959,1.959,0,0,0,.762,1.629,3.207,3.207,0,0,0,2.035.6,2.948,2.948,0,0,0,1.82-.484,1.573,1.573,0,0,0,.633-1.32,1.545,1.545,0,0,0-.586-1.293A6.755,6.755,0,0,0,31.262,11.93Zm12.422,2.1H38.918L37.848,17H36.3L40.645,5.625h1.313L46.309,17H44.77ZM39.371,12.8h3.867L41.3,7.477Zm9.977,2.977h5.391V17h-6.9V5.625h1.508ZM58.059,17h-1.5V5.625h1.5ZM60.8,17V5.625h3.211a5.169,5.169,0,0,1,2.625.656A4.438,4.438,0,0,1,68.4,8.148a6.078,6.078,0,0,1,.629,2.781v.727a6.1,6.1,0,0,1-.621,2.82,4.369,4.369,0,0,1-1.773,1.859A5.5,5.5,0,0,1,63.949,17ZM62.3,6.859v8.914h1.578a3.435,3.435,0,0,0,2.7-1.078,4.452,4.452,0,0,0,.965-3.07v-.664a4.522,4.522,0,0,0-.91-3.012,3.24,3.24,0,0,0-2.582-1.09Zm15.273,7.172H72.809L71.738,17H70.191L74.535,5.625h1.313L80.2,17H78.66ZM73.262,12.8h3.867l-1.937-5.32Z" transform="translate(-5004 3985.651)"/><g transform="translate(-5527 3734.476)"><line class="d" y2="461.144" transform="translate(128.5 60.204)"/><line class="d" y2="461.144" transform="translate(0.5 60.204)"/><line class="d" y2="461.144" transform="translate(257.5 60.204)"/><line class="d" y2="461.144" transform="translate(386.5 60.204)"/><line class="d" y2="461.144" transform="translate(515.5 60.204)"/><line class="d" y2="461.144" transform="translate(643.501 60.204)"/><line class="d" y2="461.144" transform="translate(901.501 60.204)"/><line class="d" y2="461.144" transform="translate(772.501 60.204)"/><line class="d" y2="461.144" transform="translate(1029.5 60.204)"/></g><path class="d" d="M0,0V60" transform="translate(-4870.337 3734.68)"/><path class="e" d="M0,0H1030V60.672H0Z" transform="translate(-5527 3734.476)"/><path class="e" d="M0,0H1030V60.672H0Z" transform="translate(-5527 4035.151)"/><path class="b" d="M16.127,14.482h-1.67V19H11.373V6.2h5.036a5.617,5.617,0,0,1,3.56,1.011,3.426,3.426,0,0,1,1.283,2.856,4.163,4.163,0,0,1-.541,2.215,3.837,3.837,0,0,1-1.692,1.424l2.672,5.159V19h-3.3ZM14.458,12.1h1.951a1.754,1.754,0,0,0,1.323-.461,1.781,1.781,0,0,0,.444-1.288,1.8,1.8,0,0,0-.448-1.3,1.737,1.737,0,0,0-1.318-.47H14.458Zm16.594,1.477H26.2v3.05h5.73V19H23.115V6.2h8.833V8.585H26.2v2.7h4.852Zm10.2.325H36.272V19H33.187V6.2h8.561V8.585H36.272v2.944h4.975Zm9.721-.325H46.116v3.05h5.73V19H43.031V6.2h8.833V8.585H46.116v2.7h4.852Zm6.891.905h-1.67V19H53.1V6.2h5.036A5.617,5.617,0,0,1,61.7,7.214a3.426,3.426,0,0,1,1.283,2.856,4.163,4.163,0,0,1-.541,2.215,3.837,3.837,0,0,1-1.692,1.424l2.672,5.159V19h-3.3ZM56.188,12.1h1.951a1.754,1.754,0,0,0,1.323-.461,1.781,1.781,0,0,0,.444-1.288,1.8,1.8,0,0,0-.448-1.3,1.737,1.737,0,0,0-1.318-.47H56.188Zm16.594,1.477H67.93v3.05h5.73V19H64.845V6.2h8.833V8.585H67.93v2.7h4.852ZM85.6,19H82.538L78,11.037V19H74.917V6.2H78l4.526,7.963V6.2H85.6Zm12.3-4.333a4.673,4.673,0,0,1-.721,2.36,4.35,4.35,0,0,1-1.85,1.586,6.3,6.3,0,0,1-2.72.563,5.025,5.025,0,0,1-3.973-1.644,6.786,6.786,0,0,1-1.45-4.641v-.633a7.746,7.746,0,0,1,.655-3.292,4.961,4.961,0,0,1,1.885-2.18,5.26,5.26,0,0,1,2.848-.769,5.516,5.516,0,0,1,3.744,1.226,4.844,4.844,0,0,1,1.608,3.379H94.86a2.292,2.292,0,0,0-.589-1.679,2.422,2.422,0,0,0-1.687-.51A1.843,1.843,0,0,0,90.9,9.3a5.536,5.536,0,0,0-.562,2.751v.905a6.126,6.126,0,0,0,.514,2.927,1.882,1.882,0,0,0,1.771.879,2.369,2.369,0,0,0,1.626-.5,2.126,2.126,0,0,0,.6-1.591ZM102.656,19H99.58V6.2h3.076Zm9.413-2.391h-4.228L107.1,19h-3.3L108.5,6.2h2.9L116.129,19h-3.313Zm-3.489-2.382h2.751l-1.38-4.438Z" transform="translate(-5527 3749.355)"/><path class="b" d="M43.879,13.9H38.9V19H35.819V6.2H44.38V8.585H38.9v2.944h4.975Zm9.721-.325H48.748v3.05h5.73V19H45.663V6.2H54.5V8.585H48.748v2.7H53.6Zm12.489,1.09a4.673,4.673,0,0,1-.721,2.36,4.35,4.35,0,0,1-1.85,1.586,6.3,6.3,0,0,1-2.72.563,5.025,5.025,0,0,1-3.973-1.644,6.786,6.786,0,0,1-1.45-4.641v-.633a7.746,7.746,0,0,1,.655-3.292,4.961,4.961,0,0,1,1.885-2.18,5.26,5.26,0,0,1,2.848-.769,5.516,5.516,0,0,1,3.744,1.226,4.844,4.844,0,0,1,1.608,3.379H63.039a2.292,2.292,0,0,0-.589-1.679,2.422,2.422,0,0,0-1.687-.51,1.843,1.843,0,0,0-1.687.861,5.536,5.536,0,0,0-.562,2.751v.905a6.126,6.126,0,0,0,.514,2.927,1.882,1.882,0,0,0,1.771.879,2.369,2.369,0,0,0,1.626-.5,2.126,2.126,0,0,0,.6-1.591ZM78.244,19H75.177V13.656H70.633V19H67.548V6.2h3.085v5.08h4.544V6.2h3.067Zm9.378-2.391H83.395L82.656,19h-3.3L84.054,6.2h2.9L91.683,19H88.369Zm-3.489-2.382h2.751L85.5,9.789Z" transform="translate(-5527 4053.68)"/><path class="b" d="M6.222,19V6.2h4.122a6.064,6.064,0,0,1,3.05.769,5.406,5.406,0,0,1,2.114,2.171,6.554,6.554,0,0,1,.769,3.142v.589a6.592,6.592,0,0,1-.743,3.151,5.429,5.429,0,0,1-2.092,2.18,5.93,5.93,0,0,1-3.01.8ZM9.307,8.585v8.042h1.072a2.4,2.4,0,0,0,2.039-.945,4.63,4.63,0,0,0,.712-2.808V12.32a4.592,4.592,0,0,0-.712-2.795,2.442,2.442,0,0,0-2.074-.94ZM25.8,13.577H20.944v3.05h5.73V19H17.859V6.2h8.833V8.585H20.944v2.7H25.8ZM34.532,15.6a1.268,1.268,0,0,0-.479-1.055,5.954,5.954,0,0,0-1.683-.782,16.147,16.147,0,0,1-1.969-.782q-2.487-1.222-2.487-3.357a3.011,3.011,0,0,1,.62-1.876A4.008,4.008,0,0,1,30.287,6.48a6.823,6.823,0,0,1,2.549-.453,5.969,5.969,0,0,1,2.474.492,3.917,3.917,0,0,1,1.7,1.4A3.661,3.661,0,0,1,37.617,10H34.541a1.547,1.547,0,0,0-.479-1.213,1.867,1.867,0,0,0-1.3-.431,2.106,2.106,0,0,0-1.305.365,1.074,1.074,0,0,0,.048,1.819,6.65,6.65,0,0,0,1.854.826,11.36,11.36,0,0,1,2.18.918,3.663,3.663,0,0,1,2.074,3.3,3.125,3.125,0,0,1-1.266,2.637,5.629,5.629,0,0,1-3.472.958,6.888,6.888,0,0,1-2.817-.558,4.247,4.247,0,0,1-1.9-1.529,3.985,3.985,0,0,1-.637-2.237h3.094a1.963,1.963,0,0,0,.532,1.516,2.513,2.513,0,0,0,1.727.488,1.985,1.985,0,0,0,1.208-.33A1.088,1.088,0,0,0,34.532,15.6Zm15.021-.932a4.673,4.673,0,0,1-.721,2.36,4.35,4.35,0,0,1-1.85,1.586,6.3,6.3,0,0,1-2.72.563,5.025,5.025,0,0,1-3.973-1.644,6.786,6.786,0,0,1-1.45-4.641v-.633a7.746,7.746,0,0,1,.655-3.292,4.961,4.961,0,0,1,1.885-2.18,5.26,5.26,0,0,1,2.848-.769A5.516,5.516,0,0,1,47.97,7.245a4.844,4.844,0,0,1,1.608,3.379H46.5a2.292,2.292,0,0,0-.589-1.679,2.422,2.422,0,0,0-1.687-.51,1.843,1.843,0,0,0-1.687.861,5.536,5.536,0,0,0-.562,2.751v.905a6.126,6.126,0,0,0,.514,2.927,1.882,1.882,0,0,0,1.771.879,2.369,2.369,0,0,0,1.626-.5,2.126,2.126,0,0,0,.6-1.591Zm6.214-.185H54.1V19H51.011V6.2h5.036a5.617,5.617,0,0,1,3.56,1.011A3.426,3.426,0,0,1,60.89,10.07a4.163,4.163,0,0,1-.541,2.215,3.837,3.837,0,0,1-1.692,1.424l2.672,5.159V19h-3.3ZM54.1,12.1h1.951a1.754,1.754,0,0,0,1.323-.461,1.781,1.781,0,0,0,.444-1.288,1.8,1.8,0,0,0-.448-1.3,1.737,1.737,0,0,0-1.318-.47H54.1ZM66.041,19H62.964V6.2h3.076Zm5.229-4.342V19H68.185V6.2h5.106a5.948,5.948,0,0,1,2.6.541,4.074,4.074,0,0,1,1.749,1.538,4.2,4.2,0,0,1,.62,2.263,3.7,3.7,0,0,1-1.34,2.993,5.561,5.561,0,0,1-3.678,1.121Zm0-2.382h2.021a1.906,1.906,0,0,0,1.367-.448,1.665,1.665,0,0,0,.47-1.266,2.059,2.059,0,0,0-.483-1.433,1.712,1.712,0,0,0-1.318-.545H71.27Zm18.984,2.391a4.673,4.673,0,0,1-.721,2.36,4.35,4.35,0,0,1-1.85,1.586,6.3,6.3,0,0,1-2.72.563,5.025,5.025,0,0,1-3.973-1.644,6.786,6.786,0,0,1-1.45-4.641v-.633A7.746,7.746,0,0,1,80.2,8.967a4.961,4.961,0,0,1,1.885-2.18,5.26,5.26,0,0,1,2.848-.769,5.516,5.516,0,0,1,3.744,1.226,4.844,4.844,0,0,1,1.608,3.379H87.2a2.292,2.292,0,0,0-.589-1.679,2.422,2.422,0,0,0-1.687-.51,1.843,1.843,0,0,0-1.687.861,5.536,5.536,0,0,0-.562,2.751v.905a6.126,6.126,0,0,0,.514,2.927,1.882,1.882,0,0,0,1.771.879,2.369,2.369,0,0,0,1.626-.5,2.126,2.126,0,0,0,.6-1.591ZM95,19H91.924V6.2H95Zm12.981-6.135a7.546,7.546,0,0,1-.694,3.313,5.132,5.132,0,0,1-1.973,2.219,5.494,5.494,0,0,1-2.914.778,5.572,5.572,0,0,1-2.9-.751,5.123,5.123,0,0,1-1.973-2.149,7.329,7.329,0,0,1-.743-3.208v-.721a7.58,7.58,0,0,1,.69-3.318A5.119,5.119,0,0,1,99.452,6.81a5.854,5.854,0,0,1,5.832-.009A5.211,5.211,0,0,1,107.266,9a7.362,7.362,0,0,1,.716,3.274Zm-3.138-.536a5.381,5.381,0,0,0-.637-2.9,2.044,2.044,0,0,0-1.824-.989q-2.32,0-2.452,3.48l-.009.94a5.535,5.535,0,0,0,.624,2.892,2.041,2.041,0,0,0,1.854,1.011,2.016,2.016,0,0,0,1.8-.993,5.383,5.383,0,0,0,.642-2.856Zm-2.1-9.554h3.129l-2.443,2.76h-2.417ZM120.26,19h-3.067l-4.535-7.963V19h-3.085V6.2h3.085l4.526,7.963V6.2h3.076Z" transform="translate(-5395 4053.68)"/><path class="b" d="M30.058,14.667a4.673,4.673,0,0,1-.721,2.36,4.35,4.35,0,0,1-1.85,1.586,6.3,6.3,0,0,1-2.72.563,5.025,5.025,0,0,1-3.973-1.644,6.786,6.786,0,0,1-1.45-4.641v-.633A7.746,7.746,0,0,1,20,8.967a4.961,4.961,0,0,1,1.885-2.18,5.26,5.26,0,0,1,2.848-.769,5.516,5.516,0,0,1,3.744,1.226,4.844,4.844,0,0,1,1.608,3.379H27.008a2.292,2.292,0,0,0-.589-1.679,2.422,2.422,0,0,0-1.687-.51,1.843,1.843,0,0,0-1.687.861,5.536,5.536,0,0,0-.562,2.751v.905A6.126,6.126,0,0,0,23,15.88a1.882,1.882,0,0,0,1.771.879,2.369,2.369,0,0,0,1.626-.5,2.126,2.126,0,0,0,.6-1.591Zm8.728,1.942H34.558L33.82,19h-3.3L35.217,6.2h2.9L42.846,19H39.533ZM35.3,14.228h2.751l-1.38-4.438ZM54.465,19H51.4l-4.535-7.963V19H43.778V6.2h3.085l4.526,7.963V6.2h3.076Zm12-10.415H62.622V19H59.537V8.585H55.766V6.2h10.7ZM71.05,19H67.974V6.2H71.05Zm2.145,0V6.2h4.122a6.064,6.064,0,0,1,3.05.769A5.406,5.406,0,0,1,82.48,9.143a6.554,6.554,0,0,1,.769,3.142v.589a6.592,6.592,0,0,1-.743,3.151,5.429,5.429,0,0,1-2.092,2.18,5.93,5.93,0,0,1-3.01.8ZM76.28,8.585v8.042h1.072a2.4,2.4,0,0,0,2.039-.945,4.63,4.63,0,0,0,.712-2.808V12.32a4.592,4.592,0,0,0-.712-2.795,2.442,2.442,0,0,0-2.074-.94ZM92.1,16.609H87.873L87.134,19h-3.3L88.532,6.2h2.9L96.161,19H92.847Zm-3.489-2.382h2.751l-1.38-4.438ZM97.092,19V6.2h4.122a6.064,6.064,0,0,1,3.05.769,5.406,5.406,0,0,1,2.114,2.171,6.554,6.554,0,0,1,.769,3.142v.589a6.592,6.592,0,0,1-.743,3.151,5.429,5.429,0,0,1-2.092,2.18,5.93,5.93,0,0,1-3.01.8Zm3.085-10.415v8.042h1.072a2.4,2.4,0,0,0,2.039-.945A4.63,4.63,0,0,0,104,12.874V12.32a4.592,4.592,0,0,0-.712-2.795,2.442,2.442,0,0,0-2.074-.94Z" transform="translate(-5269 4053.68)"/><path class="b" d="M40.754,15.52,43.3,6.2h3.445L42.442,19H39.067L34.8,6.2h3.419Zm13.535,1.09H50.062L49.324,19h-3.3L50.721,6.2h2.9L58.35,19H55.037ZM50.8,14.228h2.751l-1.38-4.438Zm11.566,2.4h5.37V19H59.282V6.2h3.085Zm16.945-3.762a7.546,7.546,0,0,1-.694,3.313A5.132,5.132,0,0,1,76.645,18.4a5.494,5.494,0,0,1-2.914.778,5.572,5.572,0,0,1-2.9-.751,5.123,5.123,0,0,1-1.973-2.149,7.329,7.329,0,0,1-.743-3.208v-.721a7.58,7.58,0,0,1,.69-3.318A5.119,5.119,0,0,1,70.782,6.81,5.854,5.854,0,0,1,76.614,6.8,5.211,5.211,0,0,1,78.6,9a7.362,7.362,0,0,1,.716,3.274Zm-3.138-.536a5.381,5.381,0,0,0-.637-2.9,2.044,2.044,0,0,0-1.824-.989q-2.32,0-2.452,3.48l-.009.94a5.535,5.535,0,0,0,.624,2.892,2.041,2.041,0,0,0,1.854,1.011,2.016,2.016,0,0,0,1.8-.993,5.383,5.383,0,0,0,.642-2.856Zm9.483,2.153h-1.67V19H80.9V6.2h5.036A5.617,5.617,0,0,1,89.5,7.214a3.426,3.426,0,0,1,1.283,2.856,4.163,4.163,0,0,1-.541,2.215,3.837,3.837,0,0,1-1.692,1.424l2.672,5.159V19h-3.3ZM83.988,12.1h1.951a1.754,1.754,0,0,0,1.323-.461,1.781,1.781,0,0,0,.444-1.288,1.8,1.8,0,0,0-.448-1.3,1.737,1.737,0,0,0-1.318-.47H83.988ZM46.718,27.585H42.877V38H39.792V27.585H36.021V25.2h10.7Zm11.892,4.28a7.546,7.546,0,0,1-.694,3.313A5.132,5.132,0,0,1,55.942,37.4a5.494,5.494,0,0,1-2.914.778,5.572,5.572,0,0,1-2.9-.751,5.123,5.123,0,0,1-1.973-2.149,7.329,7.329,0,0,1-.743-3.208v-.721a7.58,7.58,0,0,1,.69-3.318A5.119,5.119,0,0,1,50.08,25.81a5.854,5.854,0,0,1,5.832-.009A5.211,5.211,0,0,1,57.893,28a7.362,7.362,0,0,1,.716,3.274Zm-3.138-.536a5.381,5.381,0,0,0-.637-2.9,2.044,2.044,0,0,0-1.824-.989q-2.32,0-2.452,3.48l-.009.94a5.535,5.535,0,0,0,.624,2.892,2.041,2.041,0,0,0,1.854,1.011,2.016,2.016,0,0,0,1.8-.993,5.383,5.383,0,0,0,.642-2.856ZM69.5,27.585H65.658V38H62.573V27.585H58.8V25.2H69.5Zm7.515,8.024H72.786L72.048,38h-3.3l4.693-12.8h2.9L81.074,38H77.761Zm-3.489-2.382h2.751L74.9,28.789Zm11.566,2.4h5.37V38H82.006V25.2h3.085Z" transform="translate(-5137 4045)"/><path class="b" d="M30.058,14.667a4.673,4.673,0,0,1-.721,2.36,4.35,4.35,0,0,1-1.85,1.586,6.3,6.3,0,0,1-2.72.563,5.025,5.025,0,0,1-3.973-1.644,6.786,6.786,0,0,1-1.45-4.641v-.633A7.746,7.746,0,0,1,20,8.967a4.961,4.961,0,0,1,1.885-2.18,5.26,5.26,0,0,1,2.848-.769,5.516,5.516,0,0,1,3.744,1.226,4.844,4.844,0,0,1,1.608,3.379H27.008a2.292,2.292,0,0,0-.589-1.679,2.422,2.422,0,0,0-1.687-.51,1.843,1.843,0,0,0-1.687.861,5.536,5.536,0,0,0-.562,2.751v.905A6.126,6.126,0,0,0,23,15.88a1.882,1.882,0,0,0,1.771.879,2.369,2.369,0,0,0,1.626-.5,2.126,2.126,0,0,0,.6-1.591Zm8.728,1.942H34.558L33.82,19h-3.3L35.217,6.2h2.9L42.846,19H39.533ZM35.3,14.228h2.751l-1.38-4.438ZM54.465,19H51.4l-4.535-7.963V19H43.778V6.2h3.085l4.526,7.963V6.2h3.076Zm12-10.415H62.622V19H59.537V8.585H55.766V6.2h10.7ZM71.05,19H67.974V6.2H71.05Zm2.145,0V6.2h4.122a6.064,6.064,0,0,1,3.05.769A5.406,5.406,0,0,1,82.48,9.143a6.554,6.554,0,0,1,.769,3.142v.589a6.592,6.592,0,0,1-.743,3.151,5.429,5.429,0,0,1-2.092,2.18,5.93,5.93,0,0,1-3.01.8ZM76.28,8.585v8.042h1.072a2.4,2.4,0,0,0,2.039-.945,4.63,4.63,0,0,0,.712-2.808V12.32a4.592,4.592,0,0,0-.712-2.795,2.442,2.442,0,0,0-2.074-.94ZM92.1,16.609H87.873L87.134,19h-3.3L88.532,6.2h2.9L96.161,19H92.847Zm-3.489-2.382h2.751l-1.38-4.438ZM97.092,19V6.2h4.122a6.064,6.064,0,0,1,3.05.769,5.406,5.406,0,0,1,2.114,2.171,6.554,6.554,0,0,1,.769,3.142v.589a6.592,6.592,0,0,1-.743,3.151,5.429,5.429,0,0,1-2.092,2.18,5.93,5.93,0,0,1-3.01.8Zm3.085-10.415v8.042h1.072a2.4,2.4,0,0,0,2.039-.945A4.63,4.63,0,0,0,104,12.874V12.32a4.592,4.592,0,0,0-.712-2.795,2.442,2.442,0,0,0-2.074-.94Z" transform="translate(-5012 4053.68)"/><path class="b" d="M40.754,15.52,43.3,6.2h3.445L42.442,19H39.067L34.8,6.2h3.419Zm13.535,1.09H50.062L49.324,19h-3.3L50.721,6.2h2.9L58.35,19H55.037ZM50.8,14.228h2.751l-1.38-4.438Zm11.566,2.4h5.37V19H59.282V6.2h3.085Zm16.945-3.762a7.546,7.546,0,0,1-.694,3.313A5.132,5.132,0,0,1,76.645,18.4a5.494,5.494,0,0,1-2.914.778,5.572,5.572,0,0,1-2.9-.751,5.123,5.123,0,0,1-1.973-2.149,7.329,7.329,0,0,1-.743-3.208v-.721a7.58,7.58,0,0,1,.69-3.318A5.119,5.119,0,0,1,70.782,6.81,5.854,5.854,0,0,1,76.614,6.8,5.211,5.211,0,0,1,78.6,9a7.362,7.362,0,0,1,.716,3.274Zm-3.138-.536a5.381,5.381,0,0,0-.637-2.9,2.044,2.044,0,0,0-1.824-.989q-2.32,0-2.452,3.48l-.009.94a5.535,5.535,0,0,0,.624,2.892,2.041,2.041,0,0,0,1.854,1.011,2.016,2.016,0,0,0,1.8-.993,5.383,5.383,0,0,0,.642-2.856Zm9.483,2.153h-1.67V19H80.9V6.2h5.036A5.617,5.617,0,0,1,89.5,7.214a3.426,3.426,0,0,1,1.283,2.856,4.163,4.163,0,0,1-.541,2.215,3.837,3.837,0,0,1-1.692,1.424l2.672,5.159V19h-3.3ZM83.988,12.1h1.951a1.754,1.754,0,0,0,1.323-.461,1.781,1.781,0,0,0,.444-1.288,1.8,1.8,0,0,0-.448-1.3,1.737,1.737,0,0,0-1.318-.47H83.988ZM48.7,27.585H44.854V38H41.77V27.585H38V25.2H48.7Zm11.892,4.28a7.546,7.546,0,0,1-.694,3.313A5.132,5.132,0,0,1,57.919,37.4a5.494,5.494,0,0,1-2.914.778,5.572,5.572,0,0,1-2.9-.751,5.123,5.123,0,0,1-1.973-2.149,7.329,7.329,0,0,1-.743-3.208v-.721a7.58,7.58,0,0,1,.69-3.318,5.119,5.119,0,0,1,1.978-2.219,5.854,5.854,0,0,1,5.832-.009A5.211,5.211,0,0,1,59.871,28a7.362,7.362,0,0,1,.716,3.274Zm-3.138-.536a5.381,5.381,0,0,0-.637-2.9,2.044,2.044,0,0,0-1.824-.989q-2.32,0-2.452,3.48l-.009.94a5.535,5.535,0,0,0,.624,2.892,2.041,2.041,0,0,0,1.854,1.011,2.016,2.016,0,0,0,1.8-.993,5.383,5.383,0,0,0,.642-2.856Zm14.027-3.744H67.636V38H64.551V27.585H60.78V25.2h10.7Zm7.515,8.024H74.764L74.025,38h-3.3l4.693-12.8h2.9L83.052,38H79.738ZM75.5,33.228h2.751l-1.38-4.438Zm11.566,2.4h5.37V38H83.983V25.2h3.085Z" transform="translate(-4880 4045)"/><path class="b" d="M40.754,15.52,43.3,6.2h3.445L42.442,19H39.067L34.8,6.2h3.419Zm13.535,1.09H50.062L49.324,19h-3.3L50.721,6.2h2.9L58.35,19H55.037ZM50.8,14.228h2.751l-1.38-4.438Zm11.566,2.4h5.37V19H59.282V6.2h3.085Zm16.945-3.762a7.546,7.546,0,0,1-.694,3.313A5.132,5.132,0,0,1,76.645,18.4a5.494,5.494,0,0,1-2.914.778,5.572,5.572,0,0,1-2.9-.751,5.123,5.123,0,0,1-1.973-2.149,7.329,7.329,0,0,1-.743-3.208v-.721a7.58,7.58,0,0,1,.69-3.318A5.119,5.119,0,0,1,70.782,6.81,5.854,5.854,0,0,1,76.614,6.8,5.211,5.211,0,0,1,78.6,9a7.362,7.362,0,0,1,.716,3.274Zm-3.138-.536a5.381,5.381,0,0,0-.637-2.9,2.044,2.044,0,0,0-1.824-.989q-2.32,0-2.452,3.48l-.009.94a5.535,5.535,0,0,0,.624,2.892,2.041,2.041,0,0,0,1.854,1.011,2.016,2.016,0,0,0,1.8-.993,5.383,5.383,0,0,0,.642-2.856Zm9.483,2.153h-1.67V19H80.9V6.2h5.036A5.617,5.617,0,0,1,89.5,7.214a3.426,3.426,0,0,1,1.283,2.856,4.163,4.163,0,0,1-.541,2.215,3.837,3.837,0,0,1-1.692,1.424l2.672,5.159V19h-3.3ZM83.988,12.1h1.951a1.754,1.754,0,0,0,1.323-.461,1.781,1.781,0,0,0,.444-1.288,1.8,1.8,0,0,0-.448-1.3,1.737,1.737,0,0,0-1.318-.47H83.988ZM33.161,25.2v8.376a4.814,4.814,0,0,1-.606,2.465,3.929,3.929,0,0,1-1.74,1.586,6.131,6.131,0,0,1-2.681.545,5.3,5.3,0,0,1-3.683-1.213,4.326,4.326,0,0,1-1.371-3.322V25.2h3.1v8.5q.053,2.1,1.951,2.1a1.889,1.889,0,0,0,1.45-.527,2.465,2.465,0,0,0,.492-1.714V25.2ZM45.773,38H42.706L38.17,30.037V38H35.085V25.2H38.17L42.7,33.166V25.2h3.076Zm5.238,0H47.935V25.2h3.076ZM63.2,27.585H59.361V38H56.276V27.585H52.505V25.2H63.2Zm7.515,8.024H66.489L65.75,38h-3.3l4.693-12.8h2.9L74.777,38H71.463Zm-3.489-2.382h2.751L68.6,28.789Zm13.236.255h-1.67V38H75.708V25.2h5.036a5.617,5.617,0,0,1,3.56,1.011,3.426,3.426,0,0,1,1.283,2.856,4.163,4.163,0,0,1-.541,2.215,3.837,3.837,0,0,1-1.692,1.424l2.672,5.159V38h-3.3ZM78.793,31.1h1.951a1.754,1.754,0,0,0,1.323-.461,1.781,1.781,0,0,0,.444-1.288,1.8,1.8,0,0,0-.448-1.3,1.737,1.737,0,0,0-1.318-.47H78.793ZM90.738,38H87.662V25.2h3.076Zm12.981-6.135a7.546,7.546,0,0,1-.694,3.313,5.132,5.132,0,0,1-1.973,2.219,5.494,5.494,0,0,1-2.914.778,5.572,5.572,0,0,1-2.9-.751,5.123,5.123,0,0,1-1.973-2.149,7.329,7.329,0,0,1-.743-3.208v-.721a7.58,7.58,0,0,1,.69-3.318,5.119,5.119,0,0,1,1.978-2.219,5.854,5.854,0,0,1,5.832-.009A5.211,5.211,0,0,1,103,28a7.362,7.362,0,0,1,.716,3.274Zm-3.138-.536a5.381,5.381,0,0,0-.637-2.9,2.044,2.044,0,0,0-1.824-.989q-2.32,0-2.452,3.48l-.009.94a5.535,5.535,0,0,0,.624,2.892,2.041,2.041,0,0,0,1.854,1.011,2.016,2.016,0,0,0,1.8-.993,5.383,5.383,0,0,0,.642-2.856Z" transform="translate(-4748 4045)"/><path class="b" d="M40.754,15.52,43.3,6.2h3.445L42.442,19H39.067L34.8,6.2h3.419Zm13.535,1.09H50.062L49.324,19h-3.3L50.721,6.2h2.9L58.35,19H55.037ZM50.8,14.228h2.751l-1.38-4.438Zm11.566,2.4h5.37V19H59.282V6.2h3.085Zm16.945-3.762a7.546,7.546,0,0,1-.694,3.313A5.132,5.132,0,0,1,76.645,18.4a5.494,5.494,0,0,1-2.914.778,5.572,5.572,0,0,1-2.9-.751,5.123,5.123,0,0,1-1.973-2.149,7.329,7.329,0,0,1-.743-3.208v-.721a7.58,7.58,0,0,1,.69-3.318A5.119,5.119,0,0,1,70.782,6.81,5.854,5.854,0,0,1,76.614,6.8,5.211,5.211,0,0,1,78.6,9a7.362,7.362,0,0,1,.716,3.274Zm-3.138-.536a5.381,5.381,0,0,0-.637-2.9,2.044,2.044,0,0,0-1.824-.989q-2.32,0-2.452,3.48l-.009.94a5.535,5.535,0,0,0,.624,2.892,2.041,2.041,0,0,0,1.854,1.011,2.016,2.016,0,0,0,1.8-.993,5.383,5.383,0,0,0,.642-2.856Zm9.483,2.153h-1.67V19H80.9V6.2h5.036A5.617,5.617,0,0,1,89.5,7.214a3.426,3.426,0,0,1,1.283,2.856,4.163,4.163,0,0,1-.541,2.215,3.837,3.837,0,0,1-1.692,1.424l2.672,5.159V19h-3.3ZM83.988,12.1h1.951a1.754,1.754,0,0,0,1.323-.461,1.781,1.781,0,0,0,.444-1.288,1.8,1.8,0,0,0-.448-1.3,1.737,1.737,0,0,0-1.318-.47H83.988ZM48.7,27.585H44.854V38H41.77V27.585H38V25.2H48.7Zm11.892,4.28a7.546,7.546,0,0,1-.694,3.313A5.132,5.132,0,0,1,57.919,37.4a5.494,5.494,0,0,1-2.914.778,5.572,5.572,0,0,1-2.9-.751,5.123,5.123,0,0,1-1.973-2.149,7.329,7.329,0,0,1-.743-3.208v-.721a7.58,7.58,0,0,1,.69-3.318,5.119,5.119,0,0,1,1.978-2.219,5.854,5.854,0,0,1,5.832-.009A5.211,5.211,0,0,1,59.871,28a7.362,7.362,0,0,1,.716,3.274Zm-3.138-.536a5.381,5.381,0,0,0-.637-2.9,2.044,2.044,0,0,0-1.824-.989q-2.32,0-2.452,3.48l-.009.94a5.535,5.535,0,0,0,.624,2.892,2.041,2.041,0,0,0,1.854,1.011,2.016,2.016,0,0,0,1.8-.993,5.383,5.383,0,0,0,.642-2.856Zm14.027-3.744H67.636V38H64.551V27.585H60.78V25.2h10.7Zm7.515,8.024H74.764L74.025,38h-3.3l4.693-12.8h2.9L83.052,38H79.738ZM75.5,33.228h2.751l-1.38-4.438Zm11.566,2.4h5.37V38H83.983V25.2h3.085Z" transform="translate(-4624 4045)"/><path class="b" d="M50.339,6.019V8.348h-.132a4.447,4.447,0,0,0-2.729.8,3.358,3.358,0,0,0-1.314,2.21,3.464,3.464,0,0,1,2.531-.984,3.231,3.231,0,0,1,2.646,1.213,4.892,4.892,0,0,1,.984,3.182A4.48,4.48,0,0,1,51.75,17a4.108,4.108,0,0,1-1.608,1.6,4.622,4.622,0,0,1-2.29.576,4.777,4.777,0,0,1-2.435-.62,4.26,4.26,0,0,1-1.67-1.771,5.832,5.832,0,0,1-.615-2.654V12.944a7.387,7.387,0,0,1,.848-3.555A6.149,6.149,0,0,1,46.4,6.915a6.923,6.923,0,0,1,3.489-.9Zm-2.672,6.618a1.7,1.7,0,0,0-.984.272,1.73,1.73,0,0,0-.589.668v.888q0,2.426,1.679,2.426a1.362,1.362,0,0,0,1.129-.606,2.472,2.472,0,0,0,.453-1.521,2.426,2.426,0,0,0-.461-1.534A1.476,1.476,0,0,0,47.667,12.637Zm13.1-6.618V8.348h-.132a4.447,4.447,0,0,0-2.729.8,3.358,3.358,0,0,0-1.314,2.21,3.464,3.464,0,0,1,2.531-.984,3.231,3.231,0,0,1,2.646,1.213,4.892,4.892,0,0,1,.984,3.182A4.48,4.48,0,0,1,62.173,17a4.108,4.108,0,0,1-1.608,1.6,4.622,4.622,0,0,1-2.29.576,4.777,4.777,0,0,1-2.435-.62,4.26,4.26,0,0,1-1.67-1.771,5.832,5.832,0,0,1-.615-2.654V12.944A7.387,7.387,0,0,1,54.4,9.389a6.149,6.149,0,0,1,2.421-2.474,6.923,6.923,0,0,1,3.489-.9Zm-2.672,6.618a1.7,1.7,0,0,0-.984.272,1.73,1.73,0,0,0-.589.668v.888q0,2.426,1.679,2.426a1.362,1.362,0,0,0,1.129-.606,2.472,2.472,0,0,0,.453-1.521,2.426,2.426,0,0,0-.461-1.534A1.476,1.476,0,0,0,58.091,12.637ZM72.927,7.785,68.146,19H65.017l4.79-10.512h-6.1V6.2h9.22Zm10.424,0L78.569,19H75.44L80.23,8.488h-6.1V6.2h9.22Z" transform="translate(-5400 3749.355)"/><path class="b" d="M23.625,13.577H18.773v3.05H24.5V19H15.688V6.2h8.833V8.585H18.773v2.7h4.852ZM29.812,6.2l2.856,8.9,2.848-8.9h4.061V19H36.483V16.012l.3-6.117L33.688,19H31.649l-3.1-9.114.3,6.126V19H25.76V6.2Zm14.81,8.455V19H41.537V6.2h5.106a5.948,5.948,0,0,1,2.6.541,4.074,4.074,0,0,1,1.749,1.538,4.2,4.2,0,0,1,.62,2.263,3.7,3.7,0,0,1-1.34,2.993,5.561,5.561,0,0,1-3.678,1.121Zm0-2.382h2.021a1.906,1.906,0,0,0,1.367-.448,1.665,1.665,0,0,0,.47-1.266A2.059,2.059,0,0,0,48,9.13a1.712,1.712,0,0,0-1.318-.545H44.622Zm14.335,4.333H54.729L53.991,19h-3.3L55.388,6.2h2.9L63.017,19H59.7Zm-3.489-2.382h2.751l-1.38-4.438ZM74.636,19H71.569l-4.535-7.963V19H63.949V6.2h3.085l4.526,7.963V6.2h3.076Zm9.22-2.391H79.628L78.89,19h-3.3L80.288,6.2h2.9L87.917,19H84.6Zm-3.489-2.382h2.751l-1.38-4.438ZM88.848,19V6.2H92.97a6.064,6.064,0,0,1,3.05.769,5.406,5.406,0,0,1,2.114,2.171,6.554,6.554,0,0,1,.769,3.142v.589a6.592,6.592,0,0,1-.743,3.151,5.429,5.429,0,0,1-2.092,2.18,5.93,5.93,0,0,1-3.01.8ZM91.933,8.585v8.042h1.072a2.4,2.4,0,0,0,2.039-.945,4.63,4.63,0,0,0,.712-2.808V12.32a4.592,4.592,0,0,0-.712-2.795,2.442,2.442,0,0,0-2.074-.94Zm15.82,8.024h-4.228L102.788,19h-3.3l4.693-12.8h2.9L111.814,19H108.5Zm-3.489-2.382h2.751l-1.38-4.438Z" transform="translate(-5273 3749.355)"/><path class="b" d="M48.287,14h1.3v2.285h-1.3V19H45.325V16.284H40.376L40.2,14.474l5.124-8.244V6.2h2.962Zm-5.265,0h2.3V10.062l-.185.3Zm9.747,2.127a1.686,1.686,0,0,1,1.169.417,1.457,1.457,0,0,1,0,2.136,1.844,1.844,0,0,1-2.342,0,1.456,1.456,0,0,1,0-2.127A1.672,1.672,0,0,1,52.769,16.126Zm12.445-2.355a6.11,6.11,0,0,1-1.165,4,4.551,4.551,0,0,1-6.587-.009,6.1,6.1,0,0,1-1.169-3.99V11.433a6.11,6.11,0,0,1,1.165-4,4.551,4.551,0,0,1,6.587.009,6.116,6.116,0,0,1,1.169,4Zm-2.962-2.716a4.564,4.564,0,0,0-.36-2.061,1.2,1.2,0,0,0-1.143-.681,1.176,1.176,0,0,0-1.112.633,4.3,4.3,0,0,0-.374,1.916v3.27a4.6,4.6,0,0,0,.36,2.1,1.209,1.209,0,0,0,1.143.664,1.193,1.193,0,0,0,1.116-.646,4.39,4.39,0,0,0,.369-2.026Zm13.386,2.716a6.11,6.11,0,0,1-1.165,4,4.551,4.551,0,0,1-6.587-.009,6.1,6.1,0,0,1-1.169-3.99V11.433a6.11,6.11,0,0,1,1.165-4,4.551,4.551,0,0,1,6.587.009,6.116,6.116,0,0,1,1.169,4Zm-2.962-2.716a4.564,4.564,0,0,0-.36-2.061,1.2,1.2,0,0,0-1.143-.681,1.176,1.176,0,0,0-1.112.633,4.3,4.3,0,0,0-.374,1.916v3.27a4.6,4.6,0,0,0,.36,2.1,1.209,1.209,0,0,0,1.143.664,1.193,1.193,0,0,0,1.116-.646,4.39,4.39,0,0,0,.369-2.026Zm13.386,2.716a6.11,6.11,0,0,1-1.165,4,4.551,4.551,0,0,1-6.587-.009,6.1,6.1,0,0,1-1.169-3.99V11.433a6.11,6.11,0,0,1,1.165-4,4.551,4.551,0,0,1,6.587.009,6.116,6.116,0,0,1,1.169,4ZM83.1,11.055a4.564,4.564,0,0,0-.36-2.061A1.2,1.2,0,0,0,81.6,8.313a1.176,1.176,0,0,0-1.112.633,4.3,4.3,0,0,0-.374,1.916v3.27a4.6,4.6,0,0,0,.36,2.1,1.209,1.209,0,0,0,1.143.664,1.193,1.193,0,0,0,1.116-.646,4.39,4.39,0,0,0,.369-2.026Z" transform="translate(-4882 3749.355)"/><path class="b" d="M37.959,11.362h1.4a1.453,1.453,0,0,0,1.661-1.626,1.406,1.406,0,0,0-.4-1.033,1.5,1.5,0,0,0-1.116-.4,1.606,1.606,0,0,0-1.024.343,1.046,1.046,0,0,0-.435.853H35.085a3.032,3.032,0,0,1,.563-1.8,3.715,3.715,0,0,1,1.56-1.235A5.334,5.334,0,0,1,39.4,6.019a5.241,5.241,0,0,1,3.357.976A3.243,3.243,0,0,1,43.98,9.675a2.7,2.7,0,0,1-.505,1.56A3.6,3.6,0,0,1,42,12.426a3.441,3.441,0,0,1,1.6,1.121,2.951,2.951,0,0,1,.58,1.859,3.3,3.3,0,0,1-1.318,2.742A5.472,5.472,0,0,1,39.4,19.176a5.675,5.675,0,0,1-2.333-.479,3.656,3.656,0,0,1-1.63-1.327,3.45,3.45,0,0,1-.554-1.929h2.979a1.334,1.334,0,0,0,.475,1.02,1.676,1.676,0,0,0,1.169.431,1.755,1.755,0,0,0,1.248-.435,1.454,1.454,0,0,0,.466-1.112,1.7,1.7,0,0,0-.483-1.371,2.021,2.021,0,0,0-1.336-.4H37.959Zm16.6,2.408a6.11,6.11,0,0,1-1.165,4,4.551,4.551,0,0,1-6.587-.009,6.1,6.1,0,0,1-1.169-3.99V11.433a6.11,6.11,0,0,1,1.165-4,4.551,4.551,0,0,1,6.587.009,6.116,6.116,0,0,1,1.169,4ZM51.6,11.055a4.564,4.564,0,0,0-.36-2.061A1.2,1.2,0,0,0,50.1,8.313a1.176,1.176,0,0,0-1.112.633,4.3,4.3,0,0,0-.374,1.916v3.27a4.6,4.6,0,0,0,.36,2.1,1.209,1.209,0,0,0,1.143.664,1.193,1.193,0,0,0,1.116-.646,4.39,4.39,0,0,0,.369-2.026Zm6.381,5.071a1.686,1.686,0,0,1,1.169.417,1.457,1.457,0,0,1,0,2.136,1.844,1.844,0,0,1-2.342,0,1.456,1.456,0,0,1,0-2.127A1.672,1.672,0,0,1,57.981,16.126Zm12.445-2.355a6.11,6.11,0,0,1-1.165,4,4.551,4.551,0,0,1-6.587-.009,6.1,6.1,0,0,1-1.169-3.99V11.433a6.11,6.11,0,0,1,1.165-4,4.551,4.551,0,0,1,6.587.009,6.116,6.116,0,0,1,1.169,4Zm-2.962-2.716a4.564,4.564,0,0,0-.36-2.061,1.2,1.2,0,0,0-1.143-.681,1.176,1.176,0,0,0-1.112.633,4.3,4.3,0,0,0-.374,1.916v3.27a4.6,4.6,0,0,0,.36,2.1,1.209,1.209,0,0,0,1.143.664,1.193,1.193,0,0,0,1.116-.646,4.39,4.39,0,0,0,.369-2.026ZM80.85,13.771a6.11,6.11,0,0,1-1.165,4,4.551,4.551,0,0,1-6.587-.009,6.1,6.1,0,0,1-1.169-3.99V11.433a6.11,6.11,0,0,1,1.165-4,4.551,4.551,0,0,1,6.587.009,6.116,6.116,0,0,1,1.169,4Zm-2.962-2.716a4.564,4.564,0,0,0-.36-2.061,1.2,1.2,0,0,0-1.143-.681,1.176,1.176,0,0,0-1.112.633,4.3,4.3,0,0,0-.374,1.916v3.27a4.6,4.6,0,0,0,.36,2.1,1.209,1.209,0,0,0,1.143.664,1.193,1.193,0,0,0,1.116-.646,4.39,4.39,0,0,0,.369-2.026Zm13.386,2.716a6.11,6.11,0,0,1-1.165,4,4.551,4.551,0,0,1-6.587-.009,6.1,6.1,0,0,1-1.169-3.99V11.433a6.11,6.11,0,0,1,1.165-4,4.551,4.551,0,0,1,6.587.009,6.116,6.116,0,0,1,1.169,4Zm-2.962-2.716a4.564,4.564,0,0,0-.36-2.061,1.2,1.2,0,0,0-1.143-.681,1.176,1.176,0,0,0-1.112.633,4.3,4.3,0,0,0-.374,1.916v3.27a4.6,4.6,0,0,0,.36,2.1,1.209,1.209,0,0,0,1.143.664,1.193,1.193,0,0,0,1.116-.646,4.39,4.39,0,0,0,.369-2.026Z" transform="translate(-4624 3749.355)"/><path class="b" d="M31.808,14.667a4.673,4.673,0,0,1-.721,2.36,4.35,4.35,0,0,1-1.85,1.586,6.3,6.3,0,0,1-2.72.563,5.025,5.025,0,0,1-3.973-1.644,6.786,6.786,0,0,1-1.45-4.641v-.633a7.746,7.746,0,0,1,.655-3.292,4.961,4.961,0,0,1,1.885-2.18,5.26,5.26,0,0,1,2.848-.769,5.516,5.516,0,0,1,3.744,1.226,4.844,4.844,0,0,1,1.608,3.379H28.758a2.292,2.292,0,0,0-.589-1.679,2.422,2.422,0,0,0-1.687-.51,1.843,1.843,0,0,0-1.687.861,5.536,5.536,0,0,0-.562,2.751v.905a6.126,6.126,0,0,0,.514,2.927,1.882,1.882,0,0,0,1.771.879,2.369,2.369,0,0,0,1.626-.5,2.126,2.126,0,0,0,.6-1.591Zm8.728,1.942H36.308L35.57,19h-3.3L36.967,6.2h2.9L44.6,19H41.283Zm-3.489-2.382H39.8l-1.38-4.438ZM56.215,19H53.148l-4.535-7.963V19H45.528V6.2h3.085l4.526,7.963V6.2h3.076Zm12-10.415H64.372V19H61.287V8.585H57.516V6.2h10.7ZM72.8,19H69.724V6.2H72.8Zm2.145,0V6.2h4.122a6.064,6.064,0,0,1,3.05.769A5.406,5.406,0,0,1,84.23,9.143,6.554,6.554,0,0,1,85,12.285v.589a6.592,6.592,0,0,1-.743,3.151,5.429,5.429,0,0,1-2.092,2.18,5.93,5.93,0,0,1-3.01.8ZM78.03,8.585v8.042H79.1a2.4,2.4,0,0,0,2.039-.945,4.63,4.63,0,0,0,.712-2.808V12.32a4.592,4.592,0,0,0-.712-2.795,2.442,2.442,0,0,0-2.074-.94Zm15.82,8.024H89.623L88.884,19h-3.3L90.282,6.2h2.9L97.911,19H94.6Zm-3.489-2.382h2.751l-1.38-4.438ZM98.842,19V6.2h4.122a6.064,6.064,0,0,1,3.05.769,5.406,5.406,0,0,1,2.114,2.171,6.554,6.554,0,0,1,.769,3.142v.589a6.592,6.592,0,0,1-.743,3.151,5.429,5.429,0,0,1-2.092,2.18,5.93,5.93,0,0,1-3.01.8Zm3.085-10.415v8.042H103a2.4,2.4,0,0,0,2.039-.945,4.63,4.63,0,0,0,.712-2.808V12.32a4.592,4.592,0,0,0-.712-2.795,2.442,2.442,0,0,0-2.074-.94ZM36.361,25.2l2.856,8.9,2.848-8.9h4.061V38H43.032V35.012l.3-6.117L40.237,38H38.2l-3.1-9.114.3,6.126V38H32.309V25.2ZM51.373,38H48.3V25.2h3.076ZM50.2,21.775h3.129l-2.443,2.76H48.472ZM64.2,38H61.137L56.6,30.037V38H53.517V25.2H56.6l4.526,7.963V25.2H64.2Zm5.238,0H66.367V25.2h3.076Zm6.2-12.8,2.856,8.9,2.848-8.9H85.4V38H82.31V35.012l.3-6.117L79.515,38H77.476l-3.1-9.114.3,6.126V38H71.587V25.2ZM94.632,35.609H90.4L89.667,38h-3.3l4.693-12.8h2.9L98.693,38H95.379Zm-3.489-2.382h2.751l-1.38-4.438Z" transform="translate(-5012 3742)"/><path class="b" d="M31.808,14.667a4.673,4.673,0,0,1-.721,2.36,4.35,4.35,0,0,1-1.85,1.586,6.3,6.3,0,0,1-2.72.563,5.025,5.025,0,0,1-3.973-1.644,6.786,6.786,0,0,1-1.45-4.641v-.633a7.746,7.746,0,0,1,.655-3.292,4.961,4.961,0,0,1,1.885-2.18,5.26,5.26,0,0,1,2.848-.769,5.516,5.516,0,0,1,3.744,1.226,4.844,4.844,0,0,1,1.608,3.379H28.758a2.292,2.292,0,0,0-.589-1.679,2.422,2.422,0,0,0-1.687-.51,1.843,1.843,0,0,0-1.687.861,5.536,5.536,0,0,0-.562,2.751v.905a6.126,6.126,0,0,0,.514,2.927,1.882,1.882,0,0,0,1.771.879,2.369,2.369,0,0,0,1.626-.5,2.126,2.126,0,0,0,.6-1.591Zm8.728,1.942H36.308L35.57,19h-3.3L36.967,6.2h2.9L44.6,19H41.283Zm-3.489-2.382H39.8l-1.38-4.438ZM56.215,19H53.148l-4.535-7.963V19H45.528V6.2h3.085l4.526,7.963V6.2h3.076Zm12-10.415H64.372V19H61.287V8.585H57.516V6.2h10.7ZM72.8,19H69.724V6.2H72.8Zm2.145,0V6.2h4.122a6.064,6.064,0,0,1,3.05.769A5.406,5.406,0,0,1,84.23,9.143,6.554,6.554,0,0,1,85,12.285v.589a6.592,6.592,0,0,1-.743,3.151,5.429,5.429,0,0,1-2.092,2.18,5.93,5.93,0,0,1-3.01.8ZM78.03,8.585v8.042H79.1a2.4,2.4,0,0,0,2.039-.945,4.63,4.63,0,0,0,.712-2.808V12.32a4.592,4.592,0,0,0-.712-2.795,2.442,2.442,0,0,0-2.074-.94Zm15.82,8.024H89.623L88.884,19h-3.3L90.282,6.2h2.9L97.911,19H94.6Zm-3.489-2.382h2.751l-1.38-4.438ZM98.842,19V6.2h4.122a6.064,6.064,0,0,1,3.05.769,5.406,5.406,0,0,1,2.114,2.171,6.554,6.554,0,0,1,.769,3.142v.589a6.592,6.592,0,0,1-.743,3.151,5.429,5.429,0,0,1-2.092,2.18,5.93,5.93,0,0,1-3.01.8Zm3.085-10.415v8.042H103a2.4,2.4,0,0,0,2.039-.945,4.63,4.63,0,0,0,.712-2.808V12.32a4.592,4.592,0,0,0-.712-2.795,2.442,2.442,0,0,0-2.074-.94ZM33.522,25.2l2.856,8.9,2.848-8.9h4.061V38H40.193V35.012l.3-6.117L37.4,38H35.359l-3.1-9.114.3,6.126V38H29.47V25.2ZM52.515,35.609H48.288L47.549,38h-3.3l4.693-12.8h2.9L56.576,38H53.262Zm-3.489-2.382h2.751L50.4,28.789ZM50.8,21.775H53.93l-2.443,2.76H49.07ZM62.28,29.457,64.372,25.2H67.9l-3.577,6.346L67.993,38h-3.56L62.28,33.667,60.126,38H56.576l3.665-6.451L56.672,25.2h3.516Zm10,8.543H69.206V25.2h3.076Zm6.2-12.8,2.856,8.9,2.848-8.9h4.061V38H85.149V35.012l.3-6.117L82.354,38H80.315l-3.1-9.114.3,6.126V38H74.426V25.2ZM97.471,35.609H93.244L92.505,38h-3.3L93.9,25.2h2.9L101.532,38H98.218Zm-3.489-2.382h2.751l-1.38-4.438Z" transform="translate(-4755 3742)"/><path class="f" d="M0,53.876H295V0H0Z" transform="translate(-5527 3681.747)"/><path class="c" d="M-29.039-4.764-30.3-3.375V0H-33.39V-12.8H-30.3v5.643l1.072-1.626,2.76-4.017h3.814l-4.324,5.66L-22.658,0h-3.656Zm14.432,2.373h-4.228L-19.573,0h-3.3l4.693-12.8h2.9L-10.547,0H-13.86ZM-18.1-4.772h2.751l-1.38-4.438Zm13.236.255H-6.53V0H-9.615V-12.8h5.036a5.617,5.617,0,0,1,3.56,1.011A3.426,3.426,0,0,1,.264-8.93,4.163,4.163,0,0,1-.277-6.715,3.837,3.837,0,0,1-1.969-5.291L.7-.132V0H-2.6ZM-6.53-6.9h1.951a1.754,1.754,0,0,0,1.323-.461,1.781,1.781,0,0,0,.444-1.288,1.8,1.8,0,0,0-.448-1.3,1.737,1.737,0,0,0-1.318-.47H-6.53ZM2.127,0V-12.8H6.249a6.064,6.064,0,0,1,3.05.769,5.406,5.406,0,0,1,2.114,2.171,6.554,6.554,0,0,1,.769,3.142v.589a6.592,6.592,0,0,1-.743,3.151A5.429,5.429,0,0,1,9.347-.8a5.93,5.93,0,0,1-3.01.8ZM5.212-10.415v8.042H6.284a2.4,2.4,0,0,0,2.039-.945,4.63,4.63,0,0,0,.712-2.808V-6.68a4.592,4.592,0,0,0-.712-2.795,2.442,2.442,0,0,0-2.074-.94ZM21.7-5.423H16.849v3.05h5.73V0H13.764V-12.8H22.6v2.382H16.849v2.7H21.7Zm6.908-3.12L30.7-12.8h3.524L30.647-6.451,34.321,0h-3.56L28.608-4.333,26.455,0H22.9l3.665-6.451L23-12.8h3.516Z" transform="translate(-5476 3710.947)"/></g></svg>