<svg xmlns="http://www.w3.org/2000/svg" width="1030" height="492.752" viewBox="0 0 1030 492.752"><defs><style>.a{fill:#f6f6f6;}.b{fill:#fff;}.c{fill:#12263f;}.d{fill:none;stroke:#afafaf;stroke-linecap:round;}.e{fill:#d9a171;}.f{fill:#6595bf;opacity:0.42;}</style></defs><g transform="translate(5527 -2589.747)"><path class="a" d="M0,0H1030V80H0Z" transform="translate(-5527 2703.151)"/><path class="a" d="M0,0H1030V80H0Z" transform="translate(-5527 2921.999)"/><path class="b" d="M0,0H1030V80H0Z" transform="translate(-5527 2783.151)"/><path class="b" d="M0,0H1030V80H0Z" transform="translate(-5527 3001.999)"/><path class="c" d="M8.543,13.349H3.173V19H1.485V6.2H9.413V7.592H3.173v4.377h5.37Zm10.125-.264H13.122V17.62h6.442V19h-8.13V6.2h8.042V7.592H13.122v4.113h5.546Zm12.41,1.854a4.708,4.708,0,0,1-1.5,3.133,4.911,4.911,0,0,1-3.353,1.1,4.509,4.509,0,0,1-3.634-1.626A6.542,6.542,0,0,1,21.226,13.2v-1.23a7.291,7.291,0,0,1,.637-3.138,4.76,4.76,0,0,1,1.806-2.079,5.029,5.029,0,0,1,2.707-.725,4.624,4.624,0,0,1,3.27,1.138,4.765,4.765,0,0,1,1.433,3.151h-1.7A3.66,3.66,0,0,0,28.428,8.1a2.891,2.891,0,0,0-2.052-.686,3.02,3.02,0,0,0-2.536,1.2,5.484,5.484,0,0,0-.918,3.4v1.239a5.637,5.637,0,0,0,.87,3.313,2.812,2.812,0,0,0,2.435,1.23,3.247,3.247,0,0,0,2.158-.637,3.536,3.536,0,0,0,1-2.219ZM43.216,19h-1.7V13.085H35.068V19H33.381V6.2h1.688v5.5H41.52V6.2h1.7Zm10.222-3.34H48.076L46.872,19h-1.74L50.019,6.2H51.5l4.9,12.8H54.659Zm-4.852-1.389h4.351l-2.18-5.985Z" transform="translate(-5513 2737.827)"/><path class="c" d="M1.32,0V-11.375H4.531a5.169,5.169,0,0,1,2.625.656A4.438,4.438,0,0,1,8.918-8.852,6.078,6.078,0,0,1,9.547-6.07v.727a6.1,6.1,0,0,1-.621,2.82A4.369,4.369,0,0,1,7.152-.664,5.5,5.5,0,0,1,4.469,0Zm1.5-10.141v8.914H4.4A3.435,3.435,0,0,0,7.1-2.3a4.452,4.452,0,0,0,.965-3.07v-.664a4.522,4.522,0,0,0-.91-3.012,3.24,3.24,0,0,0-2.582-1.09ZM18.242-5.258h-4.93v4.031h5.727V0H11.813V-11.375h7.148v1.234H13.313v3.656h4.93Zm4.164.8V0h-1.5V-11.375h4.2a4.215,4.215,0,0,1,2.926.953A3.231,3.231,0,0,1,29.086-7.9a3.189,3.189,0,0,1-1.035,2.551,4.4,4.4,0,0,1-2.965.895Zm0-1.227h2.7a2.7,2.7,0,0,0,1.844-.566,2.069,2.069,0,0,0,.641-1.637,2.138,2.138,0,0,0-.641-1.625,2.528,2.528,0,0,0-1.758-.633H22.406ZM36.2-2.969H31.438L30.367,0H28.82l4.344-11.375h1.313L38.828,0H37.289ZM31.891-4.2h3.867L33.82-9.523Zm12.641-.4H41.859V0H40.352V-11.375h3.766a4.457,4.457,0,0,1,2.957.875,3.148,3.148,0,0,1,1.035,2.547A3.062,3.062,0,0,1,47.535-6.1a3.428,3.428,0,0,1-1.6,1.18L48.609-.094V0H47ZM41.859-5.828h2.3a2.6,2.6,0,0,0,1.777-.578,1.953,1.953,0,0,0,.66-1.547,2.057,2.057,0,0,0-.629-1.617,2.666,2.666,0,0,0-1.816-.57h-2.3Zm15.586-4.312H53.789V0H52.3V-10.141H48.648v-1.234h8.8ZM64.8-2.969H60.031L58.961,0H57.414l4.344-11.375H63.07L67.422,0H65.883ZM60.484-4.2h3.867l-1.937-5.32Zm10.406-7.172,3.719,9.281,3.719-9.281h1.945V0h-1.5V-4.43l.141-4.781L75.18,0H74.031L70.3-9.187l.148,4.758V0h-1.5V-11.375ZM89.352-5.258h-4.93v4.031h5.727V0H82.922V-11.375H90.07v1.234H84.422v3.656h4.93ZM100.758,0H99.25L93.523-8.766V0H92.016V-11.375h1.508l5.742,8.8v-8.8h1.492Zm10.523-10.141h-3.656V0h-1.492V-10.141h-3.648v-1.234h8.8ZM121.5-5.32a7.037,7.037,0,0,1-.562,2.918,4.261,4.261,0,0,1-1.594,1.9,4.385,4.385,0,0,1-2.406.656,4.347,4.347,0,0,1-2.383-.66,4.363,4.363,0,0,1-1.613-1.883,6.752,6.752,0,0,1-.59-2.832v-.82a6.953,6.953,0,0,1,.57-2.9,4.347,4.347,0,0,1,1.613-1.926,4.329,4.329,0,0,1,2.387-.668,4.41,4.41,0,0,1,2.41.66,4.253,4.253,0,0,1,1.605,1.914,7.071,7.071,0,0,1,.563,2.918Zm-1.492-.734A5.1,5.1,0,0,0,119.2-9.16a2.68,2.68,0,0,0-2.273-1.082,2.651,2.651,0,0,0-2.238,1.082,5,5,0,0,0-.84,3v.836a5.107,5.107,0,0,0,.824,3.082,2.662,2.662,0,0,0,2.27,1.121,2.652,2.652,0,0,0,2.25-1.059,5.079,5.079,0,0,0,.82-3.035Z" transform="translate(-5052 2752.827)"/><path class="d" d="M0,0V379.319" transform="translate(-5379.5 2702.68)"/><path class="d" d="M0,0V379.319" transform="translate(-5212 2702.68)"/><path class="d" d="M0,0V379.319" transform="translate(-5064.5 2702.68)"/><path class="d" d="M0,0V379.319" transform="translate(-4917 2702.68)"/><path class="d" d="M0,0V379.319" transform="translate(-4772.5 2702.68)"/><path class="d" d="M0,0V379.319" transform="translate(-4602 2702.68)"/><path class="d" d="M0,0V60" transform="translate(-4870.337 2642.68)"/><path class="e" d="M0,0H1030V60.672H0Z" transform="translate(-5527 2642.476)"/><path class="b" d="M53.45,13.577H48.6v3.05h5.73V19H45.513V6.2h8.833V8.585H48.6v2.7H53.45ZM59.637,6.2l2.856,8.9,2.848-8.9H69.4V19H66.308V16.012l.3-6.117L63.513,19H61.474l-3.1-9.114.3,6.126V19H55.585V6.2Zm14.81,8.455V19H71.362V6.2h5.106a5.948,5.948,0,0,1,2.6.541,4.074,4.074,0,0,1,1.749,1.538,4.2,4.2,0,0,1,.62,2.263,3.7,3.7,0,0,1-1.34,2.993,5.561,5.561,0,0,1-3.678,1.121Zm0-2.382h2.021a1.906,1.906,0,0,0,1.367-.448,1.665,1.665,0,0,0,.47-1.266,2.059,2.059,0,0,0-.483-1.433A1.712,1.712,0,0,0,76.5,8.585H74.447Zm13.386,2.206h-1.67V19H83.078V6.2h5.036a5.617,5.617,0,0,1,3.56,1.011,3.426,3.426,0,0,1,1.283,2.856,4.163,4.163,0,0,1-.541,2.215,3.837,3.837,0,0,1-1.692,1.424L93.4,18.868V19h-3.3ZM86.163,12.1h1.951a1.754,1.754,0,0,0,1.323-.461,1.781,1.781,0,0,0,.444-1.288,1.8,1.8,0,0,0-.448-1.3,1.737,1.737,0,0,0-1.318-.47H86.163Zm16.594,1.477H97.9v3.05h5.73V19H94.82V6.2h8.833V8.585H97.9v2.7h4.852Zm8.736,2.021a1.268,1.268,0,0,0-.479-1.055,5.954,5.954,0,0,0-1.683-.782,16.147,16.147,0,0,1-1.969-.782q-2.487-1.222-2.487-3.357a3.011,3.011,0,0,1,.62-1.876,4.008,4.008,0,0,1,1.753-1.266,6.823,6.823,0,0,1,2.549-.453,5.969,5.969,0,0,1,2.474.492,3.917,3.917,0,0,1,1.7,1.4A3.661,3.661,0,0,1,114.578,10H111.5a1.547,1.547,0,0,0-.479-1.213,1.867,1.867,0,0,0-1.3-.431,2.106,2.106,0,0,0-1.305.365,1.074,1.074,0,0,0,.048,1.819,6.65,6.65,0,0,0,1.854.826,11.36,11.36,0,0,1,2.18.918,3.663,3.663,0,0,1,2.074,3.3,3.125,3.125,0,0,1-1.266,2.637,5.629,5.629,0,0,1-3.472.958,6.888,6.888,0,0,1-2.817-.558,4.247,4.247,0,0,1-1.9-1.529,3.985,3.985,0,0,1-.637-2.237h3.094a1.963,1.963,0,0,0,.532,1.516,2.513,2.513,0,0,0,1.727.488,1.985,1.985,0,0,0,1.208-.33A1.088,1.088,0,0,0,111.493,15.6Zm11.936,1.011H119.2L118.462,19h-3.3L119.86,6.2h2.9L127.489,19h-3.313Zm-3.489-2.382h2.751l-1.38-4.438Z" transform="translate(-5442 2662.151)"/><path class="b" d="M-105.93-6.135a7.546,7.546,0,0,1-.694,3.313A5.132,5.132,0,0,1-108.6-.6a5.494,5.494,0,0,1-2.914.778,5.572,5.572,0,0,1-2.9-.751,5.123,5.123,0,0,1-1.973-2.149,7.329,7.329,0,0,1-.743-3.208v-.721a7.58,7.58,0,0,1,.69-3.318,5.119,5.119,0,0,1,1.978-2.219,5.533,5.533,0,0,1,2.931-.782,5.479,5.479,0,0,1,2.9.773,5.211,5.211,0,0,1,1.982,2.2,7.362,7.362,0,0,1,.716,3.274Zm-3.138-.536a5.381,5.381,0,0,0-.637-2.9,2.044,2.044,0,0,0-1.824-.989q-2.32,0-2.452,3.48l-.009.94a5.535,5.535,0,0,0,.624,2.892,2.041,2.041,0,0,0,1.854,1.011,2.016,2.016,0,0,0,1.8-.993,5.383,5.383,0,0,0,.642-2.856Zm9.483,2.153h-1.67V0h-3.085V-12.8H-99.3a5.617,5.617,0,0,1,3.56,1.011A3.426,3.426,0,0,1-94.46-8.93,4.163,4.163,0,0,1-95-6.715a3.837,3.837,0,0,1-1.692,1.424l2.672,5.159V0h-3.3Zm-1.67-2.382H-99.3a1.754,1.754,0,0,0,1.323-.461,1.781,1.781,0,0,0,.444-1.288,1.8,1.8,0,0,0-.448-1.3,1.737,1.737,0,0,0-1.318-.47h-1.951ZM-92.6,0V-12.8h4.122a6.064,6.064,0,0,1,3.05.769,5.406,5.406,0,0,1,2.114,2.171,6.554,6.554,0,0,1,.769,3.142v.589a6.592,6.592,0,0,1-.743,3.151A5.429,5.429,0,0,1-85.377-.8a5.93,5.93,0,0,1-3.01.8Zm3.085-10.415v8.042h1.072A2.4,2.4,0,0,0-86.4-3.318a4.63,4.63,0,0,0,.712-2.808V-6.68A4.592,4.592,0,0,0-86.4-9.475a2.442,2.442,0,0,0-2.074-.94Zm16.488,4.992h-4.852v3.05h5.73V0H-80.96V-12.8h8.833v2.382h-5.748v2.7h4.852ZM-60.2,0h-3.067L-67.8-7.963V0h-3.085V-12.8H-67.8l4.526,7.963V-12.8H-60.2Zm6.434,0V-12.8h4.122a6.064,6.064,0,0,1,3.05.769,5.406,5.406,0,0,1,2.114,2.171,6.554,6.554,0,0,1,.769,3.142v.589a6.592,6.592,0,0,1-.743,3.151A5.429,5.429,0,0,1-46.547-.8a5.93,5.93,0,0,1-3.01.8Zm3.085-10.415v8.042h1.072a2.4,2.4,0,0,0,2.039-.945,4.63,4.63,0,0,0,.712-2.808V-6.68a4.592,4.592,0,0,0-.712-2.795,2.442,2.442,0,0,0-2.074-.94Zm16.488,4.992h-4.852v3.05h5.73V0H-42.13V-12.8H-33.3v2.382h-5.748v2.7h4.852Zm9.7,1.081V0h-3.085V-12.8h5.106a5.948,5.948,0,0,1,2.6.541,4.074,4.074,0,0,1,1.749,1.538,4.2,4.2,0,0,1,.62,2.263,3.7,3.7,0,0,1-1.34,2.993,5.561,5.561,0,0,1-3.678,1.121Zm0-2.382h2.021A1.906,1.906,0,0,0-21.1-7.172a1.665,1.665,0,0,0,.47-1.266,2.059,2.059,0,0,0-.483-1.433,1.712,1.712,0,0,0-1.318-.545h-2.057ZM-11.1-4.518h-1.67V0H-15.86V-12.8h5.036a5.617,5.617,0,0,1,3.56,1.011A3.426,3.426,0,0,1-5.981-8.93a4.163,4.163,0,0,1-.541,2.215A3.837,3.837,0,0,1-8.213-5.291L-5.542-.132V0h-3.3ZM-12.775-6.9h1.951A1.754,1.754,0,0,0-9.5-7.361a1.781,1.781,0,0,0,.444-1.288,1.8,1.8,0,0,0-.448-1.3,1.737,1.737,0,0,0-1.318-.47h-1.951Zm19.494.765a7.546,7.546,0,0,1-.694,3.313A5.132,5.132,0,0,1,4.052-.6,5.494,5.494,0,0,1,1.138.176a5.572,5.572,0,0,1-2.9-.751A5.123,5.123,0,0,1-3.735-2.725a7.329,7.329,0,0,1-.743-3.208v-.721a7.58,7.58,0,0,1,.69-3.318A5.119,5.119,0,0,1-1.811-12.19a5.533,5.533,0,0,1,2.931-.782,5.479,5.479,0,0,1,2.9.773A5.211,5.211,0,0,1,6-10a7.362,7.362,0,0,1,.716,3.274ZM3.582-6.671a5.381,5.381,0,0,0-.637-2.9,2.044,2.044,0,0,0-1.824-.989q-2.32,0-2.452,3.48l-.009.94A5.535,5.535,0,0,0-.716-3.243,2.041,2.041,0,0,0,1.138-2.232a2.016,2.016,0,0,0,1.8-.993,5.383,5.383,0,0,0,.642-2.856ZM8.31,0V-12.8h4.122a6.064,6.064,0,0,1,3.05.769A5.406,5.406,0,0,1,17.6-9.857a6.554,6.554,0,0,1,.769,3.142v.589a6.592,6.592,0,0,1-.743,3.151A5.429,5.429,0,0,1,15.53-.8a5.93,5.93,0,0,1-3.01.8ZM11.4-10.415v8.042h1.072a2.4,2.4,0,0,0,2.039-.945,4.63,4.63,0,0,0,.712-2.808V-6.68a4.592,4.592,0,0,0-.712-2.795,2.442,2.442,0,0,0-2.074-.94ZM29.984-12.8v8.376a4.814,4.814,0,0,1-.606,2.465,3.929,3.929,0,0,1-1.74,1.586,6.131,6.131,0,0,1-2.681.545,5.3,5.3,0,0,1-3.683-1.213A4.326,4.326,0,0,1,19.9-4.359V-12.8h3.1v8.5q.053,2.1,1.951,2.1a1.889,1.889,0,0,0,1.45-.527A2.465,2.465,0,0,0,26.9-4.438V-12.8ZM42.262-4.333a4.673,4.673,0,0,1-.721,2.36,4.35,4.35,0,0,1-1.85,1.586,6.3,6.3,0,0,1-2.72.563A5.025,5.025,0,0,1,33-1.468a6.786,6.786,0,0,1-1.45-4.641v-.633a7.746,7.746,0,0,1,.655-3.292,4.961,4.961,0,0,1,1.885-2.18,5.26,5.26,0,0,1,2.848-.769,5.516,5.516,0,0,1,3.744,1.226,4.844,4.844,0,0,1,1.608,3.379H39.212a2.292,2.292,0,0,0-.589-1.679,2.422,2.422,0,0,0-1.687-.51,1.843,1.843,0,0,0-1.687.861,5.536,5.536,0,0,0-.562,2.751v.905A6.126,6.126,0,0,0,35.2-3.12a1.882,1.882,0,0,0,1.771.879,2.369,2.369,0,0,0,1.626-.5,2.126,2.126,0,0,0,.6-1.591Zm11.813,0a4.673,4.673,0,0,1-.721,2.36A4.35,4.35,0,0,1,51.5-.387a6.3,6.3,0,0,1-2.72.563,5.025,5.025,0,0,1-3.973-1.644,6.786,6.786,0,0,1-1.45-4.641v-.633a7.746,7.746,0,0,1,.655-3.292,4.961,4.961,0,0,1,1.885-2.18,5.26,5.26,0,0,1,2.848-.769,5.516,5.516,0,0,1,3.744,1.226A4.844,4.844,0,0,1,54.1-8.376H51.025a2.292,2.292,0,0,0-.589-1.679,2.422,2.422,0,0,0-1.687-.51,1.843,1.843,0,0,0-1.687.861A5.536,5.536,0,0,0,46.5-6.952v.905a6.126,6.126,0,0,0,.514,2.927,1.882,1.882,0,0,0,1.771.879,2.369,2.369,0,0,0,1.626-.5,2.126,2.126,0,0,0,.6-1.591ZM58.821,0H55.745V-12.8h3.076ZM71.8-6.135a7.546,7.546,0,0,1-.694,3.313A5.132,5.132,0,0,1,69.135-.6a5.494,5.494,0,0,1-2.914.778,5.572,5.572,0,0,1-2.9-.751,5.123,5.123,0,0,1-1.973-2.149A7.329,7.329,0,0,1,60.6-5.933v-.721a7.58,7.58,0,0,1,.69-3.318,5.119,5.119,0,0,1,1.978-2.219,5.533,5.533,0,0,1,2.931-.782,5.479,5.479,0,0,1,2.9.773A5.211,5.211,0,0,1,71.086-10,7.362,7.362,0,0,1,71.8-6.724Zm-3.138-.536a5.381,5.381,0,0,0-.637-2.9,2.044,2.044,0,0,0-1.824-.989q-2.32,0-2.452,3.48l-.009.94a5.535,5.535,0,0,0,.624,2.892,2.041,2.041,0,0,0,1.854,1.011,2.016,2.016,0,0,0,1.8-.993,5.383,5.383,0,0,0,.642-2.856Zm-2.1-9.554h3.129l-2.443,2.76H64.833ZM84.081,0H81.013L76.478-7.963V0H73.393V-12.8h3.085L81-4.834V-12.8h3.076ZM101.2,0H98.134L93.6-7.963V0H90.514V-12.8H93.6l4.526,7.963V-12.8H101.2Zm1.441-4.843a5.613,5.613,0,0,1,.554-2.536,3.96,3.96,0,0,1,1.591-1.709,4.791,4.791,0,0,1,2.435-.6,4.373,4.373,0,0,1,3.366,1.323,5.076,5.076,0,0,1,1.23,3.6v.105a4.925,4.925,0,0,1-1.235,3.529A4.384,4.384,0,0,1,107.24.176a4.434,4.434,0,0,1-3.261-1.217,4.761,4.761,0,0,1-1.327-3.3Zm2.962.185a3.538,3.538,0,0,0,.413,1.934,1.376,1.376,0,0,0,1.222.615q1.582,0,1.617-2.435v-.3q0-2.558-1.635-2.558-1.485,0-1.608,2.206Zm9.352,1.784a1.686,1.686,0,0,1,1.169.417,1.37,1.37,0,0,1,.466,1.068,1.37,1.37,0,0,1-.466,1.068A1.686,1.686,0,0,1,114.957.1a1.672,1.672,0,0,1-1.173-.422,1.379,1.379,0,0,1-.461-1.063,1.379,1.379,0,0,1,.461-1.063A1.672,1.672,0,0,1,114.957-2.874Z" transform="translate(-4781 2679.151)"/><path class="e" d="M0,0H1030V60.672H0Z" transform="translate(-5527 2861.327)"/><path class="b" d="M45.045,12.865a7.546,7.546,0,0,1-.694,3.313A5.132,5.132,0,0,1,42.377,18.4a5.494,5.494,0,0,1-2.914.778,5.572,5.572,0,0,1-2.9-.751,5.123,5.123,0,0,1-1.973-2.149,7.329,7.329,0,0,1-.743-3.208v-.721a7.58,7.58,0,0,1,.69-3.318A5.119,5.119,0,0,1,36.515,6.81,5.854,5.854,0,0,1,42.347,6.8,5.211,5.211,0,0,1,44.329,9a7.362,7.362,0,0,1,.716,3.274Zm-3.138-.536a5.381,5.381,0,0,0-.637-2.9,2.044,2.044,0,0,0-1.824-.989q-2.32,0-2.452,3.48l-.009.94a5.535,5.535,0,0,0,.624,2.892,2.041,2.041,0,0,0,1.854,1.011,2.016,2.016,0,0,0,1.8-.993,5.383,5.383,0,0,0,.642-2.856Zm9.483,2.153h-1.67V19H46.636V6.2h5.036a5.617,5.617,0,0,1,3.56,1.011,3.426,3.426,0,0,1,1.283,2.856,4.163,4.163,0,0,1-.541,2.215,3.837,3.837,0,0,1-1.692,1.424l2.672,5.159V19h-3.3ZM49.721,12.1h1.951a1.754,1.754,0,0,0,1.323-.461,1.781,1.781,0,0,0,.444-1.288,1.8,1.8,0,0,0-.448-1.3,1.737,1.737,0,0,0-1.318-.47H49.721ZM58.378,19V6.2H62.5a6.064,6.064,0,0,1,3.05.769,5.406,5.406,0,0,1,2.114,2.171,6.554,6.554,0,0,1,.769,3.142v.589a6.592,6.592,0,0,1-.743,3.151A5.429,5.429,0,0,1,65.6,18.2a5.93,5.93,0,0,1-3.01.8ZM61.463,8.585v8.042h1.072a2.4,2.4,0,0,0,2.039-.945,4.63,4.63,0,0,0,.712-2.808V12.32a4.592,4.592,0,0,0-.712-2.795,2.442,2.442,0,0,0-2.074-.94Zm16.488,4.992H73.1v3.05h5.73V19H70.015V6.2h8.833V8.585H73.1v2.7h4.852ZM90.774,19H87.707l-4.535-7.963V19H80.087V6.2h3.085L87.7,14.166V6.2h3.076ZM9.748,46.658V51H6.663V38.2H11.77a5.948,5.948,0,0,1,2.6.541,4.074,4.074,0,0,1,1.749,1.538,4.2,4.2,0,0,1,.62,2.263,3.7,3.7,0,0,1-1.34,2.993,5.561,5.561,0,0,1-3.678,1.121Zm0-2.382H11.77a1.906,1.906,0,0,0,1.367-.448,1.665,1.665,0,0,0,.47-1.266,2.059,2.059,0,0,0-.483-1.433,1.712,1.712,0,0,0-1.318-.545H9.748Zm13.386,2.206h-1.67V51H18.379V38.2h5.036a5.617,5.617,0,0,1,3.56,1.011,3.426,3.426,0,0,1,1.283,2.856,4.163,4.163,0,0,1-.541,2.215,3.837,3.837,0,0,1-1.692,1.424L28.7,50.868V51h-3.3ZM21.464,44.1h1.951a1.754,1.754,0,0,0,1.323-.461,1.781,1.781,0,0,0,.444-1.288,1.8,1.8,0,0,0-.448-1.3,1.737,1.737,0,0,0-1.318-.47H21.464Zm19.494.765a7.546,7.546,0,0,1-.694,3.313A5.132,5.132,0,0,1,38.291,50.4a5.494,5.494,0,0,1-2.914.778,5.572,5.572,0,0,1-2.9-.751A5.123,5.123,0,0,1,30.5,48.275a7.329,7.329,0,0,1-.743-3.208v-.721a7.58,7.58,0,0,1,.69-3.318,5.119,5.119,0,0,1,1.978-2.219A5.854,5.854,0,0,1,38.26,38.8,5.211,5.211,0,0,1,40.242,41a7.362,7.362,0,0,1,.716,3.274Zm-3.138-.536a5.381,5.381,0,0,0-.637-2.9,2.044,2.044,0,0,0-1.824-.989q-2.32,0-2.452,3.48l-.009.94a5.535,5.535,0,0,0,.624,2.892,2.041,2.041,0,0,0,1.854,1.011,2.016,2.016,0,0,0,1.8-.993,5.383,5.383,0,0,0,.642-2.856ZM42.549,51V38.2h4.122a6.064,6.064,0,0,1,3.05.769,5.406,5.406,0,0,1,2.114,2.171,6.554,6.554,0,0,1,.769,3.142v.589a6.592,6.592,0,0,1-.743,3.151,5.429,5.429,0,0,1-2.092,2.18,5.93,5.93,0,0,1-3.01.8Zm3.085-10.415v8.042h1.072a2.4,2.4,0,0,0,2.039-.945,4.63,4.63,0,0,0,.712-2.808V44.32a4.592,4.592,0,0,0-.712-2.795,2.442,2.442,0,0,0-2.074-.94ZM64.223,38.2v8.376a4.814,4.814,0,0,1-.606,2.465,3.929,3.929,0,0,1-1.74,1.586,6.131,6.131,0,0,1-2.681.545,5.3,5.3,0,0,1-3.683-1.213,4.326,4.326,0,0,1-1.371-3.322V38.2h3.1v8.5q.053,2.1,1.951,2.1a1.889,1.889,0,0,0,1.45-.527,2.465,2.465,0,0,0,.492-1.714V38.2ZM76.5,46.667a4.673,4.673,0,0,1-.721,2.36,4.35,4.35,0,0,1-1.85,1.586,6.3,6.3,0,0,1-2.72.563,5.025,5.025,0,0,1-3.973-1.644,6.786,6.786,0,0,1-1.45-4.641v-.633a7.746,7.746,0,0,1,.655-3.292,4.961,4.961,0,0,1,1.885-2.18,5.26,5.26,0,0,1,2.848-.769,5.516,5.516,0,0,1,3.744,1.226,4.844,4.844,0,0,1,1.608,3.379H73.451a2.292,2.292,0,0,0-.589-1.679,2.422,2.422,0,0,0-1.687-.51,1.843,1.843,0,0,0-1.687.861,5.536,5.536,0,0,0-.562,2.751v.905a6.126,6.126,0,0,0,.514,2.927,1.882,1.882,0,0,0,1.771.879,2.369,2.369,0,0,0,1.626-.5,2.126,2.126,0,0,0,.6-1.591Zm11.813,0a4.673,4.673,0,0,1-.721,2.36,4.35,4.35,0,0,1-1.85,1.586,6.3,6.3,0,0,1-2.72.563,5.025,5.025,0,0,1-3.973-1.644,6.786,6.786,0,0,1-1.45-4.641v-.633a7.746,7.746,0,0,1,.655-3.292,4.961,4.961,0,0,1,1.885-2.18,5.26,5.26,0,0,1,2.848-.769,5.516,5.516,0,0,1,3.744,1.226,4.844,4.844,0,0,1,1.608,3.379H85.264a2.292,2.292,0,0,0-.589-1.679,2.422,2.422,0,0,0-1.687-.51A1.843,1.843,0,0,0,81.3,41.3a5.536,5.536,0,0,0-.562,2.751v.905a6.126,6.126,0,0,0,.514,2.927,1.882,1.882,0,0,0,1.771.879,2.369,2.369,0,0,0,1.626-.5,2.126,2.126,0,0,0,.6-1.591ZM93.06,51H89.983V38.2H93.06Zm12.981-6.135a7.546,7.546,0,0,1-.694,3.313,5.132,5.132,0,0,1-1.973,2.219,5.494,5.494,0,0,1-2.914.778,5.572,5.572,0,0,1-2.9-.751,5.123,5.123,0,0,1-1.973-2.149,7.329,7.329,0,0,1-.743-3.208v-.721a7.58,7.58,0,0,1,.69-3.318,5.119,5.119,0,0,1,1.978-2.219,5.854,5.854,0,0,1,5.832-.009,5.211,5.211,0,0,1,1.982,2.2,7.362,7.362,0,0,1,.716,3.274Zm-3.138-.536a5.381,5.381,0,0,0-.637-2.9,2.044,2.044,0,0,0-1.824-.989q-2.32,0-2.452,3.48l-.009.94a5.535,5.535,0,0,0,.624,2.892,2.041,2.041,0,0,0,1.854,1.011,2.016,2.016,0,0,0,1.8-.993,5.383,5.383,0,0,0,.642-2.856Zm-2.1-9.554h3.129l-2.443,2.76H99.071ZM118.319,51h-3.067l-4.535-7.963V51h-3.085V38.2h3.085l4.526,7.963V38.2h3.076Z" transform="translate(-5513 2864.663)"/><path class="b" d="M16.658,14.667a4.673,4.673,0,0,1-.721,2.36,4.35,4.35,0,0,1-1.85,1.586,6.3,6.3,0,0,1-2.72.563,5.025,5.025,0,0,1-3.973-1.644,6.786,6.786,0,0,1-1.45-4.641v-.633A7.746,7.746,0,0,1,6.6,8.967a4.961,4.961,0,0,1,1.885-2.18,5.26,5.26,0,0,1,2.848-.769,5.516,5.516,0,0,1,3.744,1.226,4.844,4.844,0,0,1,1.608,3.379H13.608a2.292,2.292,0,0,0-.589-1.679,2.422,2.422,0,0,0-1.687-.51A1.843,1.843,0,0,0,9.645,9.3a5.536,5.536,0,0,0-.562,2.751v.905A6.126,6.126,0,0,0,9.6,15.88a1.882,1.882,0,0,0,1.771.879,2.369,2.369,0,0,0,1.626-.5,2.126,2.126,0,0,0,.6-1.591Zm12.3-1.8a7.546,7.546,0,0,1-.694,3.313A5.132,5.132,0,0,1,26.287,18.4a5.494,5.494,0,0,1-2.914.778,5.572,5.572,0,0,1-2.9-.751A5.123,5.123,0,0,1,18.5,16.275a7.329,7.329,0,0,1-.743-3.208v-.721a7.58,7.58,0,0,1,.69-3.318A5.119,5.119,0,0,1,20.424,6.81,5.854,5.854,0,0,1,26.256,6.8,5.211,5.211,0,0,1,28.238,9a7.362,7.362,0,0,1,.716,3.274Zm-3.138-.536a5.381,5.381,0,0,0-.637-2.9,2.044,2.044,0,0,0-1.824-.989q-2.32,0-2.452,3.48l-.009.94a5.535,5.535,0,0,0,.624,2.892,2.041,2.041,0,0,0,1.854,1.011,2.016,2.016,0,0,0,1.8-.993,5.383,5.383,0,0,0,.642-2.856Zm-2.1-9.554h3.129L24.4,5.535H21.984ZM30.545,19V6.2h4.122a6.064,6.064,0,0,1,3.05.769,5.406,5.406,0,0,1,2.114,2.171,6.554,6.554,0,0,1,.769,3.142v.589a6.592,6.592,0,0,1-.743,3.151,5.429,5.429,0,0,1-2.092,2.18,5.93,5.93,0,0,1-3.01.8ZM33.63,8.585v8.042H34.7a2.4,2.4,0,0,0,2.039-.945,4.63,4.63,0,0,0,.712-2.808V12.32a4.592,4.592,0,0,0-.712-2.795,2.442,2.442,0,0,0-2.074-.94ZM45.469,19H42.393V6.2h3.076ZM58.09,17.418a4.96,4.96,0,0,1-2.083,1.274A8.984,8.984,0,0,1,53,19.176a5.36,5.36,0,0,1-4.017-1.538,6.226,6.226,0,0,1-1.608-4.28l-.009-1.107a7.637,7.637,0,0,1,.668-3.3,4.96,4.96,0,0,1,1.912-2.171,5.407,5.407,0,0,1,2.878-.76,5.669,5.669,0,0,1,3.713,1.094,4.637,4.637,0,0,1,1.542,3.265H55.11a2.426,2.426,0,0,0-.686-1.529,2.212,2.212,0,0,0-1.494-.457,2.013,2.013,0,0,0-1.793.984,5.256,5.256,0,0,0-.642,2.813v.773a5.145,5.145,0,0,0,.655,2.878,2.316,2.316,0,0,0,2.061.962A2.592,2.592,0,0,0,55,16.267V14.28H52.86V12.162H58.09Zm12.63-4.553a7.546,7.546,0,0,1-.694,3.313A5.132,5.132,0,0,1,68.052,18.4a5.494,5.494,0,0,1-2.914.778,5.572,5.572,0,0,1-2.9-.751,5.123,5.123,0,0,1-1.973-2.149,7.329,7.329,0,0,1-.743-3.208v-.721a7.58,7.58,0,0,1,.69-3.318A5.119,5.119,0,0,1,62.19,6.81,5.854,5.854,0,0,1,68.021,6.8,5.211,5.211,0,0,1,70,9a7.362,7.362,0,0,1,.716,3.274Zm-3.138-.536a5.381,5.381,0,0,0-.637-2.9,2.044,2.044,0,0,0-1.824-.989q-2.32,0-2.452,3.48l-.009.94a5.535,5.535,0,0,0,.624,2.892,2.041,2.041,0,0,0,1.854,1.011,2.016,2.016,0,0,0,1.8-.993,5.383,5.383,0,0,0,.642-2.856ZM80.845,6.2l2.856,8.9,2.848-8.9h4.061V19H87.516V16.012l.3-6.117L84.721,19H82.682l-3.1-9.114.3,6.126V19H76.793V6.2ZM99.838,16.609H95.61L94.872,19h-3.3L96.27,6.2h2.9L103.9,19h-3.313Zm-3.489-2.382H99.1L97.72,9.789Zm17.473-5.643H109.98V19H106.9V8.585h-3.771V6.2h10.7Zm9.237,4.992h-4.852v3.05h5.73V19h-8.815V6.2h8.833V8.585h-5.748v2.7h4.852Zm6.891.905h-1.67V19h-3.085V6.2h5.036a5.617,5.617,0,0,1,3.56,1.011,3.426,3.426,0,0,1,1.283,2.856,4.163,4.163,0,0,1-.541,2.215,3.837,3.837,0,0,1-1.692,1.424l2.672,5.159V19h-3.3Zm-1.67-2.382h1.951a1.754,1.754,0,0,0,1.323-.461A1.781,1.781,0,0,0,132,10.352a1.8,1.8,0,0,0-.448-1.3,1.737,1.737,0,0,0-1.318-.47h-1.951ZM140.224,19h-3.076V6.2h3.076Zm9.413-2.391h-4.228L144.671,19h-3.3l4.693-12.8h2.9L153.7,19h-3.313Zm-3.489-2.382H148.9l-1.38-4.438ZM55.088,46.658V51H52V38.2H57.11a5.948,5.948,0,0,1,2.6.541,4.074,4.074,0,0,1,1.749,1.538,4.2,4.2,0,0,1,.62,2.263,3.7,3.7,0,0,1-1.34,2.993,5.561,5.561,0,0,1-3.678,1.121Zm0-2.382H57.11a1.906,1.906,0,0,0,1.367-.448,1.665,1.665,0,0,0,.47-1.266,2.059,2.059,0,0,0-.483-1.433,1.712,1.712,0,0,0-1.318-.545H55.088Zm13.386,2.206H66.8V51H63.719V38.2h5.036a5.617,5.617,0,0,1,3.56,1.011A3.426,3.426,0,0,1,73.6,42.07a4.163,4.163,0,0,1-.541,2.215,3.837,3.837,0,0,1-1.692,1.424l2.672,5.159V51h-3.3ZM66.8,44.1h1.951a1.754,1.754,0,0,0,1.323-.461,1.781,1.781,0,0,0,.444-1.288,1.8,1.8,0,0,0-.448-1.3,1.737,1.737,0,0,0-1.318-.47H66.8ZM78.749,51H75.672V38.2h3.076Zm6.2-12.8,2.856,8.9,2.848-8.9h4.061V51H91.616V48.012l.3-6.117L88.821,51H86.782l-3.1-9.114.3,6.126V51H80.893V38.2Zm18.993,10.406H99.71L98.972,51h-3.3l4.693-12.8h2.9L108,51h-3.313Zm-3.489-2.382H103.2l-1.38-4.438Z" transform="translate(-5371 2865)"/><path class="b" d="M6.222,19V6.2h4.122a6.064,6.064,0,0,1,3.05.769,5.406,5.406,0,0,1,2.114,2.171,6.554,6.554,0,0,1,.769,3.142v.589a6.592,6.592,0,0,1-.743,3.151,5.429,5.429,0,0,1-2.092,2.18,5.93,5.93,0,0,1-3.01.8ZM9.307,8.585v8.042h1.072a2.4,2.4,0,0,0,2.039-.945,4.63,4.63,0,0,0,.712-2.808V12.32a4.592,4.592,0,0,0-.712-2.795,2.442,2.442,0,0,0-2.074-.94ZM25.8,13.577H20.944v3.05h5.73V19H17.859V6.2h8.833V8.585H20.944v2.7H25.8ZM34.532,15.6a1.268,1.268,0,0,0-.479-1.055,5.954,5.954,0,0,0-1.683-.782,16.147,16.147,0,0,1-1.969-.782q-2.487-1.222-2.487-3.357a3.011,3.011,0,0,1,.62-1.876A4.008,4.008,0,0,1,30.287,6.48a6.823,6.823,0,0,1,2.549-.453,5.969,5.969,0,0,1,2.474.492,3.917,3.917,0,0,1,1.7,1.4A3.661,3.661,0,0,1,37.617,10H34.541a1.547,1.547,0,0,0-.479-1.213,1.867,1.867,0,0,0-1.3-.431,2.106,2.106,0,0,0-1.305.365,1.074,1.074,0,0,0,.048,1.819,6.65,6.65,0,0,0,1.854.826,11.36,11.36,0,0,1,2.18.918,3.663,3.663,0,0,1,2.074,3.3,3.125,3.125,0,0,1-1.266,2.637,5.629,5.629,0,0,1-3.472.958,6.888,6.888,0,0,1-2.817-.558,4.247,4.247,0,0,1-1.9-1.529,3.985,3.985,0,0,1-.637-2.237h3.094a1.963,1.963,0,0,0,.532,1.516,2.513,2.513,0,0,0,1.727.488,1.985,1.985,0,0,0,1.208-.33A1.088,1.088,0,0,0,34.532,15.6Zm15.021-.932a4.673,4.673,0,0,1-.721,2.36,4.35,4.35,0,0,1-1.85,1.586,6.3,6.3,0,0,1-2.72.563,5.025,5.025,0,0,1-3.973-1.644,6.786,6.786,0,0,1-1.45-4.641v-.633a7.746,7.746,0,0,1,.655-3.292,4.961,4.961,0,0,1,1.885-2.18,5.26,5.26,0,0,1,2.848-.769A5.516,5.516,0,0,1,47.97,7.245a4.844,4.844,0,0,1,1.608,3.379H46.5a2.292,2.292,0,0,0-.589-1.679,2.422,2.422,0,0,0-1.687-.51,1.843,1.843,0,0,0-1.687.861,5.536,5.536,0,0,0-.562,2.751v.905a6.126,6.126,0,0,0,.514,2.927,1.882,1.882,0,0,0,1.771.879,2.369,2.369,0,0,0,1.626-.5,2.126,2.126,0,0,0,.6-1.591Zm6.214-.185H54.1V19H51.011V6.2h5.036a5.617,5.617,0,0,1,3.56,1.011A3.426,3.426,0,0,1,60.89,10.07a4.163,4.163,0,0,1-.541,2.215,3.837,3.837,0,0,1-1.692,1.424l2.672,5.159V19h-3.3ZM54.1,12.1h1.951a1.754,1.754,0,0,0,1.323-.461,1.781,1.781,0,0,0,.444-1.288,1.8,1.8,0,0,0-.448-1.3,1.737,1.737,0,0,0-1.318-.47H54.1ZM66.041,19H62.964V6.2h3.076Zm5.229-4.342V19H68.185V6.2h5.106a5.948,5.948,0,0,1,2.6.541,4.074,4.074,0,0,1,1.749,1.538,4.2,4.2,0,0,1,.62,2.263,3.7,3.7,0,0,1-1.34,2.993,5.561,5.561,0,0,1-3.678,1.121Zm0-2.382h2.021a1.906,1.906,0,0,0,1.367-.448,1.665,1.665,0,0,0,.47-1.266,2.059,2.059,0,0,0-.483-1.433,1.712,1.712,0,0,0-1.318-.545H71.27Zm18.984,2.391a4.673,4.673,0,0,1-.721,2.36,4.35,4.35,0,0,1-1.85,1.586,6.3,6.3,0,0,1-2.72.563,5.025,5.025,0,0,1-3.973-1.644,6.786,6.786,0,0,1-1.45-4.641v-.633A7.746,7.746,0,0,1,80.2,8.967a4.961,4.961,0,0,1,1.885-2.18,5.26,5.26,0,0,1,2.848-.769,5.516,5.516,0,0,1,3.744,1.226,4.844,4.844,0,0,1,1.608,3.379H87.2a2.292,2.292,0,0,0-.589-1.679,2.422,2.422,0,0,0-1.687-.51,1.843,1.843,0,0,0-1.687.861,5.536,5.536,0,0,0-.562,2.751v.905a6.126,6.126,0,0,0,.514,2.927,1.882,1.882,0,0,0,1.771.879,2.369,2.369,0,0,0,1.626-.5,2.126,2.126,0,0,0,.6-1.591ZM95,19H91.924V6.2H95Zm12.981-6.135a7.546,7.546,0,0,1-.694,3.313,5.132,5.132,0,0,1-1.973,2.219,5.494,5.494,0,0,1-2.914.778,5.572,5.572,0,0,1-2.9-.751,5.123,5.123,0,0,1-1.973-2.149,7.329,7.329,0,0,1-.743-3.208v-.721a7.58,7.58,0,0,1,.69-3.318A5.119,5.119,0,0,1,99.452,6.81a5.854,5.854,0,0,1,5.832-.009A5.211,5.211,0,0,1,107.266,9a7.362,7.362,0,0,1,.716,3.274Zm-3.138-.536a5.381,5.381,0,0,0-.637-2.9,2.044,2.044,0,0,0-1.824-.989q-2.32,0-2.452,3.48l-.009.94a5.535,5.535,0,0,0,.624,2.892,2.041,2.041,0,0,0,1.854,1.011,2.016,2.016,0,0,0,1.8-.993,5.383,5.383,0,0,0,.642-2.856Zm-2.1-9.554h3.129l-2.443,2.76h-2.417ZM120.26,19h-3.067l-4.535-7.963V19h-3.085V6.2h3.085l4.526,7.963V6.2h3.076Z" transform="translate(-5200 2882.151)"/><path class="b" d="M30.058,14.667a4.673,4.673,0,0,1-.721,2.36,4.35,4.35,0,0,1-1.85,1.586,6.3,6.3,0,0,1-2.72.563,5.025,5.025,0,0,1-3.973-1.644,6.786,6.786,0,0,1-1.45-4.641v-.633A7.746,7.746,0,0,1,20,8.967a4.961,4.961,0,0,1,1.885-2.18,5.26,5.26,0,0,1,2.848-.769,5.516,5.516,0,0,1,3.744,1.226,4.844,4.844,0,0,1,1.608,3.379H27.008a2.292,2.292,0,0,0-.589-1.679,2.422,2.422,0,0,0-1.687-.51,1.843,1.843,0,0,0-1.687.861,5.536,5.536,0,0,0-.562,2.751v.905A6.126,6.126,0,0,0,23,15.88a1.882,1.882,0,0,0,1.771.879,2.369,2.369,0,0,0,1.626-.5,2.126,2.126,0,0,0,.6-1.591Zm8.728,1.942H34.558L33.82,19h-3.3L35.217,6.2h2.9L42.846,19H39.533ZM35.3,14.228h2.751l-1.38-4.438ZM54.465,19H51.4l-4.535-7.963V19H43.778V6.2h3.085l4.526,7.963V6.2h3.076Zm12-10.415H62.622V19H59.537V8.585H55.766V6.2h10.7ZM71.05,19H67.974V6.2H71.05Zm2.145,0V6.2h4.122a6.064,6.064,0,0,1,3.05.769A5.406,5.406,0,0,1,82.48,9.143a6.554,6.554,0,0,1,.769,3.142v.589a6.592,6.592,0,0,1-.743,3.151,5.429,5.429,0,0,1-2.092,2.18,5.93,5.93,0,0,1-3.01.8ZM76.28,8.585v8.042h1.072a2.4,2.4,0,0,0,2.039-.945,4.63,4.63,0,0,0,.712-2.808V12.32a4.592,4.592,0,0,0-.712-2.795,2.442,2.442,0,0,0-2.074-.94ZM92.1,16.609H87.873L87.134,19h-3.3L88.532,6.2h2.9L96.161,19H92.847Zm-3.489-2.382h2.751l-1.38-4.438ZM97.092,19V6.2h4.122a6.064,6.064,0,0,1,3.05.769,5.406,5.406,0,0,1,2.114,2.171,6.554,6.554,0,0,1,.769,3.142v.589a6.592,6.592,0,0,1-.743,3.151,5.429,5.429,0,0,1-2.092,2.18,5.93,5.93,0,0,1-3.01.8Zm3.085-10.415v8.042h1.072a2.4,2.4,0,0,0,2.039-.945A4.63,4.63,0,0,0,104,12.874V12.32a4.592,4.592,0,0,0-.712-2.795,2.442,2.442,0,0,0-2.074-.94Z" transform="translate(-4908 2882.151)"/><path class="b" d="M40.754,15.52,43.3,6.2h3.445L42.442,19H39.067L34.8,6.2h3.419Zm13.535,1.09H50.062L49.324,19h-3.3L50.721,6.2h2.9L58.35,19H55.037ZM50.8,14.228h2.751l-1.38-4.438Zm11.566,2.4h5.37V19H59.282V6.2h3.085Zm16.945-3.762a7.546,7.546,0,0,1-.694,3.313A5.132,5.132,0,0,1,76.645,18.4a5.494,5.494,0,0,1-2.914.778,5.572,5.572,0,0,1-2.9-.751,5.123,5.123,0,0,1-1.973-2.149,7.329,7.329,0,0,1-.743-3.208v-.721a7.58,7.58,0,0,1,.69-3.318A5.119,5.119,0,0,1,70.782,6.81,5.854,5.854,0,0,1,76.614,6.8,5.211,5.211,0,0,1,78.6,9a7.362,7.362,0,0,1,.716,3.274Zm-3.138-.536a5.381,5.381,0,0,0-.637-2.9,2.044,2.044,0,0,0-1.824-.989q-2.32,0-2.452,3.48l-.009.94a5.535,5.535,0,0,0,.624,2.892,2.041,2.041,0,0,0,1.854,1.011,2.016,2.016,0,0,0,1.8-.993,5.383,5.383,0,0,0,.642-2.856Zm9.483,2.153h-1.67V19H80.9V6.2h5.036A5.617,5.617,0,0,1,89.5,7.214a3.426,3.426,0,0,1,1.283,2.856,4.163,4.163,0,0,1-.541,2.215,3.837,3.837,0,0,1-1.692,1.424l2.672,5.159V19h-3.3ZM83.988,12.1h1.951a1.754,1.754,0,0,0,1.323-.461,1.781,1.781,0,0,0,.444-1.288,1.8,1.8,0,0,0-.448-1.3,1.737,1.737,0,0,0-1.318-.47H83.988ZM33.161,38.2v8.376a4.814,4.814,0,0,1-.606,2.465,3.929,3.929,0,0,1-1.74,1.586,6.131,6.131,0,0,1-2.681.545,5.3,5.3,0,0,1-3.683-1.213,4.326,4.326,0,0,1-1.371-3.322V38.2h3.1v8.5q.053,2.1,1.951,2.1a1.889,1.889,0,0,0,1.45-.527,2.465,2.465,0,0,0,.492-1.714V38.2ZM45.773,51H42.706L38.17,43.037V51H35.085V38.2H38.17L42.7,46.166V38.2h3.076Zm5.238,0H47.935V38.2h3.076ZM63.2,40.585H59.361V51H56.276V40.585H52.505V38.2H63.2Zm7.515,8.024H66.489L65.75,51h-3.3l4.693-12.8h2.9L74.777,51H71.463Zm-3.489-2.382h2.751L68.6,41.789Zm13.236.255h-1.67V51H75.708V38.2h5.036a5.617,5.617,0,0,1,3.56,1.011,3.426,3.426,0,0,1,1.283,2.856,4.163,4.163,0,0,1-.541,2.215,3.837,3.837,0,0,1-1.692,1.424l2.672,5.159V51h-3.3ZM78.793,44.1h1.951a1.754,1.754,0,0,0,1.323-.461,1.781,1.781,0,0,0,.444-1.288,1.8,1.8,0,0,0-.448-1.3,1.737,1.737,0,0,0-1.318-.47H78.793ZM90.738,51H87.662V38.2h3.076Zm12.981-6.135a7.546,7.546,0,0,1-.694,3.313,5.132,5.132,0,0,1-1.973,2.219,5.494,5.494,0,0,1-2.914.778,5.572,5.572,0,0,1-2.9-.751,5.123,5.123,0,0,1-1.973-2.149,7.329,7.329,0,0,1-.743-3.208v-.721a7.58,7.58,0,0,1,.69-3.318,5.119,5.119,0,0,1,1.978-2.219,5.854,5.854,0,0,1,5.832-.009A5.211,5.211,0,0,1,103,41a7.362,7.362,0,0,1,.716,3.274Zm-3.138-.536a5.381,5.381,0,0,0-.637-2.9,2.044,2.044,0,0,0-1.824-.989q-2.32,0-2.452,3.48l-.009.94a5.535,5.535,0,0,0,.624,2.892,2.041,2.041,0,0,0,1.854,1.011,2.016,2.016,0,0,0,1.8-.993,5.383,5.383,0,0,0,.642-2.856Z" transform="translate(-4747 2865)"/><path class="b" d="M43.221,6.2v8.376a4.814,4.814,0,0,1-.606,2.465,3.929,3.929,0,0,1-1.74,1.586,6.131,6.131,0,0,1-2.681.545,5.3,5.3,0,0,1-3.683-1.213,4.326,4.326,0,0,1-1.371-3.322V6.2h3.1v8.5q.053,2.1,1.951,2.1a1.889,1.889,0,0,0,1.45-.527,2.465,2.465,0,0,0,.492-1.714V6.2ZM55.833,19H52.766L48.23,11.037V19H45.146V6.2H48.23l4.526,7.963V6.2h3.076Zm5.238,0H58V6.2h3.076Zm2.145,0V6.2h4.122a6.064,6.064,0,0,1,3.05.769A5.406,5.406,0,0,1,72.5,9.143a6.554,6.554,0,0,1,.769,3.142v.589a6.592,6.592,0,0,1-.743,3.151,5.429,5.429,0,0,1-2.092,2.18,5.93,5.93,0,0,1-3.01.8ZM66.3,8.585v8.042h1.072a2.4,2.4,0,0,0,2.039-.945,4.63,4.63,0,0,0,.712-2.808V12.32a4.592,4.592,0,0,0-.712-2.795,2.442,2.442,0,0,0-2.074-.94Zm15.82,8.024H77.894L77.155,19h-3.3L78.553,6.2h2.9L86.182,19H82.868Zm-3.489-2.382h2.751L80,9.789ZM87.113,19V6.2h4.122a6.064,6.064,0,0,1,3.05.769A5.406,5.406,0,0,1,96.4,9.143a6.554,6.554,0,0,1,.769,3.142v.589a6.592,6.592,0,0,1-.743,3.151,5.429,5.429,0,0,1-2.092,2.18,5.93,5.93,0,0,1-3.01.8ZM90.2,8.585v8.042h1.072a2.4,2.4,0,0,0,2.039-.945,4.63,4.63,0,0,0,.712-2.808V12.32a4.592,4.592,0,0,0-.712-2.795,2.442,2.442,0,0,0-2.074-.94ZM36.611,38.2l2.856,8.9,2.848-8.9h4.061V51H43.282V48.012l.3-6.117L40.487,51H38.448l-3.1-9.114.3,6.126V51H32.56V38.2Zm19.661,7.374H51.421v3.05h5.73V51H48.336V38.2h8.833v2.382H51.421v2.7h4.852ZM58.408,51V38.2H62.53a6.064,6.064,0,0,1,3.05.769,5.406,5.406,0,0,1,2.114,2.171,6.554,6.554,0,0,1,.769,3.142v.589a6.592,6.592,0,0,1-.743,3.151,5.429,5.429,0,0,1-2.092,2.18,5.93,5.93,0,0,1-3.01.8Zm3.085-10.415v8.042h1.072a2.4,2.4,0,0,0,2.039-.945,4.63,4.63,0,0,0,.712-2.808V44.32a4.592,4.592,0,0,0-.712-2.795,2.442,2.442,0,0,0-2.074-.94ZM73.332,51H70.256V38.2h3.076Zm2.145,0V38.2H79.6a6.064,6.064,0,0,1,3.05.769,5.406,5.406,0,0,1,2.114,2.171,6.554,6.554,0,0,1,.769,3.142v.589a6.592,6.592,0,0,1-.743,3.151A5.429,5.429,0,0,1,82.7,50.2a5.93,5.93,0,0,1-3.01.8Zm3.085-10.415v8.042h1.072a2.4,2.4,0,0,0,2.039-.945,4.63,4.63,0,0,0,.712-2.808V44.32a4.592,4.592,0,0,0-.712-2.795,2.442,2.442,0,0,0-2.074-.94Zm15.82,8.024H90.154L89.416,51h-3.3l4.693-12.8h2.9L98.442,51H95.129Zm-3.489-2.382h2.751l-1.38-4.438Z" transform="translate(-5056 2865)"/><path class="b" d="M32.5,15.52,35.053,6.2H38.5L34.192,19H30.817L26.545,6.2h3.419Zm13.535,1.09H41.812L41.074,19h-3.3L42.471,6.2h2.9L50.1,19H46.787ZM42.55,14.228H45.3l-1.38-4.438Zm11.566,2.4h5.37V19H51.032V6.2h3.085Zm16.945-3.762a7.546,7.546,0,0,1-.694,3.313A5.132,5.132,0,0,1,68.395,18.4a5.494,5.494,0,0,1-2.914.778,5.572,5.572,0,0,1-2.9-.751,5.123,5.123,0,0,1-1.973-2.149,7.329,7.329,0,0,1-.743-3.208v-.721a7.58,7.58,0,0,1,.69-3.318A5.119,5.119,0,0,1,62.532,6.81,5.854,5.854,0,0,1,68.364,6.8,5.211,5.211,0,0,1,70.346,9a7.362,7.362,0,0,1,.716,3.274Zm-3.138-.536a5.381,5.381,0,0,0-.637-2.9,2.044,2.044,0,0,0-1.824-.989q-2.32,0-2.452,3.48l-.009.94a5.535,5.535,0,0,0,.624,2.892,2.041,2.041,0,0,0,1.854,1.011,2.016,2.016,0,0,0,1.8-.993,5.383,5.383,0,0,0,.642-2.856Zm9.483,2.153h-1.67V19H72.653V6.2h5.036a5.617,5.617,0,0,1,3.56,1.011,3.426,3.426,0,0,1,1.283,2.856,4.163,4.163,0,0,1-.541,2.215A3.837,3.837,0,0,1,80.3,13.709l2.672,5.159V19h-3.3ZM75.738,12.1h1.951a1.754,1.754,0,0,0,1.323-.461,1.781,1.781,0,0,0,.444-1.288,1.8,1.8,0,0,0-.448-1.3,1.737,1.737,0,0,0-1.318-.47H75.738ZM38.468,40.585H34.627V51H31.542V40.585H27.771V38.2h10.7Zm11.892,4.28a7.546,7.546,0,0,1-.694,3.313A5.132,5.132,0,0,1,47.692,50.4a5.494,5.494,0,0,1-2.914.778,5.572,5.572,0,0,1-2.9-.751A5.123,5.123,0,0,1,39.9,48.275a7.329,7.329,0,0,1-.743-3.208v-.721a7.58,7.58,0,0,1,.69-3.318A5.119,5.119,0,0,1,41.83,38.81a5.854,5.854,0,0,1,5.832-.009A5.211,5.211,0,0,1,49.643,41a7.362,7.362,0,0,1,.716,3.274Zm-3.138-.536a5.381,5.381,0,0,0-.637-2.9,2.044,2.044,0,0,0-1.824-.989q-2.32,0-2.452,3.48l-.009.94a5.535,5.535,0,0,0,.624,2.892,2.041,2.041,0,0,0,1.854,1.011,2.016,2.016,0,0,0,1.8-.993,5.383,5.383,0,0,0,.642-2.856Zm14.027-3.744H57.408V51H54.323V40.585H50.553V38.2h10.7Zm7.515,8.024H64.536L63.8,51H60.5L65.2,38.2h2.9L72.824,51H69.511Zm-3.489-2.382h2.751l-1.38-4.438Zm11.566,2.4h5.37V51H73.756V38.2h3.085Z" transform="translate(-4607 2865)"/><path class="b" d="M1.609-5.7l.578-5.672H8.016v1.336h-4.6l-.344,3.1a3.671,3.671,0,0,1,1.9-.492A3.138,3.138,0,0,1,7.438-6.4a4.026,4.026,0,0,1,.914,2.777A3.886,3.886,0,0,1,7.4-.855,3.46,3.46,0,0,1,4.75.156,3.6,3.6,0,0,1,2.289-.68,3.337,3.337,0,0,1,1.2-2.992H2.57a2.3,2.3,0,0,0,.7,1.473,2.162,2.162,0,0,0,1.484.5,1.95,1.95,0,0,0,1.582-.687,2.874,2.874,0,0,0,.574-1.9,2.638,2.638,0,0,0-.621-1.832,2.113,2.113,0,0,0-1.652-.691,2.383,2.383,0,0,0-1.484.414l-.383.313Zm15.453.852A6.61,6.61,0,0,1,16.2-1.078,3.084,3.084,0,0,1,13.484.156a3.107,3.107,0,0,1-2.7-1.207,6.274,6.274,0,0,1-.906-3.605v-1.93a6.463,6.463,0,0,1,.867-3.727,3.108,3.108,0,0,1,2.719-1.219,3.136,3.136,0,0,1,2.7,1.176,6.237,6.237,0,0,1,.891,3.629ZM15.617-6.828A5.3,5.3,0,0,0,15.1-9.5a1.775,1.775,0,0,0-1.633-.84,1.751,1.751,0,0,0-1.617.836,5.171,5.171,0,0,0-.523,2.57v2.313A5.381,5.381,0,0,0,11.863-1.9a1.771,1.771,0,0,0,1.621.879,1.747,1.747,0,0,0,1.59-.828,5.186,5.186,0,0,0,.543-2.609Z" transform="translate(-4570 2677.151)"/><path class="f" d="M0,53.876H295V0H0Z" transform="translate(-4792 2589.747)"/><path class="c" d="M8.4,0H.945V-1.039L4.883-5.414A9.354,9.354,0,0,0,6.09-7.027a2.693,2.693,0,0,0,.332-1.285,2.041,2.041,0,0,0-.539-1.461,1.885,1.885,0,0,0-1.437-.57A2.232,2.232,0,0,0,2.77-9.73a2.343,2.343,0,0,0-.6,1.707H.727a3.355,3.355,0,0,1,1.012-2.539,3.751,3.751,0,0,1,2.707-.969,3.6,3.6,0,0,1,2.508.832,2.838,2.838,0,0,1,.922,2.215q0,1.68-2.141,4L2.688-1.18H8.4Zm8.984,0H9.93V-1.039l3.938-4.375a9.355,9.355,0,0,0,1.207-1.613,2.693,2.693,0,0,0,.332-1.285,2.041,2.041,0,0,0-.539-1.461,1.885,1.885,0,0,0-1.437-.57,2.232,2.232,0,0,0-1.676.613,2.343,2.343,0,0,0-.6,1.707H9.711a3.355,3.355,0,0,1,1.012-2.539,3.751,3.751,0,0,1,2.707-.969,3.6,3.6,0,0,1,2.508.832,2.838,2.838,0,0,1,.922,2.215q0,1.68-2.141,4l-3.047,3.3h5.711Zm3.633-6.391H22.1a2.387,2.387,0,0,0,1.609-.539A1.8,1.8,0,0,0,24.3-8.344a1.764,1.764,0,0,0-1.992-2,2.072,2.072,0,0,0-1.5.535,1.873,1.873,0,0,0-.559,1.418H18.8a2.9,2.9,0,0,1,.988-2.246,3.6,3.6,0,0,1,2.512-.895,3.558,3.558,0,0,1,2.523.852,3.076,3.076,0,0,1,.914,2.367,2.5,2.5,0,0,1-.48,1.438,2.9,2.9,0,0,1-1.309,1.039,2.8,2.8,0,0,1,1.449.984,2.734,2.734,0,0,1,.512,1.68,3.1,3.1,0,0,1-1,2.43,3.745,3.745,0,0,1-2.6.9,3.844,3.844,0,0,1-2.605-.867A2.877,2.877,0,0,1,18.7-3h1.453a1.859,1.859,0,0,0,.586,1.438,2.229,2.229,0,0,0,1.57.539,2.187,2.187,0,0,0,1.6-.547,2.108,2.108,0,0,0,.555-1.57,1.912,1.912,0,0,0-.609-1.523A2.655,2.655,0,0,0,22.1-5.211H21.016Zm8.984,0h1.086A2.387,2.387,0,0,0,32.7-6.93a1.8,1.8,0,0,0,.586-1.414,1.764,1.764,0,0,0-1.992-2,2.072,2.072,0,0,0-1.5.535,1.873,1.873,0,0,0-.559,1.418H27.789a2.9,2.9,0,0,1,.988-2.246,3.6,3.6,0,0,1,2.512-.895,3.558,3.558,0,0,1,2.523.852,3.076,3.076,0,0,1,.914,2.367,2.5,2.5,0,0,1-.48,1.438,2.9,2.9,0,0,1-1.309,1.039,2.8,2.8,0,0,1,1.449.984,2.734,2.734,0,0,1,.512,1.68,3.1,3.1,0,0,1-1,2.43,3.745,3.745,0,0,1-2.6.9,3.844,3.844,0,0,1-2.605-.867,2.877,2.877,0,0,1-1-2.289h1.453a1.859,1.859,0,0,0,.586,1.438,2.229,2.229,0,0,0,1.57.539,2.187,2.187,0,0,0,1.6-.547,2.108,2.108,0,0,0,.555-1.57,1.912,1.912,0,0,0-.609-1.523,2.655,2.655,0,0,0-1.758-.547H30Z" transform="translate(-4570 2619.947)"/><path class="c" d="M-68.177-4.518h-1.67V0h-3.085V-12.8H-67.9a5.617,5.617,0,0,1,3.56,1.011A3.426,3.426,0,0,1-63.053-8.93a4.163,4.163,0,0,1-.541,2.215,3.837,3.837,0,0,1-1.692,1.424l2.672,5.159V0h-3.3ZM-69.847-6.9H-67.9a1.754,1.754,0,0,0,1.323-.461,1.781,1.781,0,0,0,.444-1.288,1.8,1.8,0,0,0-.448-1.3,1.737,1.737,0,0,0-1.318-.47h-1.951Zm16.594,1.477H-58.1v3.05h5.73V0h-8.815V-12.8h8.833v2.382H-58.1v2.7h4.852Zm12.99-.712a7.562,7.562,0,0,1-.589,3.1A5.385,5.385,0,0,1-42.478-.914L-40.412.721l-1.907,1.617L-45.07.123a5.718,5.718,0,0,1-.773.053,5.547,5.547,0,0,1-2.9-.756,5.141,5.141,0,0,1-1.973-2.162,7.343,7.343,0,0,1-.734-3.234v-.677a7.572,7.572,0,0,1,.69-3.322,5.142,5.142,0,0,1,1.969-2.215,5.5,5.5,0,0,1,2.931-.782,5.479,5.479,0,0,1,2.9.773A5.211,5.211,0,0,1-40.979-10a7.362,7.362,0,0,1,.716,3.274ZM-43.4-6.671a5.381,5.381,0,0,0-.637-2.9,2.044,2.044,0,0,0-1.824-.989A2.03,2.03,0,0,0-47.7-9.58a5.451,5.451,0,0,0-.624,2.856v.589a5.531,5.531,0,0,0,.624,2.9,2.043,2.043,0,0,0,1.854,1.006,2.014,2.014,0,0,0,1.806-.993A5.414,5.414,0,0,0-43.4-6.082ZM-28.652-12.8v8.376a4.814,4.814,0,0,1-.606,2.465A3.929,3.929,0,0,1-31-.369,6.131,6.131,0,0,1-33.68.176a5.3,5.3,0,0,1-3.683-1.213,4.326,4.326,0,0,1-1.371-3.322V-12.8h3.1v8.5q.053,2.1,1.951,2.1a1.889,1.889,0,0,0,1.45-.527,2.465,2.465,0,0,0,.492-1.714V-12.8ZM-23.44,0h-3.076V-12.8h3.076ZM-14.7-3.4a1.268,1.268,0,0,0-.479-1.055,5.954,5.954,0,0,0-1.683-.782,16.147,16.147,0,0,1-1.969-.782q-2.487-1.222-2.487-3.357a3.011,3.011,0,0,1,.62-1.876A4.008,4.008,0,0,1-18.94-12.52a6.823,6.823,0,0,1,2.549-.453,5.969,5.969,0,0,1,2.474.492,3.917,3.917,0,0,1,1.7,1.4A3.661,3.661,0,0,1-11.61-9h-3.076a1.547,1.547,0,0,0-.479-1.213,1.867,1.867,0,0,0-1.3-.431,2.106,2.106,0,0,0-1.305.365,1.119,1.119,0,0,0-.479.927,1.127,1.127,0,0,0,.527.892,6.65,6.65,0,0,0,1.854.826,11.36,11.36,0,0,1,2.18.918,3.663,3.663,0,0,1,2.074,3.3A3.125,3.125,0,0,1-12.876-.782a5.629,5.629,0,0,1-3.472.958,6.888,6.888,0,0,1-2.817-.558,4.247,4.247,0,0,1-1.9-1.529A3.985,3.985,0,0,1-21.7-4.148h3.094a1.963,1.963,0,0,0,.532,1.516,2.513,2.513,0,0,0,1.727.488,1.985,1.985,0,0,0,1.208-.33A1.088,1.088,0,0,0-14.7-3.4ZM-6.741,0H-9.817V-12.8h3.076Zm12.5-4.333a4.673,4.673,0,0,1-.721,2.36A4.35,4.35,0,0,1,3.186-.387,6.3,6.3,0,0,1,.466.176,5.025,5.025,0,0,1-3.507-1.468a6.786,6.786,0,0,1-1.45-4.641v-.633A7.746,7.746,0,0,1-4.3-10.033a4.961,4.961,0,0,1,1.885-2.18,5.26,5.26,0,0,1,2.848-.769,5.516,5.516,0,0,1,3.744,1.226A4.844,4.844,0,0,1,5.783-8.376H2.707a2.292,2.292,0,0,0-.589-1.679,2.422,2.422,0,0,0-1.687-.51A1.843,1.843,0,0,0-1.257-9.7a5.536,5.536,0,0,0-.562,2.751v.905A6.126,6.126,0,0,0-1.305-3.12a1.882,1.882,0,0,0,1.771.879,2.369,2.369,0,0,0,1.626-.5,2.126,2.126,0,0,0,.6-1.591ZM10.5,0H7.427V-12.8H10.5ZM23.484-6.135a7.546,7.546,0,0,1-.694,3.313A5.132,5.132,0,0,1,20.817-.6,5.494,5.494,0,0,1,17.9.176,5.572,5.572,0,0,1,15-.576,5.123,5.123,0,0,1,13.03-2.725a7.329,7.329,0,0,1-.743-3.208v-.721a7.58,7.58,0,0,1,.69-3.318,5.119,5.119,0,0,1,1.978-2.219,5.533,5.533,0,0,1,2.931-.782,5.479,5.479,0,0,1,2.9.773A5.211,5.211,0,0,1,22.768-10a7.362,7.362,0,0,1,.716,3.274Zm-3.138-.536a5.381,5.381,0,0,0-.637-2.9,2.044,2.044,0,0,0-1.824-.989q-2.32,0-2.452,3.48l-.009.94a5.535,5.535,0,0,0,.624,2.892A2.041,2.041,0,0,0,17.9-2.232a2.016,2.016,0,0,0,1.8-.993,5.383,5.383,0,0,0,.642-2.856Zm-2.1-9.554h3.129l-2.443,2.76H16.515ZM35.763,0H32.7L28.16-7.963V0H25.075V-12.8H28.16l4.526,7.963V-12.8h3.076ZM52.884,0H49.816L45.281-7.963V0H42.2V-12.8h3.085l4.526,7.963V-12.8h3.076Zm1.441-4.843a5.613,5.613,0,0,1,.554-2.536A3.96,3.96,0,0,1,56.47-9.088a4.791,4.791,0,0,1,2.435-.6,4.373,4.373,0,0,1,3.366,1.323,5.076,5.076,0,0,1,1.23,3.6v.105a4.925,4.925,0,0,1-1.235,3.529A4.384,4.384,0,0,1,58.922.176a4.434,4.434,0,0,1-3.261-1.217,4.761,4.761,0,0,1-1.327-3.3Zm2.962.185A3.538,3.538,0,0,0,57.7-2.725a1.376,1.376,0,0,0,1.222.615q1.582,0,1.617-2.435v-.3Q60.539-7.4,58.9-7.4q-1.485,0-1.608,2.206Zm9.352,1.784a1.686,1.686,0,0,1,1.169.417,1.37,1.37,0,0,1,.466,1.068,1.37,1.37,0,0,1-.466,1.068A1.686,1.686,0,0,1,66.639.1a1.672,1.672,0,0,1-1.173-.422A1.379,1.379,0,0,1,65-1.389a1.379,1.379,0,0,1,.461-1.063A1.672,1.672,0,0,1,66.639-2.874Z" transform="translate(-4707 2618.947)"/></g></svg>