<svg xmlns="http://www.w3.org/2000/svg" width="297.106" height="342.942" viewBox="0 0 297.106 342.942"><defs><style>.a{fill:#aed3f2;}.b{fill:#fff;}.c{fill:#344154;}.d{fill:#839eb6;}.e{fill:#ffbf9d;}.f{fill:#ff9a6c;}.g{opacity:0.3;}.h{fill:#d9a171;}.i{fill:#fafafa;}.j{fill:#b8695e;}.k{fill:#925249;}.l{fill:#5e6178;}</style></defs><g transform="translate(-43.32 -73.793)"><g transform="translate(43.32 73.793)"><path class="a" d="M195.764,282.225a8.726,8.726,0,0,0,5.2-8.065,8.19,8.19,0,1,0-16.346-.069,8.711,8.711,0,0,0,5.205,8.134c-12.571,1.891-12,15.561-12,15.561l29.731.131S208.234,284.108,195.764,282.225Z" transform="translate(-74.409 -118.086)"/><g transform="translate(121.785)"><g transform="translate(0 13.46)"><rect class="b" width="174.959" height="129.935" transform="translate(0.146 0.2)"/><path class="c" d="M376.825,221.435c0-1.353-.061-51.282-.161-129.935l.161.161H201.881l.2-.2V221.4l-.177-.177,174.951.177-174.951.185h-.185V91.3H377.04v.161C376.886,170.153,376.825,220.082,376.825,221.435Z" transform="translate(-201.72 -91.3)"/><path class="d" d="M376.984,116.54c0,.115-39.08.2-87.28.2s-87.295-.085-87.295-.2,39.081-.2,87.295-.2S376.984,116.432,376.984,116.54Z" transform="translate(-201.88 -97.088)"/><path class="d" d="M214.154,103.209a2.637,2.637,0,1,1-2.637-2.629,2.637,2.637,0,0,1,2.637,2.629Z" transform="translate(-203.375 -93.445)"/><path class="d" d="M224.474,103.209a2.637,2.637,0,1,1-2.637-2.629,2.637,2.637,0,0,1,2.637,2.629Z" transform="translate(-205.761 -93.445)"/><path class="d" d="M234.8,103.209a2.637,2.637,0,1,1-2.637-2.629,2.637,2.637,0,0,1,2.637,2.629Z" transform="translate(-208.148 -93.445)"/></g><g transform="translate(66.031)"><path class="d" d="M316.1,77.8a4.559,4.559,0,0,0-4.613-2.56A6.258,6.258,0,0,0,303.8,75a5.559,5.559,0,0,0-8.6,4.129,4.613,4.613,0,0,0-4.444,7.619,4.467,4.467,0,0,0,1.415,8.734L315.01,82.932A4.567,4.567,0,0,0,316.1,77.8Z" transform="translate(-287.604 -73.793)"/><g transform="translate(1.301 2.114)"><g transform="translate(0 2.374)"><path class="e" d="M291.882,97.821a18.944,18.944,0,0,1,19.736-16.469l.976.046c10.541,1.146,15.462,10.764,14.031,21.236l-3.283,35.129-.177,1.707-24.642,3.683.484-8.972s-10.087-2.084-9.7-12.255C289.484,117.012,290.691,106.932,291.882,97.821Z" transform="translate(-289.296 -80.023)"/><path class="f" d="M301.8,149.029a24.68,24.68,0,0,0,13.509-3.229s-3.5,7.15-13.586,5.736Z" transform="translate(-292.168 -94.926)"/><path class="c" d="M295.519,115.255a1.461,1.461,0,0,0,1.33,1.538,1.4,1.4,0,0,0,1.538-1.238,1.453,1.453,0,0,0-1.33-1.538,1.392,1.392,0,0,0-1.538,1.238Z" transform="translate(-290.734 -87.577)"/><path class="c" d="M295.174,108.983c.169.2,1.307-.561,2.868-.477s2.668.915,2.845.769-.077-.431-.561-.815a3.937,3.937,0,0,0-2.26-.823,3.775,3.775,0,0,0-2.307.615C295.266,108.56,295.089,108.891,295.174,108.983Z" transform="translate(-290.65 -86.103)"/><path class="c" d="M313.449,116.478a1.438,1.438,0,0,0,1.322,1.538,1.376,1.376,0,0,0,1.538-1.23,1.461,1.461,0,0,0-1.322-1.538,1.392,1.392,0,0,0-1.538,1.23Z" transform="translate(-294.878 -87.862)"/><path class="c" d="M315.113,110.351c.169.2,1.315-.561,2.875-.477s2.66.915,2.845.769-.077-.438-.561-.823A4.021,4.021,0,0,0,318,109a3.844,3.844,0,0,0-2.307.615C315.213,109.929,315.021,110.259,315.113,110.351Z" transform="translate(-295.259 -86.418)"/><path class="c" d="M305.837,121.558a10,10,0,0,0-2.514-.584c-.392-.062-.769-.161-.823-.438a2.06,2.06,0,0,1,.323-1.169l1.33-2.975a59.878,59.878,0,0,0,3.075-7.811,56.375,56.375,0,0,0-3.667,7.55l-1.276,3a2.306,2.306,0,0,0-.284,1.538,1.023,1.023,0,0,0,.623.615,2.391,2.391,0,0,0,.677.123A10.325,10.325,0,0,0,305.837,121.558Z" transform="translate(-292.226 -86.322)"/><path class="c" d="M311.352,127.16c-.254,0-.338,1.668-1.853,2.8s-3.306.853-3.329,1.092c0,.1.384.346,1.146.407a4.229,4.229,0,0,0,2.776-.815,3.7,3.7,0,0,0,1.445-2.353C311.637,127.583,311.467,127.152,311.352,127.16Z" transform="translate(-293.197 -90.617)"/><path class="d" d="M315,102.461c.131.438,1.707.315,3.521.623s3.283.884,3.544.515c.115-.177-.123-.584-.7-1.03a5.958,5.958,0,0,0-2.591-1.053,6.028,6.028,0,0,0-2.791.192C315.29,101.946,314.936,102.261,315,102.461Z" transform="translate(-295.236 -84.67)"/><path class="d" d="M296.2,103.1c.261.369,1.353.054,2.645.1s2.383.354,2.653,0c.115-.177-.038-.538-.5-.9a3.844,3.844,0,0,0-4.267-.077C296.262,102.565,296.093,102.927,296.2,103.1Z" transform="translate(-290.885 -84.713)"/><path class="d" d="M294.23,92.816s2.991-6.228,6.151-7.558c3.844-1.615,5.205,2.545,8.788,1.73s7.227-2.368,10.71.554c3.806,3.191,1.845,5.2,1.868,9.718.085,18.329,3.168,23.665,4.544,15.1.146-.938,2.806-1.538,3.391-5.52.769-5.144,1.269-11.41.3-15.131-.823-3.145-2.476-5.382-5.52-7.881-4.805-3.96-11.656-4.382-16.33-4.144S294.2,84.828,294.23,92.816Z" transform="translate(-290.437 -79.631)"/><path class="e" d="M334.877,121.04a2.768,2.768,0,0,1,3.114-2.506c1.884.269,3.936,1.453,3.621,5.382-.569,6.92-7.412,4.936-7.412,4.736S334.615,123.938,334.877,121.04Z" transform="translate(-299.676 -88.618)"/><path class="f" d="M336.438,126.821a2.759,2.759,0,0,0,.315.208,1.192,1.192,0,0,0,.9.092,2.958,2.958,0,0,0,1.6-2.568,3.991,3.991,0,0,0-.192-1.761,1.384,1.384,0,0,0-.838-1,.623.623,0,0,0-.769.269c-.108.192-.077.331-.115.338s-.138-.131-.054-.407a.769.769,0,0,1,.308-.415.907.907,0,0,1,.677-.123,1.707,1.707,0,0,1,1.176,1.184,4.09,4.09,0,0,1,.261,1.961c-.161,1.4-.984,2.645-2.007,2.852a1.3,1.3,0,0,1-1.092-.269C336.438,126.99,336.415,126.836,336.438,126.821Z" transform="translate(-300.191 -89.294)"/></g><path class="d" d="M327.73,97.876a6.666,6.666,0,0,1-3.014,1.207,2.258,2.258,0,0,1-2.43-1.715c-.061-.492.085-1.046-.215-1.43s-1.061-.361-1.653-.331a4.444,4.444,0,0,1-4.444-3.406,1.833,1.833,0,0,1-2.506.108,9.928,9.928,0,0,1-1.791-2.114,2.86,2.86,0,0,0-2.307-1.315,7.167,7.167,0,0,1-1.538.261c-.907-.131-1.3-1.215-1.392-2.13s-.146-1.976-.9-2.506a3.429,3.429,0,0,0-2.476-.192c-.846.085-1.922-.169-2.1-1a1.63,1.63,0,0,1,.377-1.246,4.505,4.505,0,0,1,5.382-1.438,6.1,6.1,0,0,1,11.256-.623,6.2,6.2,0,0,1,9.787,2.745,4.49,4.49,0,0,1,4.744,6.774,4.267,4.267,0,0,1,2.168,3.514c-.046,1.438-1.538,2.8-2.883,2.353a2.483,2.483,0,0,1-4.421,2.26" transform="translate(-291.991 -76.543)"/></g><path class="b" d="M338.651,101.07a1.668,1.668,0,0,1-.5,1.315,2.191,2.191,0,0,1-1.43.769,2.391,2.391,0,0,1-1.953-.677h.292a6.851,6.851,0,0,1-1.469,1.661,4.052,4.052,0,0,1-1.307.723,2.668,2.668,0,0,1-1.407.062,2.76,2.76,0,0,1-1.945-1.246,4.252,4.252,0,0,1-.492-1.476,1.315,1.315,0,0,1,0-.561,5.479,5.479,0,0,1,.177.531,4.76,4.76,0,0,0,.577,1.353,2.837,2.837,0,0,0,4.167.3,6.8,6.8,0,0,0,1.407-1.538l.131-.2.161.169a2.114,2.114,0,0,0,1.653.615,2.045,2.045,0,0,0,1.292-.6,3.414,3.414,0,0,0,.646-1.2Z" transform="translate(-297.036 -80.098)"/><path class="b" d="M320.03,78.686a1.317,1.317,0,0,0-.5.154,2.36,2.36,0,0,0-1.122.861l-.092.131-.085-.131A8.657,8.657,0,0,0,315,76.81a6.781,6.781,0,0,0-2.7-.769,5.551,5.551,0,0,0-2.983.692,5.712,5.712,0,0,0-1.838,1.538,4.79,4.79,0,0,0-.869,2.061v.215l-.208-.062a3.844,3.844,0,0,0-2.906.208,3.714,3.714,0,0,0-1.661,1.615,5.159,5.159,0,0,0-.538,2.03,1.4,1.4,0,0,1-.054-.569,3.791,3.791,0,0,1,.392-1.538,3.921,3.921,0,0,1,1.722-1.745,4.152,4.152,0,0,1,3.16-.284l-.246.146a5.1,5.1,0,0,1,.923-2.237,6.082,6.082,0,0,1,5.151-2.422,6.981,6.981,0,0,1,2.845.815,8.457,8.457,0,0,1,3.252,3.075h-.185a2.353,2.353,0,0,1,1.269-.846A1.046,1.046,0,0,1,320.03,78.686Z" transform="translate(-290.755 -74.23)"/><path class="f" d="M315.42,127.926c-.115,0-.115-.769-.677-1.376s-1.269-.769-1.253-.884.2-.1.515,0a2.038,2.038,0,0,1,1.038.654,1.976,1.976,0,0,1,.484,1.138A1.238,1.238,0,0,1,315.42,127.926Z" transform="translate(-293.587 -85.765)"/><path class="f" d="M316.455,125.907c-.1.054-.346-.2-.707-.384s-.7-.246-.707-.354.423-.246.9,0S316.547,125.868,316.455,125.907Z" transform="translate(-293.946 -85.637)"/><path class="f" d="M326.433,146.025a.548.548,0,0,0,.192-.177.6.6,0,0,0,.046-.607c-.1-.269-.4-.523-.6-.976a.93.93,0,0,1,.054-.815,5.611,5.611,0,0,1,.477-.569c.561-.669-.984-1.215-.769-2.091a1.077,1.077,0,0,1,.415-.723c.161-.115.277-.123.284-.1a1.422,1.422,0,0,0-.415.846,1.092,1.092,0,0,0,.477.846,1.768,1.768,0,0,1,.446.6.869.869,0,0,1-.138.869c-.177.223-.361.369-.454.523a.515.515,0,0,0-.038.484c.108.346.407.654.515,1.007a.769.769,0,0,1-.208.823C326.556,146.095,326.426,146.041,326.433,146.025Z" transform="translate(-296.436 -89.087)"/><path class="f" d="M329.185,145.724a.631.631,0,0,0-.077-.254,2.382,2.382,0,0,0-.361-.6,3.076,3.076,0,0,1-.277-.461.992.992,0,0,1-.069-.677c.138-.5.561-.769.769-1.146s.054-.654-.231-.969a2.237,2.237,0,0,1-.354-.523,1.291,1.291,0,0,1-.077-.577c.092-.723.584-.907.584-.861a1.838,1.838,0,0,0-.308.876,1.176,1.176,0,0,0,.431.838,1.784,1.784,0,0,1,.407.592.953.953,0,0,1-.108.83c-.292.446-.669.715-.769,1.038a1.15,1.15,0,0,0,.238.884,1.8,1.8,0,0,1,.269.723C329.27,145.64,329.208,145.732,329.185,145.724Z" transform="translate(-297.027 -89.017)"/></g><g transform="translate(35.063 55.916)"><path class="d" d="M348.438,216.316l9.226,8.888-2.983-16.984L373.4,202.3s4.967,23.335,5.836,28.847c1.538,9.9-.354,23.98-9.58,24.964-10,1.076-17.522-8.773-22.3-15.231-3.69-4.967-9.641-13.647-9.641-13.647l10.764-10.9" transform="translate(-268.219 -159.414)"/><path class="d" d="M256.232,200.87c-3.006,9.457-7.2,10.887-8.857,37.981-.323,5.282.815,12.3,5.828,14.039,5.566,1.891,14.085-1.538,16.761-6.151V228.1Z" transform="translate(-247.324 -159.083)"/><path class="c" d="M273.73,250.068a40.066,40.066,0,0,0-1.845-3.983,42.287,42.287,0,0,0-2.545-3.575,4.105,4.105,0,0,1,.969.876,14.2,14.2,0,0,1,1.845,2.576,14.51,14.51,0,0,1,1.276,2.876,4.113,4.113,0,0,1,.3,1.23Z" transform="translate(-252.413 -168.708)"/><path class="d" d="M253,202.723c.154-.561,9.4-25.7,12.3-31.208,3.529-6.589,10.941-9.5,15.538-9.78s53.819,3.637,53.819,3.637,13.793,3.467,16.584,15.946c3.5,15.646,6.312,31.085,6.312,31.085l-24.6,5.328-2.906-7.312L283.685,220.76,272.36,204.015Z" transform="translate(-248.636 -150.034)"/><g transform="translate(22.47)"><path class="d" d="M343.44,163.3l-19.229-8.48-2.153-8.3-22.45,10.61-4.705-5.19-1.968,5.851-4.921,1.607-9.68,19.09-1.784,44.224.169,11.487,66.352.446-.538-18.806Z" transform="translate(-276.55 -146.52)"/><path class="d" d="M328.983,146.52s-2.506.723-8.949,4.167c-6.32,3.368-13.493,6.443-13.493,6.443l.538,10.141,23.9-11.994" transform="translate(-283.482 -146.52)"/><path class="d" d="M299.819,153.57l4.705,5.19-2.514,10.871-4.19-9.826" transform="translate(-281.467 -148.15)"/><g class="g" transform="translate(21.428 9.803)"><path class="h" d="M305.958,161.2c-.208.154-1.538,12.54-1.538,12.54l23.95-14.47-21.8,10.948Z" transform="translate(-304.42 -159.27)"/></g></g><path class="h" d="M302.731,241.514s-.492-18.36-.054-29.877c.361-9.472-1.13-33.637-1.13-33.637l-3.122-.5a352.141,352.141,0,0,0-8.011,52.282l-.884,11.648" transform="translate(-257.08 -153.681)"/><path class="c" d="M356.16,197.39a5.512,5.512,0,0,1,.223.976c.123.692.284,1.6.484,2.683.4,2.307.938,5.443,1.538,8.888s1.123,6.612,1.461,8.9c.169,1.138.3,2.061.384,2.706a5.266,5.266,0,0,1,.092.992,5.512,5.512,0,0,1-.223-.976c-.123-.692-.284-1.6-.484-2.683-.407-2.307-.953-5.443-1.538-8.88s-1.092-6.62-1.43-8.9c-.154-1.092-.284-2.007-.384-2.706A5.265,5.265,0,0,1,356.16,197.39Z" transform="translate(-272.482 -158.279)"/><path class="c" d="M363.273,170.24c0,.046-.654.584-1.622,1.584a19.528,19.528,0,0,0-5.074,9.441c-.3,1.361-.369,2.222-.423,2.222a2.307,2.307,0,0,1,0-.615,12.812,12.812,0,0,1,.2-1.653,17.63,17.63,0,0,1,5.136-9.564,12.005,12.005,0,0,1,1.276-1.076,2.084,2.084,0,0,1,.507-.338Z" transform="translate(-272.476 -152.003)"/><path class="h" d="M305.269,166.378l-2.137-.838-2.03,3.483-.361,5.713,2.852.454,2.153-3.521Z" transform="translate(-259.671 -150.917)"/><path class="c" d="M276.5,188.73c.092,0,.169,12.363.169,27.609s-.077,27.617-.169,27.617-.169-12.363-.169-27.617S276.407,188.73,276.5,188.73Z" transform="translate(-254.029 -156.277)"/><path class="c" d="M304.72,160.21c.038,0-.461.769-1.222,2.068s-1.761,3.075-2.714,5.09c-.077.169-.161.331-.231.492l-.146.315-.154-.315a39.761,39.761,0,0,1-2-5.067c-.208-.654-.354-1.192-.446-1.538a1.913,1.913,0,0,1-.108-.584,22.034,22.034,0,0,1,.769,2.084,51.485,51.485,0,0,0,2.084,4.99h-.315l.223-.5a44.308,44.308,0,0,1,2.822-5.074c.408-.615.769-1.107,1.007-1.445S304.7,160.194,304.72,160.21Z" transform="translate(-258.969 -149.684)"/><path class="c" d="M331.158,157.31a1.97,1.97,0,0,1-.331.192l-.969.507-3.567,1.853c-3.014,1.538-7.135,3.8-11.7,6.235-2.783,1.484-5.42,2.86-7.688,4.006l-.208.108v-.238c0-2.975-.054-5.474-.077-7.289v-2.061a4.833,4.833,0,0,1,0-.723,4.069,4.069,0,0,1,.061.723c0,.515.046,1.207.077,2.053.046,1.814.115,4.321.192,7.3l-.215-.131c2.307-1.169,4.905-2.553,7.688-4.036,4.567-2.437,8.711-4.613,11.756-6.151,1.538-.769,2.76-1.361,3.621-1.761l.992-.446A1.376,1.376,0,0,1,331.158,157.31Z" transform="translate(-261.026 -149.014)"/><path class="c" d="M279.472,167.47c.046,0-.331.669-.815,1.745A19.321,19.321,0,0,0,277,178.234c.062,1.184.192,1.907.131,1.922a1.822,1.822,0,0,1-.146-.5,11.587,11.587,0,0,1-.223-1.407,16.669,16.669,0,0,1,1.7-9.134,12.619,12.619,0,0,1,.7-1.23C279.341,167.608,279.449,167.454,279.472,167.47Z" transform="translate(-254.111 -151.362)"/><path class="c" d="M303.094,178.141c-.046.085-.592-.177-1.207-.569s-1.084-.769-1.038-.846.592.177,1.215.569S303.148,178.064,303.094,178.141Z" transform="translate(-259.696 -153.499)"/><path class="c" d="M304.329,174.98a15.641,15.641,0,0,1-1.453-2.891,15.976,15.976,0,0,1-1.146-3.029,16.561,16.561,0,0,1,1.453,2.891A15.977,15.977,0,0,1,304.329,174.98Z" transform="translate(-259.9 -151.73)"/><g class="g" transform="translate(5.525 59.939)"><path class="h" d="M306.938,238.365a2.137,2.137,0,0,0-.769-1.392c-.769-.523-1.791.161-2.6.646-2.145,1.276-4.79,1.23-7.273,1.123a183.751,183.751,0,0,1-22.412-2.13,33.868,33.868,0,0,1-10.526-3.137,14.116,14.116,0,0,1-7.112-8.058l-1.738-.938c1.345,2.868,1.207,10.979,1.691,14.108s1.868,5.382,4.874,6.328a10.6,10.6,0,0,0,3.783.269c12.348-.607,24.811-.054,37.158-.669,1.768-.085,3.844-.323,4.759-1.814C307.607,241.448,307.284,239.818,306.938,238.365Z" transform="translate(-254.51 -224.48)"/></g><path class="c" d="M372.445,244.436l-.085-.146-.223-.438c-.1-.192-.215-.431-.354-.707l-.615-.915a32.836,32.836,0,0,0-4.79-5.205c-2.23-2.053-5.067-4.367-8.25-7-1.584-1.33-3.275-2.729-4.959-4.282a47.115,47.115,0,0,1-4.982-5.182h.238l-9.618,10.072-1.284,1.338v-.208c3.629,5.32,6.92,10.464,10.41,14.77a70.03,70.03,0,0,0,5.236,5.851,43.634,43.634,0,0,0,5.082,4.529c3.321,2.506,6.666,3.583,8.98,3.529h.823l.715-.077.615-.061.492-.115.684-.146.231-.038a.846.846,0,0,1-.223.069l-.677.185-.492.123-.623.085-.715.092h-.83c-2.345.1-5.751-.961-9.119-3.467a43.2,43.2,0,0,1-5.136-4.521,69.015,69.015,0,0,1-5.274-5.851c-3.506-4.313-6.827-9.465-10.456-14.77l-.077-.115.092-.092,1.284-1.345,9.626-10.049.131-.131.115.146a46.353,46.353,0,0,0,4.928,5.151c1.676,1.538,3.36,2.96,4.936,4.3,3.168,2.653,5.989,4.982,8.211,7.066a32.007,32.007,0,0,1,4.744,5.29c.223.354.415.661.592.93a4.056,4.056,0,0,1,.338.769c.1.238.146.338.2.454a.63.63,0,0,1,.077.123Z" transform="translate(-268.092 -163.554)"/><g class="g" transform="translate(70.646 70.988)"><path class="h" d="M340.256,239.173l-1.046-.323a63.159,63.159,0,0,0,6.32,17.138h7.5C350.189,252.436,340.256,239.173,340.256,239.173Z" transform="translate(-339.21 -238.85)"/></g></g><g transform="translate(33.928 95.973)"><g transform="translate(41.419)"><path class="e" d="M338.178,216.934,323,200.35l-9.1-1.73-10.333,1.315a2.214,2.214,0,0,0,1.307,2.506l-3.844.215a2.176,2.176,0,0,0,1.415,2.837l-2.722.477a3.921,3.921,0,0,0,4.252,2.253,59.25,59.25,0,0,1,8.073-.546l5.382,2.945-7.965-.331-5.782,1.092s-.769,1.476.546,1.83,6.328,0,6.328,0l7.219,2.307s2.814,4.006,3.8,5.09,5.674,3.114,5.674,3.114l2.307,2.068Z" transform="translate(-299.72 -198.62)"/><path class="f" d="M301.45,203.378a14.792,14.792,0,0,0,2.968-.108c1.822-.146,4.336-.384,7.112-.684l2.66-.292h-.108c2.068.584,3.844,1.069,5.144,1.392a9.709,9.709,0,0,0,2.068.415,8.458,8.458,0,0,0-1.968-.769c-1.253-.423-3.029-.976-5.082-1.592h-.069l-2.668.277c-2.776.3-5.282.607-7.1.853a15.019,15.019,0,0,0-2.96.507Z" transform="translate(-300.12 -199.341)"/><path class="f" d="M300.59,207.417a12.91,12.91,0,0,0,2.691-.185c1.645-.192,3.921-.492,6.428-.853L312.2,206h-.146a52.181,52.181,0,0,0,6.281,2.214,50.223,50.223,0,0,0-6.066-2.737h-.146l-2.5.354c-2.506.361-4.767.73-6.4,1.023a11.756,11.756,0,0,0-2.629.561Z" transform="translate(-299.921 -200.206)"/></g><g transform="translate(0 0.577)"><path class="c" d="M250.3,203.453l7.688,29.078a3.621,3.621,0,0,0,3.591,2.691l39.857-.769a3.614,3.614,0,0,0,3.467-4.359l-5.866-27.848a3.621,3.621,0,0,0-3.544-2.876H253.451a3.268,3.268,0,0,0-3.152,4.083Z" transform="translate(-246.854 -199.37)"/><path class="b" d="M283.3,214.518a1.953,1.953,0,1,1-2.814.769,2.061,2.061,0,0,1,2.814-.769Z" transform="translate(-253.809 -202.809)"/><path class="e" d="M246.4,211.606a2.583,2.583,0,0,1,0-3.2,3.952,3.952,0,0,1,3.037-1.438,8.588,8.588,0,0,1,3.375.7,21.981,21.981,0,0,1,3.844,1.914,3.629,3.629,0,0,1,1.907,2.23c.169.992-.915,2.13-1.791,1.63a4.2,4.2,0,0,1,2.468,2.945c.185,1.261-.484,1.938-1.707,2.307a1.891,1.891,0,0,1,1.092,2.43,2.176,2.176,0,0,1-2.729.83,6.32,6.32,0,0,1-2.376-2,5.859,5.859,0,0,1,.677,4,7.8,7.8,0,0,1-5.113-6.274,3.629,3.629,0,0,1-.984-4.452,3.744,3.744,0,0,1-2.23-3.129" transform="translate(-245.849 -201.127)"/><path class="f" d="M258.485,221.338a11.538,11.538,0,0,1-1.169-.892,7.9,7.9,0,0,0-3.075-1.576,4.136,4.136,0,0,0-1.868,0,3.476,3.476,0,0,0-1.361.677,4.406,4.406,0,0,0-.892,1.122.892.892,0,0,1,.108-.392,2.66,2.66,0,0,1,.646-.884,3.437,3.437,0,0,1,1.43-.769,4.259,4.259,0,0,1,2,0,7.173,7.173,0,0,1,3.137,1.7,5.258,5.258,0,0,1,1.046,1.015Z" transform="translate(-246.836 -203.793)"/><path class="f" d="M257.8,214.863a6.336,6.336,0,0,1-1.415-.592,14.218,14.218,0,0,0-1.538-.654,11.64,11.64,0,0,0-1.937-.507,5.612,5.612,0,0,0-1.961,0,3.652,3.652,0,0,0-1.461.63,3.845,3.845,0,0,0-.953,1.138.915.915,0,0,1,.115-.408,2.622,2.622,0,0,1,.707-.892,3.606,3.606,0,0,1,1.538-.769,5.535,5.535,0,0,1,2.076,0,11.625,11.625,0,0,1,1.984.538,12.069,12.069,0,0,1,1.538.73,9.888,9.888,0,0,1,1.307.784Z" transform="translate(-246.471 -202.454)"/></g></g></g><g transform="translate(97.516 31.064)"><path class="i" d="M222.763,126.724l-9.734-.223a22.7,22.7,0,1,0,2.368,7.765h0Z" transform="translate(-170.153 -114.197)"/><path class="c" d="M222.778,126.745l-7.281,7.6-.069.077-.046-.1h.131a22.581,22.581,0,0,1-1.638,11.633,20.645,20.645,0,0,1-1.684,3.168c-.354.515-.684,1.046-1.053,1.538l-1.23,1.538a22.819,22.819,0,0,1-15.062,7.481,22.427,22.427,0,0,1-9.472-1.2,23.065,23.065,0,0,1-8.511-5.382,22.3,22.3,0,0,1-5.5-8.949l-.4-1.315c-.138-.438-.192-.892-.292-1.338a13.206,13.206,0,0,1-.246-1.338l-.138-1.353a9.857,9.857,0,0,1-.062-1.345v-1.345l.115-1.33a10.708,10.708,0,0,1,.154-1.322,23.135,23.135,0,0,1,3.844-9.511,22.3,22.3,0,0,1,7.143-6.589,23,23,0,0,1,16.869-2.437,24.318,24.318,0,0,1,6.827,2.929,22.4,22.4,0,0,1,4.89,4.221,22.773,22.773,0,0,1,3.022,4.444h-.062l9.734.284-9.734-.154h0a22.773,22.773,0,0,0-3.022-4.4,22.213,22.213,0,0,0-4.867-4.159,24.38,24.38,0,0,0-6.781-2.891,22.735,22.735,0,0,0-16.684,2.453,22.058,22.058,0,0,0-7.058,6.52,22.942,22.942,0,0,0-3.844,9.4,10.511,10.511,0,0,0-.154,1.3L170.5,136.2v1.322a9.574,9.574,0,0,0,.062,1.33l.138,1.338a7.967,7.967,0,0,0,.238,1.322,9.656,9.656,0,0,0,.292,1.322l.361,1.215a22.112,22.112,0,0,0,5.436,8.834,22.873,22.873,0,0,0,8.4,5.328,22.6,22.6,0,0,0,24.311-6.166q.623-.769,1.222-1.476c.369-.507.707-1.03,1.053-1.538a20.3,20.3,0,0,0,1.676-3.137,22.4,22.4,0,0,0,1.676-6.151,23.065,23.065,0,0,0,0-5.382l-.062-.523.2.492h-.115Z" transform="translate(-170.168 -114.218)"/><g transform="translate(11.476 19.9)"><path class="c" d="M189.693,142.387a2.307,2.307,0,1,1-2.307-2.307,2.307,2.307,0,0,1,2.307,2.307Z" transform="translate(-185.08 -140.08)"/><path class="c" d="M201.673,142.387a2.307,2.307,0,1,1-2.307-2.307,2.307,2.307,0,0,1,2.307,2.307Z" transform="translate(-187.849 -140.08)"/><path class="c" d="M213.707,141.235a2.307,2.307,0,1,1-3.145-.838A2.307,2.307,0,0,1,213.707,141.235Z" transform="translate(-190.703 -140.082)"/></g></g><g transform="translate(0 157.711)"><g transform="translate(0 35.229)"><rect class="b" width="174.959" height="129.935" transform="translate(0.146 0.169)"/><path class="c" d="M218.417,454.875c0-1.353-.062-51.274-.161-129.935l.161.161-174.936.038h0l.2-.2V454.875L43.5,454.7l174.951.177L43.5,455.06H43.32V324.74h.215l174.936.038h.169v.161C218.486,403.57,218.425,453.5,218.417,454.875Z" transform="translate(-43.32 -324.74)"/><path class="d" d="M218.452,347.36c0,.108-39.173.2-87.487.2s-87.495-.092-87.495-.2,39.165-.2,87.495-.2S218.452,347.245,218.452,347.36Z" transform="translate(-43.355 -329.922)"/><circle class="d" cx="2.576" cy="2.576" r="2.576" transform="translate(4.974 5.382)"/><circle class="d" cx="2.576" cy="2.576" r="2.576" transform="translate(12.732 5.382)"/><circle class="d" cx="2.576" cy="2.576" r="2.576" transform="translate(20.49 5.382)"/></g><g transform="translate(19.829)"><path class="j" d="M246,456.928s4.267-5.582,6.274-5.8,14.608.223,16.338,0,11.7-4.413,11.7-4.413,1.768.592,1.538,2.168-11.264,7.542-12.586,7.765-11.925,1-11.925,1l-2.66,4.805Z" transform="translate(-109.999 -317.705)"/><g transform="translate(54.131 40.605)"><path class="c" d="M195.349,364.17a6.681,6.681,0,0,0,1.069-11.6L188.667,350q-1.684,15-3.567,29.985a11.325,11.325,0,0,0,5.951-1.645c1.715-1.192,2.845-3.421,2.207-5.382a5.305,5.305,0,0,0,2.091-8.726Z" transform="translate(-150.052 -335.955)"/><g transform="translate(4.629 16.905)"><path class="j" d="M148.2,359.163l.292-3.56,21.766-1.884c6.651,0,13.07,7.3,12.84,13.955-.284,7.381-.93,16.392-2.353,21.781-2.876,10.833-11.464,11.379-11.464,11.379l-.769,10.918c-.577,6.366-6.066,7.22-12.432,6.651h0a11.579,11.579,0,0,1-10.526-12.186Z" transform="translate(-145.536 -353.72)"/><g transform="translate(29.158 16.605)"><path class="c" d="M189.04,381.631a1.415,1.415,0,0,1-1.538,1.284,1.361,1.361,0,0,1-1.322-1.422,1.415,1.415,0,0,1,1.538-1.284,1.345,1.345,0,0,1,1.322,1.422Z" transform="translate(-184.089 -376.447)"/><path class="c" d="M189.057,377.1c-.192.169-1.184-.73-2.706-.884s-2.706.492-2.852.292.138-.407.661-.707a3.844,3.844,0,0,1,2.307-.461,3.76,3.76,0,0,1,2.13.93C189.027,376.68,189.15,377.034,189.057,377.1Z" transform="translate(-183.46 -375.318)"/></g><g transform="translate(14.214 15.339)"><path class="c" d="M170.577,380.461a1.422,1.422,0,0,1-1.538,1.292,1.361,1.361,0,0,1-1.33-1.422,1.422,1.422,0,0,1,1.538-1.292,1.361,1.361,0,0,1,1.33,1.422Z" transform="translate(-164.875 -374.91)"/><path class="c" d="M169.595,375.462c-.192.161-1.184-.769-2.7-.892s-2.714.5-2.86.292c-.069-.085.138-.4.661-.707a3.929,3.929,0,0,1,2.307-.461,3.667,3.667,0,0,1,2.122.938C169.564,375.062,169.695,375.408,169.595,375.462Z" transform="translate(-164.023 -373.671)"/></g><path class="c" d="M177,387.592a10.219,10.219,0,0,1,2.514-.192c.392,0,.769-.038.861-.3a2,2,0,0,0-.146-1.176c-.269-.976-.546-2-.846-3.075-1.161-4.367-1.961-7.942-1.784-7.988s1.261,3.46,2.422,7.827c.284,1.076.546,2.107.769,3.075a2.307,2.307,0,0,1,.046,1.538.961.961,0,0,1-.7.5,2.537,2.537,0,0,1-.669,0A10.18,10.18,0,0,1,177,387.592Z" transform="translate(-152.809 -358.606)"/><path class="k" d="M171.986,413.345a29.27,29.27,0,0,1-14.716-5.5s2.929,8.119,14.4,8.273Z" transform="translate(-148.248 -366.23)"/><path class="c" d="M170.182,370.061c-.192.4-1.691.046-3.5.077s-3.3.377-3.5,0c-.085-.185.208-.546.83-.892a6.1,6.1,0,0,1,5.32,0C169.959,369.515,170.267,369.869,170.182,370.061Z" transform="translate(-149.612 -357.168)"/><path class="c" d="M189.823,370.306c-.3.315-1.307-.154-2.568-.3s-2.345,0-2.56-.384c-.085-.192.115-.515.615-.769a3.66,3.66,0,0,1,2.153-.354,3.6,3.6,0,0,1,1.976.907C189.853,369.776,189.961,370.145,189.823,370.306Z" transform="translate(-154.583 -357.128)"/></g><path class="c" d="M186.58,353.12a6.866,6.866,0,0,0,3.383-6.789,7.842,7.842,0,0,0-4.744-6.066,8.458,8.458,0,0,0-1.538-.461,7.212,7.212,0,0,0-3.321-1.33,3.721,3.721,0,0,0-2.522-3.175,8.857,8.857,0,0,0-4.259-.269,7.212,7.212,0,0,0-11.617-.677,5.912,5.912,0,0,0-9.072,2.729,5.92,5.92,0,0,0-4.406,1.538,5.82,5.82,0,0,0-1.1,1.422,5.635,5.635,0,0,0-1.269,2.068,6.651,6.651,0,0,0-4.221,11.748,6.082,6.082,0,0,0,.338,9.741,7.765,7.765,0,0,0,0,6.151,3.752,3.752,0,0,0,1.753,2,1.4,1.4,0,0,0,.131.431c.546,1.1,2.214.815,3.252.154,2.514-1.615,4.06-4.39,5.021-7.219s1.422-5.8,2.353-8.65a.74.74,0,0,1,.061-.2,8.227,8.227,0,0,1,1.914-3.137,21.475,21.475,0,0,0,2.468,1.968,8.826,8.826,0,0,0,10.41-.984,12.94,12.94,0,0,0,7.873,3.844,12.568,12.568,0,0,0,8.457-1.615,4.16,4.16,0,0,0,1.484-1.722,1.276,1.276,0,0,0-.83-1.5Z" transform="translate(-139.515 -331.732)"/><path class="j" d="M147.367,379.784c-.131-.092-5.682-2.868-6.574,3.137s5.32,5.674,5.382,5.5S147.367,379.784,147.367,379.784Z" transform="translate(-139.79 -342.673)"/><path class="k" d="M145.12,386.416a2.2,2.2,0,0,1-.308.108,1.031,1.031,0,0,1-.769-.1,2.6,2.6,0,0,1-.846-2.5,3.414,3.414,0,0,1,.515-1.461,1.222,1.222,0,0,1,.907-.684.546.546,0,0,1,.577.377.53.53,0,0,1,0,.315c0,.015.146-.085.138-.338a.708.708,0,0,0-.185-.415.769.769,0,0,0-.554-.238,1.492,1.492,0,0,0-1.23.769,3.56,3.56,0,0,0-.615,1.622,2.738,2.738,0,0,0,1.138,2.822,1.13,1.13,0,0,0,.984,0C145.089,386.554,145.143,386.424,145.12,386.416Z" transform="translate(-140.257 -343.232)"/><path class="l" d="M194.888,349.38a.392.392,0,0,1,0,.154,3.344,3.344,0,0,1,.054.446,4.613,4.613,0,0,1-1.784,3.89,4.744,4.744,0,0,1-3.368.961l.115-.077a10.387,10.387,0,0,1-3.114,4.944,8.119,8.119,0,0,1-2.883,1.691,6.72,6.72,0,0,1-3.537.1,11.872,11.872,0,0,1-3.245-1.238,9.049,9.049,0,0,1-2.583-2h.177a10.956,10.956,0,0,1-5.382,2.214,8.557,8.557,0,0,1-4.49-.915,9.011,9.011,0,0,1-2.437-1.776q-.354-.377-.53-.6l-.161-.231s.254.284.769.769a9.349,9.349,0,0,0,2.445,1.691,8.565,8.565,0,0,0,4.4.846,10.871,10.871,0,0,0,5.251-2.207l.1-.069.077.092a8.965,8.965,0,0,0,2.514,1.93,11.363,11.363,0,0,0,3.175,1.207,6.481,6.481,0,0,0,3.391-.092,7.926,7.926,0,0,0,2.8-1.622,10.325,10.325,0,0,0,3.075-4.813v-.092h.092a4.613,4.613,0,0,0,3.237-.876,4.436,4.436,0,0,0,1.538-2.091,4.744,4.744,0,0,0,.292-1.661C194.911,349.588,194.873,349.388,194.888,349.38Z" transform="translate(-144.648 -335.812)"/><path class="l" d="M148.228,344.94a13.369,13.369,0,0,0-.769,2,8.665,8.665,0,0,0,.292,5.49v.092l-.085.054a5.567,5.567,0,0,0-1.914,2.245,5.382,5.382,0,0,0-.446,3.2,5.628,5.628,0,0,0,2.16,3.529l.108.069-.077.108a7.035,7.035,0,0,0-1.176,3.675,7.558,7.558,0,0,0,.5,3.029,8.557,8.557,0,0,0,1.438,2.353l-.146-.123c-.085-.092-.223-.215-.377-.4a6.728,6.728,0,0,1-1.069-1.768,7.512,7.512,0,0,1-.569-3.075,7.127,7.127,0,0,1,1.184-3.844v.177a5.812,5.812,0,0,1-2.307-3.69,5.528,5.528,0,0,1,.477-3.36,5.789,5.789,0,0,1,2.014-2.307l-.046.154a8.634,8.634,0,0,1-.2-5.62,8.495,8.495,0,0,1,.623-1.484,4.141,4.141,0,0,1,.223-.361A.384.384,0,0,1,148.228,344.94Z" transform="translate(-140.759 -334.785)"/><path class="c" d="M143.511,390.268a4.768,4.768,0,0,0-.261,1.061,1.653,1.653,0,0,0,.3,1.076,1.338,1.338,0,0,0,1.192.507,1.107,1.107,0,0,0,.884-.892,2.068,2.068,0,0,0-.069-1.138c-.208-.646-.423-1.03-.377-1.053a2.844,2.844,0,0,1,.569.992,2.207,2.207,0,0,1,.123,1.261,1.538,1.538,0,0,1-.346.7,1.2,1.2,0,0,1-.769.408,1.538,1.538,0,0,1-1.43-.63,1.738,1.738,0,0,1-.292-1.246A1.538,1.538,0,0,1,143.511,390.268Z" transform="translate(-140.324 -345.162)"/><g transform="translate(23.483 47.251)"><path class="k" d="M171.518,393.709a2.8,2.8,0,0,0,.454,4.559,1.653,1.653,0,0,0,1.023.231,2.306,2.306,0,0,0,1.4-1.184l.876-1.307a.646.646,0,0,0,.154-.484c0-.185-.231-.292-.4-.377l-3.36-1.607" transform="translate(-170.171 -393.271)"/><path class="c" d="M172.843,398.234a3.344,3.344,0,0,1-1.538-.546,2.622,2.622,0,0,1-1.161-1.445,1.945,1.945,0,0,1,0-1.146,3.368,3.368,0,0,1,.523-1.069,2.944,2.944,0,0,1,.861-.769l.115-.069.108.069c2.168,1.322,3.906,2.137,3.844,2.23a14.608,14.608,0,0,1-4.09-1.868h.223a2.545,2.545,0,0,0-.769.677,2.307,2.307,0,0,0-.507,1.845,2.407,2.407,0,0,0,.953,1.3C172.251,397.972,172.873,398.157,172.843,398.234Z" transform="translate(-170.058 -393.19)"/></g></g><g transform="translate(0 105.409)"><path class="l" d="M69.11,475.975s21.866-39.211,25.5-45.554c4.282-7.458,8.011-10.164,11.371-11.786a26.364,26.364,0,0,1,11.31-2.537l10.848-.077s4.121,6.151,9.711,7.373c7.688,1.668,13.478-4.052,13.478-4.052l15.577,6.389-3.129,28.793a42.287,42.287,0,0,1-7.688,20.113l-1.03,1.338H97.627l6.658-20.759-12.3,20.759Z" transform="translate(-69.11 -416.02)"/><path class="l" d="M193.721,428.67s4.529,2.653,7.942,13.678,10.764,30.639,10.764,30.639l18.452-20.936,10.948,6.92s-17.683,30.654-20.467,34.283c-4.183,5.382-14.754,8.5-20.959,1.315-4.505-5.228-15.292-30.523-15.292-30.523Z" transform="translate(-95.924 -418.944)"/><path class="c" d="M186.1,449.45a1.36,1.36,0,0,1,.169.331c.1.223.254.546.415.984a28.713,28.713,0,0,1,1.207,3.721,33.007,33.007,0,0,1-3.844,24.941,29.21,29.21,0,0,1-2.23,3.214c-.277.369-.523.63-.684.815s-.246.269-.261.261a12.227,12.227,0,0,1,.869-1.169,36.9,36.9,0,0,0,2.107-3.268,34.206,34.206,0,0,0,3.76-24.726,37.822,37.822,0,0,0-1.046-3.737,11.821,11.821,0,0,1-.461-1.369Z" transform="translate(-94.944 -423.747)"/><path class="c" d="M116.38,444.87a1.615,1.615,0,0,1,0,.408,11.048,11.048,0,0,1-.154,1.138c-.138.984-.377,2.406-.7,4.159-.646,3.514-1.684,8.334-3.129,13.578s-3.022,9.926-4.259,13.27c-.623,1.676-1.146,3.014-1.538,3.936-.177.423-.323.769-.446,1.061s-.169.361-.185.354a2.684,2.684,0,0,1,.108-.384c.1-.292.231-.654.384-1.084.346-1,.823-2.307,1.407-3.975,1.169-3.368,2.7-8.042,4.144-13.278s2.522-10.041,3.237-13.532l.823-4.136.231-1.123a1.438,1.438,0,0,1,.077-.392Z" transform="translate(-77.63 -422.689)"/></g><g transform="translate(11.279 161.595)"><path class="j" d="M83.78,492.867s2.091-2.837,3.122-3.375a3.041,3.041,0,0,1,3.075.038l.623.561s3.245-1.461,4.805-.338c0,0,3.075-1.461,4.559.208,0,0,2.376-1.538,3.383-.192a5.521,5.521,0,0,1,.415,4.8c-.484,1.169-1.4,5.174-2.107,5.244,0,0-1.9.208-2.145-.823s-.361-1.538-.361-1.538-.769,3.621-1.6,3.844-2.537.085-2.591-1.538c0,0-.815,1.2-1.607.853s-1.768-.93-1.676-1.914.1-1.968.1-1.968-.438,1.43-1.153,1.123-1.43-.246-1.838-1.461-1.4-3.537-1.4-3.537Z" transform="translate(-83.78 -489.098)"/><path class="k" d="M93.707,496.9c-.046,0,.146-.392.308-1.03a5.6,5.6,0,0,0-.892-4.813c-.377-.531-.684-.807-.654-.846s.384.192.83.707a5.151,5.151,0,0,1,.93,5.021,2.307,2.307,0,0,1-.523.961Z" transform="translate(-85.788 -489.354)"/><path class="k" d="M98.939,489.94a4.9,4.9,0,0,1,.415,1.43,14.27,14.27,0,0,1,.215,3.583,13.947,13.947,0,0,1-.692,3.529,4.705,4.705,0,0,1-.607,1.353,24.519,24.519,0,0,0,.984-4.9A25.6,25.6,0,0,0,98.939,489.94Z" transform="translate(-87.129 -489.293)"/><path class="k" d="M104.645,490.25a15.192,15.192,0,0,1-.869,7.558c-.092,0,.369-1.668.6-3.76S104.545,490.258,104.645,490.25Z" transform="translate(-88.399 -489.365)"/><path class="j" d="M119.22,491.1a1.222,1.222,0,0,0-.815-.661,2.637,2.637,0,0,0-2.353.63,8.987,8.987,0,0,0-1.722,2.114h4.613C118.882,492.479,119.458,491.756,119.22,491.1Z" transform="translate(-90.842 -489.394)"/></g><path class="c" d="M268.669,404.078a5.459,5.459,0,0,0-1.345-3.883,12.363,12.363,0,0,0-4.613-2.66,52.366,52.366,0,0,1-5.59-2.422,17.73,17.73,0,0,1-4.021-2.76,11.241,11.241,0,0,1-2.622-3.675,12.3,12.3,0,0,1-.93-5.021,11.148,11.148,0,0,1,3.206-8.234,13.532,13.532,0,0,1,8.534-3.744V365.32h4.751v6.451a12.4,12.4,0,0,1,8.234,4.382,14.424,14.424,0,0,1,2.975,9.434h-8.58a8.2,8.2,0,0,0-1.469-5.336,4.859,4.859,0,0,0-3.936-1.768,5,5,0,0,0-3.775,1.384,5.259,5.259,0,0,0-1.338,3.844,5.02,5.02,0,0,0,1.307,3.621,14.142,14.142,0,0,0,4.859,2.8,54.13,54.13,0,0,1,5.843,2.691A16.66,16.66,0,0,1,274,395.674a11.11,11.11,0,0,1,2.414,3.629,12.463,12.463,0,0,1,.83,4.736,11.1,11.1,0,0,1-3.152,8.2,13.782,13.782,0,0,1-8.68,3.721v5.912h-4.728v-5.889q-6.089-.646-9.434-4.321T247.91,401.9h8.6a7.856,7.856,0,0,0,1.684,5.42,6.151,6.151,0,0,0,4.828,1.891,5.882,5.882,0,0,0,4.129-1.384A4.775,4.775,0,0,0,268.669,404.078Z" transform="translate(-110.44 -298.892)"/><g transform="translate(135.402)"><rect class="c" width="6.404" height="44.432" transform="translate(18.237)"/><path class="c" d="M288.1,332.556l-21.435,13.532L245.22,332.556v-.146H288.1Z" transform="translate(-245.22 -291.284)"/></g></g></g><g transform="translate(17.829 203.895)"><path class="i" d="M113.4,382.06,108.6,373.6a22.681,22.681,0,1,0-5.436,6.043h0Z" transform="translate(-66.532 -338.997)"/><path class="c" d="M113.379,382.053l-10.264-2.307h-.1l.062-.092h0l.1.1a23.209,23.209,0,0,1-4.659,2.806,22.759,22.759,0,0,1-6.212,1.776,20.285,20.285,0,0,1-3.583.177c-.615,0-1.246-.046-1.876-.1l-1.914-.292a22.843,22.843,0,0,1-14.147-9.142,22.5,22.5,0,0,1-3.844-8.75,23.019,23.019,0,0,1,.269-10.072,22.3,22.3,0,0,1,4.851-9.311l.976-1.023c.3-.338.661-.623.992-.938a9.411,9.411,0,0,1,1.03-.892l1.053-.815a9.224,9.224,0,0,1,1.13-.769l1.146-.7,1.2-.584a12.181,12.181,0,0,1,1.215-.538,23.189,23.189,0,0,1,10.156-1.538,22.48,22.48,0,0,1,9.318,2.752,23.012,23.012,0,0,1,10.764,13.232,24.418,24.418,0,0,1,.984,7.366,22.681,22.681,0,0,1-1.107,6.358,23,23,0,0,1-2.307,4.875V373.6l4.767,8.457-4.867-8.457h0v-.038a22.481,22.481,0,0,0,3.306-11.171,24.5,24.5,0,0,0-1-7.3,22.811,22.811,0,0,0-10.664-13.07,22.181,22.181,0,0,0-9.226-2.714,22.819,22.819,0,0,0-10,1.538,9.8,9.8,0,0,0-1.2.531l-1.192.577-1.13.692a8.974,8.974,0,0,0-1.115.769l-1.069.769c-.369.261-.677.592-1.015.884a10.21,10.21,0,0,0-.984.93l-.961,1.03a22.088,22.088,0,0,0-4.8,9.226,22.727,22.727,0,0,0-.269,9.957,22.343,22.343,0,0,0,3.767,8.65,22.65,22.65,0,0,0,13.985,9.019l1.9.292c.623.054,1.246.069,1.861.108a19.989,19.989,0,0,0,3.552-.169,22.5,22.5,0,0,0,6.151-1.73,23.063,23.063,0,0,0,4.613-2.768l.423-.323-.323.423h0l-.046-.108Z" transform="translate(-66.509 -338.989)"/><g transform="translate(11.78 20.444)"><path class="c" d="M86.443,367.887a2.307,2.307,0,1,1-2.307-2.307A2.307,2.307,0,0,1,86.443,367.887Z" transform="translate(-81.83 -365.58)"/><path class="c" d="M98.413,367.887a2.307,2.307,0,1,1-2.307-2.307,2.307,2.307,0,0,1,2.307,2.307Z" transform="translate(-84.597 -365.58)"/><path class="c" d="M110.456,366.734a2.307,2.307,0,1,1-3.145-.846,2.307,2.307,0,0,1,3.145.846Z" transform="translate(-87.452 -365.58)"/></g></g></g></g></svg>