<svg xmlns="http://www.w3.org/2000/svg" width="1030" height="624.088" viewBox="0 0 1030 624.088"><defs><style>.a{fill:#d9a171;}.b{fill:#f6f6f6;}.c,.f,.h{fill:#fff;}.d{fill:none;stroke:#afafaf;stroke-linecap:round;}.e{fill:#5e6178;}.f{font-size:18px;font-family:Roboto-Black, Roboto;font-weight:800;}.g{fill:#a66d58;}.h,.j{font-size:16px;}.h{font-family:Roboto-Bold, Roboto;font-weight:700;}.i,.j{fill:#12263f;font-family:Roboto-Regular, Roboto;}.i{font-weight:400;}</style></defs><g transform="translate(-370 -9148.936)"><g transform="translate(370 9093)"><path class="a" d="M0,0H1030V80H0Z" transform="translate(0 279.523)"/><rect class="b" width="1030" height="80" transform="translate(0 439.523)"/><rect class="b" width="1030" height="80" transform="translate(0 599.523)"/><rect class="c" width="1030" height="80" transform="translate(0 359.523)"/><rect class="c" width="1030" height="80" transform="translate(0 519.523)"/><line class="d" y2="403.74" transform="translate(190 275.783)"/><line class="d" y2="403.74" transform="translate(352.142 275.783)"/><line class="d" y2="398.167" transform="translate(515.25 281.356)"/><line class="d" y2="60" transform="translate(656.663 118.384)"/><path class="d" d="M0,0V398.848" transform="translate(840.5 280.676)"/><path class="e" d="M0,0H1030V130H0Z" transform="translate(0 55.936)"/><text class="f" transform="translate(20 72.855)"><tspan x="0" y="19">DISTRIBUIDORA TOTAL LTDA</tspan></text><text class="f" transform="translate(362.663 72.855)"><tspan x="0" y="19">RRI</tspan></text><text class="f" transform="translate(590 72.855)"><tspan x="-199.784" y="19">FACTURA DE VENTA No.</tspan></text><text class="f" transform="translate(860 72.855)"><tspan x="-62.543" y="19">228754</tspan></text><text class="f" transform="translate(860 107.384)"><tspan x="-85.605" y="19">1/09/2020</tspan></text><text class="f" transform="translate(860 136.452)"><tspan x="0" y="19">VENDE</tspan></text><text class="f" transform="translate(590 109.936)"><tspan x="-134.323" y="19">FECHA EMISIÓN</tspan></text><text class="f" transform="translate(590 139.004)"><tspan x="-10.424" y="19">2</tspan></text><text class="f" transform="translate(20 109.936)"><tspan x="0" y="19">NIT 860200</tspan></text><path class="g" d="M0,0H1030V93.588H0Z" transform="translate(0 185.936)"/><path class="d" d="M0,0V398.848" transform="translate(677.392 280.676)"/><text class="f" transform="translate(20 202.855)"><tspan x="0" y="19">EMPANADAZO LTDA</tspan><tspan x="0" y="51">NIT 860100</tspan></text><text class="f" transform="translate(362.663 202.855)"><tspan x="0" y="19">RRI</tspan></text><text class="f" transform="translate(860 202.855)"><tspan x="0" y="19">COMPRA </tspan></text><text class="f" transform="translate(590 205.407)"><tspan x="-10.424" y="19">2</tspan></text></g><text class="h" transform="translate(410 9398.199)"><tspan x="-46.691" y="17">REFERENCIA</tspan><tspan class="i"><tspan x="-17.969" y="96">2341</tspan><tspan x="-17.969" y="175">3265</tspan><tspan x="-17.969" y="254">5566</tspan></tspan></text><text class="h" transform="translate(580 9398.199)"><tspan x="-41.738" y="17">PRODUCTO</tspan><tspan class="i"><tspan x="-61.859" y="96">HARINA EL LOBO </tspan><tspan x="-50.813" y="175">ARROZ DIANA</tspan><tspan x="-48.629" y="254">HUEVOS ORO</tspan></tspan></text><text class="h" transform="translate(752 9398.199)"><tspan x="-78.656" y="17">CANTIDAD</tspan><tspan class="i"><tspan x="-40.148" y="96">2.500</tspan><tspan x="-40.148" y="175">5.000</tspan><tspan x="-49.133" y="254">12.500</tspan></tspan></text><text class="h" transform="translate(908 9398.199)"><tspan x="0" y="17">UNIDAD</tspan><tspan class="i"><tspan x="0" y="96">KILO </tspan><tspan x="0" y="175">KILO</tspan><tspan x="0" y="254">UNIDAD</tspan></tspan></text><text class="j" transform="translate(1082 9477.199)"><tspan x="-49.133" y="17">$4.000</tspan><tspan x="-49.133" y="96">$4.400</tspan><tspan x="-35.938" y="175">$350</tspan></text><text class="j" transform="translate(1262 9477.199)"><tspan x="-89.281" y="17">$10.000.000</tspan><tspan x="-89.281" y="96">$22.000.000</tspan><tspan x="-80.297" y="175">$4.375.000</tspan></text><text class="h" transform="translate(1256 9390.699)"><tspan x="0" y="17">VALOR TOTAL</tspan></text><text class="h" transform="translate(1061 9400.199)"><tspan x="0" y="17">VALOR UNITARIO</tspan></text></g></svg>