<svg xmlns="http://www.w3.org/2000/svg" width="1030" height="381.176" viewBox="0 0 1030 381.176"><defs><style>.a{fill:#f6f6f6;}.b,.g{fill:#fff;}.c,.d{fill:#12263f;}.c,.g{font-size:18px;font-family:Roboto-Black, Roboto;font-weight:800;}.d{font-size:16px;font-family:Roboto-Regular, Roboto;}.e{fill:none;stroke:#afafaf;stroke-linecap:round;}.f{fill:#d9a171;}</style></defs><g transform="translate(-285 -2168)"><rect class="a" width="1030" height="80" transform="translate(285 2228.676)"/><rect class="a" width="1030" height="80" transform="translate(285 2388.676)"/><rect class="b" width="1030" height="80" transform="translate(285 2308.676)"/><rect class="b" width="1030" height="80" transform="translate(285 2468.676)"/><text class="c" transform="translate(299 2263.352)"><tspan x="0" y="19">140505</tspan><tspan x="0" y="98">240806</tspan><tspan x="0" y="177">236540</tspan><tspan x="0" y="256">236811</tspan></text><text class="d" transform="translate(417.555 2278.352)"><tspan x="0" y="0">INVENTARIO DE MATERIA PRIMA</tspan><tspan x="0" y="76">IVA DESCONTABLE </tspan><tspan x="0" y="152">RETEFTE RTA COMPRAS </tspan><tspan x="0" y="228">RETEFTE ICA COMPRAS</tspan></text><text class="d" transform="translate(840.663 2278.352)"><tspan x="0" y="0">1001</tspan></text><text class="d" transform="translate(980 2278.352)"><tspan x="0" y="0">$35.647.500</tspan><tspan x="0" y="76">$6.080.000</tspan></text><text class="d" transform="translate(1210 2278.352)"><tspan x="0" y="0"> </tspan><tspan x="0" y="76"> </tspan><tspan x="0" y="152">$891.188</tspan><tspan x="0" y="228">$393.548</tspan></text><g transform="translate(285 2168)"><line class="e" y2="320" transform="translate(109 60.676)"/><line class="e" y2="320" transform="translate(525 60.676)"/><line class="e" y2="320" transform="translate(610 60.676)"/><path class="e" d="M0,0V320" transform="translate(820 60.676)"/></g><path class="f" d="M0,0H1030V60.672H0Z" transform="translate(285 2168)"/><text class="g" transform="translate(331 2204.676)"><tspan x="-33.003" y="0">CÓDIGO</tspan></text><text class="g" transform="translate(536.817 2187.676)"><tspan x="-34.519" y="19">CUENTA</tspan></text><text class="g" transform="translate(976.663 2204.676)"><tspan x="-31.14" y="0">DÉBITO</tspan></text><text class="g" transform="translate(852.663 2204.676)"><tspan x="-27.932" y="0">CC-OP</tspan></text><text class="g" transform="translate(1220 2204.676)"><tspan x="-37.112" y="0">CRÉDITO</tspan></text></g></svg>