<svg xmlns="http://www.w3.org/2000/svg" width="1030" height="528.548" viewBox="0 0 1030 528.548"><defs><style>.a{fill:#5e6178;}.b{fill:#d9a171;}.c{fill:#f6f6f6;}.d,.f,.g{fill:#fff;}.e,.j,.l{fill:none;}.e{stroke:#afafaf;stroke-linecap:round;}.f,.g{font-size:18px;}.f{font-family:Roboto-Black, Roboto;font-weight:800;}.g,.i{font-family:Roboto-Bold, Roboto;font-weight:700;}.h,.i{fill:#12263f;font-size:16px;}.h{font-family:Roboto-Regular, Roboto;}.j{stroke:#707070;}.k{stroke:none;}</style></defs><g transform="translate(-285 -10256.625)"><rect class="a" width="1030" height="56.439" transform="translate(285 10409.141)"/><rect class="b" width="1030" height="90" transform="translate(285 10464.939)"/><rect class="c" width="840" height="76.439" transform="translate(475 10332.918)"/><rect class="c" width="1030" height="76.439" transform="translate(285 10631.232)"/><rect class="d" width="840" height="76.439" transform="translate(475 10256.625)"/><rect class="d" width="1030" height="76.439" transform="translate(285 10554.939)"/><rect class="d" width="1030" height="76.439" transform="translate(285 10708.672)"/><g transform="translate(105 772.641)"><line class="e" y2="155.824" transform="translate(370 9484.676)"/><line class="e" y2="150.66" transform="translate(789.365 9484.729)"/><line class="e" y2="150.66" transform="translate(602.425 9484.729)"/><line class="e" y2="150.363" transform="translate(999.048 9484.676)"/></g><g transform="translate(105 1070.955)"><line class="e" y2="229.042" transform="translate(370 9484.676)"/><line class="e" y2="223.877" transform="translate(789.365 9484.729)"/><line class="e" y2="223.877" transform="translate(602.425 9484.729)"/><line class="e" y2="223.58" transform="translate(999.048 9484.676)"/></g><text class="f" transform="translate(748 10427.551)"><tspan x="0" y="19">5. PRESTACIONES </tspan></text><text class="g" transform="translate(495 10498.939)"><tspan x="-48.674" y="19">CESANTÍAS</tspan></text><text class="g" transform="translate(705 10498.939)"><tspan x="-66.582" y="19">INT/CESANTÍAS</tspan></text><text class="g" transform="translate(914 10498.939)"><tspan x="-28.112" y="19">PRIMA</tspan></text><text class="g" transform="translate(1124 10498.939)"><tspan x="-55.23" y="19">VACACIONES</tspan></text><text class="h" transform="translate(561 10285.49)"><tspan x="0" y="17">720530</tspan><tspan x="0" y="96">251005</tspan></text><text class="h" transform="translate(521 10584.543)"><tspan x="-41.813" y="17">8,33%</tspan><tspan x="-62.078" y="96">$ 91.868</tspan><tspan x="-71.063" y="175">$ 208.250</tspan></text><text class="i" transform="translate(351.074 10584.543)"><tspan x="0" y="17">BASE</tspan></text><text class="h" transform="translate(755 10584.543)"><tspan x="-20.703" y="17">1%</tspan><tspan x="-62.078" y="96">$ 11.029</tspan><tspan x="-62.078" y="175">$ 25.000</tspan></text><text class="h" transform="translate(957.5 10584.543)"><tspan x="-41.813" y="17">8,33%</tspan><tspan x="-62.078" y="96">$ 91.868</tspan><tspan x="-71.063" y="175">$ 208.250</tspan></text><text class="h" transform="translate(1160 10584.543)"><tspan x="-41.813" y="17">4,17%</tspan><tspan x="-62.078" y="96">$ 41.700</tspan><tspan x="-71.063" y="175">$ 104.250</tspan></text><text class="h" transform="translate(774.5 10285.49)"><tspan x="0" y="17">720533</tspan><tspan x="0" y="96">251505</tspan></text><text class="h" transform="translate(978 10285.49)"><tspan x="0" y="17">720536</tspan><tspan x="0" y="96">252005</tspan></text><text class="h" transform="translate(1191.5 10285.49)"><tspan x="0" y="17">720539</tspan><tspan x="0" y="96">252505</tspan></text><g class="j" transform="translate(475 10256.625)"><rect class="k" width="840" height="152.732"/><rect class="l" x="0.5" y="0.5" width="839" height="151.732"/></g><g class="j" transform="translate(285 10554.939)"><rect class="k" width="1030" height="229.732"/><rect class="l" x="0.5" y="0.5" width="1029" height="228.732"/></g></g></svg>