<svg xmlns="http://www.w3.org/2000/svg" width="1240" height="457.401" viewBox="0 0 1240 457.401"><defs><style>.a{fill:#5e6178;}.b{fill:#d9a171;}.c{fill:#f6f6f6;}.d,.f,.j{fill:#fff;}.e,.k,.m{fill:none;}.e{stroke:#afafaf;stroke-linecap:round;}.f,.j{font-size:18px;}.f{font-family:Roboto-Black, Roboto;font-weight:800;}.g,.i{fill:#12263f;font-size:16px;}.g,.j{font-family:Roboto-Bold, Roboto;font-weight:700;}.h,.i{font-family:Roboto-Regular, Roboto;}.h{font-weight:400;}.k{stroke:#707070;}.l{stroke:none;}</style></defs><g transform="translate(1970 2217.301)"><rect class="a" width="1240" height="56.439" transform="translate(-1970 -2063.5)"/><rect class="b" width="1240" height="90" transform="translate(-1970 -2007.7)"/><rect class="c" width="1240" height="76.439" transform="translate(-1970 -2139.722)"/><rect class="d" width="1240" height="76.439" transform="translate(-1970 -2216.015)"/><rect class="d" width="1240" height="76.439" transform="translate(-1970 -1916.914)"/><g transform="translate(-2150 -11700)"><line class="e" y2="155.824" transform="translate(340.095 9484.676)"/><line class="e" y2="150.66" transform="translate(605.329 9484.729)"/><line class="e" y2="150.66" transform="translate(487.095 9484.729)"/><line class="e" y2="150.363" transform="translate(737.945 9484.676)"/><line class="e" y2="150.714" transform="translate(870.562 9484.676)"/><line class="e" y2="150.714" transform="translate(1003.178 9483.199)"/><line class="e" y2="150.714" transform="translate(1121.313 9484.676)"/><line class="e" y2="150.714" transform="translate(1269.313 9484.676)"/></g><g transform="translate(-2150 -11400.899)"><line class="e" y2="155.824" transform="translate(340.095 9484.676)"/><line class="e" y2="150.66" transform="translate(605.329 9484.729)"/><line class="e" y2="150.66" transform="translate(487.095 9484.729)"/><line class="e" y2="150.363" transform="translate(737.945 9484.676)"/><line class="e" y2="150.714" transform="translate(870.562 9484.676)"/><line class="e" y2="150.714" transform="translate(1003.178 9483.199)"/><line class="e" y2="150.714" transform="translate(1121.313 9484.676)"/><line class="e" y2="150.714" transform="translate(1269.313 9484.676)"/></g><text class="f" transform="translate(-1507 -2045.089)"><tspan x="0" y="19">3. DEDUCCIONES AL TRABAJADOR</tspan></text><text class="g" transform="translate(-1915.5 -2187.15)"><tspan x="0" y="17"></tspan><tspan class="h"><tspan x="0" y="96">237005</tspan></tspan></text><text class="i" transform="translate(-1937.5 -1891.501)"><tspan x="0" y="17">$ 40.000</tspan><tspan x="0" y="96">$ 100.000</tspan></text><text class="i" transform="translate(-1798.926 -1891.501)"><tspan x="0" y="17">$ 40.000</tspan><tspan x="0" y="96">$ 100.000</tspan></text><text class="i" transform="translate(-1528 -1891.501)"><tspan x="0" y="17" xml:space="preserve">$          -</tspan><tspan x="0" y="96" xml:space="preserve">$          -</tspan></text><text class="i" transform="translate(-1255 -1891.501)"><tspan x="0" y="17" xml:space="preserve">$          -</tspan></text><text class="i" transform="translate(-1128 -1891.501)"><tspan x="0" y="17" xml:space="preserve">$          -</tspan></text><text class="i" transform="translate(-1003 -1891.501)"><tspan x="0" y="17">$ 100.000</tspan><tspan x="0" y="96">$ 250.000</tspan></text><text class="i" transform="translate(-861.574 -1891.7)"><tspan x="0" y="17">$ 1.002.854</tspan><tspan x="0" y="96">$ 2.250.000</tspan></text><text class="i" transform="translate(-1389.426 -1891.501)"><tspan x="0" y="17">$ 20.000</tspan><tspan x="0" y="96">$ 50.000</tspan></text><text class="j" transform="translate(-1951.846 -1985.7)"><tspan x="-39.762" y="19">APORTES </tspan><tspan x="-28.129" y="43">SALUD</tspan></text><text class="j" transform="translate(-1780 -1985.7)"><tspan x="-39.762" y="19">APORTES </tspan><tspan x="-37.947" y="43">PENSIÓN</tspan></text><text class="j" transform="translate(-1255 -1985.7)"><tspan x="-47.338" y="19">PRÉSTAMO </tspan><tspan x="-48.494" y="43">LIBRANZAS</tspan></text><text class="j" transform="translate(-1025 -1985.7)"><tspan x="-27.255" y="19">TOTAL </tspan><tspan x="-60.249" y="43">DEDUCCIONES</tspan></text><text class="j" transform="translate(-881 -1985.7)"><tspan x="-60.732" y="19">NETO PAGADO</tspan></text><text class="j" transform="translate(-1130 -1985.7)"><tspan x="-28.898" y="19">OTROS </tspan><tspan x="-46.187" y="43">JUZGADOS</tspan></text><text class="j" transform="translate(-1407 -1998.7)"><tspan x="30.788" y="19">PREST </tspan><tspan x="0.444" y="43">TRABAJADOR </tspan><tspan x="17.354" y="67">EMPRESA</tspan></text><text class="j" transform="translate(-1620 -1998.7)"><tspan x="-51.297" y="19">RTE FUENTE</tspan></text><text class="j" transform="translate(-1550 -1962.7)"><tspan x="-51.297" y="19">RTE FUENTE</tspan></text><text class="j" transform="translate(-1655 -1960.525)"><tspan x="-22.395" y="19">BASE</tspan></text><text class="g" transform="translate(-1760 -2187.15)"><tspan x="0" y="17"></tspan><tspan class="h"><tspan x="0" y="96">237045</tspan></tspan></text><text class="g" transform="translate(-1506 -2187.15)"><tspan x="0" y="17"></tspan><tspan class="h"><tspan x="0" y="96">246505</tspan></tspan></text><text class="g" transform="translate(-1380.5 -2187.15)"><tspan x="0" y="17"></tspan><tspan class="h"><tspan x="0" y="96">136595</tspan></tspan></text><text class="g" transform="translate(-1235 -2187.15)"><tspan x="0" y="17"></tspan><tspan class="h"><tspan x="0" y="96">237030</tspan></tspan></text><text class="i" transform="translate(-984.5 -2199.295)"><tspan x="0" y="17">SUM DB = </tspan><tspan x="0" y="41">SUM CR</tspan></text><g class="k" transform="translate(-1970 -2216.015)"><rect class="l" width="1240" height="152.732"/><rect class="m" x="0.5" y="0.5" width="1239" height="151.732"/></g><g class="k" transform="translate(-1970 -1916.914)"><rect class="l" width="1240" height="152.732"/><rect class="m" x="0.5" y="0.5" width="1239" height="151.732"/></g></g></svg>