<svg xmlns="http://www.w3.org/2000/svg" width="1185.807" height="711.405" viewBox="0 0 1185.807 711.405"><defs><style>.a{fill:#d9a171;}.b{fill:#a66d58;}.c{fill:#f6f6f6;}.d,.e{fill:#fff;}.e{font-size:18px;font-family:Roboto-Black, Roboto;font-weight:800;}.f{fill:none;stroke:#afafaf;stroke-linecap:round;}.g{fill:#5e6178;}.h{fill:#12263f;font-size:16px;font-family:Roboto-Regular, Roboto;}</style></defs><g transform="translate(-179.978 -3736.695)"><rect class="a" width="1184.807" height="76.439" transform="translate(180 3794.975)"/><rect class="b" width="1184.807" height="62.405" transform="translate(180 4100.586)"/><rect class="a" width="1184.807" height="64.973" transform="translate(180 4155.676)"/><rect class="c" width="1184.807" height="76.439" transform="translate(180 3947.708)"/><rect class="c" width="1184.807" height="76.439" transform="translate(180 4294.722)"/><rect class="d" width="1184.807" height="76.439" transform="translate(180 3871.414)"/><rect class="d" width="1184.807" height="76.439" transform="translate(180 4218.429)"/><rect class="d" width="1184.807" height="76.439" transform="translate(180 4024.147)"/><rect class="d" width="1184.807" height="76.439" transform="translate(180 4371.162)"/><text class="e" transform="translate(190.032 3818.552)"><tspan x="-52.844" y="19">REFERENCIA </tspan></text><text class="e" transform="translate(190.032 4179.253)"><tspan x="-28.397" y="19">FECHA</tspan></text><text class="e" transform="translate(320.934 3818.552)"><tspan x="-20.848" y="19">5566</tspan></text><text class="e" transform="translate(320.934 4179.253)"><tspan x="-57.995" y="19">DESCRIPCIÓN</tspan></text><text class="e" transform="translate(443.801 3818.4)"><tspan x="-41.427" y="19">RODUCTO </tspan></text><text class="e" transform="translate(393.074 4116.811)"><tspan x="-40.979" y="19">ENTRADA</tspan></text><text class="e" transform="translate(443.715 4178.918)"><tspan x="-44.512" y="19">CANTIDAD</tspan></text><text class="e" transform="translate(598.801 3812.4)"><tspan x="-35.077" y="19">HUEVOS </tspan><tspan x="-18.299" y="43">ORO </tspan></text><text class="e" transform="translate(598.504 4173.185)"><tspan x="-28.428" y="19">VALOR </tspan><tspan x="-27.545" y="43">TOTAL</tspan></text><text class="e" transform="translate(853.801 3812.4)"><tspan x="-44.512" y="19">CANTIDAD </tspan><tspan x="-33.658" y="43">MÍNIMA</tspan></text><text class="e" transform="translate(799.157 4111.078)"><tspan x="-31.307" y="19">SALIDA</tspan></text><text class="e" transform="translate(853.62 4173.185)"><tspan x="-28.428" y="19">VALOR </tspan><tspan x="-27.545" y="43">TOTAL</tspan></text><text class="e" transform="translate(729.407 4179.253)"><tspan x="-44.512" y="19">CANTIDAD</tspan></text><text class="e" transform="translate(1113.801 3812.4)"><tspan x="-44.512" y="19">CANTIDAD </tspan><tspan x="-36.497" y="43">MÁXIMA </tspan></text><text class="e" transform="translate(1114.469 4173.185)"><tspan x="-28.428" y="19">VALOR </tspan><tspan x="-41.093" y="43">UNITARIO</tspan></text><text class="e" transform="translate(1238.682 4179.253)"><tspan x="-57.951" y="19">VALOR TOTAL</tspan></text><text class="e" transform="translate(1183.264 4116.811)"><tspan x="-28.674" y="19">SALDO </tspan></text><text class="e" transform="translate(963.501 4178.918)"><tspan x="-44.512" y="19">CANTIDAD</tspan></text><line class="f" y2="240.179" transform="translate(312.335 3867.424)"/><line class="f" y2="156.096" transform="translate(443.237 3951.507)"/><line class="f" y2="236.006" transform="translate(575.095 3871.246)"/><line class="f" y2="236.357" transform="translate(706.952 3871.246)"/><line class="f" y2="236.357" transform="translate(838.81 3871.246)"/><line class="f" y2="236.357" transform="translate(969.712 3871.246)"/><line class="f" y2="236.357" transform="translate(1101.57 3871.246)"/><line class="f" y2="236.357" transform="translate(1233.427 3871.246)"/><g transform="translate(180.478 4157.564)"><line class="f" y2="289.558" transform="translate(131.858 0)"/><line class="f" y2="285.441" transform="translate(0 0)"/><line class="f" y2="290.036" transform="translate(262.76 0)"/><line class="f" y2="285.385" transform="translate(394.617 0)"/><line class="f" y2="290.036" transform="translate(526.475 0)"/><line class="f" y2="290.036" transform="translate(658.332 0)"/><line class="f" y2="285.736" transform="translate(789.234 0)"/><line class="f" y2="285.736" transform="translate(921.092 0)"/><line class="f" y2="285.736" transform="translate(1052.949 0)"/><line class="f" y2="236.357" transform="translate(1184.807 0)"/></g><line class="f" y2="57.329" transform="translate(812.503 3737.195)"/><path class="g" d="M0,0H1184.807V57.971H0Z" transform="translate(180 3737)"/><text class="e" transform="translate(198.154 3755.8)"><tspan x="0" y="19">KARDEX </tspan></text><text class="h" transform="translate(188.801 3903.4)"><tspan x="0" y="17">PROVEEDORES</tspan></text><text class="h" transform="translate(1110.801 3903.4)"><tspan x="0" y="17">UNIDAD</tspan></text><text class="h" transform="translate(1246.801 3903.4)"><tspan x="0" y="17">GRAMO </tspan></text><text class="h" transform="translate(342.801 3903.4)"><tspan x="-83.148" y="17">DISTRIBUIDORA TOTAL </tspan><tspan x="-18.469" y="41">LTDA</tspan></text></g></svg>