<svg xmlns="http://www.w3.org/2000/svg" width="821" height="301.319" viewBox="0 0 821 301.319"><defs><style>.a{fill:#d9a171;}.b{fill:#f6f6f6;}.c,.d{fill:#fff;}.d{font-size:18px;font-family:Roboto-Black, Roboto;font-weight:800;}.e{fill:none;stroke:#afafaf;stroke-linecap:round;}.f{fill:#5e6178;}.g{fill:#12263f;font-size:16px;font-family:Roboto-Regular, Roboto;}</style></defs><g transform="translate(-369.5 -9092.704)"><g transform="translate(370 9093)"><rect class="a" width="820" height="80" transform="translate(0 60.676)"/><rect class="b" width="820" height="80" transform="translate(0 220.523)"/><rect class="c" width="820" height="80" transform="translate(0 140.676)"/><text class="d" transform="translate(8 84.867)"><tspan x="-47.004" y="19">CONCEPTO </tspan></text><text class="d" transform="translate(577 84.867)"><tspan x="-34.211" y="19">VENTAS</tspan></text><text class="d" transform="translate(420 84.867)"><tspan x="-76.052" y="19">ADMINISTRACIÓN</tspan></text><text class="d" transform="translate(242.222 84.867)"><tspan x="-56.804" y="19">PRODUCCIÓN</tspan></text><g transform="translate(0 133.144)"><line class="e" y2="167.379"/><line class="e" y2="167.379" transform="translate(420)"/><line class="e" y2="167.379" transform="translate(210)"/><line class="e" y2="167.379" transform="translate(630)"/><line class="e" y2="167.379" transform="translate(820)"/></g><line class="e" y2="60" transform="translate(437.753 0.204)"/><path class="f" d="M0,0H820V60.672H0Z"/><text class="d" transform="translate(81.719 19.676)"><tspan x="-139.926" y="19">PRESUPUESTO DE COSTOS FIJOS </tspan></text></g><text class="g" transform="translate(394 9267)"><tspan x="0" y="17">SALARIOS </tspan><tspan x="0" y="96">ARRIENDO</tspan></text><text class="g" transform="translate(662 9267)"><tspan x="-80.297" y="17">$6.138.330</tspan><tspan x="-80.297" y="96">$2.000.000</tspan></text><text class="g" transform="translate(860.575 9267)"><tspan x="-80.297" y="17">$7.000.000</tspan><tspan x="-67.102" y="96">$600.000</tspan></text><text class="g" transform="translate(1039 9267)"><tspan x="-80.297" y="17">$3.000.000</tspan></text></g></svg>