<svg xmlns="http://www.w3.org/2000/svg" width="1240" height="346.883" viewBox="0 0 1240 346.883"><defs><style>.a{fill:#d9a171;}.b{fill:#f6f6f6;}.c,.d{fill:#fff;}.d{font-size:18px;font-family:Roboto-Black, Roboto;font-weight:800;}.e{fill:none;stroke:#afafaf;stroke-linecap:round;}.f{fill:#5e6178;}.g{fill:#a66d58;}.h{fill:#12263f;font-size:16px;font-family:Roboto-Bold, Roboto;font-weight:700;}.i{font-family:Roboto-Regular, Roboto;font-weight:400;}</style></defs><g transform="translate(1970 2673.105)"><rect class="a" width="1240" height="76.439" transform="translate(-1970 -2614.825)"/><rect class="b" width="1240" height="76.439" transform="translate(-1970 -2403.162)"/><rect class="c" width="1240" height="76.439" transform="translate(-1970 -2479.455)"/><text class="d" transform="translate(-1959.968 -2591.248)"><tspan x="-48.683" y="19">NÓMINA DE </tspan><tspan x="-77.643" y="43">SEPTIEMBRE 2020</tspan></text><line class="e" y2="133.325" transform="translate(-1885 -2478.765)"/><line class="e" y2="150.66" transform="translate(-1674.5 -2478.711)"/><line class="e" y2="150.66" transform="translate(-1724 -2478.711)"/><line class="e" y2="150.363" transform="translate(-1620 -2478.765)"/><line class="e" y2="150.714" transform="translate(-1494.5 -2478.765)"/><line class="e" y2="150.714" transform="translate(-1440 -2478.765)"/><line class="e" y2="150.714" transform="translate(-1314.5 -2478.765)"/><line class="e" y2="150.714" transform="translate(-1230 -2480.241)"/><line class="e" y2="150.714" transform="translate(-970 -2477.437)"/><line class="e" y2="150.714" transform="translate(-1104.5 -2478.765)"/><line class="e" y2="150.714" transform="translate(-855 -2478.765)"/><line class="e" y2="57.329" transform="translate(-1308.032 -2672.605)"/><path class="f" d="M0,0H1240V57.971H0Z" transform="translate(-1970 -2672.801)"/><path class="g" d="M0,0H1240V57.971H0Z" transform="translate(-1970 -2538.213)"/><text class="d" transform="translate(-1951.846 -2654)"><tspan x="0" y="19">EMPANADAZO LTDA</tspan></text><text class="d" transform="translate(-1951.846 -2517.63)"><tspan x="0" y="19">1 IDENTIFICACIÓN TRABAJADOR</tspan></text><text class="d" transform="translate(-1235 -2517.63)"><tspan x="-59.906" y="19">2 DEVENGADO</tspan></text><text class="h" transform="translate(-1961.199 -2459.63)"><tspan x="0" y="17">NIT</tspan><tspan class="i"><tspan x="0" y="96">234</tspan></tspan></text><text class="h" transform="translate(-1865 -2459.63)"><tspan x="0" y="17">NOMBRE DEL </tspan><tspan x="0" y="41">EMPLEADO</tspan><tspan class="i"><tspan x="0" y="95">DIAZ JUANA</tspan></tspan></text><text class="h" transform="translate(-1715.926 -2459.63)"><tspan x="0" y="17">CC</tspan><tspan class="i"><tspan x="0" y="96">11</tspan></tspan></text><text class="h" transform="translate(-1654.699 -2459.63)"><tspan x="0" y="17">NO</tspan><tspan class="i"><tspan x="0" y="96">1</tspan></tspan></text><text class="h" transform="translate(-1474.074 -2459.63)"><tspan x="0" y="17">DT</tspan><tspan class="i"><tspan x="0" y="96">30</tspan></tspan></text><text class="h" transform="translate(-1420 -2459.63)"><tspan x="0" y="17">SUELDO</tspan><tspan class="i"><tspan x="0" y="96">$ 1.000.000</tspan></tspan></text><text class="h" transform="translate(-1600 -2459.63)"><tspan x="0" y="17">SUELDO </tspan><tspan x="0" y="41">BÁSICO</tspan><tspan class="i"><tspan x="0" y="95">$ 1.000.000</tspan></tspan></text><text class="h" transform="translate(-1300.801 -2459.63)"><tspan x="0" y="17">HORAS </tspan><tspan x="0" y="41">EXTRAS</tspan><tspan class="i"><tspan x="0" y="95" xml:space="preserve">$     -</tspan></tspan></text><text class="h" transform="translate(-1095 -2459.63)"><tspan x="0" y="17">AUXILIO DE </tspan><tspan x="0" y="41">TRANSPORTE</tspan><tspan class="i"><tspan x="0" y="95" xml:space="preserve">$     -</tspan></tspan></text><text class="h" transform="translate(-960 -2459.63)"><tspan x="0" y="17">OTROS BONO </tspan><tspan x="0" y="41">OTRO</tspan><tspan class="i"><tspan x="0" y="95" xml:space="preserve">$     -</tspan></tspan></text><text class="h" transform="translate(-837.5 -2459.63)"><tspan x="0" y="17">TOTAL </tspan><tspan x="0" y="41">DEVENGADO</tspan><tspan class="i"><tspan x="0" y="95">$ 1.102.854</tspan></tspan></text><text class="h" transform="translate(-1210 -2459.63)"><tspan x="0" y="17">COMISIONES</tspan><tspan class="i"><tspan x="0" y="96" xml:space="preserve">$     -</tspan></tspan></text><text class="d" transform="translate(-1323.843 -2655.019)"><tspan x="0" y="19">DB==&gt;</tspan></text><text class="d" transform="translate(-1219 -2655.019)"><tspan x="0" y="19">720506</tspan></text><text class="d" transform="translate(-1114 -2655.019)"><tspan x="0" y="19">720515</tspan></text><text class="d" transform="translate(-1009 -2655.019)"><tspan x="0" y="19">72518</tspan></text><text class="d" transform="translate(-904 -2655.019)"><tspan x="0" y="19">720527</tspan></text><text class="d" transform="translate(-799 -2655.019)"><tspan x="0" y="19">720599</tspan></text><text class="d" transform="translate(-1314.74 -2581.248)"><tspan x="0" y="19">CR==&gt;</tspan></text></g></svg>