<svg xmlns="http://www.w3.org/2000/svg" width="1240.5" height="454.838" viewBox="0 0 1240.5 454.838"><defs><style>.a{fill:#5e6178;}.b{fill:#d9a171;}.c{fill:#f6f6f6;}.d,.f,.g{fill:#fff;}.e,.i,.k{fill:none;}.e{stroke:#afafaf;stroke-linecap:round;}.f,.g{font-size:18px;}.f{font-family:Roboto-Black, Roboto;font-weight:800;}.g{font-family:Roboto-Bold, Roboto;font-weight:700;}.h{fill:#12263f;font-size:16px;font-family:Roboto-Regular, Roboto;}.i{stroke:#707070;}.j{stroke:none;}</style></defs><g transform="translate(1970.5 993.491)"><rect class="a" width="1240" height="56.439" transform="translate(-1970 -840.977)"/><rect class="b" width="1240" height="90" transform="translate(-1970 -785.177)"/><rect class="c" width="1068.926" height="76.439" transform="translate(-1798.926 -917.198)"/><rect class="c" width="1240" height="76.439" transform="translate(-1970 -619.375)"/><rect class="d" width="1068.926" height="76.439" transform="translate(-1798.926 -993.491)"/><rect class="d" width="1240" height="76.439" transform="translate(-1970 -695.668)"/><g transform="translate(-1799.369 -992.801)"><line class="e" y2="155.824" transform="translate(0 0)"/><line class="e" y2="150.66" transform="translate(364.649 0.054)"/><line class="e" y2="150.66" transform="translate(719.989 0.054)"/><line class="e" y2="150.66" transform="translate(202.099 0.054)"/><line class="e" y2="150.363" transform="translate(546.974 0)"/><line class="e" y2="150.363" transform="translate(902.314 0)"/></g><g transform="translate(-1799.369 -694.978)"><line class="e" y2="155.824" transform="translate(0 0)"/><line class="e" y2="150.66" transform="translate(364.649 0.054)"/><line class="e" y2="150.66" transform="translate(719.989 0.054)"/><line class="e" y2="150.66" transform="translate(202.099 0.054)"/><line class="e" y2="150.66" transform="translate(-170.631 0.054)"/><line class="e" y2="150.363" transform="translate(546.974 0)"/><line class="e" y2="150.363" transform="translate(902.314 0)"/></g><text class="f" transform="translate(-1530.4 -822.565)"><tspan x="-109.046" y="19">4. APORTES PATRONALES </tspan></text><text class="g" transform="translate(-1970 -751.177)"><tspan x="-25.559" y="19">% ARL</tspan></text><text class="g" transform="translate(-1780 -751.177)"><tspan x="-47.074" y="19">VALOR ARL</tspan></text><text class="g" transform="translate(-1601.121 -751.177)"><tspan x="-16.4" y="19">EPS</tspan></text><text class="g" transform="translate(-1427 -751.177)"><tspan x="-10.736" y="19">FP</tspan></text><text class="g" transform="translate(-1255 -751.177)"><tspan x="-31.157" y="19">CAJA C</tspan></text><text class="g" transform="translate(-1076.121 -751.177)"><tspan x="-27.031" y="19">I.C.B.F</tspan></text><text class="g" transform="translate(-902 -751.177)"><tspan x="-23.005" y="19">SENA</tspan></text><text class="h" transform="translate(-1722.136 -964.627)"><tspan x="0" y="17">720568</tspan><tspan x="0" y="96">237006</tspan></text><text class="h" transform="translate(-1743.136 -666.804)"><tspan x="0" y="17"></tspan><tspan x="-53.094" y="96">$ 5.220</tspan></text><text class="h" transform="translate(-1541 -666.804)"><tspan x="-41.813" y="17">8,50%</tspan><tspan x="-41.125" y="96" xml:space="preserve">$       -</tspan></text><text class="h" transform="translate(-1350 -666.804)"><tspan x="-29.688" y="17">12%</tspan><tspan x="-71.063" y="96">$ 120.000</tspan></text><text class="h" transform="translate(-1185.891 -666.804)"><tspan x="-20.703" y="17">4%</tspan><tspan x="-62.078" y="96">$ 40.000</tspan></text><text class="h" transform="translate(-996 -666.804)"><tspan x="-20.703" y="17">3%</tspan><tspan x="-8.984" y="96">0</tspan></text><text class="h" transform="translate(-835 -666.804)"><tspan x="-20.703" y="17">2%</tspan><tspan x="-41.125" y="96" xml:space="preserve">$       -</tspan></text><text class="h" transform="translate(-1896 -666.804)"><tspan x="0" y="17"></tspan><tspan x="0" y="96">0,52%</tspan></text><text class="h" transform="translate(-1530.4 -964.627)"><tspan x="0" y="17">720569</tspan><tspan x="0" y="96">237005</tspan></text><text class="h" transform="translate(-1347.646 -964.627)"><tspan x="0" y="17">720570</tspan><tspan x="0" y="96">237045</tspan></text><text class="h" transform="translate(-1164.891 -964.627)"><tspan x="0" y="17">720572</tspan><tspan x="0" y="96">237010</tspan></text><text class="h" transform="translate(-995 -975)"><tspan x="0" y="17">720575</tspan><tspan x="0" y="96">237010</tspan></text><text class="h" transform="translate(-846 -975)"><tspan x="0" y="17">720578</tspan><tspan x="0" y="96">237010</tspan></text><g class="i" transform="translate(-1798.926 -993.491)"><rect class="j" width="1068.926" height="152.732"/><rect class="k" x="0.5" y="0.5" width="1067.926" height="151.732"/></g><g class="i" transform="translate(-1970 -695.668)"><rect class="j" width="1240" height="152.732"/><rect class="k" x="0.5" y="0.5" width="1239" height="151.732"/></g></g></svg>