<svg xmlns="http://www.w3.org/2000/svg" width="1030" height="405.517" viewBox="0 0 1030 405.517"><defs><style>.a{fill:#d9a171;}.b{fill:#f6f6f6;}.c,.f{fill:#fff;}.d{fill:none;stroke:#afafaf;stroke-linecap:round;}.e{fill:#5e6178;}.f{font-size:18px;font-family:Roboto-Black, Roboto;font-weight:800;}.g{fill:#a66d58;}.h{fill:#12263f;font-size:16px;font-family:Roboto-Regular, Roboto;}</style></defs><g transform="translate(-285 -5490.271)"><path class="a" d="M0,0H1030V80H0Z" transform="translate(285 5655.288)"/><rect class="b" width="1030" height="80" transform="translate(285 5815.288)"/><rect class="c" width="1030" height="80" transform="translate(285 5735.288)"/><line class="d" y2="60" transform="translate(941.663 5513.86)"/><path class="e" d="M0,0H1030V91.142H0Z" transform="translate(285 5490.271)"/><text class="f" transform="translate(305 5507.19)"><tspan x="0" y="19">EMPANADAZO LTDA</tspan></text><text class="f" transform="translate(962 5507)"><tspan x="-110.646" y="19">REQUISICIÓN</tspan></text><text class="f" transform="translate(962 5535.841)"><tspan x="-24.144" y="19">OP</tspan></text><text class="f" transform="translate(1145 5507.19)"><tspan x="-10.424" y="19">1</tspan></text><text class="f" transform="translate(1145 5507)"><tspan x="116.305" y="19">1001</tspan></text><path class="g" d="M0,0H1030V73.875H0Z" transform="translate(285 5581.412)"/><g transform="translate(0 -19.713)"><line class="d" y2="243.741" transform="translate(475.5 5671.26)"/><line class="d" y2="243.741" transform="translate(685.5 5671.26)"/><line class="d" y2="238.167" transform="translate(895.5 5676.833)"/><path class="d" d="M0,0V238.848" transform="translate(1105.5 5676.152)"/></g><text class="f" transform="translate(305 5598.332)"><tspan x="0" y="19">ENTREGA </tspan></text><text class="f" transform="translate(305 5678.62)"><tspan x="0" y="19">REFERENCIA </tspan></text><text class="f" transform="translate(495 5678.62)"><tspan x="0" y="19">PRODUCTO </tspan></text><text class="f" transform="translate(705 5678.62)"><tspan x="0" y="19">CANTIDAD </tspan></text><text class="f" transform="translate(915 5598.332)"><tspan x="0" y="19">FECHA</tspan></text><text class="f" transform="translate(915 5678.62)"><tspan x="0" y="19">VALOR UNITARIO</tspan></text><text class="f" transform="translate(1125 5598.332)"><tspan x="0" y="19">1/09/2020</tspan></text><text class="f" transform="translate(1125 5678.62)"><tspan x="0" y="19">VALOR TOTAL </tspan></text><text class="h" transform="translate(336 5759.963)"><tspan x="-35.938" y="17">2341</tspan><tspan x="-35.938" y="96">3265</tspan></text><text class="h" transform="translate(495 5759.963)"><tspan x="-123.719" y="17">HARINA EL LOBO</tspan><tspan x="-101.625" y="96">ARROZ DIANA</tspan></text><text class="h" transform="translate(705 5759.963)"><tspan x="-71.313" y="17">2.500.000</tspan><tspan x="-71.313" y="96">5.000.000</tspan></text><text class="h" transform="translate(915 5759.963)"><tspan x="-39.078" y="17">$3,92</tspan><tspan x="-39.078" y="96">$4,31</tspan></text><text class="h" transform="translate(1125 5759.963)"><tspan x="-80.297" y="17">$9.800.000</tspan><tspan x="-89.281" y="96">$21.560.000</tspan></text></g></svg>