<svg xmlns="http://www.w3.org/2000/svg" width="327.013" height="467.818" viewBox="0 0 327.013 467.818"><defs><style>.a{fill:#d30d00;}.b{fill:#5e6178;}.c{fill:#6595bf;}.d{fill:#336850;}.e{fill:#d89f50;}.f{fill:#6a6a6a;}.g{fill:#515151;}.h{fill:#191919;}.i{fill:#ffa47c;}.j{fill:#4c708f;}.k{fill:#ffbd95;}.l{fill:#a37955;}.m{fill:#303030;}.n{fill:#d9a171;}.o{fill:#344154;}.p{fill:#8e9399;}.q{fill:#cad0d6;}.r{fill:#ff9a6c;}.s{fill:#e5e0e4;}.t{fill:#ceeaff;}.u{fill:#bd0000;}</style></defs><g transform="translate(-31.08 -29.53)"><g transform="translate(31.08 29.53)"><g transform="translate(106.201 180.92)"><path class="a" d="M219.207,253.44l-.969-.869c1.271-1.4,4.215-5.486,2.688-7.826-1.2-1.829-9.865-4.068-15.6-5.559l-1.664-.439a47.422,47.422,0,0,1-4.946,9.518l-1.079-.741a47.422,47.422,0,0,0,4.763-9.143c-2.889-.777-4.571-1.317-5.211-1.783-1.545-1.216-2.322-4.2-2.066-6.226a3.054,3.054,0,0,1,1.618-2.633,4.745,4.745,0,0,1,4.187.366,7.4,7.4,0,0,1,3.52,5.632,9.8,9.8,0,0,1-.4,3.73l1.609.411c8.43,2.194,14.994,4.041,16.356,6.107C224.419,247.643,219.427,253.211,219.207,253.44Zm-20.845-24.685a2.624,2.624,0,0,0-1.088.21c-.6.274-.8,1.125-.85,1.609-.229,1.774.539,4.224,1.573,5.028a23.644,23.644,0,0,0,4.8,1.563,8.228,8.228,0,0,0,.357-3.218,5.915,5.915,0,0,0-2.852-4.663,4.133,4.133,0,0,0-1.938-.53Z" transform="translate(-151.341 -227.416)"/><path class="b" d="M154.507,254.235c0-.384-.6-9.517,3.657-14.3a8.283,8.283,0,0,1,6.071-2.816h.43c10.4-.018,11.319,16.347,11.373,17.042l-1.307.064c0-.155-.914-15.817-10.057-15.817h-.347a7.085,7.085,0,0,0-5.156,2.386c-3.913,4.379-3.364,13.248-3.355,13.339Z" transform="translate(-147.861 -228.248)"/><path class="c" d="M158.487,256.335c0-.384-.594-9.517,3.657-14.3a8.329,8.329,0,0,1,6.071-2.816h.43c10.349,0,11.309,16.338,11.346,17.051l-1.307.064c0-.155-.914-15.808-10.057-15.808h-.357a7.085,7.085,0,0,0-5.147,2.386c-3.913,4.37-3.365,13.248-3.365,13.348Z" transform="translate(-148.202 -228.428)"/><path class="a" d="M166.857,254.235c0-.384-.594-9.517,3.657-14.308a8.3,8.3,0,0,1,6.071-2.807h.421c10.349,0,11.309,16.347,11.346,17.06l-1.3.064c0-.155-.914-15.817-10.057-15.817h-.338a7.067,7.067,0,0,0-5.156,2.386c-3.922,4.379-3.364,13.248-3.364,13.348Z" transform="translate(-148.919 -228.248)"/><g transform="translate(32.658 6.971)"><rect class="d" width="35.629" height="15.222"/><rect class="e" width="7.881" height="5.385" transform="translate(4.114 4.334)"/><rect class="e" width="2.743" height="2.834" transform="translate(25.051 12.087)"/><path class="e" d="M188.58,238.5a.585.585,0,1,1-.585-.585.585.585,0,0,1,.585.585Z" transform="translate(-183.342 -235.286)"/><path class="e" d="M191.02,238.5a.585.585,0,1,1-.585-.585.585.585,0,0,1,.585.585Z" transform="translate(-183.551 -235.286)"/><path class="e" d="M193.47,238.5a.585.585,0,1,1-.585-.585.585.585,0,0,1,.585.585Z" transform="translate(-183.761 -235.286)"/><path class="e" d="M195.89,238.5a.585.585,0,1,1-.585-.585A.585.585,0,0,1,195.89,238.5Z" transform="translate(-183.968 -235.286)"/><path class="e" d="M198.36,238.5a.585.585,0,1,1-.585-.585.585.585,0,0,1,.585.585Z" transform="translate(-184.18 -235.286)"/><path class="e" d="M201.62,250.4a.585.585,0,1,1-.585-.585A.585.585,0,0,1,201.62,250.4Z" transform="translate(-184.46 -236.306)"/><circle class="e" cx="0.585" cy="0.585" r="0.585" transform="translate(18.221 13.504)"/><path class="e" d="M206.51,250.4a.585.585,0,1,1-.585-.585A.585.585,0,0,1,206.51,250.4Z" transform="translate(-184.879 -236.306)"/><path class="e" d="M208.96,250.4a.585.585,0,1,1-.585-.585.585.585,0,0,1,.585.585Z" transform="translate(-185.089 -236.306)"/><path class="e" d="M201.149,249.4h-.677V238.867H197.83v-.677h3.319Z" transform="translate(-184.235 -235.31)"/><path class="e" d="M210.845,247.62h-.677v-6.144H196.08V240.8h14.765Z" transform="translate(-184.085 -235.534)"/></g><path class="b" d="M176.667,262.394c0-.384-.594-9.518,3.657-14.3a8.329,8.329,0,0,1,6.062-2.816c10.706-.439,11.739,16.32,11.776,17.042l-1.3.064c0-.155-.914-15.808-10.057-15.808h-.347a7.049,7.049,0,0,0-5.156,2.377c-3.913,4.37-3.364,13.257-3.364,13.348Z" transform="translate(-149.761 -228.946)"/><rect class="f" width="74.787" height="26.514" transform="translate(0 21.946)"/><g transform="translate(1.637 23.802)"><path class="b" d="M151.864,254.867a1.417,1.417,0,1,1-1.417-1.417A1.417,1.417,0,0,1,151.864,254.867Z" transform="translate(-149.03 -253.45)"/><path class="b" d="M226.564,254.867a1.417,1.417,0,1,1-1.408-1.417,1.417,1.417,0,0,1,1.408,1.417Z" transform="translate(-155.435 -253.45)"/><circle class="b" cx="1.417" cy="1.417" r="1.417" transform="translate(0.192 20.278)"/><circle class="b" cx="1.417" cy="1.417" r="1.417" transform="translate(68.497 20.278)"/></g></g><g transform="translate(206.962 179.211)"><rect class="g" width="7.076" height="123.151" transform="translate(14.5 280.847) rotate(180)"/><path class="h" d="M0,0H103.988a1.381,1.381,0,0,1,1.381,1.381V18.624A1.381,1.381,0,0,1,103.988,20H0Z" transform="translate(105.369 166.353) rotate(180)"/><rect class="g" width="7.076" height="207.913" transform="translate(109.73 280.847) rotate(180)"/><path class="h" d="M368.342,298.837l6.116.695A2.98,2.98,0,0,0,377.7,296.9l9.042-67.153a3.044,3.044,0,0,0-2.606-3.483l-6.116-.7a3,3,0,0,0-3.246,2.633l-9.042,67.153a3.063,3.063,0,0,0,2.606,3.492Z" transform="translate(-266.731 -225.547)"/></g><g transform="translate(114.036)"><path class="i" d="M302.415,200.864c6.126,1.829,8.055,9.92,4.928,18.34s-30.1,47.542-33.188,48.3-11.538-1.39-11.885-5.7,16.265-40.977,20.224-47.341S294.433,198.423,302.415,200.864Z" transform="translate(-164.937 -44.186)"/><path class="j" d="M321.4,376.878c-2.03,6.089-37.686,7.543-61.347,3.026-22.463-4.3-53.265-7.186-54.911-9.143s-3.959-18.706-2.3-21.357,93.346-19.291,98.027-19.574S330.212,350.456,321.4,376.878Z" transform="translate(-159.793 -55.276)"/><g transform="translate(37.384 293.728)"><path class="i" d="M263.583,476.1c2.158,4.571,5.294,6.784,7.406,8.64,2.551,2.24,4.1,7.076,3.255,8.9-2.313,5-7.122,5.486-10.477,10.057s-6.08,17.444-9.5,19.9-12.242,5.586-13.513,3.986,5.129-11.885,5.129-11.885c6.866-22.262,5.156-30.756,5.156-30.756S263.264,475.411,263.583,476.1Z" transform="translate(-200.463 -361.542)"/><path class="h" d="M245.735,516.235s-1.71,3.227-1.024,3.739c.978.731,4.754-1.225,5.568-2.158,7.314-8.375,15.542-23.46,16.841-27.62a15.2,15.2,0,0,0,.247-8.018c.8-.265,6.135,3.657,6.93,7.918a13.074,13.074,0,0,1-.2,4.059c-1.307,2.816-7.04,9.143-8.512,11.117-3.355,4.617-5.486,17.261-8.941,19.721s-16.374,7.433-17.645,5.833C237.991,529.556,242.645,520.889,245.735,516.235Z" transform="translate(-200.314 -362.065)"/><path class="j" d="M223.159,355.554c13.9,6.811,25.014,32.831,27.848,43.3s8.64,65.827,10.441,69.338-13.6,8.164-14.171,6.034c-5.76-21.129-31.816-73.616-34.468-78.755s-16.128-24.74-16.109-33.3C196.737,344.583,215.26,351.651,223.159,355.554Z" transform="translate(-196.7 -350.803)"/></g><path class="k" d="M336.188,151.2s-1.828,28.955,0,30.454c5.586,4.663,22.07,8.951,25.865,17.06,4.571,9.828-19.885,40.886-24.21,71.45-2.1,14.8,12.873,41.535,15.076,55.852s-44.945,25.938-46.627,25.938-21.028-13.175-23.771-17.846,6.135-47.194,6.135-56.547-2.386-28.187-3.822-29.832-7.314-7.2-7.314-13.248c0-8.814,13.2-21.229,13.714-24.255s-.585-7.378.914-9.316c3.026-3.849,18.706-11.831,18.98-13.714s-.274-26.7-.274-26.7Z" transform="translate(-166.245 -39.962)"/><path class="j" d="M271.26,336.043s7.369-1.161,9.1-4.352,14.061-.823,16.7.576S306,336.043,306,336.043l-31.323,8.036Z" transform="translate(-165.708 -55.3)"/><path class="l" d="M272.24,226.77s13.01-29.256,26.879-24.411c18.788,6.6-3.319,39.085-3.319,39.085Z" transform="translate(-165.792 -44.301)"/><path class="i" d="M314.14,168.409l.219,15.67,24.182-12.717.667-18.532Z" transform="translate(-169.385 -40.101)"/><path class="c" d="M348.692,363.984c-6.19,13.092-32.365,18.221-57,18.788-32.466.741-60.515-1.829-62.353-3.566s-3.858-17.563-2.487-20.37,66.449-21.184,71.066-21.942c3.6-.594,44.8-12.178,50.623,4.654C350.164,346.256,352.559,355.81,348.692,363.984Z" transform="translate(-161.862 -55.502)"/><path class="k" d="M221.879,498.227c-.311,5.074,1.408,8.484,2.368,11.127,1.17,3.182.219,8.173-1.4,9.371-4.416,3.282-8.859,1.39-14.016,3.84s-13.714,12.425-17.865,12.946-13.421-.914-13.769-2.962,10.194-8.027,10.194-8.027c16.667-16.265,19.2-24.548,19.2-24.548S221.925,497.468,221.879,498.227Z" transform="translate(-157.643 -69.702)"/><path class="k" d="M298.737,126.76c5.211-7.012,22.646-15.753,33.828-4.955s9.344,23.771,5.8,32.274c-2.743,6.619-5.888,10.569-12.617,15.277-1.371.96-14.464,5.815-17.325,5.358-1.966-.311-5.787-13.906-6.318-13.714a2.459,2.459,0,0,1-2.441-1.509c-.4-1.618-.411-11.885-.978-12.864S292.748,134.805,298.737,126.76Z" transform="translate(-167.823 -37.006)"/><path class="c" d="M245.044,371.369c8.951,12.617,6.4,39.725,3.876,50.284s-24.21,63.331-24.319,67.281-16.054,2.514-15.661.338c5-27.611,5.6-79.7,5.742-85.475s4.782-26.422,6.564-36.241C223.622,354.519,239.924,364.146,245.044,371.369Z" transform="translate(-160.365 -57.959)"/><path class="m" d="M187.138,525.165s-3.045,2.021-2.688,2.8c.512,1.106,4.763,1.2,5.924.768,10.441-3.849,24.877-13.165,27.986-16.2a15.286,15.286,0,0,0,4.059-6.93c.832.146,3.657,6.135,2.295,10.267a12.882,12.882,0,0,1-2.121,3.474c-2.487,1.828-10.532,4.617-12.8,5.687-5.166,2.45-13.1,12.525-17.289,13.047s-17.938-1.307-18.285-3.319C173.954,533.211,182.247,527.826,187.138,525.165Z" transform="translate(-157.388 -70.346)"/><path class="n" d="M294.11,201.147l14.043-8.3s-7.177,10.441-.814,14.628c11.191,7.314,32.356-20.434,32.356-20.434s18.285,7.076,20.891,12.589c6.354,13.412-12.013,40.228-12.013,40.228s-9.289,21.558-10.514,31.588,11.492,33.663,16.676,51.921a62.48,62.48,0,0,1,1.609,12.663c.293,8.027-76.259-13.266-76.076-17.325s7.634-24.822,8.119-34.852-1.509-30.838-4.206-33.828-7.314-6.519-7.131-12.845S294.11,201.147,294.11,201.147Z" transform="translate(-166.204 -43.034)"/><path class="i" d="M267.423,267.49c-6.327.658-15.762-12.891-21.549-23.195s-19.044-39.414-19.044-39.414l5.623-7.451s35.83,50.221,37.595,53.027S278.321,266.338,267.423,267.49Z" transform="translate(-161.899 -43.925)"/><path class="l" d="M283.578,253.947s16.457,3.858,27.684,2.981,37.613-12.178,37.613-12.178-9.655,21.257-10.514,31.588,11.383,36.653,11.383,36.653a54.856,54.856,0,0,0-35.053,0c-18.55,6.491-34.12,10.615-34.12,10.615s1.088-5.23,2.487-10.057,5.6-17.426,5.632-24.795S289.42,265.394,283.578,253.947Z" transform="translate(-166.506 -47.982)"/><path class="k" d="M321.377,280.43c-3.172,5.486-19.684,5.193-31.423,3.831s-46.774-6.318-46.774-6.318l.914-10.313s61.695.457,65.032.695S326.844,270.93,321.377,280.43Z" transform="translate(-163.301 -49.944)"/><path class="k" d="M359.847,197.713c6.2,1.728,7.634,10.788,3.831,20.644s-34.376,56.5-37.622,57.544-11.821-.8-11.885-5.705,19.629-48,24.164-55.56S351.765,195.464,359.847,197.713Z" transform="translate(-169.387 -43.925)"/><path class="o" d="M300.227,133.5c.082,1.527,6.546,7.79,11.026,7.79s12.461-3.246,15.186-2.551,12.617,14.418,12.617,14.418,7.122-14.189,2.651-24.447-16.667-12.8-23.981-11.885S299.523,120.837,300.227,133.5Z" transform="translate(-168.189 -36.999)"/><path class="o" d="M300.7,131.367s-1.829,5.879-3.255,6.72-1.015,3.1-1.015,3.1a10.249,10.249,0,0,1-1.737-9.938c2.039-5.815,9.06-13.092,13.641-12.087S300.7,131.367,300.7,131.367Z" transform="translate(-167.667 -37.207)"/><path class="n" d="M245.84,267.411s-14.921-2.139-15.542-2.743-24.109,12.653-22.793,13.485,4.571.722,8.228-.914,20.251,3.41,27.071.869S245.84,267.411,245.84,267.411Z" transform="translate(-160.238 -49.688)"/><path class="n" d="M334.73,222.1s13.01-29.256,26.879-24.411c18.779,6.61-3.319,39.094-3.319,39.094Z" transform="translate(-171.15 -43.901)"/><path class="b" d="M189,216.656h0c-.347-.411,1.271-2.313,1.682-2.661L203.7,203.189a.978.978,0,0,1,1.371.128h0a.969.969,0,0,1-.128,1.371L191.921,215.5C191.528,215.843,189.352,217.068,189,216.656Z" transform="translate(-158.651 -44.4)"/><path class="l" d="M230.59,196.579,220.259,187.5s-7.634,1.563-8.96,2.533-5.193,7.022-5.8,7.863-.823,2.3-.357,2.514,3.374-2.542,7.643-.859,7.534,3.52,10.359,3.739C229.384,203.765,230.59,196.579,230.59,196.579Z" transform="translate(-160.018 -43.074)"/><path class="m" d="M200.258,207.554l-1.335-1.426c-.6-.731,2.88-3.392,3.611-4l23.158-19.2a1.737,1.737,0,0,1,2.441.229h0a1.728,1.728,0,0,1-.229,2.441l-23.158,19.2C204.016,205.405,200.816,208.13,200.258,207.554Z" transform="translate(-159.5 -42.648)"/><path class="l" d="M223.956,195.532s-6.519-2.066-7.4-1.115-6.665,5.348-7.314,5.833-1.554,1.115,1.088,1.618,5.129-1.774,5.906-1.28,3.1,3.977,6.6,4.379a5.687,5.687,0,0,0,5.815-2.743C229.2,201.255,226.708,195.1,223.956,195.532Z" transform="translate(-160.332 -43.645)"/><g transform="translate(62.108 14.113)"><path class="p" d="M231.108,173.848l-3.163,1.051a.859.859,0,0,0-.549,1.088h0a.859.859,0,0,0,1.088.549l3.136-1.015a.914.914,0,0,0,.558-1.088h0A.914.914,0,0,0,231.108,173.848Z" transform="translate(-224.052 -56.014)"/><path class="p" d="M230.991,168.887l-3.136,1.015a.914.914,0,0,0-.558,1.088h0a.914.914,0,0,0,1.088.558l3.136-1.024a.859.859,0,0,0,.558-1.088h0A.914.914,0,0,0,230.991,168.887Z" transform="translate(-224.045 -55.588)"/><path class="p" d="M230.861,163.936l-3.136,1.024a.914.914,0,0,0-.558,1.088h0a.914.914,0,0,0,1.1.549l3.136-1.015a.914.914,0,0,0,.549-1.088h0a.859.859,0,0,0-1.088-.558Z" transform="translate(-224.033 -55.163)"/><path class="p" d="M230.741,159l-3.145,1.015a.914.914,0,0,0-.549,1.088h0a.914.914,0,0,0,1.088.558l3.136-1.024a.859.859,0,0,0,.558-1.088h0a.859.859,0,0,0-1.088-.549Z" transform="translate(-224.023 -54.739)"/><path class="p" d="M230.65,154l-3.136,1.024a.859.859,0,0,0-.558,1.088h0a.859.859,0,0,0,1.088.549l3.145-1.015a.914.914,0,0,0,.549-1.088h0A.914.914,0,0,0,230.65,154Z" transform="translate(-224.014 -54.312)"/><path class="p" d="M230.482,149.077l-3.136,1.015a.914.914,0,0,0-.549,1.088h0a.859.859,0,0,0,1.1.567l3.136-1.024a.914.914,0,0,0,.558-1.088h0A.914.914,0,0,0,230.482,149.077Z" transform="translate(-224.002 -53.89)"/><path class="p" d="M230.36,144.117l-3.136,1.024a.859.859,0,0,0-.558,1.088h0a.859.859,0,0,0,1.088.549l3.136-1.015a.914.914,0,0,0,.558-1.088h0a.914.914,0,0,0-1.088-.558Z" transform="translate(-223.989 -53.465)"/><path class="p" d="M230.231,139.166l-3.136,1.015a.914.914,0,0,0-.558,1.088h0a.914.914,0,0,0,1.1.558l3.136-1.024a.859.859,0,0,0,.549-1.088h0a.859.859,0,0,0-1.088-.549Z" transform="translate(-223.979 -53.039)"/><path class="p" d="M230.109,134.208l-3.163,1.024a.914.914,0,0,0-.549,1.088h0a.914.914,0,0,0,1.088.558l3.118-1.033a.914.914,0,0,0,.558-1.088h0a.914.914,0,0,0-1.051-.549Z" transform="translate(-223.967 -52.616)"/><path class="p" d="M229.981,129.257l-3.136,1.015a.914.914,0,0,0-.558,1.088h0a.914.914,0,0,0,1.088.558l3.145-1.024a.859.859,0,0,0,.549-1.088h0A.914.914,0,0,0,229.981,129.257Z" transform="translate(-223.958 -52.191)"/><path class="p" d="M229.852,124.3l-3.136,1.024a.914.914,0,0,0-.549,1.088h0a.914.914,0,0,0,1.088.558l3.136-1.024a.914.914,0,0,0,.558-1.088h0A.914.914,0,0,0,229.852,124.3Z" transform="translate(-223.948 -51.765)"/><path class="p" d="M229.731,119.347l-3.136,1.015a.914.914,0,0,0-.558,1.1h0a.914.914,0,0,0,1.088.549l3.136-1.024a.859.859,0,0,0,.558-1.088h0A.914.914,0,0,0,229.731,119.347Z" transform="translate(-223.936 -51.341)"/><path class="p" d="M229.651,114.386l-3.136,1.024a.914.914,0,0,0-.558,1.088h0a.914.914,0,0,0,1.1.558l3.136-1.024a.914.914,0,0,0,.549-1.088h0a.859.859,0,0,0-1.088-.558Z" transform="translate(-223.93 -50.915)"/><path class="p" d="M229.48,109.437l-3.145,1.015a.914.914,0,0,0-.549,1.1h0a.914.914,0,0,0,1.088.549l3.136-1.024a.859.859,0,0,0,.539-1.125h0A.914.914,0,0,0,229.48,109.437Z" transform="translate(-223.915 -50.491)"/><path class="p" d="M229.351,104.477l-3.136,1.024a.914.914,0,0,0-.558,1.088h0a.914.914,0,0,0,1.088.558l3.145-1.024a.914.914,0,0,0,.549-1.088h0A.914.914,0,0,0,229.351,104.477Z" transform="translate(-223.904 -50.066)"/><path class="p" d="M229.221,99.527l-3.136,1.015a.914.914,0,0,0-.549,1.1h0a.859.859,0,0,0,1.088.549l3.136-1.024a.914.914,0,0,0,.558-1.088h0A.914.914,0,0,0,229.221,99.527Z" transform="translate(-223.893 -49.641)"/><path class="p" d="M229.1,94.568l-3.154,1.024a.914.914,0,0,0-.558,1.088h0a.914.914,0,0,0,1.088.558l3.127-1.024a.914.914,0,0,0,.558-1.088h0A.914.914,0,0,0,229.1,94.568Z" transform="translate(-223.881 -49.217)"/><path class="p" d="M228.971,89.616l-3.136,1.015a.914.914,0,0,0-.558,1.1h0a.914.914,0,0,0,1.1.549l3.136-1.015a.914.914,0,0,0,.549-1.1h0a.859.859,0,0,0-1.088-.549Z" transform="translate(-223.871 -48.791)"/><path class="p" d="M228.851,84.657l-3.145,1.024a.914.914,0,0,0-.549,1.088h0a.914.914,0,0,0,1.088.558l3.136-1.024a.914.914,0,0,0,.558-1.088h0A.914.914,0,0,0,228.851,84.657Z" transform="translate(-223.861 -48.367)"/><path class="p" d="M228.718,79.707l-3.136,1.024A.859.859,0,0,0,225,81.8h0a.914.914,0,0,0,1.088.549l3.145-1.015a.914.914,0,0,0,.549-1.1h0A.914.914,0,0,0,228.718,79.707Z" transform="translate(-223.847 -47.943)"/><path class="p" d="M228.592,74.747l-3.136,1.024a.914.914,0,0,0-.549,1.088h0a.859.859,0,0,0,1.088.558l3.136-1.024a.914.914,0,0,0,.558-1.088h0A.914.914,0,0,0,228.592,74.747Z" transform="translate(-223.84 -47.517)"/><path class="p" d="M228.47,69.8l-3.136,1.024a.859.859,0,0,0-.558,1.088h0a.914.914,0,0,0,1.088.549L229,71.443a.914.914,0,0,0,.558-1.1h0A.914.914,0,0,0,228.47,69.8Z" transform="translate(-223.827 -47.093)"/><path class="p" d="M228.341,64.837,225.2,65.9a.914.914,0,0,0-.558,1.088h0a.914.914,0,0,0,1.1.558l3.136-1.024a.914.914,0,0,0,.549-1.088h0A.914.914,0,0,0,228.341,64.837Z" transform="translate(-223.817 -46.668)"/><path class="p" d="M228.22,59.887,225.074,60.9a.859.859,0,0,0-.549,1.088h0a.914.914,0,0,0,1.088.549l3.136-1.015a.914.914,0,0,0,.558-1.088h0A.914.914,0,0,0,228.22,59.887Z" transform="translate(-223.806 -46.243)"/><path class="p" d="M228.09,54.928l-3.145,1.024a.914.914,0,0,0-.558,1.088h0a.914.914,0,0,0,1.088.558l3.127-1.024a.914.914,0,0,0,.549-1.088h0A.914.914,0,0,0,228.09,54.928Z" transform="translate(-223.795 -45.819)"/><path class="p" d="M227.96,50l-3.136,1.024a.859.859,0,0,0-.549,1.088h0a.859.859,0,0,0,1.088.549l3.136-1.015a.914.914,0,0,0,.558-1.088h0A.914.914,0,0,0,227.96,50Z" transform="translate(-223.784 -45.395)"/><path class="p" d="M227.841,45,224.7,46.021a.914.914,0,0,0-.558,1.088h0a.914.914,0,0,0,1.088.558l3.136-1.024a.859.859,0,0,0,.558-1.088h0A.914.914,0,0,0,227.841,45Z" transform="translate(-223.774 -44.967)"/><path class="q" d="M227.628,175.177h0a.914.914,0,0,0,0,1.225l3.438,3.374a.914.914,0,0,0,1.225,0h0a.914.914,0,0,0,0-1.225l-3.428-3.383A.914.914,0,0,0,227.628,175.177Z" transform="translate(-224.055 -56.109)"/><path class="q" d="M227.488,170.208h0a.914.914,0,0,0,0,1.225l3.438,3.374a.914.914,0,0,0,1.225,0h0a.914.914,0,0,0,0-1.225l-3.438-3.364A.914.914,0,0,0,227.488,170.208Z" transform="translate(-224.043 -55.685)"/><path class="q" d="M227.348,165.238h0a.914.914,0,0,0,0,1.225l3.438,3.374a.914.914,0,0,0,1.225,0h0a.914.914,0,0,0,0-1.225l-3.438-3.364A.914.914,0,0,0,227.348,165.238Z" transform="translate(-224.031 -55.258)"/><path class="q" d="M227.208,160.268h0a.914.914,0,0,0,0,1.225l3.438,3.374a.914.914,0,0,0,1.225,0h0a.914.914,0,0,0,0-1.225l-3.438-3.364A.914.914,0,0,0,227.208,160.268Z" transform="translate(-224.019 -54.832)"/><path class="q" d="M227.068,155.3h0a.914.914,0,0,0,0,1.225l3.438,3.374a.914.914,0,0,0,1.225,0h0a.914.914,0,0,0,0-1.225l-3.438-3.364A.914.914,0,0,0,227.068,155.3Z" transform="translate(-224.007 -54.406)"/><path class="q" d="M226.918,150.328h0a.914.914,0,0,0,0,1.225l3.438,3.374a.914.914,0,0,0,1.225,0h0a.914.914,0,0,0,0-1.225l-3.428-3.364a.914.914,0,0,0-1.234-.009Z" transform="translate(-223.994 -53.98)"/><path class="q" d="M226.778,145.358h0a.914.914,0,0,0,0,1.225l3.428,3.374a.914.914,0,0,0,1.234,0h0a.914.914,0,0,0,0-1.225L228,145.367A.914.914,0,0,0,226.778,145.358Z" transform="translate(-223.982 -53.554)"/><path class="q" d="M226.638,140.387h0a.914.914,0,0,0,0,1.225l3.438,3.374a.914.914,0,0,0,1.225,0h0a.914.914,0,0,0,0-1.225l-3.438-3.383A.914.914,0,0,0,226.638,140.387Z" transform="translate(-223.97 -53.127)"/><path class="q" d="M226.5,135.418h0a.914.914,0,0,0,0,1.225l3.438,3.374a.914.914,0,0,0,1.225,0h0a.914.914,0,0,0,0-1.234l-3.438-3.364A.914.914,0,0,0,226.5,135.418Z" transform="translate(-223.958 -52.701)"/><path class="q" d="M226.358,130.448h0a.914.914,0,0,0,0,1.225l3.438,3.374a.914.914,0,0,0,1.225,0h0a.914.914,0,0,0,0-1.234l-3.438-3.364A.914.914,0,0,0,226.358,130.448Z" transform="translate(-223.946 -52.275)"/><path class="q" d="M226.218,125.478h0a.914.914,0,0,0,0,1.225l3.438,3.374a.914.914,0,0,0,1.225,0h0a.914.914,0,0,0,0-1.234l-3.438-3.365A.914.914,0,0,0,226.218,125.478Z" transform="translate(-223.934 -51.849)"/><path class="q" d="M226.078,120.508h0a.914.914,0,0,0,0,1.225l3.438,3.374a.914.914,0,0,0,1.225,0h0a.914.914,0,0,0,0-1.225l-3.438-3.364A.914.914,0,0,0,226.078,120.508Z" transform="translate(-223.922 -51.423)"/><path class="q" d="M225.978,115.538h0a.914.914,0,0,0,0,1.225l3.438,3.374a.914.914,0,0,0,1.225,0h0a.914.914,0,0,0,0-1.234l-3.428-3.364A.914.914,0,0,0,225.978,115.538Z" transform="translate(-223.914 -50.997)"/><path class="q" d="M225.788,110.568h0a.914.914,0,0,0,0,1.225l3.428,3.374a.914.914,0,0,0,1.234,0h0a.914.914,0,0,0,0-1.234l-3.438-3.364A.914.914,0,0,0,225.788,110.568Z" transform="translate(-223.898 -50.571)"/><path class="q" d="M225.648,105.6h0a.914.914,0,0,0,0,1.225l3.438,3.374a.914.914,0,0,0,1.225,0h0a.914.914,0,0,0,0-1.234l-3.447-3.374A.914.914,0,0,0,225.648,105.6Z" transform="translate(-223.886 -50.145)"/><path class="q" d="M225.508,100.628h0a.914.914,0,0,0,0,1.225l3.438,3.374a.914.914,0,0,0,1.225,0h0a.914.914,0,0,0,0-1.234l-3.438-3.364A.914.914,0,0,0,225.508,100.628Z" transform="translate(-223.874 -49.719)"/><path class="q" d="M225.368,95.658h0a.914.914,0,0,0,0,1.225l3.438,3.374a.914.914,0,0,0,1.225,0h0a.914.914,0,0,0,0-1.234l-3.438-3.364A.914.914,0,0,0,225.368,95.658Z" transform="translate(-223.862 -49.292)"/><path class="q" d="M225.228,90.688h0a.914.914,0,0,0,0,1.225l3.428,3.374a.914.914,0,0,0,1.225,0h0a.914.914,0,0,0,0-1.234l-3.438-3.364A.914.914,0,0,0,225.228,90.688Z" transform="translate(-223.85 -48.867)"/><path class="q" d="M225.088,85.718h0a.914.914,0,0,0,0,1.225l3.438,3.374a.914.914,0,0,0,1.225,0h0a.914.914,0,0,0,0-1.234l-3.438-3.365A.914.914,0,0,0,225.088,85.718Z" transform="translate(-223.838 -48.44)"/><path class="q" d="M224.978,80.748h0a.914.914,0,0,0,0,1.225l3.438,3.374a.914.914,0,0,0,1.225,0h0a.914.914,0,0,0,0-1.234l-3.428-3.365A.914.914,0,0,0,224.978,80.748Z" transform="translate(-223.828 -48.014)"/><path class="q" d="M224.8,75.778h0a.914.914,0,0,0,0,1.225l3.428,3.374a.914.914,0,0,0,1.234,0h0a.914.914,0,0,0,0-1.234l-3.438-3.364A.914.914,0,0,0,224.8,75.778Z" transform="translate(-223.813 -47.588)"/><path class="q" d="M224.658,70.808h0a.914.914,0,0,0,0,1.225l3.438,3.374a.914.914,0,0,0,1.225,0h0a.914.914,0,0,0,0-1.234L225.865,70.8a.914.914,0,0,0-1.207.009Z" transform="translate(-223.801 -47.162)"/><path class="q" d="M224.518,65.838h0a.914.914,0,0,0,0,1.225l3.438,3.374a.914.914,0,0,0,1.225,0h0a.914.914,0,0,0,0-1.234l-3.438-3.364A.914.914,0,0,0,224.518,65.838Z" transform="translate(-223.789 -46.736)"/><path class="q" d="M224.378,60.868h0a.914.914,0,0,0,0,1.225l3.438,3.374a.914.914,0,0,0,1.225,0h0a.914.914,0,0,0,0-1.234L225.6,60.868A.914.914,0,0,0,224.378,60.868Z" transform="translate(-223.777 -46.31)"/><path class="q" d="M224.238,55.9h0a.914.914,0,0,0,0,1.225l3.419,3.419a.914.914,0,0,0,1.225,0h0a.914.914,0,0,0,0-1.234l-3.438-3.364A.914.914,0,0,0,224.238,55.9Z" transform="translate(-223.765 -45.886)"/><path class="q" d="M224.1,50.976h0a.914.914,0,0,0,0,1.225l3.447,3.346a.914.914,0,0,0,1.225,0h0a.914.914,0,0,0,0-1.234l-3.438-3.364A.914.914,0,0,0,224.1,50.976Z" transform="translate(-223.753 -45.46)"/><path class="q" d="M223.978,45.979h0a.914.914,0,0,0,0,1.225l3.428,3.346a.914.914,0,0,0,1.225,0h0a.914.914,0,0,0,0-1.234l-3.456-3.337A.914.914,0,0,0,223.978,45.979Z" transform="translate(-223.742 -45.034)"/><path class="q" d="M230.716,179.438l-1.454,3.447a1.088,1.088,0,0,0,.585,1.417h0a1.088,1.088,0,0,0,1.426-.576l1.445-3.447a1.079,1.079,0,0,0-.576-1.417h0a1.088,1.088,0,0,0-1.426.576Z" transform="translate(-224.209 -56.439)"/></g><rect class="m" width="71.477" height="14.784"/><rect class="m" width="12.855" height="10.861" rx="0.73" transform="translate(58.623 10.541)"/><path class="l" d="M226.39,204.49l7.47,15.606,10.523-5.9s-7.881-13.376-11.968-16.786C230.6,195.923,226.39,204.49,226.39,204.49Z" transform="translate(-161.861 -43.909)"/><path class="n" d="M269.052,267.823l-20.69-.283-2.213,10.779,22.363,3.867Z" transform="translate(-163.555 -49.936)"/><path class="n" d="M294,133.139s-2.094-7.561,0-11.748,8.493-10.541,19.1-9.728a100.1,100.1,0,0,1,25.051,5.851c2.862,1.17,8.073,2.341,11.328,3.876s5.879,14.153,4.9,18.121-16.5,18.166-17.234,16.9-11.8-21.385-22.2-23.277A66.293,66.293,0,0,0,294,133.139Z" transform="translate(-167.578 -36.566)"/><path class="l" d="M294.73,133.372V126.03l1.088,6.61,1.6-4.891.411,4.809,1.472-1.829.485,1.993Z" transform="translate(-167.721 -37.804)"/><path class="l" d="M304.72,132.545l3.511-5.705-1.755,5.705Z" transform="translate(-168.577 -37.873)"/><path class="l" d="M311.32,132.323l9.143-8.073-6.564,7.342,7.78-3.3-3.913,4.032,12.562-4.644-10.523,5.87,21.54-5.467-18.706,7.049-.75.43-4.041-1.765Z" transform="translate(-169.143 -37.651)"/><path class="l" d="M326.14,138.481l9.618-2.331-6.116,3.657h3.017l-1.225,2.286,6.775-1.143-4.882,3.575,4.16-.494L334.3,146.07s3.127,3.556,9.353,1.335a34.543,34.543,0,0,0,11.282-7.369s-3.748,7.314-8.567,11.364-6.126,5.275-6.126,5.275a81.111,81.111,0,0,0-7.744-11.584C327.521,138.811,326.14,138.481,326.14,138.481Z" transform="translate(-170.413 -38.671)"/><g transform="translate(131.142 105.238)"><g transform="translate(7.572)"><path class="o" d="M308.878,152.367a1.719,1.719,0,0,0,2.021,1.3,1.646,1.646,0,0,0,1.362-1.92,1.728,1.728,0,0,0-2.021-1.3,1.646,1.646,0,0,0-1.362,1.92Z" transform="translate(-307.645 -145.132)"/><path class="o" d="M307.585,147.319c.256.165,1.3-1.079,3.1-1.5s3.337.155,3.474-.119c.073-.119-.229-.457-.914-.741a4.708,4.708,0,0,0-2.852-.183,4.48,4.48,0,0,0-2.4,1.472C307.548,146.8,307.457,147.245,307.585,147.319Z" transform="translate(-307.532 -144.637)"/></g><path class="o" d="M304.187,162.416a12.553,12.553,0,0,0-3.044.174c-.475.064-.914.082-1.088-.219a2.468,2.468,0,0,1,0-1.435l.521-3.822c.686-5.431,1.07-9.856.85-9.883s-.96,4.361-1.646,9.792c-.155,1.335-.311,2.615-.457,3.831a2.807,2.807,0,0,0,.192,1.829,1.2,1.2,0,0,0,.914.485,3.5,3.5,0,0,0,.8-.073,12.461,12.461,0,0,0,2.953-.677Z" transform="translate(-299.25 -144.859)"/><path class="r" d="M308.89,186.62a34.047,34.047,0,0,0,16.338-8.85s-2.222,10.057-15.542,12Z" transform="translate(-300.076 -147.478)"/><path class="r" d="M304.533,168.618a3.328,3.328,0,0,1,3.237.174,3.035,3.035,0,0,1,1.4,1.929,1.911,1.911,0,0,1-.823,2.048,2.24,2.24,0,0,1-2.45-.494,7.122,7.122,0,0,1-1.518-2.295,2.165,2.165,0,0,1-.238-.722.613.613,0,0,1,.3-.622" transform="translate(-299.669 -146.664)"/><path class="o" d="M310.138,167.719c-.265-.146-1.143,1.664-3.31,2.2a14.7,14.7,0,0,1-2.441,0c-.183,0,.448,1,.448,1a8.11,8.11,0,0,0,2.322,0,4.352,4.352,0,0,0,2.661-1.9C310.247,168.313,310.266,167.774,310.138,167.719Z" transform="translate(-299.687 -146.615)"/></g></g><g transform="translate(0 229.38)"><rect class="b" width="107.197" height="183.538" transform="translate(4.654 50.696)"/><rect class="h" width="212.191" height="9.719" transform="translate(0.11)"/><path class="b" d="M36.17,291H238.506v39.524a4.078,4.078,0,0,1-4.078,4.078H36.17Z" transform="translate(-31.516 -281.327)"/><path class="s" d="M238.506,290.99H36.17v37.622l202.336-22.025Z" transform="translate(-31.516 -281.326)"/><path class="g" d="M145.29,538.7H33.375A2.3,2.3,0,0,1,31.08,536.4h0a2.3,2.3,0,0,1,2.295-2.295H145.29a2.3,2.3,0,0,1,2.295,2.295h0A2.3,2.3,0,0,1,145.29,538.7Z" transform="translate(-31.08 -302.17)"/></g><g transform="translate(0.293 14.811)"><path class="m" d="M51.2,270.043l-2.56-.53A327.123,327.123,0,0,0,54.266,207.9c-.137-16.027-2.121-33.4-3.712-47.35-1.408-12.324-2.514-22.07-1.929-26.733,2.505-19.638,7.652-24.685,11.053-27.986l.631-.613c13.037-13.047,33.956,1.911,34.166,2.066L92.939,109.4c-.192-.146-19.318-13.805-30.783-2.341l-.649.649c-3.337,3.255-7.9,7.707-10.285,26.441-.558,4.343.539,13.952,1.929,26.111,1.591,14.016,3.584,31.46,3.73,47.624A331.124,331.124,0,0,1,51.2,270.043Z" transform="translate(-32.863 -50.373)"/><rect class="b" width="44.095" height="7.332" rx="0.6" transform="translate(118.507 4.334)"/><rect class="f" width="21.769" height="14.034" transform="translate(36.763 59.363)"/><rect class="b" width="12.059" height="210.326" transform="translate(24.703 4.242)"/><rect class="b" width="4.955" height="210.326" transform="translate(4.361 4.242)"/><rect class="b" width="166.881" height="4.251"/><path class="t" d="M188.16,62.829a7.259,7.259,0,1,0,7.259-7.259A7.259,7.259,0,0,0,188.16,62.829Z" transform="translate(-44.84 -46.574)"/><path class="t" d="M166,62.829a7.259,7.259,0,1,0,7.259-7.259A7.259,7.259,0,0,0,166,62.829Z" transform="translate(-42.94 -46.574)"/><g transform="translate(54.646 24.63)"><rect class="m" width="6.354" height="92.203" transform="translate(24.317 0.004) rotate(11.32)"/><path class="b" d="M91.17,125.679,97.4,163.072l18.093-90.4L95.357,104.788Z" transform="translate(-91.17 -72.67)"/><g transform="translate(3.345 32.068)"><path class="m" d="M106.614,110.291,100,108.966a.613.613,0,0,1-.485-.722h0a.6.6,0,0,1,.722-.485l6.619,1.317a.613.613,0,0,1,.475.731h0A.622.622,0,0,1,106.614,110.291Z" transform="translate(-95.23 -107.745)"/><path class="m" d="M105.834,114.184l-6.61-1.3a.622.622,0,0,1-.485-.722h0a.622.622,0,0,1,.722-.485L106.081,113a.6.6,0,0,1,.475.722h0a.613.613,0,0,1-.722.457Z" transform="translate(-95.163 -108.081)"/><path class="m" d="M105.054,118.081l-6.61-1.326a.622.622,0,0,1-.485-.722h0a.6.6,0,0,1,.722-.485l6.628,1.326a.613.613,0,0,1,.475.731h0a.613.613,0,0,1-.731.475Z" transform="translate(-95.096 -108.413)"/><path class="m" d="M104.274,121.972l-6.61-1.326a.622.622,0,0,1-.485-.722h0a.622.622,0,0,1,.722-.485l6.619,1.326a.622.622,0,0,1,.485.722h0a.622.622,0,0,1-.731.485Z" transform="translate(-95.029 -108.747)"/><path class="m" d="M103.494,125.871l-6.61-1.326a.622.622,0,0,1-.485-.722h0a.613.613,0,0,1,.731-.485l6.61,1.317a.631.631,0,0,1,.485.731h0A.631.631,0,0,1,103.494,125.871Z" transform="translate(-94.962 -109.081)"/><path class="m" d="M102.714,129.762l-6.61-1.326a.622.622,0,0,1-.485-.722h0a.631.631,0,0,1,.731-.485l6.61,1.326a.622.622,0,0,1,.485.722h0A.622.622,0,0,1,102.714,129.762Z" transform="translate(-94.895 -109.415)"/><path class="m" d="M101.934,133.661l-6.61-1.326a.622.622,0,0,1-.485-.722h0a.613.613,0,0,1,.731-.485l6.61,1.317a.631.631,0,0,1,.485.731h0a.631.631,0,0,1-.731.485Z" transform="translate(-94.828 -109.749)"/></g></g><rect class="f" width="49.946" height="6.409" transform="translate(36.763 132.02)"/><rect class="b" width="37.649" height="5.348" transform="translate(36.763 138.429)"/><rect class="m" width="1.335" height="6.683" transform="translate(74.412 138.429)"/><rect class="b" width="9.591" height="32.091" transform="translate(36.763 162.044)"/><rect class="f" width="6.592" height="9.618" transform="translate(46.353 172.558)"/><rect class="m" width="2.642" height="21.028" transform="translate(52.945 167.027)"/><path class="u" d="M92.2,228.42s6.144,2.139,6.144,10.34S92.2,249.448,92.2,249.448Z" transform="translate(-36.613 -61.393)"/><rect class="b" width="6.226" height="6.199" transform="translate(18.468 154.09)"/></g></g></g></svg>