<svg xmlns="http://www.w3.org/2000/svg" width="1185.807" height="710.805" viewBox="0 0 1185.807 710.805"><defs><style>.a{fill:#d9a171;}.b{fill:#a66d58;}.c{fill:#f6f6f6;}.d{fill:#fff;}.e{fill:none;stroke:#afafaf;stroke-linecap:round;}.f{fill:#5e6178;}.g{fill:#12263f;}</style></defs><g transform="translate(1443.022 -6568.695)"><path class="a" d="M0,0H1184.807V76.439H0Z" transform="translate(-1443 6626.975)"/><path class="b" d="M0,0H1184.807V62.405H0Z" transform="translate(-1443 6932.249)"/><path class="a" d="M0,0H1184.807V64.973H0Z" transform="translate(-1443 6987.287)"/><path class="c" d="M0,0H1184.807V76.439H0Z" transform="translate(-1443 6779.508)"/><path class="c" d="M0,0H1184.807V76.439H0Z" transform="translate(-1443 7126.122)"/><path class="d" d="M0,0H1184.807V76.439H0Z" transform="translate(-1443 6703.287)"/><path class="d" d="M0,0H1184.807V76.439H0Z" transform="translate(-1443 7049.973)"/><path class="d" d="M0,0H1184.807V76.439H0Z" transform="translate(-1443 6855.875)"/><path class="d" d="M0,0H1184.807V76.439H0Z" transform="translate(-1443 7202.561)"/><path class="d" d="M8.377,14.482H6.708V19H3.623V6.2H8.659a5.617,5.617,0,0,1,3.56,1.011A3.426,3.426,0,0,1,13.5,10.07a4.163,4.163,0,0,1-.541,2.215,3.837,3.837,0,0,1-1.692,1.424l2.672,5.159V19h-3.3ZM6.708,12.1H8.659a1.754,1.754,0,0,0,1.323-.461,1.781,1.781,0,0,0,.444-1.288,1.8,1.8,0,0,0-.448-1.3,1.737,1.737,0,0,0-1.318-.47H6.708ZM23.3,13.577H18.45v3.05h5.73V19H15.365V6.2H24.2V8.585H18.45v2.7H23.3Zm10.2.325H28.522V19H25.437V6.2H34V8.585H28.522v2.944H33.5Zm9.721-.325H38.366v3.05H44.1V19H35.281V6.2h8.833V8.585H38.366v2.7h4.852Zm6.891.905h-1.67V19H45.353V6.2h5.036a5.617,5.617,0,0,1,3.56,1.011,3.426,3.426,0,0,1,1.283,2.856,4.163,4.163,0,0,1-.541,2.215A3.837,3.837,0,0,1,53,13.709l2.672,5.159V19h-3.3ZM48.438,12.1h1.951a1.754,1.754,0,0,0,1.323-.461,1.781,1.781,0,0,0,.444-1.288,1.8,1.8,0,0,0-.448-1.3,1.737,1.737,0,0,0-1.318-.47H48.438Zm16.594,1.477H60.18v3.05h5.73V19H57.1V6.2h8.833V8.585H60.18v2.7h4.852ZM77.855,19H74.788l-4.535-7.963V19H67.167V6.2h3.085l4.526,7.963V6.2h3.076Zm12.3-4.333a4.673,4.673,0,0,1-.721,2.36,4.35,4.35,0,0,1-1.85,1.586,6.3,6.3,0,0,1-2.72.563A5.025,5.025,0,0,1,80.9,17.532a6.786,6.786,0,0,1-1.45-4.641v-.633A7.746,7.746,0,0,1,80.1,8.967a4.961,4.961,0,0,1,1.885-2.18,5.26,5.26,0,0,1,2.848-.769,5.516,5.516,0,0,1,3.744,1.226,4.844,4.844,0,0,1,1.608,3.379H87.11a2.292,2.292,0,0,0-.589-1.679,2.422,2.422,0,0,0-1.687-.51,1.843,1.843,0,0,0-1.687.861,5.536,5.536,0,0,0-.562,2.751v.905A6.126,6.126,0,0,0,83.1,15.88a1.882,1.882,0,0,0,1.771.879,2.369,2.369,0,0,0,1.626-.5,2.126,2.126,0,0,0,.6-1.591ZM94.906,19H91.83V6.2h3.076Zm9.413-2.391h-4.228L99.353,19h-3.3L100.75,6.2h2.9L108.379,19h-3.313Zm-3.489-2.382h2.751L102.2,9.789Z" transform="translate(-1432.968 6653)"/><path class="d" d="M32.129,13.9H27.154V19H24.069V6.2H32.63V8.585H27.154v2.944h4.975Zm9.721-.325H37v3.05h5.73V19H33.913V6.2h8.833V8.585H37v2.7H41.85Zm12.489,1.09a4.673,4.673,0,0,1-.721,2.36,4.35,4.35,0,0,1-1.85,1.586,6.3,6.3,0,0,1-2.72.563,5.025,5.025,0,0,1-3.973-1.644,6.786,6.786,0,0,1-1.45-4.641v-.633a7.746,7.746,0,0,1,.655-3.292,4.961,4.961,0,0,1,1.885-2.18,5.26,5.26,0,0,1,2.848-.769,5.516,5.516,0,0,1,3.744,1.226,4.844,4.844,0,0,1,1.608,3.379H51.289A2.292,2.292,0,0,0,50.7,8.945a2.422,2.422,0,0,0-1.687-.51,1.843,1.843,0,0,0-1.687.861,5.536,5.536,0,0,0-.562,2.751v.905a6.126,6.126,0,0,0,.514,2.927,1.882,1.882,0,0,0,1.771.879,2.369,2.369,0,0,0,1.626-.5,2.126,2.126,0,0,0,.6-1.591ZM66.494,19H63.427V13.656H58.883V19H55.8V6.2h3.085v5.08h4.544V6.2h3.067Zm9.378-2.391H71.645L70.906,19h-3.3L72.3,6.2h2.9L79.933,19H76.619Zm-3.489-2.382h2.751l-1.38-4.438Z" transform="translate(-1432.968 7008)"/><path class="d" d="M46.589,6.019V8.348h-.132a4.447,4.447,0,0,0-2.729.8,3.358,3.358,0,0,0-1.314,2.21,3.464,3.464,0,0,1,2.531-.984,3.231,3.231,0,0,1,2.646,1.213,4.892,4.892,0,0,1,.984,3.182A4.48,4.48,0,0,1,48,17a4.108,4.108,0,0,1-1.608,1.6,4.622,4.622,0,0,1-2.29.576,4.777,4.777,0,0,1-2.435-.62A4.26,4.26,0,0,1,40,16.785a5.832,5.832,0,0,1-.615-2.654V12.944a7.387,7.387,0,0,1,.848-3.555,6.149,6.149,0,0,1,2.421-2.474,6.923,6.923,0,0,1,3.489-.9Zm-2.672,6.618a1.7,1.7,0,0,0-.984.272,1.73,1.73,0,0,0-.589.668v.888q0,2.426,1.679,2.426a1.362,1.362,0,0,0,1.129-.606,2.472,2.472,0,0,0,.453-1.521,2.426,2.426,0,0,0-.461-1.534A1.476,1.476,0,0,0,43.917,12.637Zm13.1-6.618V8.348h-.132a4.447,4.447,0,0,0-2.729.8,3.358,3.358,0,0,0-1.314,2.21,3.464,3.464,0,0,1,2.531-.984,3.231,3.231,0,0,1,2.646,1.213A4.892,4.892,0,0,1,59,14.764,4.48,4.48,0,0,1,58.423,17a4.108,4.108,0,0,1-1.608,1.6,4.622,4.622,0,0,1-2.29.576,4.777,4.777,0,0,1-2.435-.62,4.26,4.26,0,0,1-1.67-1.771,5.832,5.832,0,0,1-.615-2.654V12.944a7.387,7.387,0,0,1,.848-3.555,6.149,6.149,0,0,1,2.421-2.474,6.923,6.923,0,0,1,3.489-.9Zm-2.672,6.618a1.7,1.7,0,0,0-.984.272,1.73,1.73,0,0,0-.589.668v.888q0,2.426,1.679,2.426a1.362,1.362,0,0,0,1.129-.606,2.472,2.472,0,0,0,.453-1.521,2.426,2.426,0,0,0-.461-1.534A1.476,1.476,0,0,0,54.341,12.637ZM69.177,7.785,64.4,19H61.267l4.79-10.512h-6.1V6.2h9.22Zm10.424,0L74.819,19H71.69L76.48,8.488h-6.1V6.2H79.6Z" transform="translate(-1302.066 6653)"/><path class="d" d="M2.472,19V6.2H6.594a6.064,6.064,0,0,1,3.05.769,5.406,5.406,0,0,1,2.114,2.171,6.554,6.554,0,0,1,.769,3.142v.589a6.592,6.592,0,0,1-.743,3.151A5.429,5.429,0,0,1,9.692,18.2a5.93,5.93,0,0,1-3.01.8ZM5.557,8.585v8.042H6.629a2.4,2.4,0,0,0,2.039-.945,4.63,4.63,0,0,0,.712-2.808V12.32a4.592,4.592,0,0,0-.712-2.795,2.442,2.442,0,0,0-2.074-.94Zm16.488,4.992H17.194v3.05h5.73V19H14.109V6.2h8.833V8.585H17.194v2.7h4.852ZM30.782,15.6a1.268,1.268,0,0,0-.479-1.055,5.954,5.954,0,0,0-1.683-.782,16.147,16.147,0,0,1-1.969-.782q-2.487-1.222-2.487-3.357a3.011,3.011,0,0,1,.62-1.876A4.008,4.008,0,0,1,26.537,6.48a6.823,6.823,0,0,1,2.549-.453,5.969,5.969,0,0,1,2.474.492,3.917,3.917,0,0,1,1.7,1.4A3.661,3.661,0,0,1,33.867,10H30.791a1.547,1.547,0,0,0-.479-1.213,1.867,1.867,0,0,0-1.3-.431,2.106,2.106,0,0,0-1.305.365,1.074,1.074,0,0,0,.048,1.819,6.65,6.65,0,0,0,1.854.826,11.36,11.36,0,0,1,2.18.918,3.663,3.663,0,0,1,2.074,3.3A3.125,3.125,0,0,1,32.6,18.218a5.629,5.629,0,0,1-3.472.958,6.888,6.888,0,0,1-2.817-.558,4.247,4.247,0,0,1-1.9-1.529,3.985,3.985,0,0,1-.637-2.237h3.094a1.963,1.963,0,0,0,.532,1.516,2.513,2.513,0,0,0,1.727.488,1.985,1.985,0,0,0,1.208-.33A1.088,1.088,0,0,0,30.782,15.6ZM45.8,14.667a4.673,4.673,0,0,1-.721,2.36,4.35,4.35,0,0,1-1.85,1.586,6.3,6.3,0,0,1-2.72.563,5.025,5.025,0,0,1-3.973-1.644,6.786,6.786,0,0,1-1.45-4.641v-.633a7.746,7.746,0,0,1,.655-3.292,4.961,4.961,0,0,1,1.885-2.18,5.26,5.26,0,0,1,2.848-.769A5.516,5.516,0,0,1,44.22,7.245a4.844,4.844,0,0,1,1.608,3.379H42.752a2.292,2.292,0,0,0-.589-1.679,2.422,2.422,0,0,0-1.687-.51,1.843,1.843,0,0,0-1.687.861,5.536,5.536,0,0,0-.562,2.751v.905a6.126,6.126,0,0,0,.514,2.927,1.882,1.882,0,0,0,1.771.879,2.369,2.369,0,0,0,1.626-.5,2.126,2.126,0,0,0,.6-1.591Zm6.214-.185h-1.67V19H47.261V6.2H52.3a5.617,5.617,0,0,1,3.56,1.011A3.426,3.426,0,0,1,57.14,10.07a4.163,4.163,0,0,1-.541,2.215,3.837,3.837,0,0,1-1.692,1.424l2.672,5.159V19h-3.3ZM50.346,12.1H52.3a1.754,1.754,0,0,0,1.323-.461,1.781,1.781,0,0,0,.444-1.288,1.8,1.8,0,0,0-.448-1.3,1.737,1.737,0,0,0-1.318-.47H50.346ZM62.291,19H59.214V6.2h3.076Zm5.229-4.342V19H64.435V6.2h5.106a5.948,5.948,0,0,1,2.6.541,4.074,4.074,0,0,1,1.749,1.538,4.2,4.2,0,0,1,.62,2.263,3.7,3.7,0,0,1-1.34,2.993,5.561,5.561,0,0,1-3.678,1.121Zm0-2.382h2.021a1.906,1.906,0,0,0,1.367-.448,1.665,1.665,0,0,0,.47-1.266A2.059,2.059,0,0,0,70.9,9.13a1.712,1.712,0,0,0-1.318-.545H67.52ZM86.5,14.667a4.673,4.673,0,0,1-.721,2.36,4.35,4.35,0,0,1-1.85,1.586,6.3,6.3,0,0,1-2.72.563,5.025,5.025,0,0,1-3.973-1.644,6.786,6.786,0,0,1-1.45-4.641v-.633a7.746,7.746,0,0,1,.655-3.292,4.961,4.961,0,0,1,1.885-2.18,5.26,5.26,0,0,1,2.848-.769,5.516,5.516,0,0,1,3.744,1.226,4.844,4.844,0,0,1,1.608,3.379H83.455a2.292,2.292,0,0,0-.589-1.679,2.422,2.422,0,0,0-1.687-.51,1.843,1.843,0,0,0-1.687.861,5.536,5.536,0,0,0-.562,2.751v.905a6.126,6.126,0,0,0,.514,2.927,1.882,1.882,0,0,0,1.771.879,2.369,2.369,0,0,0,1.626-.5,2.126,2.126,0,0,0,.6-1.591ZM91.25,19H88.174V6.2H91.25Zm12.981-6.135a7.546,7.546,0,0,1-.694,3.313,5.132,5.132,0,0,1-1.973,2.219,5.494,5.494,0,0,1-2.914.778,5.572,5.572,0,0,1-2.9-.751,5.123,5.123,0,0,1-1.973-2.149,7.329,7.329,0,0,1-.743-3.208v-.721a7.58,7.58,0,0,1,.69-3.318A5.119,5.119,0,0,1,95.7,6.81a5.854,5.854,0,0,1,5.832-.009A5.211,5.211,0,0,1,103.516,9a7.362,7.362,0,0,1,.716,3.274Zm-3.138-.536a5.381,5.381,0,0,0-.637-2.9,2.044,2.044,0,0,0-1.824-.989q-2.32,0-2.452,3.48l-.009.94a5.535,5.535,0,0,0,.624,2.892,2.041,2.041,0,0,0,1.854,1.011,2.016,2.016,0,0,0,1.8-.993,5.383,5.383,0,0,0,.642-2.856Zm-2.1-9.554h3.129l-2.443,2.76H97.262ZM116.51,19h-3.067l-4.535-7.963V19h-3.085V6.2h3.085l4.526,7.963V6.2h3.076Z" transform="translate(-1302.066 7008)"/><path class="d" d="M23.794,14.482h-1.67V19H19.04V6.2h5.036a5.617,5.617,0,0,1,3.56,1.011,3.426,3.426,0,0,1,1.283,2.856,4.163,4.163,0,0,1-.541,2.215,3.837,3.837,0,0,1-1.692,1.424l2.672,5.159V19h-3.3ZM22.125,12.1h1.951a1.754,1.754,0,0,0,1.323-.461,1.781,1.781,0,0,0,.444-1.288,1.8,1.8,0,0,0-.448-1.3,1.737,1.737,0,0,0-1.318-.47H22.125Zm19.494.765a7.546,7.546,0,0,1-.694,3.313A5.132,5.132,0,0,1,38.951,18.4a5.494,5.494,0,0,1-2.914.778,5.572,5.572,0,0,1-2.9-.751,5.123,5.123,0,0,1-1.973-2.149,7.329,7.329,0,0,1-.743-3.208v-.721a7.58,7.58,0,0,1,.69-3.318A5.119,5.119,0,0,1,33.089,6.81,5.854,5.854,0,0,1,38.92,6.8,5.211,5.211,0,0,1,40.9,9a7.362,7.362,0,0,1,.716,3.274Zm-3.138-.536a5.381,5.381,0,0,0-.637-2.9,2.044,2.044,0,0,0-1.824-.989q-2.32,0-2.452,3.48l-.009.94a5.535,5.535,0,0,0,.624,2.892,2.041,2.041,0,0,0,1.854,1.011,2.016,2.016,0,0,0,1.8-.993,5.383,5.383,0,0,0,.642-2.856ZM43.209,19V6.2h4.122a6.064,6.064,0,0,1,3.05.769A5.406,5.406,0,0,1,52.5,9.143a6.554,6.554,0,0,1,.769,3.142v.589a6.592,6.592,0,0,1-.743,3.151A5.429,5.429,0,0,1,50.43,18.2a5.93,5.93,0,0,1-3.01.8ZM46.294,8.585v8.042h1.072a2.4,2.4,0,0,0,2.039-.945,4.63,4.63,0,0,0,.712-2.808V12.32a4.592,4.592,0,0,0-.712-2.795,2.442,2.442,0,0,0-2.074-.94ZM64.883,6.2v8.376a4.814,4.814,0,0,1-.606,2.465,3.929,3.929,0,0,1-1.74,1.586,6.131,6.131,0,0,1-2.681.545,5.3,5.3,0,0,1-3.683-1.213A4.326,4.326,0,0,1,54.8,14.641V6.2h3.1v8.5q.053,2.1,1.951,2.1a1.889,1.889,0,0,0,1.45-.527,2.465,2.465,0,0,0,.492-1.714V6.2Zm12.278,8.464a4.673,4.673,0,0,1-.721,2.36,4.35,4.35,0,0,1-1.85,1.586,6.3,6.3,0,0,1-2.72.563A5.025,5.025,0,0,1,67.9,17.532a6.786,6.786,0,0,1-1.45-4.641v-.633A7.746,7.746,0,0,1,67.1,8.967a4.961,4.961,0,0,1,1.885-2.18,5.26,5.26,0,0,1,2.848-.769A5.516,5.516,0,0,1,75.58,7.245a4.844,4.844,0,0,1,1.608,3.379H74.112a2.292,2.292,0,0,0-.589-1.679,2.422,2.422,0,0,0-1.687-.51,1.843,1.843,0,0,0-1.687.861,5.536,5.536,0,0,0-.562,2.751v.905A6.126,6.126,0,0,0,70.1,15.88a1.882,1.882,0,0,0,1.771.879,2.369,2.369,0,0,0,1.626-.5,2.126,2.126,0,0,0,.6-1.591Zm11.25-6.082H84.571V19H81.486V8.585H77.715V6.2h10.7Zm11.892,4.28a7.546,7.546,0,0,1-.694,3.313A5.132,5.132,0,0,1,97.636,18.4a5.494,5.494,0,0,1-2.914.778,5.572,5.572,0,0,1-2.9-.751,5.123,5.123,0,0,1-1.973-2.149,7.329,7.329,0,0,1-.743-3.208v-.721a7.58,7.58,0,0,1,.69-3.318A5.119,5.119,0,0,1,91.773,6.81,5.854,5.854,0,0,1,97.6,6.8,5.211,5.211,0,0,1,99.587,9a7.362,7.362,0,0,1,.716,3.274Zm-3.138-.536a5.381,5.381,0,0,0-.637-2.9A2.044,2.044,0,0,0,94.7,8.444q-2.32,0-2.452,3.48l-.009.94a5.535,5.535,0,0,0,.624,2.892,2.041,2.041,0,0,0,1.854,1.011,2.016,2.016,0,0,0,1.8-.993,5.383,5.383,0,0,0,.642-2.856Z" transform="translate(-1179.199 6653)"/><path class="d" d="M27.424,13.577H22.573v3.05H28.3V19H19.488V6.2h8.833V8.585H22.573v2.7h4.852ZM40.248,19H37.18l-4.535-7.963V19H29.56V6.2h3.085l4.526,7.963V6.2h3.076Zm12-10.415H48.4V19H45.319V8.585H41.548V6.2h10.7Zm6.056,5.9H56.63V19H53.545V6.2h5.036a5.617,5.617,0,0,1,3.56,1.011,3.426,3.426,0,0,1,1.283,2.856,4.163,4.163,0,0,1-.541,2.215,3.837,3.837,0,0,1-1.692,1.424l2.672,5.159V19h-3.3ZM56.63,12.1h1.951a1.754,1.754,0,0,0,1.323-.461,1.781,1.781,0,0,0,.444-1.288,1.8,1.8,0,0,0-.448-1.3,1.737,1.737,0,0,0-1.318-.47H56.63Zm15.926,4.509H68.329L67.59,19h-3.3L68.988,6.2h2.9L76.617,19H73.3Zm-3.489-2.382h2.751l-1.38-4.438ZM77.548,19V6.2H81.67a6.064,6.064,0,0,1,3.05.769,5.406,5.406,0,0,1,2.114,2.171,6.554,6.554,0,0,1,.769,3.142v.589a6.592,6.592,0,0,1-.743,3.151,5.429,5.429,0,0,1-2.092,2.18,5.93,5.93,0,0,1-3.01.8ZM80.633,8.585v8.042h1.072a2.4,2.4,0,0,0,2.039-.945,4.63,4.63,0,0,0,.712-2.808V12.32a4.592,4.592,0,0,0-.712-2.795,2.442,2.442,0,0,0-2.074-.94Zm15.82,8.024H92.226L91.488,19h-3.3L92.885,6.2h2.9L100.514,19H97.2Zm-3.489-2.382h2.751l-1.38-4.438Z" transform="translate(-1229.926 6948.48)"/><path class="d" d="M26.308,14.667a4.673,4.673,0,0,1-.721,2.36,4.35,4.35,0,0,1-1.85,1.586,6.3,6.3,0,0,1-2.72.563,5.025,5.025,0,0,1-3.973-1.644,6.786,6.786,0,0,1-1.45-4.641v-.633a7.746,7.746,0,0,1,.655-3.292,4.961,4.961,0,0,1,1.885-2.18,5.26,5.26,0,0,1,2.848-.769,5.516,5.516,0,0,1,3.744,1.226,4.844,4.844,0,0,1,1.608,3.379H23.258a2.292,2.292,0,0,0-.589-1.679,2.422,2.422,0,0,0-1.687-.51,1.843,1.843,0,0,0-1.687.861,5.536,5.536,0,0,0-.562,2.751v.905a6.126,6.126,0,0,0,.514,2.927,1.882,1.882,0,0,0,1.771.879,2.369,2.369,0,0,0,1.626-.5,2.126,2.126,0,0,0,.6-1.591Zm8.728,1.942H30.808L30.07,19h-3.3L31.467,6.2h2.9L39.1,19H35.783Zm-3.489-2.382H34.3l-1.38-4.438ZM50.715,19H47.648l-4.535-7.963V19H40.028V6.2h3.085l4.526,7.963V6.2h3.076Zm12-10.415H58.872V19H55.787V8.585H52.016V6.2h10.7ZM67.3,19H64.224V6.2H67.3Zm2.145,0V6.2h4.122a6.064,6.064,0,0,1,3.05.769A5.406,5.406,0,0,1,78.73,9.143a6.554,6.554,0,0,1,.769,3.142v.589a6.592,6.592,0,0,1-.743,3.151,5.429,5.429,0,0,1-2.092,2.18,5.93,5.93,0,0,1-3.01.8ZM72.53,8.585v8.042H73.6a2.4,2.4,0,0,0,2.039-.945,4.63,4.63,0,0,0,.712-2.808V12.32a4.592,4.592,0,0,0-.712-2.795,2.442,2.442,0,0,0-2.074-.94Zm15.82,8.024H84.123L83.384,19h-3.3L84.782,6.2h2.9L92.411,19H89.1Zm-3.489-2.382h2.751l-1.38-4.438ZM93.342,19V6.2h4.122a6.064,6.064,0,0,1,3.05.769,5.406,5.406,0,0,1,2.114,2.171,6.554,6.554,0,0,1,.769,3.142v.589a6.592,6.592,0,0,1-.743,3.151,5.429,5.429,0,0,1-2.092,2.18,5.93,5.93,0,0,1-3.01.8ZM96.427,8.585v8.042H97.5a2.4,2.4,0,0,0,2.039-.945,4.63,4.63,0,0,0,.712-2.808V12.32a4.592,4.592,0,0,0-.712-2.795,2.442,2.442,0,0,0-2.074-.94Z" transform="translate(-1179.285 7008)"/><path class="d" d="M9.875,13.577H5.023v3.05h5.73V19H1.938V6.2h8.833V8.585H5.023v2.7H9.875ZM16.062,6.2l2.856,8.9,2.848-8.9h4.061V19H22.733V16.012l.3-6.117L19.938,19H17.9L14.8,9.886l.3,6.126V19H12.01V6.2Zm14.81,8.455V19H27.787V6.2h5.106a5.948,5.948,0,0,1,2.6.541,4.074,4.074,0,0,1,1.749,1.538,4.2,4.2,0,0,1,.62,2.263,3.7,3.7,0,0,1-1.34,2.993,5.561,5.561,0,0,1-3.678,1.121Zm0-2.382h2.021a1.906,1.906,0,0,0,1.367-.448,1.665,1.665,0,0,0,.47-1.266,2.059,2.059,0,0,0-.483-1.433,1.712,1.712,0,0,0-1.318-.545H30.872Zm14.335,4.333H40.979L40.241,19h-3.3L41.638,6.2h2.9L49.267,19H45.954Zm-3.489-2.382h2.751l-1.38-4.438ZM60.886,19H57.819l-4.535-7.963V19H50.2V6.2h3.085l4.526,7.963V6.2h3.076Zm9.22-2.391H65.878L65.14,19h-3.3L66.538,6.2h2.9L74.167,19H70.853Zm-3.489-2.382h2.751l-1.38-4.438ZM75.1,19V6.2H79.22a6.064,6.064,0,0,1,3.05.769,5.406,5.406,0,0,1,2.114,2.171,6.554,6.554,0,0,1,.769,3.142v.589a6.592,6.592,0,0,1-.743,3.151,5.429,5.429,0,0,1-2.092,2.18,5.93,5.93,0,0,1-3.01.8ZM78.183,8.585v8.042h1.072a2.4,2.4,0,0,0,2.039-.945,4.63,4.63,0,0,0,.712-2.808V12.32a4.592,4.592,0,0,0-.712-2.795,2.442,2.442,0,0,0-2.074-.94ZM94,16.609H89.776L89.038,19h-3.3L90.435,6.2h2.9L98.064,19H94.75Zm-3.489-2.382h2.751l-1.38-4.438Z" transform="translate(-1024.199 6653)"/><path class="d" d="M27,15.52,29.553,6.2H33L28.692,19H25.317L21.045,6.2h3.419Zm13.535,1.09H36.312L35.574,19h-3.3L36.971,6.2h2.9L44.6,19H41.287ZM37.05,14.228H39.8l-1.38-4.438Zm11.566,2.4h5.37V19H45.532V6.2h3.085Zm16.945-3.762a7.546,7.546,0,0,1-.694,3.313A5.132,5.132,0,0,1,62.895,18.4a5.494,5.494,0,0,1-2.914.778,5.572,5.572,0,0,1-2.9-.751,5.123,5.123,0,0,1-1.973-2.149,7.329,7.329,0,0,1-.743-3.208v-.721a7.58,7.58,0,0,1,.69-3.318A5.119,5.119,0,0,1,57.032,6.81,5.854,5.854,0,0,1,62.864,6.8,5.211,5.211,0,0,1,64.846,9a7.362,7.362,0,0,1,.716,3.274Zm-3.138-.536a5.381,5.381,0,0,0-.637-2.9,2.044,2.044,0,0,0-1.824-.989q-2.32,0-2.452,3.48l-.009.94a5.535,5.535,0,0,0,.624,2.892,2.041,2.041,0,0,0,1.854,1.011,2.016,2.016,0,0,0,1.8-.993,5.383,5.383,0,0,0,.642-2.856Zm9.483,2.153h-1.67V19H67.153V6.2h5.036a5.617,5.617,0,0,1,3.56,1.011,3.426,3.426,0,0,1,1.283,2.856,4.163,4.163,0,0,1-.541,2.215A3.837,3.837,0,0,1,74.8,13.709l2.672,5.159V19h-3.3ZM70.238,12.1h1.951a1.754,1.754,0,0,0,1.323-.461,1.781,1.781,0,0,0,.444-1.288,1.8,1.8,0,0,0-.448-1.3,1.737,1.737,0,0,0-1.318-.47H70.238ZM32.968,27.585H29.127V38H26.042V27.585H22.271V25.2h10.7Zm11.892,4.28a7.546,7.546,0,0,1-.694,3.313A5.132,5.132,0,0,1,42.192,37.4a5.494,5.494,0,0,1-2.914.778,5.572,5.572,0,0,1-2.9-.751A5.123,5.123,0,0,1,34.4,35.275a7.329,7.329,0,0,1-.743-3.208v-.721a7.58,7.58,0,0,1,.69-3.318A5.119,5.119,0,0,1,36.33,25.81a5.854,5.854,0,0,1,5.832-.009A5.211,5.211,0,0,1,44.143,28a7.362,7.362,0,0,1,.716,3.274Zm-3.138-.536a5.381,5.381,0,0,0-.637-2.9,2.044,2.044,0,0,0-1.824-.989q-2.32,0-2.452,3.48l-.009.94a5.535,5.535,0,0,0,.624,2.892,2.041,2.041,0,0,0,1.854,1.011,2.016,2.016,0,0,0,1.8-.993,5.383,5.383,0,0,0,.642-2.856Zm14.027-3.744H51.908V38H48.823V27.585H45.053V25.2h10.7Zm7.515,8.024H59.036L58.3,38H55L59.7,25.2h2.9L67.324,38H64.011Zm-3.489-2.382h2.751l-1.38-4.438Zm11.566,2.4h5.37V38H68.256V25.2h3.085Z" transform="translate(-1024.496 6998)"/><path class="d" d="M12.308,14.667a4.673,4.673,0,0,1-.721,2.36,4.35,4.35,0,0,1-1.85,1.586,6.3,6.3,0,0,1-2.72.563,5.025,5.025,0,0,1-3.973-1.644,6.786,6.786,0,0,1-1.45-4.641v-.633a7.746,7.746,0,0,1,.655-3.292,4.961,4.961,0,0,1,1.885-2.18,5.26,5.26,0,0,1,2.848-.769,5.516,5.516,0,0,1,3.744,1.226,4.844,4.844,0,0,1,1.608,3.379H9.258a2.292,2.292,0,0,0-.589-1.679,2.422,2.422,0,0,0-1.687-.51A1.843,1.843,0,0,0,5.294,9.3a5.536,5.536,0,0,0-.562,2.751v.905a6.126,6.126,0,0,0,.514,2.927,1.882,1.882,0,0,0,1.771.879,2.369,2.369,0,0,0,1.626-.5,2.126,2.126,0,0,0,.6-1.591Zm8.728,1.942H16.808L16.07,19h-3.3L17.467,6.2h2.9L25.1,19H21.783Zm-3.489-2.382H20.3l-1.38-4.438ZM36.715,19H33.648l-4.535-7.963V19H26.028V6.2h3.085l4.526,7.963V6.2h3.076Zm12-10.415H44.872V19H41.787V8.585H38.016V6.2h10.7ZM53.3,19H50.224V6.2H53.3Zm2.145,0V6.2h4.122a6.064,6.064,0,0,1,3.05.769A5.406,5.406,0,0,1,64.73,9.143a6.554,6.554,0,0,1,.769,3.142v.589a6.592,6.592,0,0,1-.743,3.151,5.429,5.429,0,0,1-2.092,2.18,5.93,5.93,0,0,1-3.01.8ZM58.53,8.585v8.042H59.6a2.4,2.4,0,0,0,2.039-.945,4.63,4.63,0,0,0,.712-2.808V12.32a4.592,4.592,0,0,0-.712-2.795,2.442,2.442,0,0,0-2.074-.94Zm15.82,8.024H70.123L69.384,19h-3.3L70.782,6.2h2.9L78.411,19H75.1Zm-3.489-2.382h2.751l-1.38-4.438ZM79.342,19V6.2h4.122a6.064,6.064,0,0,1,3.05.769,5.406,5.406,0,0,1,2.114,2.171,6.554,6.554,0,0,1,.769,3.142v.589a6.592,6.592,0,0,1-.743,3.151,5.429,5.429,0,0,1-2.092,2.18,5.93,5.93,0,0,1-3.01.8ZM82.427,8.585v8.042H83.5a2.4,2.4,0,0,0,2.039-.945,4.63,4.63,0,0,0,.712-2.808V12.32a4.592,4.592,0,0,0-.712-2.795,2.442,2.442,0,0,0-2.074-.94ZM16.861,25.2l2.856,8.9,2.848-8.9h4.061V38H23.532V35.012l.3-6.117L20.737,38H18.7l-3.1-9.114.3,6.126V38H12.809V25.2ZM31.873,38H28.8V25.2h3.076ZM30.7,21.775h3.129l-2.443,2.76H28.972ZM44.7,38H41.637L37.1,30.037V38H34.017V25.2H37.1l4.526,7.963V25.2H44.7Zm5.238,0H46.867V25.2h3.076Zm6.2-12.8L59,34.106l2.848-8.9H65.9V38H62.81V35.012l.3-6.117L60.015,38H57.976l-3.1-9.114.3,6.126V38H52.087V25.2ZM75.132,35.609H70.9L70.167,38h-3.3l4.693-12.8h2.9L79.193,38H75.879Zm-3.489-2.382h2.751l-1.38-4.438Z" transform="translate(-769.199 6641)"/><path class="d" d="M21.761,15.6a1.268,1.268,0,0,0-.479-1.055,5.954,5.954,0,0,0-1.683-.782,16.147,16.147,0,0,1-1.969-.782q-2.487-1.222-2.487-3.357a3.011,3.011,0,0,1,.62-1.876A4.008,4.008,0,0,1,17.516,6.48a6.823,6.823,0,0,1,2.549-.453,5.969,5.969,0,0,1,2.474.492,3.917,3.917,0,0,1,1.7,1.4A3.661,3.661,0,0,1,24.846,10H21.77a1.547,1.547,0,0,0-.479-1.213,1.867,1.867,0,0,0-1.3-.431,2.106,2.106,0,0,0-1.305.365,1.074,1.074,0,0,0,.048,1.819,6.65,6.65,0,0,0,1.854.826,11.36,11.36,0,0,1,2.18.918,3.663,3.663,0,0,1,2.074,3.3,3.125,3.125,0,0,1-1.266,2.637,5.629,5.629,0,0,1-3.472.958,6.888,6.888,0,0,1-2.817-.558,4.247,4.247,0,0,1-1.9-1.529,3.985,3.985,0,0,1-.637-2.237H17.85a1.963,1.963,0,0,0,.532,1.516,2.513,2.513,0,0,0,1.727.488,1.985,1.985,0,0,0,1.208-.33A1.088,1.088,0,0,0,21.761,15.6ZM33.7,16.609H29.469L28.73,19h-3.3L30.128,6.2h2.9L37.757,19H34.443Zm-3.489-2.382h2.751l-1.38-4.438Zm11.566,2.4h5.37V19H38.688V6.2h3.085ZM51.731,19H48.655V6.2h3.076Zm2.145,0V6.2H58a6.064,6.064,0,0,1,3.05.769,5.406,5.406,0,0,1,2.114,2.171,6.554,6.554,0,0,1,.769,3.142v.589a6.592,6.592,0,0,1-.743,3.151A5.429,5.429,0,0,1,61.1,18.2a5.93,5.93,0,0,1-3.01.8ZM56.961,8.585v8.042h1.072a2.4,2.4,0,0,0,2.039-.945,4.63,4.63,0,0,0,.712-2.808V12.32a4.592,4.592,0,0,0-.712-2.795A2.442,2.442,0,0,0,58,8.585Zm15.82,8.024H68.554L67.815,19h-3.3L69.213,6.2h2.9L76.842,19H73.528Zm-3.489-2.382h2.751l-1.38-4.438Z" transform="translate(-823.843 6942.751)"/><path class="d" d="M23,15.52,25.553,6.2H29L24.692,19H21.317L17.045,6.2h3.419Zm13.535,1.09H32.312L31.574,19h-3.3L32.971,6.2h2.9L40.6,19H37.287ZM33.05,14.228H35.8l-1.38-4.438Zm11.566,2.4h5.37V19H41.532V6.2h3.085Zm16.945-3.762a7.546,7.546,0,0,1-.694,3.313A5.132,5.132,0,0,1,58.895,18.4a5.494,5.494,0,0,1-2.914.778,5.572,5.572,0,0,1-2.9-.751,5.123,5.123,0,0,1-1.973-2.149,7.329,7.329,0,0,1-.743-3.208v-.721a7.58,7.58,0,0,1,.69-3.318A5.119,5.119,0,0,1,53.032,6.81,5.854,5.854,0,0,1,58.864,6.8,5.211,5.211,0,0,1,60.846,9a7.362,7.362,0,0,1,.716,3.274Zm-3.138-.536a5.381,5.381,0,0,0-.637-2.9,2.044,2.044,0,0,0-1.824-.989q-2.32,0-2.452,3.48l-.009.94a5.535,5.535,0,0,0,.624,2.892,2.041,2.041,0,0,0,1.854,1.011,2.016,2.016,0,0,0,1.8-.993,5.383,5.383,0,0,0,.642-2.856Zm9.483,2.153h-1.67V19H63.153V6.2h5.036a5.617,5.617,0,0,1,3.56,1.011,3.426,3.426,0,0,1,1.283,2.856,4.163,4.163,0,0,1-.541,2.215A3.837,3.837,0,0,1,70.8,13.709l2.672,5.159V19h-3.3ZM66.238,12.1h1.951a1.754,1.754,0,0,0,1.323-.461,1.781,1.781,0,0,0,.444-1.288,1.8,1.8,0,0,0-.448-1.3,1.737,1.737,0,0,0-1.318-.47H66.238ZM28.968,27.585H25.127V38H22.042V27.585H18.271V25.2h10.7Zm11.892,4.28a7.546,7.546,0,0,1-.694,3.313A5.132,5.132,0,0,1,38.192,37.4a5.494,5.494,0,0,1-2.914.778,5.572,5.572,0,0,1-2.9-.751A5.123,5.123,0,0,1,30.4,35.275a7.329,7.329,0,0,1-.743-3.208v-.721a7.58,7.58,0,0,1,.69-3.318A5.119,5.119,0,0,1,32.33,25.81a5.854,5.854,0,0,1,5.832-.009A5.211,5.211,0,0,1,40.143,28a7.362,7.362,0,0,1,.716,3.274Zm-3.138-.536a5.381,5.381,0,0,0-.637-2.9,2.044,2.044,0,0,0-1.824-.989q-2.32,0-2.452,3.48l-.009.94a5.535,5.535,0,0,0,.624,2.892,2.041,2.041,0,0,0,1.854,1.011,2.016,2.016,0,0,0,1.8-.993,5.383,5.383,0,0,0,.642-2.856Zm14.027-3.744H47.908V38H44.823V27.585H41.053V25.2h10.7Zm7.515,8.024H55.036L54.3,38H51L55.7,25.2h2.9L63.324,38H60.011Zm-3.489-2.382h2.751l-1.38-4.438Zm11.566,2.4h5.37V38H64.256V25.2h3.085Z" transform="translate(-769.38 6998)"/><path class="d" d="M12.308,14.667a4.673,4.673,0,0,1-.721,2.36,4.35,4.35,0,0,1-1.85,1.586,6.3,6.3,0,0,1-2.72.563,5.025,5.025,0,0,1-3.973-1.644,6.786,6.786,0,0,1-1.45-4.641v-.633a7.746,7.746,0,0,1,.655-3.292,4.961,4.961,0,0,1,1.885-2.18,5.26,5.26,0,0,1,2.848-.769,5.516,5.516,0,0,1,3.744,1.226,4.844,4.844,0,0,1,1.608,3.379H9.258a2.292,2.292,0,0,0-.589-1.679,2.422,2.422,0,0,0-1.687-.51A1.843,1.843,0,0,0,5.294,9.3a5.536,5.536,0,0,0-.562,2.751v.905a6.126,6.126,0,0,0,.514,2.927,1.882,1.882,0,0,0,1.771.879,2.369,2.369,0,0,0,1.626-.5,2.126,2.126,0,0,0,.6-1.591Zm8.728,1.942H16.808L16.07,19h-3.3L17.467,6.2h2.9L25.1,19H21.783Zm-3.489-2.382H20.3l-1.38-4.438ZM36.715,19H33.648l-4.535-7.963V19H26.028V6.2h3.085l4.526,7.963V6.2h3.076Zm12-10.415H44.872V19H41.787V8.585H38.016V6.2h10.7ZM53.3,19H50.224V6.2H53.3Zm2.145,0V6.2h4.122a6.064,6.064,0,0,1,3.05.769A5.406,5.406,0,0,1,64.73,9.143a6.554,6.554,0,0,1,.769,3.142v.589a6.592,6.592,0,0,1-.743,3.151,5.429,5.429,0,0,1-2.092,2.18,5.93,5.93,0,0,1-3.01.8ZM58.53,8.585v8.042H59.6a2.4,2.4,0,0,0,2.039-.945,4.63,4.63,0,0,0,.712-2.808V12.32a4.592,4.592,0,0,0-.712-2.795,2.442,2.442,0,0,0-2.074-.94Zm15.82,8.024H70.123L69.384,19h-3.3L70.782,6.2h2.9L78.411,19H75.1Zm-3.489-2.382h2.751l-1.38-4.438ZM79.342,19V6.2h4.122a6.064,6.064,0,0,1,3.05.769,5.406,5.406,0,0,1,2.114,2.171,6.554,6.554,0,0,1,.769,3.142v.589a6.592,6.592,0,0,1-.743,3.151,5.429,5.429,0,0,1-2.092,2.18,5.93,5.93,0,0,1-3.01.8ZM82.427,8.585v8.042H83.5a2.4,2.4,0,0,0,2.039-.945,4.63,4.63,0,0,0,.712-2.808V12.32a4.592,4.592,0,0,0-.712-2.795,2.442,2.442,0,0,0-2.074-.94Z" transform="translate(-893.593 7008)"/><path class="d" d="M12.308,14.667a4.673,4.673,0,0,1-.721,2.36,4.35,4.35,0,0,1-1.85,1.586,6.3,6.3,0,0,1-2.72.563,5.025,5.025,0,0,1-3.973-1.644,6.786,6.786,0,0,1-1.45-4.641v-.633a7.746,7.746,0,0,1,.655-3.292,4.961,4.961,0,0,1,1.885-2.18,5.26,5.26,0,0,1,2.848-.769,5.516,5.516,0,0,1,3.744,1.226,4.844,4.844,0,0,1,1.608,3.379H9.258a2.292,2.292,0,0,0-.589-1.679,2.422,2.422,0,0,0-1.687-.51A1.843,1.843,0,0,0,5.294,9.3a5.536,5.536,0,0,0-.562,2.751v.905a6.126,6.126,0,0,0,.514,2.927,1.882,1.882,0,0,0,1.771.879,2.369,2.369,0,0,0,1.626-.5,2.126,2.126,0,0,0,.6-1.591Zm8.728,1.942H16.808L16.07,19h-3.3L17.467,6.2h2.9L25.1,19H21.783Zm-3.489-2.382H20.3l-1.38-4.438ZM36.715,19H33.648l-4.535-7.963V19H26.028V6.2h3.085l4.526,7.963V6.2h3.076Zm12-10.415H44.872V19H41.787V8.585H38.016V6.2h10.7ZM53.3,19H50.224V6.2H53.3Zm2.145,0V6.2h4.122a6.064,6.064,0,0,1,3.05.769A5.406,5.406,0,0,1,64.73,9.143a6.554,6.554,0,0,1,.769,3.142v.589a6.592,6.592,0,0,1-.743,3.151,5.429,5.429,0,0,1-2.092,2.18,5.93,5.93,0,0,1-3.01.8ZM58.53,8.585v8.042H59.6a2.4,2.4,0,0,0,2.039-.945,4.63,4.63,0,0,0,.712-2.808V12.32a4.592,4.592,0,0,0-.712-2.795,2.442,2.442,0,0,0-2.074-.94Zm15.82,8.024H70.123L69.384,19h-3.3L70.782,6.2h2.9L78.411,19H75.1Zm-3.489-2.382h2.751l-1.38-4.438ZM79.342,19V6.2h4.122a6.064,6.064,0,0,1,3.05.769,5.406,5.406,0,0,1,2.114,2.171,6.554,6.554,0,0,1,.769,3.142v.589a6.592,6.592,0,0,1-.743,3.151,5.429,5.429,0,0,1-2.092,2.18,5.93,5.93,0,0,1-3.01.8ZM82.427,8.585v8.042H83.5a2.4,2.4,0,0,0,2.039-.945,4.63,4.63,0,0,0,.712-2.808V12.32a4.592,4.592,0,0,0-.712-2.795,2.442,2.442,0,0,0-2.074-.94ZM14.022,25.2l2.856,8.9,2.848-8.9h4.061V38H20.693V35.012l.3-6.117L17.9,38H15.859l-3.1-9.114.3,6.126V38H9.97V25.2ZM33.015,35.609H28.788L28.049,38h-3.3l4.693-12.8h2.9L37.076,38H33.762Zm-3.489-2.382h2.751L30.9,28.789ZM31.3,21.775H34.43l-2.443,2.76H29.57ZM42.78,29.457,44.872,25.2H48.4l-3.577,6.346L48.493,38h-3.56L42.78,33.667,40.626,38H37.076l3.665-6.451L37.172,25.2h3.516Zm10,8.543H49.706V25.2h3.076Zm6.2-12.8,2.856,8.9,2.848-8.9h4.061V38H65.649V35.012l.3-6.117L62.854,38H60.815l-3.1-9.114.3,6.126V38H54.926V25.2ZM77.971,35.609H73.744L73.005,38h-3.3L74.4,25.2h2.9L82.032,38H78.718Zm-3.489-2.382h2.751l-1.38-4.438Z" transform="translate(-509.199 6641)"/><path class="d" d="M34.5,15.52,37.053,6.2H40.5L36.192,19H32.817L28.545,6.2h3.419Zm13.535,1.09H43.812L43.074,19h-3.3L44.471,6.2h2.9L52.1,19H48.787ZM44.55,14.228H47.3l-1.38-4.438Zm11.566,2.4h5.37V19H53.032V6.2h3.085Zm16.945-3.762a7.546,7.546,0,0,1-.694,3.313A5.132,5.132,0,0,1,70.395,18.4a5.494,5.494,0,0,1-2.914.778,5.572,5.572,0,0,1-2.9-.751,5.123,5.123,0,0,1-1.973-2.149,7.329,7.329,0,0,1-.743-3.208v-.721a7.58,7.58,0,0,1,.69-3.318A5.119,5.119,0,0,1,64.532,6.81,5.854,5.854,0,0,1,70.364,6.8,5.211,5.211,0,0,1,72.346,9a7.362,7.362,0,0,1,.716,3.274Zm-3.138-.536a5.381,5.381,0,0,0-.637-2.9,2.044,2.044,0,0,0-1.824-.989q-2.32,0-2.452,3.48l-.009.94a5.535,5.535,0,0,0,.624,2.892,2.041,2.041,0,0,0,1.854,1.011,2.016,2.016,0,0,0,1.8-.993,5.383,5.383,0,0,0,.642-2.856Zm9.483,2.153h-1.67V19H74.653V6.2h5.036a5.617,5.617,0,0,1,3.56,1.011,3.426,3.426,0,0,1,1.283,2.856,4.163,4.163,0,0,1-.541,2.215A3.837,3.837,0,0,1,82.3,13.709l2.672,5.159V19h-3.3ZM77.738,12.1h1.951a1.754,1.754,0,0,0,1.323-.461,1.781,1.781,0,0,0,.444-1.288,1.8,1.8,0,0,0-.448-1.3,1.737,1.737,0,0,0-1.318-.47H77.738ZM12.954,25.2v8.376a4.814,4.814,0,0,1-.606,2.465,3.929,3.929,0,0,1-1.74,1.586,6.131,6.131,0,0,1-2.681.545,5.3,5.3,0,0,1-3.683-1.213,4.326,4.326,0,0,1-1.371-3.322V25.2h3.1v8.5q.053,2.1,1.951,2.1a1.889,1.889,0,0,0,1.45-.527,2.465,2.465,0,0,0,.492-1.714V25.2ZM25.566,38H22.5l-4.535-7.963V38H14.878V25.2h3.085l4.526,7.963V25.2h3.076ZM30.8,38H27.728V25.2H30.8Zm12.19-10.415H39.154V38H36.069V27.585H32.3V25.2h10.7Zm7.515,8.024H46.282L45.543,38h-3.3l4.693-12.8h2.9L54.57,38H51.256ZM47.02,33.228h2.751l-1.38-4.438Zm13.236.255h-1.67V38H55.5V25.2h5.036a5.617,5.617,0,0,1,3.56,1.011A3.426,3.426,0,0,1,65.38,29.07a4.163,4.163,0,0,1-.541,2.215,3.837,3.837,0,0,1-1.692,1.424l2.672,5.159V38h-3.3ZM58.586,31.1h1.951a1.754,1.754,0,0,0,1.323-.461,1.781,1.781,0,0,0,.444-1.288,1.8,1.8,0,0,0-.448-1.3,1.737,1.737,0,0,0-1.318-.47H58.586ZM70.531,38H67.455V25.2h3.076Zm12.981-6.135a7.546,7.546,0,0,1-.694,3.313A5.132,5.132,0,0,1,80.845,37.4a5.494,5.494,0,0,1-2.914.778,5.572,5.572,0,0,1-2.9-.751,5.123,5.123,0,0,1-1.973-2.149,7.329,7.329,0,0,1-.743-3.208v-.721A7.58,7.58,0,0,1,73,28.029a5.119,5.119,0,0,1,1.978-2.219,5.854,5.854,0,0,1,5.832-.009A5.211,5.211,0,0,1,82.8,28a7.362,7.362,0,0,1,.716,3.274Zm-3.138-.536a5.381,5.381,0,0,0-.637-2.9,2.044,2.044,0,0,0-1.824-.989q-2.32,0-2.452,3.48l-.009.94a5.535,5.535,0,0,0,.624,2.892,2.041,2.041,0,0,0,1.854,1.011,2.016,2.016,0,0,0,1.8-.993,5.383,5.383,0,0,0,.642-2.856Zm12.3,2.329V38H89.585V25.2h5.106a5.948,5.948,0,0,1,2.6.541,4.074,4.074,0,0,1,1.749,1.538,4.2,4.2,0,0,1,.62,2.263,3.7,3.7,0,0,1-1.34,2.993,5.561,5.561,0,0,1-3.678,1.121Zm0-2.382h2.021a1.906,1.906,0,0,0,1.367-.448,1.665,1.665,0,0,0,.47-1.266,2.059,2.059,0,0,0-.483-1.433,1.712,1.712,0,0,0-1.318-.545H92.67Zm11.716,2.382V38H101.3V25.2h5.106a5.948,5.948,0,0,1,2.6.541,4.074,4.074,0,0,1,1.749,1.538,4.2,4.2,0,0,1,.62,2.263,3.7,3.7,0,0,1-1.34,2.993,5.561,5.561,0,0,1-3.678,1.121Zm0-2.382h2.021a1.906,1.906,0,0,0,1.367-.448,1.665,1.665,0,0,0,.47-1.266,2.059,2.059,0,0,0-.483-1.433,1.712,1.712,0,0,0-1.318-.545h-2.057Z" transform="translate(-512.709 6998)"/><path class="d" d="M35.178,12.742,35.96,6.2H43.44v2.3H38.369l-.29,2.54a3.5,3.5,0,0,1,.831-.325,3.805,3.805,0,0,1,1.006-.141,3.754,3.754,0,0,1,2.931,1.129,4.549,4.549,0,0,1,1.024,3.168,4.541,4.541,0,0,1-.549,2.228,3.776,3.776,0,0,1-1.542,1.534,4.87,4.87,0,0,1-2.347.536,5.236,5.236,0,0,1-2.259-.5,4.053,4.053,0,0,1-1.652-1.362,3.312,3.312,0,0,1-.589-1.956H37.9a1.685,1.685,0,0,0,.448,1.116,1.421,1.421,0,0,0,1.063.413q1.494,0,1.494-2.215,0-2.048-1.828-2.048a1.823,1.823,0,0,0-1.547.668Zm19.134,1.028a6.11,6.11,0,0,1-1.165,4,4.551,4.551,0,0,1-6.587-.009,6.1,6.1,0,0,1-1.169-3.99V11.433a6.11,6.11,0,0,1,1.165-4,4.551,4.551,0,0,1,6.587.009,6.116,6.116,0,0,1,1.169,4ZM51.35,11.055a4.564,4.564,0,0,0-.36-2.061,1.2,1.2,0,0,0-1.143-.681,1.176,1.176,0,0,0-1.112.633,4.3,4.3,0,0,0-.374,1.916v3.27a4.6,4.6,0,0,0,.36,2.1,1.209,1.209,0,0,0,1.143.664,1.193,1.193,0,0,0,1.116-.646,4.39,4.39,0,0,0,.369-2.026Zm6.381,5.071a1.686,1.686,0,0,1,1.169.417,1.457,1.457,0,0,1,0,2.136,1.844,1.844,0,0,1-2.342,0,1.456,1.456,0,0,1,0-2.127A1.672,1.672,0,0,1,57.731,16.126Zm12.445-2.355a6.11,6.11,0,0,1-1.165,4,4.551,4.551,0,0,1-6.587-.009,6.1,6.1,0,0,1-1.169-3.99V11.433a6.11,6.11,0,0,1,1.165-4,4.551,4.551,0,0,1,6.587.009,6.116,6.116,0,0,1,1.169,4Zm-2.962-2.716a4.564,4.564,0,0,0-.36-2.061,1.2,1.2,0,0,0-1.143-.681,1.176,1.176,0,0,0-1.112.633,4.3,4.3,0,0,0-.374,1.916v3.27a4.6,4.6,0,0,0,.36,2.1,1.209,1.209,0,0,0,1.143.664,1.193,1.193,0,0,0,1.116-.646,4.39,4.39,0,0,0,.369-2.026ZM80.6,13.771a6.11,6.11,0,0,1-1.165,4,4.551,4.551,0,0,1-6.587-.009,6.1,6.1,0,0,1-1.169-3.99V11.433a6.11,6.11,0,0,1,1.165-4,4.551,4.551,0,0,1,6.587.009,6.116,6.116,0,0,1,1.169,4Zm-2.962-2.716a4.564,4.564,0,0,0-.36-2.061,1.2,1.2,0,0,0-1.143-.681,1.176,1.176,0,0,0-1.112.633,4.3,4.3,0,0,0-.374,1.916v3.27a4.6,4.6,0,0,0,.36,2.1,1.209,1.209,0,0,0,1.143.664,1.193,1.193,0,0,0,1.116-.646,4.39,4.39,0,0,0,.369-2.026Zm13.386,2.716a6.11,6.11,0,0,1-1.165,4,4.551,4.551,0,0,1-6.587-.009,6.1,6.1,0,0,1-1.169-3.99V11.433a6.11,6.11,0,0,1,1.165-4,4.551,4.551,0,0,1,6.587.009,6.116,6.116,0,0,1,1.169,4Zm-2.962-2.716a4.564,4.564,0,0,0-.36-2.061,1.2,1.2,0,0,0-1.143-.681,1.176,1.176,0,0,0-1.112.633,4.3,4.3,0,0,0-.374,1.916v3.27a4.6,4.6,0,0,0,.36,2.1,1.209,1.209,0,0,0,1.143.664,1.193,1.193,0,0,0,1.116-.646,4.39,4.39,0,0,0,.369-2.026Z" transform="translate(-384.318 6653)"/><path class="d" d="M10.982,15.52,13.531,6.2h3.445L12.669,19H9.294L5.023,6.2H8.442Zm13.535,1.09H20.29L19.551,19h-3.3L20.949,6.2h2.9L28.578,19H25.264Zm-3.489-2.382h2.751L22.4,9.789Zm11.566,2.4h5.37V19H29.509V6.2h3.085ZM49.54,12.865a7.546,7.546,0,0,1-.694,3.313A5.132,5.132,0,0,1,46.872,18.4a5.494,5.494,0,0,1-2.914.778,5.572,5.572,0,0,1-2.9-.751,5.123,5.123,0,0,1-1.973-2.149,7.329,7.329,0,0,1-.743-3.208v-.721a7.58,7.58,0,0,1,.69-3.318A5.119,5.119,0,0,1,41.01,6.81,5.854,5.854,0,0,1,46.841,6.8,5.211,5.211,0,0,1,48.823,9a7.362,7.362,0,0,1,.716,3.274ZM46.4,12.329a5.381,5.381,0,0,0-.637-2.9,2.044,2.044,0,0,0-1.824-.989q-2.32,0-2.452,3.48l-.009.94a5.535,5.535,0,0,0,.624,2.892,2.041,2.041,0,0,0,1.854,1.011,2.016,2.016,0,0,0,1.8-.993,5.383,5.383,0,0,0,.642-2.856Zm9.483,2.153h-1.67V19H51.13V6.2h5.036a5.617,5.617,0,0,1,3.56,1.011,3.426,3.426,0,0,1,1.283,2.856,4.163,4.163,0,0,1-.541,2.215,3.837,3.837,0,0,1-1.692,1.424l2.672,5.159V19h-3.3ZM54.215,12.1h1.951a1.754,1.754,0,0,0,1.323-.461,1.781,1.781,0,0,0,.444-1.288,1.8,1.8,0,0,0-.448-1.3,1.737,1.737,0,0,0-1.318-.47H54.215ZM76.874,8.585H73.033V19H69.948V8.585H66.177V6.2h10.7Zm11.892,4.28a7.546,7.546,0,0,1-.694,3.313A5.132,5.132,0,0,1,86.1,18.4a5.494,5.494,0,0,1-2.914.778,5.572,5.572,0,0,1-2.9-.751,5.123,5.123,0,0,1-1.973-2.149,7.329,7.329,0,0,1-.743-3.208v-.721a7.58,7.58,0,0,1,.69-3.318A5.119,5.119,0,0,1,80.235,6.81,5.854,5.854,0,0,1,86.067,6.8,5.211,5.211,0,0,1,88.049,9a7.362,7.362,0,0,1,.716,3.274Zm-3.138-.536a5.381,5.381,0,0,0-.637-2.9,2.044,2.044,0,0,0-1.824-.989q-2.32,0-2.452,3.48l-.009.94a5.535,5.535,0,0,0,.624,2.892,2.041,2.041,0,0,0,1.854,1.011,2.016,2.016,0,0,0,1.8-.993,5.383,5.383,0,0,0,.642-2.856ZM99.655,8.585H95.814V19H92.729V8.585H88.958V6.2h10.7Zm7.515,8.024h-4.228L102.2,19h-3.3L103.6,6.2h2.9L111.23,19h-3.313Zm-3.489-2.382h2.751l-1.38-4.438Zm11.566,2.4h5.37V19h-8.455V6.2h3.085Z" transform="translate(-384.318 7008)"/><path class="d" d="M40.537,14h1.3v2.285h-1.3V19H37.575V16.284H32.626l-.176-1.811,5.124-8.244V6.2h2.962Zm-5.265,0h2.3V10.062l-.185.3Zm9.747,2.127a1.686,1.686,0,0,1,1.169.417,1.457,1.457,0,0,1,0,2.136,1.844,1.844,0,0,1-2.342,0,1.456,1.456,0,0,1,0-2.127A1.672,1.672,0,0,1,45.019,16.126Zm12.445-2.355a6.11,6.11,0,0,1-1.165,4,4.551,4.551,0,0,1-6.587-.009,6.1,6.1,0,0,1-1.169-3.99V11.433a6.11,6.11,0,0,1,1.165-4,4.551,4.551,0,0,1,6.587.009,6.116,6.116,0,0,1,1.169,4ZM54.5,11.055a4.564,4.564,0,0,0-.36-2.061A1.2,1.2,0,0,0,53,8.313a1.176,1.176,0,0,0-1.112.633,4.3,4.3,0,0,0-.374,1.916v3.27a4.6,4.6,0,0,0,.36,2.1,1.209,1.209,0,0,0,1.143.664,1.193,1.193,0,0,0,1.116-.646,4.39,4.39,0,0,0,.369-2.026Zm13.386,2.716a6.11,6.11,0,0,1-1.165,4,4.551,4.551,0,0,1-6.587-.009,6.1,6.1,0,0,1-1.169-3.99V11.433a6.11,6.11,0,0,1,1.165-4,4.551,4.551,0,0,1,6.587.009,6.116,6.116,0,0,1,1.169,4Zm-2.962-2.716a4.564,4.564,0,0,0-.36-2.061,1.2,1.2,0,0,0-1.143-.681,1.176,1.176,0,0,0-1.112.633,4.3,4.3,0,0,0-.374,1.916v3.27a4.6,4.6,0,0,0,.36,2.1,1.209,1.209,0,0,0,1.143.664,1.193,1.193,0,0,0,1.116-.646,4.39,4.39,0,0,0,.369-2.026Zm13.386,2.716a6.11,6.11,0,0,1-1.165,4,4.551,4.551,0,0,1-6.587-.009,6.1,6.1,0,0,1-1.169-3.99V11.433a6.11,6.11,0,0,1,1.165-4,4.551,4.551,0,0,1,6.587.009,6.116,6.116,0,0,1,1.169,4ZM75.35,11.055a4.564,4.564,0,0,0-.36-2.061,1.2,1.2,0,0,0-1.143-.681,1.176,1.176,0,0,0-1.112.633,4.3,4.3,0,0,0-.374,1.916v3.27a4.6,4.6,0,0,0,.36,2.1,1.209,1.209,0,0,0,1.143.664,1.193,1.193,0,0,0,1.116-.646,4.39,4.39,0,0,0,.369-2.026Z" transform="translate(-659.199 6653)"/><path class="d" d="M34.393,15.6a1.268,1.268,0,0,0-.479-1.055,5.954,5.954,0,0,0-1.683-.782,16.147,16.147,0,0,1-1.969-.782q-2.487-1.222-2.487-3.357a3.011,3.011,0,0,1,.62-1.876A4.008,4.008,0,0,1,30.148,6.48,6.823,6.823,0,0,1,32.7,6.027a5.969,5.969,0,0,1,2.474.492,3.917,3.917,0,0,1,1.7,1.4A3.661,3.661,0,0,1,37.478,10H34.4a1.547,1.547,0,0,0-.479-1.213,1.867,1.867,0,0,0-1.3-.431,2.106,2.106,0,0,0-1.305.365,1.074,1.074,0,0,0,.048,1.819,6.65,6.65,0,0,0,1.854.826,11.36,11.36,0,0,1,2.18.918,3.663,3.663,0,0,1,2.074,3.3,3.125,3.125,0,0,1-1.266,2.637,5.629,5.629,0,0,1-3.472.958,6.888,6.888,0,0,1-2.817-.558,4.247,4.247,0,0,1-1.9-1.529,3.985,3.985,0,0,1-.637-2.237h3.094a1.963,1.963,0,0,0,.532,1.516,2.513,2.513,0,0,0,1.727.488,1.985,1.985,0,0,0,1.208-.33A1.088,1.088,0,0,0,34.393,15.6Zm11.936,1.011H42.1L41.363,19h-3.3L42.76,6.2h2.9L50.389,19H47.076Zm-3.489-2.382H45.59L44.21,9.789Zm11.566,2.4h5.37V19H51.321V6.2h3.085ZM61.077,19V6.2H65.2a6.064,6.064,0,0,1,3.05.769,5.406,5.406,0,0,1,2.114,2.171,6.554,6.554,0,0,1,.769,3.142v.589a6.592,6.592,0,0,1-.743,3.151A5.429,5.429,0,0,1,68.3,18.2a5.93,5.93,0,0,1-3.01.8ZM64.162,8.585v8.042h1.072a2.4,2.4,0,0,0,2.039-.945,4.63,4.63,0,0,0,.712-2.808V12.32a4.592,4.592,0,0,0-.712-2.795,2.442,2.442,0,0,0-2.074-.94Zm19.389,4.28a7.546,7.546,0,0,1-.694,3.313A5.132,5.132,0,0,1,80.883,18.4a5.494,5.494,0,0,1-2.914.778,5.572,5.572,0,0,1-2.9-.751A5.123,5.123,0,0,1,73.1,16.275a7.329,7.329,0,0,1-.743-3.208v-.721a7.58,7.58,0,0,1,.69-3.318A5.119,5.119,0,0,1,75.021,6.81,5.854,5.854,0,0,1,80.852,6.8,5.211,5.211,0,0,1,82.834,9a7.362,7.362,0,0,1,.716,3.274Zm-3.138-.536a5.381,5.381,0,0,0-.637-2.9,2.044,2.044,0,0,0-1.824-.989q-2.32,0-2.452,3.48l-.009.94a5.535,5.535,0,0,0,.624,2.892,2.041,2.041,0,0,0,1.854,1.011,2.016,2.016,0,0,0,1.8-.993,5.383,5.383,0,0,0,.642-2.856Z" transform="translate(-439.736 6948.48)"/><path class="d" d="M22.308,14.667a4.673,4.673,0,0,1-.721,2.36,4.35,4.35,0,0,1-1.85,1.586,6.3,6.3,0,0,1-2.72.563,5.025,5.025,0,0,1-3.973-1.644,6.786,6.786,0,0,1-1.45-4.641v-.633a7.746,7.746,0,0,1,.655-3.292,4.961,4.961,0,0,1,1.885-2.18,5.26,5.26,0,0,1,2.848-.769,5.516,5.516,0,0,1,3.744,1.226,4.844,4.844,0,0,1,1.608,3.379H19.258a2.292,2.292,0,0,0-.589-1.679,2.422,2.422,0,0,0-1.687-.51,1.843,1.843,0,0,0-1.687.861,5.536,5.536,0,0,0-.562,2.751v.905a6.126,6.126,0,0,0,.514,2.927,1.882,1.882,0,0,0,1.771.879,2.369,2.369,0,0,0,1.626-.5,2.126,2.126,0,0,0,.6-1.591Zm8.728,1.942H26.808L26.07,19h-3.3L27.467,6.2h2.9L35.1,19H31.783Zm-3.489-2.382H30.3l-1.38-4.438ZM46.715,19H43.648l-4.535-7.963V19H36.028V6.2h3.085l4.526,7.963V6.2h3.076Zm12-10.415H54.872V19H51.787V8.585H48.016V6.2h10.7ZM63.3,19H60.224V6.2H63.3Zm2.145,0V6.2h4.122a6.064,6.064,0,0,1,3.05.769A5.406,5.406,0,0,1,74.73,9.143a6.554,6.554,0,0,1,.769,3.142v.589a6.592,6.592,0,0,1-.743,3.151,5.429,5.429,0,0,1-2.092,2.18,5.93,5.93,0,0,1-3.01.8ZM68.53,8.585v8.042H69.6a2.4,2.4,0,0,0,2.039-.945,4.63,4.63,0,0,0,.712-2.808V12.32a4.592,4.592,0,0,0-.712-2.795,2.442,2.442,0,0,0-2.074-.94Zm15.82,8.024H80.123L79.384,19h-3.3L80.782,6.2h2.9L88.411,19H85.1Zm-3.489-2.382h2.751l-1.38-4.438ZM89.342,19V6.2h4.122a6.064,6.064,0,0,1,3.05.769,5.406,5.406,0,0,1,2.114,2.171,6.554,6.554,0,0,1,.769,3.142v.589a6.592,6.592,0,0,1-.743,3.151,5.429,5.429,0,0,1-2.092,2.18,5.93,5.93,0,0,1-3.01.8ZM92.427,8.585v8.042H93.5a2.4,2.4,0,0,0,2.039-.945,4.63,4.63,0,0,0,.712-2.808V12.32a4.592,4.592,0,0,0-.712-2.795,2.442,2.442,0,0,0-2.074-.94Z" transform="translate(-659.499 7008)"/><path class="e" d="M0,0V240.179" transform="translate(-1310.665 6699.258)"/><path class="e" d="M0,0V156.1" transform="translate(-1179.763 6783.275)"/><path class="e" d="M0,0V236.006" transform="translate(-1047.905 6703.076)"/><path class="e" d="M0,0V236.357" transform="translate(-916.048 6703.076)"/><path class="e" d="M0,0V236.357" transform="translate(-784.19 6703.076)"/><path class="e" d="M0,0V236.357" transform="translate(-653.288 6703.076)"/><path class="e" d="M0,0V236.357" transform="translate(-521.43 6703.076)"/><path class="e" d="M0,0V236.357" transform="translate(-389.573 6703.076)"/><path class="e" d="M0,0V289.558" transform="translate(-1310.665 6988.964)"/><path class="e" d="M0,0V285.441" transform="translate(-1442.522 6988.964)"/><path class="e" d="M0,0V290.036" transform="translate(-1179.763 6988.964)"/><path class="e" d="M0,0V285.385" transform="translate(-1047.905 6988.964)"/><path class="e" d="M0,0V290.036" transform="translate(-916.047 6988.964)"/><path class="e" d="M0,0V290.036" transform="translate(-784.19 6988.964)"/><path class="e" d="M0,0V285.736" transform="translate(-653.288 6988.964)"/><path class="e" d="M0,0V285.736" transform="translate(-521.43 6988.964)"/><path class="e" d="M0,0V285.736" transform="translate(-389.573 6988.964)"/><path class="e" d="M0,0V236.357" transform="translate(-257.715 6988.964)"/><path class="e" d="M0,0V57.329" transform="translate(-810.497 6569.195)"/><path class="f" d="M0,0H1184.807V57.971H0Z" transform="translate(-1443 6569)"/><path class="d" d="M5.317,14.236,4.052,15.625V19H.967V6.2H4.052v5.643L5.124,10.22,7.884,6.2H11.7l-4.324,5.66L11.7,19H8.042Zm14.432,2.373H15.521L14.783,19h-3.3L16.181,6.2h2.9L23.81,19H20.5ZM16.26,14.228h2.751l-1.38-4.438Zm13.236.255h-1.67V19H24.741V6.2h5.036a5.617,5.617,0,0,1,3.56,1.011A3.426,3.426,0,0,1,34.62,10.07a4.163,4.163,0,0,1-.541,2.215,3.837,3.837,0,0,1-1.692,1.424l2.672,5.159V19h-3.3ZM27.826,12.1h1.951a1.754,1.754,0,0,0,1.323-.461,1.781,1.781,0,0,0,.444-1.288,1.8,1.8,0,0,0-.448-1.3,1.737,1.737,0,0,0-1.318-.47H27.826ZM36.483,19V6.2h4.122a6.064,6.064,0,0,1,3.05.769,5.406,5.406,0,0,1,2.114,2.171,6.554,6.554,0,0,1,.769,3.142v.589a6.592,6.592,0,0,1-.743,3.151A5.429,5.429,0,0,1,43.7,18.2a5.93,5.93,0,0,1-3.01.8ZM39.568,8.585v8.042h1.072a2.4,2.4,0,0,0,2.039-.945,4.63,4.63,0,0,0,.712-2.808V12.32a4.592,4.592,0,0,0-.712-2.795,2.442,2.442,0,0,0-2.074-.94Zm16.488,4.992H51.205v3.05h5.73V19H48.12V6.2h8.833V8.585H51.205v2.7h4.852Zm6.908-3.12L65.057,6.2h3.524L65,12.549,68.678,19h-3.56l-2.153-4.333L60.812,19H57.261l3.665-6.451L57.357,6.2h3.516Z" transform="translate(-1424.846 6587.8)"/><path class="g" d="M2.82,12.547V17H1.32V5.625h4.2a4.215,4.215,0,0,1,2.926.953A3.231,3.231,0,0,1,9.5,9.1a3.189,3.189,0,0,1-1.035,2.551,4.4,4.4,0,0,1-2.965.895Zm0-1.227h2.7a2.7,2.7,0,0,0,1.844-.566A2.069,2.069,0,0,0,8,9.117a2.138,2.138,0,0,0-.641-1.625A2.528,2.528,0,0,0,5.6,6.859H2.82ZM15.586,12.4H12.914V17H11.406V5.625h3.766a4.457,4.457,0,0,1,2.957.875,3.148,3.148,0,0,1,1.035,2.547A3.062,3.062,0,0,1,18.59,10.9a3.428,3.428,0,0,1-1.6,1.18l2.672,4.828V17H18.055Zm-2.672-1.227h2.3A2.6,2.6,0,0,0,17,10.594a1.953,1.953,0,0,0,.66-1.547,2.057,2.057,0,0,0-.629-1.617,2.666,2.666,0,0,0-1.816-.57h-2.3Zm17.1.508a7.037,7.037,0,0,1-.562,2.918,4.261,4.261,0,0,1-1.594,1.9,4.4,4.4,0,0,1-6.4-1.887,6.752,6.752,0,0,1-.59-2.832v-.82a6.953,6.953,0,0,1,.57-2.9,4.218,4.218,0,0,1,4-2.594,4.41,4.41,0,0,1,2.41.66,4.253,4.253,0,0,1,1.605,1.914,7.071,7.071,0,0,1,.563,2.918Zm-1.492-.734a5.1,5.1,0,0,0-.812-3.105,2.68,2.68,0,0,0-2.273-1.082A2.651,2.651,0,0,0,23.2,7.84a5,5,0,0,0-.84,3v.836a5.107,5.107,0,0,0,.824,3.082,2.888,2.888,0,0,0,4.52.063,5.079,5.079,0,0,0,.82-3.035Zm7.336,4.063,3.25-9.383H40.75L36.531,17H35.2L30.992,5.625h1.633ZM48.7,11.742h-4.93v4.031H49.5V17H42.273V5.625h7.148V6.859H43.773v3.656H48.7Zm9.094,0h-4.93v4.031h5.727V17H51.367V5.625h7.148V6.859H52.867v3.656H57.8ZM60.461,17V5.625h3.211a5.169,5.169,0,0,1,2.625.656,4.438,4.438,0,0,1,1.762,1.867,6.078,6.078,0,0,1,.629,2.781v.727a6.1,6.1,0,0,1-.621,2.82,4.369,4.369,0,0,1-1.773,1.859A5.5,5.5,0,0,1,63.609,17Zm1.5-10.141v8.914h1.578a3.435,3.435,0,0,0,2.7-1.078,4.452,4.452,0,0,0,.965-3.07v-.664a4.522,4.522,0,0,0-.91-3.012,3.24,3.24,0,0,0-2.582-1.09ZM79.7,11.68a7.037,7.037,0,0,1-.562,2.918,4.261,4.261,0,0,1-1.594,1.9,4.4,4.4,0,0,1-6.4-1.887,6.752,6.752,0,0,1-.59-2.832v-.82a6.953,6.953,0,0,1,.57-2.9,4.218,4.218,0,0,1,4-2.594,4.41,4.41,0,0,1,2.41.66,4.253,4.253,0,0,1,1.605,1.914,7.071,7.071,0,0,1,.563,2.918Zm-1.492-.734A5.1,5.1,0,0,0,77.4,7.84a2.68,2.68,0,0,0-2.273-1.082A2.651,2.651,0,0,0,72.887,7.84a5,5,0,0,0-.84,3v.836a5.107,5.107,0,0,0,.824,3.082,2.888,2.888,0,0,0,4.52.063,5.079,5.079,0,0,0,.82-3.035ZM86.125,12.4H83.453V17H81.945V5.625h3.766a4.457,4.457,0,0,1,2.957.875A3.148,3.148,0,0,1,89.7,9.047a3.062,3.062,0,0,1-.574,1.852,3.428,3.428,0,0,1-1.6,1.18L90.2,16.906V17H88.594Zm-2.672-1.227h2.3a2.6,2.6,0,0,0,1.777-.578,1.953,1.953,0,0,0,.66-1.547,2.057,2.057,0,0,0-.629-1.617,2.666,2.666,0,0,0-1.816-.57h-2.3Zm14.781.57H93.3v4.031h5.727V17H91.8V5.625h7.148V6.859H93.3v3.656h4.93Zm6.016.188a7.053,7.053,0,0,1-2.809-1.363,2.6,2.6,0,0,1-.879-2,2.751,2.751,0,0,1,1.074-2.223,4.269,4.269,0,0,1,2.793-.879,4.66,4.66,0,0,1,2.09.453,3.436,3.436,0,0,1,1.422,1.25,3.2,3.2,0,0,1,.5,1.742h-1.508a2.069,2.069,0,0,0-.656-1.621,2.675,2.675,0,0,0-1.852-.59,2.736,2.736,0,0,0-1.73.488,1.628,1.628,0,0,0-.621,1.355,1.465,1.465,0,0,0,.59,1.176,5.79,5.79,0,0,0,2.008.879,9.3,9.3,0,0,1,2.219.879,3.367,3.367,0,0,1,1.188,1.121,2.861,2.861,0,0,1,.387,1.508,2.658,2.658,0,0,1-1.078,2.215,4.6,4.6,0,0,1-2.883.832,5.347,5.347,0,0,1-2.187-.449,3.681,3.681,0,0,1-1.566-1.23A3,3,0,0,1,100.2,13.7h1.508a1.959,1.959,0,0,0,.762,1.629,3.207,3.207,0,0,0,2.035.6,2.948,2.948,0,0,0,1.82-.484,1.573,1.573,0,0,0,.633-1.32,1.545,1.545,0,0,0-.586-1.293A6.755,6.755,0,0,0,104.25,11.93Z" transform="translate(-1434.199 6735.256)"/><path class="g" d="M9.328,5.625v7.734a3.628,3.628,0,0,1-1.012,2.633,4.077,4.077,0,0,1-2.723,1.148l-.4.016a4.258,4.258,0,0,1-2.977-1.008,3.6,3.6,0,0,1-1.125-2.773V5.625H2.578v7.7a2.6,2.6,0,0,0,.68,1.918A2.612,2.612,0,0,0,5.2,15.93a2.63,2.63,0,0,0,1.949-.68,2.6,2.6,0,0,0,.676-1.914V5.625ZM20.438,17H18.93L13.2,8.234V17H11.7V5.625H13.2l5.742,8.8v-8.8h1.492Zm4.273,0h-1.5V5.625h1.5Zm2.742,0V5.625h3.211a5.169,5.169,0,0,1,2.625.656,4.438,4.438,0,0,1,1.762,1.867,6.078,6.078,0,0,1,.629,2.781v.727a6.1,6.1,0,0,1-.621,2.82,4.369,4.369,0,0,1-1.773,1.859A5.5,5.5,0,0,1,30.6,17Zm1.5-10.141v8.914h1.578a3.435,3.435,0,0,0,2.7-1.078,4.452,4.452,0,0,0,.965-3.07v-.664a4.522,4.522,0,0,0-.91-3.012A3.24,3.24,0,0,0,30.7,6.859Zm15.273,7.172H39.461L38.391,17H36.844L41.188,5.625H42.5L46.852,17H45.313ZM39.914,12.8h3.867l-1.937-5.32ZM48.383,17V5.625h3.211a5.169,5.169,0,0,1,2.625.656A4.438,4.438,0,0,1,55.98,8.148a6.078,6.078,0,0,1,.629,2.781v.727a6.1,6.1,0,0,1-.621,2.82,4.369,4.369,0,0,1-1.773,1.859A5.5,5.5,0,0,1,51.531,17Zm1.5-10.141v8.914h1.578a3.435,3.435,0,0,0,2.7-1.078,4.452,4.452,0,0,0,.965-3.07v-.664a4.522,4.522,0,0,0-.91-3.012,3.24,3.24,0,0,0-2.582-1.09Z" transform="translate(-512.199 6735.256)"/><path class="g" d="M9.719,15.508a3.465,3.465,0,0,1-1.613,1.238,6.517,6.517,0,0,1-2.41.41A4.674,4.674,0,0,1,3.227,16.5a4.346,4.346,0,0,1-1.668-1.855,6.408,6.408,0,0,1-.605-2.789v-.992a5.982,5.982,0,0,1,1.2-3.984A4.179,4.179,0,0,1,5.523,5.469a4.316,4.316,0,0,1,2.867.91A3.965,3.965,0,0,1,9.719,8.961h-1.5A2.478,2.478,0,0,0,5.531,6.7,2.656,2.656,0,0,0,3.246,7.762a5.165,5.165,0,0,0-.785,3.066v.93A4.841,4.841,0,0,0,3.336,14.8,2.837,2.837,0,0,0,5.7,15.93a5.217,5.217,0,0,0,1.477-.187,2.282,2.282,0,0,0,1.047-.633V12.555H5.594V11.336H9.719ZM16.391,12.4H13.719V17H12.211V5.625h3.766a4.457,4.457,0,0,1,2.957.875,3.148,3.148,0,0,1,1.035,2.547,3.062,3.062,0,0,1-.574,1.852,3.428,3.428,0,0,1-1.6,1.18l2.672,4.828V17H18.859Zm-2.672-1.227h2.3a2.6,2.6,0,0,0,1.777-.578,1.953,1.953,0,0,0,.66-1.547,2.057,2.057,0,0,0-.629-1.617,2.666,2.666,0,0,0-1.816-.57h-2.3Zm14.633,2.859H23.586L22.516,17H20.969L25.313,5.625h1.313L30.977,17H29.438ZM24.039,12.8h3.867l-1.937-5.32ZM34.445,5.625l3.719,9.281,3.719-9.281h1.945V17h-1.5V12.57l.141-4.781L38.734,17H37.586L33.859,7.813l.148,4.758V17h-1.5V5.625ZM55.227,11.68a7.037,7.037,0,0,1-.562,2.918,4.261,4.261,0,0,1-1.594,1.9,4.4,4.4,0,0,1-6.4-1.887,6.752,6.752,0,0,1-.59-2.832v-.82a6.953,6.953,0,0,1,.57-2.9,4.218,4.218,0,0,1,4-2.594,4.41,4.41,0,0,1,2.41.66,4.253,4.253,0,0,1,1.605,1.914,7.071,7.071,0,0,1,.563,2.918Zm-1.492-.734a5.1,5.1,0,0,0-.812-3.105,2.68,2.68,0,0,0-2.273-1.082A2.651,2.651,0,0,0,48.41,7.84a5,5,0,0,0-.84,3v.836a5.107,5.107,0,0,0,.824,3.082,2.888,2.888,0,0,0,4.52.063,5.079,5.079,0,0,0,.82-3.035Z" transform="translate(-376.199 6735.256)"/><path class="g" d="M19.672,17V5.625h3.211a5.169,5.169,0,0,1,2.625.656A4.438,4.438,0,0,1,27.27,8.148,6.078,6.078,0,0,1,27.9,10.93v.727a6.1,6.1,0,0,1-.621,2.82A4.369,4.369,0,0,1,25.5,16.336,5.5,5.5,0,0,1,22.82,17Zm1.5-10.141v8.914H22.75a3.435,3.435,0,0,0,2.7-1.078,4.452,4.452,0,0,0,.965-3.07v-.664a4.522,4.522,0,0,0-.91-3.012,3.24,3.24,0,0,0-2.582-1.09ZM31.773,17h-1.5V5.625h1.5Zm6.094-5.07a7.053,7.053,0,0,1-2.809-1.363,2.6,2.6,0,0,1-.879-2,2.751,2.751,0,0,1,1.074-2.223,4.269,4.269,0,0,1,2.793-.879,4.66,4.66,0,0,1,2.09.453,3.436,3.436,0,0,1,1.422,1.25,3.2,3.2,0,0,1,.5,1.742H40.555A2.069,2.069,0,0,0,39.9,7.293a2.675,2.675,0,0,0-1.852-.59,2.736,2.736,0,0,0-1.73.488A1.628,1.628,0,0,0,35.7,8.547a1.465,1.465,0,0,0,.59,1.176,5.79,5.79,0,0,0,2.008.879,9.3,9.3,0,0,1,2.219.879A3.367,3.367,0,0,1,41.7,12.6a2.861,2.861,0,0,1,.387,1.508,2.658,2.658,0,0,1-1.078,2.215,4.6,4.6,0,0,1-2.883.832,5.347,5.347,0,0,1-2.187-.449,3.681,3.681,0,0,1-1.566-1.23A3,3,0,0,1,33.82,13.7h1.508a1.959,1.959,0,0,0,.762,1.629,3.207,3.207,0,0,0,2.035.6,2.948,2.948,0,0,0,1.82-.484,1.573,1.573,0,0,0,.633-1.32,1.545,1.545,0,0,0-.586-1.293A6.755,6.755,0,0,0,37.867,11.93Zm14-5.07H48.211V17H46.719V6.859H43.07V5.625h8.8ZM57.727,12.4H55.055V17H53.547V5.625h3.766A4.457,4.457,0,0,1,60.27,6.5,3.148,3.148,0,0,1,61.3,9.047,3.062,3.062,0,0,1,60.73,10.9a3.428,3.428,0,0,1-1.6,1.18L61.8,16.906V17H60.2Zm-2.672-1.227h2.3a2.6,2.6,0,0,0,1.777-.578,1.953,1.953,0,0,0,.66-1.547,2.057,2.057,0,0,0-.629-1.617,2.666,2.666,0,0,0-1.816-.57h-2.3ZM65.016,17h-1.5V5.625h1.5Zm2.742,0V5.625h3.719a4.317,4.317,0,0,1,2.785.766A2.759,2.759,0,0,1,75.2,8.656a2.31,2.31,0,0,1-.453,1.41,2.937,2.937,0,0,1-1.234.949,2.638,2.638,0,0,1,1.457.98,2.814,2.814,0,0,1,.535,1.723,3.042,3.042,0,0,1-.992,2.406A4.1,4.1,0,0,1,71.7,17Zm1.5-5.32v4.094h2.477a2.385,2.385,0,0,0,1.652-.543,1.907,1.907,0,0,0,.605-1.5q0-2.055-2.234-2.055Zm0-1.2h2.266A2.378,2.378,0,0,0,73.1,9.984a1.649,1.649,0,0,0,.59-1.336,1.621,1.621,0,0,0-.547-1.363,2.69,2.69,0,0,0-1.664-.426H69.258ZM85.727,5.625v7.734a3.628,3.628,0,0,1-1.012,2.633,4.077,4.077,0,0,1-2.723,1.148l-.4.016a4.258,4.258,0,0,1-2.977-1.008,3.6,3.6,0,0,1-1.125-2.773V5.625h1.484v7.7a2.6,2.6,0,0,0,.68,1.918,3.111,3.111,0,0,0,3.887,0,2.6,2.6,0,0,0,.676-1.914V5.625ZM89.7,17H88.2V5.625h1.5Zm2.742,0V5.625h3.211a5.169,5.169,0,0,1,2.625.656,4.438,4.438,0,0,1,1.762,1.867,6.078,6.078,0,0,1,.629,2.781v.727a6.1,6.1,0,0,1-.621,2.82,4.369,4.369,0,0,1-1.773,1.859A5.5,5.5,0,0,1,95.594,17Zm1.5-10.141v8.914h1.578a3.435,3.435,0,0,0,2.7-1.078,4.452,4.452,0,0,0,.965-3.07v-.664a4.522,4.522,0,0,0-.91-3.012A3.24,3.24,0,0,0,95.7,6.859Zm17.742,4.82a7.037,7.037,0,0,1-.562,2.918,4.261,4.261,0,0,1-1.594,1.9,4.4,4.4,0,0,1-6.4-1.887,6.752,6.752,0,0,1-.59-2.832v-.82a6.953,6.953,0,0,1,.57-2.9,4.218,4.218,0,0,1,4-2.594,4.41,4.41,0,0,1,2.41.66,4.253,4.253,0,0,1,1.605,1.914,7.071,7.071,0,0,1,.563,2.918Zm-1.492-.734a5.1,5.1,0,0,0-.812-3.105,2.68,2.68,0,0,0-2.273-1.082,2.651,2.651,0,0,0-2.238,1.082,5,5,0,0,0-.84,3v.836a5.107,5.107,0,0,0,.824,3.082,2.888,2.888,0,0,0,4.52.063,5.079,5.079,0,0,0,.82-3.035Zm7.914,1.453h-2.672V17H113.93V5.625H117.7a4.457,4.457,0,0,1,2.957.875,3.148,3.148,0,0,1,1.035,2.547,3.062,3.062,0,0,1-.574,1.852,3.428,3.428,0,0,1-1.6,1.18l2.672,4.828V17h-1.609Zm-2.672-1.227h2.3a2.6,2.6,0,0,0,1.777-.578,1.953,1.953,0,0,0,.66-1.547,2.057,2.057,0,0,0-.629-1.617,2.666,2.666,0,0,0-1.816-.57h-2.3Zm14.633,2.859H125.3L124.234,17h-1.547l4.344-11.375h1.313L132.7,17h-1.539ZM125.758,12.8h3.867l-1.937-5.32Zm19.977-5.937h-3.656V17h-1.492V6.859h-3.648V5.625h8.8Zm10.219,4.82a7.037,7.037,0,0,1-.562,2.918,4.261,4.261,0,0,1-1.594,1.9,4.4,4.4,0,0,1-6.4-1.887,6.752,6.752,0,0,1-.59-2.832v-.82a6.953,6.953,0,0,1,.57-2.9,4.218,4.218,0,0,1,4-2.594,4.41,4.41,0,0,1,2.41.66,4.253,4.253,0,0,1,1.605,1.914,7.071,7.071,0,0,1,.563,2.918Zm-1.492-.734a5.1,5.1,0,0,0-.812-3.105,2.68,2.68,0,0,0-2.273-1.082,2.651,2.651,0,0,0-2.238,1.082,5,5,0,0,0-.84,3v.836a5.107,5.107,0,0,0,.824,3.082,2.888,2.888,0,0,0,4.52.063,5.079,5.079,0,0,0,.82-3.035Zm11.391-4.086H162.2V17H160.7V6.859h-3.648V5.625h8.8Zm7.352,7.172h-4.766L167.367,17H165.82l4.344-11.375h1.313L175.828,17h-1.539ZM168.891,12.8h3.867l-1.937-5.32Zm9.977,2.977h5.391V17h-6.9V5.625h1.508Zm-93.008,24H91.25V41h-6.9V29.625h1.508Zm12.813-8.914H95.016V41H93.523V30.859H89.875V29.625h8.8ZM100.359,41V29.625h3.211a5.169,5.169,0,0,1,2.625.656,4.438,4.438,0,0,1,1.762,1.867,6.078,6.078,0,0,1,.629,2.781v.727a6.1,6.1,0,0,1-.621,2.82,4.369,4.369,0,0,1-1.773,1.859,5.5,5.5,0,0,1-2.684.664Zm1.5-10.141v8.914h1.578a3.435,3.435,0,0,0,2.7-1.078,4.452,4.452,0,0,0,.965-3.07v-.664a4.522,4.522,0,0,0-.91-3.012,3.24,3.24,0,0,0-2.582-1.09Zm15.273,7.172h-4.766L111.3,41H109.75l4.344-11.375h1.313L119.758,41h-1.539ZM112.82,36.8h3.867l-1.937-5.32Z" transform="translate(-1280.199 6735.251)"/></g></svg>