<svg xmlns="http://www.w3.org/2000/svg" width="1030" height="464.088" viewBox="0 0 1030 464.088"><defs><style>.a{fill:#d9a171;}.b{fill:#f6f6f6;}.c{fill:#fff;}.d{fill:none;stroke:#afafaf;stroke-linecap:round;}.e{fill:#5e6178;}.f{fill:#a66d58;}.g{fill:#12263f;}</style></defs><g transform="translate(1338 -8737.412)"><path class="a" d="M0,0H1030V80H0Z" transform="translate(-1338 8961)"/><path class="b" d="M0,0H1030V80H0Z" transform="translate(-1338 9121)"/><path class="c" d="M0,0H1030V80H0Z" transform="translate(-1338 9041)"/><path class="d" d="M0,0V243.74" transform="translate(-830.608 8957.26)"/><path class="d" d="M0,0V243.74" transform="translate(-786 8957.26)"/><path class="d" d="M0,0V238.167" transform="translate(-741.392 8962.833)"/><path class="d" d="M0,0V60" transform="translate(-681.337 8799.86)"/><path class="d" d="M0,0V238.848" transform="translate(-497.5 8962.152)"/><path class="e" d="M0,0H1030V130H0Z" transform="translate(-1338 8737.412)"/><path class="c" d="M8.9,13.577H4.052v3.05h5.73V19H.967V6.2H9.8V8.585H4.052v2.7H8.9ZM21.727,19H18.659l-4.535-7.963V19H11.039V6.2h3.085l4.526,7.963V6.2h3.076Zm9.888-5.423H26.763v3.05h5.73V19H23.678V6.2h8.833V8.585H26.763v2.7h4.852Zm5.221,3.05h5.37V19H33.75V6.2h3.085Zm21.507-1.96a4.673,4.673,0,0,1-.721,2.36,4.35,4.35,0,0,1-1.85,1.586,6.3,6.3,0,0,1-2.72.563,5.025,5.025,0,0,1-3.973-1.644,6.786,6.786,0,0,1-1.45-4.641v-.633a7.746,7.746,0,0,1,.655-3.292,4.961,4.961,0,0,1,1.885-2.18,5.26,5.26,0,0,1,2.848-.769A5.516,5.516,0,0,1,56.76,7.245a4.844,4.844,0,0,1,1.608,3.379H55.292A2.292,2.292,0,0,0,54.7,8.945a2.422,2.422,0,0,0-1.687-.51,1.843,1.843,0,0,0-1.687.861,5.536,5.536,0,0,0-.562,2.751v.905a6.126,6.126,0,0,0,.514,2.927,1.882,1.882,0,0,0,1.771.879,2.369,2.369,0,0,0,1.626-.5,2.126,2.126,0,0,0,.6-1.591Zm12.3-1.8a7.546,7.546,0,0,1-.694,3.313A5.132,5.132,0,0,1,67.97,18.4a5.494,5.494,0,0,1-2.914.778,5.572,5.572,0,0,1-2.9-.751,5.123,5.123,0,0,1-1.973-2.149,7.329,7.329,0,0,1-.743-3.208v-.721a7.58,7.58,0,0,1,.69-3.318A5.119,5.119,0,0,1,62.108,6.81,5.854,5.854,0,0,1,67.939,6.8,5.211,5.211,0,0,1,69.921,9a7.362,7.362,0,0,1,.716,3.274ZM67.5,12.329a5.381,5.381,0,0,0-.637-2.9,2.044,2.044,0,0,0-1.824-.989q-2.32,0-2.452,3.48l-.009.94a5.535,5.535,0,0,0,.624,2.892,2.041,2.041,0,0,0,1.854,1.011,2.016,2.016,0,0,0,1.8-.993,5.383,5.383,0,0,0,.642-2.856ZM72.229,19V6.2h4.122a6.064,6.064,0,0,1,3.05.769,5.406,5.406,0,0,1,2.114,2.171,6.554,6.554,0,0,1,.769,3.142v.589a6.592,6.592,0,0,1-.743,3.151,5.429,5.429,0,0,1-2.092,2.18,5.93,5.93,0,0,1-3.01.8ZM75.313,8.585v8.042h1.072a2.4,2.4,0,0,0,2.039-.945,4.63,4.63,0,0,0,.712-2.808V12.32a4.592,4.592,0,0,0-.712-2.795,2.442,2.442,0,0,0-2.074-.94ZM91.8,13.577H86.95v3.05h5.73V19H83.865V6.2H92.7V8.585H86.95v2.7H91.8ZM104.625,19h-3.067l-4.535-7.963V19H93.938V6.2h3.085l4.526,7.963V6.2h3.076Zm8.552-3.4a1.268,1.268,0,0,0-.479-1.055,5.954,5.954,0,0,0-1.683-.782,16.147,16.147,0,0,1-1.969-.782q-2.487-1.222-2.487-3.357a3.011,3.011,0,0,1,.62-1.876,4.008,4.008,0,0,1,1.753-1.266,6.823,6.823,0,0,1,2.549-.453,5.969,5.969,0,0,1,2.474.492,3.917,3.917,0,0,1,1.7,1.4A3.661,3.661,0,0,1,116.262,10h-3.076a1.547,1.547,0,0,0-.479-1.213,1.867,1.867,0,0,0-1.3-.431,2.106,2.106,0,0,0-1.305.365,1.074,1.074,0,0,0,.048,1.819,6.65,6.65,0,0,0,1.854.826,11.36,11.36,0,0,1,2.18.918,3.663,3.663,0,0,1,2.074,3.3A3.125,3.125,0,0,1,115,18.218a5.629,5.629,0,0,1-3.472.958,6.888,6.888,0,0,1-2.817-.558,4.247,4.247,0,0,1-1.9-1.529,3.985,3.985,0,0,1-.637-2.237h3.094a1.963,1.963,0,0,0,.532,1.516,2.513,2.513,0,0,0,1.727.488,1.985,1.985,0,0,0,1.208-.33A1.088,1.088,0,0,0,113.177,15.6Zm11.936,1.011h-4.228L120.146,19h-3.3l4.693-12.8h2.9L129.173,19h-3.313Zm-3.489-2.382h2.751l-1.38-4.438Z" transform="translate(-1318 8754.332)"/><path class="c" d="M125.351,13.9h-4.975V19h-3.085V6.2h8.561V8.585h-5.476v2.944h4.975Zm6.539.58h-1.67V19h-3.085V6.2h5.036a5.617,5.617,0,0,1,3.56,1.011,3.426,3.426,0,0,1,1.283,2.856,4.163,4.163,0,0,1-.541,2.215,3.837,3.837,0,0,1-1.692,1.424l2.672,5.159V19h-3.3ZM130.22,12.1h1.951a1.754,1.754,0,0,0,1.323-.461,1.781,1.781,0,0,0,.444-1.288,1.8,1.8,0,0,0-.448-1.3,1.737,1.737,0,0,0-1.318-.47H130.22Zm15.926,4.509h-4.228L141.18,19h-3.3l4.693-12.8h2.9L150.206,19h-3.313Zm-3.489-2.382h2.751l-1.38-4.438ZM155.62,19V6.2h4.122a6.064,6.064,0,0,1,3.05.769,5.406,5.406,0,0,1,2.114,2.171,6.554,6.554,0,0,1,.769,3.142v.589a6.592,6.592,0,0,1-.743,3.151,5.429,5.429,0,0,1-2.092,2.18,5.93,5.93,0,0,1-3.01.8Zm3.085-10.415v8.042h1.072a2.4,2.4,0,0,0,2.039-.945,4.63,4.63,0,0,0,.712-2.808V12.32a4.592,4.592,0,0,0-.712-2.795,2.442,2.442,0,0,0-2.074-.94Zm16.488,4.992h-4.852v3.05h5.73V19h-8.815V6.2h8.833V8.585h-5.748v2.7h4.852Zm11.584,1.942L189.326,6.2h3.445L188.465,19H185.09L180.818,6.2h3.419Zm14.862-1.942h-4.852v3.05h5.73V19H193.7V6.2h8.833V8.585h-5.748v2.7h4.852ZM214.463,19H211.4l-4.535-7.963V19h-3.085V6.2h3.085l4.526,7.963V6.2h3.076Zm12-10.415h-3.841V19h-3.085V8.585h-3.771V6.2h10.7Zm7.515,8.024h-4.228L229.009,19h-3.3l4.693-12.8h2.9L238.035,19h-3.313Zm-3.489-2.382h2.751l-1.38-4.438Z" transform="translate(-748 8754.332)"/><path class="c" d="M119.794,11.362h1.4a1.453,1.453,0,0,0,1.661-1.626,1.406,1.406,0,0,0-.4-1.033,1.5,1.5,0,0,0-1.116-.4,1.606,1.606,0,0,0-1.024.343,1.046,1.046,0,0,0-.435.853H116.92a3.032,3.032,0,0,1,.563-1.8,3.715,3.715,0,0,1,1.56-1.235,5.334,5.334,0,0,1,2.193-.444,5.241,5.241,0,0,1,3.357.976,3.243,3.243,0,0,1,1.222,2.681,2.7,2.7,0,0,1-.505,1.56,3.6,3.6,0,0,1-1.472,1.191,3.441,3.441,0,0,1,1.6,1.121,2.951,2.951,0,0,1,.58,1.859,3.3,3.3,0,0,1-1.318,2.742,5.472,5.472,0,0,1-3.463,1.028A5.675,5.675,0,0,1,118.9,18.7a3.656,3.656,0,0,1-1.63-1.327,3.45,3.45,0,0,1-.554-1.929H119.7a1.334,1.334,0,0,0,.475,1.02,1.676,1.676,0,0,0,1.169.431,1.755,1.755,0,0,0,1.248-.435,1.454,1.454,0,0,0,.466-1.112,1.7,1.7,0,0,0-.483-1.371,2.021,2.021,0,0,0-1.336-.4h-1.441Zm10.424,0h1.4a1.453,1.453,0,0,0,1.661-1.626,1.406,1.406,0,0,0-.4-1.033,1.5,1.5,0,0,0-1.116-.4,1.606,1.606,0,0,0-1.024.343,1.046,1.046,0,0,0-.435.853h-2.962a3.032,3.032,0,0,1,.563-1.8,3.715,3.715,0,0,1,1.56-1.235,5.334,5.334,0,0,1,2.193-.444,5.241,5.241,0,0,1,3.357.976,3.243,3.243,0,0,1,1.222,2.681,2.7,2.7,0,0,1-.505,1.56,3.6,3.6,0,0,1-1.472,1.191,3.441,3.441,0,0,1,1.6,1.121,2.951,2.951,0,0,1,.58,1.859,3.3,3.3,0,0,1-1.318,2.742,5.472,5.472,0,0,1-3.463,1.028,5.675,5.675,0,0,1-2.333-.479,3.656,3.656,0,0,1-1.63-1.327,3.45,3.45,0,0,1-.554-1.929h2.979a1.334,1.334,0,0,0,.475,1.02,1.676,1.676,0,0,0,1.169.431,1.755,1.755,0,0,0,1.248-.435,1.454,1.454,0,0,0,.466-1.112A1.7,1.7,0,0,0,133,13.973a2.021,2.021,0,0,0-1.336-.4h-1.441ZM146.864,19h-8.93V17.066l4.113-4.324a4.909,4.909,0,0,0,1.521-2.751,1.913,1.913,0,0,0-.36-1.257,1.287,1.287,0,0,0-1.046-.431,1.3,1.3,0,0,0-1.1.576,2.366,2.366,0,0,0-.422,1.437h-2.971a4.2,4.2,0,0,1,.589-2.175,4.129,4.129,0,0,1,1.635-1.56,4.856,4.856,0,0,1,2.338-.562,4.777,4.777,0,0,1,3.195.958,3.42,3.42,0,0,1,1.121,2.751,4,4,0,0,1-.281,1.472,6.456,6.456,0,0,1-.875,1.5,22.029,22.029,0,0,1-1.912,2.1l-1.652,1.907h5.036Zm10.424,0h-8.93V17.066l4.113-4.324a4.909,4.909,0,0,0,1.521-2.751,1.913,1.913,0,0,0-.36-1.257,1.287,1.287,0,0,0-1.046-.431,1.3,1.3,0,0,0-1.1.576,2.366,2.366,0,0,0-.422,1.437h-2.971a4.2,4.2,0,0,1,.589-2.175,4.129,4.129,0,0,1,1.635-1.56,4.856,4.856,0,0,1,2.338-.562,4.777,4.777,0,0,1,3.195.958,3.42,3.42,0,0,1,1.121,2.751,4,4,0,0,1-.281,1.472,6.456,6.456,0,0,1-.875,1.5,22.029,22.029,0,0,1-1.912,2.1l-1.652,1.907h5.036Z" transform="translate(-478 8754.332)"/><path class="c" d="M65.46,11.362h1.4a1.453,1.453,0,0,0,1.661-1.626,1.406,1.406,0,0,0-.4-1.033,1.5,1.5,0,0,0-1.116-.4,1.606,1.606,0,0,0-1.024.343,1.046,1.046,0,0,0-.435.853H62.586a3.032,3.032,0,0,1,.563-1.8,3.715,3.715,0,0,1,1.56-1.235A5.334,5.334,0,0,1,66.9,6.019a5.241,5.241,0,0,1,3.357.976A3.243,3.243,0,0,1,71.48,9.675a2.7,2.7,0,0,1-.505,1.56A3.6,3.6,0,0,1,69.5,12.426a3.441,3.441,0,0,1,1.6,1.121,2.951,2.951,0,0,1,.58,1.859,3.3,3.3,0,0,1-1.318,2.742A5.472,5.472,0,0,1,66.9,19.176a5.675,5.675,0,0,1-2.333-.479,3.656,3.656,0,0,1-1.63-1.327,3.45,3.45,0,0,1-.554-1.929h2.979a1.334,1.334,0,0,0,.475,1.02,1.676,1.676,0,0,0,1.169.431,1.755,1.755,0,0,0,1.248-.435,1.454,1.454,0,0,0,.466-1.112,1.7,1.7,0,0,0-.483-1.371,2.021,2.021,0,0,0-1.336-.4H65.46Zm16.6,2.408a6.11,6.11,0,0,1-1.165,4,4.551,4.551,0,0,1-6.587-.009,6.1,6.1,0,0,1-1.169-3.99V11.433a6.11,6.11,0,0,1,1.165-4,4.551,4.551,0,0,1,6.587.009,6.116,6.116,0,0,1,1.169,4ZM79.1,11.055a4.564,4.564,0,0,0-.36-2.061A1.2,1.2,0,0,0,77.6,8.313a1.176,1.176,0,0,0-1.112.633,4.3,4.3,0,0,0-.374,1.916v3.27a4.6,4.6,0,0,0,.36,2.1,1.209,1.209,0,0,0,1.143.664,1.193,1.193,0,0,0,1.116-.646,4.39,4.39,0,0,0,.369-2.026ZM84.664,20.1h-2.1L86.932,6.2h2.109Zm14.142-6.328a6.11,6.11,0,0,1-1.165,4,4.551,4.551,0,0,1-6.587-.009,6.1,6.1,0,0,1-1.169-3.99V11.433a6.11,6.11,0,0,1,1.165-4,4.551,4.551,0,0,1,6.587.009,6.116,6.116,0,0,1,1.169,4Zm-2.962-2.716a4.564,4.564,0,0,0-.36-2.061,1.2,1.2,0,0,0-1.143-.681,1.176,1.176,0,0,0-1.112.633,4.3,4.3,0,0,0-.374,1.916v3.27a4.6,4.6,0,0,0,.36,2.1,1.209,1.209,0,0,0,1.143.664,1.193,1.193,0,0,0,1.116-.646,4.39,4.39,0,0,0,.369-2.026Zm10.336,3a3.128,3.128,0,0,1-2.145.861,3.463,3.463,0,0,1-2.76-1.178,4.64,4.64,0,0,1-1.02-3.146,4.722,4.722,0,0,1,.571-2.285,4.287,4.287,0,0,1,1.6-1.67,4.373,4.373,0,0,1,2.281-.615,4.245,4.245,0,0,1,2.29.637,4.29,4.29,0,0,1,1.6,1.8,6.189,6.189,0,0,1,.589,2.685v1.134a7.693,7.693,0,0,1-.831,3.674,5.734,5.734,0,0,1-2.369,2.391,7.4,7.4,0,0,1-3.586.835h-.185V16.8l.563-.009Q105.837,16.645,106.18,14.052Zm-1.345-1.274a1.442,1.442,0,0,0,1.389-.835v-1.23a3.2,3.2,0,0,0-.413-1.819,1.3,1.3,0,0,0-1.116-.589,1.225,1.225,0,0,0-1.046.668,2.968,2.968,0,0,0-.422,1.617,2.661,2.661,0,0,0,.431,1.6A1.378,1.378,0,0,0,104.835,12.777Zm7,7.321h-2.1L114.1,6.2h2.109ZM126.017,19h-8.93V17.066l4.113-4.324a4.909,4.909,0,0,0,1.521-2.751,1.913,1.913,0,0,0-.36-1.257,1.287,1.287,0,0,0-1.046-.431,1.3,1.3,0,0,0-1.1.576,2.366,2.366,0,0,0-.422,1.437h-2.971a4.2,4.2,0,0,1,.589-2.175,4.129,4.129,0,0,1,1.635-1.56,4.856,4.856,0,0,1,2.338-.562,4.777,4.777,0,0,1,3.195.958A3.42,3.42,0,0,1,125.7,9.728a4,4,0,0,1-.281,1.472,6.456,6.456,0,0,1-.875,1.5,22.029,22.029,0,0,1-1.912,2.1l-1.652,1.907h5.036Zm10.38-5.229a6.11,6.11,0,0,1-1.165,4,4.551,4.551,0,0,1-6.587-.009,6.1,6.1,0,0,1-1.169-3.99V11.433a6.11,6.11,0,0,1,1.165-4,4.551,4.551,0,0,1,6.587.009,6.116,6.116,0,0,1,1.169,4Zm-2.962-2.716a4.564,4.564,0,0,0-.36-2.061,1.2,1.2,0,0,0-1.143-.681,1.176,1.176,0,0,0-1.112.633,4.3,4.3,0,0,0-.374,1.916v3.27a4.6,4.6,0,0,0,.36,2.1,1.209,1.209,0,0,0,1.143.664,1.193,1.193,0,0,0,1.116-.646,4.39,4.39,0,0,0,.369-2.026ZM146.864,19h-8.93V17.066l4.113-4.324a4.909,4.909,0,0,0,1.521-2.751,1.913,1.913,0,0,0-.36-1.257,1.287,1.287,0,0,0-1.046-.431,1.3,1.3,0,0,0-1.1.576,2.366,2.366,0,0,0-.422,1.437h-2.971a4.2,4.2,0,0,1,.589-2.175,4.129,4.129,0,0,1,1.635-1.56,4.856,4.856,0,0,1,2.338-.562,4.777,4.777,0,0,1,3.195.958,3.42,3.42,0,0,1,1.121,2.751,4,4,0,0,1-.281,1.472,6.456,6.456,0,0,1-.875,1.5,22.029,22.029,0,0,1-1.912,2.1l-1.652,1.907h5.036Zm10.38-5.229a6.11,6.11,0,0,1-1.165,4,4.551,4.551,0,0,1-6.587-.009,6.1,6.1,0,0,1-1.169-3.99V11.433a6.11,6.11,0,0,1,1.165-4,4.551,4.551,0,0,1,6.587.009,6.116,6.116,0,0,1,1.169,4Zm-2.962-2.716a4.564,4.564,0,0,0-.36-2.061,1.2,1.2,0,0,0-1.143-.681,1.176,1.176,0,0,0-1.112.633,4.3,4.3,0,0,0-.374,1.916v3.27a4.6,4.6,0,0,0,.36,2.1,1.209,1.209,0,0,0,1.143.664,1.193,1.193,0,0,0,1.116-.646,4.39,4.39,0,0,0,.369-2.026Z" transform="translate(-478 8788.86)"/><path class="c" d="M112.7,13.9h-4.975V19h-3.085V6.2H113.2V8.585h-5.476v2.944H112.7Zm9.721-.325h-4.852v3.05h5.73V19h-8.815V6.2h8.833V8.585h-5.748v2.7h4.852Zm12.489,1.09a4.673,4.673,0,0,1-.721,2.36,4.35,4.35,0,0,1-1.85,1.586,6.3,6.3,0,0,1-2.72.563,5.025,5.025,0,0,1-3.973-1.644,6.786,6.786,0,0,1-1.45-4.641v-.633a7.746,7.746,0,0,1,.655-3.292,4.961,4.961,0,0,1,1.885-2.18,5.26,5.26,0,0,1,2.848-.769,5.516,5.516,0,0,1,3.744,1.226,4.844,4.844,0,0,1,1.608,3.379h-3.076a2.292,2.292,0,0,0-.589-1.679,2.422,2.422,0,0,0-1.687-.51A1.843,1.843,0,0,0,127.9,9.3a5.536,5.536,0,0,0-.562,2.751v.905a6.126,6.126,0,0,0,.514,2.927,1.882,1.882,0,0,0,1.771.879,2.369,2.369,0,0,0,1.626-.5,2.126,2.126,0,0,0,.6-1.591ZM147.068,19H144V13.656h-4.544V19h-3.085V6.2h3.085v5.08H144V6.2h3.067Zm9.378-2.391h-4.228L151.48,19h-3.3l4.693-12.8h2.9L160.507,19h-3.313Zm-3.489-2.382h2.751l-1.38-4.438Zm20.9-.65h-4.852v3.05h5.73V19h-8.815V6.2h8.833V8.585h-5.748v2.7h4.852ZM180.045,6.2l2.856,8.9,2.848-8.9h4.061V19h-3.094V16.012l.3-6.117L183.921,19h-2.039l-3.1-9.114.3,6.126V19h-3.085V6.2ZM195.057,19H191.98V6.2h3.076Zm8.745-3.4a1.268,1.268,0,0,0-.479-1.055,5.954,5.954,0,0,0-1.683-.782,16.147,16.147,0,0,1-1.969-.782q-2.487-1.222-2.487-3.357a3.011,3.011,0,0,1,.62-1.876,4.008,4.008,0,0,1,1.753-1.266,6.823,6.823,0,0,1,2.549-.453,5.969,5.969,0,0,1,2.474.492,3.917,3.917,0,0,1,1.7,1.4A3.661,3.661,0,0,1,206.887,10h-3.076a1.547,1.547,0,0,0-.479-1.213,1.867,1.867,0,0,0-1.3-.431,2.106,2.106,0,0,0-1.305.365,1.074,1.074,0,0,0,.048,1.819,6.65,6.65,0,0,0,1.854.826,11.36,11.36,0,0,1,2.18.918,3.663,3.663,0,0,1,2.074,3.3,3.125,3.125,0,0,1-1.266,2.637,5.629,5.629,0,0,1-3.472.958,6.888,6.888,0,0,1-2.817-.558,4.247,4.247,0,0,1-1.9-1.529,3.985,3.985,0,0,1-.637-2.237h3.094a1.963,1.963,0,0,0,.532,1.516,2.513,2.513,0,0,0,1.727.488,1.985,1.985,0,0,0,1.208-.33A1.088,1.088,0,0,0,203.8,15.6Zm7.954,3.4H208.68V6.2h3.076Zm12.981-6.135a7.546,7.546,0,0,1-.694,3.313A5.132,5.132,0,0,1,222.07,18.4a5.494,5.494,0,0,1-2.914.778,5.572,5.572,0,0,1-2.9-.751,5.123,5.123,0,0,1-1.973-2.149,7.329,7.329,0,0,1-.743-3.208v-.721a7.58,7.58,0,0,1,.69-3.318,5.119,5.119,0,0,1,1.978-2.219,5.854,5.854,0,0,1,5.832-.009A5.211,5.211,0,0,1,224.021,9a7.362,7.362,0,0,1,.716,3.274Zm-3.138-.536a5.381,5.381,0,0,0-.637-2.9,2.044,2.044,0,0,0-1.824-.989q-2.32,0-2.452,3.48l-.009.94a5.535,5.535,0,0,0,.624,2.892,2.041,2.041,0,0,0,1.854,1.011,2.016,2.016,0,0,0,1.8-.993,5.383,5.383,0,0,0,.642-2.856Zm-2.1-9.554h3.129l-2.443,2.76h-2.417ZM237.016,19h-3.067l-4.535-7.963V19h-3.085V6.2h3.085l4.526,7.963V6.2h3.076Z" transform="translate(-748 8791.412)"/><path class="f" d="M0,0H1030V93.588H0Z" transform="translate(-1338 8867.412)"/><path class="d" d="M0,0V238.848" transform="translate(-701 8962.152)"/><path class="c" d="M8.9,13.577H4.052v3.05h5.73V19H.967V6.2H9.8V8.585H4.052v2.7H8.9ZM15.091,6.2l2.856,8.9,2.848-8.9h4.061V19H21.762V16.012l.3-6.117L18.967,19H16.928l-3.1-9.114.3,6.126V19H11.039V6.2ZM29.9,14.658V19H26.815V6.2h5.106a5.948,5.948,0,0,1,2.6.541,4.074,4.074,0,0,1,1.749,1.538,4.2,4.2,0,0,1,.62,2.263,3.7,3.7,0,0,1-1.34,2.993,5.561,5.561,0,0,1-3.678,1.121Zm0-2.382h2.021a1.906,1.906,0,0,0,1.367-.448,1.665,1.665,0,0,0,.47-1.266,2.059,2.059,0,0,0-.483-1.433,1.712,1.712,0,0,0-1.318-.545H29.9Zm14.335,4.333H40.008L39.27,19h-3.3L40.667,6.2h2.9L48.3,19H44.982Zm-3.489-2.382H43.5l-1.38-4.438ZM59.915,19H56.848l-4.535-7.963V19H49.228V6.2h3.085l4.526,7.963V6.2h3.076Zm9.22-2.391H64.907L64.169,19h-3.3L65.566,6.2h2.9L73.2,19H69.882Zm-3.489-2.382H68.4l-1.38-4.438ZM74.127,19V6.2h4.122a6.064,6.064,0,0,1,3.05.769,5.406,5.406,0,0,1,2.114,2.171,6.554,6.554,0,0,1,.769,3.142v.589a6.592,6.592,0,0,1-.743,3.151,5.429,5.429,0,0,1-2.092,2.18,5.93,5.93,0,0,1-3.01.8ZM77.212,8.585v8.042h1.072a2.4,2.4,0,0,0,2.039-.945,4.63,4.63,0,0,0,.712-2.808V12.32a4.592,4.592,0,0,0-.712-2.795,2.442,2.442,0,0,0-2.074-.94Zm15.82,8.024H88.8L88.066,19h-3.3L89.464,6.2h2.9L97.093,19H93.779Zm-3.489-2.382h2.751l-1.38-4.438Zm11.944,2.4H107.6V19H97.638V17.374l6.1-8.789H97.6V6.2h9.94V7.785Zm18.123-3.762a7.546,7.546,0,0,1-.694,3.313,5.132,5.132,0,0,1-1.973,2.219,5.494,5.494,0,0,1-2.914.778,5.572,5.572,0,0,1-2.9-.751,5.123,5.123,0,0,1-1.973-2.149,7.329,7.329,0,0,1-.743-3.208v-.721a7.58,7.58,0,0,1,.69-3.318,5.119,5.119,0,0,1,1.978-2.219,5.854,5.854,0,0,1,5.832-.009A5.211,5.211,0,0,1,118.894,9a7.362,7.362,0,0,1,.716,3.274Zm-3.138-.536a5.381,5.381,0,0,0-.637-2.9,2.044,2.044,0,0,0-1.824-.989q-2.32,0-2.452,3.48l-.009.94a5.535,5.535,0,0,0,.624,2.892,2.041,2.041,0,0,0,1.854,1.011,2.016,2.016,0,0,0,1.8-.993,5.383,5.383,0,0,0,.642-2.856Zm12.3,4.3h5.37V19h-8.455V6.2h3.085Zm14.915-8.042h-3.841V19h-3.085V8.585h-3.771V6.2h10.7ZM144.984,19V6.2h4.122a6.064,6.064,0,0,1,3.05.769,5.406,5.406,0,0,1,2.114,2.171,6.554,6.554,0,0,1,.769,3.142v.589a6.592,6.592,0,0,1-.743,3.151A5.429,5.429,0,0,1,152.2,18.2a5.93,5.93,0,0,1-3.01.8Zm3.085-10.415v8.042h1.072a2.4,2.4,0,0,0,2.039-.945,4.63,4.63,0,0,0,.712-2.808V12.32a4.592,4.592,0,0,0-.712-2.795,2.442,2.442,0,0,0-2.074-.94Zm15.82,8.024h-4.228L158.924,19h-3.3l4.693-12.8h2.9L167.95,19h-3.313ZM160.4,14.228h2.751l-1.38-4.438ZM11.654,51H8.587L4.052,43.037V51H.967V38.2H4.052l4.526,7.963V38.2h3.076Zm5.238,0H13.816V38.2h3.076Zm12.19-10.415H25.242V51H22.157V40.585H18.387V38.2h10.7Zm13.7,1.037a2.954,2.954,0,0,1-.461,1.644,3.361,3.361,0,0,1-1.27,1.143,3.7,3.7,0,0,1,1.45,1.226,3.164,3.164,0,0,1,.536,1.841,3.349,3.349,0,0,1-1.182,2.707,4.909,4.909,0,0,1-3.256.993,5,5,0,0,1-3.287-1,3.325,3.325,0,0,1-1.2-2.7,3.2,3.2,0,0,1,.527-1.819,3.586,3.586,0,0,1,1.494-1.248,3.38,3.38,0,0,1-1.283-1.143,2.934,2.934,0,0,1-.466-1.644,3.284,3.284,0,0,1,1.134-2.637,4.558,4.558,0,0,1,3.059-.967,4.586,4.586,0,0,1,3.076.967A3.284,3.284,0,0,1,42.785,41.622Zm-2.716,5.616a1.69,1.69,0,0,0-.409-1.217,1.423,1.423,0,0,0-1.077-.426,1.438,1.438,0,0,0-1.081.426,1.979,1.979,0,0,0,0,2.426,1.433,1.433,0,0,0,1.094.444,1.377,1.377,0,0,0,1.063-.439A1.723,1.723,0,0,0,40.069,47.238ZM38.575,40.3a1.1,1.1,0,0,0-.91.391,1.7,1.7,0,0,0-.312,1.085,1.8,1.8,0,0,0,.316,1.107,1.092,1.092,0,0,0,.932.422,1.047,1.047,0,0,0,.91-.422,1.856,1.856,0,0,0,.3-1.107A1.7,1.7,0,0,0,39.5,40.7,1.109,1.109,0,0,0,38.575,40.3Zm13.157-2.285v2.329H51.6a4.447,4.447,0,0,0-2.729.8,3.358,3.358,0,0,0-1.314,2.21,3.464,3.464,0,0,1,2.531-.984,3.231,3.231,0,0,1,2.646,1.213,4.892,4.892,0,0,1,.984,3.182A4.48,4.48,0,0,1,53.143,49a4.108,4.108,0,0,1-1.608,1.6,4.622,4.622,0,0,1-2.29.576,4.777,4.777,0,0,1-2.435-.62,4.26,4.26,0,0,1-1.67-1.771,5.832,5.832,0,0,1-.615-2.654V44.944a7.387,7.387,0,0,1,.848-3.555,6.149,6.149,0,0,1,2.421-2.474,6.923,6.923,0,0,1,3.489-.9Zm-2.672,6.618a1.7,1.7,0,0,0-.984.272,1.73,1.73,0,0,0-.589.668v.888q0,2.426,1.679,2.426a1.362,1.362,0,0,0,1.129-.606,2.472,2.472,0,0,0,.453-1.521,2.426,2.426,0,0,0-.461-1.534A1.476,1.476,0,0,0,49.061,44.637Zm14.827,1.134a6.11,6.11,0,0,1-1.165,4,4.551,4.551,0,0,1-6.587-.009,6.1,6.1,0,0,1-1.169-3.99V43.433a6.11,6.11,0,0,1,1.165-4,4.551,4.551,0,0,1,6.587.009,6.116,6.116,0,0,1,1.169,4Zm-2.962-2.716a4.564,4.564,0,0,0-.36-2.061,1.2,1.2,0,0,0-1.143-.681,1.176,1.176,0,0,0-1.112.633,4.3,4.3,0,0,0-.374,1.916v3.27a4.6,4.6,0,0,0,.36,2.1,1.209,1.209,0,0,0,1.143.664,1.193,1.193,0,0,0,1.116-.646,4.39,4.39,0,0,0,.369-2.026ZM71.991,51H69.021V41.543L66.1,42.4v-2.25L71.719,38.2h.272Zm12.744-5.229a6.11,6.11,0,0,1-1.165,4,4.551,4.551,0,0,1-6.587-.009,6.1,6.1,0,0,1-1.169-3.99V43.433a6.11,6.11,0,0,1,1.165-4,4.551,4.551,0,0,1,6.587.009,6.116,6.116,0,0,1,1.169,4Zm-2.962-2.716a4.564,4.564,0,0,0-.36-2.061,1.2,1.2,0,0,0-1.143-.681,1.176,1.176,0,0,0-1.112.633,4.3,4.3,0,0,0-.374,1.916v3.27a4.6,4.6,0,0,0,.36,2.1,1.209,1.209,0,0,0,1.143.664,1.193,1.193,0,0,0,1.116-.646,4.39,4.39,0,0,0,.369-2.026Zm13.386,2.716a6.11,6.11,0,0,1-1.165,4,4.551,4.551,0,0,1-6.587-.009,6.1,6.1,0,0,1-1.169-3.99V43.433a6.11,6.11,0,0,1,1.165-4,4.551,4.551,0,0,1,6.587.009,6.116,6.116,0,0,1,1.169,4ZM92.2,43.055a4.564,4.564,0,0,0-.36-2.061,1.2,1.2,0,0,0-1.143-.681,1.176,1.176,0,0,0-1.112.633,4.3,4.3,0,0,0-.374,1.916v3.27a4.6,4.6,0,0,0,.36,2.1,1.209,1.209,0,0,0,1.143.664,1.193,1.193,0,0,0,1.116-.646,4.39,4.39,0,0,0,.369-2.026Z" transform="translate(-1318 8884.332)"/><path class="c" d="M5.722,14.482H4.052V19H.967V6.2H6a5.617,5.617,0,0,1,3.56,1.011,3.426,3.426,0,0,1,1.283,2.856,4.163,4.163,0,0,1-.541,2.215,3.837,3.837,0,0,1-1.692,1.424l2.672,5.159V19H7.98ZM4.052,12.1H6a1.754,1.754,0,0,0,1.323-.461,1.781,1.781,0,0,0,.444-1.288,1.8,1.8,0,0,0-.448-1.3A1.737,1.737,0,0,0,6,8.585H4.052ZM23.4,19H20.329l-4.535-7.963V19H12.709V6.2h3.085l4.526,7.963V6.2H23.4Zm5.238,0H25.559V6.2h3.076Z" transform="translate(-823 8884.332)"/><path class="c" d="M22.281,13.211A4.025,4.025,0,0,1,20.926,16.1,4.76,4.76,0,0,1,17.7,17.156a4.28,4.28,0,0,1-3.441-1.473,6.038,6.038,0,0,1-1.254-4.043v-.7a6.819,6.819,0,0,1,.578-2.891,4.332,4.332,0,0,1,1.652-1.918,4.629,4.629,0,0,1,2.5-.668,4.637,4.637,0,0,1,3.172,1.055A4.326,4.326,0,0,1,22.3,9.484H19.953a2.376,2.376,0,0,0-.613-1.6,2.271,2.271,0,0,0-1.605-.5,1.991,1.991,0,0,0-1.754.84,4.707,4.707,0,0,0-.6,2.605V11.7a5.038,5.038,0,0,0,.559,2.7,1.954,1.954,0,0,0,1.762.852,2.314,2.314,0,0,0,1.621-.5,2.241,2.241,0,0,0,.613-1.535ZM33.164,11.57a6.867,6.867,0,0,1-.594,2.945,4.472,4.472,0,0,1-1.7,1.953,5.021,5.021,0,0,1-5.059.008,4.515,4.515,0,0,1-1.719-1.941,6.67,6.67,0,0,1-.617-2.9V11.07a6.831,6.831,0,0,1,.605-2.957,4.508,4.508,0,0,1,1.711-1.961,5.014,5.014,0,0,1,5.055,0,4.508,4.508,0,0,1,1.711,1.961,6.811,6.811,0,0,1,.605,2.949Zm-2.375-.516a4.787,4.787,0,0,0-.641-2.719A2.263,2.263,0,0,0,26.5,8.324a4.732,4.732,0,0,0-.648,2.691v.555a4.847,4.847,0,0,0,.641,2.7,2.243,2.243,0,0,0,3.656.035,4.819,4.819,0,0,0,.641-2.7ZM44.117,17H41.773L37.211,9.516V17H34.867V5.625h2.344l4.57,7.5v-7.5h2.336Zm10.977-3.789A4.025,4.025,0,0,1,53.738,16.1a4.76,4.76,0,0,1-3.223,1.055,4.28,4.28,0,0,1-3.441-1.473,6.038,6.038,0,0,1-1.254-4.043v-.7A6.819,6.819,0,0,1,46.4,8.055a4.332,4.332,0,0,1,1.652-1.918,5.164,5.164,0,0,1,5.668.387,4.326,4.326,0,0,1,1.391,2.961H52.766a2.376,2.376,0,0,0-.613-1.6,2.271,2.271,0,0,0-1.605-.5,1.991,1.991,0,0,0-1.754.84,4.707,4.707,0,0,0-.6,2.605V11.7a5.038,5.038,0,0,0,.559,2.7,1.954,1.954,0,0,0,1.762.852,2.314,2.314,0,0,0,1.621-.5,2.241,2.241,0,0,0,.613-1.535Zm8.383-1.141h-4.5v3.047h5.281V17H56.633V5.625h7.609v1.9H58.977v2.711h4.5Zm4.5.922V17H65.633V5.625H70.07a5.134,5.134,0,0,1,2.254.469,3.454,3.454,0,0,1,1.5,1.332,3.714,3.714,0,0,1,.523,1.965A3.266,3.266,0,0,1,73.2,12.027a4.767,4.767,0,0,1-3.168.965Zm0-1.9H70.07a2.059,2.059,0,0,0,1.418-.437,1.591,1.591,0,0,0,.488-1.25,1.876,1.876,0,0,0-.492-1.352,1.839,1.839,0,0,0-1.359-.531H67.977Zm16.539-3.57H81.031V17H78.688V7.523H75.25v-1.9h9.266ZM94.977,11.57a6.867,6.867,0,0,1-.594,2.945,4.472,4.472,0,0,1-1.7,1.953,5.021,5.021,0,0,1-5.059.008,4.515,4.515,0,0,1-1.719-1.941,6.67,6.67,0,0,1-.617-2.9V11.07a6.831,6.831,0,0,1,.605-2.957,4.508,4.508,0,0,1,1.711-1.961,5.014,5.014,0,0,1,5.055,0,4.508,4.508,0,0,1,1.711,1.961,6.811,6.811,0,0,1,.605,2.949ZM92.6,11.055a4.787,4.787,0,0,0-.641-2.719,2.263,2.263,0,0,0-3.648-.012,4.732,4.732,0,0,0-.648,2.691v.555a4.847,4.847,0,0,0,.641,2.7,2.243,2.243,0,0,0,3.656.035,4.819,4.819,0,0,0,.641-2.7Z" transform="translate(-1298 8986.676)"/><path class="c" d="M8.2,14.18l2.578-8.555h2.609L9.43,17H6.984L3.039,5.625h2.6Zm12.094.477H16.188L15.406,17H12.914L17.148,5.625H19.32L23.578,17H21.086Zm-3.477-1.9h2.844L18.234,8.5Zm10.164,2.359h4.977V17h-7.32V5.625h2.344ZM42.148,11.57a6.867,6.867,0,0,1-.594,2.945,4.472,4.472,0,0,1-1.7,1.953,5.021,5.021,0,0,1-5.059.008,4.515,4.515,0,0,1-1.719-1.941,6.67,6.67,0,0,1-.617-2.9V11.07a6.831,6.831,0,0,1,.605-2.957,4.508,4.508,0,0,1,1.711-1.961,5.014,5.014,0,0,1,5.055,0,4.508,4.508,0,0,1,1.711,1.961,6.811,6.811,0,0,1,.605,2.949Zm-2.375-.516a4.787,4.787,0,0,0-.641-2.719,2.263,2.263,0,0,0-3.648-.012,4.732,4.732,0,0,0-.648,2.691v.555a4.847,4.847,0,0,0,.641,2.7,2.243,2.243,0,0,0,3.656.035,4.819,4.819,0,0,0,.641-2.7Zm8.289,1.781H46.2V17H43.852V5.625h4.227a4.778,4.778,0,0,1,3.109.9,3.1,3.1,0,0,1,1.094,2.539,3.5,3.5,0,0,1-.5,1.941,3.437,3.437,0,0,1-1.527,1.238l2.461,4.648V17H50.2Zm-1.867-1.9h1.891a1.936,1.936,0,0,0,1.367-.449,1.606,1.606,0,0,0,.484-1.238,1.719,1.719,0,0,0-.457-1.266,1.9,1.9,0,0,0-1.4-.461H46.2ZM66.141,7.523H62.656V17H60.313V7.523H56.875v-1.9h9.266ZM76.6,11.57a6.867,6.867,0,0,1-.594,2.945,4.472,4.472,0,0,1-1.7,1.953,5.021,5.021,0,0,1-5.059.008,4.515,4.515,0,0,1-1.719-1.941,6.67,6.67,0,0,1-.617-2.9V11.07a6.831,6.831,0,0,1,.605-2.957A4.508,4.508,0,0,1,69.23,6.152a5.014,5.014,0,0,1,5.055,0A4.508,4.508,0,0,1,76,8.113a6.811,6.811,0,0,1,.605,2.949Zm-2.375-.516a4.787,4.787,0,0,0-.641-2.719,2.263,2.263,0,0,0-3.648-.012,4.732,4.732,0,0,0-.648,2.691v.555a4.847,4.847,0,0,0,.641,2.7,2.243,2.243,0,0,0,3.656.035,4.819,4.819,0,0,0,.641-2.7ZM86.2,7.523H82.719V17H80.375V7.523H76.938v-1.9H86.2Zm6.82,7.133H88.914L88.133,17H85.641L89.875,5.625h2.172L96.3,17H93.813Zm-3.477-1.9h2.844L90.961,8.5Zm10.164,2.359h4.977V17h-7.32V5.625h2.344Z" transform="translate(-458 8986.676)"/><path class="g" d="M43.625,14.07a1.626,1.626,0,0,0-.5-1.211,4.508,4.508,0,0,0-1.7-.891A5.447,5.447,0,0,1,39,10.645a2.921,2.921,0,0,1-.762-2.074,3,3,0,0,1,.746-2.1,3.17,3.17,0,0,1,2.051-.977V3.781H42.2V5.5a3.011,3.011,0,0,1,2.043,1.1,3.959,3.959,0,0,1,.73,2.523H43.531a2.706,2.706,0,0,0-.523-1.75,1.722,1.722,0,0,0-1.414-.648,1.953,1.953,0,0,0-1.422.48,1.786,1.786,0,0,0-.492,1.34,1.632,1.632,0,0,0,.52,1.27,4.789,4.789,0,0,0,1.711.859,7.188,7.188,0,0,1,1.859.852,2.991,2.991,0,0,1,.984,1.082,3.128,3.128,0,0,1,.316,1.445,2.9,2.9,0,0,1-.793,2.125,3.516,3.516,0,0,1-2.223.953v1.492H40.9V17.133A3.369,3.369,0,0,1,38.621,16.1a3.493,3.493,0,0,1-.824-2.449h1.445a2.3,2.3,0,0,0,.57,1.672,2.153,2.153,0,0,0,1.617.586,2.426,2.426,0,0,0,1.609-.492A1.662,1.662,0,0,0,43.625,14.07Zm13.3-.891h1.578v1.18H56.93V17H55.477V14.359H50.3v-.852l5.094-7.883H56.93Zm-4.992,0h3.539V7.6l-.172.313Zm15.008-1.031a6.61,6.61,0,0,1-.867,3.773,3.6,3.6,0,0,1-5.406.027,6.274,6.274,0,0,1-.906-3.605v-1.93a6.463,6.463,0,0,1,.867-3.727,3.668,3.668,0,0,1,5.422-.043,6.237,6.237,0,0,1,.891,3.629ZM65.5,10.172A5.3,5.3,0,0,0,64.984,7.5a1.775,1.775,0,0,0-1.633-.84,1.751,1.751,0,0,0-1.617.836,5.171,5.171,0,0,0-.523,2.57v2.313a5.381,5.381,0,0,0,.535,2.723,1.771,1.771,0,0,0,1.621.879,1.747,1.747,0,0,0,1.59-.828,5.186,5.186,0,0,0,.543-2.609Zm10.43,1.977a6.61,6.61,0,0,1-.867,3.773,3.6,3.6,0,0,1-5.406.027,6.274,6.274,0,0,1-.906-3.605v-1.93a6.463,6.463,0,0,1,.867-3.727,3.668,3.668,0,0,1,5.422-.043,6.237,6.237,0,0,1,.891,3.629Zm-1.445-1.977A5.3,5.3,0,0,0,73.969,7.5a1.775,1.775,0,0,0-1.633-.84,1.751,1.751,0,0,0-1.617.836,5.171,5.171,0,0,0-.523,2.57v2.313A5.381,5.381,0,0,0,70.73,15.1a1.771,1.771,0,0,0,1.621.879,1.747,1.747,0,0,0,1.59-.828,5.186,5.186,0,0,0,.543-2.609Zm3.477,6.07a.905.905,0,0,1,.223-.625.848.848,0,0,1,.668-.25.874.874,0,0,1,.676.25.887.887,0,0,1,.23.625.839.839,0,0,1-.23.6.89.89,0,0,1-.676.242.8.8,0,0,1-.891-.844Zm11.164-4.094a6.61,6.61,0,0,1-.867,3.773,3.6,3.6,0,0,1-5.406.027,6.274,6.274,0,0,1-.906-3.605v-1.93a6.463,6.463,0,0,1,.867-3.727,3.668,3.668,0,0,1,5.422-.043,6.237,6.237,0,0,1,.891,3.629ZM87.68,10.172A5.3,5.3,0,0,0,87.164,7.5a1.775,1.775,0,0,0-1.633-.84,1.751,1.751,0,0,0-1.617.836,5.171,5.171,0,0,0-.523,2.57v2.313a5.381,5.381,0,0,0,.535,2.723,1.771,1.771,0,0,0,1.621.879,1.747,1.747,0,0,0,1.59-.828,5.186,5.186,0,0,0,.543-2.609Zm10.43,1.977a6.61,6.61,0,0,1-.867,3.773,3.6,3.6,0,0,1-5.406.027,6.274,6.274,0,0,1-.906-3.605v-1.93A6.463,6.463,0,0,1,91.8,6.688a3.668,3.668,0,0,1,5.422-.043,6.237,6.237,0,0,1,.891,3.629Zm-1.445-1.977A5.3,5.3,0,0,0,96.148,7.5a1.775,1.775,0,0,0-1.633-.84,1.751,1.751,0,0,0-1.617.836,5.171,5.171,0,0,0-.523,2.57v2.313A5.381,5.381,0,0,0,92.91,15.1a1.771,1.771,0,0,0,1.621.879,1.747,1.747,0,0,0,1.59-.828,5.186,5.186,0,0,0,.543-2.609Zm10.43,1.977a6.61,6.61,0,0,1-.867,3.773,3.6,3.6,0,0,1-5.406.027,6.274,6.274,0,0,1-.906-3.605v-1.93a6.463,6.463,0,0,1,.867-3.727,3.668,3.668,0,0,1,5.422-.043,6.237,6.237,0,0,1,.891,3.629Zm-1.445-1.977a5.3,5.3,0,0,0-.516-2.676,1.775,1.775,0,0,0-1.633-.84,1.751,1.751,0,0,0-1.617.836,5.171,5.171,0,0,0-.523,2.57v2.313a5.381,5.381,0,0,0,.535,2.723,1.771,1.771,0,0,0,1.621.879,1.747,1.747,0,0,0,1.59-.828,5.186,5.186,0,0,0,.543-2.609Z" transform="translate(-446 9065.676)"/><path class="g" d="M5.256,13.3A7.935,7.935,0,0,1,2.1,11.762a2.93,2.93,0,0,1-.989-2.246,3.1,3.1,0,0,1,1.208-2.5,4.8,4.8,0,0,1,3.142-.989,5.243,5.243,0,0,1,2.351.51,3.866,3.866,0,0,1,1.6,1.406A3.6,3.6,0,0,1,9.976,9.9h-1.7A2.327,2.327,0,0,0,7.541,8.08a3.009,3.009,0,0,0-2.083-.664,3.078,3.078,0,0,0-1.947.549,1.831,1.831,0,0,0-.7,1.525,1.648,1.648,0,0,0,.664,1.323,6.514,6.514,0,0,0,2.259.989,10.46,10.46,0,0,1,2.5.989,3.788,3.788,0,0,1,1.336,1.261,3.219,3.219,0,0,1,.435,1.7A2.99,2.99,0,0,1,8.789,18.24a5.171,5.171,0,0,1-3.243.936,6.015,6.015,0,0,1-2.461-.505,4.142,4.142,0,0,1-1.762-1.384,3.378,3.378,0,0,1-.62-2H2.4a2.2,2.2,0,0,0,.857,1.833,3.608,3.608,0,0,0,2.29.672,3.317,3.317,0,0,0,2.048-.545,1.77,1.77,0,0,0,.712-1.485,1.738,1.738,0,0,0-.659-1.455A7.6,7.6,0,0,0,5.256,13.3ZM19.4,13.085H13.852V17.62h6.442V19h-8.13V6.2h8.042V7.592H13.852v4.113H19.4Zm7.69.738H24.082V19h-1.7V6.2h4.236a5.014,5.014,0,0,1,3.327.984,3.542,3.542,0,0,1,1.165,2.865,3.445,3.445,0,0,1-.646,2.083,3.856,3.856,0,0,1-1.8,1.327l3.006,5.432V19H29.865Zm-3.006-1.38h2.593a2.928,2.928,0,0,0,2-.65,2.2,2.2,0,0,0,.743-1.74,2.314,2.314,0,0,0-.708-1.819,3,3,0,0,0-2.043-.642H24.082Zm13.465,4.315L41.2,6.2h1.846L38.3,19H36.809L32.071,6.2h1.837ZM46.573,19H44.886V6.2h1.688Zm12.5-4.061a4.708,4.708,0,0,1-1.5,3.133,4.911,4.911,0,0,1-3.353,1.1,4.509,4.509,0,0,1-3.634-1.626A6.542,6.542,0,0,1,49.219,13.2v-1.23a7.291,7.291,0,0,1,.637-3.138,4.76,4.76,0,0,1,1.806-2.079,5.029,5.029,0,0,1,2.707-.725,4.624,4.624,0,0,1,3.27,1.138,4.765,4.765,0,0,1,1.433,3.151h-1.7A3.66,3.66,0,0,0,56.421,8.1a2.891,2.891,0,0,0-2.052-.686,3.02,3.02,0,0,0-2.536,1.2,5.484,5.484,0,0,0-.918,3.4v1.239a5.637,5.637,0,0,0,.87,3.313A2.812,2.812,0,0,0,54.22,17.8a3.247,3.247,0,0,0,2.158-.637,3.536,3.536,0,0,0,1-2.219ZM63.185,19H61.5V6.2h1.688Zm12.929-5.985A7.916,7.916,0,0,1,75.48,16.3a4.793,4.793,0,0,1-1.793,2.14,4.948,4.948,0,0,1-7.2-2.123,7.6,7.6,0,0,1-.664-3.186v-.923a7.822,7.822,0,0,1,.642-3.261,4.745,4.745,0,0,1,4.5-2.918,4.961,4.961,0,0,1,2.711.743A4.784,4.784,0,0,1,75.48,8.923a7.955,7.955,0,0,1,.633,3.283Zm-1.679-.826a5.738,5.738,0,0,0-.914-3.494,3.015,3.015,0,0,0-2.558-1.217,2.982,2.982,0,0,0-2.518,1.217,5.62,5.62,0,0,0-.945,3.379v.94a5.746,5.746,0,0,0,.927,3.467,3.249,3.249,0,0,0,5.084.07,5.714,5.714,0,0,0,.923-3.415ZM83.1,19V6.2h3.612a5.815,5.815,0,0,1,2.953.738,4.993,4.993,0,0,1,1.982,2.1,6.837,6.837,0,0,1,.708,3.129v.817a6.861,6.861,0,0,1-.7,3.173,4.915,4.915,0,0,1-2,2.092A6.185,6.185,0,0,1,86.643,19ZM84.788,7.592V17.62h1.775A3.864,3.864,0,0,0,89.6,16.407a5.008,5.008,0,0,0,1.085-3.454v-.747a5.088,5.088,0,0,0-1.024-3.388,3.645,3.645,0,0,0-2.9-1.226Zm17.35,5.493H96.592V17.62h6.442V19H94.9V6.2h8.042V7.592H96.592v4.113h5.546Zm14.687,0h-5.546V17.62h6.442V19h-8.13V6.2h8.042V7.592h-6.354v4.113h5.546ZM129.656,19h-1.7l-6.442-9.861V19h-1.7V6.2h1.7l6.46,9.905V6.2h1.679Zm10.23-5.915h-5.546V17.62h6.442V19h-8.13V6.2H140.7V7.592h-6.354v4.113h5.546Zm7.69.738h-3.006V19h-1.7V6.2h4.236a5.014,5.014,0,0,1,3.327.984,3.542,3.542,0,0,1,1.165,2.865,3.445,3.445,0,0,1-.646,2.083,3.856,3.856,0,0,1-1.8,1.327l3.006,5.432V19h-1.811Zm-3.006-1.38h2.593a2.928,2.928,0,0,0,2-.65,2.2,2.2,0,0,0,.743-1.74,2.314,2.314,0,0,0-.708-1.819,3,3,0,0,0-2.043-.642h-2.584Zm18.844,4.878a3.9,3.9,0,0,1-1.815,1.393,7.331,7.331,0,0,1-2.711.461,5.258,5.258,0,0,1-2.777-.734,4.889,4.889,0,0,1-1.876-2.087,7.21,7.21,0,0,1-.681-3.138V12.1A6.73,6.73,0,0,1,154.9,7.618,4.7,4.7,0,0,1,158.7,6.027a4.856,4.856,0,0,1,3.226,1.024,4.461,4.461,0,0,1,1.494,2.9h-1.687a2.787,2.787,0,0,0-3.023-2.54,2.988,2.988,0,0,0-2.571,1.191,5.811,5.811,0,0,0-.883,3.45V13.1a5.446,5.446,0,0,0,.984,3.423A3.192,3.192,0,0,0,158.9,17.8a5.869,5.869,0,0,0,1.661-.211,2.567,2.567,0,0,0,1.178-.712V14h-2.962V12.628h4.641ZM168.038,19h-1.687V6.2h1.688Zm-.053-16.33h1.969L167.6,5.254h-1.31Zm10.2,12.99h-5.361l-1.2,3.34h-1.74l4.887-12.8h1.477l4.9,12.8h-1.731Zm-4.852-1.389h4.351l-2.18-5.985ZM187.321,19V6.2h3.612a5.815,5.815,0,0,1,2.953.738,4.993,4.993,0,0,1,1.982,2.1,6.837,6.837,0,0,1,.708,3.129v.817a6.861,6.861,0,0,1-.7,3.173,4.915,4.915,0,0,1-2,2.092,6.185,6.185,0,0,1-3.019.747Zm1.688-11.408V17.62h1.775a3.864,3.864,0,0,0,3.037-1.213,5.008,5.008,0,0,0,1.085-3.454v-.747a5.088,5.088,0,0,0-1.024-3.388,3.645,3.645,0,0,0-2.9-1.226Zm17.35,5.493h-5.546V17.62h6.442V19h-8.13V6.2h8.042V7.592h-6.354v4.113h5.546Zm4.693,4.535h6.064V19h-7.761V6.2h1.7ZM231.1,13.542a7.436,7.436,0,0,1-.976,4.245,4.054,4.054,0,0,1-6.082.031,7.058,7.058,0,0,1-1.02-4.056V11.591A7.271,7.271,0,0,1,224,7.4a4.127,4.127,0,0,1,6.1-.048,7.017,7.017,0,0,1,1,4.083Zm-1.626-2.224a5.958,5.958,0,0,0-.58-3.01,2,2,0,0,0-1.837-.945,1.97,1.97,0,0,0-1.819.94,5.817,5.817,0,0,0-.589,2.892v2.6a6.053,6.053,0,0,0,.6,3.063,1.993,1.993,0,0,0,1.824.989,1.966,1.966,0,0,0,1.789-.932,5.834,5.834,0,0,0,.611-2.936ZM238.526,19h-1.635V8.163l-3.278,1.2V7.891l4.658-1.749h.255Zm16.708-3.34h-5.361l-1.2,3.34h-1.74l4.887-12.8h1.477l4.9,12.8h-1.731Zm-4.852-1.389h4.351l-2.18-5.985Zm11.224,3.349h6.064V19H259.91V6.2h1.7Zm14.388-5.81h1.222a2.685,2.685,0,0,0,1.811-.606,2.026,2.026,0,0,0,.659-1.591,1.985,1.985,0,0,0-2.241-2.25,2.331,2.331,0,0,0-1.683.6,2.107,2.107,0,0,0-.628,1.6h-1.626a3.264,3.264,0,0,1,1.112-2.527,4.05,4.05,0,0,1,2.826-1.006,4,4,0,0,1,2.839.958,3.461,3.461,0,0,1,1.028,2.663,2.809,2.809,0,0,1-.541,1.617,3.264,3.264,0,0,1-1.472,1.169,3.145,3.145,0,0,1,1.63,1.107,3.076,3.076,0,0,1,.576,1.89,3.491,3.491,0,0,1-1.125,2.733,4.213,4.213,0,0,1-2.927,1.011,4.324,4.324,0,0,1-2.931-.976,3.236,3.236,0,0,1-1.129-2.575h1.635a2.092,2.092,0,0,0,.659,1.617,2.507,2.507,0,0,0,1.767.606,2.46,2.46,0,0,0,1.8-.615,2.371,2.371,0,0,0,.624-1.767,2.151,2.151,0,0,0-.686-1.714,2.987,2.987,0,0,0-1.978-.615h-1.222Zm15.768,1.731a7.436,7.436,0,0,1-.976,4.245,4.054,4.054,0,0,1-6.082.031,7.058,7.058,0,0,1-1.02-4.056V11.591A7.271,7.271,0,0,1,284.66,7.4a4.127,4.127,0,0,1,6.1-.048,7.017,7.017,0,0,1,1,4.083Zm-1.626-2.224a5.958,5.958,0,0,0-.58-3.01,2,2,0,0,0-1.837-.945,1.97,1.97,0,0,0-1.819.94,5.817,5.817,0,0,0-.589,2.892v2.6a6.053,6.053,0,0,0,.6,3.063,1.993,1.993,0,0,0,1.824.989,1.966,1.966,0,0,0,1.789-.932,5.834,5.834,0,0,0,.611-2.936ZM298.723,19V6.2h3.612a5.815,5.815,0,0,1,2.953.738,4.993,4.993,0,0,1,1.982,2.1,6.837,6.837,0,0,1,.708,3.129v.817a6.861,6.861,0,0,1-.7,3.173,4.915,4.915,0,0,1-2,2.092,6.185,6.185,0,0,1-3.019.747ZM300.41,7.592V17.62h1.775a3.864,3.864,0,0,0,3.037-1.213,5.008,5.008,0,0,0,1.085-3.454v-.747a5.088,5.088,0,0,0-1.024-3.388,3.645,3.645,0,0,0-2.9-1.226Zm17.35,5.493h-5.546V17.62h6.442V19h-8.13V6.2h8.042V7.592h-6.354v4.113h5.546Zm11.224.211a7.935,7.935,0,0,1-3.16-1.534,2.93,2.93,0,0,1-.989-2.246,3.1,3.1,0,0,1,1.208-2.5,4.8,4.8,0,0,1,3.142-.989,5.243,5.243,0,0,1,2.351.51,3.866,3.866,0,0,1,1.6,1.406A3.6,3.6,0,0,1,333.7,9.9h-1.7a2.327,2.327,0,0,0-.738-1.824,3.009,3.009,0,0,0-2.083-.664,3.078,3.078,0,0,0-1.947.549,1.831,1.831,0,0,0-.7,1.525,1.648,1.648,0,0,0,.664,1.323,6.514,6.514,0,0,0,2.259.989,10.46,10.46,0,0,1,2.5.989,3.788,3.788,0,0,1,1.336,1.261,3.219,3.219,0,0,1,.435,1.7,2.99,2.99,0,0,1-1.213,2.492,5.171,5.171,0,0,1-3.243.936,6.015,6.015,0,0,1-2.461-.505,4.142,4.142,0,0,1-1.762-1.384,3.378,3.378,0,0,1-.62-2h1.7a2.2,2.2,0,0,0,.857,1.833,3.608,3.608,0,0,0,2.29.672,3.317,3.317,0,0,0,2.048-.545,1.77,1.77,0,0,0,.712-1.485,1.738,1.738,0,0,0-.659-1.455A7.6,7.6,0,0,0,328.983,13.3Zm14.142-.211h-5.546V17.62h6.442V19h-8.13V6.2h8.042V7.592h-6.354v4.113h5.546Zm4.685.905V19h-1.687V6.2h4.72a4.742,4.742,0,0,1,3.292,1.072,3.635,3.635,0,0,1,1.191,2.839,3.587,3.587,0,0,1-1.165,2.87,4.954,4.954,0,0,1-3.335,1.006Zm0-1.38h3.032a3.035,3.035,0,0,0,2.074-.637,2.328,2.328,0,0,0,.721-1.841,2.4,2.4,0,0,0-.721-1.828,2.843,2.843,0,0,0-1.978-.712H347.81Zm18.51-5.019h-4.113V19h-1.679V7.592h-4.1V6.2h9.9ZM370.028,19h-1.687V6.2h1.688Zm10.318-5.915H374.8V17.62h6.442V19h-8.13V6.2h8.042V7.592H374.8v4.113h5.546ZM385.523,6.2l4.184,10.441L393.891,6.2h2.188V19h-1.687V14.017l.158-5.379L390.349,19h-1.292L384.864,8.664l.167,5.353V19h-1.687V6.2ZM399.059,19V6.2h4.184a4.856,4.856,0,0,1,3.133.861,3.1,3.1,0,0,1,1.05,2.549,2.6,2.6,0,0,1-.51,1.586,3.3,3.3,0,0,1-1.389,1.068,2.968,2.968,0,0,1,1.639,1.1,3.166,3.166,0,0,1,.6,1.938,3.423,3.423,0,0,1-1.116,2.707A4.616,4.616,0,0,1,403.5,19Zm1.688-5.985V17.62h2.786a2.683,2.683,0,0,0,1.859-.611,2.145,2.145,0,0,0,.681-1.683q0-2.312-2.514-2.312Zm0-1.354h2.549a2.675,2.675,0,0,0,1.771-.554,1.855,1.855,0,0,0,.664-1.5,1.824,1.824,0,0,0-.615-1.534,3.026,3.026,0,0,0-1.872-.479h-2.5Zm14.212,2.162h-3.006V19h-1.7V6.2h4.236a5.014,5.014,0,0,1,3.327.984,3.542,3.542,0,0,1,1.165,2.865,3.445,3.445,0,0,1-.646,2.083,3.856,3.856,0,0,1-1.8,1.327l3.006,5.432V19h-1.811Zm-3.006-1.38h2.593a2.928,2.928,0,0,0,2-.65,2.2,2.2,0,0,0,.743-1.74,2.314,2.314,0,0,0-.708-1.819,3,3,0,0,0-2.043-.642h-2.584Zm16.629.642h-5.546V17.62h6.442V19h-8.13V6.2h8.042V7.592h-6.354v4.113h5.546ZM444,19h-8.385V17.831l4.43-4.922a10.524,10.524,0,0,0,1.358-1.815,3.029,3.029,0,0,0,.374-1.446A2.3,2.3,0,0,0,441.167,8a2.12,2.12,0,0,0-1.617-.642,2.511,2.511,0,0,0-1.885.69,2.635,2.635,0,0,0-.672,1.92h-1.626A3.774,3.774,0,0,1,436.5,7.117a4.219,4.219,0,0,1,3.045-1.09,4.054,4.054,0,0,1,2.821.936,3.193,3.193,0,0,1,1.037,2.492q0,1.89-2.408,4.5l-3.428,3.718H444Zm9.747-5.458a7.436,7.436,0,0,1-.976,4.245,4.054,4.054,0,0,1-6.082.031,7.058,7.058,0,0,1-1.02-4.056V11.591a7.271,7.271,0,0,1,.976-4.192,4.127,4.127,0,0,1,6.1-.048,7.017,7.017,0,0,1,1,4.083Zm-1.626-2.224a5.958,5.958,0,0,0-.58-3.01,2,2,0,0,0-1.837-.945,1.97,1.97,0,0,0-1.819.94,5.817,5.817,0,0,0-.589,2.892v2.6a6.053,6.053,0,0,0,.6,3.063,1.993,1.993,0,0,0,1.824.989,1.966,1.966,0,0,0,1.789-.932,5.834,5.834,0,0,0,.611-2.936ZM464.212,19h-8.385V17.831l4.43-4.922a10.524,10.524,0,0,0,1.358-1.815,3.029,3.029,0,0,0,.374-1.446A2.3,2.3,0,0,0,461.382,8a2.12,2.12,0,0,0-1.617-.642,2.511,2.511,0,0,0-1.885.69,2.635,2.635,0,0,0-.672,1.92h-1.626a3.774,3.774,0,0,1,1.138-2.856,4.219,4.219,0,0,1,3.045-1.09,4.054,4.054,0,0,1,2.821.936,3.193,3.193,0,0,1,1.037,2.492q0,1.89-2.408,4.5l-3.428,3.718h6.425Zm9.747-5.458a7.436,7.436,0,0,1-.976,4.245,4.054,4.054,0,0,1-6.082.031,7.058,7.058,0,0,1-1.02-4.056V11.591a7.271,7.271,0,0,1,.976-4.192,4.127,4.127,0,0,1,6.1-.048,7.017,7.017,0,0,1,1,4.083Zm-1.626-2.224a5.958,5.958,0,0,0-.58-3.01,2,2,0,0,0-1.837-.945,1.97,1.97,0,0,0-1.819.94,5.817,5.817,0,0,0-.589,2.892v2.6a6.053,6.053,0,0,0,.6,3.063,1.993,1.993,0,0,0,1.824.989,1.966,1.966,0,0,0,1.789-.932,5.834,5.834,0,0,0,.611-2.936Z" transform="translate(-1310 9065)"/></g></svg>