<svg xmlns="http://www.w3.org/2000/svg" width="211.354" height="240.905" viewBox="0 0 211.354 240.905"><defs><style>.a{fill:#344154;}.b{fill:#5e6178;}.c{fill:#c3c3c1;}.d{fill:#e7e7e6;}.e{fill:#a2a2a0;}.f{fill:#515151;}.g{fill:#838382;}.h{fill:#d0d0ce;}.i{fill:#c29359;}.j{fill:#0f3960;}.k{fill:#334b60;}.l{fill:#d8d8d7;}.m{fill:#303030;}.n{fill:#1a1a1a;}.o{fill:#454545;}.p{fill:#7a7171;}.q{fill:#666662;}.r{fill:#727271;}.s{fill:#ffa47c;}.t{fill:#540000;}.u{fill:#ffbd95;}.v{fill:#a66d58;}.w{fill:#d9a171;}.x{fill:#ffbf9d;}.y{fill:#ff9a6c;}.z{fill:#6595bf;}.aa{fill:#84aacc;}</style></defs><g transform="translate(-53.84 -43.48)"><g transform="translate(53.84 43.48)"><g transform="translate(31.217 46.214)"><path class="a" d="M141.114,176h0a9.53,9.53,0,0,0-8.292,4.83l-15.952,28.08h48.487L149.4,180.829A9.534,9.534,0,0,0,141.114,176Z" transform="translate(-116.87 -156.58)"/><rect class="b" width="24.144" height="42.46" transform="translate(12.169 9.856)"/><rect class="c" width="24.144" height="21.222" transform="translate(12.169 7.914)"/><path class="d" d="M149.542,156.69h16.007a.3.3,0,0,1,.3.3v18.979H149.24V156.992a.3.3,0,0,1,.3-.3Z" transform="translate(-133.208 -146.834)"/><path class="e" d="M165.589,198.78s-8.915.594-14.769,3.041c-5.23,2.194-5.29,12.738-2.759,13.159s17.528,2.754,17.528,2.754H141.44V195.62h24.149Z" transform="translate(-129.271 -166.483)"/><path class="d" d="M159.626,209.324h-4.155l-6.231-13.7h16.616Z" transform="translate(-133.208 -166.483)"/><rect class="f" width="4.091" height="0.936" transform="translate(22.262 42.846)"/><rect class="f" width="0.584" height="7.271" transform="translate(23.317 43.782)"/><rect class="f" width="0.584" height="7.271" transform="translate(24.922 43.782)"/><path class="g" d="M129.569,199.16v20.346l-11.649.158Z" transform="translate(-117.4 -168.27)"/><path class="b" d="M146.962,156.72l-5.522,1.828v17.439H145.3Z" transform="translate(-129.271 -146.849)"/><path class="h" d="M151.592,156.69l.069,16.176a3.12,3.12,0,0,0,3.115,3.105h0a1.857,1.857,0,0,1,1.852,1.714l.906,12h-2.075l-6.231-13.709V158.587a1.9,1.9,0,0,1,1.9-1.9Z" transform="translate(-133.203 -146.834)"/><rect class="i" width="2.516" height="9.871" rx="0.08" transform="translate(22.986)"/><rect class="j" width="4.091" height="9.306" rx="0.34" transform="translate(22.262 0.56)"/><path class="k" d="M163.351,146.161V138.99a1.07,1.07,0,0,1,1.065-1.07H162.91a1.07,1.07,0,0,0-1.07,1.07v7.172a1.07,1.07,0,0,0,1.07,1.07H164.4A1.07,1.07,0,0,1,163.351,146.161Z" transform="translate(-139.568 -137.36)"/></g><g transform="translate(9.851)"><rect class="a" width="3.507" height="95.706" transform="translate(4.878 2.818)"/><path class="l" d="M99.905,118.9H78.187a4.457,4.457,0,0,1-4.457-4.457h30.637a4.457,4.457,0,0,1-4.462,4.457Z" transform="translate(-73.73 -79.296)"/><g transform="translate(11.124 20.638)"><rect class="i" width="3.893" height="14.506" transform="translate(2.249)"/><rect class="m" width="8.385" height="13.496" transform="translate(0 1.015)"/><rect class="n" width="2.625" height="13.496" transform="translate(0 1.015)"/><rect class="o" width="1.659" height="13.496" transform="translate(5.661 1.015)"/></g><path class="p" d="M84.988,48.041H80.8a2.288,2.288,0,0,1-2.278-2.283h0A2.283,2.283,0,0,1,80.8,43.48h4.19a2.288,2.288,0,0,1,2.283,2.278h0A2.288,2.288,0,0,1,84.988,48.041Z" transform="translate(-76.148 -43.48)"/></g><path class="q" d="M154.841,386.387c-.193-.054-19.524-5.2-39.577-5.2-5.131,0-9.361-1.521-12.233-4.383a13.08,13.08,0,0,1-3.274-5.488,12.3,12.3,0,0,1-6.691-4.393,18.018,18.018,0,0,1-3.353-11.188,30.826,30.826,0,0,1,8.548-21.168C83.616,311.744,83.953,262.1,83.992,259.82l3.115.03c0,.55-.352,50.394,13.516,72.617a21.113,21.113,0,0,1,13.164-4.641c9.291,0,14.155,4.883,14.155,9.7a7.429,7.429,0,0,1-3.175,6,14.538,14.538,0,0,1-8.657,2.412,18.8,18.8,0,0,1-13.66-6.052,29.065,29.065,0,0,1-2.323-2.665,28.9,28.9,0,0,0-7.3,18.513,14.989,14.989,0,0,0,2.694,9.276,9.128,9.128,0,0,0,3.63,2.818c0-.253,0-.5,0-.763,0-6.934,4.819-14.12,12.877-14.12,5.121,0,9.286,3.848,9.286,8.578a8.641,8.641,0,0,1-4.309,7.251c-3.081,2.026-7.508,3.051-13.154,3.051h-.565a9.871,9.871,0,0,0,1.951,2.783c2.278,2.268,5.745,3.467,10.034,3.467,20.479,0,40.2,5.26,40.389,5.309Zm-52.5-17.751a14.5,14.5,0,0,0,1.486.074c4.953,0,8.915-.877,11.446-2.541a5.664,5.664,0,0,0,2.9-4.646c0-2.625-2.357-5.448-6.171-5.448-6.117,0-9.772,5.6-9.772,11a11.664,11.664,0,0,0,.119,1.555Zm.05-33.565a27.483,27.483,0,0,0,2.263,2.625c3.417,3.467,7.157,5.126,11.446,5.126a11.313,11.313,0,0,0,6.775-1.8,4.373,4.373,0,0,0,1.927-3.5c0-3.194-3.868-6.587-11.04-6.587a17.716,17.716,0,0,0-11.362,4.131Z" transform="translate(-69.055 -152.673)"/><g transform="translate(138.082 66.45)"><rect class="f" width="4.319" height="72.171" transform="translate(8.855 164.589) rotate(180)"/><path class="m" d="M0,0H63.548a.773.773,0,0,1,.773.773V10.955a.773.773,0,0,1-.773.773H0Z" transform="translate(64.321 97.5) rotate(180)"/><rect class="f" width="4.319" height="121.847" transform="translate(66.971 164.589) rotate(180)"/><path class="m" d="M456.227,220.6l3.734.411a1.808,1.808,0,0,0,1.981-1.545l5.517-39.354a1.8,1.8,0,0,0-1.59-2.041l-3.734-.411a1.8,1.8,0,0,0-1.981,1.545l-5.522,39.354a1.8,1.8,0,0,0,1.595,2.04Z" transform="translate(-394.204 -177.648)"/></g><g transform="translate(65.939 218.154)"><path class="a" d="M240.342,497.622,226.3,504.278H208.773L203.34,492.55Z" transform="translate(-195.236 -488.293)"/><rect class="f" width="51.914" height="3.17" transform="translate(0.431 0) rotate(7.81)"/><path class="r" d="M240.342,497.622l-37-5.072,3.64,7.86,8.509.768v-4.314Z" transform="translate(-195.236 -488.293)"/></g><g transform="translate(2.932 98.529)"><rect class="a" width="133.089" height="8.638"/><path class="b" d="M156.09,286.946H175.3l31.157-27.086H93.78Z" transform="translate(-76.931 -251.222)"/><path class="b" d="M156.68,409.771h19.212l31.158-95.221H187.837Z" transform="translate(-108.678 -278.826)"/><path class="b" d="M202.4,518.241H104.26V512.4l25.962-5.592h19.212L202.4,512.4Z" transform="translate(-82.22 -375.865)"/><path class="a" d="M204.077,259.7,89.06,259.55l51.28,21.43,14.185-16.369h43.9Z" transform="translate(-74.549 -251.066)"/><path class="r" d="M248.973,261.779H196.306S184.627,277.871,184.35,278.5l8.326-18.9,59.5.154Z" transform="translate(-122.644 -251.091)"/></g><g transform="translate(58.605 13.745)"><path class="s" d="M255.135,224.656c-1.486,3.492-11.654,5.012-18.682,5.527a127.3,127.3,0,0,1-27.775-1.317l-.188-6.176s36.541-4.21,38.537-4.314S257.68,218.639,255.135,224.656Z" transform="translate(-190.501 -145.494)"/><path class="s" d="M320.859,172.434c2.714,2.694,2.348,11.505-1.634,15.086s-29.072,16.755-30.925,16.275-5.7-3.932-4.705-6.315,17.2-13.977,23.818-19.37C310.875,175.281,317.323,168.932,320.859,172.434Z" transform="translate(-228.327 -121.793)"/><path class="t" d="M324.107,358.4s-59.928-27.978-53.143-42.063c3-6.2,41.083-9.118,41.083-9.118s21.48,19.93,19.117,23.7C323.537,343.092,324.107,358.4,324.107,358.4Z" transform="translate(-221.763 -190.342)"/><path class="s" d="M353.033,320.68c-.991,3.7-22.158,5.859-36.407,4.027-13.526-1.743-31.96-2.343-33.01-3.432s-3.036-10.985-2.145-12.624,54.628-10.589,57.387-10.921S357.317,304.638,353.033,320.68Z" transform="translate(-227.224 -185.546)"/><g transform="translate(22.158 122.635)"><path class="s" d="M286.98,326.385c5.6,7.167,4.586,23.619,3.3,29.81s-13.932,38.4-13.912,40.706-8.42-1.154-8.177-2.417c2.561-12.506,2.669-46.635,2.625-50.022s-2.006-17.087.287-21.544C275.817,313.786,283.786,322.285,286.98,326.385Z" transform="translate(-242.791 -318.845)"/><g transform="translate(0 74.476)"><path class="s" d="M252.706,472.8a28.129,28.129,0,0,1-.3,6.047,6.178,6.178,0,0,1-4.284,3.838c-3.274.158-4.779-1.689-8.152-2.174s-9.47-.188-12.684-.748c-2.476-.431-6.414-1.733-5.943-2.823s7.285-2.417,7.285-2.417c13.615-2.476,16.111-5.3,16.111-5.3S252.706,472.36,252.706,472.8Z" transform="translate(-219.126 -469.22)"/><path class="m" d="M226.418,479.9s-2.036.421-2.11.911c-.109.7,1.842,1.7,2.561,1.867,6.439,1.516,16.7,1.679,19.236,1.218a8.96,8.96,0,0,0,4.4-2.308c.367.342.04,5-1.981,6.572a7.6,7.6,0,0,1-2.541.411c-1.842.089-6.756-1.174-8.226-1.387-3.373-.5-7.489-.6-10.851-1.035-2.476-.327-10.46-2.253-9.98-3.343C217.31,481.95,223.11,479.578,226.418,479.9Z" transform="translate(-216.908 -474.595)"/></g></g><path class="u" d="M364.492,106.59s2.159,17.166,3.378,17.83c3.794,2.115,11.218,6.389,14.363,10.718,3.789,5.25-3.556,15.537-3.556,40.954,0,11.683,12.154,22.911,15.031,31.049s-23.456,20.187-24.422,20.37-13.808-5.374-15.938-7.8-1.639-28.325-2.679-33.807-1.981-18.142-2.972-18.949-5.111-3.4-5.785-6.934c-.991-5.156,2.818-12,2.808-13.833a22.692,22.692,0,0,1,1.823-7.117c1.342-2.59,7.335-7.454,7.28-8.613s-3.12-15.606-3.12-15.606Z" transform="translate(-257.76 -89.078)"/><path class="v" d="M324.34,178.189s4.457-2.823,8.563-5.988c3.848-2.947,6.622-6.765,10.985-2.892,8.885,7.875-9.693,21.3-9.693,21.3Z" transform="translate(-248.974 -119.906)"/><path class="u" d="M371.791,317.447c-4.225,7.533-20.009,9.489-34.669,8.8-19.345-.911-35.922-3.6-36.942-4.72s-1.56-10.6-.629-12.218,40.409-9.831,43.193-10.084c2.159-.2,27.146-5.374,29.909,4.878C373.411,306.967,374.436,312.727,371.791,317.447Z" transform="translate(-236.22 -185.558)"/><g transform="translate(61.712 122.642)"><path class="u" d="M355.973,456.319a14.351,14.351,0,0,0,4.215,5.136c1.446,1.327,2.328,4.2,1.847,5.285-1.317,2.972-4.046,3.249-5.943,5.993s-3.467,10.371-5.408,11.832-6.964,3.318-7.692,2.367,2.922-7.072,2.922-7.072c3.9-13.229,2.932-18.276,2.932-18.276S355.79,455.913,355.973,456.319Z" transform="translate(-320.051 -388.228)"/><path class="m" d="M345.014,483.239s-.991,1.922-.584,2.224c.56.436,2.709-.723,3.17-1.278,4.17-4.982,8.85-13.947,9.584-16.413a9.45,9.45,0,0,0,.139-4.769c.461-.158,3.492,2.164,3.962,4.705a8.133,8.133,0,0,1-.119,2.412c-.738,1.674-4.007,5.408-4.839,6.607-1.912,2.749-3.145,10.262-5.091,11.723s-9.321,4.418-10.044,3.467C340.587,491.173,343.251,486.012,345.014,483.239Z" transform="translate(-319.146 -391.608)"/><path class="u" d="M311.826,321.682c7.924,4.046,14.239,19.514,15.849,25.754s4.918,39.126,5.943,41.211-7.736,4.849-8.068,3.586c-3.279-12.555-18.1-43.752-19.613-46.808s-9.177-14.7-9.167-19.811C296.79,315.159,307.285,319.364,311.826,321.682Z" transform="translate(-296.77 -318.858)"/></g><path class="w" d="M310.616,156.648l7.112-6.864s-3.363,7.013.822,8.746c7.365,3.046,14.858-14.18,14.858-14.18s11.253,6.7,13.4,9.638c5.21,7.152-5.265,16.022-3.12,41.568,1.1,13.2,7.711,16.062,12.728,26.21,4.982,10.069,3.794,24.09-2.432,24.848-16.532,2.021-17.869,5.389-18.513,5.74-5.755,3.125-11.352,23.842-11.352,23.842s-11.535-27.735-22.867-37.611c-3.962-3.467-7.548-6.879-12.293-6.879-5.473,0-4.457,2.66-6.1,2.427-1.56-.213-2.343-1.615-3.5-1.981-6.627-2.13-8.95,3.962-8.915,3.467.609-11.292,45.525-11.753,45.184-14.15s.05-9.509-.783-15.438-1.981-16.012-3.551-18.157c-3.551-4.834-5.413-6.513-5.532-10.287-.1-3.12,1.149-7.8,2.972-12.347A23.833,23.833,0,0,0,310.616,156.648Z" transform="translate(-221.768 -108.137)"/><path class="v" d="M343.789,167.67l-32.827,31.544.307.411c1.58,2.145,2.719,12.228,3.551,18.157s.436,13.04.783,15.438-44.574,2.858-45.184,14.15c-.03.5,2.293-5.582,8.915-3.467,1.159.371,1.941,1.773,3.5,1.981,1.486.208.852-1.847,4.457-2.323a9.946,9.946,0,0,1,3.4-2.055c10.138-3.8,35.783-3.338,36.521-4.71s-.545-31.613,3.011-38.928S348.89,182.662,343.789,167.67Z" transform="translate(-221.758 -119.907)"/><path class="u" d="M313.09,228.166c-1.6,3.437-11.426,4.1-18.474,3.893s-28.107-1.342-28.107-1.342l.035-6.176s36.65-2.9,38.666-2.932S315.849,222.243,313.09,228.166Z" transform="translate(-219.785 -147.131)"/><path class="u" d="M377.95,164.619c3.19,2.125,2.476,7.394-1.258,12.1s-27.5,24.6-29.488,24.556-7.583-2.65-6.825-5.374,18.919-22.728,22.708-26.031S373.794,161.856,377.95,164.619Z" transform="translate(-257.033 -117.946)"/><path class="u" d="M248.7,225.715s-8.915-1.095-9.286-1.446S225.2,232.109,226,232.589s2.714.371,4.9-.669,12.109,1.783,16.146.188S248.7,225.715,248.7,225.715Z" transform="translate(-199.32 -148.469)"/><path class="s" d="M195.254,226.037s-8.846-1.6-9.187-1.981-14.645,7-13.868,7.533,2.684.525,4.928-.386,11.986,2.476,16.106,1.114S195.254,226.037,195.254,226.037Z" transform="translate(-172.168 -148.36)"/><path class="w" d="M376.46,171.825S389.6,156.195,396.509,161.7c9.38,7.459-9.539,23.407-9.539,23.407Z" transform="translate(-275.28 -116.302)"/><path class="v" d="M380.642,331.248c.644-.352,1.981-3.719,18.513-5.74,6.226-.758,7.429-14.779,2.432-24.848,0,0,3.516,12.382-5.037,17.052-8.192,4.457-21.029-2.283-32.282,12.382-1.486,1.937-2.932,3.962-4.319,5.943a206.562,206.562,0,0,1,9.341,19.063S374.887,334.373,380.642,331.248Z" transform="translate(-266.947 -187.031)"/><g transform="translate(78.81)"><g transform="translate(27.308 5.373)"><path class="a" d="M399.377,97.449c-.54-1.639-2.927-9.692-3.353-10.9a7.1,7.1,0,0,0-3.239-3.913,4.424,4.424,0,0,0-4.864.352h0a2.942,2.942,0,0,0-1.486,2.551c-.154,13.05,3.853,25.823,5.72,38.775,4.646-.5,10.559-2.377,15-3.824C404.449,110.474,402.9,108.1,399.377,97.449Z" transform="translate(-386.431 -82.081)"/><path class="b" d="M406.058,118.591a1.7,1.7,0,0,1-.119-.317c-.079-.243-.178-.545-.3-.916-.253-.842-.6-1.981-1.025-3.4l-3.269-11.228c-.624-2.194-1.223-4.284-1.768-6.191l-.758-2.7a14.073,14.073,0,0,0-.792-2.293,3.962,3.962,0,0,0-2.476-2.278,3.175,3.175,0,0,0-1.273-.04l.079-.035a1.08,1.08,0,0,1,.248-.064,2.412,2.412,0,0,1,.991,0,3.432,3.432,0,0,1,1.387.683,4.7,4.7,0,0,1,1.253,1.615,14.064,14.064,0,0,1,.837,2.318c.248.847.5,1.748.792,2.7l1.788,6.181c1.238,4.378,2.357,8.34,3.185,11.258.386,1.412.7,2.57.931,3.417.1.381.178.688.238.936A1.249,1.249,0,0,1,406.058,118.591Z" transform="translate(-390.393 -85.612)"/><path class="b" d="M402.63,122.552a3.637,3.637,0,0,1-.248-.718c-.144-.466-.337-1.144-.565-1.981-.456-1.684-1.045-4.017-1.669-6.6s-1.164-4.864-1.585-6.617c-.188-.8-.342-1.486-.466-2.011a3.643,3.643,0,0,1-.139-.743,3.644,3.644,0,0,1,.253.713c.139.466.332,1.144.56,1.981.456,1.684,1.045,4.017,1.669,6.6s1.164,4.864,1.585,6.617c.188.8.342,1.486.471,2.011a3.81,3.81,0,0,1,.134.748Z" transform="translate(-392.25 -93.084)"/></g><path class="a" d="M348.161,71.88c3.249-1.243,6.463-.54,9.678.787a17.231,17.231,0,0,1,7.8,6.7,20.609,20.609,0,0,1,2.972,11.525,10.658,10.658,0,0,1-5.166,8.42c-4.3,2.565-9.682,3.442-14.185,1.263a17.244,17.244,0,0,1-8.89-11.49A16.513,16.513,0,0,1,341,78.933a12.6,12.6,0,0,1,7.172-7.038" transform="translate(-335.613 -71.232)"/><g transform="translate(1.244 0.466)"><path class="a" d="M356.961,81.982c-.753-1.189-.847-2.665-1.312-3.992-1.03-2.917-3.932-4.839-6.964-5.448-2.823-.57-5.943.3-8.915,1.941a12.218,12.218,0,0,0-4.873,4.774,9.628,9.628,0,0,0-.045,8.821L349.8,82.765a17.526,17.526,0,0,0,5.265,2.135,3.219,3.219,0,0,0,1.654-.064,1.486,1.486,0,0,0,.991-1.228C357.744,83,357.283,82.5,356.961,81.982Z" transform="translate(-333.805 -72.271)"/><path class="x" d="M341.545,85.33l13.981.163a2.56,2.56,0,0,1,2.833,1.981L364,116.537a9.192,9.192,0,0,1-.8,5.854l-.976,1.9A6.75,6.75,0,0,1,351,125.675a3.281,3.281,0,0,1-.461-.7,5.437,5.437,0,0,1-.258-.629A21.3,21.3,0,0,1,349.177,120c-.649-2.561-.9-3.611-.9-3.586s-5.631.4-8.449-6.394c-1.4-3.378-2.61-9.177-3.467-13.957C335.637,91.773,337.192,85.9,341.545,85.33Z" transform="translate(-335.01 -78.813)"/><g transform="translate(3.318 16.401)"><g transform="translate(0 2.105)"><path class="a" d="M342.885,116.121a.936.936,0,0,0,1.095.7.892.892,0,0,0,.738-1.04.936.936,0,0,0-1.095-.7.891.891,0,0,0-.738,1.04Z" transform="translate(-341.699 -112.326)"/><path class="a" d="M340.532,110.985c.139.094.7-.579,1.679-.812s1.808.084,1.887-.059c.04-.064-.129-.253-.5-.4a2.536,2.536,0,0,0-1.54-.1,2.476,2.476,0,0,0-1.3.792C340.517,110.707,340.462,110.945,340.532,110.985Z" transform="translate(-340.504 -109.537)"/></g><g transform="translate(9.28)"><path class="a" d="M360.575,112.121a.936.936,0,0,0,1.095.708.9.9,0,0,0,.738-1.045.936.936,0,0,0-1.095-.7.891.891,0,0,0-.738,1.04Z" transform="translate(-359.908 -108.202)"/><path class="a" d="M359.271,106.74c.139.089.7-.584,1.679-.812s1.808.084,1.882-.064c.04-.064-.124-.248-.5-.4a2.551,2.551,0,0,0-1.545-.1,2.476,2.476,0,0,0-1.3.8C359.251,106.462,359.2,106.7,359.271,106.74Z" transform="translate(-359.242 -105.287)"/></g><path class="a" d="M353.634,116.106a6.844,6.844,0,0,0-1.654.094c-.253.035-.5.045-.584-.119a1.338,1.338,0,0,1,0-.778l.282-2.07a33.663,33.663,0,0,0,.461-5.354,33.285,33.285,0,0,0-.891,5.3c-.084.723-.168,1.416-.248,2.075a1.515,1.515,0,0,0,.1.991.649.649,0,0,0,.5.262,1.9,1.9,0,0,0,.436-.04A6.463,6.463,0,0,0,353.634,116.106Z" transform="translate(-345.781 -106.596)"/><path class="y" d="M360.6,143.219a18.478,18.478,0,0,0,8.85-4.8s-1.2,5.448-8.42,6.5Z" transform="translate(-350.647 -122.01)"/><path class="y" d="M358.265,127.932a1.818,1.818,0,0,1,1.416-1.03,1.644,1.644,0,0,1,1.253.332,1.045,1.045,0,0,1,.357,1.139,1.208,1.208,0,0,1-1.208.649,3.863,3.863,0,0,1-1.426-.446,1.154,1.154,0,0,1-.347-.223.342.342,0,0,1-.089-.362" transform="translate(-349.436 -116.188)"/><path class="a" d="M359.946,124.458c-.163.03.089,1.09-.634,2.055s-1.877,1.124-1.852,1.273c0,.069.3.144.778.045a2.689,2.689,0,0,0,1.56-.991,2.343,2.343,0,0,0,.466-1.709C360.2,124.671,360.015,124.433,359.946,124.458Z" transform="translate(-349.062 -114.962)"/></g><path class="a" d="M358.214,101.006c.159.243,1.1-.119,2.278-.253s2.179-.05,2.273-.322c.04-.134-.178-.342-.614-.5a4,4,0,0,0-3.467.441C358.3,100.629,358.145,100.892,358.214,101.006Z" transform="translate(-346.117 -86.079)"/><path class="a" d="M339.008,102.188c.228.183.842-.208,1.649-.416s1.525-.208,1.624-.5c.045-.129-.119-.322-.466-.461a2.362,2.362,0,0,0-1.431-.04,2.323,2.323,0,0,0-1.208.763C338.949,101.831,338.909,102.1,339.008,102.188Z" transform="translate(-336.405 -86.563)"/><path class="a" d="M364.758,79.318c-2.2-3.809-9.41-8.162-13.61-6.934L345.21,78.03a6.756,6.756,0,0,0,5.6,4.061c1.293.1,2.769-.119,3.719.768s.882,2.541,1.808,3.467c1.283,1.308,3.858.669,4.953,2.154.471.649.5,1.54.991,2.184.639.852,3.308,1.525,4.235.991s.55-2.224.683-3.185a4.814,4.814,0,0,0-.555-3.18C365.734,83.394,365.813,81.136,364.758,79.318Z" transform="translate(-339.562 -72.173)"/><path class="x" d="M382.572,111.976c-.124-.525.183-1.912.684-2.12,1.337-.55,3.863-1.04,4.73,2.476,1.194,4.809-3.878,5.012-3.923,4.878S383,113.794,382.572,111.976Z" transform="translate(-358.405 -90.997)"/><path class="y" d="M387.145,116.555a1.722,1.722,0,0,0,.253.064.867.867,0,0,0,.629-.139,2.139,2.139,0,0,0,.5-2.1,2.853,2.853,0,0,0-.53-1.139.991.991,0,0,0-.792-.5.431.431,0,0,0-.436.347.631.631,0,0,0,0,.258c0,.015-.124-.054-.134-.262a.555.555,0,0,1,.114-.352.678.678,0,0,1,.436-.238,1.208,1.208,0,0,1,1.055.53,2.907,2.907,0,0,1,.624,1.268,2.248,2.248,0,0,1-.708,2.377.916.916,0,0,1-.8.064C387.18,116.669,387.13,116.565,387.145,116.555Z" transform="translate(-360.467 -92.526)"/></g><path class="w" d="M391.191,89.184a4.5,4.5,0,0,0-.109-1.486,10.9,10.9,0,0,0-3.561-6.181,4.363,4.363,0,0,0-1.233-.847,16.466,16.466,0,0,1,3.249,3.8A17.567,17.567,0,0,1,391.191,89.184Z" transform="translate(-359.05 -75.996)"/><path class="a" d="M339.3,80.44c-.05,2.065-2.546,5.2-3.556,7-1.932,3.437-2.318,3.962-.5,12.8a21.331,21.331,0,0,1-3.789-8.37,10.777,10.777,0,0,1,1.421-7.518,8.42,8.42,0,0,1,6.439-3.908" transform="translate(-331.294 -75.88)"/><path class="b" d="M367.972,84.587a4.161,4.161,0,0,1-.783.371,9.606,9.606,0,0,1-.946.366c-.376.129-.8.292-1.283.416a24.125,24.125,0,0,1-3.432.723,27.082,27.082,0,0,1-4.294.2,26.652,26.652,0,0,1-4.264-.555,23.613,23.613,0,0,1-3.363-.991c-.471-.163-.877-.362-1.243-.52a10,10,0,0,1-.911-.441,4.507,4.507,0,0,1-.753-.436,4.918,4.918,0,0,1,.8.332c.253.119.56.258.931.4s.773.327,1.248.5a26.415,26.415,0,0,0,3.348.9,26.961,26.961,0,0,0,8.464.322,25.584,25.584,0,0,0,3.412-.654c.5-.109.906-.258,1.283-.367s.7-.223.961-.322A5.979,5.979,0,0,1,367.972,84.587Z" transform="translate(-339.07 -77.535)"/><path class="b" d="M377.165,92.285a2.248,2.248,0,0,1-.535.253,13.453,13.453,0,0,1-1.525.5,19.85,19.85,0,0,1-10.51.04,13.574,13.574,0,0,1-1.53-.5,2.412,2.412,0,0,1-.535-.243c0-.05.8.233,2.115.54a22.258,22.258,0,0,0,10.4-.035C376.358,92.528,377.126,92.241,377.165,92.285Z" transform="translate(-347.06 -81.856)"/><path class="b" d="M391.375,92a3.335,3.335,0,0,1,.312.7,20.2,20.2,0,0,1,.6,1.981,29.508,29.508,0,0,1,.609,3.026,20.309,20.309,0,0,1,.243,3.779,9.96,9.96,0,0,1-2.665,6.245,9.763,9.763,0,0,1-1.6,1.332,3.066,3.066,0,0,1-.664.381,4.842,4.842,0,0,1,.594-.5,11.926,11.926,0,0,0,1.52-1.382,9.3,9.3,0,0,0,1.634-2.536,10.1,10.1,0,0,0,.882-3.581,21.787,21.787,0,0,0-.218-3.724c-.154-1.144-.347-2.164-.54-3.011s-.366-1.535-.5-1.981a5.087,5.087,0,0,1-.213-.733Z" transform="translate(-360.021 -81.714)"/></g></g><g transform="translate(0 97.261)"><path class="z" d="M189.861,241.128l-59.928,1.278S102.2,305.89,101.064,306.543s-16.032-2.328-16.032-2.328l-20-61.473-8.261-1.615V286.95l-2.932-10.1,1.8-36.214,53.747-.778Z" transform="translate(-53.84 -239.86)"/><path class="k" d="M149.9,246.72c-.9.223-32.168,54.643-33.52,55.555s-15.646-35.506-15.646-35.506,14.744,27.869,15.646,27.869S149.9,246.72,149.9,246.72Z" transform="translate(-77.507 -243.322)"/><path class="k" d="M160.084,246.72l-26.443,29.964-4.051-4.7,3.883.911Z" transform="translate(-92.073 -243.322)"/><path class="aa" d="M58.614,241.128l52.618-1.268,28.354.778s-22.238,1.486-25.313,2.62-19.95,9.445-23.327,10.574-19.563-10.064-21.812-10.574-11.644-2.62-11.644-2.62Z" transform="translate(-55.682 -239.86)"/></g></g></g></svg>