<svg xmlns="http://www.w3.org/2000/svg" width="264.818" height="272.284" viewBox="0 0 264.818 272.284"><defs><style>.a,.q{opacity:0.5;}.b{fill:#e5c3d1;}.c{fill:#fff;}.d{fill:#d9a171;}.e{fill:#344154;}.f,.q{fill:#f7a9a8;}.g{fill:none;stroke:#613f75;stroke-linecap:round;stroke-linejoin:round;stroke-width:0.96px;}.h{fill:#a66d58;}.i{fill:#f6e9ee;}.j{fill:#6595bf;}.k{fill:#c6556c;}.l{fill:#d2aad1;}.m{fill:#613f75;}.n{fill:#5c3b75;}.o{fill:#604075;}.p{fill:#513570;}.r{fill:#4c708f;}.s{fill:#27313f;}</style></defs><g transform="translate(-15.35 -53.131)"><g transform="translate(15.35 53.131)"><g class="a" transform="translate(147.88 197.678)"><rect class="b" width="31.878" height="13.864" transform="translate(82.183 29.1) rotate(180)"/><rect class="b" width="31.878" height="13.864" transform="translate(47.82 29.1) rotate(180)"/><rect class="b" width="31.878" height="13.864" transform="translate(65.223 45.498) rotate(180)"/><rect class="b" width="31.878" height="13.864" transform="translate(31.878 13.864) rotate(180)"/></g><g class="a" transform="translate(0 153.953)"><rect class="b" width="31.878" height="13.864" transform="translate(0 15.237)"/><rect class="b" width="31.878" height="13.864" transform="translate(34.369 15.237)"/><rect class="b" width="31.878" height="13.864" transform="translate(16.966 31.628)"/><rect class="b" width="31.878" height="13.864" transform="translate(50.304)"/></g><g transform="translate(92.188)"><rect class="c" width="79.292" height="103.83" transform="translate(0.004 17.446) rotate(-12.71)"/><path class="d" d="M244.086,131.89l-10.568,2.384-10.568,2.378s-3.908,38.189-4.1,38.588,22.752-5.125,22.752-5.125,23.1-4.85,22.746-5.131S244.086,131.89,244.086,131.89Z" transform="translate(-184.013 -82.728)"/><path class="d" d="M234.426,77.46,228.515,78.8l-2.491,19.837L215.257,81.786l-5.911,1.33L208.01,97.222l10.15,15.8,10.568-2.378,10.568-2.384,2.391-18.632Z" transform="translate(-179.94 -62.274)"/><rect class="b" width="67.932" height="1.66" transform="translate(25.36 101.445) rotate(-12.71)"/><rect class="b" width="67.932" height="1.66" transform="translate(26.102 104.704) rotate(-12.71)"/><rect class="b" width="67.932" height="1.66" transform="translate(26.831 107.96) rotate(-12.71)"/><rect class="b" width="11.635" height="13.139" transform="translate(12.864 38.963) rotate(-12.71)"/><rect class="e" width="8.964" height="10.118" transform="translate(14.5 40.142) rotate(-12.71)"/><rect class="e" width="15.705" height="17.734" transform="translate(66.401 39.68) rotate(-12.71)"/><rect class="f" width="12.097" height="13.664" transform="translate(68.602 41.27) rotate(-12.71)"/><path class="g" d="M195.54,132c-.087,2.565-.087,5.268,1.13,7.54s4.064,3.87,6.417,2.834a2.928,2.928,0,0,0,1.841-2.5,1.945,1.945,0,0,0-2.147-1.935,2.278,2.278,0,0,0-1.142.712c-1.623,1.735-1.311,4.557-.287,6.7a13.158,13.158,0,0,0,8.233,6.91,18.954,18.954,0,0,1-2.029-2.541,12.74,12.74,0,0,0,2.01,2.534l-4.089.674" transform="translate(-175.241 -82.77)"/><path class="g" d="M258.11,82.945a9.485,9.485,0,0,1,8.333,2.715,17.784,17.784,0,0,1,4.369,7.9c.861,2.909,1.292,5.949,2,8.907" transform="translate(-198.767 -64.269)"/><path class="g" d="M278.67,110.922a24.84,24.84,0,0,1,1.91,2.285,11.651,11.651,0,0,1,.718-2.5" transform="translate(-206.493 -74.769)"/><path class="h" d="M217.04,82.742l12.99,20.88,3.433-24.581-1.554.35-2.491,19.837L218.65,82.379Z" transform="translate(-183.333 -62.868)"/><path class="h" d="M246.409,131.89l-21.135,4.763-.243,2.391,22.627-5.1Z" transform="translate(-186.336 -82.728)"/><path class="d" d="M231.983,151.83l-2.253,29.537,2-.462Z" transform="translate(-188.102 -90.222)"/><path class="d" d="M243.57,149.52l.443,28.932,1.367-.318Z" transform="translate(-193.303 -89.354)"/><path class="d" d="M250.02,148.06l12.016,26.323-1.367.3Z" transform="translate(-195.727 -88.805)"/><path class="d" d="M258.53,146.15l14.706,25.711-2,.443Z" transform="translate(-198.925 -88.087)"/><path class="i" d="M163.04,81.09l22.84,101.289,77.345-17.44-81.084,22.8Z" transform="translate(-163.04 -63.638)"/></g><g transform="translate(33.932 52.429)"><rect class="c" width="60.385" height="72.763" transform="matrix(0.972, 0.234, -0.234, 0.972, 16.999, 0)"/><rect class="d" width="10.724" height="10.724" transform="matrix(0.972, 0.234, -0.234, 0.972, 20.29, 6.469)"/><rect class="f" width="10.724" height="10.724" transform="matrix(0.972, 0.234, -0.234, 0.972, 32.91, 9.496)"/><rect class="j" width="10.724" height="10.724" transform="matrix(0.972, 0.234, -0.234, 0.972, 45.54, 12.53)"/><rect class="e" width="10.724" height="10.724" transform="matrix(0.972, 0.234, -0.234, 0.972, 58.165, 15.565)"/><rect class="f" width="10.724" height="10.724" transform="matrix(0.972, 0.234, -0.234, 0.972, 17.226, 19.226)"/><rect class="f" width="10.724" height="10.724" transform="matrix(0.972, 0.234, -0.234, 0.972, 29.844, 22.259)"/><rect class="j" width="10.724" height="10.724" transform="matrix(0.972, 0.234, -0.234, 0.972, 42.475, 25.294)"/><rect class="e" width="10.724" height="10.724" transform="matrix(0.972, 0.234, -0.234, 0.972, 55.099, 28.328)"/><rect class="j" width="10.724" height="10.724" transform="matrix(0.972, 0.234, -0.234, 0.972, 14.154, 31.987)"/><rect class="f" width="10.724" height="10.724" transform="matrix(0.972, 0.234, -0.234, 0.972, 26.778, 35.022)"/><rect class="j" width="10.724" height="10.724" transform="matrix(0.972, 0.234, -0.234, 0.972, 39.409, 38.057)"/><rect class="e" width="10.724" height="10.724" transform="matrix(0.972, 0.234, -0.234, 0.972, 52.027, 41.09)"/><rect class="e" width="10.724" height="10.724" transform="matrix(0.972, 0.234, -0.234, 0.972, 11.088, 44.757)"/><rect class="f" width="10.724" height="10.724" transform="matrix(0.972, 0.234, -0.234, 0.972, 23.714, 47.785)"/><rect class="j" width="10.724" height="10.724" transform="matrix(0.972, 0.234, -0.234, 0.972, 36.344, 50.82)"/><rect class="e" width="10.724" height="10.724" transform="matrix(0.972, 0.234, -0.234, 0.972, 48.963, 53.853)"/><rect class="b" width="10.724" height="10.724" transform="matrix(0.972, 0.234, -0.234, 0.972, 8.023, 57.514)"/><rect class="f" width="10.724" height="10.724" transform="matrix(0.972, 0.234, -0.234, 0.972, 20.648, 60.548)"/><rect class="j" width="10.724" height="10.724" transform="matrix(0.972, 0.234, -0.234, 0.972, 33.272, 63.582)"/><rect class="e" width="10.724" height="10.724" transform="matrix(0.972, 0.234, -0.234, 0.972, 45.897, 66.616)"/></g><g transform="translate(150.864 22.583)"><path class="k" d="M263.31,339.19l82.4,16.935-8-40.005-38.364-10.4Z" transform="translate(-259.396 -170.636)"/><rect class="e" width="6.392" height="67.557" transform="translate(59.855 170.07)"/><g transform="translate(19.881)"><path class="b" d="M301.187,150.579a24.561,24.561,0,0,0,.674-8.215,30.548,30.548,0,0,0-3.8-13.233,21.847,21.847,0,0,0-8.914-8.6h-.262v44.418l.087.15a42.083,42.083,0,0,0,4.295-3.121A23.6,23.6,0,0,0,301.187,150.579Z" transform="translate(-288.89 -101.042)"/><path class="b" d="M340.327,121.45c5.187,8.789,7.909,18.807,9.9,28.819a132.462,132.462,0,0,0,6.017-48.064,12.042,12.042,0,0,1-1.461-.874c-3.645-2.578-3.645-12.022-3.645-12.022H327.749s-.218,9.875-5.368,14.357l-.331.262C329.709,107.6,335.982,114.085,340.327,121.45Z" transform="translate(-301.351 -89.31)"/><g transform="translate(0.087 12.852)"><path class="d" d="M332.019,192.341a77.864,77.864,0,0,0,19.126-1.248A42.1,42.1,0,0,0,360,188.2l4.27-27.952s7.728-10.306,7.085-15.237-20.386-32.384-20.386-32.384a19.351,19.351,0,0,1-3.633-.624,110.977,110.977,0,0,1-11.1,55.748c-1.511-11.161-3.783-22.384-8.807-32.459-4.432-8.9-11.236-16.9-19.943-21.547-5.949,2.834-16.5,3.483-18.27,3.577a21.847,21.847,0,0,1,8.914,8.6,30.549,30.549,0,0,1,3.8,13.233,24.563,24.563,0,0,1-.674,8.215c-1.248,4.525-4.313,8.4-7.915,11.41a42.08,42.08,0,0,1-4.295,3.121l12.59,22.109a37.727,37.727,0,0,0,13.414,6.242A77.685,77.685,0,0,0,332.019,192.341Z" transform="translate(-289.03 -110.689)"/><path class="h" d="M338.523,134.506c5.025,10.081,7.3,21.3,8.807,32.459a110.977,110.977,0,0,0,11.1-55.754,16.9,16.9,0,0,1-3.5-1.311,132.14,132.14,0,0,1-6.017,48.095c-1.991-9.987-4.713-20.031-9.9-28.819-4.369-7.378-10.611-13.851-18.277-17.528a11.236,11.236,0,0,1-2.166,1.3C327.3,117.6,334.091,125.6,338.523,134.506Z" transform="translate(-300.135 -109.9)"/><path class="h" d="M358.724,234.472a79.041,79.041,0,0,1-19.126,1.248,76.92,76.92,0,0,1-16.985-2.079A37.727,37.727,0,0,1,309.2,227.4l3.708,6.5c6.9,4.619,15.405,6.754,23.751,7.54a61.574,61.574,0,0,0,20.6-1.211,41.373,41.373,0,0,0,9.563-3.72l.755-4.95a42.1,42.1,0,0,1-8.851,2.909Z" transform="translate(-296.61 -154.056)"/><path class="d" d="M338.891,245.33c-8.346-.786-16.853-2.921-23.751-7.54l1.323,2.316,29.931,14.319,22.584-13.514.075-.481a41.373,41.373,0,0,1-9.563,3.689A60.91,60.91,0,0,1,338.891,245.33Z" transform="translate(-298.842 -157.961)"/></g></g><path class="d" d="M294.63,241.5c1.317.624,13.826,6.6,27.789,6.092a73.856,73.856,0,0,0,24.725-5.287l23.851,89.423s-9.894,5.786-27.64.262a77.257,77.257,0,0,1-29.369-17.421l-8.583-9.2-7.815-1.3s-6.785,4.132-19.7,6.716A149.02,149.02,0,0,1,257.04,313.7Z" transform="translate(-257.04 -146.503)"/><path class="d" d="M395.32,263.8l20.368,78.531-3.364.356Z" transform="translate(-309.005 -154.883)"/><path class="d" d="M391.2,342.212,384.35,268.7l2.447,71.971Z" transform="translate(-304.883 -156.724)"/><path class="d" d="M357.571,270.73l-9.3,54.824,4.2,3.72Z" transform="translate(-291.324 -157.487)"/><path class="d" d="M332.4,264.45c-.212,1.248-17.259,50.342-17.259,50.342l4.307-2.1Z" transform="translate(-278.874 -155.127)"/><path class="d" d="M311.346,256.07,282.09,317.236l5.237-.974Z" transform="translate(-266.454 -151.978)"/></g><path class="l" d="M354.569,89.26s-2.428,5.9-10.961,5.849A15.363,15.363,0,0,1,331.18,89.26Z" transform="translate(-134.038 -66.708)"/><g transform="translate(41.091 64.816)"><g transform="translate(63.556 43.957)"><path class="f" d="M183,283.656l35.012,21.3,27.409-44.087s-4.076-12.228,0-18.339,12.784-10.562,13.895-10.187.924,4.444,0,6.111a2.127,2.127,0,0,0,.762,2.778s9.032-5.755,10.561-4.326,1.523,6,.568,6.76-2.285,1.9-2.285,1.9,3.714,1.9,3.62,5.805-.481,10.187-2.859,11.142-10.855.668-10.855.668l-28.17,60.76L197.1,322.569Z" transform="translate(-183 -229.244)"/><path class="m" d="M300.214,242.79a5.655,5.655,0,0,1-1.336,2.085,5.724,5.724,0,0,1-.992.774c-.181.112-.362.206-.4.3s0,.218.081.406a9.763,9.763,0,0,1,.624,4.944,9.432,9.432,0,0,1-1.873,4.613,9.244,9.244,0,0,1-3.889,3,10.612,10.612,0,0,0,1.948-1.454,9.481,9.481,0,0,0,1.573-1.816,10.137,10.137,0,0,0,1.673-4.419,10.406,10.406,0,0,0-.487-4.706.911.911,0,0,1,0-.774,1.386,1.386,0,0,1,.574-.418,5.83,5.83,0,0,0,.986-.668A6.1,6.1,0,0,0,300.214,242.79Z" transform="translate(-224.123 -233.177)"/><path class="m" d="M305.647,246.45a3.3,3.3,0,0,0-1.03,3.389,3.19,3.19,0,0,0,.98,1.479,3.358,3.358,0,0,0,1.617.724,9.775,9.775,0,0,0,3.745-.15A33.955,33.955,0,0,0,314.7,250.8a16.818,16.818,0,0,1-3.608,1.548,8.87,8.87,0,0,1-3.97.281,3.827,3.827,0,0,1-1.873-.886,3.545,3.545,0,0,1-1.055-1.785A3.265,3.265,0,0,1,305.647,246.45Z" transform="translate(-228.514 -234.553)"/><path class="m" d="M304.321,255.27a4.781,4.781,0,0,0-1.991,1.248,6.086,6.086,0,0,0-1.311,1.873,11.859,11.859,0,0,0-.836,4.563,19.544,19.544,0,0,0,.337,4.682,8.285,8.285,0,0,0,.805,2.185,6.592,6.592,0,0,0,1.423,1.873,6.137,6.137,0,0,1-1.654-1.735,8.6,8.6,0,0,1-1-2.222,16.066,16.066,0,0,1-.487-4.813,10.83,10.83,0,0,1,1.024-4.744,6.4,6.4,0,0,1,1.529-1.91,4.488,4.488,0,0,1,2.16-1Z" transform="translate(-226.813 -237.867)"/><path class="m" d="M300.2,262.245c1.3-.506,2.622-.924,3.957-1.317s2.684-.73,4.039-1.042,2.722-.574,4.095-.786,2.753-.4,4.145-.5c-1.348.343-2.7.624-4.057.955l-4.051.918-4.057.9C302.915,261.671,301.567,261.971,300.2,262.245Z" transform="translate(-227.043 -239.119)"/><path class="m" d="M300.18,272.158l3.995-.243c1.33-.1,2.653-.187,3.976-.312s2.647-.25,3.97-.387l3.976-.456a34.786,34.786,0,0,1-3.907.911c-1.317.243-2.653.406-3.982.531a39.2,39.2,0,0,1-4.02.169A35.817,35.817,0,0,1,300.18,272.158Z" transform="translate(-227.036 -243.688)"/><g transform="translate(74.698)"><path class="e" d="M306.153,243.242a1.742,1.742,0,1,1-1.742-1.742A1.742,1.742,0,0,1,306.153,243.242Z" transform="translate(-302.67 -232.693)"/><path class="n" d="M320.192,227.44q-3.6,2.734-7.241,5.431c-1.211.905-2.4,1.835-3.645,2.684s-2.5,1.673-3.839,2.409l-.037-.05c1.13-1.017,2.335-1.929,3.527-2.846s2.5-1.735,3.714-2.584q3.745-2.565,7.49-5.094Z" transform="translate(-303.707 -227.39)"/></g></g><path class="f" d="M137.766,251.008a42.852,42.852,0,0,0,23.9,9.207,36.2,36.2,0,0,1-2.565-15.942c3.333-.05,6.666.424,9.987.243s6.8-1.13,9.12-3.527a18.34,18.34,0,0,0,3.19-5.368c.556-1.248,1-2.447,1.548-3.677a18.1,18.1,0,0,1-5.93-10.093,17.191,17.191,0,0,0,7.035,6.1l.418-6.61,5.805-2.765-6.991-15.337s2.022-5.824-1.523-14.819-34.2-5.83-34.2-5.83c-5.424,2.047-9.563,6.985-11.6,12.415s-2.285,11.379-1.873,17.166a82.752,82.752,0,0,0,1.841,12.746c.7,3.121,1.585,6.211,2.016,9.363A66.348,66.348,0,0,1,137.766,251.008Z" transform="translate(-101 -166.396)"/><path class="e" d="M202.3,221.867c-.225,1.479-1.024,2.59-1.791,2.5s-1.2-1.411-.98-2.89,1.024-2.59,1.791-2.5S202.5,220.387,202.3,221.867Z" transform="translate(-125.631 -180.269)"/><path class="o" d="M193,213.327a7.1,7.1,0,0,1,.8-2.559,7.178,7.178,0,0,1,1.773-2.141,5.05,5.05,0,0,1,2.5-1.342,3.845,3.845,0,0,1,2.79.58v.175c-.886.412-1.617.674-2.322.98s-1.461.4-2.154.78a7.491,7.491,0,0,0-1.873,1.486,7.372,7.372,0,0,0-1.361,2.091Z" transform="translate(-123.202 -175.856)"/><path class="p" d="M154.51,222.757a2.728,2.728,0,0,1,2.447-1.648,3.6,3.6,0,0,1,2.834,1.248,5.493,5.493,0,0,1,1.323,2.834,11.648,11.648,0,0,1,0,3.121v.162l-.144.069a10.989,10.989,0,0,0-1.579.905c-.524.337-.974.693-1,1.248a2.1,2.1,0,0,0,.624,1.567,7.047,7.047,0,0,0,1.486,1.1,6.041,6.041,0,0,1-1.642-.93,2.272,2.272,0,0,1-.849-1.754,1.623,1.623,0,0,1,.356-.992,4.264,4.264,0,0,1,.73-.668,12.2,12.2,0,0,1,1.629-1.011l-.156.231a12.123,12.123,0,0,0-.044-2.934,5.368,5.368,0,0,0-1.13-2.59,3.246,3.246,0,0,0-2.441-1.248A2.728,2.728,0,0,0,154.51,222.757Z" transform="translate(-108.737 -181.072)"/><path class="q" d="M200.625,238.532c0,1.248-1.561,2.222-3.489,2.222s-3.5-1-3.5-2.222,1.567-2.222,3.5-2.222S200.625,237.3,200.625,238.532Z" transform="translate(-123.442 -186.785)"/><g transform="translate(21.188 81.852)"><path class="r" d="M126.026,339.639a102.046,102.046,0,0,1-1.985-27.939c-4.207,9.675-8.783,21.916-8.914,29.606-.237,14.3,9.944,53.869,9.944,53.869l24.762,20.53,11.548,2.029c-8.626-11.423-15.28-24.294-21.223-37.359S128.916,353.753,126.026,339.639Z" transform="translate(-115.123 -296.969)"/><path class="j" d="M181.675,366.475l3.29-14.794s6.13-17.34,4.332-23.17S174.94,315.8,167.774,308.78a44.429,44.429,0,0,1-10.106-16.417,29.337,29.337,0,0,1-9.669-.375,71.05,71.05,0,0,1-11.772-3.889s-3.339,6.417-6.954,14.731a102.044,102.044,0,0,0,1.985,27.939c2.89,14.113,8.208,27.615,14.157,40.735s12.571,25.936,21.223,37.359l27.621,4.85Z" transform="translate(-120.355 -288.1)"/></g><path class="f" d="M146.543,318.245c7.622-7.877,27.64,9.987,35.43,21.142s25.967,34.331,25.967,34.331l40.436-29.338s-.187-5.381,1.479-8.165a13.24,13.24,0,0,1,4.27-4.263l7.79,1.3c.187.162.119-.087.262-.293,3.558-5.118,4.625-11.791,8.783-16.441.424-.468,1.036-.949,1.617-.705s.662.88.668,1.442a14.412,14.412,0,0,1-.762,4.282,83.638,83.638,0,0,1-5.9,14.831,80.03,80.03,0,0,0,8.3-12.621,18.831,18.831,0,0,1,3.383-5.187,1.03,1.03,0,0,1,.905-.381.874.874,0,0,1,.468.406c.78,1.155.518,2.69.169,4.039a46.771,46.771,0,0,1-7.984,16.429,64.422,64.422,0,0,0,9.563-12.846,9.814,9.814,0,0,1,2.715-3.583c.412-.287,1-.493,1.386-.175a1.186,1.186,0,0,1,.343.849,10.218,10.218,0,0,1-1.136,4.937,54.83,54.83,0,0,1-6.76,11.5,3.633,3.633,0,0,1-1.985,1.573c4.026-.849,5.774-5.68,9.688-6.941a3.018,3.018,0,0,1-.206,2.653,27.627,27.627,0,0,1-28.376,16.554s-12.94,16.641-21.679,24.893-27.7,20.886-27.7,20.886-37.5-29.837-49.487-43.563C145.9,341.715,134.252,330.966,146.543,318.245Z" transform="translate(-103.779 -216.637)"/><path class="m" d="M235.77,416.194a27.865,27.865,0,0,1,8.464-8.614c-1.429,1.442-2.878,2.828-4.282,4.263S237.162,414.74,235.77,416.194Z" transform="translate(-139.275 -251.148)"/><path class="q" d="M160.263,233.475a5.512,5.512,0,0,1-1.81-1.248,1.873,1.873,0,0,1-.281-2.079,2.4,2.4,0,0,1,.624-.624,11.586,11.586,0,0,1,1.8-1.1,9.681,9.681,0,0,0-.281-3.995,4.369,4.369,0,0,0-2.64-2.853,2.871,2.871,0,0,0-3.427,1.348,10.686,10.686,0,0,0,.843,7.84C157.235,234.892,160.263,233.475,160.263,233.475Z" transform="translate(-108.491 -181.191)"/><g class="a" transform="translate(50.972 72.302)"><path class="f" d="M162.84,272.8a44.482,44.482,0,0,0,7.053,8.058c0-.83,0-1.66.075-2.5,3.333-.05,6.666.424,9.987.243s6.8-1.13,9.12-3.527a6.409,6.409,0,0,0,.624-.762c-2.185,1.579-5.106,2.022-7.852,2.116A44.175,44.175,0,0,1,162.84,272.8Z" transform="translate(-162.84 -272.8)"/></g><path class="s" d="M128.875,225.121a27.514,27.514,0,0,1-5.362-2.884,4.257,4.257,0,0,1-1.323-1.117,4.1,4.1,0,0,1-.518-1.486c-.431-2.066-.8-4.138-1.1-6.242a34.711,34.711,0,0,0-3.552,6.966q.624-12.84,1.248-25.667l-8.814,23.32c-.668,1.779-1.536,3.745-3.321,4.407a47.439,47.439,0,0,1,.855-10.106,273.2,273.2,0,0,1,7.54-32.883c-6.354,13.152-13.658,25.842-20.973,38.5,3.876-10.487,5.768-21.591,9-32.3a209.482,209.482,0,0,1,8.6-22.634,19,19,0,0,0-3.034,2.709c-2.9,3.084-26.934,60.335-26.934,60.335l36.341,11.267,2.116-9.625.749,10.518,1.529.468.774-7.185.949,7.721,13.608,4.245-1.03-17.79A13.969,13.969,0,0,1,128.875,225.121Z" transform="translate(-81.18 -159.235)"/><path class="e" d="M172.641,178.935a21.641,21.641,0,0,1,1.167,9.263,12.7,12.7,0,0,0,2.16-5.892,15.643,15.643,0,0,0-.512-5.537,20.243,20.243,0,0,0-7.547-11.042,19.7,19.7,0,0,0-3.489-2.041c-3.471-.05-6.411.125-6.411.125s-11.929-7.328-24.032-6.816c-8.4.356-12.609,1.873-15.374,3.745a209.478,209.478,0,0,0-8.583,22.64c-3.233,10.705-5.125,21.81-9,32.3,7.3-12.684,14.606-25.374,20.961-38.557a273.2,273.2,0,0,0-7.54,32.927,47.439,47.439,0,0,0-.868,10.15c1.785-.624,2.653-2.628,3.321-4.407l8.814-23.32q-.624,12.84-1.248,25.667a34.713,34.713,0,0,1,3.552-6.966c.306,2.091.674,4.163,1.1,6.242a4.1,4.1,0,0,0,.518,1.486,4.257,4.257,0,0,0,1.336,1.074,27.515,27.515,0,0,0,5.393,2.884,13.97,13.97,0,0,0,7.353.543l-.674-11.679s-8.533,2.129-10.68-5.849,2.6-13.439,7.259-11.648,4.12,9.138,4.12,9.138a18.283,18.283,0,0,0,8.065-10.842,68.006,68.006,0,0,0,1.635-15.936s15.53-.7,16.7,4.369a39.569,39.569,0,0,1,.774,6.791A12.072,12.072,0,0,0,172.641,178.935Z" transform="translate(-88.636 -156.969)"/><path class="s" d="M213.241,169.539c-1.579-1.392-6.485-1.773-10.611-1.829a19.7,19.7,0,0,1,3.489,2.041,20.243,20.243,0,0,1,7.547,11.055,15.642,15.642,0,0,1,.512,5.537,12.7,12.7,0,0,1-2.16,5.892,21.641,21.641,0,0,0-1.167-9.263,12.072,12.072,0,0,1-1.748,8.807c.15,3.308,0,6.086,0,6.086s9.394-6.679,10.081-11.791S216.138,172.1,213.241,169.539Z" transform="translate(-126.821 -161.005)"/></g><path class="c" d="M169.471,242.874a2.441,2.441,0,1,1-2.434-2.434A2.441,2.441,0,0,1,169.471,242.874Z" transform="translate(-71.434 -123.521)"/><path class="c" d="M165.086,248.25a5.686,5.686,0,1,0,5.686,5.686,5.686,5.686,0,0,0-5.686-5.686Zm0,10.112a4.432,4.432,0,1,1,4.426-4.426,4.432,4.432,0,0,1-4.426,4.426Z" transform="translate(-69.484 -126.456)"/></g></g></svg>