<svg xmlns="http://www.w3.org/2000/svg" width="102.514" height="102.514" viewBox="0 0 102.514 102.514"><defs><style>.a{fill:#d9a171;}.b{fill:#fff;}</style></defs><g transform="translate(-1589.211 -5895.615)"><path class="a" d="M48.465,0A48.465,48.465,0,1,1,0,48.465,48.465,48.465,0,0,1,48.465,0Z" transform="translate(1592.002 5898.407)"/><path class="b" d="M654.675,1451.646a51.257,51.257,0,1,1,51.258-51.257A51.315,51.315,0,0,1,654.675,1451.646Zm0-96.931a45.674,45.674,0,1,0,45.675,45.674A45.726,45.726,0,0,0,654.675,1354.715Z" transform="translate(985.792 4546.483)"/><path class="b" d="M25.277,35.012h4.136a5.828,5.828,0,0,0,4.377-1.477,5.412,5.412,0,0,0,1.423-3.921,4.786,4.786,0,0,0-1.41-3.679,5.464,5.464,0,0,0-3.881-1.316,5.727,5.727,0,0,0-3.733,1.222,3.907,3.907,0,0,0-1.5,3.182H16.925a9.545,9.545,0,0,1,1.652-5.492,11.006,11.006,0,0,1,4.619-3.8,15.416,15.416,0,0,1,6.539-1.37q6.2,0,9.722,2.968a10.125,10.125,0,0,1,3.518,8.177,8.228,8.228,0,0,1-1.638,4.941,10.643,10.643,0,0,1-4.3,3.464,9.716,9.716,0,0,1,4.928,3.545,9.616,9.616,0,0,1,1.625,5.586,10.293,10.293,0,0,1-3.8,8.352q-3.8,3.142-10.057,3.142a14.487,14.487,0,0,1-9.574-3.088,10.086,10.086,0,0,1-3.719-8.164H24.2a4.5,4.5,0,0,0,1.652,3.6,6.086,6.086,0,0,0,4.069,1.4,6.115,6.115,0,0,0,4.337-1.464,5.052,5.052,0,0,0,1.571-3.881q0-5.854-6.445-5.854H25.277Z" transform="translate(1610 5910.791)"/></g></svg>