<svg xmlns="http://www.w3.org/2000/svg" width="382" height="231.929" viewBox="0 0 382 231.929"><defs><style>.a{fill:#f6f6f6;}.b{fill:#fff;}.c{fill:#12263f;}.d{fill:none;stroke:#afafaf;stroke-linecap:round;}.e{fill:#d9a171;}</style></defs><g transform="translate(-938 -9148.791)"><path class="a" d="M0,0H381.574V80H0Z" transform="translate(938 9220.604)"/><path class="b" d="M0,0H382V80H0Z" transform="translate(938 9300.22)"/><path class="c" d="M9.026,13.9H4.052V19H.967V6.2H9.527V8.585H4.052v2.944H9.026Zm7.365,2.707H12.164L11.426,19H8.13L12.823,6.2h2.9L20.452,19H17.139ZM12.9,14.228h2.751l-1.38-4.438Zm11.566,2.4h5.37V19H21.384V6.2h3.085ZM31.14,19V6.2h4.122a6.064,6.064,0,0,1,3.05.769,5.406,5.406,0,0,1,2.114,2.171,6.554,6.554,0,0,1,.769,3.142v.589a6.592,6.592,0,0,1-.743,3.151A5.429,5.429,0,0,1,38.36,18.2a5.93,5.93,0,0,1-3.01.8ZM34.225,8.585v8.042H35.3a2.4,2.4,0,0,0,2.039-.945,4.63,4.63,0,0,0,.712-2.808V12.32a4.592,4.592,0,0,0-.712-2.795,2.442,2.442,0,0,0-2.074-.94Zm15.82,8.024H45.817L45.079,19h-3.3L46.477,6.2h2.9L54.105,19H50.792Zm-3.489-2.382h2.751l-1.38-4.438ZM61.638,15.6a1.268,1.268,0,0,0-.479-1.055,5.954,5.954,0,0,0-1.683-.782,16.147,16.147,0,0,1-1.969-.782Q55.02,11.758,55.02,9.622a3.011,3.011,0,0,1,.62-1.876A4.008,4.008,0,0,1,57.393,6.48a6.823,6.823,0,0,1,2.549-.453,5.969,5.969,0,0,1,2.474.492,3.917,3.917,0,0,1,1.7,1.4A3.661,3.661,0,0,1,64.723,10H61.646a1.547,1.547,0,0,0-.479-1.213,1.867,1.867,0,0,0-1.3-.431,2.106,2.106,0,0,0-1.305.365,1.074,1.074,0,0,0,.048,1.819,6.65,6.65,0,0,0,1.854.826,11.36,11.36,0,0,1,2.18.918,3.663,3.663,0,0,1,2.074,3.3,3.125,3.125,0,0,1-1.266,2.637,5.629,5.629,0,0,1-3.472.958,6.888,6.888,0,0,1-2.817-.558,4.247,4.247,0,0,1-1.9-1.529,3.985,3.985,0,0,1-.637-2.237h3.094a1.963,1.963,0,0,0,.532,1.516,2.513,2.513,0,0,0,1.727.488,1.985,1.985,0,0,0,1.208-.33A1.088,1.088,0,0,0,61.638,15.6ZM11.32,93.667a4.673,4.673,0,0,1-.721,2.36,4.35,4.35,0,0,1-1.85,1.586,6.3,6.3,0,0,1-2.72.563,5.025,5.025,0,0,1-3.973-1.644,6.786,6.786,0,0,1-1.45-4.641v-.633a7.746,7.746,0,0,1,.655-3.292,4.961,4.961,0,0,1,1.885-2.18,5.26,5.26,0,0,1,2.848-.769,5.516,5.516,0,0,1,3.744,1.226,4.844,4.844,0,0,1,1.608,3.379H8.271a2.292,2.292,0,0,0-.589-1.679,2.422,2.422,0,0,0-1.687-.51,1.843,1.843,0,0,0-1.687.861,5.536,5.536,0,0,0-.562,2.751v.905a6.126,6.126,0,0,0,.514,2.927,1.882,1.882,0,0,0,1.771.879,2.369,2.369,0,0,0,1.626-.5,2.126,2.126,0,0,0,.6-1.591Zm8.728,1.942H15.82L15.082,98h-3.3l4.693-12.8h2.9L24.108,98H20.795Zm-3.489-2.382H19.31l-1.38-4.438ZM29.092,85.2l2.856,8.9L34.8,85.2h4.061V98H35.763V95.012l.3-6.117L32.968,98H30.929l-3.1-9.114.3,6.126V98H25.04V85.2ZM44.1,98H41.027V85.2H44.1Zm8.745-3.4a1.268,1.268,0,0,0-.479-1.055,5.954,5.954,0,0,0-1.683-.782,16.147,16.147,0,0,1-1.969-.782q-2.487-1.222-2.487-3.357a3.011,3.011,0,0,1,.62-1.876A4.008,4.008,0,0,1,48.6,85.48a6.823,6.823,0,0,1,2.549-.453,5.969,5.969,0,0,1,2.474.492,3.917,3.917,0,0,1,1.7,1.4A3.661,3.661,0,0,1,55.934,89H52.857a1.547,1.547,0,0,0-.479-1.213,1.867,1.867,0,0,0-1.3-.431,2.106,2.106,0,0,0-1.305.365,1.074,1.074,0,0,0,.048,1.819,6.65,6.65,0,0,0,1.854.826,11.36,11.36,0,0,1,2.18.918,3.663,3.663,0,0,1,2.074,3.3,3.125,3.125,0,0,1-1.266,2.637,5.629,5.629,0,0,1-3.472.958,6.888,6.888,0,0,1-2.817-.558,4.247,4.247,0,0,1-1.9-1.529,3.985,3.985,0,0,1-.637-2.237h3.094a1.963,1.963,0,0,0,.532,1.516,2.513,2.513,0,0,0,1.727.488,1.985,1.985,0,0,0,1.208-.33A1.088,1.088,0,0,0,52.849,94.6Zm11.936,1.011H60.557L59.818,98h-3.3l4.693-12.8h2.9L68.845,98H65.531Zm-3.489-2.382h2.751l-1.38-4.438ZM76.377,94.6a1.268,1.268,0,0,0-.479-1.055,5.954,5.954,0,0,0-1.683-.782,16.147,16.147,0,0,1-1.969-.782q-2.487-1.222-2.487-3.357a3.011,3.011,0,0,1,.62-1.876,4.008,4.008,0,0,1,1.753-1.266,6.823,6.823,0,0,1,2.549-.453,5.969,5.969,0,0,1,2.474.492,3.917,3.917,0,0,1,1.7,1.4A3.661,3.661,0,0,1,79.462,89H76.386a1.547,1.547,0,0,0-.479-1.213,1.867,1.867,0,0,0-1.3-.431,2.106,2.106,0,0,0-1.305.365,1.074,1.074,0,0,0,.048,1.819,6.65,6.65,0,0,0,1.854.826,11.36,11.36,0,0,1,2.18.918,3.663,3.663,0,0,1,2.074,3.3A3.125,3.125,0,0,1,78.2,97.218a5.629,5.629,0,0,1-3.472.958,6.888,6.888,0,0,1-2.817-.558,4.247,4.247,0,0,1-1.9-1.529,3.985,3.985,0,0,1-.637-2.237h3.094A1.963,1.963,0,0,0,73,95.368a2.513,2.513,0,0,0,1.727.488,1.985,1.985,0,0,0,1.208-.33A1.088,1.088,0,0,0,76.377,94.6Z" transform="translate(952 9254.896)"/><path class="c" d="M1.609-5.7l.578-5.672H8.016v1.336h-4.6l-.344,3.1a3.671,3.671,0,0,1,1.9-.492A3.138,3.138,0,0,1,7.438-6.4a4.026,4.026,0,0,1,.914,2.777A3.886,3.886,0,0,1,7.4-.855,3.46,3.46,0,0,1,4.75.156,3.6,3.6,0,0,1,2.289-.68,3.337,3.337,0,0,1,1.2-2.992H2.57a2.3,2.3,0,0,0,.7,1.473,2.162,2.162,0,0,0,1.484.5,1.95,1.95,0,0,0,1.582-.687,2.874,2.874,0,0,0,.574-1.9,2.638,2.638,0,0,0-.621-1.832,2.113,2.113,0,0,0-1.652-.691,2.383,2.383,0,0,0-1.484.414l-.383.313Zm8.5,4.945a.905.905,0,0,1,.223-.625A.848.848,0,0,1,11-1.633a.874.874,0,0,1,.676.25.887.887,0,0,1,.23.625.839.839,0,0,1-.23.6A.89.89,0,0,1,11,.086a.863.863,0,0,1-.668-.242A.855.855,0,0,1,10.109-.758ZM21.273-4.852a6.61,6.61,0,0,1-.867,3.773A3.084,3.084,0,0,1,17.7.156,3.107,3.107,0,0,1,15-1.051a6.274,6.274,0,0,1-.906-3.605v-1.93a6.463,6.463,0,0,1,.867-3.727,3.108,3.108,0,0,1,2.719-1.219,3.136,3.136,0,0,1,2.7,1.176,6.237,6.237,0,0,1,.891,3.629ZM19.828-6.828A5.3,5.3,0,0,0,19.313-9.5a1.775,1.775,0,0,0-1.633-.84,1.751,1.751,0,0,0-1.617.836,5.171,5.171,0,0,0-.523,2.57v2.313A5.381,5.381,0,0,0,16.074-1.9a1.771,1.771,0,0,0,1.621.879,1.747,1.747,0,0,0,1.59-.828,5.186,5.186,0,0,0,.543-2.609Zm10.43,1.977a6.61,6.61,0,0,1-.867,3.773A3.084,3.084,0,0,1,26.68.156a3.107,3.107,0,0,1-2.7-1.207,6.274,6.274,0,0,1-.906-3.605v-1.93a6.463,6.463,0,0,1,.867-3.727,3.108,3.108,0,0,1,2.719-1.219,3.136,3.136,0,0,1,2.7,1.176,6.237,6.237,0,0,1,.891,3.629ZM28.813-6.828A5.3,5.3,0,0,0,28.3-9.5a1.775,1.775,0,0,0-1.633-.84,1.751,1.751,0,0,0-1.617.836,5.171,5.171,0,0,0-.523,2.57v2.313A5.381,5.381,0,0,0,25.059-1.9a1.771,1.771,0,0,0,1.621.879,1.747,1.747,0,0,0,1.59-.828,5.186,5.186,0,0,0,.543-2.609Zm10.43,1.977a6.61,6.61,0,0,1-.867,3.773A3.084,3.084,0,0,1,35.664.156a3.107,3.107,0,0,1-2.7-1.207,6.274,6.274,0,0,1-.906-3.605v-1.93a6.463,6.463,0,0,1,.867-3.727,3.108,3.108,0,0,1,2.719-1.219,3.136,3.136,0,0,1,2.7,1.176,6.237,6.237,0,0,1,.891,3.629ZM37.8-6.828A5.3,5.3,0,0,0,37.281-9.5a1.775,1.775,0,0,0-1.633-.84,1.751,1.751,0,0,0-1.617.836,5.171,5.171,0,0,0-.523,2.57v2.313A5.381,5.381,0,0,0,34.043-1.9a1.771,1.771,0,0,0,1.621.879,1.747,1.747,0,0,0,1.59-.828A5.186,5.186,0,0,0,37.8-4.461ZM7.844,67.594a2.641,2.641,0,0,1-.449,1.516A3.056,3.056,0,0,1,6.18,70.148a3.26,3.26,0,0,1,1.41,1.117,2.811,2.811,0,0,1,.52,1.664,2.972,2.972,0,0,1-1,2.352,3.827,3.827,0,0,1-2.621.875,3.81,3.81,0,0,1-2.629-.879A2.986,2.986,0,0,1,.875,72.93a2.9,2.9,0,0,1,.5-1.664,3.136,3.136,0,0,1,1.395-1.125,2.981,2.981,0,0,1-1.2-1.039,2.679,2.679,0,0,1-.437-1.508,2.94,2.94,0,0,1,.922-2.281,3.458,3.458,0,0,1,2.43-.844,3.461,3.461,0,0,1,2.426.844A2.934,2.934,0,0,1,7.844,67.594Zm-1.18,5.3a2.1,2.1,0,0,0-.605-1.555,2.147,2.147,0,0,0-1.582-.6,2.11,2.11,0,0,0-1.566.594A2.12,2.12,0,0,0,2.32,72.9a2.019,2.019,0,0,0,.574,1.523,2.2,2.2,0,0,0,1.6.555,2.2,2.2,0,0,0,1.594-.559A2.014,2.014,0,0,0,6.664,72.9ZM4.492,65.656a1.865,1.865,0,0,0-1.379.527,2.182,2.182,0,0,0-.008,2.836,1.844,1.844,0,0,0,1.387.535,1.844,1.844,0,0,0,1.387-.535,2.138,2.138,0,0,0-.02-2.816A1.839,1.839,0,0,0,4.492,65.656Zm5.617,9.586a.905.905,0,0,1,.223-.625.848.848,0,0,1,.668-.25.874.874,0,0,1,.676.25.887.887,0,0,1,.23.625.839.839,0,0,1-.23.6.89.89,0,0,1-.676.242.8.8,0,0,1-.891-.844Zm11.164-4.094a6.61,6.61,0,0,1-.867,3.773A3.084,3.084,0,0,1,17.7,76.156,3.107,3.107,0,0,1,15,74.949a6.274,6.274,0,0,1-.906-3.605v-1.93a6.463,6.463,0,0,1,.867-3.727,3.108,3.108,0,0,1,2.719-1.219,3.136,3.136,0,0,1,2.7,1.176,6.237,6.237,0,0,1,.891,3.629Zm-1.445-1.977a5.3,5.3,0,0,0-.516-2.676,1.775,1.775,0,0,0-1.633-.84,1.751,1.751,0,0,0-1.617.836,5.171,5.171,0,0,0-.523,2.57v2.313a5.381,5.381,0,0,0,.535,2.723,1.771,1.771,0,0,0,1.621.879,1.747,1.747,0,0,0,1.59-.828,5.186,5.186,0,0,0,.543-2.609Zm10.43,1.977a6.61,6.61,0,0,1-.867,3.773,3.084,3.084,0,0,1-2.711,1.234,3.107,3.107,0,0,1-2.7-1.207,6.274,6.274,0,0,1-.906-3.605v-1.93a6.463,6.463,0,0,1,.867-3.727,3.108,3.108,0,0,1,2.719-1.219,3.136,3.136,0,0,1,2.7,1.176,6.237,6.237,0,0,1,.891,3.629Zm-1.445-1.977A5.3,5.3,0,0,0,28.3,66.5a1.775,1.775,0,0,0-1.633-.84,1.751,1.751,0,0,0-1.617.836,5.171,5.171,0,0,0-.523,2.57v2.313a5.381,5.381,0,0,0,.535,2.723,1.771,1.771,0,0,0,1.621.879,1.747,1.747,0,0,0,1.59-.828,5.186,5.186,0,0,0,.543-2.609Zm10.43,1.977a6.61,6.61,0,0,1-.867,3.773,3.084,3.084,0,0,1-2.711,1.234,3.107,3.107,0,0,1-2.7-1.207,6.274,6.274,0,0,1-.906-3.605v-1.93a6.463,6.463,0,0,1,.867-3.727,3.108,3.108,0,0,1,2.719-1.219,3.136,3.136,0,0,1,2.7,1.176,6.237,6.237,0,0,1,.891,3.629ZM37.8,69.172a5.3,5.3,0,0,0-.516-2.676,1.775,1.775,0,0,0-1.633-.84,1.751,1.751,0,0,0-1.617.836,5.171,5.171,0,0,0-.523,2.57v2.313a5.381,5.381,0,0,0,.535,2.723,1.771,1.771,0,0,0,1.621.879,1.747,1.747,0,0,0,1.59-.828,5.186,5.186,0,0,0,.543-2.609Z" transform="translate(1061 9269.896)"/><path class="c" d="M9.328-11.375v7.734A3.628,3.628,0,0,1,8.316-1.008,4.077,4.077,0,0,1,5.594.141L5.2.156A4.258,4.258,0,0,1,2.219-.852,3.6,3.6,0,0,1,1.094-3.625v-7.75H2.578v7.7a2.6,2.6,0,0,0,.68,1.918A2.612,2.612,0,0,0,5.2-1.07a2.63,2.63,0,0,0,1.949-.68A2.6,2.6,0,0,0,7.82-3.664v-7.711ZM20.438,0H18.93L13.2-8.766V0H11.7V-11.375H13.2l5.742,8.8v-8.8h1.492Zm4.273,0h-1.5V-11.375h1.5Zm2.742,0V-11.375h3.211a5.169,5.169,0,0,1,2.625.656,4.438,4.438,0,0,1,1.762,1.867A6.078,6.078,0,0,1,35.68-6.07v.727a6.1,6.1,0,0,1-.621,2.82A4.369,4.369,0,0,1,33.285-.664,5.5,5.5,0,0,1,30.6,0Zm1.5-10.141v8.914h1.578A3.435,3.435,0,0,0,33.23-2.3a4.452,4.452,0,0,0,.965-3.07v-.664a4.522,4.522,0,0,0-.91-3.012,3.24,3.24,0,0,0-2.582-1.09ZM44.227-2.969H39.461L38.391,0H36.844l4.344-11.375H42.5L46.852,0H45.313ZM39.914-4.2h3.867l-1.937-5.32ZM48.383,0V-11.375h3.211a5.169,5.169,0,0,1,2.625.656A4.438,4.438,0,0,1,55.98-8.852a6.078,6.078,0,0,1,.629,2.781v.727a6.1,6.1,0,0,1-.621,2.82A4.369,4.369,0,0,1,54.215-.664,5.5,5.5,0,0,1,51.531,0Zm1.5-10.141v8.914h1.578A3.435,3.435,0,0,0,54.16-2.3a4.452,4.452,0,0,0,.965-3.07v-.664a4.522,4.522,0,0,0-.91-3.012,3.24,3.24,0,0,0-2.582-1.09ZM65.3-5.258h-4.93v4.031H66.1V0H58.875V-11.375h7.148v1.234H60.375v3.656H65.3Zm6.016.188a7.053,7.053,0,0,1-2.809-1.363,2.6,2.6,0,0,1-.879-2,2.751,2.751,0,0,1,1.074-2.223,4.269,4.269,0,0,1,2.793-.879,4.66,4.66,0,0,1,2.09.453,3.436,3.436,0,0,1,1.422,1.25,3.2,3.2,0,0,1,.5,1.742H74.008a2.069,2.069,0,0,0-.656-1.621A2.675,2.675,0,0,0,71.5-10.3a2.736,2.736,0,0,0-1.73.488,1.628,1.628,0,0,0-.621,1.355,1.465,1.465,0,0,0,.59,1.176,5.79,5.79,0,0,0,2.008.879,9.3,9.3,0,0,1,2.219.879A3.367,3.367,0,0,1,75.152-4.4a2.861,2.861,0,0,1,.387,1.508A2.658,2.658,0,0,1,74.461-.676a4.6,4.6,0,0,1-2.883.832,5.347,5.347,0,0,1-2.187-.449,3.681,3.681,0,0,1-1.566-1.23A3,3,0,0,1,67.273-3.3h1.508a1.959,1.959,0,0,0,.762,1.629,3.207,3.207,0,0,0,2.035.6,2.948,2.948,0,0,0,1.82-.484,1.573,1.573,0,0,0,.633-1.32,1.545,1.545,0,0,0-.586-1.293A6.755,6.755,0,0,0,71.32-5.07ZM9.328,64.625v7.734a3.628,3.628,0,0,1-1.012,2.633,4.077,4.077,0,0,1-2.723,1.148l-.4.016a4.258,4.258,0,0,1-2.977-1.008,3.6,3.6,0,0,1-1.125-2.773v-7.75H2.578v7.7a2.6,2.6,0,0,0,.68,1.918A2.612,2.612,0,0,0,5.2,74.93a2.63,2.63,0,0,0,1.949-.68,2.6,2.6,0,0,0,.676-1.914V64.625ZM20.438,76H18.93L13.2,67.234V76H11.7V64.625H13.2l5.742,8.8v-8.8h1.492Zm4.273,0h-1.5V64.625h1.5Zm2.742,0V64.625h3.211a5.169,5.169,0,0,1,2.625.656,4.438,4.438,0,0,1,1.762,1.867,6.078,6.078,0,0,1,.629,2.781v.727a6.1,6.1,0,0,1-.621,2.82,4.369,4.369,0,0,1-1.773,1.859A5.5,5.5,0,0,1,30.6,76Zm1.5-10.141v8.914h1.578a3.435,3.435,0,0,0,2.7-1.078,4.452,4.452,0,0,0,.965-3.07v-.664a4.522,4.522,0,0,0-.91-3.012,3.24,3.24,0,0,0-2.582-1.09Zm15.273,7.172H39.461L38.391,76H36.844l4.344-11.375H42.5L46.852,76H45.313ZM39.914,71.8h3.867l-1.937-5.32ZM48.383,76V64.625h3.211a5.169,5.169,0,0,1,2.625.656,4.438,4.438,0,0,1,1.762,1.867,6.078,6.078,0,0,1,.629,2.781v.727a6.1,6.1,0,0,1-.621,2.82,4.369,4.369,0,0,1-1.773,1.859A5.5,5.5,0,0,1,51.531,76Zm1.5-10.141v8.914h1.578a3.435,3.435,0,0,0,2.7-1.078,4.452,4.452,0,0,0,.965-3.07v-.664a4.522,4.522,0,0,0-.91-3.012,3.24,3.24,0,0,0-2.582-1.09ZM65.3,70.742h-4.93v4.031H66.1V76H58.875V64.625h7.148v1.234H60.375v3.656H65.3Zm6.016.188a7.053,7.053,0,0,1-2.809-1.363,2.6,2.6,0,0,1-.879-2,2.751,2.751,0,0,1,1.074-2.223,4.269,4.269,0,0,1,2.793-.879,4.66,4.66,0,0,1,2.09.453,3.436,3.436,0,0,1,1.422,1.25,3.2,3.2,0,0,1,.5,1.742H74.008a2.069,2.069,0,0,0-.656-1.621A2.675,2.675,0,0,0,71.5,65.7a2.736,2.736,0,0,0-1.73.488,1.628,1.628,0,0,0-.621,1.355,1.465,1.465,0,0,0,.59,1.176,5.79,5.79,0,0,0,2.008.879,9.3,9.3,0,0,1,2.219.879A3.367,3.367,0,0,1,75.152,71.6a2.861,2.861,0,0,1,.387,1.508,2.658,2.658,0,0,1-1.078,2.215,4.6,4.6,0,0,1-2.883.832,5.347,5.347,0,0,1-2.187-.449,3.681,3.681,0,0,1-1.566-1.23,3,3,0,0,1-.551-1.773h1.508a1.959,1.959,0,0,0,.762,1.629,3.207,3.207,0,0,0,2.035.6,2.948,2.948,0,0,0,1.82-.484,1.573,1.573,0,0,0,.633-1.32,1.545,1.545,0,0,0-.586-1.293A6.755,6.755,0,0,0,71.32,70.93Z" transform="translate(1197 9269.896)"/><path class="d" d="M0,0V160" transform="translate(1047 9220.22)"/><path class="d" d="M0,0V160" transform="translate(1186.45 9220.22)"/><path class="e" d="M0,0H381.574V72.1H0Z" transform="translate(938 9148.791)"/><path class="b" d="M-43.233-4.342V0h-3.085V-12.8h5.106a5.948,5.948,0,0,1,2.6.541,4.074,4.074,0,0,1,1.749,1.538,4.2,4.2,0,0,1,.62,2.263,3.7,3.7,0,0,1-1.34,2.993,5.561,5.561,0,0,1-3.678,1.121Zm0-2.382h2.021a1.906,1.906,0,0,0,1.367-.448,1.665,1.665,0,0,0,.47-1.266,2.059,2.059,0,0,0-.483-1.433,1.712,1.712,0,0,0-1.318-.545h-2.057Zm13.386,2.206h-1.67V0H-34.6V-12.8h5.036a5.617,5.617,0,0,1,3.56,1.011A3.426,3.426,0,0,1-24.724-8.93a4.163,4.163,0,0,1-.541,2.215,3.837,3.837,0,0,1-1.692,1.424l2.672,5.159V0h-3.3ZM-31.518-6.9h1.951a1.754,1.754,0,0,0,1.323-.461A1.781,1.781,0,0,0-27.8-8.648a1.8,1.8,0,0,0-.448-1.3,1.737,1.737,0,0,0-1.318-.47h-1.951Zm19.494.765a7.546,7.546,0,0,1-.694,3.313A5.132,5.132,0,0,1-14.691-.6,5.494,5.494,0,0,1-17.6.176a5.572,5.572,0,0,1-2.9-.751,5.123,5.123,0,0,1-1.973-2.149,7.329,7.329,0,0,1-.743-3.208v-.721a7.58,7.58,0,0,1,.69-3.318,5.119,5.119,0,0,1,1.978-2.219,5.533,5.533,0,0,1,2.931-.782,5.479,5.479,0,0,1,2.9.773A5.211,5.211,0,0,1-12.74-10a7.362,7.362,0,0,1,.716,3.274Zm-3.138-.536a5.381,5.381,0,0,0-.637-2.9,2.044,2.044,0,0,0-1.824-.989q-2.32,0-2.452,3.48l-.009.94a5.535,5.535,0,0,0,.624,2.892A2.041,2.041,0,0,0-17.6-2.232a2.016,2.016,0,0,0,1.8-.993,5.383,5.383,0,0,0,.642-2.856ZM-10.433,0V-12.8h4.122a6.064,6.064,0,0,1,3.05.769A5.406,5.406,0,0,1-1.147-9.857,6.554,6.554,0,0,1-.378-6.715v.589a6.592,6.592,0,0,1-.743,3.151A5.429,5.429,0,0,1-3.212-.8a5.93,5.93,0,0,1-3.01.8Zm3.085-10.415v8.042h1.072a2.4,2.4,0,0,0,2.039-.945,4.63,4.63,0,0,0,.712-2.808V-6.68a4.592,4.592,0,0,0-.712-2.795,2.442,2.442,0,0,0-2.074-.94ZM11.241-12.8v8.376a4.814,4.814,0,0,1-.606,2.465A3.929,3.929,0,0,1,8.895-.369,6.131,6.131,0,0,1,6.214.176,5.3,5.3,0,0,1,2.531-1.037,4.326,4.326,0,0,1,1.16-4.359V-12.8h3.1v8.5q.053,2.1,1.951,2.1a1.889,1.889,0,0,0,1.45-.527,2.465,2.465,0,0,0,.492-1.714V-12.8ZM23.52-4.333a4.673,4.673,0,0,1-.721,2.36,4.35,4.35,0,0,1-1.85,1.586,6.3,6.3,0,0,1-2.72.563,5.025,5.025,0,0,1-3.973-1.644,6.786,6.786,0,0,1-1.45-4.641v-.633a7.746,7.746,0,0,1,.655-3.292,4.961,4.961,0,0,1,1.885-2.18,5.26,5.26,0,0,1,2.848-.769,5.516,5.516,0,0,1,3.744,1.226,4.844,4.844,0,0,1,1.608,3.379H20.47a2.292,2.292,0,0,0-.589-1.679,2.422,2.422,0,0,0-1.687-.51,1.843,1.843,0,0,0-1.687.861,5.536,5.536,0,0,0-.562,2.751v.905a6.126,6.126,0,0,0,.514,2.927,1.882,1.882,0,0,0,1.771.879,2.369,2.369,0,0,0,1.626-.5,2.126,2.126,0,0,0,.6-1.591Zm11.25-6.082H30.929V0H27.844V-10.415H24.073V-12.8h10.7Zm11.892,4.28a7.546,7.546,0,0,1-.694,3.313A5.132,5.132,0,0,1,43.994-.6,5.494,5.494,0,0,1,41.08.176a5.572,5.572,0,0,1-2.9-.751,5.123,5.123,0,0,1-1.973-2.149,7.329,7.329,0,0,1-.743-3.208v-.721a7.58,7.58,0,0,1,.69-3.318,5.119,5.119,0,0,1,1.978-2.219,5.533,5.533,0,0,1,2.931-.782,5.479,5.479,0,0,1,2.9.773A5.211,5.211,0,0,1,45.945-10a7.362,7.362,0,0,1,.716,3.274Zm-3.138-.536a5.381,5.381,0,0,0-.637-2.9,2.044,2.044,0,0,0-1.824-.989q-2.32,0-2.452,3.48l-.009.94a5.535,5.535,0,0,0,.624,2.892A2.041,2.041,0,0,0,41.08-2.232a2.016,2.016,0,0,0,1.8-.993,5.383,5.383,0,0,0,.642-2.856Z" transform="translate(990 9197.22)"/><path class="b" d="M11.32,14.667a4.673,4.673,0,0,1-.721,2.36,4.35,4.35,0,0,1-1.85,1.586,6.3,6.3,0,0,1-2.72.563,5.025,5.025,0,0,1-3.973-1.644,6.786,6.786,0,0,1-1.45-4.641v-.633a7.746,7.746,0,0,1,.655-3.292,4.961,4.961,0,0,1,1.885-2.18,5.26,5.26,0,0,1,2.848-.769A5.516,5.516,0,0,1,9.738,7.245a4.844,4.844,0,0,1,1.608,3.379H8.271a2.292,2.292,0,0,0-.589-1.679,2.422,2.422,0,0,0-1.687-.51A1.843,1.843,0,0,0,4.307,9.3a5.536,5.536,0,0,0-.562,2.751v.905a6.126,6.126,0,0,0,.514,2.927,1.882,1.882,0,0,0,1.771.879,2.369,2.369,0,0,0,1.626-.5,2.126,2.126,0,0,0,.6-1.591Zm8.728,1.942H15.82L15.082,19h-3.3L16.479,6.2h2.9L24.108,19H20.795Zm-3.489-2.382H19.31L17.93,9.789ZM35.728,19H32.66l-4.535-7.963V19H25.04V6.2h3.085l4.526,7.963V6.2h3.076Zm12-10.415H43.884V19H40.8V8.585H37.028V6.2h10.7ZM52.313,19H49.236V6.2h3.076Zm2.145,0V6.2h4.122a6.064,6.064,0,0,1,3.05.769,5.406,5.406,0,0,1,2.114,2.171,6.554,6.554,0,0,1,.769,3.142v.589a6.592,6.592,0,0,1-.743,3.151,5.429,5.429,0,0,1-2.092,2.18,5.93,5.93,0,0,1-3.01.8ZM57.542,8.585v8.042h1.072a2.4,2.4,0,0,0,2.039-.945,4.63,4.63,0,0,0,.712-2.808V12.32a4.592,4.592,0,0,0-.712-2.795,2.442,2.442,0,0,0-2.074-.94Zm15.82,8.024H69.135L68.4,19H65.1L69.794,6.2h2.9L77.423,19H74.109Zm-3.489-2.382h2.751l-1.38-4.438ZM78.354,19V6.2h4.122a6.064,6.064,0,0,1,3.05.769A5.406,5.406,0,0,1,87.64,9.143a6.554,6.554,0,0,1,.769,3.142v.589a6.592,6.592,0,0,1-.743,3.151,5.429,5.429,0,0,1-2.092,2.18,5.93,5.93,0,0,1-3.01.8ZM81.439,8.585v8.042h1.072a2.4,2.4,0,0,0,2.039-.945,4.63,4.63,0,0,0,.712-2.808V12.32a4.592,4.592,0,0,0-.712-2.795,2.442,2.442,0,0,0-2.074-.94Zm16.488,4.992H93.076v3.05h5.73V19H89.991V6.2h8.833V8.585H93.076v2.7h4.852Zm8.736,2.021a1.268,1.268,0,0,0-.479-1.055,5.954,5.954,0,0,0-1.683-.782,16.147,16.147,0,0,1-1.969-.782q-2.487-1.222-2.487-3.357a3.011,3.011,0,0,1,.62-1.876,4.008,4.008,0,0,1,1.753-1.266,6.823,6.823,0,0,1,2.549-.453,5.969,5.969,0,0,1,2.474.492,3.917,3.917,0,0,1,1.7,1.4A3.661,3.661,0,0,1,109.749,10h-3.076a1.547,1.547,0,0,0-.479-1.213,1.867,1.867,0,0,0-1.3-.431,2.106,2.106,0,0,0-1.305.365,1.074,1.074,0,0,0,.048,1.819,6.65,6.65,0,0,0,1.854.826,11.36,11.36,0,0,1,2.18.918,3.663,3.663,0,0,1,2.074,3.3,3.125,3.125,0,0,1-1.266,2.637,5.629,5.629,0,0,1-3.472.958,6.888,6.888,0,0,1-2.817-.558,4.247,4.247,0,0,1-1.9-1.529,3.985,3.985,0,0,1-.637-2.237h3.094a1.963,1.963,0,0,0,.532,1.516,2.513,2.513,0,0,0,1.727.488,1.985,1.985,0,0,0,1.208-.33A1.088,1.088,0,0,0,106.664,15.6Z" transform="translate(1061 9180.22)"/><path class="b" d="M-24.021-12.8v8.376a4.814,4.814,0,0,1-.606,2.465,3.929,3.929,0,0,1-1.74,1.586,6.131,6.131,0,0,1-2.681.545A5.3,5.3,0,0,1-32.73-1.037,4.326,4.326,0,0,1-34.1-4.359V-12.8H-31v8.5q.053,2.1,1.951,2.1a1.889,1.889,0,0,0,1.45-.527,2.465,2.465,0,0,0,.492-1.714V-12.8ZM-11.408,0h-3.067l-4.535-7.963V0H-22.1V-12.8h3.085l4.526,7.963V-12.8h3.076ZM-6.17,0H-9.246V-12.8H-6.17Zm2.145,0V-12.8H.1a6.064,6.064,0,0,1,3.05.769A5.406,5.406,0,0,1,5.26-9.857a6.554,6.554,0,0,1,.769,3.142v.589a6.592,6.592,0,0,1-.743,3.151A5.429,5.429,0,0,1,3.195-.8,5.93,5.93,0,0,1,.185,0ZM-.94-10.415v8.042H.132a2.4,2.4,0,0,0,2.039-.945,4.63,4.63,0,0,0,.712-2.808V-6.68a4.592,4.592,0,0,0-.712-2.795A2.442,2.442,0,0,0,.1-10.415ZM14.88-2.391H10.652L9.914,0h-3.3l4.693-12.8h2.9L18.94,0H15.627ZM11.391-4.772h2.751l-1.38-4.438ZM19.872,0V-12.8h4.122a6.064,6.064,0,0,1,3.05.769,5.406,5.406,0,0,1,2.114,2.171,6.554,6.554,0,0,1,.769,3.142v.589a6.592,6.592,0,0,1-.743,3.151A5.429,5.429,0,0,1,27.092-.8a5.93,5.93,0,0,1-3.01.8Zm3.085-10.415v8.042h1.072a2.4,2.4,0,0,0,2.039-.945,4.63,4.63,0,0,0,.712-2.808V-6.68a4.592,4.592,0,0,0-.712-2.795,2.442,2.442,0,0,0-2.074-.94ZM-45.536,32V19.2h4.122a6.064,6.064,0,0,1,3.05.769,5.406,5.406,0,0,1,2.114,2.171,6.554,6.554,0,0,1,.769,3.142v.589a6.592,6.592,0,0,1-.743,3.151,5.429,5.429,0,0,1-2.092,2.18,5.93,5.93,0,0,1-3.01.8Zm3.085-10.415v8.042h1.072a2.4,2.4,0,0,0,2.039-.945,4.63,4.63,0,0,0,.712-2.808V25.32a4.592,4.592,0,0,0-.712-2.795,2.442,2.442,0,0,0-2.074-.94Zm16.488,4.992h-4.852v3.05h5.73V32H-33.9V19.2h8.833v2.382h-5.748v2.7h4.852Zm10.67-7.374,2.856,8.9,2.848-8.9h4.061V32H-8.622V29.012l.3-6.117L-11.417,32h-2.039l-3.1-9.114.3,6.126V32h-3.085V19.2ZM4.368,26.577H-.483v3.05h5.73V32H-3.568V19.2H5.265v2.382H-.483v2.7H4.368ZM6.5,32V19.2h4.122a6.064,6.064,0,0,1,3.05.769,5.406,5.406,0,0,1,2.114,2.171,6.554,6.554,0,0,1,.769,3.142v.589a6.592,6.592,0,0,1-.743,3.151,5.429,5.429,0,0,1-2.092,2.18,5.93,5.93,0,0,1-3.01.8ZM9.589,21.585v8.042h1.072a2.4,2.4,0,0,0,2.039-.945,4.63,4.63,0,0,0,.712-2.808V25.32a4.592,4.592,0,0,0-.712-2.795,2.442,2.442,0,0,0-2.074-.94ZM21.428,32H18.352V19.2h3.076Zm2.145,0V19.2h4.122a6.064,6.064,0,0,1,3.05.769,5.406,5.406,0,0,1,2.114,2.171,6.554,6.554,0,0,1,.769,3.142v.589a6.592,6.592,0,0,1-.743,3.151,5.429,5.429,0,0,1-2.092,2.18,5.93,5.93,0,0,1-3.01.8Zm3.085-10.415v8.042h1.072a2.4,2.4,0,0,0,2.039-.945,4.63,4.63,0,0,0,.712-2.808V25.32a4.592,4.592,0,0,0-.712-2.795,2.442,2.442,0,0,0-2.074-.94Zm15.82,8.024H38.25L37.512,32h-3.3l4.693-12.8h2.9L46.538,32H43.225Zm-3.489-2.382h2.751l-1.38-4.438Z" transform="translate(1252 9181.22)"/></g></svg>