<svg xmlns="http://www.w3.org/2000/svg" width="338.244" height="340.779" viewBox="0 0 338.244 340.779"><defs><style>.a{fill:#aed3f2;}.b{fill:#e0e0e0;}.c{fill:#f2e9e4;}.d{fill:#344154;}.e{fill:#ffbe9d;}.f{fill:#eb996e;}.g{fill:#5e6178;}.h{fill:#d9a171;}.i{fill:#fff;stroke:#5e6178;stroke-miterlimit:10;stroke-width:0;}.j{opacity:0.3;}</style></defs><g transform="translate(-7218.068 -2536.553)"><g transform="translate(7218.068 2536.553)"><g transform="translate(8.398 32.033)"><rect class="a" width="70.746" height="63.695" transform="translate(0 184.707)"/><rect class="b" width="52.294" height="19.481" rx="7.53" transform="translate(9.23 211.845)"/><path class="b" d="M7299.762,2838.912c0,.106-15.593.189-34.8.189s-34.8-.083-34.8-.189,15.593-.189,34.8-.189S7299.762,2838.836,7299.762,2838.912Z" transform="translate(-7229.409 -2642.145)"/><path class="b" d="M7238.479,2832.178a1.755,1.755,0,1,1-1.755-1.755,1.756,1.756,0,0,1,1.755,1.755Z" transform="translate(-7230.58 -2640.125)"/><path class="b" d="M7245.329,2832.178a1.755,1.755,0,1,1-1.755-1.755h.008a1.748,1.748,0,0,1,1.748,1.747Z" transform="translate(-7232.248 -2640.125)"/><path class="b" d="M7252.188,2832.178a1.755,1.755,0,1,1-1.755-1.755,1.756,1.756,0,0,1,1.755,1.755Z" transform="translate(-7233.917 -2640.125)"/><rect class="b" width="92.762" height="34.56" rx="12.66" transform="translate(7.747 0.144)"/><path class="a" d="M7541.3,2578.893v87.224l14.049-14.579h66.63v-72.645Z" transform="translate(-7305.152 -2578.893)"/><path class="b" d="M7621.827,2597.052c0,.121-17.787.219-39.719.219s-39.72-.1-39.72-.219,17.779-.219,39.72-.219S7621.827,2596.939,7621.827,2597.052Z" transform="translate(-7305.417 -2583.26)"/><path class="b" d="M7551.908,2589.33a2.005,2.005,0,1,1-2.013-2h.007A2.006,2.006,0,0,1,7551.908,2589.33Z" transform="translate(-7306.759 -2580.948)"/><path class="b" d="M7559.728,2589.328a2,2,0,1,1-2-2h.016A2,2,0,0,1,7559.728,2589.328Z" transform="translate(-7308.662 -2580.945)"/><path class="b" d="M7567.542,2589.33a2,2,0,1,1-2-2A2,2,0,0,1,7567.542,2589.33Z" transform="translate(-7310.568 -2580.948)"/><path class="a" d="M7637.82,2885.881a17.779,17.779,0,1,1-8.036-23.825l.047.024A17.756,17.756,0,0,1,7637.82,2885.881Z" transform="translate(-7320.442 -2647.375)"/><path class="c" d="M7635.4,2885.347a13.55,13.55,0,1,1-6.081-18.172l.029.014A13.535,13.535,0,0,1,7635.4,2885.347Z" transform="translate(-7321.81 -2648.724)"/><path class="b" d="M7635.989,2884.8a8.264,8.264,0,0,1,.408-1.612,14.064,14.064,0,0,0-.045-7.422,13.616,13.616,0,0,0-1.393-3.193,12.776,12.776,0,0,0-2.421-2.965,12.417,12.417,0,0,0-1.6-1.256,13.718,13.718,0,0,0-1.823-1.021,13.984,13.984,0,0,0-1.959-.757,13.408,13.408,0,0,0-1.99-.393,12.275,12.275,0,0,0-1.959-.091,12.593,12.593,0,0,0-1.877.182,13.591,13.591,0,0,0-8.987,5.81c-.605.87-.893,1.392-.969,1.362a4,4,0,0,1,.621-1.574,12.614,12.614,0,0,1,2.935-3.578,13.618,13.618,0,0,1,6.227-2.958,13.47,13.47,0,0,1,2.013-.234,13.189,13.189,0,0,1,2.11.068,13.466,13.466,0,0,1,2.149.416,15.465,15.465,0,0,1,2.118.756,14.228,14.228,0,0,1,1.967,1.112,13.9,13.9,0,0,1,1.718,1.362,12.987,12.987,0,0,1,1.422,1.559,12.517,12.517,0,0,1,1.128,1.679,13.7,13.7,0,0,1,1.392,3.45,13.455,13.455,0,0,1,.408,3.208,12.528,12.528,0,0,1-.8,4.54C7636.39,2884.33,7636.05,2884.83,7635.989,2884.8Z" transform="translate(-7322.212 -2648.562)"/><path class="b" d="M7622.782,2888.782l-1.029,2.164-1.892-.916.991-2.073a9.955,9.955,0,0,1-3.994-3.783l2.156-1.816a8.515,8.515,0,0,0,3.025,3.117l1.514-3.17c-1.861-1.513-3.881-3.359-2.572-6.052.968-2.012,3.261-3.026,6.423-1.937l1.021-2.1,1.9.908-.961,2.012a9.607,9.607,0,0,1,3.3,3.026l-2.073,1.884a8.578,8.578,0,0,0-2.437-2.391l-1.551,3.23c1.869,1.513,3.851,3.321,2.564,6C7628.2,2888.842,7625.937,2889.856,7622.782,2888.782Zm2.133-9.306,1.3-2.693c-1.12-.257-1.778.106-2.081.756s.076,1.3.779,1.937Zm1.067,6.151c.317-.666-.053-1.294-.757-1.967l-1.264,2.618c1.074.25,1.725-.045,2.021-.628Z" transform="translate(-7323.546 -2650.298)"/></g><g transform="translate(10.259 338.728)"><path class="d" d="M7559.613,2984.47c0,.106-73.425.2-163.985.2s-164-.091-164-.2,73.387-.2,164-.2S7559.613,2984.356,7559.613,2984.47Z" transform="translate(-7231.628 -2984.273)"/></g><g transform="translate(72.142 96.145)"><path class="e" d="M7467.44,2712.262l-1.717,69.695c-.288,11.855-3.14,29.2-21.857,27.887h0c-16.153-2.361-19.89-17.878-19.6-28.938.136-5.243.234-9.616.211-10.161,0,0-17.7-2.1-18.551-19.671-.408-8.5.167-26.079.877-41.982a32.805,32.805,0,0,1,31.609-31.3l1.695-.061C7458.445,2678.119,7468.356,2693.931,7467.44,2712.262Z" transform="translate(-7335.909 -2667.067)"/><path class="f" d="M7430.471,2798.239a42.726,42.726,0,0,0,22.7-7.566s-5.129,13.058-22.75,12.1Z" transform="translate(-7341.904 -2694.561)"/><path class="d" d="M7446.376,2729.2c.333.371,2.421-1.188,5.364-1.158s5.077,1.513,5.4,1.188c.159-.167-.182-.825-1.112-1.513a7.4,7.4,0,0,0-4.327-1.4,7.086,7.086,0,0,0-4.267,1.377C7446.535,2728.371,7446.225,2729.029,7446.376,2729.2Z" transform="translate(-7345.78 -2678.893)"/><path class="d" d="M7445.648,2738.254a2.375,2.375,0,0,0,2.375,2.315,2.269,2.269,0,0,0,2.373-2.161l0-.071a2.376,2.376,0,0,0-2.376-2.315,2.269,2.269,0,0,0-2.374,2.161C7445.648,2738.207,7445.648,2738.23,7445.648,2738.254Z" transform="translate(-7345.611 -2681.256)"/><path class="d" d="M7433.431,2749.521c0-.151-1.687-.378-4.418-.635-.7-.045-1.354-.159-1.513-.62a3.551,3.551,0,0,1,.394-2.065c.59-1.695,1.2-3.473,1.854-5.3,2.565-7.566,4.4-13.823,4.093-13.921s-2.64,5.969-5.205,13.558q-.93,2.8-1.77,5.364a4.018,4.018,0,0,0-.257,2.724,1.748,1.748,0,0,0,1.173.969,4.561,4.561,0,0,0,1.18.121C7431.7,2749.725,7433.423,2749.672,7433.431,2749.521Z" transform="translate(-7340.937 -2679.055)"/><path class="d" d="M7448.593,2714.936c.258.666,2.633.257,5.439.507s5.107.953,5.455.34c.159-.295-.257-.908-1.2-1.513a8.881,8.881,0,0,0-4.078-1.309,8.78,8.78,0,0,0-4.221.666C7448.979,2714.074,7448.479,2714.619,7448.593,2714.936Z" transform="translate(-7346.324 -2675.634)"/><path class="d" d="M7410.932,2715.686c.287.545,2.6.038,5.387.053s5.068.461,5.387-.083c.136-.257-.3-.756-1.256-1.21a9.7,9.7,0,0,0-4.086-.832,10.08,10.08,0,0,0-4.123.855C7411.271,2714.929,7410.8,2715.4,7410.932,2715.686Z" transform="translate(-7337.155 -2675.801)"/><path class="e" d="M7485.955,2740.447c.3-.144,11.969-4.01,12.015,8.035s-12.053,9.608-12.105,9.26S7485.955,2740.447,7485.955,2740.447Z" transform="translate(-7355.398 -2682.162)"/><path class="f" d="M7490.744,2754.4c.053,0,.211.144.56.31a2.12,2.12,0,0,0,1.574,0c1.271-.469,2.33-2.5,2.383-4.668a6.966,6.966,0,0,0-.6-3.026,2.437,2.437,0,0,0-1.589-1.6,1.066,1.066,0,0,0-1.233.583c-.159.333-.083.575-.144.6s-.265-.2-.167-.7a1.3,1.3,0,0,1,.469-.757,1.556,1.556,0,0,1,1.157-.318,2.96,2.96,0,0,1,2.2,1.861,7.112,7.112,0,0,1,.756,3.359c-.068,2.429-1.3,4.7-3.026,5.213a2.269,2.269,0,0,1-1.921-.31C7490.767,2754.692,7490.7,2754.42,7490.744,2754.4Z" transform="translate(-7356.586 -2683.395)"/><path class="d" d="M7480.494,2703.035c-2.353-4.335-2.746-9.419-3.941-14.2s-4.706-10.857-9.283-12.68c-4.048-2.5-9.479-2.383-13,.386-.62-6.287-4.736-9.987-10.773-11.817s-15.888-1.233-21.8.908c-4.592,1.649-9.078,5.22-14.624,10.509a59.319,59.319,0,0,0-6.416,7.21l-5.908,16.183,4.229,8.761c.25.6.507,1.188.825,1.778h0l3.428,18.256c.445-4.925.756-22.114,1.157-27.039a27.58,27.58,0,0,0,19.966-8.322c2.807-2.89,5.061-6.552,8.738-8.209,4.735-2.126,10.213-.242,15.055,1.642l-.2-.2a22.045,22.045,0,0,1,6.612,5.152,68.552,68.552,0,0,0,1.892,29.082c.409,1.415,1.559,4.35,2.913,4.933,2.663,1.143,3.487-1.581,5.167-2.981,1.241-1.036,3.026-1.1,4.963-1.029a112.807,112.807,0,0,0,3.783-12.362,10.86,10.86,0,0,0,5.039.522q-.712-1.884-1.415-3.783A5.713,5.713,0,0,0,7479,2706.8a1.967,1.967,0,0,0,2.088-.817C7481.568,2705.025,7480.986,2703.943,7480.494,2703.035Z" transform="translate(-7333.218 -2663.635)"/><path class="g" d="M7467.578,2684.973a14.539,14.539,0,0,1,1.7,1.68,12.522,12.522,0,0,1,2.481,5.924,22.661,22.661,0,0,1,.28,4.471c-.053,1.619-.25,3.344-.439,5.159a46.48,46.48,0,0,0-.34,5.75,19.113,19.113,0,0,0,.28,3.026,6.339,6.339,0,0,0,1.127,2.988,2.64,2.64,0,0,0,2.444.923,3.949,3.949,0,0,0,2.27-1.173,9.131,9.131,0,0,0,1.854-4.4l-.371.038a15.078,15.078,0,0,0,2,3.783,5.247,5.247,0,0,0,3.344,1.982,3.377,3.377,0,0,0,1.823-.25,2.88,2.88,0,0,0,1.271-1.165,3.02,3.02,0,0,0,.431-1.513,2.166,2.166,0,0,0-.514-1.384l-.189.159a11.208,11.208,0,0,0,3.662,2.966,10.664,10.664,0,0,0,1.15.5,2.563,2.563,0,0,0,.416.121,1.522,1.522,0,0,0-.386-.181c-.257-.121-.643-.288-1.112-.552a11.728,11.728,0,0,1-3.533-3.026l-.2.159a2.27,2.27,0,0,1,0,2.61,2.659,2.659,0,0,1-1.15,1.029,3.023,3.023,0,0,1-1.649.2,4.865,4.865,0,0,1-3.1-1.884,14.552,14.552,0,0,1-1.921-3.669l-.234-.575-.136.605a8.917,8.917,0,0,1-1.771,4.207,3.564,3.564,0,0,1-2.035,1.052,2.269,2.269,0,0,1-2.073-.757,5.947,5.947,0,0,1-1.044-2.8,20.065,20.065,0,0,1-.28-2.981,46.2,46.2,0,0,1,.318-5.7c.182-1.816.363-3.548.4-5.19a21.964,21.964,0,0,0-.34-4.539,12.391,12.391,0,0,0-2.64-5.977A7.111,7.111,0,0,0,7467.578,2684.973Z" transform="translate(-7350.95 -2668.829)"/><path class="d" d="M7410.935,2729.345c.333.371,2.42-1.187,5.364-1.157s5.077,1.513,5.4,1.188c.159-.166-.182-.825-1.112-1.513a7.376,7.376,0,0,0-4.32-1.4,7.146,7.146,0,0,0-4.274,1.377C7411.085,2728.521,7410.768,2729.187,7410.935,2729.345Z" transform="translate(-7337.15 -2678.929)"/><path class="d" d="M7413.278,2737.084a2.384,2.384,0,0,0,2.384,2.315,2.27,2.27,0,0,0,2.366-2.169c0-.021,0-.042,0-.063a2.375,2.375,0,0,0-2.375-2.315,2.269,2.269,0,0,0-2.374,2.161C7413.279,2737.037,7413.278,2737.061,7413.278,2737.084Z" transform="translate(-7337.731 -2680.971)"/><path class="d" d="M7399.486,2687.093c-1.513,1.937-3.889,3.677-6.34,3.352a18.576,18.576,0,0,1-2.595-.832c-.878.5-.757,3.442-.174,4.274a15.831,15.831,0,0,0,1.8,1.952c-2.928,1.475-5.531.651-8.58-.552a15.078,15.078,0,0,0,8.663,12.317c1.513.688,3.4,1.09,4.842.212,1.263-.757,1.808-2.27,2.216-3.73a66.11,66.11,0,0,0,2.557-16.077Z" transform="translate(-7330.506 -2669.345)"/><path class="f" d="M7438.907,2764.173a2.428,2.428,0,0,1,2.1-1.271,2.709,2.709,0,0,1,2.11.492,3.83,3.83,0,0,1,.84,4.32,3.17,3.17,0,0,1-3.987,1.513c-1.43-.658-2-4.342-1.006-5.568" transform="translate(-7343.864 -2687.799)"/><path class="d" d="M7438.319,2766.738a5.841,5.841,0,0,1,.31.688,2.5,2.5,0,0,0,1.46,1.294,3.666,3.666,0,0,0,2.852-.341,2.981,2.981,0,0,0-1.46-5.349,2.928,2.928,0,0,0-2.6,1.067,2.965,2.965,0,0,0-.6,1.876c0,.484.083.757.045.757s-.038-.061-.083-.189a2.6,2.6,0,0,1-.113-.567,2.946,2.946,0,0,1,.537-2.05,3.163,3.163,0,0,1,2.86-1.256,3.321,3.321,0,0,1,1.612,6.015,3.906,3.906,0,0,1-3.14.3,2.594,2.594,0,0,1-1.513-1.513,2.08,2.08,0,0,1-.159-.56Z" transform="translate(-7343.775 -2687.739)"/><path class="g" d="M7447.579,2683.052a11.091,11.091,0,0,0-1.786-2.27,11.726,11.726,0,0,0-7.066-3.026,14.37,14.37,0,0,0-5.334.628,21.441,21.441,0,0,0-5.568,2.708c-3.669,2.428-6.915,6.052-10.463,9.722a46.519,46.519,0,0,1-5.568,4.963,22.227,22.227,0,0,1-6.128,3.283,20.162,20.162,0,0,1-11.651.189,19.788,19.788,0,0,1-7.044-3.571l-.953-.8c-.272-.234-.469-.469-.643-.643l-.386-.409c-.083-.091-.129-.144-.121-.151l.151.121.408.378c.182.167.394.394.666.621l.953.757a20.339,20.339,0,0,0,7.021,3.42,20.036,20.036,0,0,0,11.462-.265,22.063,22.063,0,0,0,6.052-3.246,48.213,48.213,0,0,0,5.515-4.925c3.533-3.632,6.809-7.3,10.547-9.752a21.367,21.367,0,0,1,5.674-2.716,14.623,14.623,0,0,1,5.455-.6,11.713,11.713,0,0,1,7.142,3.2,8.934,8.934,0,0,1,1.339,1.687c.105.2.2.363.265.492S7447.587,2683.044,7447.579,2683.052Z" transform="translate(-7330.814 -2666.991)"/><path class="e" d="M7421.568,2807.137l6.673-1.324,41.278-2.549,8.8,2.4-1.158,21.425-19.89,12.688-19.292-.386-12.135-11.045-2.686-10.963Z" transform="translate(-7339.75 -2697.625)"/><path class="h" d="M7512.513,2840.869a129.839,129.839,0,0,0-7.929-14.178,35.379,35.379,0,0,0-20.352-14.821l-31.776-8.617s-1.649,31.776-23.521,31.776-26.131-29.786-26.131-29.786L7366,2819.928c-1.264.492-9.8,3.442-19.731,24.739-9.457,20.284-13.618,30.656-13.618,30.656l37.874,10.94,2.368,34.1-.8,19.474,115.066-.257-.643-22.258.484-34.128,1.438,2.323,38.3-15.358S7521.8,2860.048,7512.513,2840.869Z" transform="translate(-7318.103 -2697.623)"/><path class="d" d="M7537.029,2880.213c.174,0,.068,12.332-.227,27.539s-.644,27.509-.81,27.509-.068-12.332.227-27.539S7536.893,2880.213,7537.029,2880.213Z" transform="translate(-7367.585 -2716.358)"/><path class="d" d="M7375.128,2870.973a5.4,5.4,0,0,1,.424,1.263c.227.825.537,2.028.9,3.51.719,2.981,1.611,7.112,2.443,11.711s1.422,8.792,1.786,11.825c.182,1.513.318,2.754.386,3.609a5.956,5.956,0,0,1,.045,1.332,5.261,5.261,0,0,1-.288-1.3c-.151-.976-.341-2.171-.567-3.578-.469-3.026-1.143-7.187-1.967-11.78s-1.649-8.723-2.27-11.719c-.28-1.4-.515-2.588-.711-3.556A5.96,5.96,0,0,1,7375.128,2870.973Z" transform="translate(-7328.444 -2714.108)"/><path class="e" d="M7331.206,2899.783l-15.419,30.951a22.583,22.583,0,0,0-2.338,11.152h0a22.561,22.561,0,0,0,22.53,21.464l44.214-2.565,1.937-20.17-33.644-8.118,12.748-24.1Z" transform="translate(-7313.423 -2721.122)"/><path class="f" d="M7351.863,2942.814c0,.144-1.513-.113-3.972-.1a30.6,30.6,0,0,0-9.329,1.649,28.388,28.388,0,0,0-8.322,4.434c-1.907,1.513-2.814,2.746-2.92,2.67s.159-.363.56-.93a15,15,0,0,1,2.012-2.156,25.314,25.314,0,0,1,8.458-4.744,26.849,26.849,0,0,1,9.578-1.46,18.022,18.022,0,0,1,2.92.348A3.205,3.205,0,0,1,7351.863,2942.814Z" transform="translate(-7316.8 -2731.44)"/><path class="f" d="M7374.711,2910.843a8.538,8.538,0,0,1-.756,2.368,44.638,44.638,0,0,1-2.535,5.387,43.863,43.863,0,0,1-3.215,5.016,8.426,8.426,0,0,1-1.619,1.869c-.144-.106,2.081-3.14,4.3-7.18S7374.545,2910.782,7374.711,2910.843Z" transform="translate(-7326.363 -2723.814)"/><path class="e" d="M7570.394,2961.856h-51.916v-19.595l30.065-12.7-11.151-23.37,30.1-12.1,14.693,32.684c3.412,9.495,6.9,14,3.926,22.644C7584.564,2953.9,7578.178,2961.856,7570.394,2961.856Z" transform="translate(-7363.341 -2719.734)"/><path class="e" d="M7391.3,2950.134h8.655s19.527-7.059,23.544-6.385c3.617.605,16.864,9.4,19.459,11.144a1.691,1.691,0,0,1,.628.8h0A2.845,2.845,0,0,1,7442,2959.3l-.272.113.113.394a4.786,4.786,0,0,1,.2,1.581,1.906,1.906,0,0,1-3.548.825l.5.885a2.173,2.173,0,0,1,.272,1.188l-.045.81a2.171,2.171,0,0,1-1.513,1.944h0a2.171,2.171,0,0,1-2.27-.6c-1.68-1.846-5.3-5.546-7.762-5.954a56.7,56.7,0,0,0-8.012-.409,2.731,2.731,0,0,0-2.527,1.74h0c1.46.106,11.605,5.394,15.2,7.286a3.853,3.853,0,0,1,2.088,2.9c.128,1.12-.439,2.27-2.663,1.778-4.767-1.112-13.354-5.062-13.354-5.062s-4.434-1.263-7.3.757c-4.04,2.852-5.886,3.9-9.351,2.747a29.417,29.417,0,0,1-6.053-2.8l-6.809-.681S7382.47,2952.608,7391.3,2950.134Z" transform="translate(-7331.247 -2731.814)"/><path class="f" d="M7426.888,2956.3c0,.076,1.384-.363,3.669-.515a18.915,18.915,0,0,1,15.782,6.741,36.014,36.014,0,0,1,2.171,3.026,4.049,4.049,0,0,0-.431-.908,16.707,16.707,0,0,0-1.513-2.27,18.361,18.361,0,0,0-16.009-6.809,15.59,15.59,0,0,0-2.693.461A4.276,4.276,0,0,0,7426.888,2956.3Z" transform="translate(-7341.044 -2734.683)"/><path class="f" d="M7429.618,2949.994a16.218,16.218,0,0,1,3.82-.666,16.647,16.647,0,0,1,8.867,2.512,35.607,35.607,0,0,1,7.157,6.052l1.967,2.081a5.487,5.487,0,0,0,.757.757,6.646,6.646,0,0,0-.644-.832c-.431-.522-1.067-1.271-1.876-2.171a33.1,33.1,0,0,0-7.165-6.2,16.24,16.24,0,0,0-9.079-2.459,10.711,10.711,0,0,0-2.837.522,6.379,6.379,0,0,0-.757.28C7429.693,2949.933,7429.61,2949.979,7429.618,2949.994Z" transform="translate(-7341.709 -2733.119)"/><path class="e" d="M7518.356,2950.9h-8.663s-19.527-7.059-23.544-6.385c-3.616.605-16.864,9.4-19.459,11.144a1.69,1.69,0,0,0-.628.8h0a2.853,2.853,0,0,0,1.581,3.609l.272.113-.113.394a4.723,4.723,0,0,0-.2,1.581,1.907,1.907,0,0,0,3.548.825l-.5.885a2.269,2.269,0,0,0-.272,1.188l.045.8a2.148,2.148,0,0,0,1.513,1.944h0a2.156,2.156,0,0,0,2.27-.59c1.68-1.854,5.3-5.553,7.763-5.962a57.824,57.824,0,0,1,8.019-.4,2.732,2.732,0,0,1,2.52,1.74h0c-1.46.1-11.605,5.394-15.2,7.286a3.843,3.843,0,0,0-2.088,2.89c-.128,1.127.439,2.308,2.663,1.785,4.767-1.112,13.354-5.061,13.354-5.061s4.434-1.271,7.3.757c4.04,2.852,5.886,3.9,9.351,2.746a29.156,29.156,0,0,0,6.053-2.8l6.809-.681S7527.186,2953.4,7518.356,2950.9Z" transform="translate(-7350.539 -2732.001)"/><path class="f" d="M7494.171,2957.107c0,.076-1.385-.363-3.669-.507a18.915,18.915,0,0,0-15.812,6.741,22.753,22.753,0,0,0-2.171,3.026,4.346,4.346,0,0,1,.431-.9,16.659,16.659,0,0,1,1.513-2.27,18.362,18.362,0,0,1,16.01-6.809,16.48,16.48,0,0,1,2.693.454A4.878,4.878,0,0,1,7494.171,2957.107Z" transform="translate(-7352.153 -2734.883)"/><path class="f" d="M7491.134,2950.8a16.19,16.19,0,0,0-3.783-.666,16.72,16.72,0,0,0-8.882,2.519,35.775,35.775,0,0,0-7.157,6.053l-1.967,2.088a5.538,5.538,0,0,1-.756.757,6.254,6.254,0,0,1,.643-.84c.431-.515,1.067-1.264,1.884-2.164a32.864,32.864,0,0,1,7.157-6.2,16.249,16.249,0,0,1,9.079-2.459,10.727,10.727,0,0,1,2.829.522,5.283,5.283,0,0,1,.756.28A.776.776,0,0,1,7491.134,2950.8Z" transform="translate(-7351.196 -2733.318)"/><path class="f" d="M7581.256,2941.419c-.045.068-1.173-.756-3.215-1.7-.507-.227-1.067-.477-1.695-.688s-1.286-.424-2-.628a23.967,23.967,0,0,0-9.54-.552c-.757.128-1.422.227-2.058.4a16.774,16.774,0,0,0-1.763.492c-2.134.7-3.352,1.385-3.39,1.316a4.079,4.079,0,0,1,.847-.507,7.349,7.349,0,0,1,1.037-.507,14.033,14.033,0,0,1,1.415-.567,16.582,16.582,0,0,1,1.778-.545,20.7,20.7,0,0,1,2.081-.439,22.909,22.909,0,0,1,9.684.552c.719.227,1.407.416,2.02.681a15.905,15.905,0,0,1,1.7.757,10.476,10.476,0,0,1,1.347.757,9.087,9.087,0,0,1,.968.628A4.41,4.41,0,0,1,7581.256,2941.419Z" transform="translate(-7372.864 -2730.234)"/><path class="b" d="M7492.982,2959.335H7384.869a5.733,5.733,0,0,1-5.727-5.493l-3.246-74.408a5.734,5.734,0,0,1,5.472-5.986c.085,0,.17-.006.255-.006h114.393a5.742,5.742,0,0,1,5.739,5.745q0,.116,0,.231l-3.026,74.408A5.734,5.734,0,0,1,7492.982,2959.335Z" transform="translate(-7328.63 -2714.71)"/><path class="d" d="M7492.925,2959.2a10.415,10.415,0,0,0,1.044-.121,5.624,5.624,0,0,0,2.716-1.347,5.75,5.75,0,0,0,1.93-4.426q.113-2.973.265-6.847c.408-10.3.991-25.209,1.717-43.631q.272-6.914.575-14.458c.1-2.512.2-5.076.3-7.687,0-.651.076-1.324.053-1.96a5.575,5.575,0,0,0-.446-1.869,5.506,5.506,0,0,0-2.625-2.784,5.709,5.709,0,0,0-1.892-.567c-.65-.053-1.354,0-2.042,0h-112.44a6.192,6.192,0,0,0-2.5.378,5.552,5.552,0,0,0-3.314,3.579,6.194,6.194,0,0,0-.227,1.233v1.279c.038.863.068,1.725.105,2.588l.227,5.152q.439,10.274.877,20.215c.575,13.255,1.127,26.033,1.657,38.214.068,1.513.128,3.026.2,4.539,0,.757.061,1.513.1,2.27a7.836,7.836,0,0,0,.272,2.164,5.586,5.586,0,0,0,2.64,3.246,5.508,5.508,0,0,0,2,.643c.688.076,1.43.038,2.149.045h46.96l43.661.061,11.87.038h-11.87l-43.661.06h-46.93c-.756,0-1.437,0-2.194-.045a5.924,5.924,0,0,1-4.94-4.131,8.187,8.187,0,0,1-.288-2.27c-.038-.757-.068-1.513-.106-2.27q-.091-2.27-.2-4.54c-.537-12.18-1.1-24.967-1.68-38.214q-.431-9.941-.885-20.215c-.076-1.71-.144-3.427-.22-5.152l-.113-2.588a12.594,12.594,0,0,1,0-1.316,6.591,6.591,0,0,1,.234-1.324,5.94,5.94,0,0,1,3.548-3.828,6.635,6.635,0,0,1,2.648-.408h112.44c.7,0,1.37,0,2.081.038a5.923,5.923,0,0,1,2,.6,5.811,5.811,0,0,1,2.776,2.958,5.963,5.963,0,0,1,.469,1.974c0,.689,0,1.324-.053,1.982q-.159,3.927-.318,7.694-.318,7.566-.605,14.458c-.756,18.415-1.4,33.289-1.838,43.623q-.167,3.866-.295,6.809a5.847,5.847,0,0,1-2,4.479,5.68,5.68,0,0,1-2.762,1.332,5.5,5.5,0,0,1-.756.076Z" transform="translate(-7328.573 -2714.578)"/><path class="i" d="M7463.076,2930.067a5.924,5.924,0,1,1-5.924-5.924h0A5.932,5.932,0,0,1,7463.076,2930.067Z" transform="translate(-7346.97 -2727.052)"/></g><g transform="translate(135.039)"><path class="i" d="M7396.778,2551.453v75.134h68.62l14.828,11.469v-86.6Z" transform="translate(-7396.612 -2540.18)"/><path class="d" d="M7396.725,2551.412h5.962l16.939-.045,60.525-.083h.167v87.171l-.318-.242-14.776-11.508.121.038h-68.787v-.167c.038-22.7.061-41.46.083-54.6,0-6.552,0-11.689.045-15.192v.068c0,3.51,0,8.663.038,15.222,0,13.119.053,31.882.083,54.473l-.159-.159h68.688l.053.038,14.829,11.462-.318.159v-86.6l.174.174-60.435-.091-16.977-.038h-5.644Z" transform="translate(-7396.558 -2540.139)"/><path class="d" d="M7480.031,2570.24c0,.121-18.4.227-41.082.227s-41.081-.106-41.081-.227,18.392-.227,41.081-.227S7480.031,2570.111,7480.031,2570.24Z" transform="translate(-7396.877 -2544.698)"/><path class="b" d="M7407.754,2562.246a2.073,2.073,0,1,1-2.073-2.073h.03A2.073,2.073,0,0,1,7407.754,2562.246Z" transform="translate(-7398.274 -2542.303)"/><path class="b" d="M7415.834,2562.246a2.073,2.073,0,1,1-2.073-2.073h.007a2.065,2.065,0,0,1,2.065,2.065Z" transform="translate(-7400.241 -2542.303)"/><path class="b" d="M7423.924,2562.246a2.073,2.073,0,1,1-2.073-2.073,2.074,2.074,0,0,1,2.073,2.073Z" transform="translate(-7402.211 -2542.303)"/><path class="h" d="M7471.774,2599.1a23.242,23.242,0,1,1-23.84-22.627l.046,0A23.219,23.219,0,0,1,7471.774,2599.1Z" transform="translate(-7403.555 -2546.268)"/><path class="h" d="M7467.987,2601.01a17.719,17.719,0,1,1-18.177-17.249h.02a17.69,17.69,0,0,1,18.157,17.208Z" transform="translate(-7405.321 -2548.043)"/><g class="j" transform="translate(27.028 35.029)"><path class="d" d="M7467.921,2600.231a10.272,10.272,0,0,1-.522-2.118,18.955,18.955,0,0,0-2.171-5.379,17.777,17.777,0,0,0-2.421-3.155,17.584,17.584,0,0,0-3.556-2.844,16.128,16.128,0,0,0-2.187-1.12,15.844,15.844,0,0,0-2.429-.832,17.286,17.286,0,0,0-2.6-.477,19.248,19.248,0,0,0-2.731-.06,18.865,18.865,0,0,0-2.716.363,17.482,17.482,0,0,0-6.915,3.208,17.71,17.71,0,0,0-3.215,3.223,18.252,18.252,0,0,0-2.058,3.4,18.78,18.78,0,0,0-1.566,5.591,10.491,10.491,0,0,1-.28,2.156,5.3,5.3,0,0,1-.242-2.194,16.316,16.316,0,0,1,1.2-5.931,18.019,18.019,0,0,1,2.035-3.7,18.26,18.26,0,0,1,3.351-3.525,16.8,16.8,0,0,1,2.179-1.513,17.471,17.471,0,0,1,2.481-1.21,18.305,18.305,0,0,1,2.739-.84,19.554,19.554,0,0,1,2.928-.4,20.042,20.042,0,0,1,2.943.075,17.967,17.967,0,0,1,2.814.53,17.609,17.609,0,0,1,2.6.976,16.256,16.256,0,0,1,2.33,1.249,17.862,17.862,0,0,1,6.159,6.59,16.442,16.442,0,0,1,1.846,5.727A5.217,5.217,0,0,1,7467.921,2600.231Z" transform="translate(-7432.283 -2582.853)"/></g><g class="j" transform="translate(37.476 41.112)"><path class="d" d="M7455.856,2613.688l.113,3.079-2.754.106-.113-3.026a13.036,13.036,0,0,1-6.937-1.944l1.384-3.412a11.16,11.16,0,0,0,5.417,1.748l-.174-4.6c-3.087-.62-6.544-1.513-6.7-5.447-.106-2.92,1.914-5.508,6.242-6.166l-.113-3.026,2.753-.106.114,3.026a12.484,12.484,0,0,1,5.651,1.468l-1.241,3.443a11.261,11.261,0,0,0-4.267-1.271l.174,4.676c3.086.6,6.484,1.513,6.635,5.372C7462.151,2610.442,7460.154,2613,7455.856,2613.688Zm-3.223-12.1-.151-3.9c-1.445.386-1.99,1.2-1.959,2.111s.885,1.5,2.11,1.831Zm4.993,6.453c-.038-.961-.854-1.452-2.058-1.823l.144,3.783c1.369-.3,1.952-1.037,1.952-1.922Z" transform="translate(-7446.093 -2590.893)"/></g><path class="d" d="M7468.181,2600.4v-.3c0-.2-.045-.492-.083-.855l-.06-.628a4.618,4.618,0,0,0-.136-.756,12.783,12.783,0,0,0-.424-1.846,17.178,17.178,0,0,0-2.126-4.713,17.918,17.918,0,0,0-21.653-7.082,18.779,18.779,0,0,0-2.345,1.09,18.091,18.091,0,0,0-2.149,1.452,19.87,19.87,0,0,0-1.99,1.763,22.032,22.032,0,0,0-1.7,2.111,17.282,17.282,0,0,0-2.436,4.971,17.6,17.6,0,0,0,.272,11.25,17.412,17.412,0,0,0,2.67,4.849,20.627,20.627,0,0,0,1.8,2.02,21.567,21.567,0,0,0,2.066,1.672,16.715,16.715,0,0,0,4.577,2.315,18.074,18.074,0,0,0,9.4.56,17.769,17.769,0,0,0,7.444-3.5,18.017,18.017,0,0,0,4.449-5.167,17.2,17.2,0,0,0,1.9-4.774,12.754,12.754,0,0,0,.333-1.869c.038-.272.083-.522.106-.757a5.981,5.981,0,0,0,0-.635,4.554,4.554,0,0,1,.045-.855c0-.1,0-.191,0-.287a1.23,1.23,0,0,1,0,.287v1.5a7.563,7.563,0,0,1-.083.757,12.552,12.552,0,0,1-.22,1.861,17.121,17.121,0,0,1-1.854,4.888,18.157,18.157,0,0,1-21.6,8.322,19.834,19.834,0,0,1-2.406-.976,17.984,17.984,0,0,1-2.27-1.377,20.3,20.3,0,0,1-2.118-1.695,20.846,20.846,0,0,1-1.839-2.065,17.463,17.463,0,0,1-2.739-4.956,17.96,17.96,0,0,1-.272-11.5,17.446,17.446,0,0,1,2.5-5.076,20.774,20.774,0,0,1,1.741-2.149,21.409,21.409,0,0,1,2.027-1.793,19.56,19.56,0,0,1,2.2-1.513,18.775,18.775,0,0,1,2.353-1.09,18.176,18.176,0,0,1,21.948,7.361,17.131,17.131,0,0,1,2.088,4.789,13.564,13.564,0,0,1,.394,1.869c.038.272.091.522.113.757a5.715,5.715,0,0,1,0,.628,6.408,6.408,0,0,0,.045.862A1.506,1.506,0,0,1,7468.181,2600.4Z" transform="translate(-7405.167 -2547.775)"/><circle class="h" cx="11.273" cy="11.273" r="11.273" transform="translate(71.882)"/><rect class="i" width="10.161" height="2.27" transform="translate(78.756 14.066) rotate(-45)"/><rect class="i" width="2.27" height="10.161" transform="translate(78.755 8.478) rotate(-45)"/></g><g transform="translate(0 93.557)"><path class="i" d="M7332.276,2761.887h-.076v-91.234H7218.338v91.484h99.109l14.829,14.836Z" transform="translate(-7218.134 -2662.754)"/><path class="d" d="M7332.21,2761.838v15.222l-.1-.1-14.851-14.813h.06l-99.11.06h-.144v-91.756h114.15v.121c0,27.584-.045,50.334-.053,66.222,0,7.944,0,14.17-.038,18.422v6.59h0a4.4,4.4,0,0,1,0-.454v-6.136c0-4.252,0-10.478-.038-18.422,0-15.888,0-38.638-.053-66.222l.128.128h-113.87l.159-.159v91.484l-.152-.144,99.11.061h0l14.813,14.851-.1.045C7332.2,2767.21,7332.21,2762.247,7332.21,2761.838Z" transform="translate(-7218.068 -2662.706)"/><path class="d" d="M7332.2,2684.052c0,.091-25.488.159-56.931.159s-56.939-.068-56.939-.159,25.489-.159,56.939-.159S7332.2,2683.954,7332.2,2684.052Z" transform="translate(-7218.131 -2665.978)"/><path class="b" d="M7226.143,2677.113a1.438,1.438,0,1,1-1.444-1.43h.015A1.437,1.437,0,0,1,7226.143,2677.113Z" transform="translate(-7219.333 -2663.979)"/><path class="b" d="M7231.753,2677.113a1.438,1.438,0,1,1-1.445-1.43h.008A1.438,1.438,0,0,1,7231.753,2677.113Z" transform="translate(-7220.699 -2663.979)"/><circle class="b" cx="1.437" cy="1.437" r="1.437" transform="translate(12.423 11.697)"/><circle class="h" cx="10.773" cy="10.773" r="10.773" transform="translate(103.369)"/><rect class="i" width="9.714" height="2.164" transform="translate(109.949 13.44) rotate(-45)"/><rect class="i" width="2.164" height="9.714" transform="translate(109.941 8.106) rotate(-45)"/><path class="h" d="M7276.1,2686.933l8.42,8.685,11.779-2.754,2.391,11.855,11.394,4.055-4.4,11.273,7.392,9.571-9.79,7.1,1.044,12.052-12.075.681-5.637,10.705-10.523-5.962-10.531,5.962-5.637-10.705-12.075-.681,1.044-12.052-9.79-7.1,7.4-9.571-4.4-11.273,11.394-4.055,2.391-11.855,11.78,2.754Z" transform="translate(-7223.19 -2666.718)"/></g><g transform="translate(32.678 42.43)"><path class="d" d="M7266.068,2605.51a2.652,2.652,0,0,0,1.726-.6,2.1,2.1,0,0,0,.818-1.5h1.745a3.35,3.35,0,0,1-.638,1.765,4.208,4.208,0,0,1-1.572,1.337,4.531,4.531,0,0,1-2.079.5,4.445,4.445,0,0,1-3.506-1.471,5.859,5.859,0,0,1-1.3-4.025v-.309a6.5,6.5,0,0,1,.578-2.8,4.4,4.4,0,0,1,1.661-1.905,4.719,4.719,0,0,1,2.558-.678,4.325,4.325,0,0,1,3.017,1.087,3.883,3.883,0,0,1,1.282,2.823h-1.745a2.544,2.544,0,0,0-.793-1.72,2.469,2.469,0,0,0-1.761-.673,2.58,2.58,0,0,0-2.179,1.012,4.752,4.752,0,0,0-.773,2.927v.35a4.662,4.662,0,0,0,.768,2.873A2.6,2.6,0,0,0,7266.068,2605.51Z" transform="translate(-7261.262 -2593.412)"/><path class="d" d="M7275.381,2601.321a6.367,6.367,0,0,1,.624-2.852,4.638,4.638,0,0,1,1.736-1.955,4.716,4.716,0,0,1,2.538-.689,4.55,4.55,0,0,1,3.565,1.526,5.869,5.869,0,0,1,1.361,4.06v.129a6.43,6.43,0,0,1-.6,2.828,4.581,4.581,0,0,1-1.726,1.95,4.782,4.782,0,0,1-2.579.7,4.54,4.54,0,0,1-3.556-1.526,5.841,5.841,0,0,1-1.361-4.04Zm1.855.219a4.618,4.618,0,0,0,.833,2.883,2.822,2.822,0,0,0,4.463-.014,5.049,5.049,0,0,0,.827-3.087,4.608,4.608,0,0,0-.842-2.877,2.679,2.679,0,0,0-2.239-1.1,2.649,2.649,0,0,0-2.2,1.087A5.014,5.014,0,0,0,7277.236,2601.54Z" transform="translate(-7264.698 -2593.412)"/><path class="d" d="M7297.564,2603.954a1.359,1.359,0,0,0-.563-1.162,5.435,5.435,0,0,0-1.965-.713,9.312,9.312,0,0,1-2.224-.718,3.165,3.165,0,0,1-1.218-1,2.386,2.386,0,0,1-.393-1.376,2.8,2.8,0,0,1,1.122-2.244,4.379,4.379,0,0,1,2.867-.918,4.508,4.508,0,0,1,2.977.947,3.008,3.008,0,0,1,1.143,2.424h-1.855a1.666,1.666,0,0,0-.644-1.307,2.413,2.413,0,0,0-1.621-.548,2.521,2.521,0,0,0-1.576.439,1.381,1.381,0,0,0-.568,1.147,1.12,1.12,0,0,0,.528,1.008,6.531,6.531,0,0,0,1.91.648,9.927,9.927,0,0,1,2.239.738,3.265,3.265,0,0,1,1.272,1.033,2.545,2.545,0,0,1,.414,1.471,2.762,2.762,0,0,1-1.157,2.32,4.853,4.853,0,0,1-3,.872,5.426,5.426,0,0,1-2.293-.459,3.723,3.723,0,0,1-1.561-1.282,3.084,3.084,0,0,1-.563-1.78h1.845a1.91,1.91,0,0,0,.743,1.472,2.884,2.884,0,0,0,1.83.543,2.975,2.975,0,0,0,1.681-.424A1.3,1.3,0,0,0,7297.564,2603.954Z" transform="translate(-7268.46 -2593.412)"/><path class="d" d="M7307.43,2592.635v2.613h2.015v1.426h-2.015v6.7a1.5,1.5,0,0,0,.27.974,1.131,1.131,0,0,0,.917.325,4.484,4.484,0,0,0,.877-.12v1.488a5.363,5.363,0,0,1-1.416.2,2.3,2.3,0,0,1-1.865-.748,3.212,3.212,0,0,1-.628-2.124v-6.693h-1.965v-1.426h1.965v-2.613Z" transform="translate(-7271.573 -2592.635)"/><path class="d" d="M7313.257,2601.321a6.374,6.374,0,0,1,.624-2.852,4.64,4.64,0,0,1,1.735-1.955,4.719,4.719,0,0,1,2.538-.689,4.549,4.549,0,0,1,3.566,1.526,5.871,5.871,0,0,1,1.362,4.06v.129a6.423,6.423,0,0,1-.6,2.828,4.586,4.586,0,0,1-1.725,1.95,4.782,4.782,0,0,1-2.579.7,4.538,4.538,0,0,1-3.556-1.526,5.843,5.843,0,0,1-1.362-4.04Zm1.855.219a4.618,4.618,0,0,0,.833,2.883,2.823,2.823,0,0,0,4.464-.014,5.056,5.056,0,0,0,.828-3.087,4.608,4.608,0,0,0-.843-2.877,2.681,2.681,0,0,0-2.24-1.1,2.649,2.649,0,0,0-2.2,1.087A5.007,5.007,0,0,0,7315.112,2601.54Z" transform="translate(-7273.919 -2593.412)"/><path class="d" d="M7335.441,2603.954a1.357,1.357,0,0,0-.564-1.162,5.417,5.417,0,0,0-1.964-.713,9.3,9.3,0,0,1-2.224-.718,3.163,3.163,0,0,1-1.217-1,2.383,2.383,0,0,1-.394-1.376,2.8,2.8,0,0,1,1.123-2.244,4.38,4.38,0,0,1,2.867-.918,4.511,4.511,0,0,1,2.978.947,3.01,3.01,0,0,1,1.142,2.424h-1.855a1.664,1.664,0,0,0-.643-1.307,2.414,2.414,0,0,0-1.621-.548,2.52,2.52,0,0,0-1.576.439,1.381,1.381,0,0,0-.569,1.147,1.121,1.121,0,0,0,.529,1.008,6.533,6.533,0,0,0,1.909.648,9.924,9.924,0,0,1,2.24.738,3.263,3.263,0,0,1,1.271,1.033,2.535,2.535,0,0,1,.414,1.471,2.763,2.763,0,0,1-1.157,2.32,4.854,4.854,0,0,1-3,.872,5.428,5.428,0,0,1-2.294-.459,3.724,3.724,0,0,1-1.561-1.282,3.088,3.088,0,0,1-.564-1.78h1.845a1.911,1.911,0,0,0,.743,1.472,2.885,2.885,0,0,0,1.831.543,2.973,2.973,0,0,0,1.681-.424A1.3,1.3,0,0,0,7335.441,2603.954Z" transform="translate(-7277.68 -2593.412)"/></g><g transform="translate(39.624 136.25)"><path class="i" d="M7270.442,2722.536a5.78,5.78,0,0,1,1.635-4.228,6.143,6.143,0,0,1,8.419.009,5.99,5.99,0,0,1,1.615,4.337v1.39a5.714,5.714,0,0,1-1.635,4.219,5.637,5.637,0,0,1-4.16,1.635,5.758,5.758,0,0,1-4.21-1.635,5.826,5.826,0,0,1-1.664-4.356Zm2.7,1.5a3.713,3.713,0,0,0,.861,2.522,2.91,2.91,0,0,0,2.312.99,2.848,2.848,0,0,0,2.241-.962,3.825,3.825,0,0,0,.852-2.629v-1.433a3.793,3.793,0,0,0-.842-2.531,3.121,3.121,0,0,0-4.582,0,3.913,3.913,0,0,0-.842,2.609Zm4,19.372-2.057-1.292L7289,2719.834l2.056,1.292Zm7.185-4.836a5.75,5.75,0,0,1,1.635-4.219,6.184,6.184,0,0,1,8.409-.01,5.9,5.9,0,0,1,1.646,4.366v1.39a5.745,5.745,0,0,1-1.636,4.219,5.619,5.619,0,0,1-4.18,1.655,5.757,5.757,0,0,1-4.209-1.634,5.828,5.828,0,0,1-1.665-4.357Zm2.7,1.519a3.734,3.734,0,0,0,.861,2.541,2.908,2.908,0,0,0,2.311.991,2.828,2.828,0,0,0,2.251-.971,3.892,3.892,0,0,0,.843-2.64v-1.452a3.725,3.725,0,0,0-.852-2.531,3.13,3.13,0,0,0-4.543-.01,3.777,3.777,0,0,0-.871,2.62Z" transform="translate(-7270.442 -2716.643)"/></g></g></g></svg>