<svg xmlns="http://www.w3.org/2000/svg" width="111.206" height="111.206" viewBox="0 0 111.206 111.206"><defs><style>.a{fill:#d9a171;}.b{fill:#fff;}</style></defs><g transform="translate(-2645 -3611)"><path class="a" d="M48.465,0A48.465,48.465,0,1,1,0,48.465,48.465,48.465,0,0,1,48.465,0Z" transform="matrix(0.16, -0.987, 0.987, 0.16, 2645, 3706.679)"/><path class="b" d="M654.675,1140.4a51.257,51.257,0,1,1,51.258-51.257A51.315,51.315,0,0,1,654.675,1140.4Zm0-96.93a45.674,45.674,0,1,0,45.675,45.673A45.725,45.725,0,0,0,654.675,1043.466Z" transform="translate(2045.581 2577.118)"/><path class="b" d="M36.234,58H28.472V28.083l-9.265,2.874V24.646l16.194-5.8h.833Z" transform="translate(2669.793 3628.155)"/></g></svg>