<svg xmlns="http://www.w3.org/2000/svg" xmlns:xlink="http://www.w3.org/1999/xlink" width="459.372" height="484" viewBox="0 0 459.372 484"><defs><style>.a{fill:none;}.b{fill:#526177;}.c{fill:#7e8193;}.d{fill:#5c6c7f;}.e{fill:#869aad;}.ai,.f{fill:#b18b3b;}.g{fill:#ecb94f;}.h{fill:#e4aa76;}.i{fill:#344154;}.j{fill:#1a212a;}.k{fill:#27313f;}.l,.m{fill:#a778a4;}.m,.u,.x{opacity:0.4;}.n{fill:#a66d58;}.o{fill:#d59256;}.p{fill:#ffbf9d;}.q{fill:#f2a888;}.r{fill:#ffe4cb;}.s,.u{fill:#9a6237;}.t{fill:#f8e7c9;}.v,.x{fill:#f0c772;}.w{fill:#fff3e2;}.y{fill:#f8e8db;}.z{fill:#905533;}.aa{fill:#834b2f;}.ab{fill:#a2643a;}.ac{fill:#794830;}.ad{fill:#6b3d2b;}.ae{fill:#9a6335;}.af{opacity:0.5;fill:url(#a);}.ag{fill:#d5b698;}.ah{fill:#d2adb3;}.ai{opacity:0.3;}.aj{fill:#474b59;}.ak{fill:#49596d;}.al{fill:#94a6b6;}.am{fill:#839eb6;}.an{fill:#aed3f2;}.ao{fill:#d9a171;}.ap{fill:#284f74;}.aq,.au{fill:#3f6b95;}.ar{fill:#c2752d;}.as{fill:#cd8436;}.at{fill:#d5aead;}.au,.ax,.ay{opacity:0.2;}.av,.ax{fill:#5a91e1;}.aw,.ay{fill:#3f7fc8;}.az{fill:#2b69b1;}.ba{fill:#62a2ee;}.bb{fill:#d5b2af;}.bc{fill:#fff0e5;}.bd{fill:#eed2c9;}.be{fill:#e6d5c5;}.bf{fill:#dabfb4;}.bg{fill:#d2afac;}.bh{fill:#c8a5a2;}.bi{fill:#f1e3d8;}.bj{fill:#e1c5bc;}</style><linearGradient id="a" x1="-38.005" y1="371.641" x2="-38.75" y2="371.687" gradientUnits="objectBoundingBox"><stop offset="0" stop-color="#9a6335"/><stop offset="0.3" stop-color="#986134"/><stop offset="0.48" stop-color="#8f5a31"/><stop offset="0.62" stop-color="#814d2c"/><stop offset="0.75" stop-color="#6d3c25"/><stop offset="0.86" stop-color="#53251c"/><stop offset="0.97" stop-color="#340911"/><stop offset="1" stop-color="#29000d"/></linearGradient></defs><g transform="translate(-27)"><rect class="a" width="459" height="484" transform="translate(27)"/><g transform="translate(0 64)"><rect class="b" width="107.64" height="1.87" transform="translate(192.43 328.55)"/><rect class="b" width="3.88" height="21.09" transform="translate(190.8 320.91)"/><rect class="b" width="3.88" height="21.09" transform="translate(298.43 320.91)"/><rect class="b" width="3.88" height="21.09" transform="translate(244.81 320.91)"/><path class="b" d="M186.92,109.86s.56,24.25,8.55,31,21,2.94,21,2.94L214,142.24s-12.27,2.89-17.52-2.52-7.77-22.92-7.82-30Z"/><ellipse class="c" cx="20.99" cy="34.66" rx="20.99" ry="34.66" transform="translate(172.088 86.85) rotate(-22.23)"/><path class="b" d="M218.58,141.81c-3.88,1.58-25.3-6.43-32.54-24.15-5.73-14-.87-29.91,3.33-36.72-4.33,5.91-10.29,23-4.17,38,7.24,17.71,28.65,25.73,32.54,24.14.81-.33,1.87-1.51,3-3.3A6.18,6.18,0,0,1,218.58,141.81Z"/><path class="b" d="M214.86,145.9s-.36-5.11,2.72-5.76,2.8,4.4,2.8,4.4A18.189,18.189,0,0,1,214.86,145.9Z"/><path class="c" d="M310.91,176.44H184.4V316.59s15.51,15.7,63.72,15.7,62.79-15.7,62.79-15.7Z"/><path class="c" d="M283.63,159.25H211.68L184.4,176.44H310.91Z"/><path class="d" d="M283.79,159.56c0,1.18-16.18,5.89-36.14,5.89s-36.13-4.71-36.13-5.89,16.18-5.88,36.13-5.88S283.79,158.39,283.79,159.56Z"/><rect class="d" width="72.23" height="11.98" transform="translate(211.54 147.57)"/><path class="d" d="M184.4,316.59l.51.46c3,2.58,19.9,15.24,63.21,15.24,39.91,0,57.27-10.75,62.07-14.46.48-.79.72-1.24.72-1.24V176.44c-72.88,22.42-126.51,0-126.51,0,11.77,20.18,70.45,23.36,70.45,23.36V320.89C218.88,331.45,184.4,316.59,184.4,316.59Z"/><path class="d" d="M283.63,159.25l27.28,17.19s-14.67,8.41-43.12,9.67l-6.17-22Z"/><path class="d" d="M258.85,164.97l3.33,22.12-4.9.42-1.1-22.34Z"/><path class="e" d="M192.81,176.44,211,164.38s34.76,6.45,34.47,10.94S205.42,181.48,192.81,176.44Z"/><path class="c" d="M213.69,151.91v6.31a53,53,0,0,0,12.89,3.08c13,1.54,19.63,0,19.63-1.75C246.21,156.11,225,155.69,213.69,151.91Z"/><path class="c" d="M282.51,150.93v6.59s-3.23-.84-3.51-2.25S282.51,150.93,282.51,150.93Z"/><path class="c" d="M283.49,161s6.44,7,9.11,8.69,15.69,6.45,15.69,6.45Z"/><path class="e" d="M193.37,193.26s-2.24,73.16,4.48,72.88c8.36-.35,44.29-58.59,44.29-58.59S213.27,203.35,193.37,193.26Z"/><path class="e" d="M191.69,310.14s2-31.11,6.16-31.39,10.93,34.2,10.09,35.88S193.09,313.79,191.69,310.14Z"/><path class="c" d="M309.13,180.64V313.79s-2.8-60-3.36-67.56S309.13,180.64,309.13,180.64Z"/><path class="b" d="M261.8,164.74a75,75,0,0,0,15.2-2.88V150.67a106.489,106.489,0,0,1-15.41,2.5Z"/><path class="b" d="M277,161.86l24.3,17.46s-17.47,5.56-33.78,6l-5.76-20.54Z"/><path class="b" d="M211.71,148.72s52.31,2.66,71.92,0v1.81S243,162.07,211.71,148.72Z"/><ellipse class="c" cx="37.28" cy="6.07" rx="37.28" ry="6.07" transform="translate(210.37 141.78)"/><ellipse class="b" cx="28.4" cy="4.39" rx="28.4" ry="4.39" transform="translate(219.25 143.46)"/><path class="e" d="M284.72,147.57c-2,1.54-17.81,5.79-37.07,5.79s-35.09-4.25-37.07-5.79c-.13.1-.21.2-.21.28,0,1.21,16.69,6.07,37.28,6.07s37.28-4.86,37.28-6.07C284.93,147.77,284.86,147.67,284.72,147.57Z"/><path class="b" d="M267.56,185.28V331.34c16.39-1.68,27.38-5.33,34.29-8.58V179.22L289.24,182c-7.48,1.52-14.69,2.59-21.59,3.3Z"/><path class="e" d="M184.4,176.44s57,22.8,126.51,0C310.91,176.44,251.48,195.68,184.4,176.44Z"/><path class="d" d="M195.24,86.05c3-1.22,19.37,4.92,24.91,18.48s-1.86,29.43-4.83,30.64-19.37-4.91-24.91-18.48S192.27,87.27,195.24,86.05Z"/><path class="b" d="M220.15,104.53c-5.54-13.56-21.93-19.7-24.91-18.48A3.68,3.68,0,0,0,194,87.11a2.2,2.2,0,0,1,.5-.31c3-1.22,19.37,4.91,24.92,18.48,4.87,11.92-.25,25.61-3.59,29.58C219,132.3,225.41,117.39,220.15,104.53Z"/><path class="b" d="M261.46,144.78c1.21,0,2.39,0,3.56.07a110,110,0,0,0-17.37-1.4c-15.68,0-28.4,3.52-28.4,4.4s8.9,3.3,21,4.12C239.93,145.14,253.19,144.78,261.46,144.78Z"/><path class="f" d="M355.89,79.47a4.53,4.53,0,0,1,4.27,1.34c1.78,2,1.37,5.85,1.37,5.85s-3.62-1.58-4.71-3S355.89,79.47,355.89,79.47Z"/><path class="g" d="M356.68,80.71a4.55,4.55,0,0,1,3.28-3c2.59-.56,5.76,1.7,5.76,1.7s-3.17,2.37-5,2.59S356.68,80.71,356.68,80.71Z"/><path class="f" d="M357.3,80.2s3.28-1.47,3.56-.45S357.3,80.2,357.3,80.2Z"/><path class="h" d="M309.13,150c3.19-12.87.7-22.68.79-37l-3.34-1S295.8,129.43,293,143.48c-2.14,10.54,1,17.64,4,18.73C303,164.32,307.57,156.28,309.13,150Z"/><path class="c" d="M302.57,128.18l-17.08-42,51.05-20.34s8.8,2.41,15.32,18.4,1.77,23.56,1.77,23.56Z"/><path class="c" d="M291.54,122.12l-9.72-23.86,3.67-12.04,17.08,41.96Z"/><path class="d" d="M291.7,122.12c.5-.21.33-6.39-2.37-13s-6.89-11.16-7.39-11-.33,6.39,2.36,13S291.19,122.32,291.7,122.12Z"/><rect class="d" width="25.86" height="5.53" transform="translate(281.938 98.163) rotate(67.84)"/><path class="d" d="M336.54,65.88l.27.09c1.5.54,9.2,4,15.05,18.31,5.39,13.24,3.14,20.86,2.2,23.1-.27.3-.43.46-.43.46l-51.06,20.34c-.25-28.08-17.08-42-17.08-42,10.21.39,19.5,19.3,19.5,19.3l42.9-17C347.55,74.73,336.54,65.88,336.54,65.88Z"/><path class="d" d="M291.54,122.12l11,6.06s1.62-6.33-1.69-16L290.65,114Z"/><path class="d" d="M290.64,112.91l9.91-2.75-.49-1.7-9.69,3.53Z"/><path class="e" d="M286.62,89l-2.69,8.14s7.45,10.41,9.33,9.53S290.48,92.32,286.62,89Z"/><path class="c" d="M279,100.21l2.7-1.1a15.75,15.75,0,0,1,3.06,3.74c2.41,4.05,2.67,6.49,1.9,6.81C285.15,110.26,282.11,103.31,279,100.21Z"/><path class="e" d="M293.89,86.27s24.83-10.78,25.61-8.5c1,2.83-12.91,22.18-12.91,22.18S300.89,91.11,293.89,86.27Z"/><path class="e" d="M334.77,69.42s-13,6.07-12.59,7.51,16.1-2.33,16.7-2.9S336.52,69.25,334.77,69.42Z"/><path class="b" d="M277.33,100.11S285.53,117,287,124l.77-.32S287.25,108.14,277.33,100.11Z"/><path class="c" d="M286.84,124.54c.52-.21.35-6.59-2.43-13.42s-7.12-11.52-7.64-11.31-.34,6.6,2.44,13.42S286.33,124.75,286.84,124.54Z"/><path class="b" d="M285.65,121.6c.37-.16.16-5-2-10.19s-5.34-8.81-5.72-8.65-.16,5,2,10.18S285.27,121.75,285.65,121.6Z"/><path class="e" d="M286.7,124.52c.39-.92.07-6.92-2.53-13.3s-6.56-10.9-7.49-11.29a.31.31,0,0,1,.09-.12c.52-.21,4.85,4.48,7.64,11.31s2.95,13.21,2.43,13.42a.19.19,0,0,1-.14-.02Z"/><path class="e" d="M285.49,86.22s17.44,14.93,17.08,42A67.14,67.14,0,0,0,285.49,86.22Z"/><path class="f" d="M293.89,136.77a17,17,0,0,1,17.45,1.91s-.61,9.83-2.32,13.57l-14.58,7.84S288.89,152,293.89,136.77Z"/><path class="f" d="M324.16,110.62c-5.94,2-5.67,7.82-19,25.17s-12.73,18.34-10.92,23.79c1.58,4.73,11.95,5.68,26.38-9.89,11.54-12.47,13-20.14,13.37-26C334.54,115.94,328.84,109.07,324.16,110.62Z"/><path class="i" d="M325.36,342s0-3.43-.76-4.76c-.27-.46-.91.11-1.3.11-2.43,6.81-6.6,1.2-6.36,4.65Z"/><path class="i" d="M374.69,342s0-3.43-.76-4.76c-.27-.46-.91.11-1.3.11-2.43,6.81-6.6,1.2-6.36,4.65Z"/><path class="i" d="M369.49,263.24h0a3.289,3.289,0,0,0,0-.83c-1.21-7.56-1-51.42-1.22-59.24a136.091,136.091,0,0,0-3-21.71c-2.61-12.09-14.33-2.7-24.19,6-.19-.23-.38-.46-.59-.69-7.21-7.74-22.44,2.52-22.44,2.52l2.24,75.48c.37,6.61-1.2,17.41-1.24,27.46-.09,22.39.9,45.94.9,45.94h6s10.26-36.55,10.85-45.76c.29-4.59-1.37-26.87-1.37-26.87,1.76-16.17,7-42.89,7-42.89s6.73,23.14,11.66,40.49c.27,2.32,2.39,20.75,4.09,30.29,1.6,9,8.7,25.46,12.53,44.74h5.41s2.11-37.42.44-45.42S369.49,263.24,369.49,263.24Z"/><path class="j" d="M368.31,205.74c0-1.08,0-2-.06-2.61a109,109,0,0,0-1.43-13.46l-48.72,1.44.34,11.29C326.54,205.28,344.84,210.09,368.31,205.74Z"/><path class="j" d="M368.65,244.15c-.28-15.66-.23-35.94-.4-41a97.008,97.008,0,0,0-1-10.61l-23.79,8.21L346.59,237l3.08,10.68a78.1,78.1,0,0,0,18.98-3.53Z"/><path class="k" d="M326.88,201.65l-7.16-12.44s-.65,3.64-1.4,9.21l1.34,45.12a29.219,29.219,0,0,0,6.84,2.85Z"/><path class="j" d="M357,263.57l-11.53-40.46,2.16-2.23-10.07-1.38,2.37,3.16-7.1,41.79s2,23.15,1.79,28.46-10.85,45.22-10.85,45.22h2.15s10.26-36.55,10.85-45.76c.29-4.59-1.37-26.87-1.37-26.87,1.76-16.17,7-42.89,7-42.89s6.73,23.14,11.66,40.49c.27,2.32,2.39,20.75,4.09,30.29,1.6,9,8.7,25.46,12.53,44.74h1.61c-2.22-11.67-9.43-36.36-11.23-42.46S357,263.57,357,263.57Z"/><path class="l" d="M319.27,197.57c1,3.39,27,12.08,49.38,2.58,2.38-1.69-2.47-16.62-3.15-28.83s5.08-35.73,4.74-45.91c0-8.47-14.13-17.12-22.26-19.16-6.12-1.52-25.57,3.07-27.43,6.63-1.77,3.37-6.68,13.42-6,21.57,1,12.72,5,30.73,5,36.11C319.5,179,318.25,194.18,319.27,197.57Z"/><path class="m" d="M367.47,140.89c3.67-6.84,1.34-15.45-3.56-16-6.21-.68-8.41,4.76-27.69,15-10.34,5.51-16.17,10.12-19.12,13.54.43,2.67.86,5.22,1.23,7.54,3.58,2.84,12.18,3.83,26.18-2C360.19,152.45,364.69,146.07,367.47,140.89Z"/><path class="m" d="M354.75,203.88l-.33-88.59-9.5,3.06S339.84,137,340,147.5c.14,9,3,46.19,3.79,56.91A65,65,0,0,0,354.75,203.88Z"/><path class="m" d="M327.12,164c.17-6.95-.33-27.63,0-32.38s3.73-16.45,3.73-16.45l-5.93-1.86s-2.37,20.34-2.88,42.89c-.34,15.14.39,33.56.9,44a37,37,0,0,0,3.94,1.47S327,170.9,327.12,164Z"/><path class="g" d="M327.27,119.34s-.22-12.44.07-13.54a12.51,12.51,0,0,1,4.94-5.42c2.39-1.28-1.83,8.93-1.83,8.93Z"/><path class="h" d="M328.53,108.79s-4,11.06,7.35,12.49,19.23-9.2,19-10.73S343.15,103,328.53,108.79Z"/><path class="n" d="M359.8,71.88c-.35,9.66-8.05,22.87-12.29,22.11s-6.17-18.33-4.82-27.9c.82-5.84,4.81-12.42,10.16-11.19C356.82,55.82,360.23,59.84,359.8,71.88Z"/><path class="h" d="M330.58,111.43l20.35,1.13.56-29.26-18.08-1.99Z"/><path class="o" d="M351.41,87.48l-20.27,17.93s5.14,7,15.7,11.46l4.09-4.31Z"/><path class="p" d="M352.46,85.07c-1.53,21.94-15.69,21.28-20.21,20.57-7.16-1.13-9.48-7.35-7.79-21.54.4-13.42-4.46-22.78,11.79-22.5C349.86,61.84,353.57,69.09,352.46,85.07Z"/><path class="q" d="M340.68,62c6.07,3.27,8.23,8.72,7.89,21.8-.5,19.33-9.41,21-15.48,22,5.21.6,17.93,0,19.37-20.68C353.44,71,350.66,63.7,340.68,62Z"/><path class="q" d="M356.86,86.83a4.07,4.07,0,1,1-4.32-3.55A4,4,0,0,1,356.86,86.83Z"/><path class="n" d="M337.77,63.19s8.55,1.51,10.66,9a32.15,32.15,0,0,1,.81,14.18l1.37.13A3.85,3.85,0,0,1,353,83.11C354.36,75.67,354.87,61.36,337.77,63.19Z"/><path class="o" d="M353.74,84.8a2.48,2.48,0,0,0-1.49-.14,3.182,3.182,0,0,1,.33.08,2.31,2.31,0,0,1,1.25,3A2.15,2.15,0,0,1,352.24,89,2.25,2.25,0,0,0,355,87.82a2.31,2.31,0,0,0-1.26-3.02Z"/><path class="o" d="M332,76.85a9.679,9.679,0,0,1,1.13,4c.06,2.15-.9,3.74-2.35,4.13-1.92.51-2.61,1.13-2.46,2.17a2.56,2.56,0,0,0,2.22,2c1.32.33,3.06.26,3.1,0,0,0-4.13,0-4.16-2.07,0-.92,1.38-1,2.62-1.73C335.21,83.47,333.93,78.3,332,76.85Z"/><path class="n" d="M337.57,72.62c-.34.67,1.11,1.47,3.47,2.68s4.75,2.34,5.08,1.68-1.71-2.47-4.07-3.67S337.91,72,337.57,72.62Z"/><path class="n" d="M329.82,72.46c.35.65-.1,1-2.44,2.3s-3.52,2-3.87,1.32.85-2.29,2.64-3.17C328.53,71.74,329.47,71.8,329.82,72.46Z"/><path class="r" d="M330.11,79.32s0,2.8-1.84,3.21c-2.34.53-2.72-2.23-2.72-2.23S325.44,77.36,330.11,79.32Z"/><path class="n" d="M330.36,79.42s-4.79-1.25-4.85,1.79l-.14-.12s-.62-3.68,5.12-2.71Z"/><path class="n" d="M326,81.26a1.81,1.81,0,1,0,1.14-2.37A1.86,1.86,0,0,0,326,81.26Z"/><path class="r" d="M343.65,80.44s-.51,2.8-3.13,2.45-2.47-3.43-2.47-3.43S340.2,77.2,343.65,80.44Z"/><path class="n" d="M344,81.07a5.78,5.78,0,0,0-6.1-1.59l-.45-1s4.21-.92,6.68,2.34Z"/><path class="n" d="M338.54,81.15a2,2,0,1,0,.263-1.529A2,2,0,0,0,338.54,81.15Z"/><path class="s" d="M327.84,92.89l12.41-.19s-2.05,5.54-6.23,5.6S327.84,92.89,327.84,92.89Z"/><path class="t" d="M329.56,93.36l9.78-.13s-.51,1.83-9,1.43Z"/><path class="u" d="M338.72,95.46A6.17,6.17,0,0,1,334,98.3a4.68,4.68,0,0,1-2.32-.59,6,6,0,0,1,7.04-2.25Z"/><path class="s" d="M340.17,92.48c-.13.09-.29.36-.25.42s.35,0,.48-.08a.225.225,0,0,0,.1-.31A.228.228,0,0,0,340.17,92.48Z"/><path class="s" d="M327.63,93.05c.15.08.46.09.5,0s-.17-.31-.31-.38a.21.21,0,1,0-.19.36Z"/><path class="q" d="M332.28,100.38c0,.72.88,1.3,1.91,1.31s1.84-.55,1.84-1.28-.85-.41-1.89-.42S332.29,99.66,332.28,100.38Z"/><path class="g" d="M325.09,134.62c-.51-10.17,4.89-22.21,5.82-26.69-6.07,1.69-9.73,3.74-10.36,4.95-1.77,3.37-6.68,13.42-6,21.57,1,12.72,5,30.73,5,36.11,0,3.6-1.64,14.69-2.26,27-.85,16.65-.7,35.19-.12,37.14.31,1,3.06,2.57,7.35,4C324.66,213.62,325.35,139.79,325.09,134.62Z"/><path class="v" d="M370.24,125.41c0-7.52-11-15.13-19.18-18.18v1.69A251.3,251.3,0,0,0,342.78,136c-1.79,8,4,79.26,6.83,105.05a56.43,56.43,0,0,0,21.65-4.13c1.39-1,.67-19.44-1.36-36.84-1.41-12.14-4.12-23.72-4.4-28.74C364.83,159.12,370.58,135.59,370.24,125.41Z"/><path class="g" d="M367.47,140.89c3.67-6.84,1.34-15.45-3.56-16-5.43-.59-7.8,3.49-21.19,11.39-.5,2.92-.28,11.75.34,23.29.48-.19,1-.38,1.45-.59C360.19,152.45,364.69,146.07,367.47,140.89Z"/><path class="p" d="M324.55,142c-9.82-8.91-19.64-11.36-32.19-18.21l-2.46,2.46s10.22,17.75,21.25,26.91c8.27,6.87,16,7.51,18.4,5.32C334.24,154.22,329.34,146.35,324.55,142Z"/><path class="h" d="M330.71,156.64c-2.38,2.23-10.11,1.73-18.49-5-10.29-8.26-20-23.77-21.52-26.2l-.8.8s10.22,17.75,21.25,26.91c8.27,6.87,16,7.51,18.4,5.32a5.57,5.57,0,0,0,1.5-2.24,4.229,4.229,0,0,1-.34.41Z"/><path class="v" d="M305.48,149a17,17,0,0,1,9.95-14.46s8.36,5.2,10.85,8.47v16.56S316.56,160.61,305.48,149Z"/><path class="w" d="M305,148a20.17,20.17,0,0,1,2.91-7.64c2.31-3.17,7-5.88,7-5.88l.91.62s-5,2.49-7.07,5.94a26.781,26.781,0,0,0-2.9,7.87Z"/><path class="g" d="M371.26,236.9c1.39-1,.67-19.44-1.36-36.84-1.41-12.14-4.12-23.72-4.4-28.74-.63-11.38,4.33-32.62,4.72-43.68-5.61,4-15.26,6.07-14.79,17.26,0,0,6.35,22.9,7,27.35,1.21,8.13,2,52.66.63,67.28A49.709,49.709,0,0,0,371.26,236.9Z"/><path class="g" d="M346.66,121.88s.44-14.12.88-14.87a17.83,17.83,0,0,0,3.61-6.3,3.79,3.79,0,0,1,1.08,1.36c.28.73-.07,6.67-.07,6.67S350.26,122.12,346.66,121.88Z"/><path class="g" d="M356.83,109.92a46.172,46.172,0,0,0-4.62-2.23,55.64,55.64,0,0,1-5.55,14.19.184.184,0,0,1-.05.15c-.33,1-2.43,7.85-3.21,11.91l25.72,4.4C370.22,127.64,374.68,120,356.83,109.92Z"/><path class="v" d="M363.91,121.17c-6.21-.68-8.41,4.76-27.69,15s-19.2,11.4-19.81,17.11c-.53,5,8.51,10.13,28.1,1.95,15.68-6.54,20.18-12.92,23-18.1C371.14,130.33,368.81,121.71,363.91,121.17Z"/><path class="v" d="M348.22,107.43a17.86,17.86,0,0,0,3.55-6.1,5.089,5.089,0,0,0-.62-.62,17.83,17.83,0,0,1-3.61,6.3c-.44.75-.88,14.87-.88,14.87C346.9,121.9,347.83,108.09,348.22,107.43Z"/><path class="v" d="M328.27,104.13a6.1,6.1,0,0,0-.93,1.67c-.29,1.1-.07,13.54-.07,13.54s.63-12.35.83-13.12a6.241,6.241,0,0,1,.91-1.63C328.75,104.45,328.51,104.29,328.27,104.13Z"/><path class="v" d="M324.27,68.52S324,57.8,325.79,54.83c.86-1.44,7.12-6.12,20.26-3.87,0,0,14.3,4.19,14.44,11.59.11,6.09-.87,15.22-2.5,18,0,0-7.19-9.85-17.47-12S324.27,68.52,324.27,68.52Z"/><path class="g" d="M360.49,62.55c-.09-4.46-5.31-7.75-9.45-9.66.52,3.82,1,9.94-2.61,18.92A38.181,38.181,0,0,1,358,80.5C359.62,77.77,360.6,68.64,360.49,62.55Z"/><path class="x" d="M343.9,59.26c-.55-2-8.61-7.82-15.56-4.77,0,0-1.93,1.13-1.34,4.07l4.89.79-4.89.91s-1.18,3.73-.44,4.4,13.32.46,15.84-.22l-4.59-.79,5.63-.6a5.93,5.93,0,0,0,.46-3.79Z"/><path class="w" d="M340.43,68c-8.47-1.77-14.13-.75-16.17-.23v.78s6-2.16,16.25,0S358,80.5,358,80.5a4.173,4.173,0,0,0,.28-.56C356.5,77.74,349.67,69.9,340.43,68Z"/><path class="o" d="M329.88,118.66l3.83-11.47-2.57-1.78-.23,2.52-2.56,8.23a7,7,0,0,0,1.53,2.5Z"/><path class="f" d="M352.21,107.69a35.74,35.74,0,0,1-5.55,14.19l-.7,2.28a34.74,34.74,0,0,0,6.84-16.22Z"/><path class="w" d="M350.18,193.28l1.02,8.13,19.49-3.9-2.15-7.1Z"/><path class="v" d="M321.28,192.31l-1.02,8.14-4.79-1.99,2.16-7.1Z"/><path class="v" d="M284.92,115.11a23.07,23.07,0,0,0-10.16,6.5c-7,8.09-8.27,19.3-9.64,29.31l1.6-.36C268.11,145.9,275,126.31,286,121a32.861,32.861,0,0,0-1.08-5.89Z"/><path class="g" d="M283.13,115.75l1.79-.64a33.16,33.16,0,0,1,1,5.86s-11,4.33-19.24,29.59l-.52.11s5.25-20.51,17.55-30.63Z"/><path class="w" d="M280.7,118c1.27.59-4.24,3.74-7.46,8.56a52.061,52.061,0,0,0-4.91,10,35.84,35.84,0,0,1,4.15-10.93C275.37,120.52,279.86,117.61,280.7,118Z"/><path class="w" d="M268,138.3c.38.2-.07,2.37-.59,2.45S267.59,138.1,268,138.3Z"/><path class="p" d="M292.36,123.79s-6.51-4.08-7.19-3.62-1,5.29-.21,5.89c1.78,1.44,5.44,1,5.44,1Z"/><path class="p" d="M292.22,123.68a32.257,32.257,0,0,0-2-2.9c-.5-.54-1.1-2.31-1.64-2.31s-.19,1.35.13,1.9a4,4,0,0,1,.3,1.85S291.48,124.35,292.22,123.68Z"/><path class="p" d="M285.89,120.31s-3.4-1.65-3.72-.87,1.34,1.28,3.18,2.13Z"/><path class="p" d="M284.72,121.28a2.07,2.07,0,0,0-.47.73,2.46,2.46,0,0,0,.27,1,2.48,2.48,0,0,0-.29,1.06,2.24,2.24,0,0,0,.34.79,6.17,6.17,0,0,0,.15-3.58Z"/><path class="h" d="M291,126c-2.36,1.11-5.83.46-6.41-.81a1.48,1.48,0,0,0,.34.85c1.78,1.44,5.44,1,5.44,1Z"/></g><g transform="translate(0 64)"><path class="p" d="M148.28,219.31c6.36,17,8.42,23,4.19,25.74-7.49,4.78-10.09-9.16-17.16-21.64-8.72-21.12-8-23.16-2.22-26.14C139.16,194.13,139.23,196.52,148.28,219.31Z"/><path class="q" d="M133.09,197.27a12.111,12.111,0,0,1,2.35-1l-.5.25c-5.74,3-6.5,5,2.22,26.14,6.32,11.17,9.32,23.59,15,22.55-7,2.86-10.55-9.63-17.52-21.93C125.91,202.19,127.36,200.25,133.09,197.27Z"/><path class="v" d="M151.36,223.94l-13.19,7.69c-7.95-13.24-17.15-36.93-.93-36.41C141.16,196.92,144.89,206.16,151.36,223.94Z"/><path class="y" d="M151.11,221.77l.99,2.96-14,8.1-1.32-2.69Z"/><path class="g" d="M129.63,198.51c.88,4.64,3.41,14.22,10.53,27.75l4.6-.79-7.59,4.44C131.4,219.79,125.57,205,129.63,198.51Z"/><path class="q" d="M150.57,225.62l.47,1.39-10.57,7.4-1-2.37Z"/><path class="i" d="M127.65,259.26c3.39,18.51-3.85,59.24.09,148.3h-7.22s-12.55-42.4-12.9-49.62,2-27.62,2-27.62l-5.39-43.64H102.4l-8.53,44.47-10.3,76.41H76.72s-4.23-45.87-4.23-52.74,3.68-17.56,4.1-23.67c.65-13.21-7.2-44.19-3.08-70.93C73.51,260.22,124.85,244,127.65,259.26Z"/><path class="i" d="M123.27,411.12s0-3.49.72-4.83c.27-.48.93.1,1.32.1,2.54,6.91,8.48,1.22,8.27,4.73Z"/><path class="i" d="M81,411.58s.84-3.48.08-4.83c-.27-.47-.93.11-1.33.11-2.54,6.91-3.35.06-5,4.72Z"/><path class="p" d="M73.81,212.21c-11.3,13.92-15,20.42-11.87,24.28,2.64,3.28,7.12.46,10.72-2.72,6.37-7.5,7.79-9.59,12-13.91,11.35-11.8,15.3-20,10.86-24.58C90.78,190.43,86.14,197.62,73.81,212.21Z"/><path class="q" d="M73.81,212.21c12.33-14.59,17-21.78,21.66-16.93a6,6,0,0,1,.46.57c-4.39-3-9.21,4.17-20.68,17.75-11,13.48-14.73,20-12.13,23.9a4.08,4.08,0,0,1-1.18-1C58.82,232.63,62.51,226.13,73.81,212.21Z"/><path class="g" d="M83,222.66s-10.19-10.25-10.55-11.25c5-6.3,17.16-23,23.33-16.75C104.57,203.19,83,222.66,83,222.66Z"/><path class="v" d="M84.43,221.99l-1.83,1.64L71.63,212.04l1.67-2.19Z"/><path class="q" d="M81.85,222.84l-9-9.48s-1.32,1.63-1.68,2.11l9.57,8.6Z"/><path class="f" d="M74.6,211.27l5.71,5.29s16.32-14.38,16.78-20.1c4,7.82-9,21.31-13,25.15Z"/><path class="v" d="M123.58,233.37c.66-4.74,9.69-11.12,12.18-16.79s2-21.11,2-21.11-13.87-5.35-21.49-5.94-26.43,4.2-26.43,4.2c-1.11,23.18,11.1,32.26,10.44,36.91S77.1,242.73,73.55,260.22a199.385,199.385,0,0,0,31.34,1.35c16.14-.71,22.8-2.31,22.8-2.31C123.93,246.12,122.74,239.29,123.58,233.37Z"/><path class="g" d="M118.3,197.88s2,10.56,1.64,17.75h-.47a94.729,94.729,0,0,0-1.9-17.8Z"/><path class="g" d="M106,218c.17-8.78-4.11-19.51-4.11-19.51l6.42-3.9a44.871,44.871,0,0,0,0-4.55c-8.49,1.14-18.75,3.72-18.75,3.72-1.11,23.09,11.2,32.12,10.54,36.76C100,231.87,105.88,226.74,106,218Z"/><path class="f" d="M90.49,206.58c2.67,13.85,10.2,20.25,9.68,23.9,0,.38.35.26,1-.27l1.5-6.42C94.71,217.8,90.56,206.78,90.49,206.58Z"/><path class="i" d="M135.76,216.58c.43-1,.77-2.28,1-6.34H101.17c.29,9.72-.49,14.32-1.73,17.28a5.76,5.76,0,0,1,.8,3.12c-.65,4.66-23.18,12.09-26.73,29.58a116.461,116.461,0,0,0,31.34,3.4c16.14-.71,22.8-4.36,22.8-4.36-3.72-13.14-4.91-20-4.07-25.89C124.24,228.63,133.27,222.25,135.76,216.58Z"/><path class="q" d="M110.45,167.78s1.43,15.6-5.29,22.35L117.93,198l9.62-6s-4.74,1.35-1.92-21.67Z"/><path class="o" d="M107.5,191.57l-.48-.3-.7-2.49c5.39-7.27,4.13-21,4.13-21l15.18,2.46c-1.1,8.95-1,14.2-.58,17.3C125.05,187.54,121,193.49,107.5,191.57Z"/><path class="g" d="M127.55,191.91l1,.41-6.3,9.98-1.63-4.86-2.69.51,2.38-3.76Z"/><path class="g" d="M117.93,197.96l-1.73-4.18-12.53-3.04-.95.17,8.23,10.71,3.8-4.78Z"/><path class="y" d="M102.65,189.43l4.23-4.67,9.31,9.01-5.24,6.48Z"/><path class="y" d="M120.31,194.19l2.28,6.58,6.04-9.89-2.93-4.27Z"/><path class="z" d="M116.27,157.61s-5.6-8.64-10.67-9.5-10.73,5.5-11.12,7.71S98.9,168.94,98,170s-6.1,1.13-6.12,3.52,2.77,4.7,2.77,4.7-1-3.7-.53-4.57,9.75.62,13.22-.7-1.37-10.9-.71-12,6.24-1.12,6.24-1.12Z"/><path class="aa" d="M91.85,173.55c0-2.39,5.2-2.44,6.12-3.52s-3.89-12-3.49-14.21,6-8.58,11.12-7.71c-4.8.71-9.86,6-9.58,8.15.09.72,6.6,13,5.79,14.57s-8.36.71-9,2.38,1.84,5,1.84,5S91.84,175.93,91.85,173.55Z"/><path class="ab" d="M112.6,154.64c-.12-.85-4.47-5.54-6.86-5.71s-8.1,4.19-5.41,6.95S112.91,156.68,112.6,154.64Z"/><path class="aa" d="M112.84,159.84l.58-.38c-2.36,0-7.41,0-7.92.87-.66,1.12,4.18,10.71.7,12a28.9,28.9,0,0,1-6.76,1.14c2.84.11,6.1.16,7.87-.51,3.47-1.31-1.37-10.9-.71-12S112.84,159.84,112.84,159.84Z"/><path class="z" d="M143.21,161.74c-7.68,7.72-16.48,16.22-27.09,12.49s-11.3-21.42-6.05-32.39c5.73-12,14.65-12.28,23.86-9.2,9.43,3.16,14.48,9.45,10.32,18.14C143.71,151.92,145.07,160.71,143.21,161.74Z"/><path class="p" d="M140.82,172c-4.52,12.5-16.26,16.06-18.71,15.24s-14.47-9.38-11.24-22.27c4.3-17.16,9.91-27.39,24.63-22.47S145.94,157.82,140.82,172Z"/><path class="q" d="M123.69,187.2c-1.94-.65-10.17-6.6-7.73-17.54,4-17.67,11-27.21,19.54-27.16-15.1-6-20.59,6.38-24.63,22.47-3.23,12.89,8.79,21.45,11.24,22.27a4.74,4.74,0,0,0,1.92,0,1.49,1.49,0,0,1-.34-.04Z"/><path class="q" d="M113.79,162.3a3.76,3.76,0,1,1-.2-2.873A3.76,3.76,0,0,1,113.79,162.3Z"/><path class="q" d="M135.5,142.5c-8.39-2.81-13.82-.68-17.73,4.84l2.06,5.13S130,149,139,153.65a12,12,0,0,1,5.68,6.76C146.8,152.13,145.84,146,135.5,142.5Z"/><path class="z" d="M148.33,146s3.5-5.87-4.65-11.58c-15.52-10.88-26.31-1.16-26.31-1.16Z"/><path class="z" d="M131.16,142.87c-12.41-.12-13.61,19-16.08,19-1.76,0-2.85-3.94-2.85-3.94s6.8-19.66,13-18.65S131.16,142.87,131.16,142.87Z"/><path class="ab" d="M129.09,140.63s3.58-1.88,1.19-4.14-7.53-4.88-9.82-4.26-10,4.75-5.21,8S128.49,141.16,129.09,140.63Z"/><path class="o" d="M136.33,160.15s-4.27,2.54-5.13,5,2.46,6.26,2.17,7.19-2.38,1.23-5.63.82c0,0,5.57,2.17,6.79-.53.52-1.37-2.77-3.53-1.8-7.08a12.58,12.58,0,0,1,3.6-5.4Z"/><path class="z" d="M131.46,156.57c-.07.42-1.74.22-4.15-.16s-4.63-.79-4.56-1.21,2.4-.69,4.8-.31S131.52,156.15,131.46,156.57Z"/><path class="z" d="M139.06,159.19c-.23.37,1.66,1.56,4.43,3.2,1.5.65,2.2-.15.81-1.36C141.53,159.39,139.28,158.81,139.06,159.19Z"/><path class="r" d="M122,161.25s.91,3.19,3,3.9,3.22-1.85,3.22-1.85.37-2.42-1.44-2.88S122,161.25,122,161.25Z"/><path class="ac" d="M127.61,164a2,2,0,1,1-.138-1.529A2,2,0,0,1,127.61,164Z"/><path class="ad" d="M128.45,164.23s-.81-2.67-2.54-2.85a22.29,22.29,0,0,0-4.51.1L120.22,159l1.71,1.63S129.27,157.43,128.45,164.23Z"/><path class="r" d="M135.58,166s.39,2.85,2.35,3.52,3-2,3-2,.23-2-1.45-2.4S135.58,166,135.58,166Z"/><path class="ac" d="M140.25,168.5a1.87,1.87,0,0,1-2.38,1.2,1.92,1.92,0,0,1-1.2-2.42,1.86,1.86,0,0,1,2.38-1.19,1.92,1.92,0,0,1,1.2,2.41Z"/><path class="ad" d="M141.11,168.49a3.52,3.52,0,0,0-1.94-2.35c-1.5-.58-4.18.53-4.18.53.78-1.58,5.72-3.56,6.52.77l1.65-.22Z"/><path class="ad" d="M121.78,174.79c-.1.11-.49-.09-.6-.19a.27.27,0,1,1,.36-.4C121.65,174.3,121.88,174.68,121.78,174.79Z"/><path class="ac" d="M132.31,178.54c0,.14.48.13.62.09a.27.27,0,1,0-.15-.51C132.64,178.16,132.27,178.39,132.31,178.54Z"/><path class="ae" d="M121.52,174.54l11.09,4s-3,2.67-6.58,1.47S121.52,174.54,121.52,174.54Z"/><path class="af" d="M121.52,174.54l11.09,4s-3,2.67-6.58,1.47S121.52,174.54,121.52,174.54Z"/><path class="t" d="M122.23,175.14l9,3.19s-2.77,2.25-5.66,1a5.87,5.87,0,0,1-3.34-4.19Z"/><path class="ag" d="M122.23,175.14l9,3.19-.75.49s-.77-.89-3.74-1.88a17.709,17.709,0,0,0-4.28-1.05S122.28,175.36,122.23,175.14Z"/><path class="q" d="M127.2,182.18c-.1.31-1,.31-1.9,0s-1.62-.82-1.52-1.13,1-.31,1.9,0S127.3,181.87,127.2,182.18Z"/><path class="o" d="M109.65,161a2.06,2.06,0,0,1,2-1.41,2.14,2.14,0,0,0-.73-.43,2.08,2.08,0,1,0-1.32,3.94,2,2,0,0,0,.67.1A2.08,2.08,0,0,1,109.65,161Z"/><path class="ab" d="M122.45,131.57c9.69,2.36,13.33,7.58,21.08,9.84,4.51,1.31,6.37-3.83-3.22-8C134.89,131.1,127.67,130,122.45,131.57Z"/><path class="z" d="M128.89,143.78a18.91,18.91,0,0,1,13.59,3.69l-.44-3.4s-9.18-6-14.47-2.1Z"/><path class="v" d="M110.6,153.26a14.2,14.2,0,0,0-3.74,3.79s2.25-20.51,6.8-24.63a24.28,24.28,0,0,1,19-4c7.21,1.5,15.19,8,16.66,12.19,1,2.82-3.12,15.93-3.12,15.93S138.05,138.8,110.6,153.26Z"/><path class="w" d="M126.15,134.16c.63-2.42,8.86-3.33,11.1-3.21s11.62,7.54,11.36,10.35c-.09.92.07,5.94-3.59,8.7-1.06.8-17.63-2.09-19.78-4.49S125.86,135.26,126.15,134.16Z"/><path class="g" d="M119.92,129.2a14.35,14.35,0,0,0-6.58,3.55c-5.14,5.55-7,21.64-6.48,24.3,2.34-3.12,3.74-3.79,3.74-3.79.67-.35,1.33-.68,2-1a100,100,0,0,1,7.32-23.06Z"/><path class="f" d="M110.6,153.26s9.15-11.88,14.63-12.55c14.62-1.81,25.3,5.67,29.42,11s-9.75,7.8-9.75,7.8,2.09-5.39-6.76-9.45C127.13,145,110.6,153.26,110.6,153.26Z"/><path class="v" d="M112,146a1.6,1.6,0,1,1-1.54-2A1.842,1.842,0,0,1,112,146Z"/><path class="ah" d="M111.68,146a1.29,1.29,0,1,1-1.25-1.65A1.49,1.49,0,0,1,111.68,146Z"/><path class="ai" d="M154.65,151.71c-4-5.18-14.22-12.36-28.21-11.11a12.13,12.13,0,0,0-2,1.18s20.22,1.65,19.15,12.11h0a5.94,5.94,0,0,1,1.32,5.62S158.76,157,154.65,151.71Z"/><path class="y" d="M125.23,141.91c14.62-1.8,25.31,5.67,29.42,11a3.62,3.62,0,0,1,.68,1.32,2.85,2.85,0,0,0-.68-2.52c-4.12-5.33-14.8-12.81-29.42-11-5.48.67-14.63,12.55-14.63,12.55s.56-.28,1.55-.7C115,149.17,121.14,142.41,125.23,141.91Z"/><path class="k" d="M90.22,331.45c.46-2.52,9.13-44.91,9.13-44.91l-2.75-2.06,13.29-.92-3.21,3.21s6.92,41.59,6.46,44-3.52,21.32-3,27.51,12.69,49.29,12.69,49.29h-2.36s-12.55-42.4-12.9-49.62,2-27.62,2-27.62l-5.39-43.64h-1.83l-8.53,44.47-10.3,76.41H81.31S89.76,334,90.22,331.45Z"/><path class="k" d="M76.59,331.15c.65-13.21-7-42.39-3.08-70.93l4.74.52c-2.41,24.41,3.43,57.84,2.12,70.94-.46,4.58-4,16.11-4.5,23.21s2.48,52.67,2.48,52.67H76.72s-4.23-45.87-4.23-52.74S76.17,337.26,76.59,331.15Z"/><path class="i" d="M72.05,326s28.52,5.83,57.25-.7c0,0,1.75-52.29-1.65-66h-54s-2,7.52-1.11,25.81C73.36,301.8,72.05,326,72.05,326Z"/><path class="i" d="M96.6,192.15s6.47,6.28,8,21.19h1.85s-1-14.64-7.79-21.63Z"/><path class="i" d="M131.43,193.24a68.22,68.22,0,0,1-1.15,20.1H132s2.14-11.75,1.4-19.43Z"/><path class="k" d="M131.08,223a25.22,25.22,0,0,1-12,3c-8,0-16.63-2.15-18.35-3.85h0a20.89,20.89,0,0,1-1.33,5.3,5.76,5.76,0,0,1,.8,3.12c-.31,2.23-5.64,5.1-11.5,9.4a.64.64,0,0,0,0,.07A45.11,45.11,0,0,1,111.94,236a29,29,0,0,1,11.49,3.61,28,28,0,0,1,.15-6.27C124,230.38,127.74,226.74,131.08,223Z"/><path class="k" d="M78.37,323.8s1.31-24.18.47-40.91c-.63-12.74.16-20.24.69-23.63H73.64s-2,7.52-1.11,25.81c.83,16.73-.48,40.91-.48,40.91s28.52,5.83,57.25-.7v-.94C102.87,328.81,78.37,323.8,78.37,323.8Z"/><path class="k" d="M106,232.28a5.77,5.77,0,0,0-.8-3.13c1.23-3-4.53-4.59-5.77-1.63a5.76,5.76,0,0,1,.8,3.12c-.65,4.66-23.18,12.09-26.73,29.58,0,0,2.22.59,5.85,1.3C83.13,244.27,105.36,236.9,106,232.28Z"/><path class="aj" d="M119.7,222.16c-9.55,0-10.62-7.51-10.62-7.51h21.06S129.25,222.16,119.7,222.16Z"/><rect class="d" width="208.52" height="8.53" transform="translate(27.13 255.41)"/><path class="b" d="M235.65,256.76s-16.9,4.38-104.26,4.38-104.26-4.38-104.26-4.38V264H235.65Z"/><rect class="c" width="188.06" height="33.08" transform="translate(37.36 293.83)"/><rect class="b" width="6.09" height="148.3" transform="translate(34.09 262.82)"/><rect class="b" width="6.09" height="148.3" transform="translate(220.98 262.82)"/><rect class="c" width="208.52" height="33.08" transform="translate(27.13 262.82)"/><rect class="e" width="208.52" height="10.01" transform="translate(27.13 285.89)"/><path class="b" d="M227.07,295.9h-193v27s16.64-21.33,96.3-21.33,96.68,21.33,96.68,21.33Z"/><path class="d" d="M85.31,269.18c0,.75-10.37,3.77-23.17,3.77S39,269.93,39,269.18s10.37-3.78,23.16-3.78S85.31,268.42,85.31,269.18Z"/><path class="b" d="M79.79,269.18c0,.54-7.9,2.72-17.65,2.72s-17.64-2.18-17.64-2.72,7.9-2.73,17.64-2.73S79.79,268.63,79.79,269.18Z"/><path class="e" d="M85.17,269c-1.22,1-11.06,3.6-23,3.6s-21.8-2.64-23-3.6c-.08.07-.13.13-.13.18,0,.75,10.37,3.77,23.16,3.77s23.17-3,23.17-3.77C85.31,269.13,85.26,269.07,85.17,269Z"/><path class="ak" d="M70.72,267.27h2.21a68.862,68.862,0,0,0-10.79-.86c-9.74,0-17.64,2.18-17.64,2.73s5.53,2.05,13,2.56C57.34,267.5,65.58,267.27,70.72,267.27Z"/><path class="v" d="M47.35,270.24a66.76,66.76,0,0,0,29.59,0A66.369,66.369,0,0,0,47.35,270.24Z"/><path class="v" d="M47.35,270.24s-.14-.28.22-.42a.88.88,0,0,1,.74.19.82.82,0,0,1,.32-.29c.19-.09.55.11.55.11s.16-.66.56-.74a1.34,1.34,0,0,1,.82.16s.14-.27.38-.24a.62.62,0,0,1,.41.3.91.91,0,0,1,.52-.3,1.1,1.1,0,0,1,.62.25.77.77,0,0,1,.41-.36,1.79,1.79,0,0,1,.85.19.82.82,0,0,1,.62-.52.91.91,0,0,1,.71.19.86.86,0,0,1,.38-.57,1.17,1.17,0,0,1,.73,0s0-.36.25-.36a.42.42,0,0,1,.35.25.6.6,0,0,1,.63-.22c.43.08.41.57.41.57s.08-.16.43-.16.38.19.38.19a.73.73,0,0,1,.52-.38,1.14,1.14,0,0,1,.68.16.69.69,0,0,1,.52-.46c.38-.05.67.39.67.39a.48.48,0,0,1,.51-.14.66.66,0,0,1,.45.38.83.83,0,0,1,.8-.66,1.2,1.2,0,0,1,.91.28s.08-.41.68-.36a.58.58,0,0,1,.57.6.64.64,0,0,1,.79-.3.89.89,0,0,1,.63.57,1.34,1.34,0,0,1,1.17-.46c.71.11.73.63.73.63a1,1,0,0,1,.68-.28,1.21,1.21,0,0,1,.6.3s.36-.41.68-.38a1.569,1.569,0,0,1,.71.38.75.75,0,0,1,.68-.16.6.6,0,0,1,.52.46.54.54,0,0,1,.62-.19,1.4,1.4,0,0,1,.63.44s.57-.63,1.17-.41.62.52.62.52a.35.35,0,0,1,.49-.09.32.32,0,0,1,.11.47s.46-.25.76,0a1.22,1.22,0,0,1,.4.47Z"/><path class="f" d="M47.35,270.24s1.9.26,2.76.28a7.34,7.34,0,0,0,1.88-.28s-.1.5.53.67a1.63,1.63,0,0,0,1.16-.17,1,1,0,0,0,.78.39.86.86,0,0,0,.79-.51.43.43,0,0,0,.41.31.89.89,0,0,0,.59-.19.67.67,0,0,0,.68.72c.73.06.88-.39.88-.39a1.41,1.41,0,0,0,1.65-.14,1.1,1.1,0,0,0,.73.44,1.3,1.3,0,0,0,.76-.2s.32.33.53.31a1.541,1.541,0,0,0,.55-.33,1,1,0,0,0,.73.39.9.9,0,0,0,.78-.35.66.66,0,0,0,.55.25c.33,0,.45-.49.45-.49s.16.14.67.1a1.67,1.67,0,0,0,.78-.23.65.65,0,0,0,.53.6.68.68,0,0,0,.71-.41,1.9,1.9,0,0,0,1,.36,2.371,2.371,0,0,0,1-.3,2.13,2.13,0,0,0,1.08.16,1.33,1.33,0,0,0,.88-.57,1.61,1.61,0,0,0,.65.14,1.25,1.25,0,0,0,.62-.3.86.86,0,0,0,.65.34.85.85,0,0,0,.65-.38s.31.26.51.24.7-.63.7-.63a1.18,1.18,0,0,0,.85.26,1.34,1.34,0,0,0,.7-.56,1.09,1.09,0,0,1,.4.47,62.941,62.941,0,0,1-14.52,1.68,62.1,62.1,0,0,1-15.05-1.68Z"/><path class="d" d="M155.91,269.18c0,.75-10.37,3.77-23.16,3.77s-23.16-3-23.16-3.77,10.37-3.78,23.16-3.78S155.91,268.42,155.91,269.18Z"/><path class="b" d="M150.39,269.18c0,.54-7.9,2.72-17.64,2.72s-17.65-2.18-17.65-2.72,7.9-2.73,17.65-2.73S150.39,268.63,150.39,269.18Z"/><path class="e" d="M155.78,269c-1.23,1-11.07,3.6-23,3.6s-21.81-2.64-23-3.6c-.09.07-.13.13-.13.18,0,.75,10.37,3.77,23.16,3.77s23.16-3,23.16-3.77C155.91,269.13,155.86,269.07,155.78,269Z"/><path class="ak" d="M141.33,267.27h2.2a68.717,68.717,0,0,0-10.78-.86c-9.75,0-17.65,2.18-17.65,2.73s5.53,2.05,13,2.56C128,267.5,136.19,267.27,141.33,267.27Z"/><path class="v" d="M118,270.24a66.76,66.76,0,0,0,29.59,0A66.37,66.37,0,0,0,118,270.24Z"/><path class="v" d="M118,270.24s-.13-.28.22-.42a.86.86,0,0,1,.74.19.82.82,0,0,1,.32-.29c.19-.09.55.11.55.11s.16-.66.57-.74a1.3,1.3,0,0,1,.81.16s.14-.27.39-.24a.62.62,0,0,1,.4.3,1,1,0,0,1,.52-.3,1.14,1.14,0,0,1,.63.25.73.73,0,0,1,.4-.36,1.76,1.76,0,0,1,.85.19.82.82,0,0,1,.62-.52.89.89,0,0,1,.71.19.86.86,0,0,1,.38-.57,1.2,1.2,0,0,1,.74,0s0-.36.24-.36a.43.43,0,0,1,.36.25.59.59,0,0,1,.62-.22.54.54,0,0,1,.41.57s.08-.16.43-.16.39.19.39.19a.73.73,0,0,1,.51-.38,1.11,1.11,0,0,1,.68.16.71.71,0,0,1,.52-.46c.38-.05.67.39.67.39a.48.48,0,0,1,.51-.14.66.66,0,0,1,.45.38.84.84,0,0,1,.8-.66,1.25,1.25,0,0,1,.92.28s.08-.41.68-.36a.59.59,0,0,1,.57.6.63.63,0,0,1,.79-.3.88.88,0,0,1,.62.57,1.34,1.34,0,0,1,1.17-.46c.71.11.74.63.74.63a.92.92,0,0,1,.68-.28,1.27,1.27,0,0,1,.6.3s.35-.41.68-.38a1.57,1.57,0,0,1,.7.38.75.75,0,0,1,.68-.16.58.58,0,0,1,.52.46.56.56,0,0,1,.63-.19,1.41,1.41,0,0,1,.62.44s.57-.63,1.17-.41.63.52.63.52a.35.35,0,0,1,.49-.09.32.32,0,0,1,.11.47s.46-.25.76,0a1.13,1.13,0,0,1,.39.47Z"/><path class="f" d="M118,270.24s1.91.26,2.77.28a7.311,7.311,0,0,0,1.87-.28s-.1.5.53.67a1.64,1.64,0,0,0,1.17-.17,1,1,0,0,0,.77.39.88.88,0,0,0,.8-.51.42.42,0,0,0,.41.31.92.92,0,0,0,.59-.19.67.67,0,0,0,.67.72c.74.06.88-.39.88-.39a1.13,1.13,0,0,0,.82.2,1.09,1.09,0,0,0,.83-.34,1.13,1.13,0,0,0,.74.44,1.28,1.28,0,0,0,.75-.2s.33.33.53.31a1.45,1.45,0,0,0,.55-.33,1,1,0,0,0,.74.39.87.87,0,0,0,.77-.35.68.68,0,0,0,.55.25c.33,0,.45-.49.45-.49a1,1,0,0,0,.68.1,1.6,1.6,0,0,0,.77-.23.65.65,0,0,0,.53.6.69.69,0,0,0,.72-.41,1.9,1.9,0,0,0,1,.36,2.37,2.37,0,0,0,1-.3,2.13,2.13,0,0,0,1.08.16,1.36,1.36,0,0,0,.88-.57,1.56,1.56,0,0,0,.65.14,1.25,1.25,0,0,0,.61-.3.78.78,0,0,0,1.31,0s.3.26.51.24.69-.63.69-.63a1.19,1.19,0,0,0,.86.26,1.34,1.34,0,0,0,.7-.56,1.1,1.1,0,0,1,.39.47A62.9,62.9,0,0,1,133,271.92a62.128,62.128,0,0,1-15-1.68Z"/><path class="d" d="M226.51,269.18c0,.75-10.37,3.77-23.16,3.77s-23.16-3-23.16-3.77,10.37-3.78,23.16-3.78S226.51,268.42,226.51,269.18Z"/><path class="b" d="M221,269.18c0,.54-7.9,2.72-17.65,2.72s-17.64-2.18-17.64-2.72,7.9-2.73,17.64-2.73S221,268.63,221,269.18Z"/><path class="e" d="M226.38,269c-1.22,1-11.07,3.6-23,3.6s-21.8-2.64-23-3.6c-.08.07-.13.13-.13.18,0,.75,10.37,3.77,23.16,3.77s23.16-3,23.16-3.77C226.51,269.13,226.47,269.07,226.38,269Z"/><path class="ak" d="M211.93,267.27h2.21a69,69,0,0,0-10.79-.86c-9.74,0-17.64,2.18-17.64,2.73s5.52,2.05,13,2.56C198.55,267.5,206.79,267.27,211.93,267.27Z"/><path class="v" d="M188.56,270.24a66.76,66.76,0,0,0,29.59,0A66.369,66.369,0,0,0,188.56,270.24Z"/><path class="v" d="M188.56,270.24s-.14-.28.22-.42a.88.88,0,0,1,.74.19.82.82,0,0,1,.32-.29c.19-.09.55.11.55.11s.15-.66.56-.74a1.34,1.34,0,0,1,.82.16s.13-.27.38-.24a.65.65,0,0,1,.41.3.91.91,0,0,1,.51-.3,1.11,1.11,0,0,1,.63.25.77.77,0,0,1,.41-.36,1.79,1.79,0,0,1,.85.19.82.82,0,0,1,.62-.52.91.91,0,0,1,.71.19.86.86,0,0,1,.38-.57,1.17,1.17,0,0,1,.73,0s0-.36.25-.36a.42.42,0,0,1,.35.25.59.59,0,0,1,.62-.22.54.54,0,0,1,.41.57s.08-.16.44-.16.38.19.38.19a.73.73,0,0,1,.52-.38,1.14,1.14,0,0,1,.68.16.69.69,0,0,1,.51-.46c.38-.05.68.39.68.39a.48.48,0,0,1,.51-.14.66.66,0,0,1,.45.38.83.83,0,0,1,.8-.66,1.23,1.23,0,0,1,.91.28s.08-.41.68-.36a.58.58,0,0,1,.57.6.64.64,0,0,1,.79-.3.91.91,0,0,1,.63.57,1.34,1.34,0,0,1,1.17-.46c.7.11.73.63.73.63a1,1,0,0,1,.68-.28,1.27,1.27,0,0,1,.6.3s.35-.41.68-.38a1.57,1.57,0,0,1,.71.38.74.74,0,0,1,.68-.16.58.58,0,0,1,.51.46.56.56,0,0,1,.63-.19,1.4,1.4,0,0,1,.63.44s.57-.63,1.17-.41.62.52.62.52a.35.35,0,0,1,.49-.09.32.32,0,0,1,.11.47s.46-.25.76,0a1.22,1.22,0,0,1,.4.47Z"/><path class="f" d="M188.56,270.24s1.9.26,2.76.28a7.339,7.339,0,0,0,1.88-.28s-.11.5.53.67a1.63,1.63,0,0,0,1.16-.17,1,1,0,0,0,.78.39.86.86,0,0,0,.79-.51.42.42,0,0,0,.41.31.89.89,0,0,0,.59-.19.67.67,0,0,0,.68.72c.73.06.87-.39.87-.39a1.16,1.16,0,0,0,.82.2,1.12,1.12,0,0,0,.84-.34,1.1,1.1,0,0,0,.73.44,1.3,1.3,0,0,0,.76-.2s.32.33.53.31a1.54,1.54,0,0,0,.55-.33,1,1,0,0,0,.73.39.9.9,0,0,0,.78-.35.66.66,0,0,0,.55.25c.32,0,.45-.49.45-.49s.16.14.67.1a1.67,1.67,0,0,0,.78-.23.65.65,0,0,0,.53.6.68.68,0,0,0,.71-.41,1.9,1.9,0,0,0,1,.36,2.37,2.37,0,0,0,1-.3,2.13,2.13,0,0,0,1.08.16,1.36,1.36,0,0,0,.88-.57,1.61,1.61,0,0,0,.65.14,1.19,1.19,0,0,0,.61-.3.89.89,0,0,0,.66.34.85.85,0,0,0,.65-.38s.31.26.51.24.69-.63.69-.63a1.19,1.19,0,0,0,.86.26,1.34,1.34,0,0,0,.7-.56,1.09,1.09,0,0,1,.4.47,63,63,0,0,1-14.52,1.68,62.1,62.1,0,0,1-15.05-1.68Z"/><path class="d" d="M120.78,278.21c0,.75-10.37,3.77-23.16,3.77s-23.16-3-23.16-3.77,10.37-3.78,23.16-3.78S120.78,277.45,120.78,278.21Z"/><path class="b" d="M115.27,278.21c0,.54-7.9,2.73-17.65,2.73S80,278.75,80,278.21s7.9-2.73,17.64-2.73S115.27,277.66,115.27,278.21Z"/><path class="e" d="M120.65,278c-1.22,1-11.06,3.6-23,3.6s-21.8-2.64-23-3.6c-.08.07-.13.13-.13.18,0,.75,10.37,3.77,23.16,3.77s23.16-3,23.16-3.77C120.78,278.16,120.74,278.1,120.65,278Z"/><path class="ak" d="M106.2,276.3h2.21a69,69,0,0,0-10.79-.86c-9.74,0-17.64,2.18-17.64,2.73s5.52,2.05,13,2.56C92.82,276.53,101.06,276.3,106.2,276.3Z"/><ellipse class="v" cx="14.8" cy="1.67" rx="14.8" ry="1.67" transform="translate(82.82 277.6)"/><path class="v" d="M82.83,279.27s-.14-.28.22-.41a.85.85,0,0,1,.74.18.82.82,0,0,1,.32-.29c.19-.08.55.11.55.11s.16-.66.56-.74a1.31,1.31,0,0,1,.82.17s.14-.28.38-.25a.65.65,0,0,1,.41.3,1,1,0,0,1,.52-.3,1.1,1.1,0,0,1,.62.25.77.77,0,0,1,.41-.36,1.79,1.79,0,0,1,.85.19.8.8,0,0,1,.62-.51.87.87,0,0,1,.71.19.87.87,0,0,1,.38-.58,1.17,1.17,0,0,1,.73,0s0-.35.25-.35a.42.42,0,0,1,.35.24.59.59,0,0,1,.63-.21c.43.08.4.57.4.57s.09-.17.44-.17.38.19.38.19a.76.76,0,0,1,.52-.38,1.11,1.11,0,0,1,.68.17.71.71,0,0,1,.51-.47.99.99,0,0,1,.68.39.5.5,0,0,1,.51-.14.66.66,0,0,1,.45.38.81.81,0,0,1,.8-.65,1.23,1.23,0,0,1,.91.27s.08-.41.68-.36a.58.58,0,0,1,.57.6.64.64,0,0,1,.79-.3.89.89,0,0,1,.63.58,1.34,1.34,0,0,1,1.17-.47c.7.11.73.63.73.63a.91.91,0,0,1,.68-.27,1.13,1.13,0,0,1,.6.3s.35-.41.68-.39a1.55,1.55,0,0,1,.71.39.74.74,0,0,1,.68-.17.61.61,0,0,1,.52.47.54.54,0,0,1,.62-.2,1.4,1.4,0,0,1,.63.44s.57-.63,1.17-.41.62.52.62.52a.35.35,0,0,1,.49-.08.31.31,0,0,1,.11.46s.46-.25.76,0a1.22,1.22,0,0,1,.4.47Z"/><path class="f" d="M82.83,279.27s1.9.26,2.76.28a7.339,7.339,0,0,0,1.88-.28s-.1.51.53.67a1.65,1.65,0,0,0,1.16-.16,1,1,0,0,0,.78.38.86.86,0,0,0,.79-.51.42.42,0,0,0,.41.31.91.91,0,0,0,.59-.18.66.66,0,0,0,.68.71c.73.06.87-.39.87-.39a1.13,1.13,0,0,0,.82.21,1.11,1.11,0,0,0,.84-.35,1.1,1.1,0,0,0,.73.45,1.35,1.35,0,0,0,.76-.21s.32.33.53.31a1.539,1.539,0,0,0,.55-.33,1,1,0,0,0,.73.39.9.9,0,0,0,.78-.35.66.66,0,0,0,.55.25c.33,0,.45-.49.45-.49s.16.14.67.1a1.75,1.75,0,0,0,.78-.22.63.63,0,0,0,.53.59.68.68,0,0,0,.71-.41,2,2,0,0,0,1,.37,2.31,2.31,0,0,0,1-.31,2,2,0,0,0,1.08.16,1.36,1.36,0,0,0,.88-.57,1.55,1.55,0,0,0,.65.15,1.23,1.23,0,0,0,.62-.31.76.76,0,0,0,1.3,0s.31.26.51.24.7-.63.7-.63a1.19,1.19,0,0,0,.85.27,1.39,1.39,0,0,0,.7-.57,1.17,1.17,0,0,1,.4.47A63,63,0,0,1,97.9,281a62.1,62.1,0,0,1-15.07-1.73Z"/><path class="d" d="M192.43,278.21c0,.75-10.37,3.77-23.16,3.77s-23.16-3-23.16-3.77,10.37-3.78,23.16-3.78S192.43,277.45,192.43,278.21Z"/><path class="b" d="M186.91,278.21c0,.54-7.9,2.73-17.64,2.73s-17.65-2.19-17.65-2.73,7.9-2.73,17.65-2.73S186.91,277.66,186.91,278.21Z"/><path class="e" d="M192.3,278c-1.23,1-11.07,3.6-23,3.6s-21.81-2.64-23-3.6c-.09.07-.13.13-.13.18,0,.75,10.37,3.77,23.16,3.77s23.16-3,23.16-3.77C192.43,278.16,192.38,278.1,192.3,278Z"/><path class="ak" d="M177.84,276.3h2.21a68.824,68.824,0,0,0-10.78-.86c-9.75,0-17.65,2.18-17.65,2.73s5.53,2.05,13,2.56C164.47,276.53,172.71,276.3,177.84,276.3Z"/><path class="v" d="M154.47,279.27a66.37,66.37,0,0,0,29.59,0,66.37,66.37,0,0,0-29.59,0Z"/><path class="v" d="M154.47,279.27s-.13-.28.22-.41a.84.84,0,0,1,.74.18.82.82,0,0,1,.32-.29c.19-.08.55.11.55.11s.16-.66.57-.74a1.27,1.27,0,0,1,.81.17s.14-.28.39-.25a.65.65,0,0,1,.4.3,1,1,0,0,1,.52-.3,1.14,1.14,0,0,1,.63.25.73.73,0,0,1,.4-.36,1.76,1.76,0,0,1,.85.19.8.8,0,0,1,.62-.51.85.85,0,0,1,.71.19.87.87,0,0,1,.38-.58,1.2,1.2,0,0,1,.74,0s0-.35.24-.35a.4.4,0,0,1,.35.24.6.6,0,0,1,.63-.21.54.54,0,0,1,.41.57s.08-.17.43-.17.38.19.38.19a.79.79,0,0,1,.52-.38,1.08,1.08,0,0,1,.68.17.74.74,0,0,1,.52-.47.986.986,0,0,1,.67.39.5.5,0,0,1,.51-.14.66.66,0,0,1,.45.38.81.81,0,0,1,.8-.65,1.27,1.27,0,0,1,.92.27s.08-.41.68-.36a.59.59,0,0,1,.57.6.63.63,0,0,1,.79-.3.89.89,0,0,1,.62.58,1.34,1.34,0,0,1,1.17-.47c.71.11.74.63.74.63a.89.89,0,0,1,.68-.27,1.18,1.18,0,0,1,.6.3s.35-.41.68-.39a1.56,1.56,0,0,1,.7.39.74.74,0,0,1,.68-.17.59.59,0,0,1,.52.47.56.56,0,0,1,.63-.2,1.41,1.41,0,0,1,.62.44s.57-.63,1.17-.41.63.52.63.52a.35.35,0,0,1,.49-.08.31.31,0,0,1,.11.46s.46-.25.76,0a1.13,1.13,0,0,1,.39.47Z"/><path class="f" d="M154.47,279.27s1.91.26,2.77.28a7.312,7.312,0,0,0,1.87-.28s-.1.51.53.67a1.67,1.67,0,0,0,1.17-.16,1,1,0,0,0,.77.38.88.88,0,0,0,.8-.51.42.42,0,0,0,.41.31.94.94,0,0,0,.59-.18.66.66,0,0,0,.67.71c.74.06.88-.39.88-.39a1.37,1.37,0,0,0,1.65-.14,1.13,1.13,0,0,0,.74.45,1.33,1.33,0,0,0,.75-.21s.33.33.53.31a1.45,1.45,0,0,0,.55-.33,1,1,0,0,0,.74.39.87.87,0,0,0,.77-.35.68.68,0,0,0,.55.25c.33,0,.45-.49.45-.49a1,1,0,0,0,.68.1,1.67,1.67,0,0,0,.77-.22.63.63,0,0,0,.53.59.69.69,0,0,0,.72-.41,2,2,0,0,0,1,.37,2.31,2.31,0,0,0,1-.31,2,2,0,0,0,1.08.16,1.32,1.32,0,0,0,.87-.57,1.56,1.56,0,0,0,.66.15,1.23,1.23,0,0,0,.61-.31.86.86,0,0,0,.65.35.88.88,0,0,0,.66-.39s.3.26.51.24.69-.63.69-.63a1.23,1.23,0,0,0,.86.27,1.44,1.44,0,0,0,.7-.57,1.18,1.18,0,0,1,.39.47A62.9,62.9,0,0,1,169.55,281,62.129,62.129,0,0,1,154.47,279.27Z"/><rect class="al" width="208.52" height="0.7" transform="translate(27.13 285.89)"/><path class="p" d="M61.19,236.51c-1.77-6.22,4.91-11.4,9.5-6.19C75.94,236.26,81,250.59,91,262.61l-1.92,1.81C79.88,260.38,65.38,251.17,61.19,236.51Z"/><path class="q" d="M63,235.85c-.55-2.16.43-5.67,1.36-7.19-3.11-.22-4,4.76-3.17,7.85,4.19,14.66,18.69,23.87,27.89,27.91l.57-.53C80.64,259.56,66.85,250.89,63,235.85Z"/><path class="v" d="M90.38,261.91a25.347,25.347,0,0,1,2.62.69,35.856,35.856,0,0,1,3.51,2c.76.43,1,.55,1,.68s-.33.84-1.49.2a32.351,32.351,0,0,0-3.36-1.45Z"/><path class="v" d="M88.48,264.15a28.431,28.431,0,0,0,4.21,6c2.5,2.59,3.16,2.65,3.37,2.37s-.39-.91-1.22-1.67a8.851,8.851,0,0,1-1.1-1.32c.08-.09,1,.89,1.63,1.39.28.21,2,1.84,2.62,1.4.45-.3-1.25-1.44-1.89-2.15-.4-.45-1.33-1.48-1.3-1.52s1.2.87,1.87,1.37c.28.21,2.16,1.92,2.65,1.46s-.29-.78-1.85-2.2a18.249,18.249,0,0,1-1.83-1.81,13,13,0,0,1,1.64,1.14c.32.24,1.9,1.7,2.41,1.08.26-.32-.62-1-1.68-1.83s-1.4-1.19-2.15-1.82-5.21-4.1-5.21-4.1A2.237,2.237,0,0,0,88.48,264.15Z"/><path class="v" d="M88.48,264.15a15.131,15.131,0,0,1-2.88-1.07,7.28,7.28,0,0,1,2.77-3.82l2.55,3Z"/><path class="f" d="M92.86,269.85a28,28,0,0,1-4.22-6A12.659,12.659,0,0,1,86,262a3.28,3.28,0,0,0-.41,1.06,15.129,15.129,0,0,0,2.88,1.07,28.43,28.43,0,0,0,4.21,6c2.5,2.59,3.16,2.65,3.37,2.37a.27.27,0,0,0,0-.24C95.76,272.42,95,272,92.86,269.85Z"/><path class="p" d="M145.74,243.35c-3.47-5.47,4.34-13.5,8.76-8.14,4.95,6,12.94,15.74,25.89,24.52L179.05,262C171.12,260.78,153.41,255.41,145.74,243.35Z"/><path class="q" d="M146.22,240.6c-1-1.69-3.1-5.55-3.1-5.55a9.56,9.56,0,0,0,1.15,6.65c8.07,12.94,24.82,18.95,34.78,20.3l.34-.57C169.43,259.79,153.92,253.56,146.22,240.6Z"/><path class="v" d="M190.56,265.66c.2-.74-1.89-1.83-2.18-2-.69-.48,1.24.78,1.43.11.1-.34-1.25-.92-3.54-1.75-3.38-1.23-4.67-1.59-6.55-2.69l-2.7-2.1a5.81,5.81,0,0,0-2.45,4.3l3.8.65a10.061,10.061,0,0,0,1.24,1.91c.66.75,1.2,1.12,2.24,2.09.81.75,1.55,1.8,2,1.67,1.19-.4-1.81-2.89-1.61-3.18s3.27,1.24,4.19,1.82c1.15.72,2.1,1.38,2.32,1,.35-.57-2.36-2.34-2.36-2.34a6.877,6.877,0,0,1,1.27.53c1.85,1,2.45,1.52,2.67,1s-3-2.38-2.44-2.15C188.79,264.94,190.41,266.18,190.56,265.66Z"/><path class="f" d="M183.87,267.14c-.47.13-1.21-.92-2-1.67-1-1-1.58-1.34-2.24-2.09a10.71,10.71,0,0,1-1.24-2.1l-3.57-.89a7,7,0,0,0-.23,1.11l3.8.65a10.061,10.061,0,0,0,1.24,1.91c.66.75,1.2,1.12,2.24,2.09.81.75,1.55,1.8,2,1.67s.33-.41.14-.76a.37.37,0,0,1-.14.08Z"/><path class="f" d="M116.92,203.42a.53.53,0,1,1-.53-.53A.53.53,0,0,1,116.92,203.42Z"/><path class="f" d="M117.61,208a.53.53,0,0,1-.53.54.54.54,0,0,1,0-1.07A.53.53,0,0,1,117.61,208Z"/></g><g transform="translate(0 64)"><path class="i" d="M408.27,419.61s1.76-2.89,1.82-4.43c0-.55-.8-.42-1.12-.64-5.46,4.39-7.39-3.62-9-.57C398.5,416.29,408.27,419.61,408.27,419.61Z"/><path class="i" d="M454,407.46a10.559,10.559,0,0,1,.82,2.84c.29,1.6,1.3,9-3.08,9.31-4.94-1.28,3.35-7,0-11.24C451.25,405.91,454,407.46,454,407.46Z"/><path class="am" d="M450.14,411.12l6.2-2.71s-4.23-35-7.54-42.87c-1.65-3.92-7.92-16.78-12.38-21.72s-20.3-1.39-16.83,6.76C425,361.94,435.08,380.37,450.14,411.12Z"/><path class="an" d="M405.07,280.18c-.48,7.82,4,37.11,14.23,69.8,2,6.33,16.67,7.08,17.92-3.34-2.55-15.63-10.71-42-10.71-42S433,284.85,419.73,277C410.74,271.77,405.54,272.36,405.07,280.18Z"/><path class="am" d="M373.46,261.2a66.362,66.362,0,0,0,7.54,1.11,37.682,37.682,0,0,0,7.23-.8s-5.29-2.86-7.08-3S373.46,261.2,373.46,261.2Z"/><path class="am" d="M458.59,252.75a75.409,75.409,0,0,1,4.78,7,72,72,0,0,1,2.41,7.64S458.52,261.94,458.59,252.75Z"/><path class="q" d="M379.31,271.11A44.2,44.2,0,0,1,373,245c1.17-16.18,20.74-11.91,18.18,2.6-1.27,7.22-4.25,11.52-8.56,22.65Z"/><path class="an" d="M409.38,200.72c10.09,11.66-6.61,33.06-17.73,45.55-4.29,5.43-10.65,8.25-14.37,6-7.73-4.55-4-14.77,4.54-26.49C394.4,208.67,401.48,202.7,409.38,200.72Z"/><path class="ao" d="M391.13,247.61c2.56-14.51-17-18.78-18.18-2.6a44,44,0,0,0,1.57,15.08l12.65-.73a48.46,48.46,0,0,0,3.96-11.75Z"/><path class="an" d="M435.66,350.43s-1.43,21.4-3.11,28.67-20.91,37-20.91,37l-6.33-2.43c3.7-17.68,14.77-69.25,14.77-69.25C422,338.91,436.17,341.24,435.66,350.43Z"/><path class="an" d="M455.45,294.49c.1,15.61-17.77,50.73-19.79,57.44-1.29,4.24-16.08,4.73-15.84-6.34,4.41-20.79,7.36-45.94,7.36-45.94S417.27,278,431,271.74c13.59-4,19.64-7,22.36,4.81A85.65,85.65,0,0,1,455.45,294.49Z"/><path class="ap" d="M453.36,275.3a20.59,20.59,0,0,0-4.9-9.63c.19,15.27,1.47,15.48,1.57,30.24.1,15.62-16.49,51.62-19.44,58.74,2.52-.24,4.62-1.24,5.07-2.72,2-6.71,19.89-41.83,19.79-57.44A100.8,100.8,0,0,0,453.36,275.3Z"/><path class="v" d="M465.58,206.06c-3.6-4.92-34.36-13-34.36-13s-27,7-30.11,12.19c-1.3,2.11-1.6,15.71-.32,22.4,1.61,8.42,4.93,23.62,5,30.63.08,7.76-.53,17.83-.53,19.6,0,.87-.17,4.66,18.48,5.14,10.18.26,29.08-1.34,29.95-5.2.18-.8-2.16-16.13-1.2-21.73s6.07-15,9.54-24.59S466.93,208.05,465.58,206.06Z"/><path class="q" d="M418.61,196.83l-2.28,1.44s1.28,7,11.25,8.33,16.85-7.6,16.85-7.6l-1.78-.9S429.61,205,418.61,196.83Z"/><path class="g" d="M443.3,275.06c1.76-1.58-.71-20.52-1.94-24.2s-33.15-9.67-32.62-10.19,28.6,1.22,32.81-1.41,8.95-27.54,8.77-29.3c-.1-1-4.32-3.47-7.82-5.34l5.71-6.57c7.85,2.65,15.81,5.93,17.54,8.29,1.35,2-.25,15.62-3.72,25.18s-8.58,19-9.54,24.59,1.38,20.93,1.2,21.73c-.87,3.86-19.77,5.46-29.95,5.2-9.85-.26-14.58-1.48-16.85-2.71h0C424.34,283.68,441.55,276.63,443.3,275.06Z"/><path class="q" d="M418.43,199s-.69,4.71,9,5.23c10.92.58,15.18-6.13,15.18-6.13l-.78-18.44-22.27,5.18Z"/><path class="o" d="M419.08,191.12l.2-1.43c.19-1.18,2.92-3.45,6.34-5.9l16.05-4.15.95,18.44,1.81.9-2.58,2C433.5,203.65,421.27,200,419.08,191.12Z"/><path class="an" d="M462,231.52c3.47-9.56,5.16-23.61,3.81-25.59s-12.43-6.42-19-8.38c-13.12,17.06-22.54,30-22.54,30-8.22-22.44-8.73-30.08-8.73-30.08-6.1,1.87-13.58,5.84-14.46,7.28-2.2,3-2.2,17.11-.93,23.8,1.61,8.42,4.71,22.74,5.21,29.74a139.693,139.693,0,0,1-.39,21.3c0,.87.54,4.71,19.19,5.19,10.18.26,28.63-3.09,29.5-7,.18-.8-2.16-16.13-1.2-21.73S458.56,241.09,462,231.52Z"/><path class="am" d="M466.18,208.21a8.79,8.79,0,0,0-.23-1.77,1.761,1.761,0,0,0-.22-.51,3.139,3.139,0,0,0-.4-.43,18.231,18.231,0,0,0-3.77-2.4,98.674,98.674,0,0,0-11.64-4.52c-2,2.51-4,4.79-6,6.88,3.08,1.7,6.18,3.63,6.27,4.5.17,1.76-4.65,27.92-8.86,30.55s-32.28.88-32.81,1.41,31.4,6.5,32.63,10.19,7.3,24,8,28.58l4.41-2.85s-2-17-1.2-21.73c1-5.6,6.07-15,9.54-24.59a70.807,70.807,0,0,0,2.69-9.77c.56-2.69,1-5.34,1.25-7.68A40.173,40.173,0,0,0,466.18,208.21Z"/><path class="ap" d="M461.61,232.36,457.13,220s-9.5,31.77-9.5,37.1c0,4.54,1,17.14,1.59,23.9a21.129,21.129,0,0,0,4.57-2.1s-2.26-17.15-1.3-22.75C453.29,251.45,457,243.77,461.61,232.36Z"/><path class="am" d="M409.54,200.14s-3.68,12.64,3,23.65l8.9-4.45S413.1,199.2,409.54,200.14Z"/><path class="am" d="M430.44,219.25l8.8,5.11S451.73,211,452.4,199.42l-19.88,16.71Z"/><path class="aq" d="M418.61,196.83l.47-5.71a19.831,19.831,0,0,0-2.57,1.15c-.45.33-6.77,6.29-6.77,6.29a44.41,44.41,0,0,0,2.82,22.88l8.32-3.63s-4.65-14.44-5.36-19Z"/><path class="aq" d="M442.3,191.17s2,.78,2.56,1.11,7.66,6.73,7.66,6.73-3,13.55-12.88,23.05l-8.21-4.15c1.78-3.53,14-18.45,14-18.45l-2.74-1.38Z"/><path class="ao" d="M415.52,198.78s.23-4.44,1.11-5.22a7.47,7.47,0,0,1,2.35-1.22l-.37,4.49Z"/><path class="ao" d="M442.65,198.08l2.74,1.38s-.09-5.34-.75-5.79-2.23-1.22-2.23-1.22Z"/><path class="ap" d="M419.52,218.41s4.11,9.82,4.11,10.71-1.16,10.94-1.05,13.17,1.39,34.94,1.17,43.39a2.249,2.249,0,0,0,.88.11c.45-11.22-1.5-39.5-1.16-43.39s.94-13.28.94-13.28l8-10.7-1-.51-7.13,9.65-3.42-9.75Z"/><path class="ap" d="M422.55,285.32l4,.16v1.92l-4.17-.25Z"/><path class="ar" d="M417.51,143s-4,.69-3.51,3.89a79.706,79.706,0,0,1,1.26,13.43l6.57-5.64Z"/><path class="ar" d="M453.75,160.24c-1.59,9.95-11,22-15.36,21s-5.32-19.44-3.35-29.32c1.2-6,8-14.73,13.55-12.76C452.74,140.64,455.74,147.84,453.75,160.24Z"/><path class="p" d="M444.08,172.26c-2.9,22.74-17.6,21.21-22.26,20.2-7.38-1.59-9.42-8.2-6.82-22.87,1.21-14-3.28-24,13.6-22.71C442.75,147.93,446.18,155.7,444.08,172.26Z"/><path class="q" d="M433.19,147.55c6.13,3.76,8,9.56,6.91,23.15-1.67,20.08-11,21.29-17.41,21.93,5.38.93,18.65,1.11,21.39-20.37C445.93,157.67,443.48,149.91,433.19,147.55Z"/><path class="q" d="M448.55,174.35a4.25,4.25,0,1,1-4.29-3.94,4.12,4.12,0,0,1,4.29,3.94Z"/><path class="ar" d="M430.09,148.62s8.81,2.08,10.56,9.95a33.481,33.481,0,0,1,0,14.81l1.41.21a4.05,4.05,0,0,1,2.68-3.34C446.62,162.59,448,147.73,430.09,148.62Z"/><path class="o" d="M445.43,172.06a2.49,2.49,0,0,0-1.55-.23,2,2,0,0,1,.35.1,2.42,2.42,0,0,1,1.12,3.22,2.28,2.28,0,0,1-1.74,1.16,2.37,2.37,0,0,0,2.94-1,2.42,2.42,0,0,0-1.12-3.25Z"/><path class="o" d="M423.23,162.49a10,10,0,0,1,.94,4.23c-.06,2.24-1.16,3.84-2.69,4.15-2,.42-2.79,1-2.69,2.12s.84,1.84,2.19,2.27,3.16.45,3.23.16c0,0-4.31-.23-4.21-2.39,0-1,1.49-.94,2.83-1.65C426.22,169.57,425.2,164.12,423.23,162.49Z"/><path class="ar" d="M429.32,158.43c-.39.66,1.07,1.59,3.45,3s4.8,2.73,5.19,2.06-1.63-2.67-4-4.06S429.71,157.76,429.32,158.43Z"/><path class="ar" d="M421.27,157.79c.33.7-.17,1.08-2.67,2.25s-3.78,1.84-4.11,1.14,1-2.33,2.93-3.13C420,157,420.94,157.09,421.27,157.79Z"/><path class="ar" d="M447.31,155.84s2.65-11-4.07-17.24c-11.39-10.64-32.52-.84-32.52,4.54s7.84,5.38,7.84,5.38C426.23,145.67,438.11,151,447.31,155.84Z"/><path class="r" d="M421.19,164.53s-.17,2.91-2.11,3.23c-2.47.41-2.69-2.48-2.69-2.48S416.45,162.21,421.19,164.53Z"/><path class="n" d="M421.44,164.64s-4.9-1.58-5.15,1.58l-.14-.13s-.43-3.87,5.49-2.52Z"/><path class="n" d="M416.76,166.3a1.89,1.89,0,1,0,1.33-2.4A1.94,1.94,0,0,0,416.76,166.3Z"/><path class="r" d="M435.19,166.93s-.7,2.87-3.41,2.35-2.36-3.71-2.36-3.71S431.79,163.34,435.19,166.93Z"/><path class="n" d="M435.51,167.6a6,6,0,0,0-6.26-2l-.4-1.07s4.43-.71,6.81,2.83Z"/><path class="n" d="M429.82,167.36a2.06,2.06,0,1,0,1.75-2.43A2.12,2.12,0,0,0,429.82,167.36Z"/><path class="s" d="M418,178.93l12.93.55s-2.46,5.63-6.82,5.45S418,178.93,418,178.93Z"/><path class="t" d="M419.75,179.52l10.19.46s-.65,1.87-9.47.94Z"/><path class="u" d="M429.16,182.25a6.44,6.44,0,0,1-5.06,2.68,5,5,0,0,1-2.38-.75A6.27,6.27,0,0,1,429.16,182.25Z"/><path class="s" d="M430.85,179.24c-.15.09-.33.35-.29.42s.36,0,.51,0a.238.238,0,1,0-.22-.42Z"/><path class="s" d="M417.77,179.09c.15.09.47.12.51,0s-.15-.33-.3-.42a.23.23,0,0,0-.33.06.22.22,0,0,0,.12.36Z"/><path class="q" d="M422.17,187c-.05.75.83,1.41,1.91,1.48s1.94-.47,2-1.22-.87-.48-1.94-.55S422.22,186.24,422.17,187Z"/><path class="as" d="M412.21,142.37c.71,1.65,4.63,4,14.79,2.84S442.38,140,439.84,138s-7.72-4-15.83-2.24S411.83,141.48,412.21,142.37Z"/><path class="as" d="M438.8,150.44c-.84-1.76,1.64-5.53,3.28-6.87s5.16-4,7.92-1.94.28,5.62-2.2,8.22C445.67,152.08,440.14,153.28,438.8,150.44Z"/><path class="at" d="M443.31,265.77s1.24,1.8,1.46,2.14a14.09,14.09,0,0,1,.53,2.54A3.86,3.86,0,0,1,443.31,265.77Z"/><path class="aq" d="M371.18,253.19s9.47-2.41,11.4-2.31,8.33,3.21,8.33,3.21l-2.68,7.42s-5.53-1.47-6.83-1.65-7.94,1.34-7.94,1.34Z"/><path class="au" d="M371.18,253.19l2.28,8.01,4.48-.93-2.23-8.17Z"/><path class="am" d="M382.58,250.88a39,39,0,0,1,7,2.58,54.731,54.731,0,0,0,1.68-6.71s6.37-7.17,10.08-12.31c0,0-2-10-2-15.14a41.41,41.41,0,0,0-2.24,15.18l-5.05,6.77s-2.35-4-8.4-3.92c-.15.59,7.7,2.14,6.27,9.07l-1.45,5.3S385.14,251.1,382.58,250.88Z"/><rect class="av" width="52.98" height="30.69" transform="translate(371.17 265.89)"/><rect class="aw" width="26.26" height="30.69" transform="translate(424.15 265.89)"/><rect class="ax" width="23.75" height="0.75" transform="translate(425.43 270.11)"/><rect class="ax" width="23.75" height="0.75" transform="translate(425.43 273.7)"/><rect class="ax" width="23.75" height="0.75" transform="translate(425.43 277.28)"/><rect class="ax" width="23.75" height="0.75" transform="translate(425.43 280.86)"/><rect class="ax" width="23.75" height="0.75" transform="translate(425.43 284.45)"/><rect class="ax" width="23.75" height="0.75" transform="translate(425.43 288.03)"/><rect class="ax" width="23.75" height="0.75" transform="translate(425.43 291.62)"/><path class="ay" d="M424.15,265.89v30.69h26.26V265.89Zm25,29.12H425.43V267.47h23.75Z"/><path class="az" d="M443.14,277.68c0,2.81-2.62,3.14-5.86,3.14s-5.86-.34-5.86-3.14,2.62-3.13,5.86-3.13S443.14,274.88,443.14,277.68Z"/><path class="av" d="M437.28,274.55c-3.24,0-5.86.34-5.86,3.13s2.62,3.14,5.86,3.14,5.86-.33,5.86-3.14S440.52,274.55,437.28,274.55Zm0,6c-2.95,0-5.34-.31-5.34-2.86s2.39-2.85,5.34-2.85,5.34.3,5.34,2.85-2.39,2.85-5.34,2.85Z"/><path class="ba" d="M371.17,265.89v30.69h53V265.89Zm51.52,29.22H372.58V267.37h50.11Z"/><rect class="ax" width="50.12" height="0.75" transform="translate(372.58 270.11)"/><rect class="ax" width="50.12" height="0.75" transform="translate(372.58 273.7)"/><rect class="ax" width="50.12" height="0.75" transform="translate(372.58 277.28)"/><rect class="ax" width="50.12" height="0.75" transform="translate(372.58 280.86)"/><rect class="ax" width="50.12" height="0.75" transform="translate(372.58 284.45)"/><rect class="ax" width="50.12" height="0.75" transform="translate(372.58 288.03)"/><rect class="ax" width="50.12" height="0.75" transform="translate(372.58 291.62)"/><rect class="av" width="8.18" height="1.23" transform="translate(372.77 296.58)"/><rect class="av" width="8.18" height="1.23" transform="translate(414.1 296.58)"/><rect class="aw" width="8.18" height="1.23" transform="translate(425.75 296.58)"/><rect class="aw" width="8.18" height="1.23" transform="translate(440.65 296.58)"/><rect class="v" width="11.29" height="6.64" transform="translate(375.23 259.25)"/><rect class="v" width="11.47" height="2.05" transform="translate(378.2 253.43)"/><path class="g" d="M389.46,255.45H378.18l-2.95,3.86h11.28Z"/><rect class="f" width="5.81" height="6.64" transform="translate(386.46 259.25)"/><path class="bb" d="M386.46,259.31h5.82l-2.61-3.86h-.21Z"/><rect class="f" width="0.29" height="2.05" transform="translate(389.38 253.43)"/><rect class="bc" width="5.1" height="1.71" transform="translate(378.65 253.74)"/><rect class="bc" width="1.29" height="1.71" transform="translate(384.31 253.74)"/><path class="bd" d="M376,259l2.47-3.19s6.44.78,5.93,1.74S376,259,376,259Z"/><rect class="bc" width="6.89" height="5.88" transform="translate(375.79 260.01)"/><path class="f" d="M378.18,255.45s8.19.3,10.15,1.45l1.05-1.43Z"/><rect class="g" width="2.1" height="2.05" transform="translate(387.28 253.43)"/><rect class="be" width="11.29" height="6.64" transform="translate(429 259.25)"/><rect class="be" width="11.47" height="2.05" transform="translate(431.97 253.43)"/><path class="bf" d="M443.23,255.45H431.94L429,259.31h11.28Z"/><rect class="bg" width="5.81" height="6.64" transform="translate(440.23 259.25)"/><path class="bh" d="M440.23,259.31h5.82l-2.61-3.86h-.21Z"/><rect class="bg" width="0.29" height="2.05" transform="translate(443.15 253.43)"/><rect class="bi" width="5.1" height="1.71" transform="translate(432.42 253.74)"/><rect class="bi" width="1.29" height="1.71" transform="translate(438.07 253.74)"/><path class="bj" d="M429.73,259l2.46-3.19s6.44.78,5.94,1.74S429.73,259,429.73,259Z"/><rect class="bi" width="6.89" height="5.88" transform="translate(429.56 260.01)"/><path class="bg" d="M431.94,255.45s8.2.3,10.16,1.45l1-1.43Z"/><rect class="bf" width="2.1" height="2.05" transform="translate(441.04 253.43)"/><rect class="v" width="11.29" height="6.64" transform="translate(411 259.25)"/><rect class="v" width="11.47" height="2.05" transform="translate(413.97 253.43)"/><path class="g" d="M425.23,255.45H413.95L411,259.31h11.29Z"/><rect class="f" width="5.81" height="6.64" transform="translate(422.24 259.25)"/><path class="bb" d="M422.24,259.31h5.81l-2.61-3.86h-.21Z"/><rect class="f" width="0.29" height="2.05" transform="translate(425.15 253.43)"/><rect class="bc" width="5.1" height="1.71" transform="translate(414.42 253.74)"/><rect class="bc" width="1.29" height="1.71" transform="translate(420.08 253.74)"/><path class="bd" d="M411.73,259l2.47-3.19s6.44.78,5.93,1.74S411.73,259,411.73,259Z"/><rect class="bc" width="6.89" height="5.88" transform="translate(411.56 260.01)"/><path class="f" d="M414,255.45s8.19.3,10.16,1.45l1-1.43Z"/><rect class="g" width="2.1" height="2.05" transform="translate(423.05 253.43)"/><rect class="v" width="11.29" height="6.64" transform="translate(393.08 259.25)"/><rect class="v" width="11.47" height="2.05" transform="translate(396.05 253.43)"/><path class="g" d="M407.31,255.45H396.02l-2.94,3.86h11.28Z"/><rect class="f" width="5.81" height="6.64" transform="translate(404.31 259.25)"/><path class="bb" d="M404.31,259.31h5.82l-2.61-3.86h-.21Z"/><rect class="f" width="0.29" height="2.05" transform="translate(407.23 253.43)"/><rect class="bc" width="5.1" height="1.71" transform="translate(396.5 253.74)"/><rect class="bc" width="1.29" height="1.71" transform="translate(402.15 253.74)"/><path class="bd" d="M393.81,259l2.46-3.19s6.44.78,5.94,1.74S393.81,259,393.81,259Z"/><rect class="bc" width="6.89" height="5.88" transform="translate(393.64 260.01)"/><path class="f" d="M396,255.45s8.2.3,10.16,1.45l1.05-1.43Z"/><rect class="g" width="2.1" height="2.05" transform="translate(405.12 253.43)"/><path class="p" d="M463.7,250.8c-11.12,6.92-14.69,11.34-24.3,17.72l1.07,2.38c23.28-4.46,42.74-5.82,45.62-18.58C488.55,241.37,471.75,244.47,463.7,250.8Z"/><path class="q" d="M452.15,258.94l-.43.34a24,24,0,0,0,.91,5,11,11,0,0,0,.92,1.64l-9.42,2.81.89,1.35,10.76-1.91Z"/><path class="am" d="M463.7,250.8c-2.87,1.79-5.24,3.41-7.34,4.94l5.73,11.17c12.82-2.67,22.08-6.1,24-14.59C488.55,241.37,473.13,243.67,463.7,250.8Z"/><path class="aq" d="M452,257.6l6.64-4.85s1.84,6.46,2.64,8.21a59,59,0,0,0,4.55,6.45l-9.11,2.09s-2.71-4-3.37-5.4A41.3,41.3,0,0,1,452,257.6Z"/><path class="au" d="M454.21,265.72l2.46,3.78,9.11-2.09-3.39-4.55Z"/><path class="v" d="M439.4,268.52l3.91-2.75s.4,2.13.55,2.47,1.44,2.21,1.44,2.21l-4.56.89Z"/><path class="v" d="M439.63,268.41s-2.3.64-3.49,1.1-2.46,1.11-3.11,1.31-2,.35-2,.92c0,.74,1.44.66,2.69.46s1.78-.59,1.91,0a17.751,17.751,0,0,1-.33,3.32c-.13,1.12-.72,2.77.13,3s1.39-2.54,1.39-2.54-.65,2.8.34,2.83c1.19,0,1.27-2.61,1.27-2.61s-.35,2.54.56,2.58,1-2.43,1-2.43-.45,2.06.48,2.09c1.09,0,1.3-6.58,1.24-7.95S439.63,268.41,439.63,268.41Z"/><path class="f" d="M443.86,268.24l-2.75,2s.14,6.2-.55,6.43a.49.49,0,0,1-.64-.38s-.13.41-.77.42a.75.75,0,0,1-.76-.57.91.91,0,0,1-.92.49.87.87,0,0,1-.69-.71.82.82,0,0,1-1,.51c-.64-.13-.55-.57-.55-.57h0c-.19,1.08-.59,2.43.18,2.6s1.24-1.86,1.36-2.41c-.11.56-.49,2.68.37,2.7s1.13-1.29,1.22-2.06c0,.75,0,2,.61,2s.76-.63.87-1.26c0,.47.16.91.58.92,1,0,1.24-5.06,1.25-7.23l3.65-.72s-.75-1.08-1.17-1.75Z"/><path class="am" d="M461.85,204.3c-11.89,9.81,4.85,39.07,9,48.58,2.7,4,5.89,7.06,8.78,6.43,8.77-1.88,8-14.33,3-28C476,213.38,464.85,203.21,461.85,204.3Z"/><path class="ap" d="M457.13,220s14,25.2,14.81,26.38c3.9.28,7.82,2.41,7.6,3s-4.78-1.3-9.08-.44c-.56.11-10.08,6.27-10.08,6.27l.85,5.82a45.263,45.263,0,0,1-2.3-7s6.16-4.94,9.63-6.06C468.56,247.86,460.49,232.06,457.13,220Z"/><path class="ap" d="M482.66,231.35a72.361,72.361,0,0,0-8.94-17c6.24,9.84,11.19,23.34,10.54,33.87a9.461,9.461,0,0,1-.24,2.49c-1.73,7.68-9.51,11.22-20.49,13.8.5.68,1,1.32,1.38,1.83,11.34-2.59,19.41-6.12,21.18-14a9.351,9.351,0,0,0,.24-2.48C486.64,244.77,485.2,238.22,482.66,231.35Z"/><path class="ap" d="M419.3,349.98l7.56-47.72-7.08-1.64,3.59,4.25-6.04,38.6Z"/><path class="ap" d="M430.59,354.65s-.28,16.54-2,23.82c-1.51,6.55-16.09,31.9-19.23,36.81l2.24.86s19.23-29.76,20.91-37,3.11-28.67,3.11-28.67Z"/></g></g></svg>