<svg xmlns="http://www.w3.org/2000/svg" width="201.133" height="151.541" viewBox="0 0 201.133 151.541"><g transform="translate(-53.911 -71.537)"><g transform="translate(53.911 71.537)"><path d="M239.041,324.527q-26.881-.038-53.766,0c-8.963,0-17.941.1-26.929.106q-17.157-1.568-34.363-2.611-9.252-.563-18.528-.962a11.978,11.978,0,0,0-2.943-1.625,9.364,9.364,0,0,0-1.481-.442c-.481-.1-.962-.144-1.443-.207l-.928-.125a14.45,14.45,0,0,0-7.516,2.4,4.592,4.592,0,0,0-2.087,5.121,13.464,13.464,0,0,0,4.087,6.405,23.764,23.764,0,0,0,6.251,3.655c5.165,2.188,10.392,4.26,15.744,5.953a188.453,188.453,0,0,0,31.257,7.112,213.027,213.027,0,0,0,66.062-1.1c11.18-1.967,22.4-5.463,30.867-13.363C247.211,331.23,244.158,324.531,239.041,324.527Zm-13.633,7.723-.264.082.279-.087Z" transform="translate(-72.064 -199.826)" fill="#5e6178"/><g transform="translate(0.115 1.286)"><path d="M252.375,203.975a2.656,2.656,0,0,0-2.462-1.875,2.582,2.582,0,0,0-2.462,1.875c-.837,3.808-5.549,5.107-8.463,6.91a19.082,19.082,0,0,0-4.732,4.357,10.185,10.185,0,0,1-3.025,2.885c-.664.12-1.322.284-2.024.423a1.923,1.923,0,0,0-1.4.991,49.174,49.174,0,0,0-26.159,8.584,41.714,41.714,0,0,0-5.621,2.654,2.122,2.122,0,0,0-.356.289,10.9,10.9,0,0,0-2.332-.524q-3.109-.39-6.251-.668a111.83,111.83,0,0,0-13.368-.63c-7.5.178-15.066,1.558-21.779,4.963-.216-.163-.414-.317-.524-.39-.519-.341-1.048-.664-1.6-.962a31.683,31.683,0,0,0-3.881-1.765,43.069,43.069,0,0,0-15.321-2.4c-2.967,0-5.924.135-8.877.385a24.485,24.485,0,0,0-7.189,1.395,5.6,5.6,0,0,0-2.472-2.611,58.282,58.282,0,0,0-6.607-3,38.2,38.2,0,0,0-6.525-2.13,17.241,17.241,0,0,0-6.66-.481q-1.529-.284-3.078-.481a32.7,32.7,0,0,0-3.881-.226c-.692,0-1.385.029-2.073.072h-.139l-.183-.207a39.912,39.912,0,0,0-11.4-9.228,48.61,48.61,0,0,0-7-3.01c-2.116-.736-4.612-1.673-6.876-1.332a4,4,0,0,0-3.366,2.751,5.591,5.591,0,0,0,1.072,4.462,7.282,7.282,0,0,0,5.593,3.51c3.539,7.155,6.982,14.378,10.05,21.745.851,2.044,1.7,4.092,2.452,6.17a8.906,8.906,0,0,1,.6,5.924,10.582,10.582,0,0,0,.7,6.155,6.328,6.328,0,0,0,1.842,2.188c.793.615.991.726,1.616,1.294a2.886,2.886,0,0,0,.808.481c.851.678,1.707,1.346,2.577,2a46.2,46.2,0,0,0,6.049,3.611,127.013,127.013,0,0,0,13.113,6.006,123.213,123.213,0,0,0,27.155,7.276c5.217.769,10.459,1.193,15.715,1.51s10.454.64,15.686.644a124.763,124.763,0,0,0,30.992-3.9c9.367-2.4,18.586-5.953,26.207-11.964a3.438,3.438,0,0,0,2.606-.827,9.617,9.617,0,0,0,3.284-6.391,9.016,9.016,0,0,0,.038-1.193c0-.2.029-.4.048-.6.072-.928.163-1.851.245-2.775a1.726,1.726,0,0,0-.192-.962l.048-.063a140.416,140.416,0,0,0,8.271-13.046,138.931,138.931,0,0,0,6.732-14.147,31.738,31.738,0,0,1,3.058-6.088,17.044,17.044,0,0,1,4.833-4.328,18.869,18.869,0,0,0,5.794-5.424A8.923,8.923,0,0,0,252.375,203.975Zm-172.431,51.1q.058-.423.072-.519a1.563,1.563,0,0,1-.072.529Zm89.543-5.217h-.082a3.006,3.006,0,0,0-.346.034C168.7,249.913,168.472,249.855,169.487,249.855Zm35.281-7.41.034-.029h.058l-.053.038Zm-17.648-.962a5.125,5.125,0,0,0-.577.154,2.067,2.067,0,0,1,.6-.163Zm-84.205,14.979-.736-.279h1.048c.87.37,1.746.736,2.63,1.063.327.12.664.216,1,.327l-.375.115C105.281,257.3,104.089,256.9,102.915,256.462ZM215.819,247.874Zm-.024-.178a.337.337,0,0,1,.087.087.414.414,0,0,0-.087-.087Zm-41.4-10.454c.4,0,.8-.048,1.2-.063,1.851-.063,3.7-.077,5.549-.067-2.25.091-4.5.144-6.751.13Zm-94.347,16.33a5.109,5.109,0,0,1-.029.664v.308a1.026,1.026,0,0,0-.038.216l-.043.26a1.851,1.851,0,0,1-.034-.409,9.975,9.975,0,0,1,.067-1.255A.69.69,0,0,1,80.045,253.572ZM233.51,222.8a3.888,3.888,0,0,0,0-.529c.125-.067.245-.144.37-.216-.125.226-.245.471-.365.721ZM86.72,227.764c-.356.067-.712.115-1.063.2l-.822.192-.361-.481C85.229,227.7,85.979,227.726,86.72,227.764ZM65.427,215.54a5.617,5.617,0,0,0-.317.51l-.591-.914Q64.975,215.329,65.427,215.54Zm-6.925-2.4-.043.072c.019.25-.644-.5.043-.053Zm.072.063H58.6Z" transform="translate(-54.15 -140.602)" fill="#aed3f2"/><g transform="translate(15.107 83.788)"><path d="M181.858,268.73a1.649,1.649,0,0,0-.332-2.573,11.158,11.158,0,0,0-4.53-.918c-1.572-.115-3.3-.149-4.943-.207a87.606,87.606,0,0,1-9.137-.832c-6.309-.885-12.594-2-18.884-3.005-12.219-1.948-24.173-5.155-36.277-7.694-1.683-.356-3.366-.539-5.049-.842s-3.438-.962-5.155-1.385-3.481-.731-5.213-1.159-3.4-1.034-5.088-1.587-2.4,2.1-.745,2.7c3.063,1.106,6.064,2.294,9.079,3.53,1.346.553,2.746.991,4.126,1.443,1.568.519,2.991,1.255,4.535,1.823a132.512,132.512,0,0,0,18.225,5.054c6.174,1.318,12.4,2.26,18.619,3.366,6.333,1.111,12.666,2.308,19.038,3.222a109.94,109.94,0,0,0,11.161,1.135C174.621,270.942,179.242,271.048,181.858,268.73Z" transform="translate(-85.567 -248.453)" fill="#6595bf"/><path d="M340.854,250.177c-.625.534-1.274,1.024-1.923,1.491a4.808,4.808,0,0,0-.789-.048,15.45,15.45,0,0,0-2.712.529c-1.621.385-3.246.808-4.842,1.274-3.284.962-6.559,1.952-9.834,2.938-3.2.962-6.362,2.034-9.54,3.058-2.034.649-4.52,1.13-6.107,2.621-.447.144-.894.284-1.332.442-1.111.4-2.169.88-3.236,1.38a17.1,17.1,0,0,1-3.929,1.164l-2.529.548c-3.212.144-6.429.178-9.617.236-2.779.048-2.789,4.328,0,4.328,8.136,0,16.225-.183,24.231-1.726a2.9,2.9,0,0,0-1.842,2.246,8.445,8.445,0,0,0-1.356,1.361.029.029,0,0,0,0,.043c.236.13.481.24.7.341-1.443.846-2.885,1.741-4.275,2.736-2.481,1.8-4.948,3.775-5,7.127-.043,3.015,2.356,5.059,5.078,5.554a3.434,3.434,0,0,0,.3.76q-12.089,3.231-24.366,5.737c-4.857.962-9.723,1.923-14.609,2.755-1.544.264-1.2,2.885.375,2.755q13.633-1.3,27.116-3.736a235.379,235.379,0,0,0,26.049-5.919c4.232-1.27,8.2-3.034,10.714-6.833a2.938,2.938,0,0,0-.106-3.332,14.562,14.562,0,0,0,2.953-3.5,4.112,4.112,0,0,0,.481-2.707c.13-.3.26-.6.385-.894,0-.029.038-.053.053-.082.707-1.164,1.38-2.356,2.034-3.554s1.212-2.265,1.789-3.409c.616-1.217,1.361-2.356,1.948-3.583a5.33,5.33,0,0,0,.313-.8c.423-.452.846-.909,1.25-1.38.5-.6.991-1.217,1.467-1.837a17.737,17.737,0,0,0,1.621-2.1,2.63,2.63,0,0,0,.308-1.265,1.342,1.342,0,0,0,.351-1.2c.356-.293.7-.587,1.043-.894C345.268,251.192,342.652,248.638,340.854,250.177Zm-31.516,18.114h0a106.293,106.293,0,0,0,11.637-3.328c.789-.255,1.577-.481,2.366-.75-.88.842-1.779,1.654-2.683,2.467a54.815,54.815,0,0,0-8.29,2.678A3.1,3.1,0,0,0,309.337,268.291Z" transform="translate(-177.332 -249.101)" fill="#6595bf"/><path d="M174.413,326.01c-5.059-1.212-10.214-1.924-15.34-2.818-5.025-.87-10.007-2.029-14.974-3.207-2.265-.539-4.535-1.058-6.8-1.6-2.077-.481-4.193-.716-6.251-1.26a39.744,39.744,0,0,1-11.921-4.919c-1.1-.726-2.4.962-1.409,1.827a31.521,31.521,0,0,0,11.493,6.578,56.676,56.676,0,0,0,6.1,1.851c2.318.481,4.688.774,7.035,1.111,5.155.736,10.329,1.443,15.426,2.505,5.256,1.082,10.478,2.342,15.787,3.087C175.571,329.458,176.528,326.515,174.413,326.01Z" transform="translate(-102.074 -281.459)" fill="#6595bf"/></g><g transform="translate(7.229 69.976)"><path d="M87.508,230.712c-2.3-2.073-5.193-3.486-7.877-4.991l-8.329-4.66A1.42,1.42,0,0,0,69.86,223.5l8.242,4.809c2.654,1.553,5.352,3.337,8.3,4.265A1.128,1.128,0,0,0,87.508,230.712Z" transform="translate(-69.183 -220.32)" fill="#fafae9"/><path d="M145.525,253.445c-5.006-2.515-11.339-2.683-16.83-2.6-2.4.038-2.376,3.568,0,3.732a58.9,58.9,0,0,1,7.872,1.053,75.916,75.916,0,0,0,7.949,1.515C146.478,257.326,147.232,254.3,145.525,253.445Z" transform="translate(-99.147 -235.874)" fill="#fafae9"/><path d="M205.112,265.476c1.52-.072,3.044-.168,4.563-.327a1.306,1.306,0,0,0,0-2.611c-3.068-.168-6.126-.12-9.189-.024a36.023,36.023,0,0,0-13.407.159,1.164,1.164,0,0,0-.577.279,1.673,1.673,0,0,0,.827,3.058c5.415.317,10.9.481,16.326.481A1.515,1.515,0,0,0,205.112,265.476Z" transform="translate(-129.703 -241.653)" fill="#fafae9"/><path d="M294.966,267.022a58.07,58.07,0,0,0-25.553,2.63,1.44,1.44,0,0,0,.765,2.775,84.924,84.924,0,0,1,24.4-2.558C296.168,269.9,296.616,267.253,294.966,267.022Z" transform="translate(-172.605 -244.041)" fill="#fafae9"/><path d="M384.815,243.588a52.584,52.584,0,0,0-21.129,8.026,1.46,1.46,0,0,0,1.471,2.52,73.093,73.093,0,0,1,20.509-7.473C387.719,246.266,386.81,243.295,384.815,243.588Z" transform="translate(-221.71 -232.104)" fill="#fafae9"/><path d="M439.1,220.191a15.628,15.628,0,0,1-5.29,3.477c-1.923.7-1.12,3.8.856,3.116a14.05,14.05,0,0,0,6.607-4.4C442.469,220.845,440.618,218.8,439.1,220.191Z" transform="translate(-257.903 -219.729)" fill="#fafae9"/><path d="M355.146,334.542a54.575,54.575,0,0,0-8.579,3.6c-1.356.774-.385,2.63,1.01,2.4a52.213,52.213,0,0,0,8.521-2.529C358.262,337.234,357.32,333.738,355.146,334.542Z" transform="translate(-212.843 -279.27)" fill="#fafae9"/><path d="M298.037,348.619c-5.626,1.077-11.228,2.2-16.83,3.453-2.428.548-1.39,4.188,1.024,3.712,5.617-1.111,11.19-2.342,16.763-3.635C301.321,351.615,300.326,348.187,298.037,348.619Z" transform="translate(-178.532 -286.62)" fill="#fafae9"/><path d="M222.295,354.936c-5.2-.6-10.579-1.048-15.768-.125-1.962.346-1.3,3.116.442,3.265,5.1.438,10.223.26,15.325.779a1.967,1.967,0,0,0,1.962-1.962A2,2,0,0,0,222.295,354.936Z" transform="translate(-139.861 -289.581)" fill="#fafae9"/><path d="M162.42,340.08a34.592,34.592,0,0,0-7.891-2.4c-1.794-.221-2.169,2.366-.866,3.188,2.327,1.443,5.121,2.145,7.694,3.034C163.786,344.711,164.781,340.941,162.42,340.08Z" transform="translate(-112.637 -280.952)" fill="#fafae9"/><path d="M115,320.339c-2.981-1.3-5.443-3.28-8.175-5.006-1.414-.9-3.366.938-2.371,2.371,2.183,3.092,5.53,4.929,8.963,6.347C115.54,324.912,117.108,321.243,115,320.339Z" transform="translate(-87.353 -269.236)" fill="#fafae9"/></g><g transform="translate(4.507 41.104)"><path d="M67.388,203.924a1.212,1.212,0,0,0-1.577.827c-.341-.063-.683-.13-1.034-.173-1.481-.173-1.717,2.164-.346,2.544a15.5,15.5,0,0,1,4.467,2.121c1.269.851,2.828-.813,2.063-2.063A7.665,7.665,0,0,0,67.388,203.924Z" transform="translate(-63.523 -182.616)" fill="#a66d58"/><path d="M182.146,235.736a110.356,110.356,0,0,1-17.552-4.852,72.88,72.88,0,0,0-8.415-2.693c-2.885-.7-5.852-1.231-8.766-1.923-5.487-1.25-10.526-3.491-15.749-5.516a33.92,33.92,0,0,0-16.768-2.481c-3.251.414-6.463,1.164-9.757,1.034a84.416,84.416,0,0,1-10.411-1.385,1.6,1.6,0,0,0-.851,3.092q1.125.37,2.25.7a2.241,2.241,0,0,0,1.116,2.4c4.328,2.712,8.516,5.953,13.686,6.732,4.914.716,9.93,0,14.7,1.611a17.792,17.792,0,0,1,3,1.3c1.087.6,2.049,1.4,3.14,1.981,2.476,1.308,5.145.611,7.781.423a91.289,91.289,0,0,1,16.244.688c5.011.539,9.959,1,14.133,4.087a2.06,2.06,0,0,0,2.1,0,24.236,24.236,0,0,1,5.155-1.63l3.847.543a2.134,2.134,0,0,0,1.125-4.116Z" transform="translate(-78.689 -189.903)" fill="#a66d58"/><path d="M375.465,168.273c-1.678-1.27-3.491-2.4-5.242-3.573s-3.491-2.5-5.338-3.549a8.811,8.811,0,0,0-6.189-1.313,5.367,5.367,0,0,0-3.275,2.318,9.175,9.175,0,0,0-8.348-1.313,1.784,1.784,0,0,0-1.779-.385c-.168.067-.327.139-.481.212h-.029a5.819,5.819,0,0,0-3,2.852,5.16,5.16,0,0,0-.837,2.1,24.523,24.523,0,0,0-3.087,8.766c-.76,4.135-1.188,8.689-3.534,12.3a10.18,10.18,0,0,1-4.732,3.693,47.4,47.4,0,0,1-8.136,2.51c-2.885.644-5.843.861-8.555,2.082a15.817,15.817,0,0,0-3.433,2.366c-.212.168-.438.361-.678.524-.885-.077-1.77-.125-2.654-.192a2.606,2.606,0,0,0-2.486,1.895v.135a47.309,47.309,0,0,0-10.42,4.65,1.474,1.474,0,0,0,1.486,2.544c.678-.37,1.37-.717,2.073-1.053a1.6,1.6,0,0,0,1.957.846q1.14-.375,2.3-.649a2.885,2.885,0,0,0,1.4.481c.731.058,1.476.029,2.207.029,1.481,0,2.962-.053,4.443-.053a20.62,20.62,0,0,1,8.04,1.14,2.737,2.737,0,0,0,3.462-.76,1.635,1.635,0,0,0,.688-.332,20.021,20.021,0,0,1,3.5-1.962,28.277,28.277,0,0,1,3.611-1.5c2.885-1.01,5.77-1.991,8.689-2.885q5.742-1.765,11.541-3.241a1.966,1.966,0,0,0,.654.341,3.527,3.527,0,0,0,3.683-.923,3.036,3.036,0,0,0,.337-.539c.664-.149,1.322-.308,1.986-.452a2.808,2.808,0,0,0,2-1.948,84.075,84.075,0,0,0,8.117-7.242,13.839,13.839,0,0,0,3.3-2.241c1.558-1.5,2.909-3.256,4.328-4.886,1.351-1.553,3.159-3.15,4.15-4.967C378.35,171.86,377.316,169.667,375.465,168.273Z" transform="translate(-182.407 -159.688)" fill="#a66d58"/></g><g transform="translate(37.439 42.982)"><path d="M340.336,233.022a19.861,19.861,0,0,0-8.728,1.313,7.806,7.806,0,0,0-3.414,1.784,12.687,12.687,0,0,0-1.7,3.775c-.394,1,1.169,1.582,1.693.712s1.154-2.5,2.068-3.121a11.594,11.594,0,0,1,3.366-1.164c2.3-.63,4.664-.962,6.973-1.548C341.61,234.513,341.269,233.133,340.336,233.022Z" transform="translate(-232.937 -199.59)" fill="#bf9687"/><path d="M392.794,169.2a5.613,5.613,0,0,1,.625-.64,1.25,1.25,0,0,1,.154-.125,9.014,9.014,0,0,0,.6,1.072c1.38,2.3,4.472,2.486,5.5,5.092a5.674,5.674,0,0,1,.077,3.972,8.751,8.751,0,0,1-2.438,3.212c-.515.515,0,1.616.765,1.308,2.885-1.154,4.328-4.732,3.919-7.665a9.233,9.233,0,0,0-2.188-4.674c-1.125-1.284-2.65-1.923-3.448-3.457-.741-1.443-1.976-2.5-3.664-1.774a7.288,7.288,0,0,0-3.2,3.6c-1.645,3.472-1.765,7.588-2.289,11.334-.178,1.26,1.678,1.861,1.972.543.635-2.856,1.159-5.77,2.039-8.559A9.454,9.454,0,0,1,392.794,169.2Z" transform="translate(-264.477 -164.472)" fill="#bf9687"/><path d="M425.513,169.512c-2.38-3.063-6.833-6.088-10.868-5.91-1.2.048-1.923,1.875-.668,2.452a56.984,56.984,0,0,1,5.977,2.64,12.573,12.573,0,0,1,4.7,4.563c1.337,2.457-1.3,3.943-3.126,4.991a51.6,51.6,0,0,1-6.79,3.174c-4.328,1.712-8.728,3.207-12.984,5.068-3.8,1.654-7.723,3.573-9.819,7.343a.834.834,0,0,0,1.443.837c2.034-3.217,5.847-4.847,9.218-6.3,3.77-1.625,7.646-3,11.425-4.607,1.88-.8,3.746-1.64,5.564-2.573a32.668,32.668,0,0,0,5.112-2.909C427.648,176.008,427.734,172.359,425.513,169.512Z" transform="translate(-266.886 -163.594)" fill="#bf9687"/><path d="M426.208,169.35a6.434,6.434,0,0,0,1.029-2.443,1.534,1.534,0,0,0-2.953-.817,6.467,6.467,0,0,0-.322,2.669A1.346,1.346,0,0,0,426.208,169.35Z" transform="translate(-283.556 -164.346)" fill="#bf9687"/><path d="M140.9,221.933c-2.678-.616-6,.043-7.8,2.255a4.328,4.328,0,0,0,.64,6.348c1.034.789,2.4-.962,1.4-1.813-1.322-1.135-.534-2.847.736-3.65,1.491-.938,3.366-.793,5.025-1.289A.967.967,0,0,0,140.9,221.933Z" transform="translate(-132.007 -193.766)" fill="#bf9687"/><path d="M194.808,233.335c-4.227-1.443-8.56-2.549-12.772-4.039-2.082-.736-4.145-1.515-6.2-2.313a12.8,12.8,0,0,0-5.871-1.173c-1.039.1-1.058,1.731,0,1.64a12.6,12.6,0,0,1,5.833,1.346c2.063.832,4.14,1.625,6.251,2.347,4.044,1.385,8.175,2.746,12.339,3.751a.808.808,0,0,0,.423-1.558Z" transform="translate(-151.302 -195.872)" fill="#bf9687"/><path d="M238.725,248.743a6.828,6.828,0,0,1-2.2-.3,4.626,4.626,0,0,1-1.736-1.342,7.837,7.837,0,0,0-2.553-2.231,10.254,10.254,0,0,0-3.265-.481l-4.765-.3c-.856-.058-.817,1.207,0,1.3l4.765.572a5.4,5.4,0,0,1,3.8,1.544,6.39,6.39,0,0,0,6.069,2.092.442.442,0,0,0-.115-.856Z" transform="translate(-179.542 -205.38)" fill="#bf9687"/></g><g transform="translate(41.971 47.951)"><path d="M435.054,178.5A4.39,4.39,0,0,0,432,177.006a6.465,6.465,0,0,0-3.005-1.6,39.648,39.648,0,0,0-3.876-1.337,3.3,3.3,0,0,0-3.14.668,2.505,2.505,0,0,0-.442,3.044c.933,1.544,4.612,2.577,3.28,5.02a1.392,1.392,0,0,0,2.4,1.4c.029-.038.048-.077.077-.115a1.25,1.25,0,0,0,.212-.077,3.6,3.6,0,0,0,.64-.24,1.822,1.822,0,0,0,1.313-.293h.077a14.177,14.177,0,0,0,1.866-.577,29.976,29.976,0,0,0,3.3-1.625,1.784,1.784,0,0,0,.351-2.779Z" transform="translate(-286.673 -173.928)" fill="#7d5242"/><path d="M162.051,232.368a33.854,33.854,0,0,0-8.449-2.674,3.52,3.52,0,0,0-.673-.5,32.624,32.624,0,0,0-4.4-1.842,1.443,1.443,0,0,0-1.443.226,5.563,5.563,0,0,0-.962-.26,4.03,4.03,0,0,0-4.3,2.068c-1.741,3.328,2.707,6.843,5.347,4.025a1.789,1.789,0,0,0,.515-1.322,6.732,6.732,0,0,0,1.077.481,16.625,16.625,0,0,0,2.885.625c.038.053.077.111.115.154a3.8,3.8,0,0,0,1.678,1.135,18.164,18.164,0,0,0,2.544.558,1.842,1.842,0,0,0,.5,2.645c.188.135.385.236.577.351a2.746,2.746,0,0,0,1.149,3.366c1.957,1.193,3.6-.481,5.448-.928a12.205,12.205,0,0,1,3.366-.082c1.111.058,2.212.038,3.323.1a1.313,1.313,0,0,0,.918-2.217A40.1,40.1,0,0,0,162.051,232.368Zm4.328,5.617.135.082-.149-.029Z" transform="translate(-141.432 -201.606)" fill="#7d5242"/><path d="M316.384,245.63c-1.043.034-1.467,1.01-2.073,1.717a21.69,21.69,0,0,1-1.837,1.866c-.837.755.293,2.275,1.226,1.587a23.877,23.877,0,0,0,2.222-1.842c.75-.712,1.707-1.414,1.481-2.553A1.063,1.063,0,0,0,316.384,245.63Z" transform="translate(-230.073 -211.151)" fill="#7d5242"/><path d="M385.3,223.016a1.092,1.092,0,0,0-1.885-1.1,4.092,4.092,0,0,0-.563,1.669,1.048,1.048,0,0,0-.591.721,7.38,7.38,0,0,0,.25,2.525,12.2,12.2,0,0,1,.038,2.582,1.015,1.015,0,0,0,.914,1.082,2.068,2.068,0,0,0,3.486-1.505,9.535,9.535,0,0,0-.817-3.193C385.785,225.079,384.934,223.829,385.3,223.016Z" transform="translate(-266.425 -198.558)" fill="#7d5242"/></g><g transform="translate(5.209)"><path d="M146.45,151.33h0l.063.043Z" transform="translate(-107.275 -114.246)" fill="#ebd780"/><path d="M249.756,93.912v-.534a2.563,2.563,0,0,0,.543-.914,2.717,2.717,0,0,0,.308-1.366l-.13-.962a3.544,3.544,0,0,0-.909-1.563l-.707-.519a3.525,3.525,0,0,0-1.784-.481,3.419,3.419,0,0,0-3.236,2.178,2.275,2.275,0,0,0-.144.394l-.183.1a21.5,21.5,0,0,0-2.217,1.606,36.108,36.108,0,0,0-2.991,2.828,6.141,6.141,0,0,0-3.91-.029c-1.135.356-2.246.918-3.366,1.37q-3.722,1.529-7.425,3.111a143.053,143.053,0,0,0-13.022,6.251c-2.053,1.14-4.039,2.366-5.992,3.645a26.159,26.159,0,0,0-.25-8.944,49.6,49.6,0,0,0-2.674-7.857,25.248,25.248,0,0,0-4.53-8.007c-2.462-2.63-5.612-3.794-8.968-4.809-.077-.024-.688-.221-.808-.245l-.8-.337c.481.25.457.255-.043,0a16.4,16.4,0,0,1-1.861-.986c-.524-.313-1.039-.654-1.534-1.019-.087-.082-.365-.313-.447-.385-.37-.327-.721-.664-1.072-1.01a4.419,4.419,0,0,0-5.015-.76,3.914,3.914,0,0,0-2.14-.346c-1.678.226-3.5,1.847-3.28,3.717a21.19,21.19,0,0,1,.154,2.207c0,.274,0,.553,0,.827a4.76,4.76,0,0,1-.587,1.207,20.718,20.718,0,0,1-3.082,3.607,44.005,44.005,0,0,0-6.79,9.4c-1.823,3.28-3.563,6.588-5.636,9.723l-.135.2c-1.318-2.164-2.63-4.328-4.006-6.463-.779-1.207-1.572-2.4-2.327-3.621-.183-.293-.351-.6-.529-.894l-.063-.111c-.034-.125-.077-.293-.115-.423v-.64a7.694,7.694,0,0,0-2.015-5.52c-.774-.832-1.741-1.5-2.563-2.289a17.207,17.207,0,0,1-1.265-1.318l-.481-.6c-.024-.038-.231-.341-.308-.481a6.732,6.732,0,0,1-1-3.063,2.654,2.654,0,0,0-1.572-1.923,3.2,3.2,0,0,0-.7-1.058,3.366,3.366,0,0,0-4.674,0,55.174,55.174,0,0,0-6.184,6.785,3.136,3.136,0,0,0-.481.442c-7.381,8.829-12.291,19.889-15.143,30.973v.106q-1.621-.894-3.275-1.746c-.962-.481-1.923-.962-2.885-1.414-.1-.043-.716-.3-1.111-.515V111.4c-.024-.029-.111-.106-.212-.2-.115-.37-.216-.75-.308-1.13a27.315,27.315,0,0,0-.741-2.837,19.917,19.917,0,0,0-4.208-6.54,29.591,29.591,0,0,0-2.366-2.6,39.477,39.477,0,0,1-2.924-2.755L90.756,92.2c-1.13-1.226-2.284-2.64-3.943-3.15A3.51,3.51,0,0,0,82.644,90.4a4.054,4.054,0,0,0-.481,1.217,2.76,2.76,0,0,0-1.029.337,2.664,2.664,0,0,0-1.313,2.183l-.1.149c-.12.077-.245.154-.365.221-.745.442-1.553.793-2.27,1.289A9.786,9.786,0,0,0,74.4,98.614a7.871,7.871,0,0,0-.567,1.048c.034-.082-.4.817-.481,1.034l-.125.207c-.034.058-.139.2-.216.313a.236.236,0,0,1-.038.048c-.25.269-.481.543-.741.813a19.634,19.634,0,0,0-2.077,2.6,8.29,8.29,0,0,0-1.169,2.914,14.8,14.8,0,0,0-.226,2.058v.433c-.25.274-.481.543-.741.837a12.59,12.59,0,0,0-1.875,3.1,14.59,14.59,0,0,0-1.149,6.179,41.08,41.08,0,0,0,2.433,11A24.447,24.447,0,0,0,73.089,141.2,3.753,3.753,0,0,0,76.3,143.35a4.054,4.054,0,0,0,1.625.12c2.558.149,5.078.058,7.694-.024,3.106-.106,6.251.12,9.367.159s6.218.087,9.329.149l4.328.087c.822,0,1.64.038,2.457.087.327,0,.654.038.962.063.077,0,.813.12.933.125a82.717,82.717,0,0,1,8.257,2.275l9.093,2.794c5.992,1.842,11.983,3.688,17.956,5.6q4.948,1.577,9.877,3.217c3.414,1.14,6.824,2.6,10.319,3.453a5.4,5.4,0,0,0,4.708-1.039c2.659-.3,5.693-2.428,7.55-3.655l4.645-3.068c.418-.274.837-.539,1.26-.808a5.867,5.867,0,0,0,4.539-.567,4.035,4.035,0,0,0,1.443-1.327,3.164,3.164,0,0,0,1.063-.774,5.3,5.3,0,0,1,3.366-1.245,28.43,28.43,0,0,0,6.16-1.419c1.774-.635,3.659-.827,5.429-1.443a19.466,19.466,0,0,0,3-1.346c.37-.216.726-.447,1.072-.7a5.955,5.955,0,0,0,2.188-2.962,14.833,14.833,0,0,0,.822-1.3,20.769,20.769,0,0,0,1.313-3.179q.866-2.534,1.789-5.035,1.976-5.352,4.006-10.68c.289-.755.587-1.505.88-2.255-.433,1.1.029-.048.111-.216.154-.332.317-.659.481-.962s.356-.635.553-.962.875-.962.1-.183c.2-.212.39-.433.6-.635l.077-.063.053-.034a.909.909,0,0,0,.337-.192l.264-.053h1.447l.231.043a36.281,36.281,0,0,1,5.564,1.414,4.838,4.838,0,0,0,5.092-1.707,2.809,2.809,0,0,0,.712-.279c.216-.13.409-.289.615-.438a4.109,4.109,0,0,0,4.241-.12,4.189,4.189,0,0,0,1.923-3.991,4,4,0,0,0-.51-1.476,14.061,14.061,0,0,0,1-4.2v-.481c.481-.414.962-.962,1.087-1.063a20.066,20.066,0,0,0,3.179-4.1A3.7,3.7,0,0,0,249.756,93.912ZM68.949,109.78C69.1,109.535,69.189,109.5,68.949,109.78ZM123.1,135.747l.481.365-.63-.192Zm72.419,5.15c.077.144.163.289.255.428l-.721.226a7.8,7.8,0,0,0,.476-.635Zm-47.409-46.87C148.047,93.9,148.062,93.9,148.115,94.027Zm-43.855,17.335h-.038a.365.365,0,0,1,.1.438,2.106,2.106,0,0,0-.163-.481.313.313,0,0,1-.115-.111l.106.087v-.029Z" transform="translate(-64.983 -74.211)" fill="#ebd780"/></g><g transform="translate(11.943 3.14)"><path d="M93.111,128.471l.1.063a4.839,4.839,0,0,0-1.274,2.779,1.13,1.13,0,0,0,1.678.962c.991-.481,1.443-1.491,2.125-2.327a6.448,6.448,0,0,1,.611-.644,2.173,2.173,0,0,0,.962-.62,3.4,3.4,0,0,0,.433-.611l.188-.168a38.724,38.724,0,0,1,4.751-4.16,1.77,1.77,0,0,0,.64-2.149,2.262,2.262,0,0,0-.063-.3,6.8,6.8,0,0,0-.89-1.842l-.9-1.313a2.708,2.708,0,1,0-4.669,2.746l.962,1.37c.13.173.264.341.39.519q-.856.678-1.649,1.443c-.678-.688-1.443-1.3-2.034-1.8a2.851,2.851,0,0,0-3.962,0,2.82,2.82,0,0,0,0,3.962C91.375,127.062,92.2,127.846,93.111,128.471Z" transform="translate(-84.545 -99.455)" fill="#d9a171"/><path d="M102.662,170.823c-.087-3.207-.962-6.448-3.073-8.588a6.025,6.025,0,0,0-7.492-.923c-2.044,1.308-2.462,3.563-2.4,5.77a3.982,3.982,0,0,0-.76,1.039,34.625,34.625,0,0,1-.962-3.611,32.544,32.544,0,0,1,.043-14.075,1.885,1.885,0,0,0-2.164-2.4,1.616,1.616,0,0,0-.452-.39,4.722,4.722,0,0,0-2.183-.606h-.034a1.681,1.681,0,0,1-.37-.072,6.735,6.735,0,0,1-.866-.279,2.332,2.332,0,1,0-1.26,4.491,7.752,7.752,0,0,0,2.693.375,31.444,31.444,0,0,0-1.577,13.8c.077.64.168,1.279.269,1.923a6.117,6.117,0,0,0-.428,4.511,6.8,6.8,0,0,0,1.322,2.428,5.235,5.235,0,0,0,.63.635,2.568,2.568,0,0,0,.327,1.173,2.327,2.327,0,0,0,1.558,1.116c.058.111.111.231.173.341.7,1.245,1.765,3.005,3.121,3.578,1.842.774,4.179-.067,4.208-2.342a3.154,3.154,0,0,0,2.116.481,4.621,4.621,0,0,0,2.25-.058,3.775,3.775,0,0,0,1.592,0,3.278,3.278,0,0,0,.582.4c1.808.962,4.5.572,5.492-1.443.226-.452.447-.909.673-1.361A3.984,3.984,0,0,0,102.662,170.823Z" transform="translate(-78.987 -114.917)" fill="#d9a171"/><path d="M175.647,147.989a2.674,2.674,0,0,0,5.208,1.1c1.106-2.789-.808-5.694-3.029-7.247-.846-.591-1.765-1.077-2.645-1.616a5.929,5.929,0,0,1-1.972-1.558c.226.274-.106-.274-.2-.414a1.443,1.443,0,0,0,.664-1.572,2.481,2.481,0,0,0-.885-1.274c.024-.726.067-1.443.091-2.183a21.674,21.674,0,0,1,.793-5.088c.25-.808.481-1.621.755-2.428a3.052,3.052,0,0,0-5.886-1.621,38.805,38.805,0,0,0-1.683,5.578c-.962,3.073-1.923,6.136-2.746,9.233a3.029,3.029,0,0,0,2.077,3.664,4.386,4.386,0,0,0,1.789.135,11.06,11.06,0,0,0,3.3,2.77c.9.51,1.847.933,2.755,1.443.452.245.861.567,1.308.808A.577.577,0,0,1,175.647,147.989Zm.034-.332c0,.111-.024.207-.034.313A1.548,1.548,0,0,1,175.68,147.657Z" transform="translate(-123.129 -102.075)" fill="#d9a171"/><path d="M185.73,112.942a11.089,11.089,0,0,0,2.25-.284,1.923,1.923,0,0,0,1.414-1.856,1.967,1.967,0,0,0-1.414-1.856,11.43,11.43,0,0,0-2.25-.279,2.14,2.14,0,1,0,0,4.275Z" transform="translate(-133.237 -95.237)" fill="#d9a171"/><path d="M195.014,101.082l.765.572.481.192a1.5,1.5,0,0,0,.769.038,1.024,1.024,0,0,0,.481-.135,1.443,1.443,0,0,0,.615-.394,2.3,2.3,0,0,0,.481-.851,1.442,1.442,0,0,0,.034-.769,1.4,1.4,0,0,0-.226-.712l-.572-.769a2.077,2.077,0,0,0-.745-.741,2.034,2.034,0,0,0-1.039-.284A2.068,2.068,0,0,0,193.99,99.3a2.044,2.044,0,0,0,1.024,1.784Z" transform="translate(-138.688 -89.3)" fill="#d9a171"/><path d="M202.072,112.657a3.9,3.9,0,0,0-1.125,1.712,2.818,2.818,0,0,0,.962,2.928,2.789,2.789,0,0,0,3.1.207,5.165,5.165,0,0,0,1.351-1.443c.361-.481.587-1.053.933-1.558a2.5,2.5,0,0,0-3.919-3.025c-.091.091-.351.308-.188.207-.043.029-.087.053-.13.087A7.171,7.171,0,0,0,202.072,112.657Z" transform="translate(-142.25 -96.327)" fill="#d9a171"/><path d="M243.31,130.875q3.607-.159,7.213-.154c2.462,0,5.02.337,7.468.125a4.019,4.019,0,0,0,3.9-3.443,3.941,3.941,0,0,0-2.842-4.352c-.37-.077-.75-.125-1.125-.178.024-.034.053-.063.077-.1a22.764,22.764,0,0,0,3.323-9.329,2.511,2.511,0,0,0,.481.038,6.554,6.554,0,0,0,2.116-.284,2.933,2.933,0,0,0,1.4-.962,2.553,2.553,0,0,0,.582-1.64,3.15,3.15,0,0,0-.37-1.366,2.813,2.813,0,0,0-1.616-1.245,6.559,6.559,0,0,0-2.116-.289,2.13,2.13,0,0,0-.385.038,34.8,34.8,0,0,0-.51-3.683c-.043-.236-.115-.481-.168-.7a2.02,2.02,0,0,0,.779-.755,2.063,2.063,0,0,0,0-2.111,3.419,3.419,0,0,0-1.236-1.236l-.784-.418a2.928,2.928,0,0,0-.423-.178c-.1-.231-.2-.481-.293-.692l-.822-2h0c.063-.063.125-.125.192-.183.168-.091.346-.236.51-.322.072-.038.409-.178.063-.048-.481.183.38-.154.289-.12a2.289,2.289,0,0,0,.683-.39c.029,0,.745-.567.115-.1a2.318,2.318,0,0,0,1.077-2.25,2.226,2.226,0,0,0-1.621-1.875,4.063,4.063,0,0,0-1.784-.038,5.967,5.967,0,0,0-1.245.515,5.872,5.872,0,0,0-.567.356,14.993,14.993,0,0,0-3.881-3.707,46.01,46.01,0,0,0-5.429-3.179l-.548-.289a2.539,2.539,0,0,0,.245-1.048,2.5,2.5,0,0,0-.351-1.294,1.442,1.442,0,0,0-.389-.529,4.565,4.565,0,0,0-.481-.375H244.8a2.558,2.558,0,0,0-2.587,0c-.365.279-.716.563-1.072.851a2,2,0,0,0-.548.846,1.923,1.923,0,0,0-.192.606c-.077.053-.154.1-.226.159A1.443,1.443,0,0,0,239.79,85c.558,1.813,3.087,2.188,4.592,3.044s3.02,2.039,4.53,3.049a9.175,9.175,0,0,1,3.424,3.424,28.9,28.9,0,0,1,2.029,5.145c1.972,6.674,3.193,14.532.1,21.067a2.082,2.082,0,0,0,0,1.923L252,122.619c-2.241,0-4.482.038-6.732.144-4.328.2-8.632.563-12.935.991s-8.906.673-13.171,1.8c-4.025,1.058-7.521,3.366-11.214,5.179a71.829,71.829,0,0,1-13.325,4.645,2,2,0,0,0-1.236.894,2.087,2.087,0,0,0-1.082-.029,10.733,10.733,0,0,1-3.308.428,2.521,2.521,0,1,0,1.269,4.7,10.714,10.714,0,0,1,3.111-1.236,2.029,2.029,0,0,0,1.039-.668,2.106,2.106,0,0,0,1.361.082c3.924-.962,7.886-1.923,11.762-3.1s7.492-2.981,11.483-3.621c3.712-.6,7.747-.692,11.57-1.034C234.846,131.395,239.073,131.058,243.31,130.875Zm14.854-35.1h0C258.351,95.565,258.265,95.666,258.164,95.772Z" transform="translate(-134.79 -80.74)" fill="#d9a171"/><path d="M292.994,198.207a51.076,51.076,0,0,0,2.51-4.578,2.558,2.558,0,0,0-.894-3.414,2.512,2.512,0,0,0-3.409.894,55.813,55.813,0,0,1-8.656,14.061,57.8,57.8,0,0,1-5.857,5.77c-1.024.88-1.991,1.827-3.073,2.645a8.173,8.173,0,0,0-1.12,1.111l-.365-.053a7.338,7.338,0,0,0-4.4.63,2.374,2.374,0,0,0-.24,3.919,2.65,2.65,0,0,0,2.683.178,4.65,4.65,0,0,1,1.923.192,9.617,9.617,0,0,0,2.486.178,5.1,5.1,0,0,0,4.2-2.462c.1-.183.231-.452.341-.726a11.09,11.09,0,0,0,1.7,0,5.321,5.321,0,0,0,4.26-2.65c.385-.572.7-1.188,1.092-1.75,0,0,.481-.5.5-.515,1.37-.582,2.909-.332,4.438-.856,2.3-.789,3.962-2.953,3.188-5.448a3.847,3.847,0,0,0-.438-.9c.231-.1.683-.447.962-.616a3.121,3.121,0,0,0,1.1-4.193,2.885,2.885,0,0,0-2.933-1.414Zm.673,6.357C293.706,204.651,293.591,204.641,293.668,204.564Z" transform="translate(-176.367 -137.406)" fill="#d9a171"/><path d="M231.658,221.546h-.178l-.226-.053c-.226-.048-.452-.082-.673-.125a7.44,7.44,0,0,1-1.443-.442,2.391,2.391,0,0,0-2.885,1.443,2.477,2.477,0,0,0,1.01,3.078,3.476,3.476,0,0,0,.553.274,7.42,7.42,0,0,0,3.847.846,2.6,2.6,0,0,0,2.4-1.832,2.087,2.087,0,0,0,0-1.327A2.659,2.659,0,0,0,231.658,221.546Z" transform="translate(-155.338 -153.445)" fill="#d9a171"/><path d="M208.939,217.874h0c-.062-.058-.125-.1-.183-.149h0a5.115,5.115,0,0,0-.563-.683,2.553,2.553,0,0,0-2.376-.7,2.275,2.275,0,0,0-2.573,1.044,2.376,2.376,0,0,0,.76,3.135,3.732,3.732,0,0,0,1.284,1.241,3.424,3.424,0,0,0,1.736.447,2.856,2.856,0,0,0,2.323-1.346,2.4,2.4,0,0,0,0-2.467A2.279,2.279,0,0,0,208.939,217.874Z" transform="translate(-143.337 -151.091)" fill="#d9a171"/><path d="M341.829,148.31c-1.1,1.6-1.13,4.083-1.443,5.968s-.62,3.765-.962,5.636l-.1.043a5.386,5.386,0,0,0-2.26,2.077c-1.193,2.039-.481,3.953-.082,6.064-.1-.534.067.726.067.692,0,.351.034.7.029,1.048a7.139,7.139,0,0,1-.2,1.808,14.305,14.305,0,0,1-1.808,4.376c-1.75,2.885-4.251,5.059-6.165,7.785-1.173,1.673.991,3.251,2.52,2.5l.024.038a27.9,27.9,0,0,0,4.4-3.14,26.062,26.062,0,0,0,3.847-3.616,18.979,18.979,0,0,0,4.6-10.579,11.672,11.672,0,0,0-.188-2.885,5.741,5.741,0,0,0,1.173-.923,5.876,5.876,0,0,0,1.481-3.039c.351-1.952.6-3.934.894-5.9.332-2.193,1.2-4.991.587-7.131A3.574,3.574,0,0,0,341.829,148.31Zm2.005,16.479v.034c0,.034,0-.058-.024-.087C343.748,164.467,343.757,164.482,343.834,164.79Z" transform="translate(-208.554 -114.962)" fill="#d9a171"/><path d="M424.949,121.754a2.438,2.438,0,0,0-2.885-1.419,6.459,6.459,0,0,0-.741.269.413.413,0,0,0,0-.077c.221-1.529.75-1.923,2.087-2.5a1.742,1.742,0,0,0,.755-2.856c-1.505-1.75-3.948-1.1-5.487.26-1.64,1.443-2.14,3.616-2.4,5.684-.481,3.664-1.13,7.8-3.467,10.82a3.214,3.214,0,0,0,0,4.4c1.072,1.072,3.366,1.337,4.4,0a17.139,17.139,0,0,0,4.068-10.454,2.885,2.885,0,0,0,1.322-.317,8.3,8.3,0,0,0,1.356-.76,2.611,2.611,0,0,0,1.125-1.443A2.51,2.51,0,0,0,424.949,121.754Z" transform="translate(-251.829 -98.067)" fill="#d9a171"/></g><g transform="translate(7.316 13.339)"><path d="M285.222,102.4a7.569,7.569,0,0,0-2.217,1.957,3.678,3.678,0,0,0-1.6.9,5.631,5.631,0,0,0-2.991,4.14,3.975,3.975,0,0,0,1.39,4.078l.072.043a4.588,4.588,0,0,0,5.876,2.784c2.183-.8,3.025-2.981,3.616-5.044a18.753,18.753,0,0,0,.774-6.04A3.3,3.3,0,0,0,285.222,102.4Z" transform="translate(-177.845 -101.95)" fill="#f4e9b9"/><path d="M312.341,120.324l-.577-.447a2.885,2.885,0,0,0-1.443-.39,2.169,2.169,0,0,0-1.1.245,2.938,2.938,0,0,0-1.75,2.606l.1.76a2.823,2.823,0,0,0,.736,1.255l.577.447a2.794,2.794,0,0,0,1.443.39,3.164,3.164,0,0,0,2.015-.837,2.106,2.106,0,0,0,.591-.918,2.14,2.14,0,0,0,.245-1.1l-.1-.76A2.885,2.885,0,0,0,312.341,120.324Z" transform="translate(-192.972 -111.054)" fill="#f4e9b9"/><path d="M270.509,135.162a1.486,1.486,0,0,0,1.635-.308c.216-.25.438-.481.654-.741a1.934,1.934,0,0,0-2.347-3.025,1.923,1.923,0,0,0-.962,1.664l.072,1.043a1.529,1.529,0,0,0,.947,1.366Z" transform="translate(-173.255 -116.947)" fill="#f4e9b9"/><path d="M275.169,195.987c-1.621.048-3.477-.072-4.7,1.14a2.1,2.1,0,0,0-.322,2.525c1.092,1.443,2.563,1.64,4.265,1.962s3.871.611,5.179-.87a2.448,2.448,0,0,0,.37-2.885C278.891,196.165,277.03,195.91,275.169,195.987Z" transform="translate(-173.443 -150.761)" fill="#f4e9b9"/><path d="M271.552,214.269a16.418,16.418,0,0,0-2.654-.289,2.327,2.327,0,1,0,0,4.655,15.9,15.9,0,0,0,2.654-.289,2.116,2.116,0,0,0,1.548-2.039A2.168,2.168,0,0,0,271.552,214.269Z" transform="translate(-171.74 -160.108)" fill="#f4e9b9"/><path d="M245.793,204.312a1.88,1.88,0,0,0-1.443-.192l-1.111.481a2.125,2.125,0,0,0-.962.548,2.149,2.149,0,0,0-.553.962,2.231,2.231,0,0,0,.216,1.645,2.164,2.164,0,0,0,3.366.433l.88-.856a1.923,1.923,0,0,0,.3-2.3,2.2,2.2,0,0,0-.692-.716Z" transform="translate(-158.806 -154.955)" fill="#f4e9b9"/><path d="M393.053,133.915a4.366,4.366,0,0,0-2.693,2.178.961.961,0,0,0-.062.12,4.359,4.359,0,0,0-.26.659,4.111,4.111,0,0,0,.4,3.058,3.943,3.943,0,0,0,3.429,1.967,2.568,2.568,0,0,0,1.221-.173,3.111,3.111,0,0,0,1.14-.452,4.328,4.328,0,0,0,1.534-1.5,4.015,4.015,0,0,0-.62-4.809,4.246,4.246,0,0,0-4.092-1.053Z" transform="translate(-235.768 -118.465)" fill="#f4e9b9"/><path d="M76.522,150.049a5.516,5.516,0,0,0-1.731-.8,8.573,8.573,0,0,1-1.467-.37,3.133,3.133,0,0,0-1.654,6.045c1.832.668,4.063.582,5.352-1.048a2.525,2.525,0,0,0,.664-2.034A2.4,2.4,0,0,0,76.522,150.049Z" transform="translate(-69.364 -126.255)" fill="#f4e9b9"/><path d="M73.712,173.077a10.932,10.932,0,0,0,1.765.149,1.837,1.837,0,0,0,1.693-1.14,1.924,1.924,0,0,0-.38-2.024,3.818,3.818,0,0,0-1.962-1.4,7.887,7.887,0,0,0-2.14-.313,2.327,2.327,0,1,0,0,4.655h.769Z" transform="translate(-69.881 -136.42)" fill="#f4e9b9"/><path d="M79.469,186.532a1.962,1.962,0,0,0-1.37-.178l-1.082.226a1.924,1.924,0,0,0-1.135.87,1.837,1.837,0,0,0-.1,1.693,1.808,1.808,0,0,0,1.005,1.005,1.443,1.443,0,0,0,.736.163,1.87,1.87,0,0,0,.962-.26l.986-.442a1.77,1.77,0,0,0,.817-1.048A1.842,1.842,0,0,0,80.2,187.4,1.678,1.678,0,0,0,79.469,186.532Z" transform="translate(-72.614 -145.74)" fill="#f4e9b9"/><path d="M435.569,119.269a2.51,2.51,0,0,0-2.337-1.779,11.166,11.166,0,0,0-1.741.13,2.669,2.669,0,0,0-1.327.361l-.534.414a2.534,2.534,0,0,0-.726,2.217,2.63,2.63,0,0,0,3.289,2.193,15.827,15.827,0,0,0,2.265-.8,2.246,2.246,0,0,0,.991-1.159,2.318,2.318,0,0,0,.12-1.577Z" transform="translate(-255.995 -110.017)" fill="#f4e9b9"/><path d="M204.391,148.589a2.616,2.616,0,0,0-1.082-.692,2.577,2.577,0,0,0-1.289-.289l-.89.12a2.515,2.515,0,0,0-1.14.6,1.712,1.712,0,0,0-.6.6,2.515,2.515,0,0,0-.6,1.14,2.866,2.866,0,0,1-.053.394,2.568,2.568,0,0,0-.322,1.092,1.7,1.7,0,0,0,0,.9,2.506,2.506,0,0,0,.4,1.265,3.986,3.986,0,0,0,1.221,1.217,2.486,2.486,0,0,0,1.26.4,2.6,2.6,0,0,0,1.356-.058,3.885,3.885,0,0,0,2.751-2.847,4.112,4.112,0,0,0,0-2.092A4.212,4.212,0,0,0,204.391,148.589Z" transform="translate(-136.326 -125.652)" fill="#f4e9b9"/></g></g><path d="M294.483,86.866c1.842,1.866,4.328,1.226,6.674,1.294a4.02,4.02,0,0,1,3.462,1.923,3.3,3.3,0,0,0,2.323,1.659.683.683,0,0,0,.587-1.029c-.24-.327-.515-.644-.793-.962h0a.37.37,0,0,0,.13-.481c-.245-.351.375-1.269.567-1.616a10.752,10.752,0,0,1,1.1-1.645c.317-.394-.221-.962-.567-.567a11.82,11.82,0,0,0-1.693,2.438,4.567,4.567,0,0,0-.394.933c-.13-.149-.264-.293-.39-.442a4.924,4.924,0,0,0-2.087-1.515,25.362,25.362,0,0,0,.779-3.693c.106-.51-.659-.731-.784-.216-.173.716-.351,1.443-.524,2.159a14.417,14.417,0,0,0-.356,1.515,13.08,13.08,0,0,0-3.092.154,38.579,38.579,0,0,0-.365-5.477h0a9.718,9.718,0,0,0-.438,5.554,4.2,4.2,0,0,1-3.207-.769.424.424,0,0,0,.024-.221,12.829,12.829,0,0,1,.274-5.357.351.351,0,0,0-.673-.183,13.055,13.055,0,0,0-.4,5.578.6.6,0,0,0-.154.967Z" transform="translate(-178.704 -75.982)" fill="#212b18"/><path d="M249.187,119.241q-2.8-1.981-5.727-3.775c-1.159-.712-2.337-1.486-3.573-2.125a3.573,3.573,0,0,0,.207-.832,5.559,5.559,0,0,1,.332-1.736c.168-.346.433-.649.616-.991a4.39,4.39,0,0,0,.529-2.135,6.147,6.147,0,0,1,.163-2.549c.3-.683.822-1.245,1.144-1.923a3.5,3.5,0,0,0,.375-1.774c-.067-1.053-.394-1.678.481-2.486,1.13-1.029,2.275-2.159,2.4-3.77a3.14,3.14,0,0,0-.5-2.024c-.591-.9-1.3-1.207-1-2.428.341-1.38.9-2.779.221-4.16a2.476,2.476,0,0,0-2.885-1.443,7.926,7.926,0,0,0-2.4,1.395l-2.779,1.923A16.648,16.648,0,0,0,233.03,91.6c-1.976-1.476-4.963.274-6.905,1.058q-4.539,1.837-8.973,3.929a165.576,165.576,0,0,0-16.955,9.233,22.033,22.033,0,0,0,.173-5.333,19.7,19.7,0,0,0-2.722-7.343c-1.38-2.505-2.885-4.91-4.4-7.348a28.191,28.191,0,0,0-4.592-6.146,17.455,17.455,0,0,0-6.67-3.7c-2.885-.962-5.819-1.837-8.718-2.818a26.493,26.493,0,0,0-4.809-1.563,2.246,2.246,0,0,0-2.294,1.063,7.364,7.364,0,0,0-.726,3.26c-.173,1.827-.192,3.655-.322,5.477-.043.606.962.76,1.072.149.178-1.231.452-2.443.644-3.674a23.887,23.887,0,0,1,.534-3.674c.216-.654.414-.9,1.2-.789a10.58,10.58,0,0,1,1.616.534l4.035,1.342c4.679,1.558,10.012,2.885,13.8,6.218a22.885,22.885,0,0,1,4.655,5.458c1.236,2.053,2.149,4.289,3.284,6.4,1.226,2.294,2.452,4.506,2.683,7.151a27.712,27.712,0,0,1-.534,7.213,75.048,75.048,0,0,1-4.732,16.35.789.789,0,0,0,0,.635,14.733,14.733,0,0,0-4,.4c-2.116.284-4.222.63-6.333.962a.481.481,0,0,0-.231.1c-.226-.072-.457-.135-.688-.2a34.685,34.685,0,0,0,3.847-5.116c.481.188.991.269,1.443.428a14.458,14.458,0,0,1,2.193.938c.428.226.808-.409.38-.649a16.443,16.443,0,0,0-2.073-1,9.176,9.176,0,0,0-1.443-.481c.341-.582.644-1.188.962-1.789.716.284,1.5.423,2.222.688a18.152,18.152,0,0,1,2.4,1.082.365.365,0,0,0,.37-.63,13.328,13.328,0,0,0-4.616-1.861,36.4,36.4,0,0,0,2.448-6.843c.524.154,1.1.173,1.635.3a11.1,11.1,0,0,1,2.4.885c.457.226.856-.442.4-.688a12.19,12.19,0,0,0-2.4-1.005,6.371,6.371,0,0,0-1.8-.337c.216-.938.4-1.89.539-2.847a.456.456,0,0,1,.024-.178,10.536,10.536,0,0,0,1.866.106c.837.024,1.673,0,2.51,0a.346.346,0,0,0,0-.688c-.837-.058-1.673-.125-2.51-.159a11.383,11.383,0,0,0-1.765-.029,30.33,30.33,0,0,0,.067-7.386c.481-.067.918-.289,1.39-.385a5.5,5.5,0,0,1,2.116-.072c.375.063.548-.481.163-.587-1.072-.255-2.775-.447-3.78.24a18.492,18.492,0,0,0-.481-2.121c.356-.1.707-.24,1.053-.332a14.634,14.634,0,0,1,2.087-.389c.481-.053.481-.765,0-.736a13.267,13.267,0,0,0-2.174.293,7.613,7.613,0,0,0-1.221.346,12.613,12.613,0,0,0-4.6-6.468c-.4-.284-.909.365-.524.678,5.131,4.2,5.328,12.5,4.414,18.528a33.512,33.512,0,0,1-8.9,17.874c-5.059-1.144-10.44-.712-15.518,0-6.468.9-12.959,1.981-19.341,3.424s-12.431,3.51-18.715,5.006c-3.876.923-7.79,1.707-11.728,2.294,6.04-11.416,18.667-16.446,27.8-25.005-.616.779-1.245,1.544-1.9,2.289a52.609,52.609,0,0,1-8.8,7.728.54.54,0,0,0,.543.933c3.534-1.6,6.492-4.429,9.06-7.276a86.211,86.211,0,0,0,7.069-9.257c.866-1.274,1.712-2.553,2.573-3.847a16.83,16.83,0,0,0,2.563-3.51.519.519,0,0,0,.038-.356q5.333-7.949,10.546-15.994c.423-.659-.6-1.231-1.039-.606-4.583,6.535-9.031,13.161-13.508,19.773a8.694,8.694,0,0,0-1.38,1.611.591.591,0,0,0-.789-.308,13.588,13.588,0,0,0-.9-1.923,4.2,4.2,0,0,0-1.443-1.3c-.308-.168-.659-.188-.76-.611-.048-.192.149-.678.154-.88a3.664,3.664,0,0,0-.418-1.818c-.264-.481-1.125-.962-1.226-1.476-.043-.221.274-.712.317-.962a2.644,2.644,0,0,0,0-.933c-.24-1.322-1.322-2.154-1.952-3.275-.745-1.332-.317-2.972-1.159-4.328a5.4,5.4,0,0,0-1.443-1.544,4.775,4.775,0,0,0-.885-.515c-.168-.077-.866-.2-.962-.279s0-.716-.048-.866a3.034,3.034,0,0,0-.255-.808,3.491,3.491,0,0,0-1.063-1.289,3.953,3.953,0,0,0-.563-.346c0-1.563-1.2-2.621-2.275-3.582-.606-.543-.481-1.361-1.015-1.972a2.246,2.246,0,0,0-1.8-.741.51.51,0,0,0-.524.385.481.481,0,0,0-.515,0,41.679,41.679,0,0,0-15.474,16.46,69.932,69.932,0,0,0-4.958,11.714,77.838,77.838,0,0,0-3.332,12.806q-2.491-1.385-5.116-2.52a.515.515,0,0,0-.029-.144A59.109,59.109,0,0,0,79.926,86.34a.62.62,0,0,0-.9.139.673.673,0,0,0-.683-.221,4.871,4.871,0,0,0-3.7,3.6c-.231.827-.418,1.476-1.3,1.774-.481.163-.962.269-1.443.481a6.607,6.607,0,0,0-3.679,4.208c-.12.442-.13.89-.236,1.332-.226.962-.846,1.154-1.577,1.7a8.713,8.713,0,0,0-2.707,4.4,22.6,22.6,0,0,1-1.01,2.707,18.868,18.868,0,0,1-2.1,2.885c-1.443,1.923-1.606,4.414-1.746,6.732-.317,5.232-.067,10.786,1.673,15.768a21.077,21.077,0,0,0,.87,2.121A5.583,5.583,0,0,0,58.57,135.7a12.122,12.122,0,0,0-1.827,2.294,2.765,2.765,0,0,0-1.024.389c-2.5,1.568-1.976,5.357-1,7.627a10.541,10.541,0,0,0,6.492,5.876c3.433,8.2,6.824,16.431,10.329,24.606.822,1.923,2.3,4.193,1.952,6.362a15.779,15.779,0,0,0-.327,4.915c.414,2.948,2.164,6.626,4.977,8a.9.9,0,0,0,.24.067.793.793,0,0,0,.327.765c7.857,5.77,16.907,9.339,25.967,12.815a77.14,77.14,0,0,0,12.858,4.049.692.692,0,0,0,.962.173c.192.034.38.072.572.1,4.655.731,9.382,1.072,14.08,1.4,18.5,1.313,37.378,1.087,55.545-3A113.034,113.034,0,0,0,217.7,201.378a.731.731,0,0,0,.4-.8,10.911,10.911,0,0,0,6.42-9.17c.144-2.116-.063-3.9.923-5.867,3.77-7.492,7.93-14.811,11.887-22.2,2-3.722,3.962-7.454,5.929-11.19,6.732-2.77,13.724-13.392,8.175-19.951-.024,0-.048-.034-.067-.053,1.188-1.443,2.621-2.823,3.337-4.559C256.294,123.6,251.894,121.15,249.187,119.241ZM143.3,131.455c6.17-1.529,12.455-2.549,18.725-3.563,6.968-1.13,13.873-1.847,20.774.067a.808.808,0,0,0,1.053-.712c1.443-.13,2.885-.255,4.294-.423a31.317,31.317,0,0,1,4.612-.539c1.169.043,1.207.688,1,1.654a13.62,13.62,0,0,0-.337,1.654,16.832,16.832,0,0,0,.115,2.087,3.847,3.847,0,0,1-.7,2.318c-1.688,2.659-3.645,5.179-5.463,7.752-1.635,2.308-3.236,5.588-5.944,6.775a.875.875,0,0,0-.4.962c.438,1.587-1.721,2.669-2.828,3.308-1.481.861-2.953,1.731-4.429,2.6-1.37.808-2.77,1.582-4.121,2.4a6.559,6.559,0,0,0-2.082,2.1,73.406,73.406,0,0,1-12.022-2.5,15.869,15.869,0,0,0,1.544-.543c.894-.361,1.765-.779,2.621-1.221.125.188.284.361.394.553a3.533,3.533,0,0,1,.322.846c.111.447.779.255.683-.192a3.847,3.847,0,0,0-.683-1.587c.289-.154.572-.313.856-.481a3.616,3.616,0,0,0,.774,1.327,10.979,10.979,0,0,0,1.409,1.544c.313.284.779-.173.481-.481a10.349,10.349,0,0,1-1.3-1.52,6.353,6.353,0,0,0-.793-1.193c.264-.154.524-.322.789-.481a10.479,10.479,0,0,0,1.082,1.587,23.749,23.749,0,0,0,1.577,1.9c.24.255.625-.13.389-.389a18.175,18.175,0,0,1-1.621-2.02c-.313-.447-.558-.962-.875-1.419a51.886,51.886,0,0,0,7.006-5.208c.418-.37.817-.76,1.221-1.144a18.562,18.562,0,0,1,5.429,2.4c.365.25.683-.327.341-.582a13.945,13.945,0,0,0-5.088-2.472c.529-.529,1.039-1.072,1.539-1.625h0a13.464,13.464,0,0,1,5.145,2.2c.322.231.745-.3.428-.553a11.584,11.584,0,0,0-4.992-2.275,48.752,48.752,0,0,0,4.621-6.251,18.643,18.643,0,0,1,7.665.755c.481.159.673-.577.207-.75a16.157,16.157,0,0,0-7.338-.9c.683-1.144,1.337-2.3,1.923-3.491a24.879,24.879,0,0,0,3.818-.385,13.536,13.536,0,0,1,4.506.3h0a6.357,6.357,0,0,0-3.847-1.063,17.7,17.7,0,0,0-4.14.4c.255-.519.515-1.043.75-1.572.284-.635-.644-1.193-.962-.553a51.861,51.861,0,0,1-11.757,15.753,48.53,48.53,0,0,1-7.848,5.968c-1.361.827-2.765,1.6-4.2,2.289a16.229,16.229,0,0,1-5.015,1.616c-2.741-.962-5.443-2.01-8.175-2.943-3.448-1.173-6.949-2.207-10.44-3.246l-21.639-6.415a69.128,69.128,0,0,0-10.411-2.7,44.087,44.087,0,0,0-10.1.236l-.6.058a6.53,6.53,0,0,1,2.4-.827,14.423,14.423,0,0,0,1.443-.144,10.392,10.392,0,0,0,2.005-.89,10.6,10.6,0,0,1,4.4-.519c1.621,0,3.246-.053,4.866-.144a119.69,119.69,0,0,0,18.653-2.654c6.2-1.332,12.166-3.332,18.283-4.847Zm88.206,19.427h0a7.3,7.3,0,0,1-.1,6.064,8.783,8.783,0,0,1-3.876,3.52.591.591,0,0,0-.106.962.558.558,0,0,0-.481.231,106.63,106.63,0,0,0-11.993,19.3,49.971,49.971,0,0,0-3.5,10.305,6.323,6.323,0,0,0,.106,3.592c-.962.375-1.976.731-2.981,1.048a.279.279,0,0,0-.2.274l-.1.029c-.13.043-.072.245.053.2l.106-.038a.26.26,0,0,0,.284.087c1.034-.3,2.049-.64,3.058-1,.053.12.1.24.154.365a6.1,6.1,0,0,1-.317,5.722.712.712,0,0,0,.106.875,111.987,111.987,0,0,1-17.936,6.439,7.078,7.078,0,0,0-.447-6.054,11.738,11.738,0,0,0-1.039-1.39c-.087-.106-.149-.207-.221-.313a83.343,83.343,0,0,0,8.829-3.087c.481-.2.308-.962-.221-.8q-4.588,1.443-9.165,2.765a4.155,4.155,0,0,1-.154-1.2c0-1.755.091-3.51.221-5.256a90.713,90.713,0,0,1,4.116-20.375c1.693-.808,2.765-3.029,3.015-4.761a7.054,7.054,0,0,0-2.087-5.924c10.733-6.3,22.375-10.632,34.858-11.584Zm-36.089,12.5a1.291,1.291,0,0,0,.274,0,5.823,5.823,0,0,1,1.587,4.838,5.616,5.616,0,0,1-.87,2.275,24.41,24.41,0,0,1-1.722,1.871.692.692,0,0,0-.067.75,66.143,66.143,0,0,0-4.4,19.009c-.144,1.664-.236,3.337-.26,5.011a12.229,12.229,0,0,0,.159,3.27c-4.285,1.207-8.6,2.284-13.012,3.082a147.247,147.247,0,0,1-23.245,2.275c.043-.212.082-.418.111-.6a62.6,62.6,0,0,0,.212-9.449c-.115-6.732-.144-13.508-.481-20.254a.481.481,0,0,0-.385-.481,8.547,8.547,0,0,0-.481-1.063,10.287,10.287,0,0,1-.755-2.347c-.308-1.577.058-3.1-.091-4.655a.37.37,0,0,0-.231-.308,90.914,90.914,0,0,1,43.653-3.236Zm-63.561-4.107a.418.418,0,0,0-.173-.139c-2.058-.856-4.16-1.611-6.251-2.4-.438-.168-.616.524-.192.692,1.4.563,2.8,1.135,4.212,1.693a54.7,54.7,0,0,0-15.8,1.649.534.534,0,0,0-.38.313l-.077-.038a.721.721,0,0,0-.279-.793,31.267,31.267,0,0,0-12.984-5.891c-2.342-.539-4.717-.914-7.1-1.231-2.582-.346-5.2-.8-7.78-.183a.866.866,0,0,0-.178.082.668.668,0,0,0-.644-.2.9.9,0,0,0-.135-.2,52.829,52.829,0,0,0-11.781-8.872,15.806,15.806,0,0,1,7.992-.654,42.433,42.433,0,0,0,10.18.341,57.21,57.21,0,0,1,10.3-.481c3.621.313,7.141,1.6,10.608,2.626l21.158,6.251c3.429,1.01,6.862,2.01,10.257,3.13,3.049,1.005,6.035,2.178,9.069,3.231a69.161,69.161,0,0,0,12.469,3.188,79.721,79.721,0,0,0-9.348,2.4,3.847,3.847,0,0,0,.817-.765c.284-.365-.173-.87-.519-.524a5.044,5.044,0,0,1-1.813,1.241.4.4,0,0,0-.188.6c-.481.173-.962.356-1.443.534a.842.842,0,0,0-.394-.365,60.724,60.724,0,0,0-18.528-5.107C132.562,159.35,132.2,159.326,131.855,159.278ZM115.173,90.918A44.193,44.193,0,0,1,130.08,74.251a.481.481,0,0,0,.2-.26.587.587,0,0,0,.308.12c1.034.1.707,1.207.991,1.842a2.433,2.433,0,0,0,.822.875,5.323,5.323,0,0,1,1.592,2.111,4.367,4.367,0,0,0-1.226.332c-.63.264-.4,1.284.289,1.058a2.4,2.4,0,0,1,2.135.644c.587.577.481,1.164.616,1.923.231,1.515,1.962,1.4,2.885,2.323,1.279,1.245.8,2.813,1.38,4.328.452,1.164,1.808,2.053,2.053,3.265.125.62-.341,1.144-.356,1.76a1.885,1.885,0,0,0,.736,1.471,2.5,2.5,0,0,1,1.072,2.082,2.632,2.632,0,0,0,.212,1.587c.327.5.76.553,1.221.76a3.042,3.042,0,0,1,1.645,2.02c.293.741.779,1.577,1.606,1.5-.159.269-.308.534-.481.793-.274.337-.548.678-.827,1.015a.481.481,0,0,0-.519.188c-5.088,6.025-11.858,10.233-18.273,14.676a68.671,68.671,0,0,0-6.386,4.943.549.549,0,0,0-.072-.111,26.015,26.015,0,0,0-3.3-2.582q-1.784-1.327-3.587-2.621t-3.525-2.438c0-11.281,5.573-21.639,12.431-30.295.337-.423-.255-1.034-.606-.606-1.443,1.76-2.856,3.6-4.2,5.487a8.026,8.026,0,0,1-1.149-.245,3.02,3.02,0,0,1-1.3-.962c-.269-.327-.721.139-.481.481a3.664,3.664,0,0,0,2.476,1.395c-1.024,1.476-2,2.986-2.885,4.535a7.9,7.9,0,0,1-1.318-.789c-.346-.245-.678.269-.428.558a4.145,4.145,0,0,0,1.327.962,48.363,48.363,0,0,0-3.02,6.468,5.723,5.723,0,0,1-1.645-1.087.361.361,0,0,0-.414-.077c.082-.269.144-.539.226-.8a67.446,67.446,0,0,1,4.866-11.959Zm-6.646,18.9a7.1,7.1,0,0,0,1.923.808,34.568,34.568,0,0,0-.529,3.453,16.935,16.935,0,0,1-2.246-.765c.293-1.164.582-2.327.851-3.5Zm1.385-5.554a.226.226,0,0,0,.029.043,5.391,5.391,0,0,0,1.9,1.337,37.325,37.325,0,0,0-1.231,4.208c-.221-.062-.442-.115-.659-.188a8.656,8.656,0,0,1-1.26-.558C109.066,107.488,109.465,105.873,109.913,104.267Zm-2.722,10.887c.1-.356.188-.721.284-1.082a9.42,9.42,0,0,0,2.4.8c-.048.649-.072,1.3-.082,1.957-.765-.481-1.524-1-2.308-1.443-.1-.063-.2-.115-.3-.173a.068.068,0,0,1,0-.062Zm-47.125,2.376c.077-2.4.043-5.29,1.51-7.328a18.457,18.457,0,0,0,2.852-4.482c.62-1.664,1-3.784,2.4-4.982.664-.558,1.534-.8,2.087-1.5a6.964,6.964,0,0,0,.8-2.51,5.006,5.006,0,0,1,2.121-2.8c.962-.606,2.246-.6,3.14-1.337a4.424,4.424,0,0,0,1.183-2.51A3.366,3.366,0,0,1,78.7,87.638a.726.726,0,0,0,.3-.149.991.991,0,0,0,.139.149A59.859,59.859,0,0,1,99.011,111.2a53.5,53.5,0,0,0-7.5-2.4.481.481,0,0,0-.255.914,62,62,0,0,1,15.5,7.213c2.4,1.471,4.717,3.054,7,4.679q1.726,1.217,3.414,2.476a33.106,33.106,0,0,0,3.462,2.5,31.459,31.459,0,0,0-7.343,9.94c-1.981.26-3.967.481-5.963.606-1.779.125-3.568.2-5.352.216a15.476,15.476,0,0,0-4.708.4,22.4,22.4,0,0,0-2.048,1,9.193,9.193,0,0,1-2.183.385,9.989,9.989,0,0,0-4.188,2.236.716.716,0,0,0-.231.313c-.962.063-1.923.1-2.885.091a35.8,35.8,0,0,1-4.866-.481.683.683,0,0,0-.192-.414,28.332,28.332,0,0,1-3.914-4.39,23.048,23.048,0,0,1-2.476-5.453,34.969,34.969,0,0,1-1.164-5.41.313.313,0,0,0,.2-.125.3.3,0,0,0,.231-.37c-.3-1.236,1.029-1.746,1.972-1.851a.38.38,0,0,0,.356-.481c-.332-.962.365-1.621,1.236-1.923a.2.2,0,0,0,0-.39c-1.207-.269-2.063.962-2.01,2.077a2.648,2.648,0,0,0-2.169,1.544,33.937,33.937,0,0,1-.1-5.77,6.765,6.765,0,0,1,.072-.707.519.519,0,0,0,.048-.481c.923-7.55,5.578-15.186,13.4-17.023.543-.13.308-.923-.226-.827a17.519,17.519,0,0,0-2.226.558c-.548-3.1-3.15-5.876-5.636-7.545-.442-.3-.822.394-.414.7a14.181,14.181,0,0,1,3.419,3.587,31.336,31.336,0,0,1,1.8,3.534,15.619,15.619,0,0,0-5.141,3.126,17.023,17.023,0,0,0-5.29-3.909c-.351-.173-.664.341-.313.534a18.754,18.754,0,0,1,4.977,3.972,19.1,19.1,0,0,0-4.073,6.439c-2.02-1.308-4.775-1.818-7.064-2.231-.433-.077-.625.572-.188.673a27.983,27.983,0,0,1,3.717,1.116c1.082.4,2.111.962,3.2,1.361a27.982,27.982,0,0,0-1.284,5.453,27.073,27.073,0,0,0-7.694-.567.365.365,0,0,0,0,.726,34.435,34.435,0,0,1,7.564.837c0,.173-.038.346-.053.519-1.356-.178-2.746-.221-4.107-.322-.423-.034-.4.6,0,.644,1.337.173,2.693.414,4.049.5a36.021,36.021,0,0,0,.12,5.809,26.962,26.962,0,0,0-7.4,1.289.357.357,0,0,0,.192.688,32.319,32.319,0,0,1,7.338-1.072,35.4,35.4,0,0,0,.923,4.713,28.325,28.325,0,0,0-5.525,1.1.319.319,0,0,0,.168.616,52.631,52.631,0,0,1,5.573-.933c.058.192.115.375.178.563-.3.034-.6.125-.914.178a11.632,11.632,0,0,1-1.784.13.346.346,0,0,0,0,.688,14.351,14.351,0,0,0,1.76-.106,4.727,4.727,0,0,0,1.164-.207c.1.3.2.6.313.88a25.188,25.188,0,0,0,2.515,4.991c-.308.087-.611.216-.909.322-.515.192-1.029.375-1.548.563a.375.375,0,1,0,.2.721l1.572-.481a6.526,6.526,0,0,0,1.226-.4,11.993,11.993,0,0,0,1.871,1.976,14.234,14.234,0,0,0-7.064,1.241.88.88,0,0,0-.322-.346,20.818,20.818,0,0,1-8.526-9.569,36.558,36.558,0,0,1-2.424-14.82Zm-.442,19.3a13.58,13.58,0,0,0,2.356-1.645,21,21,0,0,0,4.477,5.684c-.327-.144-.649-.293-.962-.428-1.707-.707-3.448-1.337-5.217-1.871A18.357,18.357,0,0,0,58.214,138a16.211,16.211,0,0,1,1.428-1.178Zm19.716,58.392a.731.731,0,0,0-.216-.769,15.342,15.342,0,0,1-3.222-3.732,10.1,10.1,0,0,1-1.159-4.929c.048-1.7.75-3.284.327-4.987a39.491,39.491,0,0,0-2.4-5.9c-3.155-7.646-6.458-15.248-9.718-22.841a.775.775,0,0,0,.149-.091,2.318,2.318,0,0,0,1.7.962.428.428,0,0,0,.216-.793,2.326,2.326,0,0,1-1.534-1.765c-.067-.649-1.087-.654-1.019,0v.043c-3.217-1.068-5.8-3.164-6.559-6.65-.3-1.395-.327-4.3,1.77-4.044a25.343,25.343,0,0,1,5.516,1.77,56.947,56.947,0,0,1,5.972,2.664.745.745,0,0,0,1.048.553,74,74,0,0,1,12.9,8.92.688.688,0,0,0,.245.135,6.824,6.824,0,0,0-.741,6.4c.861,2.082,3.159,4.116,5.535,4.01a73.722,73.722,0,0,1,6.1,19.773q.428,2.736.616,5.5a13.2,13.2,0,0,1-.1,4.2,11.012,11.012,0,0,1-4.64-2.505c-.4-.39-1.015.221-.616.615a11.44,11.44,0,0,0,4.693,2.741l.236.072c-.058.125-.111.255-.178.385a10.823,10.823,0,0,0-1.568,7.175,119.413,119.413,0,0,1-13.209-6.872.587.587,0,0,0-.115-.048Zm14.907,7.636a7.886,7.886,0,0,1,.034-5.015,27.644,27.644,0,0,1,1.443-2.885,23.751,23.751,0,0,0,4.943.822c.481.024.481-.616.1-.76a28.189,28.189,0,0,0-4.65-1.024,5.127,5.127,0,0,0,.144-.6,19.888,19.888,0,0,0-.082-5.1q-.231-2.606-.649-5.2a65.148,65.148,0,0,0-6.8-20.288.519.519,0,0,0-.856-.106c-1.616-.62-3.039-1.207-3.847-2.972a5.391,5.391,0,0,1,.726-5.482.769.769,0,0,0,.668.188c2.433-.481,5,.173,7.41.553,2.193.341,4.39.707,6.554,1.2a29.521,29.521,0,0,1,12.166,5.381.914.914,0,0,0,.635.207c-.866,2.226-1.443,4.722-.481,7.011.577,1.4,1.895,3.02,3.51,3.106,1.5,7.415,3.169,14.907,2.626,22.519-.38,5.318-2.948,11.3-1.443,16.58a59.84,59.84,0,0,1-7.756-2.356c-4.77-1.827-9.6-3.708-14.349-5.785Zm42.8,10.507c-4.674-.289-9.348-.664-14-1.2-1.678-.192-3.313-.481-4.939-.8-1.015-2.7-.659-5.684-.125-8.511a66.574,66.574,0,0,0,1.443-9.887c.264-7.367-1.318-14.686-3.068-21.8a.563.563,0,0,0-.779-.4,8.333,8.333,0,0,1-1.515-.962,4.732,4.732,0,0,1-1.3-2.193,9.345,9.345,0,0,1,.75-5.77.625.625,0,0,0,.428.077,61.636,61.636,0,0,1,36.248,4.15.712.712,0,0,0,.962.716l.188-.063c-.89,1.313-.793,3.27-.563,4.77.212,1.375.668,3.51,1.923,4.328-.106,7.285.1,14.575.207,21.856a45.515,45.515,0,0,1-.447,8.079h-.029a.356.356,0,0,0-.1.692c-.106.567-.221,1.13-.365,1.7-.5,1.972-.63,4.059.457,5.679-5.126.029-10.247-.144-15.359-.462Zm27.328.135q-4.9.3-9.8.341a.812.812,0,0,0-.269-.255c-2.289-1.337-1.241-4.655-.635-7.1a137.938,137.938,0,0,0,23.2-1.972,139.811,139.811,0,0,0,13.724-2.991c.683,1.1,1.645,1.923,2.068,3.217a6.7,6.7,0,0,1,.048,4.41A149.69,149.69,0,0,1,164.4,213.5ZM243.9,149.8a.75.75,0,0,0-1.27.087c-.139.264-.284.529-.428.793a.707.707,0,0,0-.337.62c-4.66,8.579-9.252,17.186-13.849,25.794-1.226,2.284-2.457,4.568-3.674,6.862a11.44,11.44,0,0,0-1.5,5.828c.029,4.241-2.159,8.136-6.333,9.564a.861.861,0,0,0-.563,1.019c-.87.452-1.746.894-2.626,1.318a7.011,7.011,0,0,0,.765-3.938,9.938,9.938,0,0,0-.928-2.784c1.159-.452,2.3-.962,3.414-1.505.361-.178.043-.683-.308-.529-1.106.481-2.222.962-3.337,1.409a3.847,3.847,0,0,1-.216-1.837,42.327,42.327,0,0,1,3.5-10.8c3.13-6.915,7.535-13.152,11.671-19.49a.452.452,0,0,0-.038-.6.839.839,0,0,0,.154,0c4.809-1.024,6.516-7.064,4.693-11.084A32.853,32.853,0,0,1,247.6,138.4a.914.914,0,0,0,.058-1.664c1.043-1.221,2-2.529,2.991-3.794C254.256,139.009,249.428,146.554,243.9,149.8Zm8.362-21.432c-2,3.01-4.453,5.77-6.251,8.9A31.194,31.194,0,0,0,232.1,149.18h-.063a78.315,78.315,0,0,0-16.181,2.76c.9-2.4-.692-4.987-.154-7.521.394-1.856,2.068-2.981,3.631-3.813,1.789-.962,3.688-1.693,5.53-2.515,8.285-3.688,16.537-7.391,24.678-11.392.414-.207.12-.938-.322-.76-5,2.015-9.944,4.135-14.873,6.3a6.559,6.559,0,0,0,.274-3.231c-.6-3.308-3.318-5.472-5.121-8.107-.308-.447-1.024-.048-.736.433,1.255,2.092,3.005,3.9,4.054,6.112a5.737,5.737,0,0,1,.563,3.8,3.9,3.9,0,0,1-1.217,1.952q-4.26,1.88-8.521,3.794c-2.986,1.337-7.252,2.573-8.882,5.718a6.667,6.667,0,0,0-.38,4.4c.308,1.707,1.125,3.683.072,5.251a64.336,64.336,0,0,0-18.754,9.1,81.777,81.777,0,0,0-24.169-1.1c-.7-.063-1.39-.125-2.082-.2.106-.106.207-.212.322-.308a18.436,18.436,0,0,1,2.361-1.443l5.29-3.068c.731-.428,1.654-.909,2.539-1.476a.37.37,0,0,0,.3,0c.808-.327,1.4-.962,2.246-1.241a5.525,5.525,0,0,1,2.044-.26c-.12.25-.236.481-.341.76-.654,1.654-1.077,3.51-2.486,4.708-.5.428.178,1.337.721.933a7.958,7.958,0,0,0,2.544-3.433c.615-1.443,1.111-3.087,2.284-4.2,1.38-1.318,3.366-1.75,5.16-2.121,1.948-.4,3.885-.817,5.8-1.366a55.6,55.6,0,0,0,20.7-10.791c2.481-2.125,6.006-6,4.741-9.617-.115-.337-.726-.438-.789,0a11.357,11.357,0,0,1-1.414,4.809,16.831,16.831,0,0,1-3.847,4.063,52.045,52.045,0,0,1-7.8,5.049c2.972-5.078,4.03-11,5.641-16.648.861-3.015,1.8-6.679,4.6-8.5,2.885-1.866,6.588-1.043,9.425.452a.837.837,0,0,0,.846-1.443c-.221-.135-.481-.255-.692-.375.481-.769.962-1.548,1.39-2.342a2.856,2.856,0,0,0,.736.1l1.274.13c.539.053.519-.765,0-.832-.438-.058-.88-.111-1.318-.173l-.236-.034c.139-.26.279-.515.414-.774.37.067.75.12,1.116.212a11.643,11.643,0,0,1,1.731.587c.433.183.813-.442.375-.644a10.824,10.824,0,0,0-2.823-.962q.51-1.053.962-2.135c.635,0,1.279-.154,1.923-.159a9.083,9.083,0,0,1,2.356.308.414.414,0,0,0,.216-.793,8.677,8.677,0,0,0-4.126-.361c.043-.12.087-.236.125-.351a23.459,23.459,0,0,0,.75-2.885c.481-.173.9-.418,1.385-.563a7.5,7.5,0,0,1,1.923-.327.39.39,0,0,0,0-.774,7.959,7.959,0,0,0-3.135.529c0-.1.034-.2.043-.3a25.92,25.92,0,0,0-.144-4.886.385.385,0,0,0-.135-.264c.481-.269.962-.587,1.443-.875l2.428-1.491a.361.361,0,0,0-.361-.62l-2.481,1.4a12.281,12.281,0,0,0-2.2,1.361.37.37,0,0,0,.361.616c.067-.024.13-.062.2-.087a25.847,25.847,0,0,1-1.505,8.761c-.962,2.852-2.63,5.338-4.035,7.973a10.732,10.732,0,0,0-7.53-.284c-3.179,1.173-4.9,4.092-5.987,7.141-2.515,7.093-3.231,14.729-7,21.365a56.34,56.34,0,0,1-11.022,4.126c-3.183.822-6.973.962-9.742,2.885a6.973,6.973,0,0,0-1.923,2.092,5.689,5.689,0,0,0-2.606.038,3.068,3.068,0,0,0,.346-1.645c2.736-1.52,4.438-4.881,6.15-7.333l3.669-5.213c.962-1.37,2.255-2.808,2.491-4.52a22.663,22.663,0,0,0-.106-2.616,19.316,19.316,0,0,1,.442-2.342,2.523,2.523,0,0,0-.962-2.592.7.7,0,0,0,.2-.269,77.815,77.815,0,0,0,5.068-16.407c.034-.168.063-.337.091-.481a.784.784,0,0,0,.264-.1A179.63,179.63,0,0,1,215.844,99q3.982-1.986,8.069-3.736c1.443-.625,2.885-1.221,4.361-1.8,1.039-.418,3-1.553,4.025-.625a.7.7,0,0,0,.409.173.789.789,0,0,0,1.217-.091c1.1-1.606,2.885-2.592,4.458-3.655.8-.539,1.6-1.072,2.4-1.616s2.01-1.611,2.635-.351c.769,1.558-.923,3.255-.543,4.89a4.271,4.271,0,0,0,.89,1.548,1.97,1.97,0,0,1-.245,2.755c-.9,1.01-2.4,1.774-2.457,3.289-.029.765.414,1.491.26,2.246a7.4,7.4,0,0,1-1.034,1.866c-.779,1.443-.385,2.65-.543,4.184-.091.894-.779,1.572-1.019,2.428-.111.385-.082,1.548-.289,2.212-.1-.038-.2-.091-.3-.125-3.77-1.337-6.439,1.471-7.886,4.631-.3.664.63,1.241,1,.582a8.2,8.2,0,0,1,3.26-3.366,3.587,3.587,0,0,1,2.828-.188.644.644,0,0,0,.712.481,2.338,2.338,0,0,0,.337-.058c.236.115.481.236.7.365a100.4,100.4,0,0,1,8.983,5.636,33.35,33.35,0,0,1,4.1,3.082C253.7,125.228,253.347,126.728,252.26,128.368Z" transform="translate(-53.911 -71.537)" fill="#212b18"/><path d="M101.528,163.908a2.063,2.063,0,0,0-1.822.327.337.337,0,0,0,.337.582,2.3,2.3,0,0,1,.7-.279,7.045,7.045,0,0,0,.721-.115A.278.278,0,0,0,101.528,163.908Z" transform="translate(-77.605 -119.446)" fill="#212b18"/><path d="M108.039,143.574c-.236.365.322.668.567.337.481-.688,1.337.26,1.818.433a.341.341,0,0,0,.385-.481C110.255,142.939,108.673,142.593,108.039,143.574Z" transform="translate(-81.981 -108.628)" fill="#212b18"/><path d="M114.11,141.2a.337.337,0,1,0,.341.582c.269-.159.481-.067.765,0a.3.3,0,0,0,.289-.5A1.169,1.169,0,0,0,114.11,141.2Z" transform="translate(-85.076 -107.6)" fill="#212b18"/><path d="M120.7,133.418a5.4,5.4,0,0,1,2.308-.375c.409,0,.39-.577,0-.62a4.914,4.914,0,0,0-2.476.39C120.17,132.966,120.324,133.572,120.7,133.418Z" transform="translate(-88.39 -103.131)" fill="#212b18"/><path d="M124.983,135.062a2.5,2.5,0,0,1,1.356,0,.285.285,0,1,0,.154-.548,2.823,2.823,0,0,0-1.669,0,.3.3,0,0,0,.159.548Z" transform="translate(-90.659 -104.165)" fill="#212b18"/><path d="M125.885,136.455a.216.216,0,0,0,0,.414,6.164,6.164,0,0,0,1.923.091.3.3,0,1,0,0-.6,6.463,6.463,0,0,0-1.923.091Z" transform="translate(-91.196 -105.173)" fill="#212b18"/><path d="M122.663,154.229c-.409.043-.423.673,0,.649a19.1,19.1,0,0,1,5.554.438c1.717.4,3.236,1.37,4.919,1.77h.058a5.443,5.443,0,0,0-.75.365.341.341,0,0,0,.346.587c.442-.236.933-.3,1.375-.519.3-.144.115-.543-.154-.572a1.645,1.645,0,0,0-.654.091.264.264,0,0,0,.053-.414c-1.212-1.193-3.366-1.731-4.977-2.082A18.042,18.042,0,0,0,122.663,154.229Z" transform="translate(-89.44 -114.412)" fill="#212b18"/><path d="M145.36,163.031c.673-.13,1.356-.2,2.029-.327a.337.337,0,0,0-.087-.654,11.059,11.059,0,0,0-2.1.409.3.3,0,0,0,.154.572Z" transform="translate(-101.207 -118.525)" fill="#212b18"/><path d="M149.766,165.059a9.9,9.9,0,0,0,1.125-.289c.289-.106.274-.611-.082-.582a9.734,9.734,0,0,0-1.221.226C149.184,164.506,149.342,165.155,149.766,165.059Z" transform="translate(-103.458 -119.635)" fill="#212b18"/><path d="M163.712,199.36a1.19,1.19,0,0,1,1.443-.481,2.933,2.933,0,0,1,1.4.914.48.48,0,0,0,.063.043,1.505,1.505,0,0,1-.563-.192.39.39,0,0,0-.389.673,2.252,2.252,0,0,0,2.953-.539c.24-.385-.269-.683-.577-.447a2.322,2.322,0,0,1-1.034.481.361.361,0,0,0,.12-.481c-.736-1.308-3.366-1.991-4.03-.26C162.952,199.461,163.553,199.711,163.712,199.36Z" transform="translate(-110.581 -137.206)" fill="#212b18"/><path d="M204.261,96.3a5.818,5.818,0,0,0,1.005-.24,3.891,3.891,0,0,1,1.226,0,.423.423,0,0,0,.519-.4c0-1.053,1.577-1.236,2.265-1.731a.277.277,0,0,0-.274-.481c-1.029.442-2.428.587-2.741,1.746a3.5,3.5,0,0,0-2.371.409c-.481.322-.616.808-.183,1.226S204.593,96.682,204.261,96.3Z" transform="translate(-131.539 -82.894)" fill="#212b18"/><path d="M202.2,113.424a1.467,1.467,0,0,1,1.923-1.972.375.375,0,0,0,.481-.51c-.423-.894.962-1.25,1.491-1.395.385-.106.216-.635-.159-.582-.962.149-2.087.692-2.111,1.659a2.121,2.121,0,0,0-2.222,3.034C201.772,113.977,202.33,113.746,202.2,113.424Z" transform="translate(-130.469 -90.966)" fill="#212b18"/><path d="M213.846,119.753a3.515,3.515,0,0,1,1.144-.635.327.327,0,0,0-.077-.591,1.789,1.789,0,0,0-1.621.673C212.952,119.57,213.495,120.118,213.846,119.753Z" transform="translate(-136.595 -95.924)" fill="#212b18"/><path d="M236.315,133.143a1.385,1.385,0,0,1,1.159,1.048c.072.3.034.606.236.866a2.544,2.544,0,0,0,.678.481,2.779,2.779,0,0,1,.89,1.313c.144.322.644.149.635-.168a2.068,2.068,0,0,0-.519-1.327c-.356-.433-.9-.572-1.058-1.111a2.212,2.212,0,0,0-1.923-1.789C236.036,132.388,235.92,133.066,236.315,133.143Z" transform="translate(-148.474 -103.159)" fill="#212b18"/><path d="M233.29,142.978a1.673,1.673,0,0,0,.346.289.289.289,0,0,0,.418-.322,1.876,1.876,0,0,0-.245-.452c-.1-.115-.188-.236-.279-.356a.361.361,0,0,0-.51,0,.37.37,0,0,0,0,.51Z" transform="translate(-146.839 -108.132)" fill="#212b18"/><path d="M216.338,136.969c.606.216.7.808.765,1.366a.337.337,0,0,0,.625.173c.548-.914-.3-2.034-1.173-2.323C216.054,136.022,215.847,136.8,216.338,136.969Z" transform="translate(-138.086 -105.086)" fill="#212b18"/><path d="M180.415,160.362c.245-.481-.481-.923-.736-.433a1.655,1.655,0,0,0,.428,2.183.361.361,0,0,0,.481-.481A1.351,1.351,0,0,1,180.415,160.362Z" transform="translate(-119.085 -117.313)" fill="#212b18"/><path d="M183.122,162.759a.264.264,0,0,0,.255-.438,1.072,1.072,0,0,1-.375-.885.295.295,0,0,0-.567-.159C182.251,161.831,182.477,162.648,183.122,162.759Z" transform="translate(-120.599 -118.012)" fill="#212b18"/><path d="M186.878,163.257a.428.428,0,0,0,.293-.519l-.245-.635a.428.428,0,1,0-.822.231c.082.207.168.418.255.625A.433.433,0,0,0,186.878,163.257Z" transform="translate(-122.523 -118.376)" fill="#212b18"/><path d="M183.61,168.851a.452.452,0,0,1-.279-.611.423.423,0,0,0-.731-.423,1.279,1.279,0,0,0,1.01,1.923.438.438,0,0,0,0-.87Z" transform="translate(-120.626 -121.421)" fill="#212b18"/><path d="M188.249,169.807h0l-.038-.034-.038-.034c.072.072,0,0,0-.029h0a.448.448,0,1,0-.774-.452.962.962,0,0,0,.769,1.476.466.466,0,0,0,.082-.928Zm-.125-.135h0a.087.087,0,0,1,0-.024h0a.086.086,0,0,1,0,.024Zm0,0Z" transform="translate(-123.13 -122.156)" fill="#212b18"/><path d="M194.771,169.817a.343.343,0,0,0-.591.346l.269.481a.332.332,0,0,0,.442.115.337.337,0,0,0,.139-.462C194.929,170.139,194.848,169.966,194.771,169.817Z" transform="translate(-126.704 -122.469)" fill="#212b18"/><path d="M191.779,175.615a.423.423,0,0,0-.6.6,6.851,6.851,0,0,0,.515.481.414.414,0,1,0,.582-.582C192.115,175.947,191.947,175.783,191.779,175.615Z" transform="translate(-125.106 -125.502)" fill="#212b18"/><path d="M175.693,164.7a.443.443,0,0,1,0-.221.418.418,0,0,0-.284-.5.414.414,0,0,0-.51.289,1.116,1.116,0,0,0,.442,1.2c.293.2.712-.207.481-.5a1.16,1.16,0,0,1-.13-.264Z" transform="translate(-116.7 -119.521)" fill="#212b18"/><path d="M330.15,97.616a6.213,6.213,0,0,0-2.073,1.7,3.57,3.57,0,0,0-.962,2.236.337.337,0,0,0,.62.168c.394-.6.572-1.313,1-1.923a5.66,5.66,0,0,1,1.784-1.592C330.905,97.991,330.549,97.419,330.15,97.616Z" transform="translate(-195.738 -85.054)" fill="#212b18"/><path d="M330.571,103.992a.4.4,0,0,0,.731.308c.255-.4.428-.846.707-1.241a5.291,5.291,0,0,1,1.01-1.068c.351-.284-.125-.909-.481-.635A4.88,4.88,0,0,0,330.571,103.992Z" transform="translate(-197.529 -86.982)" fill="#212b18"/><path d="M326.118,189.643a35.561,35.561,0,0,1,5.208.226c.442.087.635-.577.188-.683a10.039,10.039,0,0,0-5.472-.135.3.3,0,0,0,.077.591Z" transform="translate(-195.072 -132.37)" fill="#212b18"/><path d="M290.359,238.734a3.15,3.15,0,0,0-1.173-.914.337.337,0,0,0-.375.481,5.609,5.609,0,0,0,.938.962,9.507,9.507,0,0,1,.962,1.063c.293.38.962,0,.654-.385a11.182,11.182,0,0,0-1.005-1.207Z" transform="translate(-175.835 -157.856)" fill="#212b18"/><path d="M199.78,188.49a.308.308,0,0,0-.236-.558,2.662,2.662,0,0,0-2.164,3.188,3.1,3.1,0,0,0-2.587,1.957c-.159.375.481.644.654.279a2.4,2.4,0,0,1,2.5-1.38c.317.043.75-.3.481-.64C197.462,190.057,198.847,189.149,199.78,188.49Z" transform="translate(-127.034 -131.957)" fill="#212b18"/><path d="M207.945,187.27c.038-.058-.024.034,0,0s.067-.082.1-.125a.365.365,0,0,0-.058-.447.38.38,0,0,0-.442-.058.962.962,0,0,0-.418,1.173.38.38,0,0,0,.731-.2.322.322,0,0,1,0-.2Z" transform="translate(-133.415 -131.267)" fill="#212b18"/><path d="M206.073,193.851a.424.424,0,1,0,.817.226,1.693,1.693,0,0,1,.769-.808.385.385,0,0,0-.293-.7A1.923,1.923,0,0,0,206.073,193.851Z" transform="translate(-132.895 -134.361)" fill="#212b18"/><path d="M223.839,181.878a.481.481,0,0,0,0-.933,2.836,2.836,0,0,0-2.885,3.679.391.391,0,0,0,.755-.207A2.036,2.036,0,0,1,223.839,181.878Z" transform="translate(-140.567 -128.327)" fill="#212b18"/><path d="M268.741,150.019c.063.322.62.255.582-.082-.125-1.255,1.443-1.318,2.294-1.52a.279.279,0,0,0,0-.534,3.169,3.169,0,0,0-2.332.582c-1-.269-1.717-1.01-2.847-.89a7.807,7.807,0,0,0-3.5,1.606,4.017,4.017,0,0,0-1.6,4.967c.111.24.457.029.356-.207-.962-2.193,1.077-3.982,2.813-4.9a3.505,3.505,0,0,1,3.366-.428,5.109,5.109,0,0,0,.962.409,1.587,1.587,0,0,0-.1,1Z" transform="translate(-161.416 -111.004)" fill="#212b18"/><path d="M293.791,154.157c.524-1.707,2.51-1.443,3.9-1.481.361,0,.481-.582.091-.659-1.736-.351-4.087-.024-4.616,1.967a.327.327,0,0,0,.63.173Z" transform="translate(-178.109 -113.253)" fill="#212b18"/><path d="M321.069,134.138a2.641,2.641,0,0,0-2.231,1.308c-.274.394.365.76.644.375a4.648,4.648,0,0,1,1.717-1.2.26.26,0,0,0-.13-.481Z" transform="translate(-191.408 -104.029)" fill="#212b18"/><path d="M322.869,147.69a.241.241,0,0,0,.24.418l.255-.13a.24.24,0,0,0,.087-.327.245.245,0,0,0-.332-.087Z" transform="translate(-193.472 -110.989)" fill="#212b18"/><path d="M315.651,173.288c-.515-.192-.721.62-.226.817a6.9,6.9,0,0,1,1.707,1.169c.308.25.8-.058.577-.447A3.775,3.775,0,0,0,315.651,173.288Z" transform="translate(-189.524 -124.344)" fill="#212b18"/><path d="M319.535,171.879a3.27,3.27,0,0,0-1.948-1.4c-.279-.082-.481.361-.2.481a4.718,4.718,0,0,1,1.635,1.318C319.276,172.557,319.723,172.2,319.535,171.879Z" transform="translate(-190.619 -122.896)" fill="#212b18"/><path d="M321.8,169.3a2.015,2.015,0,0,0-.654-.548l-.712-.481c-.414-.289-.8.385-.394.673l.668.481a2.019,2.019,0,0,0,.7.409.356.356,0,0,0,.394-.534Z" transform="translate(-191.978 -121.72)" fill="#212b18"/><path d="M323.848,166.273a1.443,1.443,0,0,0-1.13-.875.375.375,0,0,0-.452.26.37.37,0,0,0,.255.452,1.51,1.51,0,0,1,.741.5.356.356,0,0,0,.587-.341Z" transform="translate(-193.215 -120.257)" fill="#212b18"/><path d="M325.923,162.775a.293.293,0,0,0,0-.385l-.356-.274a.38.38,0,0,0-.231-.1.327.327,0,0,0-.164.611l.394.216A.289.289,0,0,0,325.923,162.775Z" transform="translate(-194.645 -118.509)" fill="#212b18"/><path d="M324.595,110.095a8.753,8.753,0,0,0-1.231-.2c-.221-.029-.414.212-.414.418a.423.423,0,0,0,.414.414,8.2,8.2,0,0,0,1.135.091.37.37,0,0,0,.1-.726Z" transform="translate(-193.577 -91.45)" fill="#212b18"/><path d="M326.663,113.135c-.418-.135-.837-.255-1.26-.37a.337.337,0,0,0-.183.644c.418.139.837.269,1.26.385a.342.342,0,0,0,.183-.659Z" transform="translate(-194.645 -92.937)" fill="#212b18"/><path d="M231.36,187a.409.409,0,0,0-.4.4c-.077.683.389,1.548,1.159,1.52a.264.264,0,0,0,.183-.442,1.308,1.308,0,0,1-.543-1.077.4.4,0,0,0-.4-.4Z" transform="translate(-145.819 -131.477)" fill="#212b18"/><path d="M235.42,186.67a.317.317,0,0,0-.606,0,1.443,1.443,0,0,0,.654,1.486.313.313,0,0,0,.375-.481,1.4,1.4,0,0,1-.423-1Z" transform="translate(-147.81 -131.19)" fill="#212b18"/><path d="M188.343,198.441l-.072.394a.26.26,0,0,0,.149.3.255.255,0,0,0,.322-.106l.178-.346a.317.317,0,1,0-.577-.245Z" transform="translate(-123.657 -137.292)" fill="#212b18"/><path d="M166.536,215.4a4.02,4.02,0,0,1,.808-1.741c.293-.337-.2-.837-.481-.481a3.313,3.313,0,0,0-.923,2.154.313.313,0,0,0,.6.067Z" transform="translate(-112.068 -145.003)" fill="#212b18"/><path d="M170.474,215.41c.077-.289.034-.582.087-.875a1.876,1.876,0,0,1,.4-.861c.264-.322-.173-.784-.481-.481-.481.524-1.015,1.6-.524,2.27a.279.279,0,0,0,.515-.053Z" transform="translate(-114.054 -145.024)" fill="#212b18"/><path d="M174.129,215.033a.332.332,0,0,0,.418-.322,1.125,1.125,0,0,0-.038-.25,1.055,1.055,0,0,1-.043-.183.265.265,0,0,1,.111-.26c.414-.365-.2-.962-.611-.606a1.125,1.125,0,0,0-.356.842C173.619,214.566,173.8,214.98,174.129,215.033Z" transform="translate(-116.05 -145.132)" fill="#212b18"/><path d="M296.777,210.6a1.731,1.731,0,0,1,.962,1.443.332.332,0,0,0,.664,0,2.145,2.145,0,0,0-1.274-2.082C296.7,209.782,296.325,210.407,296.777,210.6Z" transform="translate(-179.883 -143.382)" fill="#212b18"/><path d="M300.78,209.619a.274.274,0,0,0,.433-.332,11.542,11.542,0,0,0-1.289-1.7c-.164-.207-.515.063-.37.284a11.98,11.98,0,0,0,1.226,1.746Z" transform="translate(-181.413 -142.128)" fill="#212b18"/><path d="M302.5,206.755a.769.769,0,0,0,.563.245.284.284,0,0,0,.264-.351c-.034-.245-.245-.375-.428-.515l-.5-.389a.375.375,0,0,0-.51.13.385.385,0,0,0,.135.51Z" transform="translate(-182.62 -141.182)" fill="#212b18"/><path d="M305.226,204.479c.25.231.678-.063.481-.37a8.044,8.044,0,0,0-.664-.837.34.34,0,1,0-.481.481A6.289,6.289,0,0,0,305.226,204.479Z" transform="translate(-183.98 -139.873)" fill="#212b18"/><path d="M308.966,201.495l.394.072a.274.274,0,0,0,.317-.159.264.264,0,0,0-.111-.337l-.346-.178a.327.327,0,1,0-.255.6Z" transform="translate(-186.205 -138.672)" fill="#212b18"/><path d="M259.172,229.245a1.924,1.924,0,0,1,1.606-.313c.539.13.832.543,1.313.769a.322.322,0,0,0,.481-.361c-.115-.716-1.015-1.092-1.649-1.2a2.688,2.688,0,0,0-2.1.481C258.442,228.894,258.783,229.514,259.172,229.245Z" transform="translate(-160.2 -152.809)" fill="#212b18"/><path d="M247.866,222.693a5.53,5.53,0,0,1,1.9-.8.313.313,0,0,0-.082-.611,3.145,3.145,0,0,0-2.212.741C247.077,222.323,247.462,223,247.866,222.693Z" transform="translate(-154.308 -149.273)" fill="#212b18"/><path d="M205.733,218.747c-.986-1.173,1.207-1.688,1.866-1.77.221-.029.481-.226.37-.481a1.548,1.548,0,0,1,.611-1.866c.26-.183.106-.7-.236-.558a2,2,0,0,0-1.226,2.2,2.547,2.547,0,0,0-1.923.986,1.476,1.476,0,0,0,.173,1.871C205.6,219.377,205.954,219.007,205.733,218.747Z" transform="translate(-132.314 -145.519)" fill="#212b18"/><path d="M221.736,216.681a2.616,2.616,0,0,1,.664-.856.279.279,0,0,0,0-.37.289.289,0,0,0-.361-.072,1.832,1.832,0,0,0-.928.962.361.361,0,0,0,.125.481.356.356,0,0,0,.5-.144Z" transform="translate(-140.686 -146.194)" fill="#212b18"/><path d="M237.013,232.294l.375-.149a.38.38,0,0,0,.207-.159.346.346,0,0,0,.038-.274.361.361,0,0,0-.438-.245l-.38.111a.375.375,0,0,0-.26.457A.38.38,0,0,0,237.013,232.294Z" transform="translate(-148.721 -154.555)" fill="#212b18"/><path d="M432.906,110.661a30.9,30.9,0,0,0-3.544,2.149,9.342,9.342,0,0,0-2.6,2.246c-.149.24.139.447.356.356a18.071,18.071,0,0,0,3.01-2.145c.981-.7,2.063-1.38,3.121-2.02a.341.341,0,0,0-.346-.587Z" transform="translate(-247.449 -91.829)" fill="#212b18"/><path d="M435.118,125.1a7.814,7.814,0,0,0-2.5.712,4.183,4.183,0,0,0-1.981,1.673.38.38,0,0,0,.515.515c.654-.351,1.149-.962,1.8-1.361a6.52,6.52,0,0,1,2.255-.837C435.6,125.732,435.5,125.049,435.118,125.1Z" transform="translate(-249.459 -99.341)" fill="#212b18"/><path d="M358.449,158.865a1.567,1.567,0,0,1,.582-2.794.327.327,0,0,0-.173-.63,2.183,2.183,0,0,0-1.481,3.289,2.4,2.4,0,0,0-2.121.75,1.544,1.544,0,0,0,.034,2.053c.269.289.664-.13.423-.423-.572-.707.183-1.342.8-1.534a3.52,3.52,0,0,1,1.645,0,.385.385,0,0,0,.293-.712Z" transform="translate(-210.154 -115.09)" fill="#212b18"/><path d="M366.336,157.683a.442.442,0,0,0,.3.529.433.433,0,0,0,.529-.3,1.6,1.6,0,0,1,.529-.779c.269-.255,0-.789-.38-.649A1.572,1.572,0,0,0,366.336,157.683Z" transform="translate(-216.093 -115.624)" fill="#212b18"/><path d="M395.251,125.1a6.251,6.251,0,0,0-2.784,1.058,1.688,1.688,0,0,0-.577.683c-.062.159,0,.5-.077.6-.173.25-1.274.289-1.659.524a2.914,2.914,0,0,0-1.207,1.524c-.149.39.51.673.678.289a2.205,2.205,0,0,1,2.164-1.332c.341-.029.63-.029.846-.341.164-.236.034-.4.111-.64.332-1.019,1.827-1.337,2.707-1.625a.385.385,0,0,0-.2-.741Z" transform="translate(-227.826 -99.34)" fill="#212b18"/><path d="M408.775,123.2a11.381,11.381,0,0,0-1.274.106.385.385,0,0,0-.37.37c0,.183.173.4.37.37a11.542,11.542,0,0,0,1.356-.216.322.322,0,0,0-.082-.63Z" transform="translate(-237.277 -98.357)" fill="#212b18"/><path d="M416.834,138.133a3.044,3.044,0,0,0-3.179.192l-.034.029a2.635,2.635,0,0,0-3.039-.144.367.367,0,0,0,.37.635,1.832,1.832,0,0,1,2.3.327.75.75,0,0,0,.51.515.433.433,0,0,0,.481-.644c-.043-.067-.1-.125-.149-.188a5.544,5.544,0,0,0,1.212-.188,4.328,4.328,0,0,1,1.245.087C416.94,138.845,417.2,138.321,416.834,138.133Z" transform="translate(-238.975 -105.923)" fill="#212b18"/><path d="M415.212,147.25a.841.841,0,0,0-.327.043,1.879,1.879,0,0,1-.26.077.418.418,0,0,0-.284.481.409.409,0,0,0,.481.284l.289-.106a1.973,1.973,0,0,0,.26-.144.361.361,0,0,0,.159-.394A.356.356,0,0,0,415.212,147.25Z" transform="translate(-241.017 -110.842)" fill="#212b18"/><path d="M364.766,195.1a.284.284,0,0,0,.414-.317c-.327-1.058-1.813-1.322-2.755-1.068a3.459,3.459,0,0,0-2.3,2.707.274.274,0,0,0,.524.149,3.05,3.05,0,0,1,1.847-2.14C363.449,194.146,364.011,194.626,364.766,195.1Z" transform="translate(-212.874 -134.915)" fill="#212b18"/><path d="M371.807,195.28a3.348,3.348,0,0,0-2.828,2.246c-.183.433.567.755.765.322a4.082,4.082,0,0,1,2.241-1.923C372.341,195.79,372.139,195.275,371.807,195.28Z" transform="translate(-217.457 -135.776)" fill="#212b18"/><path d="M364.594,211.7l-.8.135a.385.385,0,0,0,.207.741c.26-.058.524-.115.789-.183a.365.365,0,0,0,.25-.442.37.37,0,0,0-.442-.25Z" transform="translate(-214.64 -144.293)" fill="#212b18"/><path d="M333.344,221.131a2.589,2.589,0,0,0-.317,2.563.3.3,0,0,0,.558-.154c.029-.351-.038-.7,0-1.048a2.548,2.548,0,0,1,.394-.962C334.267,221.1,333.608,220.722,333.344,221.131Z" transform="translate(-198.691 -149.105)" fill="#212b18"/><path d="M336.273,221.271c-.346.563-.692,1.6-.255,2.193.13.173.5.212.543-.072a6.5,6.5,0,0,0-.024-.866,2.14,2.14,0,0,1,.245-.962.294.294,0,1,0-.51-.293Z" transform="translate(-200.254 -149.192)" fill="#212b18"/><path d="M339.746,222.19a.4.4,0,0,0-.394.394,2.3,2.3,0,0,0,.058.726.351.351,0,0,0,.668,0,2.048,2.048,0,0,0,.063-.731A.394.394,0,0,0,339.746,222.19Z" transform="translate(-202.088 -149.745)" fill="#212b18"/><path d="M358.514,149.672a4.992,4.992,0,0,0,.284-1.731c.043-.481-.712-.481-.755,0a4.733,4.733,0,0,0-.048,1.664.289.289,0,0,0,.519.067Z" transform="translate(-211.743 -111.013)" fill="#212b18"/><path d="M362.249,148.115a7.352,7.352,0,0,1,.313-1.991c.111-.3-.39-.51-.515-.216a3.847,3.847,0,0,0-.346,2.279C361.773,148.515,362.225,148.414,362.249,148.115Z" transform="translate(-213.67 -110.072)" fill="#212b18"/><path d="M366.472,146.274a3.674,3.674,0,0,0,.216-1.173.346.346,0,0,0-.236-.414.337.337,0,0,0-.414.236l-.087.63a1.689,1.689,0,0,0-.024.64.3.3,0,0,0,.543.082Z" transform="translate(-215.878 -109.505)" fill="#212b18"/><path d="M371.855,144a.279.279,0,0,0,.264-.2,1.719,1.719,0,0,1,.053-.308.346.346,0,0,0-.087-.317.337.337,0,0,0-.567.317,1.719,1.719,0,0,0,.053.308.269.269,0,0,0,.284.2Z" transform="translate(-218.785 -108.67)" fill="#212b18"/><path d="M418.349,122.287a.769.769,0,0,1,1.029-.327.42.42,0,0,0,.423-.726,1.582,1.582,0,0,0-2.2.616C417.348,122.344,418.089,122.777,418.349,122.287Z" transform="translate(-242.687 -97.222)" fill="#212b18"/><path d="M398.2,155.45a2.486,2.486,0,0,0-1.183.5.385.385,0,0,0,.39.664,2.4,2.4,0,0,0,1.024-.769.269.269,0,0,0-.231-.4Z" transform="translate(-231.928 -115.099)" fill="#212b18"/><path d="M396.491,165.616a8.819,8.819,0,0,0-2.529,6.545c.034.361.625.515.688.1a10.749,10.749,0,0,1,2.52-5.963C397.582,165.837,396.9,165.159,396.491,165.616Z" transform="translate(-230.427 -120.298)" fill="#212b18"/><path d="M399.44,167.587c-1.072,1.034-2.226,2.885-1.8,4.448a.327.327,0,0,0,.63,0c.2-.644.2-1.327.433-1.972a5.385,5.385,0,0,1,1.255-1.952.37.37,0,0,0-.519-.524Z" transform="translate(-232.304 -121.355)" fill="#212b18"/><path d="M402.165,170.091c-.793.822-1.755,2.342-1.308,3.539.087.221.457.346.577.072.2-.481.24-.962.4-1.443a4.327,4.327,0,0,1,.923-1.568C403.117,170.284,402.54,169.7,402.165,170.091Z" transform="translate(-233.962 -122.633)" fill="#212b18"/><path d="M404.708,173.912a2.621,2.621,0,0,0-.745,2.02c.039.3.481.26.563,0a4.28,4.28,0,0,1,.649-1.659C405.377,174.018,404.939,173.672,404.708,173.912Z" transform="translate(-235.63 -124.641)" fill="#212b18"/><path d="M406.173,178.307a.37.37,0,0,0-.452.26,2.429,2.429,0,0,0-.077,1.125.29.29,0,0,0,.481.125,2.207,2.207,0,0,0,.313-1.053.38.38,0,0,0-.264-.457Z" transform="translate(-236.488 -126.958)" fill="#212b18"/><path d="M429.158,164.341c.385-.264.024-.894-.37-.63a3.539,3.539,0,0,0-1.669,3.058c.034.356.615.5.678.091A3.422,3.422,0,0,1,429.158,164.341Z" transform="translate(-247.654 -119.355)" fill="#212b18"/><path d="M430.208,167.458a2,2,0,0,0-.736,2c.091.365.716.3.673-.091a1.779,1.779,0,0,1,.438-1.534C430.833,167.583,430.468,167.246,430.208,167.458Z" transform="translate(-248.853 -121.298)" fill="#212b18"/><path d="M432.484,170.736a.962.962,0,0,0-.168,1.082.341.341,0,0,0,.635-.173v-.226h0c0-.038.048-.125,0-.067a.309.309,0,0,1,.038-.067c-.024.029,0,0,0,0a.39.39,0,1,0-.548-.548Z" transform="translate(-250.302 -122.96)" fill="#212b18"/><path d="M445.037,174.692c-.313-.139-.587.317-.269.481a26.336,26.336,0,0,1,5.458,3.626c.284.226.668-.13.409-.409a16.783,16.783,0,0,0-5.6-3.7Z" transform="translate(-256.743 -125.074)" fill="#212b18"/><path d="M459.285,181.038c-.245.1-.481.216-.731.327a.356.356,0,0,0-.125.481.361.361,0,0,0,.481.13c.207-.115.418-.226.62-.346a.332.332,0,0,0,.135-.409A.322.322,0,0,0,459.285,181.038Z" transform="translate(-263.884 -128.376)" fill="#212b18"/><path d="M340.152,233.555a18.23,18.23,0,0,1-4.087,1.106,16.4,16.4,0,0,0-3.847.721c-2.323.856-3.328,2.775-3.784,5.092-.067.337.433.481.519.144a7.511,7.511,0,0,1,1.616-3.419,6.4,6.4,0,0,1,3.953-1.577c1.9-.245,4.467-.149,5.886-1.649C340.556,233.8,340.4,233.468,340.152,233.555Z" transform="translate(-196.42 -155.638)" fill="#212b18"/><path d="M354.641,232.047a.343.343,0,1,0-.591.346l.361.63a1.5,1.5,0,0,0,.428.553.284.284,0,0,0,.423-.245,1.572,1.572,0,0,0-.26-.654Z" transform="translate(-209.697 -154.774)" fill="#212b18"/><path d="M357.6,230.406a.289.289,0,0,0-.289.481,1.5,1.5,0,0,1,.524.5,4.692,4.692,0,0,1,.3.673c.139.284.548.12.563-.154a1.842,1.842,0,0,0-1.1-1.505Z" transform="translate(-211.368 -154.004)" fill="#212b18"/><path d="M361.611,230.722a.337.337,0,0,0-.457-.12.341.341,0,0,0-.12.457c.106.212.216.418.341.62a.3.3,0,0,0,.38.125.3.3,0,0,0,.173-.356C361.837,231.2,361.726,230.962,361.611,230.722Z" transform="translate(-213.325 -154.089)" fill="#212b18"/><path d="M411.9,202.708c-3.982,1.7-7.92,3.52-11.863,5.29A25.237,25.237,0,0,0,394.9,210.5a2.721,2.721,0,0,0-1.116,3.1c.12.346.664.207.553-.154-.649-2.077,2.183-2.967,3.6-3.616,1.587-.731,3.164-1.486,4.741-2.231,3.154-1.486,6.323-2.957,9.449-4.515C412.392,202.968,412.157,202.6,411.9,202.708Z" transform="translate(-230.273 -139.621)" fill="#212b18"/><path d="M435.932,200.353a.346.346,0,0,0-.6.346l.375.567a1.043,1.043,0,0,0,.481.481.293.293,0,0,0,.37-.279,1.039,1.039,0,0,0-.264-.6Z" transform="translate(-251.903 -138.334)" fill="#212b18"/><path d="M438.184,198.771c-.159-.2-.481,0-.414.245a5.679,5.679,0,0,0,.591,1.37c.236.39.765.048.6-.346a5.645,5.645,0,0,0-.774-1.27Z" transform="translate(-253.179 -137.545)" fill="#212b18"/><path d="M441.871,198.307a.375.375,0,0,0-.5-.13.37.37,0,0,0-.13.481c.149.226.3.577.616.567a.3.3,0,0,0,.265-.149.481.481,0,0,0,.048-.264.633.633,0,0,0-.106-.24Z" transform="translate(-254.961 -137.254)" fill="#212b18"/><path d="M308.1,247.339a34.382,34.382,0,0,0-4.087,2.236.337.337,0,0,0,.341.577,34.253,34.253,0,0,0,3.929-2.376C308.471,247.646,308.375,247.223,308.1,247.339Z" transform="translate(-183.672 -162.791)" fill="#212b18"/><path d="M167.762,230.087a70.994,70.994,0,0,1-12.368-2.241c-3.621-1.039-7.213-2.924-11.06-3.029-2.308-.062-5.77.861-5.794,3.746-.024,3.525,3.934,4.015,6.549,4.169.4.024.39-.572,0-.611a7.646,7.646,0,0,1-4.578-1.616,2.4,2.4,0,0,1,.6-4.02c2.7-1.491,6.213-.245,8.877.717a55.029,55.029,0,0,0,17.763,3.674C168.277,230.885,168.258,230.135,167.762,230.087Z" transform="translate(-97.844 -151.108)" fill="#212b18"/><path d="M202.665,236.981a.481.481,0,0,0-.962,0c-.067.587-.1,1.558.543,1.827a.346.346,0,0,0,.394-.163,1.125,1.125,0,0,0,0-.822A3.288,3.288,0,0,1,202.665,236.981Z" transform="translate(-130.617 -157.174)" fill="#212b18"/><path d="M205.433,238.117a.428.428,0,0,0-.851,0,2.053,2.053,0,0,0,.591,1.625.356.356,0,0,0,.534-.3,3.145,3.145,0,0,0-.178-.664A2.346,2.346,0,0,1,205.433,238.117Z" transform="translate(-132.125 -157.815)" fill="#212b18"/><path d="M208.889,239.243c0-.4-.567-.38-.62,0a2.318,2.318,0,0,0,.063.909c.072.264.207.62.5.673a.269.269,0,0,0,.332-.188c.063-.255-.091-.438-.173-.668a1.765,1.765,0,0,1-.106-.726Z" transform="translate(-134.033 -158.445)" fill="#212b18"/><path d="M212.529,240.652a.376.376,0,1,0-.529.534l.481.481a.367.367,0,1,0,.519-.519Z" transform="translate(-135.922 -159.273)" fill="#212b18"/><path d="M181.137,243.8c-3.938-.962-8.055-1.395-12.055-2.034-.452-.072-.649.616-.192.692,4.03.668,8.1,1.572,12.166,1.923a.294.294,0,1,0,.082-.582Z" transform="translate(-113.465 -159.904)" fill="#212b18"/><path d="M248.642,258.4a5.439,5.439,0,0,0,2.226-.986c.26-.2,0-.64-.26-.442a5.136,5.136,0,0,1-2.1.962C248.161,257.982,248.311,258.458,248.642,258.4Z" transform="translate(-154.83 -167.779)" fill="#212b18"/><path d="M252.655,259.437a3.962,3.962,0,0,0,2.4-1.14.327.327,0,0,0-.394-.515,6.309,6.309,0,0,1-2.222.962C252,258.827,252.2,259.5,252.655,259.437Z" transform="translate(-156.847 -168.2)" fill="#212b18"/><path d="M257.073,260.852a3.547,3.547,0,0,0,2.4-1.053.313.313,0,0,0-.375-.481,5.636,5.636,0,0,1-2.015.88C256.664,260.246,256.645,260.89,257.073,260.852Z" transform="translate(-159.216 -169.004)" fill="#212b18"/><path d="M116.07,225.148a1.837,1.837,0,0,0,0,2.5.332.332,0,0,0,.515-.4,1.443,1.443,0,0,1,.048-1.558C116.921,225.307,116.387,224.763,116.07,225.148Z" transform="translate(-85.925 -151.213)" fill="#212b18"/><path d="M118.8,225.977c-.231.741-.438,2.029.183,2.64a.308.308,0,0,0,.481-.135,4.563,4.563,0,0,0-.082-1.082,3.583,3.583,0,0,1,.144-1.217C119.7,225.7,118.958,225.5,118.8,225.977Z" transform="translate(-87.48 -151.571)" fill="#212b18"/><path d="M123.179,227.029a.278.278,0,0,0-.481-.279,1.952,1.952,0,0,0,.212,2.645c.255.207.659-.048.481-.365A2.1,2.1,0,0,1,123.179,227.029Z" transform="translate(-89.403 -152.041)" fill="#212b18"/><path d="M128.11,228.235a3.446,3.446,0,0,0,.043.664.293.293,0,1,0,.587,0,6.247,6.247,0,0,0,.048-.664.341.341,0,0,0-.678,0Z" transform="translate(-92.43 -152.727)" fill="#212b18"/><path d="M78.3,237.419a4.808,4.808,0,0,1-2.188-1.861c-.231-.4-.832-.048-.625.365a3.813,3.813,0,0,0,2.553,2.111C78.388,238.083,78.658,237.6,78.3,237.419Z" transform="translate(-65.088 -156.593)" fill="#212b18"/><path d="M83.256,238.808a3.332,3.332,0,0,1-.962-.9c-.3-.481-1.048-.024-.736.433A2.717,2.717,0,0,0,83,239.462.357.357,0,0,0,83.256,238.808Z" transform="translate(-68.225 -157.799)" fill="#212b18"/><path d="M131.195,263.42c-.192-.5-1.015-.289-.817.226a4.7,4.7,0,0,0,1.308,2.222c.255.178.582-.12.5-.389a4.6,4.6,0,0,0-.481-.962A8.072,8.072,0,0,1,131.195,263.42Z" transform="translate(-93.591 -171.001)" fill="#212b18"/><path d="M133.544,263.291c-.274-.207-.558.221-.351.452a15.445,15.445,0,0,1,1.88,2.577.434.434,0,1,0,.75-.438A8.3,8.3,0,0,0,133.544,263.291Z" transform="translate(-95.032 -171.054)" fill="#212b18"/><path d="M137.839,265.787c.577.827.962,1.8,1.577,2.592a.37.37,0,0,0,.678-.284,7.422,7.422,0,0,0-1.443-2.794C138.319,264.8,137.487,265.277,137.839,265.787Z" transform="translate(-97.436 -172.016)" fill="#212b18"/><path d="M142.78,266.435c-.274-.279-.8.1-.558.428a15.246,15.246,0,0,1,1.443,2.356c.216.418.962.125.774-.322A7.526,7.526,0,0,0,142.78,266.435Z" transform="translate(-99.723 -172.664)" fill="#212b18"/><path d="M150.331,268.393c1.048.356,2.1.716,3.155,1.053a.3.3,0,0,0,.236-.553,33.183,33.183,0,0,0-7.67-2.544.365.365,0,0,0-.2.7c.26.058.51.135.765.2a.414.414,0,0,0-.043.481c.332.606.644,1.217,1.034,1.794a.4.4,0,1,0,.683-.4c-.25-.572-.553-1.111-.851-1.659.649.188,1.294.389,1.923.6v.043c.125.3.26.606.409.9a.365.365,0,0,0,.668-.279A2.553,2.553,0,0,0,150.331,268.393Z" transform="translate(-101.504 -172.665)" fill="#212b18"/><path d="M186.888,279.523a20.2,20.2,0,0,1,1.3,3.544c.135.481.8.269.726-.2a12.19,12.19,0,0,0-1.322-3.756C187.345,278.643,186.652,279.056,186.888,279.523Z" transform="translate(-122.918 -179.188)" fill="#212b18"/><path d="M191.053,279.186c.481,1.178.769,2.4,1.26,3.578.144.332.616.125.635-.173a5.972,5.972,0,0,0-1.274-3.664C191.467,278.647,190.9,278.8,191.053,279.186Z" transform="translate(-125.093 -179.125)" fill="#212b18"/><path d="M195.775,278.518c-.212-.558-1.111-.317-.9.245.183.481.356.962.539,1.443a2.789,2.789,0,0,0,.635,1.173.327.327,0,0,0,.553-.231,2.707,2.707,0,0,0-.313-1.284C196.121,279.408,195.948,278.96,195.775,278.518Z" transform="translate(-127.073 -178.823)" fill="#212b18"/><path d="M199.191,278.79a13.713,13.713,0,0,0,.375,1.808c.125.38.774.341.741-.1a13.063,13.063,0,0,0-.351-1.923C199.85,278.073,199.095,278.29,199.191,278.79Z" transform="translate(-129.326 -178.868)" fill="#212b18"/><path d="M265.254,284.286c.072-.524-.731-.75-.8-.221a7.92,7.92,0,0,0,.26,3.534.386.386,0,0,0,.745-.2A8.174,8.174,0,0,1,265.254,284.286Z" transform="translate(-163.161 -181.71)" fill="#212b18"/><path d="M268.263,283.546a10.138,10.138,0,0,0,.111,3.573.351.351,0,0,0,.683-.091c0-1.159-.087-2.318-.062-3.482C269,283.065,268.316,283.1,268.263,283.546Z" transform="translate(-165.131 -181.417)" fill="#212b18"/><path d="M272.819,284.358a.444.444,0,1,0-.856.236,20.572,20.572,0,0,0,.7,2.14.38.38,0,0,0,.731-.2,20.069,20.069,0,0,0-.572-2.174Z" transform="translate(-167.1 -181.849)" fill="#212b18"/><path d="M306.941,281.149a43.691,43.691,0,0,0,6.732-.317c1.12-.106,2.241-.207,3.366-.231.885,0,1.774.067,2.659.067a17.822,17.822,0,0,1-.274,2.4.293.293,0,0,0,.543.149,2.7,2.7,0,0,0-.226-2.568h.64a.269.269,0,0,0,.072-.524c-2-.692-4.487-.25-6.535,0a45.682,45.682,0,0,1-6.968.481C306.581,280.581,306.585,281.13,306.941,281.149Z" transform="translate(-185.127 -179.631)" fill="#212b18"/><path d="M335.732,284.906a.346.346,0,0,0,.62.082,2.534,2.534,0,0,0,.245-1.149,10.277,10.277,0,0,0,.024-1.332c-.024-.4-.625-.524-.726-.1a10.014,10.014,0,0,0-.192,1.255A2.591,2.591,0,0,0,335.732,284.906Z" transform="translate(-200.165 -180.868)" fill="#212b18"/><path d="M339.167,285.242a3.266,3.266,0,0,1,.164-1.361c.216-.6-.741-.861-.962-.26a3.27,3.27,0,0,0-.135,1.746.481.481,0,0,0,.933-.125Z" transform="translate(-201.479 -181.459)" fill="#212b18"/><path d="M227.7,279.734c-1.659-.414-3.424-.481-5.107-.8s-3.241-.649-4.871-.962a28.668,28.668,0,0,0-9.189-.481h0a94.556,94.556,0,0,1,9.92,1.356c1.548.279,3.1.572,4.65.832a18.866,18.866,0,0,0,4.53.481.245.245,0,0,0,.067-.423Z" transform="translate(-134.178 -178.351)" fill="#212b18"/><path d="M93.852,248.593c-.361-.115-.515.452-.154.567,1.683.558,3.193,1.395,4.809,2.073.269.115.38-.293.183-.438A16.11,16.11,0,0,0,93.852,248.593Z" transform="translate(-74.459 -163.444)" fill="#212b18"/><path d="M361.543,265.3a127.03,127.03,0,0,1,16.725-5.674,21.773,21.773,0,0,0-1.664,4.549c-.058.26.322.457.452.192.779-1.6,1.39-3.27,2.15-4.876a.51.51,0,0,0,.024-.111l.659-.168a.394.394,0,0,0-.091.135,21.482,21.482,0,0,0-1.851,6.559c-.024.308.414.327.5.067.75-2.125,1.27-4.328,2.116-6.41a.327.327,0,0,0-.24-.481c1.2-.3,2.4-.6,3.611-.87.481-.106.264-.789-.192-.707a95.975,95.975,0,0,0-22.486,7.29C360.937,264.951,361.23,265.432,361.543,265.3Z" transform="translate(-213.392 -168.074)" fill="#212b18"/><path d="M401.792,260.7c-.615,1.592-1.236,3.183-1.8,4.809-.168.481.563.659.75.207.644-1.582,1.236-3.188,1.832-4.809C402.763,260.424,401.979,260.222,401.792,260.7Z" transform="translate(-233.559 -169.596)" fill="#212b18"/><path d="M435.446,238.2c-.543.2-1.072.428-1.6.664a.346.346,0,0,0-.481.216l-.726.341a.442.442,0,0,0-.846-.029c-.053.168-.12.341-.173.515l-.587.274c-.414.192-.149.75.24.741a42.115,42.115,0,0,0-1.794,5.29.279.279,0,0,0,.51.216,21.9,21.9,0,0,0,2.4-5.977l.635-.289a25.9,25.9,0,0,0-.9,3.222.327.327,0,0,0,.63.173,33.15,33.15,0,0,0,1.169-3.847c.611-.284,1.217-.582,1.8-.909C436.052,238.649,435.826,238.058,435.446,238.2Z" transform="translate(-248.873 -158.044)" fill="#212b18"/><path d="M157.829,329.743a.429.429,0,0,0-.741-.433,1.121,1.121,0,0,0,.707,1.707c.317.029.409-.375.24-.572S157.68,330.013,157.829,329.743Z" transform="translate(-107.391 -205.245)" fill="#212b18"/><path d="M160.747,331.3c-.034-.515-.827-.524-.808,0a2.145,2.145,0,0,0,.784,1.611.428.428,0,0,0,.577,0,.414.414,0,0,0,0-.582,1.51,1.51,0,0,1-.553-1.029Z" transform="translate(-108.953 -206.185)" fill="#212b18"/></g></g></svg>