<svg xmlns="http://www.w3.org/2000/svg" width="330.376" height="408.031" viewBox="0 0 330.376 408.031"><defs><style>.a{fill:#e8cdc2;}.b{fill:#3a3c49;}.c,.j{fill:#344154;}.d{fill:#f4e3d3;}.e,.k{fill:#e0bdba;}.f{fill:#e2a36a;}.g{fill:#d69356;}.h{fill:#fff4e3;}.i{fill:#f4be84;}.ab,.ad,.ak,.j{opacity:0.2;}.k,.w{opacity:0.4;}.l,.m{fill:#eaa24f;}.m{opacity:0.1;}.n{fill:#dd9043;}.o{fill:#f8ddd2;}.p{fill:#ffeadf;}.q{fill:#efd3c7;}.r{fill:#c2752d;}.s{fill:#ffe4cb;}.t{fill:#865634;}.u,.w{fill:#9a6237;}.v{fill:#f8e7c9;}.x{fill:#e1a26a;}.y{fill:#d18139;}.z{fill:#6595bf;}.aa{fill:#86a2bc;}.ab,.ae{fill:#576287;}.ac{fill:#5c708e;}.af{fill:#96b6cc;}.ag,.ak{fill:#efdfc7;}.ah{fill:#ceb195;}.ai{fill:#e5c8ac;}.aj{fill:#edd0b4;}</style></defs><g transform="translate(-83.465 -44.929)"><g transform="translate(83.465 44.929)"><path class="a" d="M163.529,138.79s-15.805-10.862-35.259-6.01C128.27,132.78,148.523,154.163,163.529,138.79Z" transform="translate(-87.097 -51.951)"/><path class="b" d="M167.508,482.57a22.971,22.971,0,0,0-.579,5.872h14.05c.193-4.677-7.351,2.591-11.119-5.872Z" transform="translate(-90.231 -80.411)"/><path class="c" d="M169.566,464.467c-2.646-71.676.579-122.437,1.838-195.088-1.764-14.841-21.586-11.542-32.236-1.5-15.76,14.877-.6,39.936-.6,39.936s2.941,40.139,6.166,62.34c-2.251,8.849-3.078,28.928-2.518,34.919,1.121,11.946,18.378,59.418,18.378,59.418Z" transform="translate(-87.4 -62.308)"/><path class="c" d="M115.571,464.243c3.611-25.031,10.365-46.387,11.385-58.094,1.066-12.387,1.939-36.3,1.976-39.321,5.045-23.947,7-59.234,7-59.234s16.706-21.88,2.058-37.189c-15.622-12.286-33.5-21.466-37.336-4.925-1.3,5.6-2.224,15.015-2.417,25.179s8.123,65.391,7.48,75.2a3.363,3.363,0,0,0,.119,1.075v.055s-4.245,27.889-5.514,38.273,7.149,58.977,7.149,58.977Z" transform="translate(-84.662 -62.084)"/><path class="b" d="M110.177,482.57c-3.336,8.463-8.877,1.195-8.518,5.872H113.3a22.973,22.973,0,0,0-.79-5.872Z" transform="translate(-84.939 -80.411)"/><path class="d" d="M92.035,152.03c5.752-6.35,50.21-12.92,50.21-12.92s34.506,12.148,38.163,19.784c1.507,3.143.487,23.479-2.27,32.649-3.464,11.514-8.335,32.594-9.456,42.381-1.231,10.825-.23,21.576-.23,24.067,0,1.222-.708,6.432-26.9,7.076-14.289.368-40.267-2.215-41.489-7.636-.248-1.121,4.025-22.2,3.492-30.159s-8.188-23.727-11.643-37.593S89.867,154.631,92.035,152.03Z" transform="translate(-83.981 -52.565)"/><path class="a" d="M114.089,254.08c-2.463-2.215,3.519-27.338,5.771-32.309s47.554-11.946,46.865-12.718-40.12-2.426-45.615-6.717-8.509-39.771-8.013-42.2,18.553-8.978,18.553-8.978l-3.216-9.52c-13.573,2.472-32.75,6.579-36.4,10.6-2.169,2.582-3.584,23.782-.119,37.676s11.11,29.626,11.643,37.593-3.74,29.038-3.492,30.159c1.222,5.422,27.2,8,41.489,7.636,13.839-.358,21.54-2.077,24.728-3.8h0C141.776,266.173,116.552,256.276,114.089,254.08Z" transform="translate(-83.98 -52.77)"/><path class="e" d="M107.759,231.95c.459-4.411.064-5.936-1.764-18.764s-5.238-40.855-5.238-40.855L91.77,191.067c2.022,10.825,11.588,33.449,11.946,38.9.533,7.958-3.74,29.038-3.492,30.159.3,1.332.57,1.911,3.464,2.95C104.4,255.7,107.4,235.433,107.759,231.95Z" transform="translate(-84.138 -55.258)"/><path class="d" d="M91.809,151.348C97.57,144.98,142.12,138.4,142.12,138.4s34.6,12.176,38.264,19.849c1.507,3.152.478,23.534-2.279,32.714-3.464,11.551-7.2,31.5-8.27,41.352-1.231,10.852-.68,24.333-.68,26.823,0,1.231-1.47,4.879-27.706,5.559-14.317.368-40.35-2.224-41.572-7.655-.257-1.121,4.08-22.256,3.547-30.233s-8.206-23.773-11.67-37.676S89.649,153.93,91.809,151.348Z" transform="translate(-83.965 -52.507)"/><path class="f" d="M161.177,146.753s-1.838,6.01-12.635,6.387c-16.035.57-21.062-11.156-21.062-11.156l4.282-28.744L161.59,126.8Z" transform="translate(-87.033 -50.467)"/><path class="g" d="M161.4,135.444v-1.838a22.882,22.882,0,0,0-1.553-7.535L131.709,113.28l-4.282,28.744c-.561.165,5.514,7.2,8.381,8.16C149.481,149.78,161.4,135.444,161.4,135.444Z" transform="translate(-87.026 -50.471)"/><path class="a" d="M113.859,257.57c-2.472-2.224,3.575-31.381,5.826-36.362s32.686-13.481,32.025-14.3-25.234-.919-30.747-5.174-8.518-39.845-8.022-42.271,18.553-9,18.553-9l-3.216-9.529C114.7,143.4,95.48,147.52,91.8,151.554c-2.178,2.582-3.584,23.828-.119,37.676s11.137,29.69,11.67,37.676-3.621,29.3-3.731,30.444c-.5,5.514,26.511,9.851,40.819,9.189,20.216-.919,29.314-4.448,28.643-7.351C142.346,266.346,116.349,259.784,113.859,257.57Z" transform="translate(-83.962 -52.713)"/><path class="e" d="M123.37,142.493s7.792,14.969,27.136,13.876c0,0,11.413,0,13.931-9.465l-.919-.533-8.831,8.178a28.864,28.864,0,0,1-11.9-.055L124.408,142.3Z" transform="translate(-86.7 -52.824)"/><path class="h" d="M166.3,146.138l-.414-6.708s-6.919,3.676-7.958,5.514-.459,9.336-.459,9.336S164.937,152.157,166.3,146.138Z" transform="translate(-89.451 -52.591)"/><path class="h" d="M142.906,153.731s2.187-8.16,1.709-10.053c-.221-.919-3.363-1.893-8.224-4.714a49.456,49.456,0,0,1-8.427-6.074l-3.464,8.647S132.311,152.178,142.906,153.731Z" transform="translate(-86.792 -52.061)"/><path class="d" d="M133.234,149.706a39.256,39.256,0,0,1-8.684-8.169l3.464-8.647a49.457,49.457,0,0,0,8.427,6.074c.423.248.818.459,1.213.68Z" transform="translate(-86.796 -52.061)"/><path class="d" d="M183.089,157.161c-4.356,1.93-8.528,25.629-8.39,31.124s22.376,46.7,36.693,43.235C247.166,222.846,190.064,154.074,183.089,157.161Z" transform="translate(-90.861 -54.02)"/><path class="a" d="M217.935,233.622a14.813,14.813,0,0,1-4.181,1.948c-10.209,2.472-23.892-14.161-31.243-27.972l1.838-7.278C193.427,214.848,208.589,233.245,217.935,233.622Z" transform="translate(-91.495 -57.528)"/><g transform="translate(105.884 108.875)"><path class="i" d="M213.485,232.734c-7.094.175-14.133-6.947-14.7-22.44-.68-18.581,2.656-46.341,2.656-46.341l3.676-.542s17.313,31.308,19.463,47.573C226.01,221.909,222.233,232.531,213.485,232.734Z" transform="translate(-198.69 -163.41)"/><path class="f" d="M221.521,206.425c1.176,10.329,0,22.642-9.474,23.57-5.1.5-8.178-4.071-10.687-7.3,2.757,6.92,7.535,10.108,12.341,10.035,8.748-.2,12.525-10.825,11.091-21.751-2.15-16.265-19.463-47.573-19.463-47.573l-.652.092C208.188,170.137,220.033,193.358,221.521,206.425Z" transform="translate(-198.907 -163.41)"/></g><path class="f" d="M211.682,145.93s-.165,7.351-.836,9.345-6.276,8.059-7.811,8.371-1.985-2.031-1.378-5.229S211.682,145.93,211.682,145.93Z" transform="translate(-93.026 -53.118)"/><path class="j" d="M107.607,469.7s-8.482-49.622-7.149-58.977,5.514-38.273,5.514-38.273L103.076,323.8l33.026,3.336-7.011,45.147-.083,5s-12.479.331-18.93-1.452c0,0-5.137,28.358-5.514,35.691s5.449,58.177,5.449,58.177Z" transform="translate(-84.831 -67.539)"/><path class="d" d="M169.672,270.058s-6.791,5.936-30.692,5.936-38.714-8.335-38.714-8.335a123.926,123.926,0,0,0-2.987,22.118c-.138,6.432.919,73.385.919,73.385s38.687,7.783,71.373-1.112Z" transform="translate(-84.584 -62.987)"/><path class="e" d="M144.756,157.264s-13.324,1.838-14.317,2.83c0,0,4.87,56.661,4.668,75.058-.11,9.777-3.676,31.243-3.676,31.243l-1.976-.211s4.31-22.973,4.209-31.4c-.487-40.938-5.33-74.653-4.494-75.352,1.838-1.581,14.51-3.372,14.51-3.372Z" transform="translate(-87.163 -53.939)"/><circle class="e" cx="2.775" cy="2.775" r="2.775" transform="translate(47.945 110.391)"/><circle class="e" cx="2.775" cy="2.775" r="2.775" transform="translate(49.838 141.074)"/><circle class="e" cx="2.775" cy="2.775" r="2.775" transform="translate(50.84 172.759)"/><path class="j" d="M150.106,379.814s11.7-.156,19.784-2.821V371.02l-24.912,3.529.625,4.668c-2.251,8.849-3.078,28.928-2.518,34.919,1.121,11.946,18.378,59.418,18.378,59.418h2.9s-16.7-49.622-17.46-60.061S150.106,379.814,150.106,379.814Z" transform="translate(-88.285 -71.367)"/><circle class="e" cx="2.775" cy="2.775" r="2.775" transform="translate(49.057 200.115)"/><path class="a" d="M169.532,362.242v-5.118a155.115,155.115,0,0,1-56.7,1s-.671-44.026-.671-57.038a142.7,142.7,0,0,1,1.948-23.46L99.776,270a118.976,118.976,0,0,0-2.527,20c-.138,6.432.919,73.385.919,73.385S136.845,371.137,169.532,362.242Z" transform="translate(-84.581 -63.177)"/><path class="h" d="M139.521,280.507c17.46,0,26.833-2.977,30.325-4.843v-5.605s-6.791,5.936-30.692,5.936-38.714-8.335-38.714-8.335-.414,1.774-.919,4.539C103.343,274.092,117.908,280.507,139.521,280.507Z" transform="translate(-84.766 -62.987)"/><path class="e" d="M110.218,181.2c1.636-.386,4.971,16.963,9.419,26.079l-7.112,7.351S108.362,182.7,110.218,181.2Z" transform="translate(-85.595 -55.977)"/><path class="k" d="M166.013,191.638a28.142,28.142,0,0,1-2.757.919c0-.074,1.838-1.13,2.849-1.755.441-.266,3.758-1.838,3.418-2.757-.266-.7-1.195,0-3.951,1.268a26.079,26.079,0,0,1-3.418,1.443,19.232,19.232,0,0,1,2.426-1.562c.5-.3,3.317-1.608,2.757-2.628-.285-.533-1.645.294-3.363,1.231s-2.362,1.222-3.611,1.838c-.478.257-1.838,1-3.29,1.838a9.5,9.5,0,0,1,2.058-2.757c1.5-1.213.919-2.04.57-2.114-.193-.046-.487.211-1.47.992s-2.959,2.757-4.071,3.915a29.412,29.412,0,0,0-2.141,2.757h0l-.2.294c-.285.092-2.95.992-6.975,2.5l-.5-.919a192.1,192.1,0,0,0-28.634,14.3s-11.744,12.213-11.2,20.189a72.357,72.357,0,0,1-.919,12.341,7.415,7.415,0,0,0,1.277.211,18.057,18.057,0,0,0,7.544-1.066,36.38,36.38,0,0,0,11.027-6.322c.487-.4.983-.818,1.489-1.259,8.6-7.2,19.61-18.93,25.206-27.393l-.983-1.838c2.812-4.043,4.595-6.772,4.595-6.772a40.379,40.379,0,0,0,10.347-2.316c4.834-1.921,5.284-2.757,5.027-3.207,0-.064-.138-.074-.211-.1-.441-.165-1.424.23-2.683.818a12.4,12.4,0,0,1-2.362.744c-.083-.147,1.7-.781,2.757-1.415.441-.266,3.547-1.645,3.317-2.757C169.762,189.533,167.317,191.178,166.013,191.638Zm-14.05,3.1v-.055h0c0,.018,0,.037,0,.055Z" transform="translate(-85.096 -56.399)"/><g transform="translate(70.924 62.376)"><path class="l" d="M199.566,160.5C185.994,182.556,172.338,198.84,164,193.721c-5.284-3.253-3.933-12.121,1.277-23.892l.533.175.8-1.755-.524-.211a181.038,181.038,0,0,1,9.254-17.377l.441.276,1.4-2.307h-.606c.331-.551.671-1.1,1.011-1.654,3.841-6.249,7.682-12.029,11.413-16.982l.349.156a8.923,8.923,0,0,0,1.011-1.351l-.312-.184c9.079-11.8,17.322-18.378,23.1-14.859C221.482,118.9,213.129,138.43,199.566,160.5Z" transform="translate(-160.646 -112.809)"/><path class="m" d="M189.569,154.843c-10.182,16.541-19.7,29.2-23.69,26.75s3-16.66,13.177-33.21,19.693-29.2,23.681-26.75S199.742,138.284,189.569,154.843Z" transform="translate(-160.978 -113.5)"/><path class="n" d="M213.192,113.778a6.607,6.607,0,0,0-4.778-.781,6.277,6.277,0,0,1,1.47.643c8.041,4.953,0,23.8-13.122,45.119s-26.29,37.014-34.331,32.07a5.881,5.881,0,0,1-1.241-1.02,6.653,6.653,0,0,0,2.849,3.915c8.335,5.118,21.99-11.147,35.562-33.219S221.527,118.906,213.192,113.778Z" transform="translate(-160.69 -112.812)"/><g transform="translate(5.159 15.756)"><path class="n" d="M198.426,134.674a19.839,19.839,0,0,0,9.061-.2,19.858,19.858,0,0,0-8.068-4.135,16.926,16.926,0,0,0-6.488-.129l-1.011,1.351A17.11,17.11,0,0,0,198.426,134.674Z" transform="translate(-168.34 -129.955)"/><path class="n" d="M172.086,177.585a19.794,19.794,0,0,0,9.051-.2,19.784,19.784,0,0,0-8.059-4.135,15.824,15.824,0,0,0-6.019-.138l-.8,1.755A15.952,15.952,0,0,0,172.086,177.585Z" transform="translate(-166.26 -133.436)"/><path class="n" d="M184.692,157.258a24.866,24.866,0,0,0,11.34-.652,24.875,24.875,0,0,0-10.283-4.824,20.354,20.354,0,0,0-7.232,0l-1.4,2.307A21.135,21.135,0,0,0,184.692,157.258Z" transform="translate(-167.14 -131.698)"/></g></g><g transform="translate(0 97.241)"><path class="a" d="M92.944,151.1c-15.686,4.677-11.441,85.01,9.309,85.855,23.148.919,11.312-25.73,7.921-46.709C106.93,169.864,104.4,147.69,92.944,151.1Z" transform="translate(-83.465 -150.75)"/></g><path class="e" d="M104.7,234.382c-18.682-.754-23.975-65.97-13.389-82.382-13.71,9.64-9.042,84.2,10.944,85.019,6.515.257,10.494-1.783,12.764-5.321C112.655,233.582,109.329,234.575,104.7,234.382Z" transform="translate(-83.465 -53.61)"/><g transform="translate(12.343 134.89)"><path class="i" d="M98.526,235.929c-3.841-6.028-1.268-17.276,11.781-25.831,15.622-10.274,40.083-18.378,40.083-18.378l1.838,3.85s-17.377,26.952-30.325,37.281C113.266,239.817,103.268,243.354,98.526,235.929Z" transform="translate(-96.897 -191.72)"/></g><path class="f" d="M121.247,230.276c-7.94,5.854-17,9.263-22.707,5.707,0,.074.074.147.119.221,4.742,7.425,14.7,3.887,23.4-3.042,12.865-10.329,30.325-37.281,30.325-37.281l-.377-.79C150.082,197.994,134.259,220.737,121.247,230.276Z" transform="translate(-84.687 -57.104)"/><path class="a" d="M142.837,193.48a191.061,191.061,0,0,0-32.53,16.761c-13.049,8.555-15.622,19.8-11.781,25.831,4.742,7.425,14.7,3.887,23.4-3.042s20.777-19.7,26.695-28.652Z" transform="translate(-84.554 -56.973)"/><path class="e" d="M147.322,203.287c-.055-.11-.368.055-.7.221-6.148,8.849-17.46,20.694-25.831,27.421-7.719,6.175-19.215,9.594-24.113,1.121.266,1.195.276,3.961.919,4.925,4.742,7.425,15.686,3.777,24.342-3.152s20.777-19.7,26.695-28.652C148.6,205.171,147.451,203.535,147.322,203.287Z" transform="translate(-84.536 -57.765)"/><path class="o" d="M130.3,200.394l11.2,16.394s8.022-9.061,9.823-12.369l-5.78-10.9A160.911,160.911,0,0,0,130.3,200.394Z" transform="translate(-87.262 -56.976)"/><path class="a" d="M140.73,215.119l1.608,2.352.662-.717c.855-.992,2.472-2.867,4.144-4.889a82.138,82.138,0,0,0,5.027-6.745l-1.314-2.481S144.351,211.122,140.73,215.119Z" transform="translate(-88.108 -57.716)"/><g transform="translate(65.731 126.7)"><path class="i" d="M155,191.129a35.252,35.252,0,0,1,2.371-3.143c1.112-1.139,3.078-3.134,4.071-3.915s1.277-1.038,1.47-.992c.34.074.919.919-.57,2.114a13.068,13.068,0,0,0-2.757,4.043Z" transform="translate(-154.995 -182.829)"/><path class="i" d="M156.911,194.93a40.3,40.3,0,0,0,10.347-2.316c4.834-1.921,5.284-2.757,5.027-3.207s-1.424,0-2.895.717a12.406,12.406,0,0,1-2.362.744c-.083-.147,1.7-.781,2.757-1.415.441-.266,3.547-1.645,3.317-2.757-.156-.763-2.61.919-3.915,1.342a28.145,28.145,0,0,1-2.757.919c0-.074,1.838-1.121,2.849-1.746.441-.276,3.768-1.838,3.418-2.757-.266-.7-1.195,0-3.951,1.268a26.078,26.078,0,0,1-3.418,1.443,19.232,19.232,0,0,1,2.426-1.562c.5-.294,3.317-1.608,2.757-2.628-.285-.533-1.645.294-3.363,1.231s-2.362,1.222-3.611,1.838-8.344,4.7-8.344,4.7S154.136,193.773,156.911,194.93Z" transform="translate(-154.995 -182.808)"/><path class="f" d="M172.184,189.83c-.423,2.233-11.946,5.21-15.824,5.275.211.156.138.34.662.349a40.3,40.3,0,0,0,10.347-2.316c4.834-1.921,5.284-2.757,5.027-3.207C172.358,189.867,172.257,189.858,172.184,189.83Z" transform="translate(-155.106 -183.377)"/></g><path class="d" d="M115.393,273.112h0a66.926,66.926,0,0,1-14.914-5.422s-.414,1.774-.919,4.539a77.381,77.381,0,0,0,14.795,5.238Z" transform="translate(-84.77 -62.99)"/><path class="d" d="M209.49,171,198.6,176a221.655,221.655,0,0,0-.34,35.691c1.663,18.81,11.229,23.6,18.195,21.135,4.687-1.663,7.682-6.919,8.408-13.251C226.389,206.186,216.492,184.683,209.49,171Z" transform="translate(-92.727 -55.15)"/><path class="p" d="M197.818,196.445l19.077-9.823c-2.435-5.688-5.082-11.11-7.407-15.622L198.6,176c-.515,5.559-.864,12.663-.919,19.84Z" transform="translate(-92.725 -55.15)"/><path class="a" d="M218.955,231.474c-6.965,2.472-16.541-2.316-18.186-21.135a220.707,220.707,0,0,1,.285-35.149l-2.454,1.121a221.659,221.659,0,0,0-.34,35.691c1.663,18.81,11.229,23.6,18.195,21.135a9.952,9.952,0,0,0,3.382-2.086,6.43,6.43,0,0,1-.882.423Z" transform="translate(-92.727 -55.49)"/><path class="q" d="M198.216,181.348c-.092,1.332-.165,2.757-.239,4.135v.441c-.064,1.581-.129,3.207-.175,4.861v.064c0,1.746-.074,3.529-.083,5.311l.119.625,2.38-1.222c0-7.351.349-14.611.855-20.363l-2.454,1.121c-.129,1.342-.239,2.757-.34,4.282C198.244,180.842,198.235,181.1,198.216,181.348Z" transform="translate(-92.728 -55.491)"/><g transform="translate(37.945)"><path class="r" d="M131.5,105.567c6.717,6.892,18.911-42.758,6.249-48.335C119.577,49.246,123.418,97.278,131.5,105.567Z" transform="translate(-124.757 -45.854)"/><path class="i" d="M133.6,92.915c-7.3,32.7,13.683,37.9,20.593,38.815,10.935,1.461,17.028-6.607,20.731-28.073,5.247-19.784,16.4-31.345-7.452-37.988C147.49,60.1,138.907,69.1,133.6,92.915Z" transform="translate(-125.351 -46.481)"/><path class="f" d="M160.825,64.32c-10.283,2.132-15.622,10.586-19.8,30.076-6.855,31.639,5.339,34.7,11.891,37.143-7.866-1.388-26.208-7.728-19.3-38.595C138.283,71.929,145.506,62.473,160.825,64.32Z" transform="translate(-125.352 -46.483)"/><path class="f" d="M125.853,95.84a6.212,6.212,0,1,0,7.857-3.3,6.047,6.047,0,0,0-7.857,3.3Z" transform="translate(-124.803 -48.753)"/><path class="r" d="M145.92,86.91c1.176-.818,8.27-2.591,14.124-1.672l.487-3.676s-9.548-1.452-14.537,3.345Z" transform="translate(-126.473 -47.882)"/><path class="r" d="M181.457,95.906c-.175-2.316-3.74-5.817-7.407-7.067l1.838-3.409s6.478,2.426,7.048,8.518Z" transform="translate(-128.754 -48.213)"/><path class="g" d="M131.074,94.628a3.676,3.676,0,0,1,2.242.45,3.282,3.282,0,0,0-.524,0,3.519,3.519,0,0,0-3.134,3.869,3.308,3.308,0,0,0,1.838,2.463,3.455,3.455,0,0,1-3.529-2.876A3.538,3.538,0,0,1,131.074,94.628Z" transform="translate(-125.016 -48.956)"/><g transform="translate(21.919 42.75)"><path class="s" d="M158.433,92.724s.147,6.056-4.4,5.514c-3.418-.992-4.521-4.659-4.521-4.659C152.634,92.035,155.759,91.07,158.433,92.724Z" transform="translate(-148.683 -91.484)"/><path class="t" d="M158.819,93.508a17.781,17.781,0,0,0-10.108.312l-.1-.542s3.749-2.885,10.5-1.406Z" transform="translate(-148.61 -91.451)"/><path class="t" d="M152.19,95.517a2.812,2.812,0,1,0,.866-1.976,2.8,2.8,0,0,0-.866,1.976Z" transform="translate(-148.9 -91.557)"/></g><g transform="translate(42.742 45.791)"><path class="s" d="M178.373,99.722s-.992,4.429-4.806,2.959c-3.676-1.415-1.838-6.432-1.838-6.432C172.391,95.339,178.594,97.122,178.373,99.722Z" transform="translate(-171.27 -94.861)"/><path class="t" d="M178.669,100.659a11.477,11.477,0,0,0-7.269-4.448l.423-1.452s5.679,1.222,7.1,5.422Z" transform="translate(-171.281 -94.76)"/><path class="t" d="M172.2,100.513a2.757,2.757,0,1,0,2.683-2.8,2.757,2.757,0,0,0-2.683,2.8Z" transform="translate(-171.345 -94.999)"/></g><g transform="translate(22.816 63.224)"><path class="u" d="M167.294,118.741,150,114.22s.965,8.436,6.791,9.961S167.294,118.741,167.294,118.741Z" transform="translate(-149.62 -113.771)"/><path class="v" d="M164.8,118.9,151.16,115.37s.092,2.757,12.121,5.091Z" transform="translate(-149.714 -113.864)"/><path class="w" d="M151.31,119c.974,2.307,2.665,4.824,5.6,5.587a6.828,6.828,0,0,0,3.446,0C158.377,119.274,153.506,118.879,151.31,119Z" transform="translate(-149.726 -114.157)"/><path class="u" d="M150.159,113.9c.165.175.294.6.221.671s-.5-.1-.652-.276a.3.3,0,1,1,.432-.4Z" transform="translate(-149.587 -113.731)"/><path class="u" d="M169.018,119.417c-.23,0-.671,0-.7-.147s.34-.377.57-.432a.312.312,0,0,1,.414.211C169.34,119.206,169.248,119.362,169.018,119.417Z" transform="translate(-151.105 -114.144)"/></g><path class="x" d="M158.449,128.807c-.184,1.02-1.59,1.608-3.06,1.342s-2.444-1.286-2.261-2.307,1.332-.349,2.757-.083S158.632,127.787,158.449,128.807Z" transform="translate(-127.056 -51.607)"/><path class="g" d="M165.478,97.928c-.4-.276-2.821,2.5-1.617,4.742s5.036.836,4.907,4.595-7.471,2.04-7.838,2.6,9.529,2.426,9.64-2.637c.1-4.595-5.265-3.317-5.789-5.725C164.375,99.674,165.882,98.195,165.478,97.928Z" transform="translate(-127.689 -49.225)"/><path class="r" d="M134.429,91.022a3.676,3.676,0,0,1,1.176,3.042c-.175,1.939-.845,5.027-.845,5.027l3.51.919s2.683-18.774,8.721-26.649a49.7,49.7,0,0,0-9.722,3.152S133.17,88.816,134.429,91.022Z" transform="translate(-125.522 -47.234)"/><path class="r" d="M147.266,71.037s10.375-8.546,23.552-3.878,10.4,17.267,10.4,17.267,3.437-7.921,2.757-10.926a23.175,23.175,0,0,1,3.676,7.508,19.8,19.8,0,0,0,.671-13.343A6.065,6.065,0,0,1,191.154,70s1.507-8.169-8.335-15.006a6.745,6.745,0,0,1,3,0s-12.35-13.067-28.193-8.068l2.509-1.994s-19.886-.312-21.365,11.376S135.054,79.417,147.266,71.037Z" transform="translate(-125.798 -44.929)"/><path class="y" d="M128.639,61.408c1.286-2.389,5.118-4.108,11.67.45s3,10.228.45,11.781C136.441,76.212,123.64,70.754,128.639,61.408Z" transform="translate(-124.98 -46.07)"/><path class="y" d="M140.718,56.568s-1.222-7.82,15.567-10.678l-1.893,2.858s14.124-6.341,28.909,5l-3.115,1.342s7.673,3.336,9.566,11.027l-3.115-.662a25.73,25.73,0,0,1,1.2,9.456s-2.885-4.218-6.432-5.89a39.9,39.9,0,0,0-13.242-4.824C156.744,62.458,142.014,62.376,140.718,56.568Z" transform="translate(-126.05 -45.007)"/></g><path class="y" d="M128.639,61.988c1.286-2.389,5.118-4.108,11.67.45s3,10.228.45,11.781C136.441,76.792,123.64,71.334,128.639,61.988Z" transform="translate(-87.035 -46.118)"/><path class="y" d="M140.718,57.148S139.5,49.365,156.285,46.47l-1.893,2.895s14.124-6.341,28.909,5l-3.115,1.342s7.673,3.336,9.566,11.027l-3.115-.671a25.73,25.73,0,0,1,1.2,9.428s-2.885-4.218-6.432-5.89a39.9,39.9,0,0,0-13.242-4.824C156.744,63.038,142.014,62.956,140.718,57.148Z" transform="translate(-88.105 -45.054)"/><g transform="translate(157.701 17.764)"><g transform="translate(29.13 134.632)"><rect class="z" width="114.415" height="11.018" transform="translate(0 21.65)"/><rect class="aa" width="19.555" height="32.677"/><rect class="aa" width="19.555" height="32.677" transform="translate(94.87)"/><path class="ab" d="M390,235.455a75.223,75.223,0,0,0,19.573-16.384V210.8H390Z" transform="translate(-295.149 -210.772)"/><path class="ab" d="M286.78,219.068a75.351,75.351,0,0,0,19.555,16.384V210.77H286.78Z" transform="translate(-286.78 -210.77)"/></g><g transform="translate(4.337)"><path class="aa" d="M421.457,154.8a2.362,2.362,0,0,1-2.362-2.362v-60.2c0-12.819-10.209-23.258-22.743-23.258H287.257c-12.534,0-22.734,10.439-22.734,23.258V151.65a2.362,2.362,0,1,1-4.723,0V92.241c0-15.429,12.314-27.981,27.457-27.981H396.352c15.144,0,27.467,12.553,27.467,27.981v60.2a2.362,2.362,0,0,1-2.362,2.362Z" transform="translate(-259.8 -64.26)"/><g transform="translate(1.176 0)"><path class="z" d="M408.192,64.26H405.83c15.144,0,27.467,12.552,27.467,27.981v60.2a2.307,2.307,0,0,1-1.185,1.994,2.288,2.288,0,0,0,1.185.368,2.362,2.362,0,0,0,2.362-2.362v-60.2C435.658,76.813,423.336,64.26,408.192,64.26Z" transform="translate(-272.816 -64.26)"/><path class="z" d="M262.265,92.658v59.408a2.334,2.334,0,0,1-1.185,2,2.389,2.389,0,0,0,1.185.358,2.362,2.362,0,0,0,2.362-2.362V92.658c0-12.819,10.2-23.258,22.734-23.258H285C272.465,69.4,262.265,79.839,262.265,92.658Z" transform="translate(-261.08 -64.677)"/></g></g><rect class="ac" width="172.675" height="10.632" transform="translate(0 82.666)"/><g transform="translate(32.319 345.341)"><rect class="z" width="7.278" height="44.871"/><rect class="z" width="7.278" height="44.871" transform="translate(100.769)"/><g class="ad"><rect class="ae" width="7.278" height="30.508"/><rect class="ae" width="7.278" height="30.508" transform="translate(100.769)"/></g></g><g transform="translate(3.593 208.541)"><path class="z" d="M268.5,298.77l148.507.689-8.472,89.154-19.95,14.51-92.637-.432L276.136,388Z" transform="translate(-259.761 -291.814)"/><path class="ab" d="M276.136,387.99l19.812,14.7,92.637.432,19.95-14.51,8.472-89.136L268.5,298.79v4.218l108.3,11.257L372.614,391.3S310.918,398.227,276.136,387.99Z" transform="translate(-259.761 -291.815)"/><path class="aa" d="M277.28,310.85l6.488,73.983c13.784,3.428,29.066,4.659,45.413,4.429l-1.351-72.485Z" transform="translate(-260.473 -292.793)"/><path class="aa" d="M337.8,318.08l.8,71.5,3.657-.267,3.437-70.151Z" transform="translate(-265.38 -293.379)"/><rect class="aa" width="6.322" height="163.008" transform="translate(0 6.322) rotate(-90)"/><rect class="af" width="2.371" height="163.008" transform="translate(1.523 3.142) rotate(-89.73)"/><path class="ac" d="M299.26,411.68l90.992.423-.3,4.5-90.422-.423Z" transform="translate(-262.255 -300.968)"/></g><rect class="z" width="122.814" height="44.88" transform="translate(24.93 323.691)"/><g transform="translate(11.321 12.984)"><circle class="aa" cx="74.993" cy="74.993" r="74.993" transform="translate(0.028)"/><circle class="ac" cx="69.811" cy="69.811" r="69.811" transform="translate(5.21 5.183)"/><path class="ab" d="M273.08,154.227c4.7-34,34.524-60.162,69.838-60.162s65.106,26.171,69.838,60.162h0v-.2a69.838,69.838,0,0,0-139.612,0v.2Z" transform="translate(-267.861 -79.032)"/><circle class="ab" cx="46.645" cy="46.645" r="46.645" transform="translate(9.053 74.992) rotate(-45)"/><path class="af" d="M342.384,81.4c41.021,0,74.332,34.12,74.966,74.993v-1.185C417.414,113.79,383.837,79,342.384,79S267.4,113.754,267.4,155.17v1.185C268.1,115.518,301.4,81.4,342.384,81.4Z" transform="translate(-267.4 -78.439)"/><rect class="ab" width="12.764" height="21.255" transform="translate(68.598 74.993)"/><path class="aa" d="M354.865,159.432A6.432,6.432,0,1,1,348.432,153,6.432,6.432,0,0,1,354.865,159.432Z" transform="translate(-273.448 -84.439)"/></g><path class="ag" d="M298.92,216.809s5.155,14.023,5.743,24.361-.919,24.5.919,24.5,3.253-10.329,8.27-10.035,4.328,6.2,6.2,6.2,3.832-11.808,8.27-11.808,3.051,6.488,5.615,6.488,3.244-6.194,6.791-5.605,2.656,12.994,5.311,12.994,2.068-10.044,6.5-9.75,4.346,31.988,4.346,31.988h6.791s-1.176-43.447,2.95-54.97C366.663,231.172,315.029,207.528,298.92,216.809Z" transform="translate(-258.634 -76.453)"/><path class="ag" d="M379,229.127s3.308,4.595,4.291,14.464S385.451,255,387.031,255s.4-13.784,3.152-15.355,1.369,7.682,3.933,8.068.965-24.223,5.9-32.677C400.016,215,382,217.025,379,229.127Z" transform="translate(-265.127 -76.485)"/><path class="ag" d="M343.117,163.148s-1.838-1.774-1.838-3.676a2.637,2.637,0,0,1,1.213-2.463s-.129-2.058.358-2.656,3.235-.864,3.235-.864-2.15,1.461-1.654,2.757c0,0-1.185.294-1.286.983s.3,2.95.1,3.547A10.9,10.9,0,0,0,343.117,163.148Z" transform="translate(-262.068 -71.494)"/><g transform="translate(25.214 34.735)"><path class="ah" d="M308.81,121.408a33.43,33.43,0,0,1,17.515-12.6,12,12,0,0,0-2.555,2.564,8.345,8.345,0,0,0-.588,2.656,6.855,6.855,0,0,0-3.547.092c-1.672.6-1.479,3.06-1.479,3.06s-3.345-.5-4.429.487a3.676,3.676,0,0,0-.983,2.656,5.661,5.661,0,0,0-3.933,1.084Z" transform="translate(-284.65 -102.607)"/><path class="ah" d="M343.72,102.06s20.078-.294,40.157,15.557c0,0-3.483-1.277-4.925-.1,0,0-1.672-3.547-3.051-4.328s-4.824,2.454-4.824,2.454-.983-5.21-2.95-5.9-4.034,2.362-4.034,2.362-.588-3.345-2.362-3.74a5.964,5.964,0,0,0-3.446.4s-1.764-3.253-4.135-3.676a5.688,5.688,0,0,0-4.126.983,10.025,10.025,0,0,0-6.3-4.007Z" transform="translate(-287.48 -102.06)"/><path class="ah" d="M396.528,142.28a25.73,25.73,0,0,1,2.3,23.938,3,3,0,0,0-2.757,2.1s-.368-4.062,1.921-5.514-1.185-2.95-2.509-1.774c0,0,2.95-2.656,2.656-3.538s-2.582-.588-2.582-.588,3.988-2.141,3.841-3.474-3.106-2.215-3.106-2.215,1.921-1.176,1.553-1.994a4.337,4.337,0,0,0-1.774-1.47A5.238,5.238,0,0,0,396.528,142.28Z" transform="translate(-291.677 -105.32)"/><path class="ah" d="M298.49,153.564a36.463,36.463,0,0,1,6.9-20.474s-.542,4.062.864,5.762c0,0-2.757.074-3.253,2.288a5.036,5.036,0,0,0,1.112,4.062s-2.509.221-2.959.919,2.812,3.474,2.812,3.474-3.253-.919-3.768.074,2.757,4.356,2.757,4.356S299.666,152.25,298.49,153.564Z" transform="translate(-283.813 -104.575)"/><path class="ah" d="M295.87,179.664s3.382-1.443,3.088-4.1c0,0,2.224-1.038-.294-7.535a9.086,9.086,0,0,0,3.979,2.665s-2.215.441-1.323,1.911a10.568,10.568,0,0,0,3.244,2.812s-2.8-.294-1.626,2.509,7.085,3.244,7.085,3.244S296.624,183.027,295.87,179.664Z" transform="translate(-283.601 -107.408)"/><path class="ah" d="M383.4,190.481s4.282-.744,3.988-3.676c0,0,4.126.643,6.194-4.135,0,0-2.205,7.976-.588,10.191C392.994,192.842,391.67,198.742,383.4,190.481Z" transform="translate(-290.697 -108.595)"/><path class="ah" d="M402.674,184.311s.542-3.042-.634-3.483c0,0,4.723-3.676,5.605-6.644s-1.332-7.976-.735-10.632,4.282-7.039,3.979-12.553c0,0,2.215,20.069-3.244,32.622S402.674,184.311,402.674,184.311Z" transform="translate(-292.208 -106.027)"/><path class="ah" d="M282.52,159.741s-.294-14.317,6.938-24.811c0,0-1.921,4.87-1.185,7.829s-1.617,4.87-2.362,6.047,1.479,5.321,1.479,5.321a6.11,6.11,0,0,0-2.656,1.47C283.549,156.644,282.52,159.741,282.52,159.741Z" transform="translate(-282.518 -104.725)"/></g><path class="ag" d="M277.54,185.222s8.27-5.036,29.525-5.624S341.9,189.936,341.9,189.936s9.189-4.723,18.6-4.723,20.961,8.27,20.961,8.27a58.8,58.8,0,0,1,28.707-11.946s-13.03,49.916-66.925,49.916C291.747,230.084,277.54,185.222,277.54,185.222Z" transform="translate(-256.901 -73.609)"/><path class="ag" d="M302.92,291.522S305.089,281,306.853,281s3.547,9.189,3.942,10.5Z" transform="translate(-258.959 -81.832)"/><path class="ai" d="M287.621,182s-4.87,2.022-4.475,5.955,7.48,10.825,14.041,26.226a68.166,68.166,0,0,1-19.647-28.772A37.548,37.548,0,0,1,287.621,182Z" transform="translate(-256.901 -73.806)"/><path class="ai" d="M372.64,232.189s3.336-.992,5.844-2.077c0,0-1.838-3.446-3.189-2.858S372.64,232.189,372.64,232.189Z" transform="translate(-264.611 -77.469)"/><path class="ai" d="M401.87,212.3a40.984,40.984,0,0,1,4.595-13.177c3.538-5.909,13.784-17.46,13.784-17.46S415.148,199.533,401.87,212.3Z" transform="translate(-266.981 -73.778)"/><path class="aj" d="M307.6,291.6h3.547s-2.123-10.678-3.942-10.577a13.564,13.564,0,0,1,1.921,5.514c.349,3.143-.79.689-.79.689S308.578,290.421,307.6,291.6Z" transform="translate(-259.306 -81.834)"/><path class="aj" d="M359.844,285.555c-1.626.441-1.976-5.219-2.068-8.665s.781-2.656.781-2.656c-.193-4.282-.735-10.972-.735-10.972s-.1,1.084-.919,1.029-1.231-9.888-3.979-10.035-3.74,4.824-3.988,5.072-.542-.45-.542-.45-.1,5.808-1.838,5.716-2.215-8.022-2.316-9.5,0-3.538,0-3.538-.294.983-1.084.983-3-2.959-4.282-2.316-3.2,7.581-4.273,7.82-1.286-3.391-1.434-4.916a6.671,6.671,0,0,0-1.176-2.9s.4.79-.349,1.084-4.374-1.424-5.017-1.084-1.626,1.921-2.261,4.135-1.424,1.323-1.424,1.323c.239,1.084-1.011,6.1-1.994,6.552S319.889,258,319.889,258s-.45.919-1.139.919-2.555-4.87-4.521-4.374-2.858,2.7-3.676,3.244a1.351,1.351,0,0,1-1.581-.147c.2,1.838-1.176,7.351-1.838,9.005s-1.286,1.838-1.314,1.838h.055l.239.119c1.764-.074,3.253-10.329,8.27-10.035s4.328,6.2,6.2,6.2,3.832-11.808,8.27-11.808,3.051,6.488,5.615,6.488,3.244-6.194,6.791-5.605,2.656,12.994,5.311,12.994,2.068-10.044,6.5-9.75,4.374,31.933,4.374,31.933h2.509A30.9,30.9,0,0,0,359.844,285.555Z" transform="translate(-259.194 -79.33)"/><path class="aj" d="M372.154,230.736h0c2.049-.616,4-1.323,5.872-2.1,0,0,3.308,4.595,4.291,14.464s2.159,11.413,3.74,11.413.4-13.784,3.152-15.355,1.369,7.682,3.933,8.068.965-24.223,5.9-32.677h0c.763-.754,1.479-1.525,2.178-2.3l-.919-2.986a14.179,14.179,0,0,1-4.1,5.688c1.838,1.672-.689,5.21-.689,5.21-1.176,3.354-2.068,20.216-2.95,20.079s-1.479-6.432-3.942-5.605-2.656,14.565-3.832,14.464S383.7,237.1,383.7,237.1s-1.672-.386-1.774-3.244.983-2.068.983-2.068-3.446-11.615-9.189-9.842-7.085,23.423-7.085,23.423,1.672-2.362,1.672,2.95-1.176,7.976-1.176,7.976c0,12.984.689,29.406.689,29.406H369.2S368.028,242.259,372.154,230.736Z" transform="translate(-264.125 -76.017)"/><path class="ak" d="M289.552,184.979c3.317-3.088,18.7-5.909,30.508.193s-1.571,20.271-9.447,22.44S284.038,190.1,289.552,184.979Z" transform="translate(-257.794 -73.77)"/><path class="ak" d="M325.4,206.164c-.809-2.518,6.5-14.767,11.808-13.187s3.74,13.784,1.773,15.548S326.976,211.08,325.4,206.164Z" transform="translate(-260.777 -74.685)"/><path class="ak" d="M350.44,193.04c1.479-3.253,13.582-7.085,17.46-5.909s-7.48,13.637-12.552,14.611C351.469,202.486,349.209,195.741,350.44,193.04Z" transform="translate(-262.784 -74.204)"/><path class="ak" d="M388.2,205.113c-.992-1.213,1.608-7.848,3.841-10.779s12.1-7.232,14.758-5.605S391.6,209.248,388.2,205.113Z" transform="translate(-265.855 -74.322)"/><path class="ab" d="M282.21,416.51H405.033v44.88H383.512V419.846Z" transform="translate(-257.28 -92.819)"/><rect class="ab" width="122.814" height="2.279" transform="translate(24.93 366.292)"/></g></g></g></svg>