<svg xmlns="http://www.w3.org/2000/svg" width="406.523" height="563.557" viewBox="0 0 406.523 563.557"><defs><style>.a{fill:#f4be84;}.b{fill:#3a3c49;}.c{fill:#e7ccc1;}.d{fill:#e0bdba;}.e{fill:#f2e9e4;}.f{fill:#f8e8db;}.g{fill:#e4aa76;}.h{fill:#d59256;}.i{fill:#c2752d;}.j{fill:#e2a36a;}.k{fill:#d69356;}.l{fill:#ffe4cb;}.m{fill:#865634;}.n,.p{fill:#9a6237;}.o{fill:#f8e7c9;}.ac,.p{opacity:0.4;}.q{fill:#e1a26a;}.r{fill:#dfbcb9;}.s,.t{fill:#344154;}.t,.w{opacity:0.2;}.u{fill:#d6abaa;}.v{fill:#6595bf;}.ac,.w{fill:#576287;}.x{fill:#86a2bc;}.y{fill:#96b6cc;}.z{fill:#f2d26b;}.aa{fill:#f2c35c;}.ab{fill:#5c708e;}.ad{fill:#98b4ce;}.ae{fill:#a8c8de;}.af{fill:#889db7;}.ag{fill:#5d728c;}.ah{fill:#db8936;}.ai{fill:#e8a144;}.aj{fill:#677c96;}.ak{fill:#e59840;}.al{fill:#f2b04e;}.am{fill:#ffbc57;}.an{fill:#c67421;}.ao{fill:#d38c2f;}.ap{fill:#d07e2b;}.aq{fill:#dd9b39;}.ar{fill:#dd9639;}.as{fill:#eaa242;}.at{fill:#d0832b;}.au{fill:#eaa742;}</style></defs><g transform="translate(-68.68 -29.243)"><g transform="translate(68.68 29.243)"><g transform="translate(102.024)"><path class="a" d="M285.709,141.061c-20.138,10.515-48.115,54.137-65.979,74.108-8.709,13.214-5.91,16.47-.926,22.536,6.289,7.638,19.893,12.489,46.733-19.313,22.034-26.1,24.844-41.392,26.695-47.424C296.012,158.59,294.083,136.6,285.709,141.061Z" transform="translate(-153.969 -16.443)"/><path class="b" d="M360.009,535.624s-.156-6.612-1.695-9.177c-.535-.9-1.751.2-2.5.2-4.371,13.136-12.667,2.308-12.043,8.921Z" transform="translate(-139.051 27.932)"/><path class="b" d="M304.252,535.624s-.3-6.612-1.9-9.177c-.558-.9-1.751.2-2.5.2-4.081,13.136-12.623,2.308-11.853,8.921Z" transform="translate(-145.47 27.932)"/><path class="c" d="M369.856,415.866V415.8a6.2,6.2,0,0,0,.123-1.617c-1.115-14.574,11.039-99.13,10.995-114.217s-3.044-33.541-4.628-41.86c-4.46-23.305-27.977-5.207-47.848,11.574-.368-.446-.725-.892-1.115-1.327-13.715-14.92-44.213,4.851-44.213,4.851l8.263,145.517c.948,12.745-1.751,33.575-1.494,52.955.6,43.153,3.345,88.582,3.345,88.582h11.753s18.878-70.484,19.715-88.236c.413-8.865-3.613-51.829-3.613-51.829,2.877-31.155,7.962-82.694,7.962-82.694s3.8,44.6,10.5,78.055c.123,4.46,4.025,40,5.709,58.4,1.595,17.384,8.7,49.063,14.005,86.273h10.638s13.5-72.157,11.6-87.578S369.856,415.866,369.856,415.866Z" transform="translate(-146.021 -4.183)"/><path class="d" d="M367.947,472.695c-2.018-15.422-12.1-56.869-12.1-56.869a.156.156,0,0,1,0-.067,6.158,6.158,0,0,0,.1-1.617c-1.171-14.574,10.348-99.13,10.2-114.217s-3.234-33.508-4.929-41.782c-1.227-6.166-3.769-9.411-7.2-10.571,6.98-1.717,12.266.725,14.15,10.571,1.583,8.318,4.583,26.762,4.628,41.86s-12.11,99.6-10.995,114.173a6.2,6.2,0,0,1-.123,1.617v.067c0,.067,9.8,41.414,11.708,56.869s-11.586,87.6-11.586,87.6h-4.851S369.966,488.116,367.947,472.695Z" transform="translate(-137.868 -4.177)"/><path class="e" d="M263.51,156.7c5.129-10.6,32.794-23.64,48.015-27.487,20.651-5.207,65.277,5.029,72.324,11.151,3.736,3.223,1.884,29.773,1.918,43.053,0,16.726-4.037,49.387-3.635,63.113.145,5.074,2.007,14.072-.8,20.919.346,13.57.7,27.554.792,29.862.636,16.247-93.488,14.942-96.019.6-1.037-5.865-1.115-15.79-1.383-27.319-5.341-8.419-1.505-39.306-7.627-55.865C269.241,195.2,261.636,160.941,263.51,156.7Z" transform="translate(-148.317 -17.903)"/><path class="c" d="M338.2,128.59l-9.757,16.916s29.182,8.642,30.3,10.426,2.23,100.758-.446,105-50.178,9.579-78.111-.446c.479,4.349,1.238,7.872,2.587,10.036.1,3.9.167,7.594.257,11.039l96.666-1.873c-.1-3.9-.212-8.129-.312-12.266,2.81-6.847.948-15.845.8-20.919-.4-13.727,3.68-46.432,3.635-63.113,0-13.281,1.818-39.831-1.918-43.053C377.381,136.34,357.4,130.731,338.2,128.59Z" transform="translate(-146.365 -17.811)"/><path class="f" d="M285.535,138.42a61.572,61.572,0,0,0-7.215,3.869s29.695,19.8,39.083,20.25S353.409,130.8,353.409,130.8l-7.616-1.394Z" transform="translate(-146.579 -17.716)"/><path class="g" d="M345.049,129.639s-26.015,25.19-29.772,25.914-30.486-16.9-30.486-16.9,8.341-5.029,24.253-9.389S345.049,129.639,345.049,129.639Z" transform="translate(-145.835 -17.946)"/><path class="g" d="M293.978,143.382l40.868-10.147-12.957-45.5-34,4.137Z" transform="translate(-145.478 -22.511)"/><path class="h" d="M334.2,132.546,324.707,88.5,292.37,133.984l.212,1.74c12.266,8.921,34.467,14.4,34.467,14.4,7.46-6.635,17.139-16,17.139-16A91.5,91.5,0,0,0,334.2,132.546Z" transform="translate(-144.963 -22.424)"/><path class="d" d="M314.236,411.631l6.992-82.058-8.686-8.263,29.148,3.178-9.077,5.72,12.578,82.371s3.691,46.432,4.728,56.289,11.943,82.917,11.943,82.917h-4.17c-5.308-37.177-12.411-68.889-14.005-86.273-1.684-18.4-5.575-53.925-5.709-58.4-6.69-33.452-10.5-78.055-10.5-78.055s-5.085,51.539-7.962,82.694c0,0,4.025,42.964,3.613,51.829-.836,17.752-19.715,88.236-19.715,88.236h-5.8s19.815-80,20.8-86.675S314.236,411.631,314.236,411.631Z" transform="translate(-144.36 4.367)"/><path class="g" d="M355.444,144.4c-3.479,9.3,5.743,18.867,25.335,58.162s22.681,39.552,33.374,36.5c9.512-2.721,19.391-13.269.937-50.558-15.154-30.62-28.066-39.284-32.85-43.4C370.342,134.868,358.756,135.56,355.444,144.4Z" transform="translate(-137.787 -16.774)"/><path class="a" d="M236.416,235.938c-18.008,4.092-44.67,1.193-60.983-.87l-3.033-4.561s22.3-10.393,46.108-21.331c20.071-9.233,28.4-2.531,35.192,6.69C261.773,226.872,246.564,233.63,236.416,235.938Z" transform="translate(-158.768 -9.046)"/><g transform="translate(108.459)"><path class="i" d="M326.817,115.039a101.962,101.962,0,0,0,7.058-31.847c.959-16.726-14.3-14.005-14.3-14.005S322.58,108.616,326.817,115.039Z" transform="translate(-250.29 -24.665)"/><path class="a" d="M331.485,90.179c7.148,44.313-21.32,49.576-30.631,50.268-14.741,1.115-22.246-10.2-25.468-39.195-5.442-26.884-19.436-43.22,12.979-50.178C315.539,45.2,326.278,57.9,331.485,90.179Z" transform="translate(-256.263 -26.891)"/><path class="j" d="M322.418,60.88S305.592,54.625,286.97,58.2c-9.188,1.762-15.745,4.728-19.28,9.01-.056,3.914,1,8.408,2.442,13.47A37.054,37.054,0,0,1,287.9,70.916c15.31-3.78,36.162,7.806,36.162,7.806Z" transform="translate(-256.262 -26.038)"/><path class="j" d="M294.3,49.758c13.582,3.68,21.61,15.087,25.7,41.481,6.69,42.852-8.921,44.3-20.5,49.063,10.638-1.227,35.682-8.229,28.914-50.1C323.838,61.734,314.929,48.509,294.3,49.758Z" transform="translate(-253.199 -26.892)"/><path class="j" d="M335.143,87.855a8.318,8.318,0,1,1-10.236-5.04,8.073,8.073,0,0,1,10.236,5.04Z" transform="translate(-250.353 -23.128)"/><path class="i" d="M312.59,76.612a25.87,25.87,0,0,0-17.139-3.446L294.86,68.9s9.043-2.643,17.841,5.029Z" transform="translate(-253.135 -24.731)"/><path class="i" d="M271.69,85.718c.413-3.078,5.453-7.471,10.459-8.854l-2.107-4.694s-8.854,2.721-10.091,10.816Z" transform="translate(-256.001 -24.303)"/><path class="k" d="M327.882,85.248a4.873,4.873,0,0,0-3.022.424,4.929,4.929,0,0,1,.7,0,4.717,4.717,0,0,1,3.914,5.43,4.382,4.382,0,0,1-2.62,3.133,4.628,4.628,0,0,0,4.951-3.557,4.728,4.728,0,0,0-3.925-5.43Z" transform="translate(-249.682 -22.807)"/><g transform="translate(43.799 55.616)"><path class="l" d="M297.531,80.527s-.424,8.519,5.709,8.129c4.65-1.048,6.155-6.311,6.155-6.311C305.336,80.048,301.233,78.5,297.531,80.527Z" transform="translate(-296.627 -79.066)"/><path class="m" d="M296.954,81.64a23.829,23.829,0,0,1,13.526,1.215l.167-.7s-4.784-4.17-13.927-2.732Z" transform="translate(-296.72 -79.119)"/><circle class="m" cx="3.947" cy="3.947" r="3.947" transform="translate(0.848 3.944) rotate(-26.5)"/></g><g transform="translate(18.576 59.408)"><path class="l" d="M274.72,88.772s1.528,6.055,6.69,4.137c4.917-1.84,2.23-8.642,2.23-8.642C282.838,82.985,274.509,85.282,274.72,88.772Z" transform="translate(-274.029 -82.36)"/><path class="m" d="M274.435,90.314a15.444,15.444,0,0,1,9.813-5.854l-.546-1.94s-7.627,1.55-9.6,7.148Z" transform="translate(-274.1 -82.52)"/><path class="m" d="M283.542,89.405a3.791,3.791,0,1,1-1.019-2.725A3.791,3.791,0,0,1,283.542,89.405Z" transform="translate(-273.886 -82.18)"/></g><g transform="translate(29.926 84.141)"><path class="n" d="M284.92,110.765l23.272-5.575s-1.528,11.273-9.378,13.147S284.92,110.765,284.92,110.765Z" transform="translate(-284.204 -104.645)"/><path class="o" d="M288,110.779l18.354-4.349s-.2,3.657-16.369,6.479Z" transform="translate(-283.85 -104.502)"/><path class="p" d="M305.516,110.414c-1.36,3.066-3.713,6.389-7.661,7.326a9.021,9.021,0,0,1-4.605-.123C296,110.614,302.583,110.213,305.516,110.414Z" transform="translate(-283.246 -104.048)"/><path class="n" d="M305.6,104.856c-.212.234-.413.8-.3.9s.658-.123.881-.357a.413.413,0,0,0,0-.624.435.435,0,0,0-.58.078Z" transform="translate(-281.862 -104.701)"/><path class="n" d="M284.67,110.621c.312.078.892,0,.937-.167s-.446-.513-.747-.591-.513,0-.569.268S284.358,110.554,284.67,110.621Z" transform="translate(-284.278 -104.11)"/></g><path class="q" d="M294.151,121.351c.156,1.383,2,2.23,3.981,2.041s3.345-1.528,3.2-2.91-1.751-.569-3.724-.335S293.984,119.968,294.151,121.351Z" transform="translate(-253.218 -18.834)"/><path class="k" d="M290.333,78.921c.557-.335,4.159,10.582,1.55,15.042-1.728,2.933-7.047,1.951-6.936,5.709s9.835,3.345,10.281,4.115-12.567,1.115-12.678-4.3,7.27-4.025,8.2-7.192C291.973,88.154,289.742,79.255,290.333,78.921Z" transform="translate(-254.551 -23.527)"/><path class="i" d="M325.888,85.312a4.973,4.973,0,0,0-1.818,3.981c.078,2.609.725,6.78.725,6.78l-4.761.892S317.949,71.652,310.5,60.68a66.9,66.9,0,0,1,12.745,4.984S327.784,82.469,325.888,85.312Z" transform="translate(-251.335 -25.625)"/><path class="i" d="M323.559,68.23a87.2,87.2,0,0,1-22.19-11.764,36.519,36.519,0,0,1-14.15,5.508c-8.04,1.193-11.474-.145-11.474-.145s.3,4.46-7.627,5.81c0,0-.624,5.486.892,9.534,0,0-11.43-20.562,18.655-28S329.514,62.544,323.559,68.23Z" transform="translate(-256.355 -27.132)"/><path class="e" d="M314.443,60.5s-6.467,9.813-11.4,12.823-43.131,11.474-45.361,8.82S269.215,67.3,269.215,67.3,283.555,51.4,314.443,60.5Z" transform="translate(-257.441 -25.97)"/><path class="e" d="M339.994,85.384s4.683-29.639-2.085-44.525c-6.044-7.6-42.975-18.956-65.31-5.051a9.311,9.311,0,0,0-4.215,5.854c-1,4.561-2.23,14.106-1.929,32.527C266.455,74.188,314.581,49.534,339.994,85.384Z" transform="translate(-256.409 -29.243)"/><path class="c" d="M309.87,30.75c1.394,4.851,3.345,15.789,2.085,37.344A43.968,43.968,0,0,1,334.993,85.21s4.683-29.639-2.085-44.525C330.164,37.24,321.065,33.036,309.87,30.75Z" transform="translate(-251.407 -29.07)"/><path class="f" d="M306.63,62s16.838,4.193,28.992,17.841l-.256,1.829s-10.6-13.894-28.736-18.555Z" transform="translate(-251.78 -25.473)"/><path class="r" d="M312.29,62s-6.088,7.114-10.036,9.523c-4.694,2.866-39.485,10.682-44.77,9.121a1.271,1.271,0,0,0,.19,1.037c2.23,2.676,40.433-5.81,45.361-8.82s9.255-9.746,9.255-9.746Z" transform="translate(-257.44 -25.473)"/><path class="f" d="M269.132,65.518c-1.572-4.248-.937-29.393,6.479-29.906,8.363-.58,10.169,13.113,10.6,22.982C286.516,65.34,270.326,68.763,269.132,65.518Z" transform="translate(-256.176 -28.512)"/><path class="f" d="M263.193,77.788c-3.947-1.249,3.724-8.441,8.04-10.582,10.939-5.4,34.333-6.69,36.307-4.706S283.3,78.536,263.193,77.788Z" transform="translate(-256.905 -25.517)"/></g><path class="d" d="M290.785,408.58l-.435,11.285s11.329,2.319,31.791,2.342l-.959-11.218Z" transform="translate(-145.195 14.41)"/><path class="d" d="M334.92,411.04l1.115,11.385a240.476,240.476,0,0,0,32.705-3.479l-3.613-12.266Z" transform="translate(-140.066 14.191)"/><path class="d" d="M282.46,256.182s39.574,13.124,96.755-3.412l.145,5.575s-56.222,13.9-96.744.948Z" transform="translate(-146.103 -3.52)"/><path class="s" d="M282.8,258.945c-4.639,23,.424,100.145,0,165.377,2.23.546,34.233,9.389,105.274,0,0,0-2.119-118.488-3.011-128.758s-5.575-39.674-5.575-39.674S327.061,272.27,282.8,258.945Z" transform="translate(-146.29 -3.161)"/><path class="t" d="M387.93,424.322s-2.119-118.488-3.011-128.758-5.575-39.674-5.575-39.674-52.409,16.38-96.711,3.055l-.613,3.88v.123c0,.045,19.413,11.853,72.993,8.575a139.384,139.384,0,0,1,5.364,28.892c.892,14.6,3.278,119.447,3.278,119.447s-28.669,6.847-80.977.29v4.17C284.886,424.869,316.9,433.711,387.93,424.322Z" transform="translate(-146.154 -3.161)"/><g transform="translate(159.701 248.059)"><path class="d" d="M320.7,263.173h-.156c-2.542-.379-15.31-2.487-16.949-6.512a2.732,2.732,0,0,1,.468-2.8,3.68,3.68,0,0,1,2.821-1.472h.312c5.185,0,13.381,8.04,14.262,8.976a1.115,1.115,0,0,1-.758,1.829Zm-13.47-8.664h-.2a1.662,1.662,0,0,0-1.271.647c-.29.39-.212.591-.178.691.7,1.728,6.456,3.479,11.719,4.561-3.055-2.654-7.415-5.9-10.069-5.9Z" transform="translate(-303.395 -251.623)"/><path class="d" d="M319.456,263.074a1.115,1.115,0,0,1-.747-1.851c1.862-1.773,11.318-10.538,15.511-9.422a2.71,2.71,0,0,1,1.929,2.074,3.747,3.747,0,0,1-.558,3.145c-2.888,4.293-14.674,5.876-16,6.044Zm13.793-9.255c-2.041,0-6.579,3.245-10.37,6.523,4.059-.814,9.456-2.331,10.939-4.527a1.606,1.606,0,0,0,.257-1.383c-.123-.479-.323-.535-.435-.569A1.393,1.393,0,0,0,333.25,253.818Z" transform="translate(-301.665 -251.702)"/><g transform="translate(16.821 0.644)"><path class="u" d="M332.919,253.647a1.316,1.316,0,0,1,.379,0c-.134-.323-.29-.424-.379-.446a1.437,1.437,0,0,0-.39,0c-2.3,0-7.426,3.958-11.229,7.237l1.249-.268C326.151,257.149,330.6,253.67,332.919,253.647Z" transform="translate(-318.155 -252.176)"/><path class="u" d="M336.143,253.808a2.9,2.9,0,0,0-.914-1.528,3.155,3.155,0,0,1,.524,1.115,3.747,3.747,0,0,1-.558,3.145c-2.888,4.293-14.674,5.876-16,6.044h-.134a1.037,1.037,0,0,1-.58-.167h0a1.115,1.115,0,0,0,.97.624h.134c1.327-.167,13.113-1.751,16-6.044a3.747,3.747,0,0,0,.558-3.189Z" transform="translate(-318.48 -252.28)"/></g><g transform="translate(0.062 2.228)"><path class="u" d="M305.377,255.373a.981.981,0,0,1,.178-.368,1.661,1.661,0,0,1,1.271-.647h.2c2.955,0,7.136,3.412,10.091,5.888l.68.145c-3.044-2.643-7.705-6.612-10.995-6.69h-.2a1.628,1.628,0,0,0-1.271.647c-.3.39-.212.591-.178.691A1.828,1.828,0,0,0,305.377,255.373Z" transform="translate(-303.258 -253.7)"/><path class="u" d="M321.5,261.051a1.2,1.2,0,0,1-.078.524,1.115,1.115,0,0,1-.959.591H320.3c-2.5-.379-14.964-2.442-16.849-6.356a2.451,2.451,0,0,0,.134.457c1.639,4.025,14.407,6.133,16.949,6.512h.156a1.049,1.049,0,0,0,.814-1.728Z" transform="translate(-303.45 -253.457)"/></g><path class="d" d="M313.275,289.755a1.115,1.115,0,0,1-1.115-1.115c0-25.033,6.367-28.2,7.092-28.479a1.115,1.115,0,0,1,.8,1.985c-.167.089-5.743,3.278-5.743,26.494A1.115,1.115,0,0,1,313.275,289.755Z" transform="translate(-302.386 -250.73)"/><path class="d" d="M325.493,289.761a1.115,1.115,0,0,1-1.115-1.115c0-23.472-5.7-26.472-5.754-26.494a1.115,1.115,0,0,1-.546-1.405,1.048,1.048,0,0,1,1.349-.58c.725.279,7.092,3.446,7.092,28.479A1.115,1.115,0,0,1,325.493,289.761Z" transform="translate(-301.714 -250.736)"/><path class="u" d="M319.32,260.2h0c1.606.992,6.69,5.9,6.69,28.256a1.115,1.115,0,0,1-1.115,1.115c-.134,0-.223-.1-.335-.134a1.059,1.059,0,0,0,1.851-.714C326.412,263.646,320.078,260.479,319.32,260.2Z" transform="translate(-301.562 -250.725)"/><path class="u" d="M320.024,260.22a.13.13,0,0,1,.123.112,1.115,1.115,0,0,1-.591,1.372c-.167.089-5.754,3.267-5.754,26.494a1.115,1.115,0,0,1-1.115,1.115c-.134,0-.234-.1-.357-.156a.993.993,0,0,0,.881.636,1.115,1.115,0,0,0,1.115-1.115c0-23.216,5.575-26.4,5.743-26.494a1.115,1.115,0,0,0,.591-1.372A1.026,1.026,0,0,0,320.024,260.22Z" transform="translate(-302.367 -250.722)"/><ellipse class="d" cx="2.832" cy="2.676" rx="2.832" ry="2.676" transform="translate(14.468 7.803)"/><path class="c" d="M320.516,260.824a1.773,1.773,0,1,1-1.773-1.684,1.717,1.717,0,0,1,1.773,1.684Z" transform="translate(-301.832 -250.847)"/></g><path class="e" d="M347.746,130.709l-3.089-.569c-1.372-.234-2.743-.468-4.126-.68-.4.39-9.1,8.787-17.072,15.934h0s3.936,1.171,8.921,2.732c8.363-8.374,15.756-17.295,15.789-17.328Z" transform="translate(-141.385 -17.71)"/><g transform="translate(151.863 198.083)"><path class="v" d="M296.54,221.493s9.434,34.657,42.507,31.534S374.852,214,374.852,214Z" transform="translate(-296.345 -206.065)"/><path class="w" d="M343.239,252.367c29.059-5.653,31.612-38.347,31.612-38.347l-78.312,7.471a44.837,44.837,0,0,0,2.1,5.575c5.029,2.319,18.722,4.683,38.7,6.59C360.612,235.909,363.233,241.161,343.239,252.367Z" transform="translate(-296.345 -206.063)"/><path class="x" d="M374.872,214.819c.167,1.784-16.459,13-38.08,15.065s-37.913-5.7-40.232-7.594,16.447-13,38.069-15.065S374.693,213.057,374.872,214.819Z" transform="translate(-296.366 -206.884)"/><path class="v" d="M368.856,215.2c.145,1.539-14.161,11.151-32.783,12.968s-32.672-4.906-34.645-6.534,14.161-11.151,32.783-12.968S368.711,213.657,368.856,215.2Z" transform="translate(-295.802 -206.715)"/><path class="y" d="M336.73,228.521c-21.632,2.063-37.913-5.7-40.243-7.594v-.067c-.1.279-.112.535.089.691,2.3,1.9,18.611,9.657,40.232,7.594s38.247-13.281,38.08-15.065a.87.87,0,0,0-.19-.3C373.372,216.255,357.337,226.514,336.73,228.521Z" transform="translate(-296.36 -206.091)"/><path class="w" d="M368.856,215.2c.145,1.539-14.161,11.151-32.783,12.968s-32.672-4.906-34.645-6.534,14.161-11.151,32.783-12.968S368.711,213.657,368.856,215.2Z" transform="translate(-295.802 -206.715)"/><path class="z" d="M335.165,227.228a70.484,70.484,0,0,0,24.755-7.248,60.359,60.359,0,0,0-25.769-3.234,64.818,64.818,0,0,0-25,7.805A66.135,66.135,0,0,0,335.165,227.228Z" transform="translate(-294.894 -205.779)"/><g transform="translate(5.504 1.65)"><path class="w" d="M362.723,217.8c1.784-1.238,2.765-2.23,2.732-2.609-.145-1.539-16.024-8.318-34.645-6.534C347.291,207.088,357.784,213.311,362.723,217.8Z" transform="translate(-297.906 -208.364)"/><path class="w" d="M304.143,223.136c4.17-5.341,14.039-12.979,30.107-14.5-18.622,1.773-34.768,11.329-32.783,12.968a14.967,14.967,0,0,0,2.676,1.528Z" transform="translate(-301.302 -208.332)"/></g><path class="aa" d="M334.175,216.969c10.872-1.037,17.451,2.23,22.38,4.594,1.193-.524,2.342-1.059,3.345-1.583a60.359,60.359,0,0,0-25.769-3.234,64.819,64.819,0,0,0-25,7.805c1.115.346,2.342.691,3.624,1.015C317.281,222.311,323.247,218.018,334.175,216.969Z" transform="translate(-294.897 -205.779)"/><path class="aa" d="M333.639,221.386a44.124,44.124,0,0,0-15.879,4.795c.68.1,1.36.212,2.063.3a35.682,35.682,0,0,1,13.816-4.393,33.185,33.185,0,0,1,14.162,1.818c.68-.212,1.338-.435,1.985-.658a40.489,40.489,0,0,0-16.146-1.862Z" transform="translate(-293.904 -205.233)"/><path class="x" d="M305.281,232.185c-.357.781,8.14,13.381,21.621,15.934,10.437,1.751,16.726-7.315,15.042-9.9S308.314,229.888,305.281,232.185Z" transform="translate(-295.341 -204.034)"/></g><path class="g" d="M394.441,212.093c-19.67,10.158-34.679,28.089-52.721,40.533l.881,5.408s26.282-1.115,51.851-11.63c24.744-10.169,35.983-24.532,32.036-35.381C422.251,199.549,405.48,206.362,394.441,212.093Z" transform="translate(-139.284 -9.042)"/><g transform="translate(173.322 236.933)"><path class="g" d="M328.259,250.316a33.073,33.073,0,0,1-11.24-2.576s-.736.881.736,1.94,5.051,3.579,13.269,3.156C332.217,251.2,328.259,250.316,328.259,250.316Z" transform="translate(-315.469 -241.032)"/><path class="g" d="M331.908,251.588a36.174,36.174,0,0,1-11.8-2.018s-.569.7.959,1.673,4.594,3.546,13.749,2.71C335.911,252.28,331.908,251.588,331.908,251.588Z" transform="translate(-315.104 -240.821)"/><path class="g" d="M343.61,247.69a83.923,83.923,0,0,1-8.921,1.517,41.78,41.78,0,0,1-9.723-.435c-.613-.112,4.014,5.375,7.884,5.575,3.289.312,11.608-1.227,11.608-1.227S347.033,247.924,343.61,247.69Z" transform="translate(-314.54 -241.038)"/><path class="g" d="M326.081,249.022a35.492,35.492,0,0,1-10.292-3.512s-.691.591.647,1.818,2.944,3.758,12.1,4.527C329.894,250.361,326.081,249.022,326.081,249.022Z" transform="translate(-315.61 -241.289)"/><path class="g" d="M342.934,248.377a33.184,33.184,0,0,0-5.665-3.345c-2.431-1.059-4.572-2.966-5.765-3.278s-.914,2,.836,3.256,4.683,3.892,2.765,4.828C335.107,249.837,342.934,251.365,342.934,248.377Z" transform="translate(-313.864 -241.724)"/></g><path class="h" d="M333.812,253.419c-.112,0-.223-.056-.334-.067-6.769.323-9.8-1.327-11.407-2.375a14.909,14.909,0,0,1-4.315-2.23,2.085,2.085,0,0,1-.792-.937c-.134.223-.435.948.792,1.829a14.91,14.91,0,0,0,4.315,2.23c1.606,1.048,4.639,2.7,11.407,2.375l.334.067c3.289.312,11.608-1.227,11.608-1.227s.178-.39.39-.948C343.625,252.482,336.578,253.675,333.812,253.419Z" transform="translate(-142.148 -4.091)"/><path class="h" d="M426.355,210.38h0c2.018,10.537-9.278,24.041-32.516,33.932-23.918,10.181-48.1,11.976-51.126,12.177l-.223.948s26.282-1.115,51.851-11.63C419.062,235.6,430.3,221.185,426.355,210.38Z" transform="translate(-139.195 -8.399)"/><path class="c" d="M422.24,200.659c-10.337-26.94-25.045-42.875-40.633-56.278-11.9-10.236-26.16-10.036-29.471-1.238-3.479,9.3,7.549,22.023,27.141,61.329,2.832,5.665,5.308,10.5,7.516,14.652Z" transform="translate(-138.158 -16.887)"/><path class="e" d="M284.393,141.055c-22.3,11.619-17.217,8.62-58.843,61.329L259.2,229.146c22.3-23.037,28.836-40.622,33.363-55.4C296.3,161.371,292.767,136.594,284.393,141.055Z" transform="translate(-152.652 -16.437)"/><g transform="translate(0 200.866)"><path class="g" d="M163.36,242.774l4.315.769.357-7.1L163.9,237.5Z" transform="translate(-159.808 -206.266)"/><path class="a" d="M160.225,235.07s-.2,6.59.2,7.438,4.46,1.851,5.575,1.851,1.115-1.606-1.55-2.832l-1.773-.6.87-5.23Z" transform="translate(-160.175 -206.424)"/><path class="a" d="M173.923,227.81c-5.966,1.115-11.229,1.517-12.266,3.223-.881,2.286-1.4,8.921.937,8.843s14.463-7.393,14.463-7.393S174.859,227.721,173.923,227.81Z" transform="translate(-160.09 -207.259)"/><g transform="translate(1.639)"><g transform="translate(0.47 52.331)"><rect class="x" width="0.926" height="11.318" transform="translate(0.294 0) rotate(1.49)"/><rect class="x" width="0.926" height="11.318" transform="translate(1.508 0.031) rotate(1.49)"/><rect class="x" width="0.926" height="11.318" transform="translate(2.723 0.063) rotate(1.49)"/><rect class="x" width="0.926" height="11.318" transform="translate(3.926 0.105) rotate(1.49)"/><rect class="x" width="0.926" height="11.318" transform="translate(5.14 0.137) rotate(1.49)"/><rect class="x" width="0.926" height="11.318" transform="matrix(1, 0.025, -0.025, 1, 6.362, 0.144)"/><rect class="x" width="0.926" height="11.318" transform="translate(7.557 0.189) rotate(1.49)"/><rect class="x" width="0.926" height="11.318" transform="translate(8.76 0.22) rotate(1.49)"/><rect class="x" width="0.926" height="11.318" transform="translate(9.974 0.252) rotate(1.49)"/></g><path class="v" d="M169.241,253.843l-3.591-.089s.167-36.9.457-39.407,1.472-4.94,2.487-4.917,1.84,2.23,2.23,5.04S169.241,253.843,169.241,253.843Z" transform="translate(-161.184 -209.374)"/><path class="v" d="M173.511,257.954l-11.641-.3.123-4.628,4.148-4.215,3.568.1,3.925,4.416Z" transform="translate(-161.619 -204.843)"/><path class="w" d="M169.706,253.448h0c.212-3.981,1.918-36.374,1.561-39.028s-1.215-5.018-2.23-5.04c2.063,9.322-1.516,43.956-1.516,43.956l.368.413h0l3.535,3.914-.1,3.858-9.422-.245v.859l11.641.3.123-4.628Z" transform="translate(-161.616 -209.38)"/><path class="x" d="M162.78,255.687l6.367.167s-1.271-5.23-3.055-5.274S162.78,255.687,162.78,255.687Z" transform="translate(-161.515 -204.639)"/><path class="x" d="M167.55,212.3c1.751,0,.758,25.647-.747,25.647-.758,0-.491-6.49-.335-12.924S166.68,212.278,167.55,212.3Z" transform="translate(-161.11 -209.044)"/><path class="z" d="M161.651,266.04c-.067-.4.8-.379,2.554-.39s3.814.613,5.085.658,3.145-.368,3.524.112-.29,1.115-4.148,1.026S161.494,266.877,161.651,266.04Z" transform="translate(-161.645 -202.905)"/></g><path class="a" d="M176.38,232.025s-1.115,4.628-3.022,6.59a52.818,52.818,0,0,0-4.3,5.81c-1.762,2.431-2.966.446-1.818-1.762s2-1.639,2.52-6.49C170.192,232.225,175.343,231.266,176.38,232.025Z" transform="translate(-159.414 -206.802)"/><path class="a" d="M161.19,237.369s1.438,5.486,2.152,6.389,2.576,3.156,3.535,3.055.9-2.085-1.316-4.639l-.647-5.475Z" transform="translate(-160.058 -206.236)"/><path class="a" d="M161.168,233.12a6.167,6.167,0,0,0-.948,2.174c-.067.847,1.215,1.294,1.215,1.294Z" transform="translate(-160.17 -206.648)"/><path class="g" d="M167.5,245.737c-.569.725-2.375-.736-3.468-2.107a13.95,13.95,0,0,1-2.052-4.159c-.357.145.39,2.944.39,2.944-1.293-.335-1.9-.781-2.1-1.182a2.521,2.521,0,0,0,.145.769c.223.479,1.628,1,2.988,1.372v.067c.7.892,2.576,3.156,3.535,3.055C167.306,246.473,167.473,246.172,167.5,245.737Z" transform="translate(-160.164 -205.917)"/></g><path class="g" d="M227.878,197.43l28.8,22.937-4.884,4.694L223.63,202.7Z" transform="translate(-152.873 -9.889)"/><path class="g" d="M259.432,215.92c-6.033,6.445-15.488,14.306-25.011,16.548-17.73,4.17-43.622,2.1-59.991.156l.769,1.115c16.314,2.063,40.979,5.285,61.329,1.115,11.686-2.375,19.648-9.824,26.438-16.224Z" transform="translate(-158.535 -7.761)"/><path class="g" d="M168.974,244.076a49.81,49.81,0,0,1,4.159-5.631c1.806-1.9,2.933-6.389,2.933-6.389-.2-.156-.29-1.115-.769-1.115a59.105,59.105,0,0,1-2.5,6.345c-.959,1.684-2.554,3.657-3.345,4.839s-1.851,3.145-2.554,2.665h0C167.268,245.347,168.026,245.369,168.974,244.076Z" transform="translate(-159.401 -6.033)"/><path class="h" d="M385.13,211.3l1.8,3.3,32.694-12.913-2.431-7.092Z" transform="translate(-134.288 -10.214)"/></g><g transform="translate(0 277.26)"><rect class="v" width="362.612" height="67.016" transform="translate(384.579 118.287) rotate(180)"/><rect class="ab" width="11.753" height="276.951" transform="translate(390.868 286.296) rotate(180)"/><rect class="ab" width="11.753" height="276.951" transform="translate(30.531 286.296) rotate(180)"/><rect class="v" width="406.523" height="55.263" transform="translate(406.523 55.263) rotate(180)"/><rect class="x" width="406.523" height="9.657" transform="translate(406.523 55.442) rotate(180)"/><path class="ac" d="M85.51,327.45h372.1v52.13s-32.07-41.135-185.671-41.135S85.51,379.58,85.51,379.58Z" transform="translate(-66.743 -272.187)"/><rect class="y" width="406.523" height="1.349" transform="translate(406.523 47.145) rotate(180)"/></g><g transform="translate(11.92 278.9)"><g transform="translate(0 0.212)"><rect class="ab" width="180.352" height="16.905" transform="translate(185.415 39.831) rotate(180)"/><rect class="ad" width="190.477" height="36.931" transform="translate(190.477 36.931) rotate(180)"/><rect class="ae" width="190.477" height="1.193" transform="translate(190.477 36.931) rotate(180)"/><rect class="af" width="180.955" height="29.193" transform="translate(185.716 33.062) rotate(180)"/></g><g transform="translate(6.813 16.124)"><path class="ag" d="M119.088,306.205c0,1.829-7.527.68-16.8.68s-16.8,1.059-16.8-.68c0-.825,7.527-1.505,16.8-1.505S119.088,305.38,119.088,306.205Z" transform="translate(-85.48 -292.568)"/><g transform="translate(0.543)"><path class="ah" d="M96.665,306.866c-.524-.669-2.23-12.009-1.528-12.545s10.482-.758,11.374-.078-.87,12.188-1.316,12.567a37.648,37.648,0,0,1-4.46,0C98.739,306.889,96.933,307.2,96.665,306.866Z" transform="translate(-84.931 -293.82)"/><path class="ah" d="M96.319,294.81s-6.389,1.884-6.913,2.8,2.988,9.244,3.568,9.512,4.237-.613,4.237-.613Z" transform="translate(-85.577 -293.706)"/><path class="ah" d="M90.386,298.66s-3.8,4.728-4.17,5.988c-.112.357-.714,1.706.491,2.386a5.152,5.152,0,0,0,3.178.167l3.892-.736Z" transform="translate(-85.967 -293.263)"/><path class="ah" d="M104.542,294.76s6.412,1.8,6.958,2.71-3.524,9.322-4.1,9.59-3.557-.6-3.557-.6Z" transform="translate(-83.91 -293.712)"/><path class="ah" d="M110.871,298.61s4.338,4.616,5.074,6.066a1.673,1.673,0,0,1-.457,2.386,4.627,4.627,0,0,1-3.167.212l-5.04-.9Z" transform="translate(-83.514 -293.269)"/><path class="ai" d="M110.4,299.58s4.962,4.46,4.761,5.285-6.69-.914-6.69-.914Z" transform="translate(-83.377 -293.157)"/><path class="ai" d="M105.764,295.61s4.973,1.528,5.04,2.308-2.754,6.69-3.156,6.768a8.821,8.821,0,0,1-2.765-.758C104.738,303.717,105.206,295.666,105.764,295.61Z" transform="translate(-83.793 -293.614)"/><path class="ai" d="M105.45,294.81c.312.312-.959,8.865-1.115,9.043a41.837,41.837,0,0,1-7.382,0c-.3-.256-1.238-8.664-.937-9.1S104.658,294.03,105.45,294.81Z" transform="translate(-84.817 -293.762)"/><path class="ai" d="M95.367,295.914c.29.156.892,7.616.736,8.051s-2.9.881-3.055.658-2.732-6.69-2.587-7.114S94.821,295.613,95.367,295.914Z" transform="translate(-85.45 -293.584)"/><path class="ai" d="M89.7,300.48c.3,0,1.74,3.747,1.639,4.014s-4.315.97-4.46.546S89.4,300.48,89.7,300.48Z" transform="translate(-85.862 -293.054)"/></g></g><g transform="translate(41.96 16.124)"><path class="ag" d="M150.608,306.205c0,1.829-7.527.68-16.8.68s-16.8,1.059-16.8-.68c0-.825,7.527-1.505,16.8-1.505S150.608,305.38,150.608,306.205Z" transform="translate(-117 -292.568)"/><g transform="translate(0.543)"><path class="ah" d="M128.175,306.866c-.524-.669-2.23-12.009-1.528-12.545s10.482-.758,11.374-.078-.87,12.188-1.316,12.567a37.719,37.719,0,0,1-4.46,0C130.26,306.889,128.454,307.2,128.175,306.866Z" transform="translate(-116.452 -293.82)"/><path class="ah" d="M127.839,294.81s-6.389,1.884-6.913,2.8,2.988,9.244,3.568,9.512,4.237-.613,4.237-.613Z" transform="translate(-117.097 -293.706)"/><path class="ah" d="M121.906,298.66s-3.847,4.728-4.17,5.955c-.112.357-.714,1.706.491,2.386a5.152,5.152,0,0,0,3.178.167l3.892-.736Z" transform="translate(-117.487 -293.263)"/><path class="ah" d="M136.072,294.76s6.412,1.8,6.958,2.71-3.524,9.322-4.1,9.59-3.557-.6-3.557-.6Z" transform="translate(-115.429 -293.712)"/><path class="ah" d="M142.371,298.61s4.338,4.616,5.074,6.066a1.673,1.673,0,0,1-.457,2.386,4.627,4.627,0,0,1-3.167.212l-5.04-.9Z" transform="translate(-115.036 -293.269)"/><path class="ai" d="M141.919,299.58s4.962,4.46,4.761,5.285-6.69-.914-6.69-.914Z" transform="translate(-114.897 -293.157)"/><path class="ai" d="M137.284,295.61s4.973,1.528,5.04,2.308-2.754,6.69-3.156,6.768a8.921,8.921,0,0,1-2.765-.758C136.258,303.717,136.726,295.666,137.284,295.61Z" transform="translate(-115.313 -293.614)"/><path class="ai" d="M136.98,294.81c.312.312-.959,8.865-1.115,9.043a41.837,41.837,0,0,1-7.382,0c-.3-.256-1.238-8.664-.937-9.1S136.177,294.03,136.98,294.81Z" transform="translate(-116.336 -293.762)"/><path class="ai" d="M126.887,295.914c.29.156.892,7.616.736,8.051s-2.9.881-3.055.658-2.732-6.69-2.587-7.114S126.341,295.613,126.887,295.914Z" transform="translate(-116.97 -293.584)"/><path class="ai" d="M121.228,300.48c.3,0,1.74,3.747,1.639,4.014s-4.315.97-4.516.546S120.927,300.48,121.228,300.48Z" transform="translate(-117.388 -293.054)"/></g></g><g transform="translate(77.107 16.124)"><path class="ag" d="M182.128,306.205c0,1.829-7.527.68-16.8.68s-16.8,1.059-16.8-.68c0-.825,7.527-1.505,16.8-1.505S182.128,305.38,182.128,306.205Z" transform="translate(-148.52 -292.568)"/><g transform="translate(0.576)"><path class="ah" d="M159.7,306.866c-.524-.669-2.23-12.009-1.528-12.545s10.482-.758,11.374-.078-.87,12.188-1.316,12.567a37.719,37.719,0,0,1-4.46,0C161.779,306.889,159.973,307.2,159.7,306.866Z" transform="translate(-148.004 -293.82)"/><path class="ah" d="M159.359,294.81s-6.389,1.884-6.913,2.8,2.988,9.244,3.568,9.512,4.237-.613,4.237-.613Z" transform="translate(-148.651 -293.706)"/><path class="ah" d="M153.456,298.66s-3.8,4.728-4.17,5.988c-.112.357-.714,1.706.491,2.386a5.152,5.152,0,0,0,3.178.167l3.892-.736Z" transform="translate(-149.037 -293.263)"/><path class="ah" d="M167.582,294.76s6.412,1.8,6.958,2.71-3.524,9.322-4.1,9.59-3.557-.6-3.557-.6Z" transform="translate(-146.983 -293.712)"/><path class="ah" d="M173.911,298.61s4.338,4.616,5.074,6.066c.167.479.814,1.528-.457,2.386a4.627,4.627,0,0,1-3.167.212l-5.04-.9Z" transform="translate(-146.588 -293.269)"/><path class="ai" d="M173.439,299.58s4.962,4.46,4.761,5.285-6.69-.914-6.69-.914Z" transform="translate(-146.451 -293.157)"/><path class="ai" d="M168.8,295.61s4.973,1.528,5.04,2.308-2.754,6.69-3.156,6.768a8.82,8.82,0,0,1-2.765-.758C167.778,303.717,168.246,295.666,168.8,295.61Z" transform="translate(-146.866 -293.614)"/><path class="ai" d="M168.49,294.81c.312.312-.959,8.865-1.115,9.043a41.837,41.837,0,0,1-7.382,0c-.3-.256-1.238-8.664-.937-9.1S167.7,294.03,168.49,294.81Z" transform="translate(-147.891 -293.762)"/><path class="ai" d="M158.407,295.914c.29.156.892,7.616.736,8.051s-2.9.881-3.055.658-2.732-6.69-2.587-7.114S157.861,295.613,158.407,295.914Z" transform="translate(-148.524 -293.584)"/><path class="ai" d="M152.742,300.48c.3,0,1.74,3.747,1.639,4.014s-4.315.97-4.46.546S152.441,300.48,152.742,300.48Z" transform="translate(-148.936 -293.054)"/></g></g><g transform="translate(112.255 16.124)"><path class="aj" d="M213.648,306.205c0,1.829-7.527.68-16.8.68s-16.8,1.059-16.8-.68c0-.825,7.516-1.505,16.8-1.505S213.648,305.38,213.648,306.205Z" transform="translate(-180.04 -292.568)"/><g transform="translate(0.543)"><path class="ak" d="M191.225,306.866c-.524-.669-2.23-12.009-1.528-12.545s10.482-.758,11.374-.078-.87,12.188-1.316,12.567a37.719,37.719,0,0,1-4.46,0C193.3,306.889,191.493,307.2,191.225,306.866Z" transform="translate(-179.491 -293.82)"/><path class="ak" d="M190.879,294.81s-6.389,1.884-6.913,2.8,2.988,9.244,3.568,9.512,4.237-.613,4.237-.613Z" transform="translate(-180.137 -293.706)"/><path class="ak" d="M184.946,298.66s-3.8,4.728-4.17,5.988c-.112.357-.714,1.706.491,2.386a5.152,5.152,0,0,0,3.178.167l3.892-.736Z" transform="translate(-180.527 -293.263)"/><path class="ak" d="M199.072,294.76s6.412,1.8,6.958,2.71-3.524,9.322-4.1,9.59-3.557-.6-3.557-.6Z" transform="translate(-178.473 -293.712)"/><path class="ak" d="M205.431,298.61s4.338,4.616,5.074,6.066c.167.479.814,1.528-.457,2.386a4.627,4.627,0,0,1-3.167.212l-5.04-.9Z" transform="translate(-178.074 -293.269)"/><path class="al" d="M204.959,299.58s4.962,4.46,4.761,5.285-6.69-.914-6.69-.914Z" transform="translate(-177.937 -293.157)"/><path class="al" d="M200.324,295.61s4.973,1.528,5.029,2.308-2.743,6.69-3.144,6.768a8.821,8.821,0,0,1-2.765-.758C199.3,303.717,199.766,295.666,200.324,295.61Z" transform="translate(-178.353 -293.614)"/><path class="al" d="M199.98,294.81c.312.312-.959,8.865-1.115,9.043a41.837,41.837,0,0,1-7.382,0c-.3-.256-1.238-8.664-.937-9.1S199.221,294.03,199.98,294.81Z" transform="translate(-179.381 -293.762)"/><path class="al" d="M189.927,295.914c.29.156.892,7.616.736,8.051s-2.9.881-3.055.658-2.732-6.69-2.587-7.114S189.369,295.613,189.927,295.914Z" transform="translate(-180.01 -293.584)"/><path class="al" d="M184.3,300.48c.3,0,1.74,3.747,1.639,4.014s-4.315.97-4.516.546S183.963,300.48,184.3,300.48Z" transform="translate(-180.425 -293.054)"/><path class="am" d="M181.933,304.335c-.29-.223,1.862-3.29,2.108-3.245s.9,1.338.658,1.561S182.234,304.536,181.933,304.335Z" transform="translate(-180.368 -292.984)"/><path class="am" d="M185.493,297.53c.346-.58,3.345-1.293,3.914-1.26s1.059,3.635-1.2,4.326S185.3,297.842,185.493,297.53Z" transform="translate(-179.959 -293.538)"/><path class="am" d="M191.006,294.944a26.392,26.392,0,0,1,8.33,0,4.215,4.215,0,0,1-4.382,4.572C190.169,299.75,191.006,294.944,191.006,294.944Z" transform="translate(-179.327 -293.729)"/><path class="am" d="M200.439,296.073s-.937,3.657,1.438,4.115a2.565,2.565,0,0,0,2.977-2.364C204.754,297.623,200.74,295.783,200.439,296.073Z" transform="translate(-178.256 -293.564)"/><path class="am" d="M204.95,300.2c.178,0,3.423,2.855,3.223,3.2s-3.724-1.438-3.791-1.583S204.649,300.233,204.95,300.2Z" transform="translate(-177.783 -293.086)"/></g></g><g transform="translate(147.402 16.124)"><path class="aj" d="M245.157,306.205c0,1.829-7.516.68-16.793.68s-16.8,1.059-16.8-.68c0-.825,7.516-1.505,16.8-1.505S245.157,305.38,245.157,306.205Z" transform="translate(-211.56 -292.568)"/><g transform="translate(0.532)"><path class="ak" d="M222.745,306.866c-.524-.669-2.23-12.009-1.528-12.545s10.482-.758,11.374-.078-.87,12.188-1.316,12.567a37.719,37.719,0,0,1-4.46,0C224.819,306.889,223.012,307.2,222.745,306.866Z" transform="translate(-210.999 -293.82)"/><path class="ak" d="M222.4,294.81s-6.389,1.884-6.913,2.8,2.988,9.244,3.568,9.512,4.237-.613,4.237-.613Z" transform="translate(-211.646 -293.706)"/><path class="ak" d="M216.456,298.66s-3.8,4.728-4.17,5.988c-.112.357-.714,1.706.491,2.386a5.152,5.152,0,0,0,3.178.167l3.892-.736Z" transform="translate(-212.037 -293.263)"/><path class="ak" d="M230.622,294.76s6.412,1.8,6.958,2.71-3.524,9.322-4.1,9.59-3.557-.6-3.557-.6Z" transform="translate(-209.979 -293.712)"/><path class="ak" d="M236.951,298.61s4.338,4.616,5.074,6.066c.167.479.814,1.528-.457,2.386a4.627,4.627,0,0,1-3.167.212l-5.04-.9Z" transform="translate(-209.583 -293.269)"/><path class="al" d="M236.479,299.58s4.962,4.46,4.761,5.285-6.69-.914-6.69-.914Z" transform="translate(-209.446 -293.157)"/><path class="al" d="M231.844,295.61s4.973,1.528,5.029,2.308-2.743,6.69-3.145,6.768a8.82,8.82,0,0,1-2.765-.758C230.818,303.717,231.286,295.666,231.844,295.61Z" transform="translate(-209.862 -293.614)"/><path class="al" d="M231.53,294.81c.312.312-.959,8.865-1.115,9.043a41.837,41.837,0,0,1-7.382,0c-.3-.256-1.238-8.664-.937-9.1S230.738,294.03,231.53,294.81Z" transform="translate(-210.886 -293.762)"/><path class="al" d="M221.447,295.914c.29.156.892,7.616.736,8.051s-2.9.881-3.055.658-2.732-6.69-2.587-7.114S220.889,295.613,221.447,295.914Z" transform="translate(-211.519 -293.584)"/><path class="al" d="M215.788,300.48c.3,0,1.74,3.747,1.639,4.014s-4.315.97-4.516.546S215.487,300.48,215.788,300.48Z" transform="translate(-211.937 -293.054)"/><path class="am" d="M213.453,304.335c-.29-.223,1.862-3.29,2.107-3.245s.9,1.338.658,1.561S213.754,304.536,213.453,304.335Z" transform="translate(-211.877 -292.984)"/><path class="am" d="M217,297.53c.346-.58,3.345-1.293,3.914-1.26s1.059,3.635-1.2,4.326S216.825,297.842,217,297.53Z" transform="translate(-211.469 -293.538)"/><path class="am" d="M222.5,294.944a26.392,26.392,0,0,1,8.33,0,4.215,4.215,0,0,1-4.416,4.561C221.692,299.75,222.5,294.944,222.5,294.944Z" transform="translate(-210.839 -293.729)"/><path class="am" d="M231.959,296.073s-.937,3.657,1.438,4.115a2.565,2.565,0,0,0,2.977-2.364C236.274,297.623,232.26,295.783,231.959,296.073Z" transform="translate(-209.765 -293.564)"/><path class="am" d="M236.47,300.2c.178,0,3.423,2.855,3.223,3.2s-3.724-1.438-3.791-1.583S236.168,300.233,236.47,300.2Z" transform="translate(-209.291 -293.086)"/></g></g><g transform="translate(6.813 0)"><path class="ag" d="M119.088,291.745c0,1.829-7.527.68-16.8.68s-16.8,1.059-16.8-.68c0-.836,7.527-1.505,16.8-1.505S119.088,290.909,119.088,291.745Z" transform="translate(-85.48 -278.108)"/><g transform="translate(0.543)"><path class="an" d="M96.665,292.406c-.524-.669-2.23-12.009-1.528-12.545s10.482-.758,11.374-.078-.87,12.188-1.316,12.567a40.5,40.5,0,0,1-4.46,0C98.739,292.429,96.933,292.741,96.665,292.406Z" transform="translate(-84.931 -279.36)"/><path class="an" d="M96.319,280.35s-6.389,1.873-6.913,2.8,2.988,9.244,3.568,9.512,4.237-.624,4.237-.624Z" transform="translate(-85.577 -279.246)"/><path class="an" d="M90.386,284.19s-3.8,4.739-4.17,6c-.112.357-.714,1.706.491,2.386a5.152,5.152,0,0,0,3.178.167l3.925-.736Z" transform="translate(-85.967 -278.804)"/><path class="an" d="M104.542,280.3s6.412,1.8,6.958,2.71-3.524,9.322-4.1,9.59-3.557-.6-3.557-.6Z" transform="translate(-83.91 -279.252)"/><path class="an" d="M110.871,284.15s4.338,4.616,5.074,6.066a1.673,1.673,0,0,1-.457,2.386,4.628,4.628,0,0,1-3.167.212l-5.04-.9Z" transform="translate(-83.514 -278.809)"/><path class="ao" d="M110.4,285.12s4.962,4.46,4.761,5.285-6.69-.914-6.69-.914Z" transform="translate(-83.377 -278.697)"/><path class="ao" d="M105.764,281.15s4.973,1.528,5.04,2.308-2.754,6.69-3.156,6.769a8.82,8.82,0,0,1-2.765-.758C104.738,289.257,105.206,281.195,105.764,281.15Z" transform="translate(-83.793 -279.154)"/><path class="ao" d="M105.45,280.351c.312.312-.959,8.865-1.115,9.043a41.84,41.84,0,0,1-7.382,0c-.3-.256-1.238-8.675-.937-9.11S104.658,279.56,105.45,280.351Z" transform="translate(-84.817 -279.303)"/><path class="ao" d="M95.367,281.454c.29.156.892,7.616.736,8.04s-2.9.892-3.055.669-2.732-6.69-2.587-7.125S94.821,281.153,95.367,281.454Z" transform="translate(-85.45 -279.124)"/><path class="ao" d="M89.7,286c.3,0,1.74,3.747,1.639,4s-4.315.981-4.46.546S89.4,286,89.7,286Z" transform="translate(-85.862 -278.596)"/></g></g><g transform="translate(41.96 0)"><path class="ag" d="M150.608,291.745c0,1.829-7.527.68-16.8.68s-16.8,1.059-16.8-.68c0-.836,7.527-1.505,16.8-1.505S150.608,290.909,150.608,291.745Z" transform="translate(-117 -278.108)"/><g transform="translate(0.543)"><path class="an" d="M128.175,292.406c-.524-.669-2.23-12.009-1.528-12.545s10.482-.758,11.374-.078-.87,12.188-1.316,12.567a40.587,40.587,0,0,1-4.46,0C130.26,292.429,128.454,292.741,128.175,292.406Z" transform="translate(-116.452 -279.36)"/><path class="an" d="M127.839,280.35s-6.389,1.873-6.913,2.8,2.988,9.244,3.568,9.512,4.237-.624,4.237-.624Z" transform="translate(-117.097 -279.246)"/><path class="an" d="M121.906,284.19s-3.8,4.739-4.17,6c-.112.357-.714,1.706.491,2.386a5.152,5.152,0,0,0,3.178.167l3.892-.736Z" transform="translate(-117.487 -278.804)"/><path class="an" d="M136.072,280.3s6.412,1.8,6.958,2.71-3.524,9.322-4.1,9.59-3.557-.6-3.557-.6Z" transform="translate(-115.429 -279.252)"/><path class="an" d="M142.371,284.15s4.338,4.616,5.074,6.066a1.673,1.673,0,0,1-.457,2.386,4.628,4.628,0,0,1-3.167.212l-5.04-.9Z" transform="translate(-115.036 -278.809)"/><path class="ao" d="M141.919,285.12s4.962,4.46,4.761,5.285-6.69-.914-6.69-.914Z" transform="translate(-114.897 -278.697)"/><path class="ao" d="M137.284,281.15s4.973,1.528,5.04,2.308-2.754,6.69-3.156,6.769a8.92,8.92,0,0,1-2.765-.758C136.258,289.257,136.726,281.195,137.284,281.15Z" transform="translate(-115.313 -279.154)"/><path class="ao" d="M136.98,280.351c.312.312-.959,8.865-1.115,9.043a41.84,41.84,0,0,1-7.382,0c-.3-.256-1.238-8.675-.937-9.11S136.177,279.56,136.98,280.351Z" transform="translate(-116.336 -279.303)"/><path class="ao" d="M126.887,281.454c.29.156.892,7.616.736,8.04s-2.9.892-3.055.669-2.732-6.69-2.587-7.125S126.341,281.153,126.887,281.454Z" transform="translate(-116.97 -279.124)"/><path class="ao" d="M121.228,286c.3,0,1.74,3.747,1.639,4s-4.315.981-4.516.546S120.927,286,121.228,286Z" transform="translate(-117.388 -278.596)"/></g></g><g transform="translate(77.107 0)"><path class="aj" d="M182.128,291.745c0,1.829-7.527.68-16.8.68s-16.8,1.059-16.8-.68c0-.836,7.527-1.505,16.8-1.505S182.128,290.909,182.128,291.745Z" transform="translate(-148.52 -278.108)"/><g transform="translate(0.576)"><path class="ap" d="M159.7,292.406c-.524-.669-2.23-12.009-1.528-12.545s10.482-.758,11.374-.078-.87,12.188-1.316,12.567a40.587,40.587,0,0,1-4.46,0C161.779,292.429,159.973,292.741,159.7,292.406Z" transform="translate(-148.004 -279.36)"/><path class="ap" d="M159.359,280.35s-6.389,1.873-6.913,2.8,2.988,9.244,3.568,9.512,4.237-.624,4.237-.624Z" transform="translate(-148.651 -279.246)"/><path class="ap" d="M153.456,284.19s-3.8,4.739-4.17,6c-.112.357-.714,1.706.491,2.386a5.151,5.151,0,0,0,3.178.167l3.892-.736Z" transform="translate(-149.037 -278.804)"/><path class="ap" d="M167.582,280.3s6.412,1.8,6.958,2.71-3.524,9.322-4.1,9.59-3.557-.6-3.557-.6Z" transform="translate(-146.983 -279.252)"/><path class="ap" d="M173.911,284.15s4.338,4.616,5.074,6.066c.167.479.814,1.528-.457,2.386a4.628,4.628,0,0,1-3.167.212l-5.04-.9Z" transform="translate(-146.588 -278.809)"/><path class="aq" d="M173.439,285.12s4.962,4.46,4.761,5.285-6.69-.914-6.69-.914Z" transform="translate(-146.451 -278.697)"/><path class="aq" d="M168.8,281.15s4.973,1.528,5.04,2.308-2.754,6.69-3.156,6.769a8.82,8.82,0,0,1-2.765-.758C167.778,289.257,168.246,281.195,168.8,281.15Z" transform="translate(-146.866 -279.154)"/><path class="aq" d="M168.49,280.351c.312.312-.959,8.865-1.115,9.043a41.84,41.84,0,0,1-7.382,0c-.3-.256-1.238-8.675-.937-9.11S167.7,279.56,168.49,280.351Z" transform="translate(-147.891 -279.303)"/><path class="ar" d="M158.407,281.454c.29.156.892,7.616.736,8.04s-2.9.892-3.055.669-2.732-6.69-2.587-7.125S157.861,281.153,158.407,281.454Z" transform="translate(-148.524 -279.124)"/><path class="ar" d="M152.742,286c.3,0,1.74,3.747,1.639,4s-4.315.981-4.46.546S152.441,286,152.742,286Z" transform="translate(-148.936 -278.596)"/><path class="as" d="M159.455,280.473a27.118,27.118,0,0,1,8.33,0,4.226,4.226,0,0,1-4.382,4.583C158.652,285.29,159.455,280.473,159.455,280.473Z" transform="translate(-147.844 -279.269)"/><path class="as" d="M168.919,281.613s-.937,3.657,1.438,4.115a2.565,2.565,0,0,0,2.977-2.364C173.234,283.163,169.22,281.323,168.919,281.613Z" transform="translate(-146.77 -279.104)"/><path class="as" d="M173.43,285.74c.178,0,3.423,2.855,3.223,3.2s-3.724-1.438-3.791-1.583S173.128,285.773,173.43,285.74Z" transform="translate(-146.296 -278.626)"/></g></g><g transform="translate(112.255 0)"><path class="aj" d="M213.648,291.745c0,1.829-7.527.68-16.8.68s-16.8,1.059-16.8-.68c0-.836,7.516-1.505,16.8-1.505S213.648,290.909,213.648,291.745Z" transform="translate(-180.04 -278.108)"/><g transform="translate(0.543)"><path class="at" d="M191.225,292.406c-.524-.669-2.23-12.009-1.528-12.545s10.482-.758,11.374-.078-.87,12.188-1.316,12.567a40.587,40.587,0,0,1-4.46,0C193.3,292.429,191.493,292.741,191.225,292.406Z" transform="translate(-179.491 -279.36)"/><path class="at" d="M190.879,280.35s-6.389,1.873-6.913,2.8,2.988,9.244,3.568,9.512,4.237-.624,4.237-.624Z" transform="translate(-180.137 -279.246)"/><path class="at" d="M184.946,284.19s-3.8,4.739-4.17,6c-.112.357-.714,1.706.491,2.386a5.152,5.152,0,0,0,3.178.167l3.892-.736Z" transform="translate(-180.527 -278.804)"/><path class="at" d="M199.072,280.3s6.412,1.8,6.958,2.71-3.524,9.322-4.1,9.59-3.557-.6-3.557-.6Z" transform="translate(-178.473 -279.252)"/><path class="at" d="M205.431,284.15s4.338,4.616,5.074,6.066c.167.479.814,1.528-.457,2.386a4.628,4.628,0,0,1-3.167.212l-5.04-.9Z" transform="translate(-178.074 -278.809)"/><path class="aq" d="M204.959,285.12s4.962,4.46,4.761,5.285-6.69-.914-6.69-.914Z" transform="translate(-177.937 -278.697)"/><path class="aq" d="M200.324,281.15s4.973,1.528,5.029,2.308-2.743,6.69-3.144,6.769a8.82,8.82,0,0,1-2.765-.758C199.3,289.257,199.766,281.195,200.324,281.15Z" transform="translate(-178.353 -279.154)"/><path class="aq" d="M199.98,280.351c.312.312-.959,8.865-1.115,9.043a41.84,41.84,0,0,1-7.382,0c-.3-.256-1.238-8.675-.937-9.11S199.221,279.56,199.98,280.351Z" transform="translate(-179.381 -279.303)"/><path class="aq" d="M189.927,281.454c.29.156.892,7.616.736,8.04s-2.9.892-3.055.669-2.732-6.69-2.587-7.125S189.369,281.153,189.927,281.454Z" transform="translate(-180.01 -279.124)"/><path class="aq" d="M184.3,286c.3,0,1.74,3.747,1.639,4s-4.315.981-4.516.546S183.963,286,184.3,286Z" transform="translate(-180.425 -278.596)"/><path class="au" d="M181.933,289.865c-.29-.223,1.862-3.289,2.108-3.245s.9,1.338.658,1.55S182.234,290.077,181.933,289.865Z" transform="translate(-180.368 -278.525)"/><path class="au" d="M185.493,283.07c.346-.58,3.345-1.293,3.914-1.26s1.059,3.635-1.2,4.327S185.3,283.382,185.493,283.07Z" transform="translate(-179.959 -279.078)"/><path class="au" d="M191.006,280.473a27.118,27.118,0,0,1,8.33,0,4.226,4.226,0,0,1-4.382,4.583C190.169,285.29,191.006,280.473,191.006,280.473Z" transform="translate(-179.327 -279.269)"/><path class="au" d="M200.439,281.613s-.937,3.657,1.438,4.115a2.565,2.565,0,0,0,2.977-2.364C204.754,283.163,200.74,281.323,200.439,281.613Z" transform="translate(-178.256 -279.104)"/><path class="au" d="M204.95,285.74c.178,0,3.423,2.855,3.223,3.2s-3.724-1.438-3.791-1.583S204.649,285.773,204.95,285.74Z" transform="translate(-177.783 -278.626)"/></g></g><g transform="translate(147.402 0)"><path class="aj" d="M245.157,291.745c0,1.829-7.516.68-16.793.68s-16.8,1.059-16.8-.68c0-.836,7.516-1.505,16.8-1.505S245.157,290.909,245.157,291.745Z" transform="translate(-211.56 -278.108)"/><g transform="translate(0.532)"><path class="at" d="M222.745,292.406c-.524-.669-2.23-12.009-1.528-12.545s10.482-.758,11.374-.078-.87,12.188-1.316,12.567a40.587,40.587,0,0,1-4.46,0C224.819,292.429,223.012,292.741,222.745,292.406Z" transform="translate(-210.999 -279.36)"/><path class="at" d="M222.4,280.35s-6.389,1.873-6.913,2.8,2.988,9.244,3.568,9.512,4.237-.624,4.237-.624Z" transform="translate(-211.646 -279.246)"/><path class="at" d="M216.456,284.19s-3.8,4.739-4.17,6c-.112.357-.714,1.706.491,2.386a5.152,5.152,0,0,0,3.178.167l3.892-.736Z" transform="translate(-212.037 -278.804)"/><path class="at" d="M230.622,280.3s6.412,1.8,6.958,2.71-3.524,9.322-4.1,9.59-3.557-.6-3.557-.6Z" transform="translate(-209.979 -279.252)"/><path class="at" d="M236.951,284.15s4.338,4.616,5.074,6.066c.167.479.814,1.528-.457,2.386a4.628,4.628,0,0,1-3.167.212l-5.04-.9Z" transform="translate(-209.583 -278.809)"/><path class="aq" d="M236.479,285.12s4.962,4.46,4.761,5.285-6.69-.914-6.69-.914Z" transform="translate(-209.446 -278.697)"/><path class="aq" d="M231.844,281.15s4.973,1.528,5.029,2.308-2.743,6.69-3.145,6.769a8.82,8.82,0,0,1-2.765-.758C230.818,289.257,231.286,281.195,231.844,281.15Z" transform="translate(-209.862 -279.154)"/><path class="aq" d="M231.53,280.351c.312.312-.959,8.865-1.115,9.043a41.84,41.84,0,0,1-7.382,0c-.3-.256-1.238-8.675-.937-9.11S230.738,279.56,231.53,280.351Z" transform="translate(-210.886 -279.303)"/><path class="aq" d="M221.447,281.454c.29.156.892,7.616.736,8.04s-2.9.892-3.055.669-2.732-6.69-2.587-7.125S220.889,281.153,221.447,281.454Z" transform="translate(-211.519 -279.124)"/><path class="aq" d="M215.788,286c.3,0,1.74,3.747,1.639,4s-4.315.981-4.516.546S215.487,286,215.788,286Z" transform="translate(-211.937 -278.596)"/><path class="au" d="M213.453,289.865c-.29-.223,1.862-3.289,2.107-3.245s.9,1.338.658,1.55S213.754,290.077,213.453,289.865Z" transform="translate(-211.877 -278.525)"/><path class="au" d="M217,283.07c.346-.58,3.345-1.293,3.914-1.26s1.059,3.635-1.2,4.327S216.825,283.382,217,283.07Z" transform="translate(-211.469 -279.078)"/><path class="au" d="M222.5,280.473a27.118,27.118,0,0,1,8.33,0,4.226,4.226,0,0,1-4.382,4.583C221.692,285.29,222.5,280.473,222.5,280.473Z" transform="translate(-210.839 -279.269)"/><path class="au" d="M231.959,281.613s-.937,3.657,1.438,4.115a2.565,2.565,0,0,0,2.977-2.364C236.274,283.163,232.26,281.323,231.959,281.613Z" transform="translate(-209.765 -279.104)"/><path class="au" d="M236.47,285.74c.178,0,3.423,2.855,3.223,3.2s-3.724-1.438-3.791-1.583S236.168,285.773,236.47,285.74Z" transform="translate(-209.291 -278.626)"/></g></g></g><g transform="translate(207.07 278.9)"><g transform="translate(0 0.212)"><rect class="ab" width="180.352" height="16.905" transform="translate(185.415 39.831) rotate(180)"/><rect class="ad" width="190.477" height="36.931" transform="translate(190.477 36.931) rotate(180)"/><rect class="ae" width="190.477" height="1.193" transform="translate(190.477 36.931) rotate(180)"/><rect class="af" width="180.955" height="29.193" transform="translate(185.716 33.062) rotate(180)"/></g><g transform="translate(112.255 16.124)"><path class="aj" d="M388.658,306.205c0,1.829-7.527.68-16.8.68s-16.8,1.059-16.8-.68c0-.825,7.527-1.505,16.8-1.505S388.658,305.38,388.658,306.205Z" transform="translate(-355.05 -292.568)"/><g transform="translate(0.543)"><path class="ak" d="M366.235,306.866c-.524-.669-2.23-12.009-1.528-12.545s10.482-.758,11.374-.078-.87,12.188-1.316,12.567a37.647,37.647,0,0,1-4.46,0C368.309,306.889,366.5,307.2,366.235,306.866Z" transform="translate(-354.501 -293.82)"/><path class="ak" d="M365.889,294.81s-6.389,1.884-6.913,2.8,2.988,9.244,3.568,9.512,4.237-.613,4.237-.613Z" transform="translate(-355.147 -293.706)"/><path class="ak" d="M359.956,298.66s-3.8,4.728-4.17,5.988c-.112.357-.714,1.706.491,2.386a5.152,5.152,0,0,0,3.178.167l3.892-.736Z" transform="translate(-355.537 -293.263)"/><path class="ak" d="M374.072,294.76s6.412,1.8,6.958,2.71-3.524,9.322-4.1,9.59-3.557-.6-3.557-.6Z" transform="translate(-353.485 -293.712)"/><path class="ak" d="M380.441,298.61s4.338,4.616,5.074,6.066a1.673,1.673,0,0,1-.457,2.386,4.627,4.627,0,0,1-3.167.212l-5.04-.9Z" transform="translate(-353.084 -293.269)"/><path class="al" d="M379.969,299.58s4.962,4.46,4.761,5.285-6.69-.914-6.69-.914Z" transform="translate(-352.947 -293.157)"/><path class="al" d="M375.334,295.61s4.973,1.528,5.04,2.308-2.754,6.69-3.144,6.768a8.921,8.921,0,0,1-2.777-.758C374.308,303.717,374.776,295.666,375.334,295.61Z" transform="translate(-353.363 -293.614)"/><path class="al" d="M374.98,294.81c.312.312-.959,8.865-1.115,9.043a41.837,41.837,0,0,1-7.382,0c-.3-.256-1.238-8.664-.937-9.1S374.232,294.03,374.98,294.81Z" transform="translate(-354.392 -293.762)"/><path class="al" d="M364.937,295.914c.29.156.892,7.616.736,8.051s-2.9.881-3.055.658-2.732-6.69-2.587-7.114S364.391,295.613,364.937,295.914Z" transform="translate(-355.02 -293.584)"/><path class="al" d="M359.3,300.48c.3,0,1.74,3.747,1.639,4.014s-4.315.97-4.516.546S358.975,300.48,359.3,300.48Z" transform="translate(-355.436 -293.054)"/><path class="am" d="M356.943,304.335c-.29-.223,1.862-3.29,2.107-3.245s.9,1.338.658,1.561S357.244,304.536,356.943,304.335Z" transform="translate(-355.378 -292.984)"/><path class="am" d="M360.5,297.53c.346-.58,3.345-1.293,3.914-1.26s1.059,3.635-1.2,4.326S360.314,297.842,360.5,297.53Z" transform="translate(-354.969 -293.538)"/><path class="am" d="M366.006,294.944a26.392,26.392,0,0,1,8.33,0,4.215,4.215,0,0,1-4.382,4.572C365.18,299.75,366.006,294.944,366.006,294.944Z" transform="translate(-354.338 -293.729)"/><path class="am" d="M375.449,296.073s-.937,3.657,1.438,4.115a2.565,2.565,0,0,0,2.977-2.364C379.764,297.623,375.75,295.783,375.449,296.073Z" transform="translate(-353.266 -293.564)"/><path class="am" d="M379.96,300.2c.178,0,3.423,2.855,3.223,3.2s-3.724-1.438-3.791-1.583S379.659,300.233,379.96,300.2Z" transform="translate(-352.793 -293.086)"/></g></g><g transform="translate(147.402 16.124)"><path class="aj" d="M420.178,306.205c0,1.829-7.527.68-16.8.68s-16.8,1.059-16.8-.68c0-.825,7.527-1.505,16.8-1.505S420.178,305.38,420.178,306.205Z" transform="translate(-386.57 -292.568)"/><g transform="translate(0.52)"><path class="ak" d="M397.755,306.866c-.524-.669-2.23-12.009-1.528-12.545s10.482-.758,11.374-.078-.87,12.188-1.316,12.567a37.647,37.647,0,0,1-4.46,0C399.829,306.889,398.023,307.2,397.755,306.866Z" transform="translate(-385.998 -293.82)"/><path class="ak" d="M397.409,294.81s-6.389,1.884-6.914,2.8,2.988,9.244,3.568,9.512,4.237-.613,4.237-.613Z" transform="translate(-386.645 -293.706)"/><path class="ak" d="M391.456,298.66s-3.8,4.728-4.17,5.988c-.112.357-.714,1.706.491,2.386a5.152,5.152,0,0,0,3.178.167l3.892-.736Z" transform="translate(-387.037 -293.263)"/><path class="ak" d="M405.633,294.76s6.412,1.8,6.958,2.71-3.524,9.322-4.1,9.59-3.557-.6-3.557-.6Z" transform="translate(-384.978 -293.712)"/><path class="ak" d="M411.961,298.61s4.338,4.616,5.074,6.066a1.673,1.673,0,0,1-.457,2.386,4.628,4.628,0,0,1-3.167.212l-5.04-.9Z" transform="translate(-384.582 -293.269)"/><path class="al" d="M411.489,299.58s4.962,4.46,4.761,5.285-6.69-.914-6.69-.914Z" transform="translate(-384.445 -293.157)"/><path class="al" d="M406.854,295.61s4.973,1.528,5.04,2.308-2.743,6.69-3.144,6.768a8.921,8.921,0,0,1-2.777-.758C405.828,303.717,406.3,295.666,406.854,295.61Z" transform="translate(-384.861 -293.614)"/><path class="al" d="M406.54,294.81c.312.312-.948,8.865-1.115,9.043a41.838,41.838,0,0,1-7.382,0c-.3-.256-1.238-8.664-.937-9.1S405.748,294.03,406.54,294.81Z" transform="translate(-385.885 -293.762)"/><path class="al" d="M396.507,295.914c.29.156.892,7.616.736,8.051s-2.9.881-3.055.658-2.732-6.69-2.587-7.114S395.9,295.613,396.507,295.914Z" transform="translate(-386.512 -293.584)"/><path class="al" d="M390.8,300.48c.3,0,1.74,3.747,1.639,4.014s-4.315.97-4.516.546S390.5,300.48,390.8,300.48Z" transform="translate(-386.936 -293.054)"/><path class="am" d="M388.463,304.335c-.29-.223,1.862-3.29,2.108-3.245s.9,1.338.658,1.561S388.764,304.536,388.463,304.335Z" transform="translate(-386.876 -292.984)"/><path class="am" d="M392,297.53c.346-.58,3.345-1.293,3.914-1.26s1.115,3.635-1.2,4.326S391.836,297.842,392,297.53Z" transform="translate(-386.468 -293.538)"/><path class="am" d="M397.505,294.944a26.392,26.392,0,0,1,8.33,0,4.215,4.215,0,0,1-4.427,4.561C396.7,299.75,397.505,294.944,397.505,294.944Z" transform="translate(-385.838 -293.729)"/><path class="am" d="M407.019,296.073s-.937,3.657,1.438,4.115a2.565,2.565,0,0,0,2.977-2.364C411.278,297.623,407.264,295.783,407.019,296.073Z" transform="translate(-384.758 -293.564)"/><path class="am" d="M411.48,300.2c.178,0,3.423,2.855,3.223,3.2s-3.724-1.438-3.791-1.583S411.178,300.233,411.48,300.2Z" transform="translate(-384.29 -293.086)"/></g></g><g transform="translate(112.255 0)"><path class="aj" d="M388.658,291.745c0,1.829-7.527.68-16.8.68s-16.8,1.059-16.8-.68c0-.836,7.527-1.505,16.8-1.505S388.658,290.909,388.658,291.745Z" transform="translate(-355.05 -278.108)"/><g transform="translate(0.543)"><path class="at" d="M366.235,292.406c-.524-.669-2.23-12.009-1.528-12.545s10.482-.758,11.374-.078-.87,12.188-1.316,12.567a40.5,40.5,0,0,1-4.46,0C368.309,292.429,366.5,292.741,366.235,292.406Z" transform="translate(-354.501 -279.36)"/><path class="at" d="M365.889,280.35s-6.389,1.873-6.913,2.8,2.988,9.244,3.568,9.512,4.237-.624,4.237-.624Z" transform="translate(-355.147 -279.246)"/><path class="at" d="M359.956,284.19s-3.8,4.739-4.17,6c-.112.357-.714,1.706.491,2.386a5.152,5.152,0,0,0,3.178.167l3.892-.736Z" transform="translate(-355.537 -278.804)"/><path class="at" d="M374.072,280.3s6.412,1.8,6.958,2.71-3.524,9.322-4.1,9.59-3.557-.6-3.557-.6Z" transform="translate(-353.485 -279.252)"/><path class="at" d="M380.441,284.15s4.338,4.616,5.074,6.066a1.673,1.673,0,0,1-.457,2.386,4.628,4.628,0,0,1-3.167.212l-5.04-.9Z" transform="translate(-353.084 -278.809)"/><path class="aq" d="M379.969,285.12s4.962,4.46,4.761,5.285-6.69-.914-6.69-.914Z" transform="translate(-352.947 -278.697)"/><path class="aq" d="M375.334,281.15s4.973,1.528,5.04,2.308-2.754,6.69-3.144,6.769a8.921,8.921,0,0,1-2.777-.758C374.308,289.257,374.776,281.195,375.334,281.15Z" transform="translate(-353.363 -279.154)"/><path class="aq" d="M374.98,280.351c.312.312-.959,8.865-1.115,9.043a41.84,41.84,0,0,1-7.382,0c-.3-.256-1.238-8.675-.937-9.11S374.232,279.56,374.98,280.351Z" transform="translate(-354.392 -279.303)"/><path class="aq" d="M364.937,281.454c.29.156.892,7.616.736,8.04s-2.9.892-3.055.669-2.732-6.69-2.587-7.125S364.391,281.153,364.937,281.454Z" transform="translate(-355.02 -279.124)"/><path class="aq" d="M359.3,286c.3,0,1.74,3.747,1.639,4s-4.315.981-4.516.546S358.975,286,359.3,286Z" transform="translate(-355.436 -278.596)"/><path class="au" d="M356.943,289.865c-.29-.223,1.862-3.289,2.107-3.245s.9,1.338.658,1.55S357.244,290.077,356.943,289.865Z" transform="translate(-355.378 -278.525)"/><path class="au" d="M360.5,283.07c.346-.58,3.345-1.293,3.914-1.26s1.059,3.635-1.2,4.327S360.314,283.382,360.5,283.07Z" transform="translate(-354.969 -279.078)"/><path class="au" d="M366.006,280.473a27.118,27.118,0,0,1,8.33,0,4.226,4.226,0,0,1-4.382,4.583C365.18,285.29,366.006,280.473,366.006,280.473Z" transform="translate(-354.338 -279.269)"/><path class="au" d="M375.449,281.613s-.937,3.657,1.438,4.115a2.565,2.565,0,0,0,2.977-2.364C379.764,283.163,375.75,281.323,375.449,281.613Z" transform="translate(-353.266 -279.104)"/><path class="au" d="M379.96,285.74c.178,0,3.423,2.855,3.223,3.2s-3.724-1.438-3.791-1.583S379.659,285.773,379.96,285.74Z" transform="translate(-352.793 -278.626)"/></g></g><g transform="translate(147.402 0)"><path class="aj" d="M420.178,291.745c0,1.829-7.527.68-16.8.68s-16.8,1.059-16.8-.68c0-.836,7.527-1.505,16.8-1.505S420.178,290.909,420.178,291.745Z" transform="translate(-386.57 -278.108)"/><g transform="translate(0.52)"><path class="at" d="M397.755,292.406c-.524-.669-2.23-12.009-1.528-12.545s10.482-.758,11.374-.078-.87,12.188-1.316,12.567a40.5,40.5,0,0,1-4.46,0C399.829,292.429,398.023,292.741,397.755,292.406Z" transform="translate(-385.998 -279.36)"/><path class="at" d="M397.409,280.35s-6.389,1.873-6.914,2.8,2.988,9.244,3.568,9.512,4.237-.624,4.237-.624Z" transform="translate(-386.645 -279.246)"/><path class="at" d="M391.456,284.19s-3.8,4.739-4.17,6c-.112.357-.714,1.706.491,2.386a5.152,5.152,0,0,0,3.178.167l3.892-.736Z" transform="translate(-387.037 -278.804)"/><path class="at" d="M405.633,280.3s6.412,1.8,6.958,2.71-3.524,9.322-4.1,9.59-3.557-.6-3.557-.6Z" transform="translate(-384.978 -279.252)"/><path class="at" d="M411.961,284.15s4.338,4.616,5.074,6.066a1.673,1.673,0,0,1-.457,2.386,4.628,4.628,0,0,1-3.167.212l-5.04-.9Z" transform="translate(-384.582 -278.809)"/><path class="aq" d="M411.489,285.12s4.962,4.46,4.761,5.285-6.69-.914-6.69-.914Z" transform="translate(-384.445 -278.697)"/><path class="aq" d="M406.854,281.15s4.973,1.528,5.04,2.308-2.743,6.69-3.144,6.769a8.921,8.921,0,0,1-2.777-.758C405.828,289.257,406.3,281.195,406.854,281.15Z" transform="translate(-384.861 -279.154)"/><path class="aq" d="M406.54,280.351c.312.312-.948,8.865-1.115,9.043a41.841,41.841,0,0,1-7.382,0c-.3-.256-1.238-8.675-.937-9.11S405.748,279.56,406.54,280.351Z" transform="translate(-385.885 -279.303)"/><path class="aq" d="M396.507,281.454c.29.156.892,7.616.736,8.04s-2.9.892-3.055.669-2.732-6.69-2.587-7.125S395.9,281.153,396.507,281.454Z" transform="translate(-386.512 -279.124)"/><path class="aq" d="M390.8,286c.3,0,1.74,3.747,1.639,4s-4.315.981-4.516.546S390.5,286,390.8,286Z" transform="translate(-386.936 -278.596)"/><path class="au" d="M388.463,289.865c-.29-.223,1.862-3.289,2.108-3.245s.9,1.338.658,1.55S388.764,290.077,388.463,289.865Z" transform="translate(-386.876 -278.525)"/><path class="au" d="M392,283.07c.346-.58,3.345-1.293,3.914-1.26s1.115,3.635-1.2,4.327S391.836,283.382,392,283.07Z" transform="translate(-386.468 -279.078)"/><path class="au" d="M397.505,280.473a27.118,27.118,0,0,1,8.33,0,4.226,4.226,0,0,1-4.382,4.583C396.7,285.29,397.505,280.473,397.505,280.473Z" transform="translate(-385.838 -279.269)"/><path class="au" d="M407.019,281.613s-.937,3.657,1.438,4.115a2.565,2.565,0,0,0,2.977-2.364C411.278,283.163,407.264,281.323,407.019,281.613Z" transform="translate(-384.758 -279.104)"/><path class="au" d="M411.48,285.74c.178,0,3.423,2.855,3.223,3.2s-3.724-1.438-3.791-1.583S411.178,285.773,411.48,285.74Z" transform="translate(-384.29 -278.626)"/></g></g><g transform="translate(41.882 16.124)"><path class="aj" d="M325.537,306.205c0,1.829-7.516.68-16.8.68s-16.793,1.059-16.793-.68c0-.825,7.516-1.505,16.793-1.505S325.537,305.38,325.537,306.205Z" transform="translate(-291.94 -292.568)"/><g transform="translate(0.542)"><path class="ak" d="M303.176,306.866c-.535-.669-2.23-12.009-1.539-12.545s10.482-.758,11.385-.078-.87,12.188-1.316,12.567a37.916,37.916,0,0,1-4.46,0C305.194,306.889,303.376,307.2,303.176,306.866Z" transform="translate(-291.384 -293.82)"/><path class="ak" d="M302.768,294.81s-6.378,1.884-6.9,2.8,2.977,9.244,3.557,9.512,4.248-.613,4.248-.613Z" transform="translate(-292.036 -293.706)"/><path class="ak" d="M296.846,298.66s-3.78,4.728-4.182,5.955c-.1.357-.7,1.706.5,2.386a5.119,5.119,0,0,0,3.167.167l3.892-.736Z" transform="translate(-292.426 -293.263)"/><path class="ak" d="M310.991,294.76s6.423,1.8,6.958,2.71-3.512,9.322-4.092,9.59-3.557-.6-3.557-.6Z" transform="translate(-290.369 -293.712)"/><path class="ak" d="M317.371,298.61s4.338,4.616,5.085,6.066c.167.479.814,1.528-.457,2.386a4.627,4.627,0,0,1-3.167.212l-5.051-.9Z" transform="translate(-289.968 -293.269)"/><path class="al" d="M316.859,299.58s4.951,4.46,4.761,5.285-6.69-.914-6.69-.914Z" transform="translate(-289.836 -293.157)"/><path class="al" d="M312.213,295.61s4.984,1.528,5.04,2.308-2.743,6.69-3.144,6.768a8.821,8.821,0,0,1-2.765-.758C311.187,303.717,311.666,295.666,312.213,295.61Z" transform="translate(-290.252 -293.614)"/><path class="al" d="M311.9,294.81c.323.312-.948,8.865-1.115,9.043a41.837,41.837,0,0,1-7.382,0c-.312-.256-1.227-8.664-.937-9.1S311.119,294.03,311.9,294.81Z" transform="translate(-291.277 -293.762)"/><path class="al" d="M301.827,295.914a48.761,48.761,0,0,1,.736,8.051c-.145.424-2.9.881-3.055.658s-2.732-6.69-2.587-7.114S301.269,295.613,301.827,295.914Z" transform="translate(-291.909 -293.584)"/><path class="al" d="M296.152,300.48c.3,0,1.74,3.747,1.639,4.014s-4.3.97-4.46.546S295.851,300.48,296.152,300.48Z" transform="translate(-292.322 -293.054)"/><path class="am" d="M293.833,304.335c-.29-.223,1.862-3.29,2.108-3.245s.9,1.338.658,1.561S294.134,304.536,293.833,304.335Z" transform="translate(-292.267 -292.984)"/><path class="am" d="M297.393,297.53c.335-.58,3.345-1.293,3.914-1.26s1.048,3.635-1.2,4.326S297.2,297.842,297.393,297.53Z" transform="translate(-291.858 -293.538)"/><path class="am" d="M302.865,294.944a26.462,26.462,0,0,1,8.341,0,4.215,4.215,0,0,1-4.382,4.572C302.062,299.75,302.865,294.944,302.865,294.944Z" transform="translate(-291.23 -293.729)"/><path class="am" d="M312.339,296.073s-.937,3.657,1.438,4.115a2.565,2.565,0,0,0,2.977-2.364C316.654,297.623,312.64,295.783,312.339,296.073Z" transform="translate(-290.155 -293.564)"/><path class="am" d="M316.85,300.2c.167,0,3.412,2.855,3.211,3.2s-3.713-1.438-3.78-1.583S316.549,300.233,316.85,300.2Z" transform="translate(-289.681 -293.086)"/></g></g><g transform="translate(77.029 16.124)"><path class="aj" d="M357.057,306.205c0,1.829-7.516.68-16.8.68s-16.793,1.059-16.793-.68c0-.825,7.516-1.505,16.793-1.505S357.057,305.38,357.057,306.205Z" transform="translate(-323.46 -292.568)"/><g transform="translate(0.542)"><path class="ak" d="M334.646,306.866c-.535-.669-2.23-12.009-1.539-12.545s10.482-.758,11.385-.078-.881,12.188-1.316,12.567a37.916,37.916,0,0,1-4.46,0C336.72,306.889,334.9,307.2,334.646,306.866Z" transform="translate(-322.91 -293.82)"/><path class="ak" d="M334.288,294.81s-6.378,1.884-6.9,2.8,2.977,9.244,3.557,9.512,4.248-.613,4.248-.613Z" transform="translate(-323.556 -293.706)"/><path class="ak" d="M328.366,298.66s-3.814,4.728-4.182,5.988c-.1.357-.7,1.706.5,2.386a5.118,5.118,0,0,0,3.167.167l3.892-.736Z" transform="translate(-323.946 -293.263)"/><path class="ak" d="M342.511,294.76s6.423,1.8,6.958,2.71-3.513,9.322-4.092,9.59-3.557-.6-3.557-.6Z" transform="translate(-321.889 -293.712)"/><path class="ak" d="M348.841,298.61s4.338,4.616,5.085,6.066c.167.479.814,1.528-.457,2.386a4.627,4.627,0,0,1-3.167.212l-5.051-.9Z" transform="translate(-321.494 -293.269)"/><path class="al" d="M348.379,299.58s4.951,4.46,4.761,5.285-6.69-.914-6.69-.914Z" transform="translate(-321.356 -293.157)"/><path class="al" d="M343.733,295.61s4.984,1.528,5.04,2.308-2.743,6.69-3.145,6.768a8.82,8.82,0,0,1-2.765-.758C342.707,303.717,343.186,295.666,343.733,295.61Z" transform="translate(-321.772 -293.614)"/><path class="al" d="M343.419,294.81c.323.312-.948,8.865-1.115,9.043a41.837,41.837,0,0,1-7.382,0c-.312-.256-1.227-8.664-.937-9.1S342.639,294.03,343.419,294.81Z" transform="translate(-322.797 -293.762)"/><path class="al" d="M333.347,295.914c.29.156.881,7.616.736,8.051s-2.9.881-3.055.658-2.732-6.69-2.587-7.114S332.789,295.613,333.347,295.914Z" transform="translate(-323.429 -293.584)"/><path class="al" d="M327.677,300.48c.3,0,1.74,3.747,1.65,4.014s-4.315.97-4.516.546S327.376,300.48,327.677,300.48Z" transform="translate(-323.847 -293.054)"/><path class="am" d="M325.353,304.335c-.29-.223,1.862-3.29,2.107-3.245s.9,1.338.658,1.561S325.654,304.536,325.353,304.335Z" transform="translate(-323.787 -292.984)"/><path class="am" d="M328.913,297.53c.335-.58,3.345-1.293,3.914-1.26s1.048,3.635-1.2,4.326S328.724,297.842,328.913,297.53Z" transform="translate(-323.378 -293.538)"/><path class="am" d="M334.385,294.944a26.462,26.462,0,0,1,8.341,0,4.215,4.215,0,0,1-4.382,4.572C333.582,299.75,334.385,294.944,334.385,294.944Z" transform="translate(-322.75 -293.729)"/><path class="am" d="M343.859,296.073s-.937,3.657,1.438,4.115a2.565,2.565,0,0,0,2.977-2.364C348.174,297.623,344.16,295.783,343.859,296.073Z" transform="translate(-321.675 -293.564)"/><path class="am" d="M348.37,300.2c.167,0,3.412,2.855,3.211,3.2s-3.713-1.438-3.78-1.583S348.024,300.233,348.37,300.2Z" transform="translate(-321.202 -293.086)"/></g></g><g transform="translate(41.882 0)"><path class="aj" d="M325.537,291.745c0,1.829-7.516.68-16.8.68s-16.793,1.059-16.793-.68c0-.836,7.516-1.505,16.793-1.505S325.537,290.909,325.537,291.745Z" transform="translate(-291.94 -278.108)"/><g transform="translate(0.542)"><path class="at" d="M303.176,292.406c-.535-.669-2.23-12.009-1.539-12.545s10.482-.758,11.385-.078-.925,12.188-1.371,12.556a40.754,40.754,0,0,1-4.46,0C305.194,292.429,303.376,292.741,303.176,292.406Z" transform="translate(-291.384 -279.36)"/><path class="at" d="M302.768,280.35s-6.378,1.873-6.9,2.8,2.977,9.244,3.557,9.512,4.248-.624,4.248-.624Z" transform="translate(-292.036 -279.246)"/><path class="at" d="M296.846,284.19s-3.814,4.739-4.182,6c-.1.357-.7,1.706.5,2.386a5.118,5.118,0,0,0,3.167.167l3.892-.736Z" transform="translate(-292.426 -278.804)"/><path class="at" d="M310.991,280.3s6.423,1.8,6.958,2.71-3.512,9.322-4.092,9.59-3.557-.6-3.557-.6Z" transform="translate(-290.369 -279.252)"/><path class="at" d="M317.371,284.15s4.338,4.616,5.085,6.066c.167.479.814,1.528-.457,2.386a4.628,4.628,0,0,1-3.167.212l-5.051-.9Z" transform="translate(-289.968 -278.809)"/><path class="aq" d="M316.859,285.12s4.951,4.46,4.761,5.285-6.69-.914-6.69-.914Z" transform="translate(-289.836 -278.697)"/><path class="aq" d="M312.213,281.15s4.984,1.528,5.04,2.308-2.743,6.69-3.144,6.769a8.818,8.818,0,0,1-2.765-.758C311.187,289.257,311.666,281.195,312.213,281.15Z" transform="translate(-290.252 -279.154)"/><path class="aq" d="M311.9,280.351c.323.312-.948,8.865-1.115,9.043a41.84,41.84,0,0,1-7.382,0c-.312-.256-1.227-8.675-.937-9.11S311.119,279.56,311.9,280.351Z" transform="translate(-291.277 -279.303)"/><path class="aq" d="M301.827,281.454a48.749,48.749,0,0,1,.736,8.04c-.145.435-2.9.892-3.055.669s-2.732-6.69-2.587-7.125S301.269,281.153,301.827,281.454Z" transform="translate(-291.909 -279.124)"/><path class="aq" d="M296.152,286c.3,0,1.74,3.747,1.639,4s-4.3.981-4.46.546S295.851,286,296.152,286Z" transform="translate(-292.322 -278.596)"/><path class="au" d="M293.833,289.865c-.29-.223,1.862-3.289,2.108-3.245s.9,1.338.658,1.55S294.134,290.077,293.833,289.865Z" transform="translate(-292.267 -278.525)"/><path class="au" d="M297.393,283.07c.335-.58,3.345-1.293,3.914-1.26s1.048,3.635-1.2,4.327S297.2,283.382,297.393,283.07Z" transform="translate(-291.858 -279.078)"/><path class="au" d="M302.865,280.473a27.187,27.187,0,0,1,8.341,0,4.226,4.226,0,0,1-4.382,4.583C302.062,285.29,302.865,280.473,302.865,280.473Z" transform="translate(-291.23 -279.269)"/><path class="au" d="M312.339,281.613s-.937,3.657,1.438,4.115a2.576,2.576,0,0,0,2.977-2.364C316.654,283.163,312.64,281.323,312.339,281.613Z" transform="translate(-290.155 -279.104)"/><path class="au" d="M316.85,285.74c.167,0,3.412,2.855,3.211,3.2s-3.713-1.438-3.78-1.583S316.549,285.773,316.85,285.74Z" transform="translate(-289.681 -278.626)"/></g></g><g transform="translate(77.029 0)"><path class="aj" d="M357.057,291.745c0,1.829-7.516.68-16.8.68s-16.793,1.059-16.793-.68c0-.836,7.516-1.505,16.793-1.505S357.057,290.909,357.057,291.745Z" transform="translate(-323.46 -278.108)"/><g transform="translate(0.542)"><path class="at" d="M334.646,292.406c-.535-.669-2.23-12.009-1.539-12.545s10.482-.758,11.385-.078-.881,12.188-1.316,12.567a40.754,40.754,0,0,1-4.46,0C336.72,292.429,334.9,292.741,334.646,292.406Z" transform="translate(-322.91 -279.36)"/><path class="at" d="M334.288,280.35s-6.378,1.873-6.9,2.8,2.977,9.244,3.557,9.512,4.248-.624,4.248-.624Z" transform="translate(-323.556 -279.246)"/><path class="at" d="M328.366,284.19s-3.814,4.739-4.182,6c-.1.357-.7,1.706.5,2.386a5.118,5.118,0,0,0,3.167.167l3.892-.736Z" transform="translate(-323.946 -278.804)"/><path class="at" d="M342.511,280.3s6.423,1.8,6.958,2.71-3.513,9.322-4.092,9.59-3.557-.6-3.557-.6Z" transform="translate(-321.889 -279.252)"/><path class="at" d="M348.841,284.15s4.338,4.616,5.085,6.066c.167.479.814,1.528-.457,2.386a4.628,4.628,0,0,1-3.167.212l-5.051-.9Z" transform="translate(-321.494 -278.809)"/><path class="aq" d="M348.379,285.12s4.951,4.46,4.761,5.285-6.69-.914-6.69-.914Z" transform="translate(-321.356 -278.697)"/><path class="aq" d="M343.733,281.15s4.984,1.528,5.04,2.308-2.743,6.69-3.145,6.769a8.818,8.818,0,0,1-2.765-.758C342.707,289.257,343.186,281.195,343.733,281.15Z" transform="translate(-321.772 -279.154)"/><path class="aq" d="M343.419,280.351c.323.312-.948,8.865-1.115,9.043a41.84,41.84,0,0,1-7.382,0c-.312-.256-1.227-8.675-.937-9.11S342.639,279.56,343.419,280.351Z" transform="translate(-322.797 -279.303)"/><path class="aq" d="M333.347,281.454c.29.156.881,7.616.736,8.04s-2.9.892-3.055.669-2.732-6.69-2.587-7.125S332.789,281.153,333.347,281.454Z" transform="translate(-323.429 -279.124)"/><path class="aq" d="M327.677,286c.3,0,1.74,3.747,1.65,4s-4.315.981-4.516.546S327.376,286,327.677,286Z" transform="translate(-323.847 -278.596)"/><path class="au" d="M325.353,289.865c-.29-.223,1.862-3.289,2.107-3.245s.9,1.338.658,1.55S325.654,290.077,325.353,289.865Z" transform="translate(-323.787 -278.525)"/><path class="au" d="M328.913,283.07c.335-.58,3.345-1.293,3.914-1.26s1.048,3.635-1.2,4.327S328.724,283.382,328.913,283.07Z" transform="translate(-323.378 -279.078)"/><path class="au" d="M334.385,280.473a27.187,27.187,0,0,1,8.341,0,4.226,4.226,0,0,1-4.382,4.583C333.582,285.29,334.385,280.473,334.385,280.473Z" transform="translate(-322.75 -279.269)"/><path class="au" d="M343.859,281.613s-.937,3.657,1.438,4.115a2.576,2.576,0,0,0,2.977-2.364C348.174,283.163,344.16,281.323,343.859,281.613Z" transform="translate(-321.675 -279.104)"/><path class="au" d="M348.37,285.74c.167,0,3.412,2.855,3.211,3.2s-3.713-1.438-3.78-1.583S348.024,285.773,348.37,285.74Z" transform="translate(-321.202 -278.626)"/></g></g><g transform="translate(6.646 16.124)"><path class="aj" d="M293.948,306.205c0,1.829-7.527.68-16.8.68s-16.8,1.059-16.8-.68c0-.825,7.527-1.505,16.8-1.505S293.948,305.38,293.948,306.205Z" transform="translate(-260.34 -292.568)"/><g transform="translate(0.549)"><path class="ak" d="M271.525,306.866c-.524-.669-2.23-12.009-1.528-12.545s10.482-.758,11.374-.078-.87,12.188-1.316,12.567a37.648,37.648,0,0,1-4.46,0C273.6,306.889,271.792,307.2,271.525,306.866Z" transform="translate(-259.797 -293.82)"/><path class="ak" d="M271.179,294.81s-6.389,1.884-6.913,2.8,2.988,9.244,3.568,9.512,4.237-.613,4.237-.613Z" transform="translate(-260.443 -293.706)"/><path class="ak" d="M265.257,298.66s-3.814,4.728-4.182,5.988c-.112.357-.7,1.706.5,2.386a5.118,5.118,0,0,0,3.167.167l3.892-.736Z" transform="translate(-260.832 -293.263)"/><path class="ak" d="M279.4,294.76s6.412,1.8,6.958,2.71-3.524,9.322-4.1,9.59-3.557-.6-3.557-.6Z" transform="translate(-258.776 -293.712)"/><path class="ak" d="M285.731,298.61s4.338,4.616,5.074,6.066a1.673,1.673,0,0,1-.446,2.386,4.661,4.661,0,0,1-3.178.212l-5.04-.9Z" transform="translate(-258.38 -293.269)"/><path class="al" d="M285.259,299.58s4.962,4.46,4.761,5.285-6.69-.914-6.69-.914Z" transform="translate(-258.243 -293.157)"/><path class="al" d="M280.623,295.61s4.984,1.528,5.04,2.308-2.743,6.69-3.145,6.768a8.741,8.741,0,0,1-2.765-.758C279.6,303.717,280.032,295.666,280.623,295.61Z" transform="translate(-258.658 -293.614)"/><path class="al" d="M280.31,294.81c.312.312-.948,8.865-1.115,9.043a41.838,41.838,0,0,1-7.382,0c-.3-.256-1.238-8.664-.937-9.1S279.529,294.03,280.31,294.81Z" transform="translate(-259.683 -293.762)"/><path class="al" d="M270.227,295.914c.29.156.892,7.616.747,8.051s-2.91.881-3.055.658-2.743-6.69-2.6-7.114S269.681,295.613,270.227,295.914Z" transform="translate(-260.316 -293.584)"/><path class="al" d="M264.568,300.48c.3,0,1.74,3.747,1.639,4.014s-4.3.97-4.516.546S264.267,300.48,264.568,300.48Z" transform="translate(-260.734 -293.054)"/><path class="am" d="M262.243,304.335c-.3-.223,1.851-3.29,2.108-3.245s.9,1.338.647,1.561S262.533,304.536,262.243,304.335Z" transform="translate(-260.673 -292.984)"/><path class="am" d="M265.793,297.53c.346-.58,3.345-1.293,3.914-1.26s1.059,3.635-1.2,4.326S265.6,297.842,265.793,297.53Z" transform="translate(-260.265 -293.538)"/><path class="am" d="M271.275,294.944a26.392,26.392,0,0,1,8.33,0,4.215,4.215,0,0,1-4.382,4.572C270.472,299.75,271.275,294.944,271.275,294.944Z" transform="translate(-259.636 -293.729)"/><path class="am" d="M280.739,296.073s-.937,3.657,1.438,4.115a2.576,2.576,0,0,0,2.988-2.364C285.065,297.623,281.051,295.783,280.739,296.073Z" transform="translate(-258.562 -293.564)"/><path class="am" d="M285.26,300.2c.167,0,3.412,2.855,3.211,3.2s-3.713-1.438-3.78-1.583S284.958,300.233,285.26,300.2Z" transform="translate(-258.087 -293.086)"/></g></g><g transform="translate(6.646 0)"><path class="aj" d="M293.948,291.745c0,1.829-7.527.68-16.8.68s-16.8,1.059-16.8-.68c0-.836,7.527-1.505,16.8-1.505S293.948,290.909,293.948,291.745Z" transform="translate(-260.34 -278.108)"/><g transform="translate(0.549)"><path class="at" d="M271.525,292.406c-.524-.669-2.23-12.009-1.528-12.545s10.482-.758,11.374-.078-.87,12.188-1.316,12.556a40.512,40.512,0,0,1-4.46,0C273.6,292.429,271.792,292.741,271.525,292.406Z" transform="translate(-259.797 -279.36)"/><path class="at" d="M271.179,280.35s-6.389,1.873-6.913,2.8,2.988,9.244,3.568,9.512,4.237-.624,4.237-.624Z" transform="translate(-260.443 -279.246)"/><path class="at" d="M265.257,284.19s-3.814,4.739-4.182,6c-.112.357-.7,1.706.5,2.386a5.118,5.118,0,0,0,3.167.167l3.892-.736Z" transform="translate(-260.832 -278.804)"/><path class="at" d="M279.4,280.3s6.412,1.8,6.958,2.71-3.524,9.322-4.1,9.59-3.557-.6-3.557-.6Z" transform="translate(-258.776 -279.252)"/><path class="at" d="M285.731,284.15s4.338,4.616,5.074,6.066a1.673,1.673,0,0,1-.446,2.386,4.661,4.661,0,0,1-3.178.212l-5.04-.9Z" transform="translate(-258.38 -278.809)"/><path class="aq" d="M285.259,285.12s4.962,4.46,4.761,5.285-6.69-.914-6.69-.914Z" transform="translate(-258.243 -278.697)"/><path class="aq" d="M280.623,281.15s4.984,1.528,5.04,2.308-2.743,6.69-3.145,6.769a8.742,8.742,0,0,1-2.765-.758C279.6,289.257,280.032,281.195,280.623,281.15Z" transform="translate(-258.658 -279.154)"/><path class="aq" d="M280.31,280.351c.312.312-.948,8.865-1.115,9.043a41.841,41.841,0,0,1-7.382,0c-.3-.256-1.238-8.675-.937-9.11S279.529,279.56,280.31,280.351Z" transform="translate(-259.683 -279.303)"/><path class="aq" d="M270.227,281.454c.29.156.892,7.616.747,8.04s-2.91.892-3.055.669-2.743-6.69-2.6-7.125S269.681,281.153,270.227,281.454Z" transform="translate(-260.316 -279.124)"/><path class="aq" d="M264.568,286c.3,0,1.74,3.747,1.639,4s-4.3.981-4.516.546S264.267,286,264.568,286Z" transform="translate(-260.734 -278.596)"/><path class="au" d="M262.243,289.865c-.3-.223,1.851-3.289,2.108-3.245s.9,1.338.647,1.55S262.533,290.077,262.243,289.865Z" transform="translate(-260.673 -278.525)"/><path class="au" d="M265.793,283.07c.346-.58,3.345-1.293,3.914-1.26s1.059,3.635-1.2,4.327S265.6,283.382,265.793,283.07Z" transform="translate(-260.265 -279.078)"/><path class="au" d="M271.275,280.473a27.118,27.118,0,0,1,8.33,0,4.226,4.226,0,0,1-4.382,4.583C270.472,285.29,271.275,280.473,271.275,280.473Z" transform="translate(-259.636 -279.269)"/><path class="au" d="M280.739,281.613s-.937,3.657,1.438,4.115a2.576,2.576,0,0,0,2.988-2.364C285.065,283.163,281.051,281.323,280.739,281.613Z" transform="translate(-258.562 -279.104)"/><path class="au" d="M285.26,285.74c.167,0,3.412,2.855,3.211,3.2s-3.713-1.438-3.78-1.583S284.958,285.773,285.26,285.74Z" transform="translate(-258.087 -278.626)"/></g></g></g></g></g></svg>