<svg xmlns="http://www.w3.org/2000/svg" width="436.74" height="436.965" viewBox="0 0 436.74 436.965"><defs><style>.a{fill:#f2e9e4;}.b,.e,.m{fill:#344154;}.b,.c,.e,.f,.g,.h,.j,.k,.l{stroke:#263238;}.b,.c,.f,.g,.i,.j,.k,.l{stroke-linecap:round;stroke-linejoin:round;}.c{fill:#424242;}.d{fill:#e7e8f3;stroke-width:11px;}.d,.i{stroke:#5e6178;}.d,.e,.h{stroke-miterlimit:10;}.f{fill:#ffbf9d;}.g{fill:#d9a171;}.h,.l{fill:none;}.i{fill:#fff;}.j{fill:#a66d58;}.k{fill:#6595bf;}</style></defs><g transform="translate(-36.7 -38.52)"><circle class="a" cx="218.37" cy="218.37" r="218.37" transform="translate(36.7 38.52)"/><rect class="b" width="20.51" height="294.66" transform="translate(218.07 156.67)"/><path class="c" d="M248.53,218.78H235.67a11.48,11.48,0,0,0-11.48,11.48V239a5,5,0,0,0,7.35,4.48l22-11.36V220.16Z"/><path class="c" d="M248.53,381.4H235.67a11.48,11.48,0,0,0-11.48,11.48h0v8.72a5,5,0,0,0,7.35,4.48l22-11.36v-12Z"/><rect class="c" width="9.18" height="65.21" transform="translate(210.41 148.97)"/><rect class="b" width="70.9" height="32.49" transform="translate(311.36 338.8)"/><path class="d" d="M252.26,395.4l30.59-158.11A40.65,40.65,0,0,1,321,204.4l69.66-3a13.18,13.18,0,0,1,13.7,12.1l12,149.6"/><path class="e" d="M306.97,399.11l-73.2-10.73v34.98l77.86-19.12Z"/><path class="e" d="M301.7,319.71l-10.23-5.9-5.33,2.59-8.67-6.5-3.42,5.59,3.42,3.73-3.42,1.56,1.86,4s-7.77,5.28-9.63,19.58l-8.08-.31V372.4l10.27-4.69,3.73-.62s19.9-20.51,24.56-30.46S301.7,319.71,301.7,319.71Z"/><path class="f" d="M323,293.22l-3,1.32-21.56-2s-5.64-3.31-8.95-2a15.11,15.11,0,0,0-5.31,3.65s0,6.3,1.66,6.63,4.64-.66,4.64-.66l1.66-1.66s21.22,5.64,24.21,6.3,11.6-3,11.6-3Z"/><path class="g" d="M289.47,290.56a15.11,15.11,0,0,0-5.31,3.65s0,6.3,1.66,6.63,4.64-.66,4.64-.66l1.66-1.66,6.23,1.65a4.77,4.77,0,0,0,1.27-2.95,25.191,25.191,0,0,0-.79-4.63h-.41S292.77,289.24,289.47,290.56Z"/><path class="h" d="M292.28,292.5l-1.95.33s-2.93,3.26-2.93,4.39,1.79,1.79,2.44,1.47a12.5,12.5,0,0,0,2-1.63,4.45,4.45,0,0,0,2.76.82,7.419,7.419,0,0,0,3.26-.82"/><path class="i" d="M338.87,276.98l-18.24,14.58,7.29,10.29,10.95-7.97Z"/><path class="i" d="M320.63,291.56l6.3,13.26,3.98-3.97-5.64-13.27Z"/><path class="i" d="M339.2,266.4l-4.64,21.22s2,17.57,2,20.89-1.66,10.61-1.66,10.61l-.67,2.32s0,12.6,5.31,13.93S350.15,338,356.78,338s11.94-3,14.59-7.62S374,315.8,374,312.16s-5.64-32.17-6.64-39.46-10.61-12.94-12.6-13.6S339.2,266.4,339.2,266.4Z"/><path class="f" d="M330.55,235.69l-1.84,4.07s-4.93,3.61-3.79,4.56a20,20,0,0,1,1.84,1.72s-1.87,8.13-1.19,8.85a4.91,4.91,0,0,0,5.51.77,3.72,3.72,0,0,1,3.53.63l4.85,9.2,14.92-9-2-7.61,3.7-5.6Z"/><path class="b" d="M352.36,248.87l3.7-5.6-20.47-5.87c-.5.89-1.38,2.68-.63,3.16a9,9,0,0,1,2,2s-.25,1.91,1.1,1.69,3.42-2.95,5.56-1.36,2.21,3.38.65,4.79a33.119,33.119,0,0,1-2.94,2.37s8.32,6.3,11,5.84l1.56-.27Z"/><path class="i" d="M328.28,234.17l-5.46.81s12.75,5,16.43,5,18,7.41,18,7.41,6.08-9,1.51-17-12.51-10.1-18.46-8S331.26,226.53,328.28,234.17Z"/><path class="i" d="M353.79,253.09l-17.91,10.95.67,5.64,19.89-11.61Z"/><path class="b" d="M280.86,376.1s-10.57,5.91-12.44,6.53-14,3.73-13.67,5.91,1.24,2.79,6.21,4,25.8,3.42,28.6,3.11-.31-17.1-.31-17.1Z"/><path class="i" d="M261,392.58c5,1.24,25.8,3.42,28.6,3.11,1-.11,1.24-2.33,1.14-5.12-16.74,2.38-29.41-.74-35.55-2.86a1,1,0,0,0-.4.83C255.06,390.71,256,391.33,261,392.58Z"/><path class="j" d="M360.11,327.31s-13.36-5.91-14.64-6.84-39.79,2.17-43.21,4.66-29.53,48.18-29.53,48.18l16.79,10.88,26.15-39.79s9.94-.31,12.43-1.24,17.1-3.42,17.1-3.42,15.85,2.17,20.2.31-.62-9.64-.62-9.64"/><path class="h" d="M315.05,343.48l-8.08-9.65,9.01,6.54"/><path class="b" d="M322.93,348.46h59.91v-17.6s-2.56-3.12-7.95-1.14-9.37,9.09-9.37,9.09S326.05,332,322.93,348.46Z"/><path class="b" d="M382.27,337.68h7.95l13.63-38.33-6.25-1.71Z"/><path class="b" d="M397.6,297.64l-11.07,30.1-9.52-3.9a8.06,8.06,0,0,1-4.42-10.52c.08-.21.18-.41.28-.62,3.36-6.57,8.73-15.44,14.79-19.32C397.88,286.85,398.47,293.1,397.6,297.64Z"/><path class="k" d="M304.17,363.21l-1.87,39.63-34.23,6A32.56,32.56,0,0,1,279.91,449H422.2a6.45,6.45,0,0,0,6.45-6.45h0v-85.7a5.82,5.82,0,0,0-5.33-5.81C404.39,349.4,339.72,345.4,304.17,363.21Z"/><circle class="b" cx="27.46" cy="27.46" r="27.46" transform="translate(211.247 435.943) rotate(-45)"/><circle class="i" cx="12.79" cy="12.79" r="12.79" transform="translate(232.006 435.073) rotate(-42.12)"/><circle class="b" cx="14.55" cy="14.55" r="14.55" transform="translate(398.71 434.31)"/><path class="i" d="M420,448.85a6.78,6.78,0,1,0-6.78,6.78h0a6.77,6.77,0,0,0,6.77-6.77Z"/><path class="g" d="M231.62,411.34a30.76,30.76,0,0,1,47.76,34h2a32.63,32.63,0,0,0-50.83-35.49Z"/><path class="l" d="M302.3,402.84s75.2-11.14,80.89-12,22.46-6.89,28.75-40.43"/><rect class="g" width="71.86" height="76.89" transform="translate(57.94 127.76)"/><rect class="m" width="6.53" height="27.97" transform="translate(63.59 127.76)"/><rect class="g" width="71.86" height="76.89" transform="translate(129.74 127.76)"/><rect class="m" width="6.53" height="27.97" transform="translate(135.39 127.76)"/><rect class="g" width="71.86" height="76.89" transform="translate(57.94 50.37)"/><rect class="m" width="6.53" height="27.97" transform="translate(63.59 50.37)"/><rect class="g" width="71.86" height="76.89" transform="translate(129.74 50.37)"/><rect class="m" width="6.53" height="27.97" transform="translate(135.39 50.37)"/><rect class="i" width="153.85" height="3.67" transform="translate(55.18 214.19)"/><rect class="i" width="153.85" height="3.67" transform="translate(55.18 200.87)"/><rect class="i" width="11.94" height="9.32" transform="translate(57.94 204.65)"/><rect class="i" width="11.94" height="9.32" transform="translate(124.17 204.65)"/><rect class="i" width="11.94" height="9.32" transform="translate(190.39 204.65)"/><path class="f" d="M331.9,302.83s-17.57,6-20.22,7a5.53,5.53,0,0,0-3.32,2.65s-2.32,5.64-.33,6.63,7,.33,7,.33,3,.67,3.65-.66a19.31,19.31,0,0,0,1-4.64s15.26-1,18.57-1.33a12,12,0,0,0,6-2.65Z"/><path class="g" d="M318.64,318.75a18.691,18.691,0,0,0,1-4.62,9.05,9.05,0,0,1-5.21-2.26c-1.2-1.06-1.27-2-1-2.71-.8.28-1.43.5-1.78.64a5.53,5.53,0,0,0-3.32,2.65s-2.32,5.64-.33,6.63,7,.33,7,.33S318,320.08,318.64,318.75Z"/><path class="i" d="M346.47,267.4s-3.64,4.31-4.64,8-3.65,16.91-3.65,16.91l-2.65,5-3.65,5.63a9.37,9.37,0,0,0,6.64,6.63c5.63,1.66,7,2.33,8.29,1s7-11.28,8.29-15.92,6.63-17.57,6.63-17.57"/><path class="i" d="M335.55,297.2l-7.63,4.64a21.389,21.389,0,0,0,3.32,6.63,11.75,11.75,0,0,0,7,4.31h4.65l5.3-3s-7.29-1-9.61-6S335.55,297.2,335.55,297.2Z"/><path class="e" d="M288.94,304.31l3.73,9.94,9.94,4.67,3.42-5.91Z"/><path class="m" d="M316.65,320.28a1.89,1.89,0,0,1-.87-.21L282,302.16a1.86,1.86,0,0,1-.65-2.56,1.89,1.89,0,0,1,2.4-.74l33.82,17.91a1.86,1.86,0,0,1,.79,2.51,1.84,1.84,0,0,1-1.66,1Z"/></g></svg>