<svg xmlns="http://www.w3.org/2000/svg" width="500" height="270" viewBox="0 0 500 270"><defs><style>.a{fill:#27313f;}.b{fill:#45a0b4;}.c{fill:#461838;}.d{fill:#d9a171;}.e{fill:#344154;}.f{fill:#5e6178;}.g{opacity:0.3;}.h{fill:#93ebfb;}.i{fill:#33468b;}.j{fill:#6595bf;}.k{fill:#fdab74;}.l{fill:#f68e4f;}.m{fill:#fff;}.n{fill:#a66d58;}.o{fill:#a4f7fa;}.p{fill:#339ce9;}.q{fill:#fd9c5e;}.r{fill:#f68f53;}.s{fill:#1c90a4;}.t{fill:#92ebfb;}.u{fill:#3a608d;}.v{fill:#283968;}.w{fill:#313949;}.x{fill:none;}</style></defs><g transform="translate(-42.73 -262.383)"><g transform="translate(42.73 278.383)"><g transform="translate(18.453)"><path class="a" d="M334.57,335.119h0a.99.99,0,0,1-.99-.99V291.49a.99.99,0,0,1,.99-.99h0a.99.99,0,0,1,.978.99v42.64a.99.99,0,0,1-.978.99Z" transform="translate(2.5 -275.872)"/><g transform="translate(111.512)"><g transform="translate(0 20.073)"><path class="b" d="M189.219,422.5a2.414,2.414,0,0,1-1.376-.41,1.473,1.473,0,0,1-.471-2.076,7.956,7.956,0,0,0,.93-2.9h.29a7.956,7.956,0,0,1-.966,2.97,1.207,1.207,0,0,0,.41,1.8,2,2,0,0,0,2.052.145l.157.193a2.125,2.125,0,0,1-1.026.278Z" transform="translate(-140.181 -268.078)"/><path class="c" d="M408.134,339.8V490.292a10.66,10.66,0,0,1-10.672,10.66h-238.3a10.781,10.781,0,0,1-10.865-9.573,3.655,3.655,0,0,0-.06-.809v-37.9a10.938,10.938,0,0,1,8.27-3.755H302.742a13.376,13.376,0,0,0,13.28-11.336,13.651,13.651,0,0,0,.133-1.871V401.391a12.23,12.23,0,0,0-.724-4.165,12.736,12.736,0,0,0-12.072-8.342H251.447c-11.239,0-21.054,7.8-26.378,17.891a36.541,36.541,0,0,0-3.416,9.187,5.493,5.493,0,0,1-3.32,1.111H171.769a8.946,8.946,0,0,1-9.03-8.849v-68a14.487,14.487,0,0,1,.205-2.414,14.909,14.909,0,0,1,12.072-6.036H396.255a14.487,14.487,0,0,1,11.7,5.867,13.415,13.415,0,0,1,.181,2.161Z" transform="translate(-148.24 -285.095)"/><path class="d" d="M408.126,340.849V491.343A10.66,10.66,0,0,1,397.454,502H158.94a10.648,10.648,0,0,1-10.6-9.573,3.655,3.655,0,0,0-.06-.809v-37.9A10.66,10.66,0,0,1,158.9,443.91H302.263A13.207,13.207,0,0,0,315.47,430.7V396.382a12.5,12.5,0,0,0-12.507-12.507H251.957c-13.135,0-24.314,11.095-28.382,23.952a35.589,35.589,0,0,0-1.3,5.662,5.42,5.42,0,0,1-2.052,3.525,5.252,5.252,0,0,1-3.247,1.111H171.314a8.861,8.861,0,0,1-8.885-8.849v-68a15.864,15.864,0,0,1,.193-2.414A14.583,14.583,0,0,1,177,326.7H393.977a14.1,14.1,0,0,1,11.638,6.109,13.859,13.859,0,0,1,2.33,5.819,13.411,13.411,0,0,1,.181,2.221Z" transform="translate(-148.232 -286.146)"/><rect class="e" width="5.058" height="17.843" transform="translate(47.312 131.105)"/><rect class="e" width="5.915" height="3.175" transform="translate(52.37 135.332)"/><path class="e" d="M196,407.736a2.994,2.994,0,1,1,2.994,2.982A2.994,2.994,0,0,1,196,407.736Z" transform="translate(-138.342 -270.807)"/><rect class="e" width="3.32" height="2.62" transform="translate(44.716 143.114)"/><rect class="f" width="7.702" height="5.01" transform="translate(56.825 33.163)"/><path class="b" d="M345.244,330.008H328.21a2.921,2.921,0,0,1-2.909-3.09l.278-4.769h0l.193-3.223.519-8.97.157-2.825.4-6.857.145-2.511a2.921,2.921,0,0,1,2.909-2.753h13.352a2.921,2.921,0,0,1,2.909,2.716l.145,2.016.386,5.795.072.905.64,9.537.519,7.63.229,3.332a2.922,2.922,0,0,1-2.909,3.066Z" transform="translate(-111.548 -295.01)"/><g class="g" transform="translate(49.605 38.727)"><path class="f" d="M200.63,405.7h-11.3V326.634h.483v78.579h10.346V326.55h.471Z" transform="translate(-189.33 -326.55)"/></g><path class="f" d="M363.52,345.07h8.523a2.414,2.414,0,0,1,2.414,2.414v37.859a2.414,2.414,0,0,1-2.414,2.414H363.52Z" transform="translate(-103.626 -283.823)"/><rect class="h" width="35.988" height="0.845" transform="translate(31.195 156.182)"/><path class="f" d="M190.125,355.883l-3.465-4.044V326.62h3.465Z" transform="translate(-140.278 -287.984)"/><g class="g" transform="translate(49.605 118.318)"><rect class="h" width="0.483" height="12.604"/></g><g class="g" transform="translate(0.048 204.847)"><rect class="f" width="259.846" height="0.483"/></g><g transform="translate(74.124 49.477)"><path class="f" d="M209.64,337.467a1.92,1.92,0,1,1,.558,1.365,1.92,1.92,0,0,1-.558-1.365Z" transform="translate(-209.64 -335.548)"/><circle class="f" cx="1.92" cy="1.92" r="1.92" transform="translate(7.557)"/><circle class="f" cx="1.92" cy="1.92" r="1.92" transform="translate(15.115)"/></g><rect class="f" width="1.256" height="6.736" transform="translate(60.072 28.201)"/><path class="e" d="M189.779,424.216h-.121l-.4-7.086h.93Z" transform="translate(-139.739 -268.062)"/><path class="e" d="M190.977,424.216h-.121l-.386-7.086h.917Z" transform="translate(-139.488 -268.062)"/><path class="i" d="M191.912,423.227h-2.656a.954.954,0,0,1-.905-.99.278.278,0,1,1,.543,0,.386.386,0,0,0,.362.4h2.656a.374.374,0,0,0,.362-.4.278.278,0,1,1,.543,0,.954.954,0,0,1-.905.99Z" transform="translate(-139.929 -267.056)"/><g transform="translate(210.965 144.567)"><g transform="translate(0 10.189)"><path class="f" d="M335.226,429.44H326.9a3.706,3.706,0,0,1-3.706-3.694h0a3.718,3.718,0,0,1,3.706-3.706h8.33a3.706,3.706,0,0,1,3.694,3.706h0a3.706,3.706,0,0,1-3.694,3.694Z" transform="translate(-322.949 -421.762)"/><path class="f" d="M352.06,429.729H326.841a3.863,3.863,0,0,1-3.851-3.851v-.217a3.863,3.863,0,0,1,3.851-3.851H352.06a3.851,3.851,0,0,1,3.839,3.851v.181a3.851,3.851,0,0,1-3.839,3.887Zm-25.219-7.4a3.368,3.368,0,0,0-3.368,3.368v.181a3.368,3.368,0,0,0,3.368,3.368H352.06a3.38,3.38,0,0,0,3.368-3.368v-.217a3.38,3.38,0,0,0-3.368-3.368Z" transform="translate(-322.99 -421.81)"/></g><g transform="translate(2.499)"><path class="f" d="M326.086,418.778h0a1.026,1.026,0,0,1-1.026-1.026V414.4a1.026,1.026,0,0,1,1.026-1.026h0A1.026,1.026,0,0,1,327.1,414.4v3.356a1.026,1.026,0,0,1-1.014,1.026Z" transform="translate(-325.06 -413.37)"/><path class="f" d="M337.336,418.778h0a1.026,1.026,0,0,1-1.026-1.026V414.4a1.026,1.026,0,0,1,1.026-1.026h0a1.026,1.026,0,0,1,1.014,1.026v3.356a1.026,1.026,0,0,1-1.014,1.026Z" transform="translate(-322.729 -413.37)"/><path class="f" d="M348.586,418.778h0a1.026,1.026,0,0,1-1.026-1.026V414.4a1.026,1.026,0,0,1,1.026-1.026h0A1.026,1.026,0,0,1,349.6,414.4v3.356a1.026,1.026,0,0,1-1.014,1.026Z" transform="translate(-320.397 -413.37)"/></g></g><path class="j" d="M326.209,308.1s9.042,1.05,20.4-4.418l.35,5.179s-5.42,6.724-21.271,8.209Z" transform="translate(-111.466 -293.213)"/><path class="j" d="M347.884,319.951a28.25,28.25,0,0,1-9.054,6.447H328.17a2.922,2.922,0,0,1-2.909-3.091l.278-4.769h0a66.253,66.253,0,0,0,21.827-6.169Z" transform="translate(-111.556 -291.412)"/><path class="j" d="M346.109,299.638c-1.919,1.763-7.75,6.109-19.859,7.388l.4-6.857a29.252,29.252,0,0,0,17.722-4.95,2.934,2.934,0,0,1,1.594,2.414Z" transform="translate(-111.35 -294.966)"/></g><g transform="translate(49.774)"><path class="b" d="M189.615,330.321l-.145-.157,10.249-10h0c35.746-1.751,69.549-10.865,69.875-11v.205c-.338.1-34.129,9.247-69.875,11.01Z" transform="translate(-189.47 -272.003)"/><g transform="translate(60.116)"><path class="k" d="M275.075,347.723a1.026,1.026,0,0,1,.181,1.1h0a6.893,6.893,0,0,1-2.161,2.414l-.35.29-.072.072h-.06c-.954.881-.592,1.086-2.306,2.861-1.944,2.028-3.284,2.064-3.622,1.883s.338-1.207,1.062-2.414l.109-.169.278-.483c.857-1.461.64-2.137.435-4.31-.157-1.75-2.728-9.827-2.728-9.827l3.73-.64s1.123,6.422,2.414,7.412c.652.531,1.4.531,2.04.93l.133.084A4.721,4.721,0,0,1,275.075,347.723Z" transform="translate(-233.76 -265.924)"/><path class="a" d="M274.946,346.289a1.026,1.026,0,0,1,.181,1.1h0a7.9,7.9,0,0,1-2.161,2.414l-.35.3-.072.072h-.06c-.954.881-.591,1.086-2.306,2.861-1.944,2.028-3.284,2.064-3.622,1.883s.338-1.207,1.062-2.414a8.149,8.149,0,0,0,3.465-2.559c1.207-1.5,1.956-3.416,2.765-4.527l.133.085a4.723,4.723,0,0,1,.966.785Z" transform="translate(-233.63 -264.49)"/><path class="k" d="M250.474,345.592c-.229,1.207-1.871.954-3.706.507s-1.4.085-4.008-.205-3.4-1.207-3.489-1.654,1.207-.459,2.608-.628l.531-.06c1.557-.193,2.7-1.207,4.117-2.028s3.356-3.984,3.356-3.984l3.622.29s-1.883,2.849-2.608,4.093a4.189,4.189,0,0,0-.35,2.414,4.684,4.684,0,0,1-.072,1.255Z" transform="translate(-239.267 -266.123)"/><path class="a" d="M246.768,345.057c-1.835-.447-1.4.085-4.008-.205s-3.4-1.207-3.489-1.654,1.207-.459,2.608-.628h0a7.352,7.352,0,0,0,3.742,1.207c1.775,0,3.622-.471,4.829-.447a4.682,4.682,0,0,1,0,1.207C250.244,345.7,248.6,345.5,246.768,345.057Z" transform="translate(-239.267 -265.081)"/><path class="b" d="M259.93,326.212l3.344,9.018,4.37,11.758a7.05,7.05,0,0,0,2.33-.205,10.142,10.142,0,0,0,2.245-1.1s-1.207-12.628-3.489-19.883a13,13,0,0,0-1.944-4.213C263.274,317.484,259.93,326.212,259.93,326.212Z" transform="translate(-234.985 -269.657)"/><path class="j" d="M266.134,313.689c2.185-.712,8.451.193,14.728,1.424l1.316-2.161,13.581-1.062s4.479,9.936,2.028,16.261a2.282,2.282,0,0,1-2.294,1.545H284.629c-6.748,0-14.282-4.648-15.259-4.829-1.594-.314-2.233,2.873-3.827,6.229s-15.006,14.837-15.006,14.837a11.894,11.894,0,0,1-2.909-.29,2.934,2.934,0,0,1-1.207-.8S261.184,315.282,266.134,313.689Z" transform="translate(-237.784 -271.439)"/><path class="f" d="M274.422,299.8a149.858,149.858,0,0,0,14.149,10.237s3.187,2.149,5.493,1.3c3.839-1.425,7.014-6.93,2.149-13.473-2.414-3.26-4.515-4.394-3.791-8.523.785-4.467-.954-10.237-6.121-10.744a14.365,14.365,0,0,0-4.938,0C276.535,279.8,267.637,297.128,274.422,299.8Z" transform="translate(-232.491 -278.383)"/><path class="k" d="M279,295.171a6.749,6.749,0,0,0,4,1.135,6.591,6.591,0,0,0,3.163-2.414c-.652-.193-1.135-.99-.8-4.962h-.314l-5.191.592s0,1.618-.133,3.127C279.64,293.964,279.326,295.051,279,295.171Z" transform="translate(-231.033 -276.197)"/><path class="l" d="M279.753,289.552s0,1.618-.133,3.127c2.861.157,4.587-2.33,5.324-3.718Z" transform="translate(-230.904 -276.191)"/><path class="k" d="M279.128,292.5s6.76.664,7.111-3.549,1.461-6.954-2.849-7.557-5.263.93-5.722,2.306S277.378,292.222,279.128,292.5Z" transform="translate(-231.354 -277.787)"/><path class="f" d="M279.44,280.934s.857,5.143,4.7,6.362c2.813.893,4.08.3,4.08.3a11.408,11.408,0,0,1-1.835-4.286,2.077,2.077,0,0,0-1.364-1.569C283.013,281.151,280.6,279.292,279.44,280.934Z" transform="translate(-230.941 -277.991)"/><path class="f" d="M281.192,281.913a4.479,4.479,0,0,0-2.414,1.932,8.451,8.451,0,0,0-1.207,4.165s-1.207-4.769.531-6.543a1.811,1.811,0,0,1,3.091.447Z" transform="translate(-231.413 -277.885)"/><path class="e" d="M292.2,308.32c-.121.507-.217.978-.3,1.412-.145.7-.229,1.3-.3,1.835-.205,1.666-.145,2.656-.278,3.73a10.323,10.323,0,0,1-.507,2.028c-.278.773-7.618,1.461-11.795,1.207a5.674,5.674,0,0,1-2.7-.592c-1.485-1.292-1.34,1.557-1.545-12.072-.1-6.64,5.638-12.555,5.638-12.555s.459,2.837,6.145-.543c.205-.121,2.414,3.2,4.6,7.243C293.531,304.553,292.879,305.507,292.2,308.32Z" transform="translate(-231.909 -275.402)"/><path class="j" d="M262.7,334.319l4.37,11.758a7.05,7.05,0,0,0,2.33-.205,10.143,10.143,0,0,0,2.245-1.1s-1.207-12.628-3.489-19.883Z" transform="translate(-234.411 -268.745)"/><path class="e" d="M281.5,293.21s-5.855.99-6.543,3.513-5.433,16.612-5.433,16.612,3.682,1.207,5.058-.121,4.829-12.748,4.829-12.748Z" transform="translate(-232.997 -275.31)"/><path class="k" d="M260.716,307.294l-1.388-.543a3.441,3.441,0,0,0-1.28,0c-.447.145-1.581.133-1.581.314s1.28.761,1.28.761h0c-.483,1.111-2.934,1.738-3.054,2.149s1,.748,1.618.905a3.489,3.489,0,0,0,2.9-.652c.543-.58,1.473-1.376,1.473-1.376Z" transform="translate(-236.072 -272.517)"/><path class="m" d="M280.542,288.533a1.207,1.207,0,0,1-1.026.7c-.748,0-.954-.109-1.087-.278a2.332,2.332,0,0,1-.29-.459,6.482,6.482,0,0,1,2.4.036Z" transform="translate(-231.211 -276.307)"/><path class="e" d="M273.308,306.186l-14.161,1.087a4.382,4.382,0,0,0,.616,2.934s12.785,2.5,16.117,1.207,2.958-7.243,2.958-7.243Z" transform="translate(-235.156 -273.039)"/><path class="k" d="M279.325,306.463l-.942-1.207a3.344,3.344,0,0,0-1.1-.664c-.459-.1-1.437-.664-1.533-.507s.748,1.292.748,1.292h0c-.978.724-3.416.085-3.718.374s.495,1.147.966,1.581a3.441,3.441,0,0,0,2.849.845c.761-.241,1.956-.483,1.956-.483Z" transform="translate(-232.335 -273.062)"/><path class="a" d="M290.89,308.4c-.205,1.666-.145,2.656-.278,3.73-5.324,0-12.422-4.1-12.422-4.1Z" transform="translate(-231.2 -272.239)"/><path class="a" d="M278.19,306.307s8.282-.241,9.658-4.95c1.533-5.167,3.247,2.125,3.247,2.125l-.905,4.66h-9.078Z" transform="translate(-231.2 -274.005)"/><path class="e" d="M286.053,292.76s5.372.35,6.724,2.414,3.006,12.736,2.306,16.394-17.9-.7-17.9-.7l.543-3.175s9.936,0,10.5-1.207C289.035,304.772,286.053,292.76,286.053,292.76Z" transform="translate(-231.41 -275.404)"/></g><path class="b" d="M293.636,307.835a75.344,75.344,0,0,1-18.241-1.847.106.106,0,1,1,.048-.205c5.915,1.545,17.384,2.909,38.511.628,12.628-1.376,22.865-3.429,22.938-3.441a.109.109,0,0,1,0,.205c-.1,0-10.346,2.076-22.937,3.441A194.25,194.25,0,0,1,293.636,307.835Z" transform="translate(-171.681 -273.288)"/><path class="b" d="M263.028,309.133a64.593,64.593,0,0,1-6.531-.35.1.1,0,0,1-.1-.121.109.109,0,0,1,.121-.1c13.28,1.376,20.523-1.787,20.608-1.823a.109.109,0,1,1,.1.193S272.215,309.133,263.028,309.133Z" transform="translate(-175.6 -272.509)"/></g><g transform="translate(207.943 107.662)"><circle class="n" cx="19.557" cy="19.557" r="19.557" transform="translate(0 39.109) rotate(-89.01)"/><path class="o" d="M324.75,385.76a14.728,14.728,0,1,1,4.331,10.444A14.74,14.74,0,0,1,324.75,385.76Z" transform="translate(-319.604 -365.589)"/></g><g transform="translate(210.672 72.486)"><circle class="n" cx="11.952" cy="11.952" r="11.952" transform="translate(0 23.472) rotate(-79.1)"/><path class="o" d="M326.88,351.066a8.994,8.994,0,1,1,2.634,6.372,9.006,9.006,0,0,1-2.634-6.372Z" transform="translate(-321.891 -336.874)"/></g><g transform="translate(163.42 100.099)"><path class="p" d="M302.71,379.45s7.014,1.919,10.648,1.014,10.636-4.744,10.636-4.744l1.1,1.92s-5.722,8.523-11.01,9.489S302.71,379.45,302.71,379.45Z" transform="translate(-279.648 -356.013)"/><path class="k" d="M329.833,398.7s3.622,1.449,4.829,1.062,3.344-1.569,3.718-2.547-2.487.254-3.465,0a6.3,6.3,0,0,0-3.923,0C329.121,397.759,329.833,398.7,329.833,398.7Z" transform="translate(-274.055 -351.638)"/><path class="a" d="M302.44,467.94s.266,4.419,1.086,5.457h12.64a2.233,2.233,0,0,0-2.016-1.8c-1.992-.35-5.336-1.75-6.543-4.394S302.44,467.94,302.44,467.94Z" transform="translate(-279.704 -337.264)"/><path class="a" d="M283.912,467.422s-.833,5.505.254,5.6c.145,0,5.2,0,6.579.217a35.458,35.458,0,0,0,6.036,0,.592.592,0,0,0,.531-.893,2.414,2.414,0,0,0-1.714-1.1c-1.992-.386-5.312-1.847-6.471-4.5S283.912,467.422,283.912,467.422Z" transform="translate(-283.607 -337.362)"/><path class="a" d="M312.23,420.749s-3.175,11.131-12.29,30.434-9.8,28.1-9.8,28.1L283.86,479s.592-22.937,4.889-32.728,5.179-36.41,5.179-36.41Z" transform="translate(-283.555 -348.938)"/><path class="e" d="M315.146,411a276.966,276.966,0,0,1-2.728,38.354c-2.982,21.139-1.968,30.121-1.968,30.121l-7.135.229s-4.274-21.139-3.042-31.726-5.843-36.3-5.843-36.3Z" transform="translate(-281.364 -348.702)"/><path class="k" d="M299.92,379.041l3.368,2.5,4.829-1.026c-.072-.447-.386-2.282-.676-3.948a.5.5,0,0,0-.06-.29c-.241-1.412-.459-2.632-.459-2.632l-4.491-2.27-1.69-.845s.133,1.581.145,1.8A14.414,14.414,0,0,1,299.92,379.041Z" transform="translate(-280.227 -357.089)"/><path class="j" d="M316.314,418.693c.3,3.078-24.277,6.712-24.374,1.557-.085-4.539,2.62-29.481,3.453-33.054,1.485-6.314,2.813-9.923,5.626-10.756,1.038-.3,4.829.7,7.642,1.5a4.526,4.526,0,0,1,.567.205,5.421,5.421,0,0,1,1.835,1.207,5.819,5.819,0,0,1,1.618,2.6c.423,1.437.918,3.284,1.316,5.312a41.861,41.861,0,0,1,.736,5.771c0,.41,0,.821,0,1.207,0,1.509.145,3.453.326,5.626.121,1.364.254,2.813.4,4.286a11.209,11.209,0,0,0,.133,1.28c.048.423.495,10.044.64,12.664v.085h0v.109a4.019,4.019,0,0,0,.085.41Z" transform="translate(-281.881 -355.876)"/><path class="q" d="M301.023,372.256c.99,1.907,4.708,3.561,6.266,4.165a.5.5,0,0,0-.06-.29c-.241-1.412-.459-2.632-.459-2.632l-4.539-2.27C301.2,371.218,300.6,371.471,301.023,372.256Z" transform="translate(-280.026 -356.944)"/><path class="k" d="M309.523,375.206s-8.185,2.559-9.658-2.571-3.622-8.258,1.581-10.1,6.773-.193,7.69,1.4S311.623,374.409,309.523,375.206Z" transform="translate(-280.594 -358.916)"/><path class="f" d="M309.376,363.916s-.519,5.964-1.751,5.71-2.354-.459-2.173,1.34,1.883,3.875-1.919,4.2-9.26-9.489-8.221-11.348C298.33,358.459,313.735,357.373,309.376,363.916Z" transform="translate(-281.208 -359.396)"/><g transform="translate(44.345 15.208)"><path class="k" d="M320.34,376.492a15.2,15.2,0,0,1,2.716-3.887,6.242,6.242,0,0,1,4.443-.362c.35.748-2.559,1.835-2.909,2.5s1.038.64-.06,1.8a11.252,11.252,0,0,1-3.091,1.871Z" transform="translate(-320.34 -371.993)"/><path class="k" d="M323.009,374.886l1.932-.217c.7-.072,1.388-.386,1.666-.4.676,0,.205,1.038-1.207,1.569-1.207.447-1.581,1.207-2.753,1.376C321.187,377.457,323.009,374.886,323.009,374.886Z" transform="translate(-319.979 -371.521)"/></g><path class="p" d="M307.911,376.84c-.109,0-6.616-1.968-7.328-1.726s-1.123,1.594-1.123,1.594L309.5,379.58S309.263,377.4,307.911,376.84Z" transform="translate(-280.322 -356.143)"/><path class="k" d="M330.8,397.5a6.483,6.483,0,0,1,2.173-1.207c1.014-.217,1.907-1.135,1.907-.7s-.773,1.521-.773,1.907S330.8,397.5,330.8,397.5Z" transform="translate(-273.827 -351.919)"/><path class="p" d="M312.7,397.468c-5.215-1.98-9.175-9.658-9.175-9.658l8.8,2.837v1.207C312.391,393.351,312.548,395.283,312.7,397.468Z" transform="translate(-279.478 -353.508)"/><path class="j" d="M337.657,401.613h0a1.932,1.932,0,0,0-1.038-2.221c-3.284-1.581-11.771-5.686-12.724-6.193s-10.95-10.092-13.919-12.966a1.931,1.931,0,0,0-1.944-.447l-8.233,2.692a1.944,1.944,0,0,0-.495,3.441c6.036,4.153,18.748,12.8,21.018,13.956,4.02,2.052,12.157,3.127,15.163,3.477a1.944,1.944,0,0,0,1.992-1.207A3.283,3.283,0,0,0,337.657,401.613Z" transform="translate(-280.527 -355.19)"/></g></g><g transform="translate(0 105.705)"><path class="p" d="M132.846,410.028s-10.056.954-15.453,16.7-3.827,45.126-7.811,48.072-25.473-4.575-27.2.266,0,5.408-4.732,3.115-12.748-3.091-11.034.748-8.885,1.268-8.6,6.495h54.12s25.618-2.656,24.724-14.125-9.923-38.185-4.491-48.289A49.811,49.811,0,0,1,144.93,407.65Z" transform="translate(-58.015 -355.002)"/><g transform="translate(38.306)"><path class="e" d="M116.96,481.014l-2.27.845s-9.887-13.7-11.094-25.75a18.314,18.314,0,0,1,.326-6.169l-.266-1.521q-.121-.688-.29-1.63c-.326-1.847-.761-4.358-1.207-7.243-1.207-6.591-2.668-15.03-3.839-21.223l.616-.205,6.628-2.137,1.376-4.346,4.926-1.3s1.111,2.161,2.089,12.35c.193,1.34.35,2.813.483,4.406a88.128,88.128,0,0,1-.471,17.855c-.229,1.775-.519,3.622-.869,5.481a24.145,24.145,0,0,0-.193,5.408C113.338,465.694,116.96,481.014,116.96,481.014Z" transform="translate(-87.968 -354.447)"/><path class="a" d="M114.376,427.1l-10.72,21.32q-.121-.688-.29-1.63c-.326-1.847-.761-4.358-1.207-7.243-1.207-6.591-2.668-15.03-3.839-21.223l.616-.205,6.628-2.137,1.376-4.346,4.926-1.3s1.111,2.161,2.089,12.35C114.086,424.032,114.243,425.5,114.376,427.1Z" transform="translate(-87.968 -354.447)"/><path class="e" d="M111.368,413.505l-.254-2.137c-4.153,1.111-15.259-3.078-15.259-3.078s-4.032,3.537-3.5,12.072c.254,4.141.724,21.73,1.207,26.958.181,1.883.338,3.223.4,3.767h0a.676.676,0,0,1-.121.459,24.025,24.025,0,0,0-1.811,3.827c-4.829,12.881.736,28.744.736,28.744l1.449-.579s3.175-17.662,5.759-25.461a15.478,15.478,0,0,1,1.207-2.982,33.572,33.572,0,0,0,3.1-8.282,202.812,202.812,0,0,0,4.177-21.972C108.64,424.841,111.368,413.505,111.368,413.505Z" transform="translate(-89.68 -354.87)"/><path class="k" d="M136.627,410.792l-.3,2.076h-.386c-.761,0-2.6-.157-4.684-.374-3.127-.314-6.845-.869-8.33-1.775-2.245-1.376-5.952-5.6-8.354-9.815a2.655,2.655,0,0,1-.181-.314,15.151,15.151,0,0,1-2.2-6.229,9.163,9.163,0,0,1,.29-2.813,6.894,6.894,0,0,1,1.28-2.547,1.111,1.111,0,0,1,.241-.3,5.867,5.867,0,0,1,1.63-1.388c.41-.169.857,0,1.328.531h0a7.785,7.785,0,0,1,1.207,1.75h0l.278.519a.641.641,0,0,1,.072.121l.567,1.207c2.113,4.612,4.37,11.589,6.241,13.678.809.893,4.515,2.656,7.449,3.96C134.9,410.1,136.627,410.792,136.627,410.792Z" transform="translate(-85.096 -359.23)"/><path class="k" d="M116.675,393.887A12.858,12.858,0,0,1,111.846,395c-7.147.4-8.765-5.867-9.066-10.032a5.808,5.808,0,0,1,2.414-.3,10.946,10.946,0,0,1,1.473.133c.881-.459,2.414-2.68,3.356-6.386l.314.145,5.155,2.414s-.543,1.678-.954,3.284a6.507,6.507,0,0,0-.35,2.813l.652.278h0a36.037,36.037,0,0,1,1.835,6.543Z" transform="translate(-87.044 -361.062)"/><path class="p" d="M120.462,397.521a1.068,1.068,0,0,1-.181.423c-1.811,3.9-5.155,20.052-5.155,20.052.471,2.909-21.827-.567-21.887-3.211-.785-2.8,2.789-7.316,4.829-9.573a5.529,5.529,0,0,0,.676-.905,6.507,6.507,0,0,0,.917-2.668c.386-3.742.241-7.243.278-9.392h0l1.123-.821a10.135,10.135,0,0,0,1.376-1.135,2.161,2.161,0,0,0,.664-1.3,8.236,8.236,0,0,0,0-1.087v-.519a14.608,14.608,0,0,0-1.038-3.453,13.207,13.207,0,0,1,5.324-.314v.495c0,1.207,0,4.443.4,5.046s9.658,4.056,10.117,3.042-.821-5.722-.869-5.9h0a14.32,14.32,0,0,1,4.153,2.209C119.219,389.7,121.947,393.766,120.462,397.521Z" transform="translate(-89.044 -360.012)"/><path class="f" d="M111.992,367.855c0-.3-.254-3.622-5.336-3.815,0,0,2.5.29,2.934,1.388,0,0-1.7-1.352-3.091-.917s-2.2,2.873-2.209,3.622.761,3.368,1.642,3.622a2.863,2.863,0,0,0,1.062,0,11.279,11.279,0,0,0-.676,1.207c-2.028,4.165,0,8.233,1.775,7.787,1.111-.29,1.425,1.594,1.425,1.594l10.7-8.668S116.29,365.573,111.992,367.855Z" transform="translate(-86.731 -364.04)"/><path class="r" d="M114.255,380.944s-.555,1.678-.954,3.3c-3.018-.845-3.936-4.02-4.2-5.71Z" transform="translate(-85.734 -361.037)"/><path class="k" d="M114.949,384.253s-7.243-1.678-6.036-6.145.917-7.714,5.577-6.833,5.119,2.8,5.107,4.382S116.857,384.579,114.949,384.253Z" transform="translate(-85.801 -362.571)"/><path class="f" d="M120.236,373.264c-.773-1.618-1.69-1.533-2.258-1.207a5.167,5.167,0,0,0-6.712-.579,8.825,8.825,0,0,1-4.056,4.358s1.111,1.135,4.322,1.111a5.264,5.264,0,0,0,2.861-1.086,17.119,17.119,0,0,1-3.755,2.813c4.02-.773,6.712-5.433,6.99-5.928a5.964,5.964,0,0,1,1.05,2.487c.072,1.207-.35,3.622.35,3.694C119.029,378.89,121.443,375.69,120.236,373.264Z" transform="translate(-86.126 -362.701)"/><path class="p" d="M116.473,387.64s1.738,3.018,1.992,3.8a3.622,3.622,0,0,0-3.163,1.642S115.085,388.075,116.473,387.64Z" transform="translate(-84.451 -359.149)"/><path class="s" d="M108.154,411.393c-4.394,0-8.125-4.612-10.394-8.258a6.507,6.507,0,0,0,.918-2.668c.386-3.742.241-7.243.278-9.392h0l1.123-.821a10.139,10.139,0,0,0,1.376-1.135C105.052,395.2,114.118,411.466,108.154,411.393Z" transform="translate(-88.084 -358.842)"/><path class="a" d="M101.256,473.109H89.811a6.35,6.35,0,0,1,.314-3.078c.579-1.268,1.473-1.847,1.207-3.38a4.129,4.129,0,0,0,3.622,1.364,13.087,13.087,0,0,0,1.992,2.68C97.695,471.177,101.027,470.984,101.256,473.109Z" transform="translate(-89.745 -342.775)"/><path class="a" d="M121.636,473.02H110.191a4.732,4.732,0,0,1,.326-3.078,2.2,2.2,0,0,0-.085-2.632,4.262,4.262,0,0,0,1.92.362,4.152,4.152,0,0,0,1.714-.592,41.216,41.216,0,0,0,3.26,3.429C118.074,471.088,121.406,470.895,121.636,473.02Z" transform="translate(-85.533 -342.686)"/><path class="k" d="M125.593,415.58l-.471,1.787-6.966-1.485h0c-2.149-.507-4.563-1.135-6.592-1.823a18.243,18.243,0,0,1-3.513-1.557l-.241-.181c-2-1.461-4.406-5.759-6.266-10.37-.254-.64-.495-1.28-.736-1.9a46.889,46.889,0,0,1-1.956-6.543,17.951,17.951,0,0,1-.471-3.115,7.246,7.246,0,0,1,0-.881c0-4.986,2.511-5.674,2.511-5.674h.169c.435-.072.881.217,1.34.785a15.549,15.549,0,0,1,1.847,3.26c.978,2.221,2.016,5.095,2.97,7.944.543,1.569,1.05,3.139,1.569,4.587.29.869.592,1.7.857,2.414a25.476,25.476,0,0,0,1.449,3.356,8.452,8.452,0,0,0,2.125,1.92C115.006,409.387,125.593,415.58,125.593,415.58Z" transform="translate(-87.958 -359.939)"/><path class="p" d="M104.207,387.845a6.5,6.5,0,0,0-5.867,1.678c0-4.986,2.523-5.662,2.523-5.662C101.865,383.438,103.024,385.177,104.207,387.845Z" transform="translate(-87.964 -359.945)"/></g><path class="e" d="M218.439,422.92c.1.278-40.889,21.054-40.889,21.054a18.3,18.3,0,0,0,11.408.773c6.628-1.545,32.064-16.177,32.064-16.177Z" transform="translate(-33.243 -351.838)"/><path class="t" d="M189.126,426.4s-13.593,21.9-49.883-18.109a5.155,5.155,0,0,0-5.082-1.545L120,410.248a2.692,2.692,0,0,1,1.871.567,3.779,3.779,0,0,1,.736,1.316c2.909,8.125,13.811,35.336,31.485,42.869,20.849,8.873,42.953,3.742,59.481-28.6Z" transform="translate(-45.17 -355.222)"/><g transform="translate(183.133 27.754)"><path class="j" d="M258.579,432.762l-.1.169c-.8,1.4-2.644,4.829-4.684,8.571-.954,1.775-1.956,3.622-2.909,5.372-1.654,3.006-3.151,5.674-4.02,7.1s-1.545,2.414-1.8,2.849h0a.7.7,0,0,0-.085.423,20.628,20.628,0,0,1-.06,3.767,28.974,28.974,0,0,1-9.441,18.724l-2.414.35s3.453-12.809,4.467-20.052a13.386,13.386,0,0,0,.193-2.873,30.179,30.179,0,0,1,.785-7.835,177.453,177.453,0,0,1,5-18.109c.121-.362,3.549-12.8,3.549-12.8,2.885,2.523,13.412,3.622,13.412,3.622S262.225,426.291,258.579,432.762Z" transform="translate(-204.871 -380.525)"/><path class="a" d="M228.79,473.046h10.2a5.662,5.662,0,0,0-.29-2.74c-.519-1.135-1.207-1.207-.1-2.946-.652.676-2.728.954-4.2.748a12.665,12.665,0,0,1-1.775,2.692C231.965,471.283,229.044,471.114,228.79,473.046Z" transform="translate(-205.757 -370.383)"/><path class="p" d="M255.46,431.334l-.1.169c-.8,1.4-5.155,9.428-7.243,13.183a54.325,54.325,0,0,0,.712-19.376Z" transform="translate(-201.752 -379.097)"/><path class="f" d="M221.591,391.424s-.4-4.394,4.515-4.394a5.735,5.735,0,0,0-2.258,1.207,5.819,5.819,0,0,1,6.543.99c3.417,2.825,1.3,9.924,2.342,11.276s5.07,1.618,4.575,5.976-12.821,9.8-12.072,13.412c0,0-4.829-7.111-1.376-10.346a6.375,6.375,0,0,0-1.847,3.477s-.459-3.694,1.883-4.829c2.076-1.038,3.767-4.829,3.622-5.541S221.591,391.424,221.591,391.424Z" transform="translate(-207.251 -387.03)"/><path class="k" d="M230.674,406s-6.99,17.662-8.451,17.01-10.394-3.477-10.394-3.477l-.579,2.161s8.451,6.507,12.8,6.8S234.3,415.96,234.3,415.96Z" transform="translate(-209.392 -383.099)"/><g transform="translate(0 33.222)"><path class="e" d="M216.793,433.581a8.8,8.8,0,1,1-3.561,11.94,8.8,8.8,0,0,1,3.561-11.94Zm6.736,12.483a13.058,13.058,0,1,0-.06,0Z" transform="translate(-209.201 -410.824)"/><path class="e" d="M209.951,421.3a8.8,8.8,0,1,1,6.507,10.612A8.8,8.8,0,0,1,209.951,421.3Zm3.332.8a5.384,5.384,0,1,0,6.495-3.972,5.384,5.384,0,0,0-6.495,3.972Z" transform="translate(-209.711 -414.549)"/></g><path class="f" d="M223.712,390.172a42.061,42.061,0,0,1,6.121,2.994c2.765,3.066,1.98,7.062.4,7.111-1.014,0-.821,1.7-.821,1.7l-11.3-4.829S219.474,389.267,223.712,390.172Z" transform="translate(-207.971 -386.394)"/><path class="a" d="M226.149,406.29s-1.509,1.557-1.509,6.217c0,0,2.076,3.272,7.461,4.1C232.1,416.612,227.489,406.278,226.149,406.29Z" transform="translate(-206.618 -383.039)"/><path class="j" d="M247.62,423.107V421.2c3.8.483,13.111-4.539,13.111-4.539s3.972,2.644,4.515,10.2c.266,3.682,1.944,19.316,2.137,23.927.06,1.69.085,2.9.1,3.38h0a.712.712,0,0,0,.157.4,21.433,21.433,0,0,1,2.064,3.151c5.795,10.793,2.765,25.461,2.765,25.461l-1.352-.35s-4.9-15.2-8.1-21.73a12.688,12.688,0,0,0-1.461-2.487,30.181,30.181,0,0,1-3.718-6.942C255.419,445.935,247.62,423.107,247.62,423.107Z" transform="translate(-201.855 -380.89)"/><path class="a" d="M261.45,473.058h10.2a5.662,5.662,0,0,0-.29-2.74c-.507-1.135-1.3-1.642-1.123-3.018a3.622,3.622,0,0,1-3.175,1.207,11.361,11.361,0,0,1-1.775,2.294C264.625,471.3,261.655,471.127,261.45,473.058Z" transform="translate(-198.989 -370.395)"/><path class="e" d="M232.521,419.856c1.364.241-.229,1.328,1.654,1.533a33.806,33.806,0,0,1,6.905,1.074,1.533,1.533,0,0,1,.99.8,18.76,18.76,0,0,0,3.4,4.829c17.758-.8,19.714-8.233,19.714-8.233-11.529-11.191-22.129-17.795-30.181-18.676a9.984,9.984,0,0,0-4.382,1.292c-2.837,1.207-4.7,4.9-4.7,4.9S227.306,418.975,232.521,419.856Z" transform="translate(-206.35 -384.098)"/><path class="a" d="M232.76,420.4a33.8,33.8,0,0,1,6.905,1.074,28.31,28.31,0,0,0-3.622-15.525S233.352,417.044,232.76,420.4Z" transform="translate(-204.935 -383.109)"/><path class="k" d="M231.766,404.711s6.748-.374,7.944,3.863-2.245,21.139-2.982,22.877c-1.352,3.175-7.944,12.241-7.944,12.241l-2.414-.736s4.382-13.847,5.372-15.211C233.275,425.585,229.75,406.546,231.766,404.711Z" transform="translate(-206.259 -383.368)"/><path class="k" d="M226.778,436.44a3.935,3.935,0,0,1-.579,1.63c-.459.555-1.775,1.9-1.8,2.68a.282.282,0,0,0,.35.29c.35-.06,1.268-1.038,1.775-.966a10.053,10.053,0,0,1-.543,2.016,5.831,5.831,0,0,0,.109,2.7c.157.374,2.125-2.052,2.934-3.139s0-5.505,0-5.505Z" transform="translate(-206.667 -376.851)"/><path class="e" d="M240.5,414.451c0,.1-6.386,1.207-10.37-.845,0,0-3.32-10.418,1.425-9.923s7.569,1.992,7.69,4.274A43.734,43.734,0,0,0,240.5,414.451Z" transform="translate(-205.713 -383.582)"/><path class="k" d="M212.467,416.522s-1.75-.362-2.414.555-.205,3.622.978,3.549,1.292-1.835,1.425-2.475a6.121,6.121,0,0,0,.012-1.63Z" transform="translate(-209.704 -380.933)"/><path class="k" d="M231.036,402.837s-1.871,7-4.7,4.9a5.662,5.662,0,0,0-.99-2.318c-.749-1.28-1.63-2.583-1.63-2.583l3.815-3.344.229-.193A10.141,10.141,0,0,0,231.036,402.837Z" transform="translate(-206.808 -384.487)"/><path class="r" d="M223.72,402.8s.881,1.3,1.63,2.584c2.414-1.461,2.414-4.406,2.185-5.928Z" transform="translate(-206.808 -384.454)"/><path class="k" d="M224.7,405.652s5.771-3.2,3.718-6.761-2.692-6.362-6.459-4.467-3.694,3.622-3.3,5.01S223.152,406.4,224.7,405.652Z" transform="translate(-207.894 -385.624)"/><path class="f" d="M217.837,397.443c.254-1.569,1.062-1.726,1.618-1.618a4.6,4.6,0,0,1,5.6-2.149,7.871,7.871,0,0,0,4.551,2.728s-.676,1.207-3.429,2.016a4.72,4.72,0,0,1-2.716-.217,15.453,15.453,0,0,0,3.911,1.473c-3.622.326-7.086-2.982-7.449-3.344a5.094,5.094,0,0,0-.278,2.414c.229,1.074,1.207,3.006.6,3.26C220.251,401.97,217.438,399.821,217.837,397.443Z" transform="translate(-208.035 -385.709)"/></g><path class="e" d="M221.331,441.608c0-.29-44.921-9.875-44.921-9.875a18.314,18.314,0,0,1,10.781-3.622c6.8-.217,35.143,7.4,35.143,7.4Z" transform="translate(-33.479 -350.763)"/><path class="b" d="M198.858,431.84a.978.978,0,1,1-.978.978A.978.978,0,0,1,198.858,431.84Z" transform="translate(-29.03 -349.989)"/><path class="k" d="M120.425,409.6a29.3,29.3,0,0,1,3.477,1.569,7.413,7.413,0,0,1,1.847,2.656.29.29,0,0,1-.3.3c-.3-.012-.942-1.111-1.425-.93a9.525,9.525,0,0,0,.966,1.847,5.722,5.722,0,0,1,.483,2.668c-.072.41-2.523-1.545-3.549-2.414-.543-.471-.531-1.618-.7-2.909s-3.272-1.787-3.272-1.787Z" transform="translate(-45.594 -354.598)"/></g><g transform="translate(340.718 103.974)"><g transform="translate(54.27)"><path class="k" d="M426.833,389.005a48.081,48.081,0,0,1-3.791,4.068c-2.511,2.414-5.891,5.119-8.861,5.626a4.83,4.83,0,0,1-2.282-.121,13.4,13.4,0,0,1-4.418-2.692,46.112,46.112,0,0,1-7.461-8.728l2.113-2.414s4.744,3.525,7.714,5.408a10.073,10.073,0,0,0,2.282,1.207c.736-.314,13.5-8.909,13.5-8.909Z" transform="translate(-377.288 -358.494)"/><path class="a" d="M425.549,389a48.087,48.087,0,0,1-3.791,4.068A98.039,98.039,0,0,1,412.9,398.7a5,5,0,0,1-1.726.7c-1.569-.085-4.926-2.209-4.926-2.209a6.812,6.812,0,0,1,0-1.3,10.141,10.141,0,0,1,2.414-5.722,10.073,10.073,0,0,0,2.282,1.207c.736-.314,13.5-8.909,13.5-8.909Z" transform="translate(-376.004 -358.492)"/><g transform="translate(0 11.673)"><path class="u" d="M408.075,421.995c.435,2.668.736,4.612.736,4.612a28.973,28.973,0,0,1-10.684,2.125h-3.622c-1.835-.072-3.622-.254-5.2-.471a61,61,0,0,1-8.113-1.63A28.974,28.974,0,0,1,384,414.377c1.7-3.743,3.622-6.592,4.153-8.9.664-2.9-.748-9.658-1.763-13.847-.519-2.137-.942-3.622-.942-3.622-3.549-5.215-1.847-8.27-1.847-8.27s1.654-.7,3.73-1.328h0c.712-.217,1.473-.423,2.221-.592a16.7,16.7,0,0,1,2.306-.386c2.028-.169,2.137-4.829,2.137-4.829a7.159,7.159,0,0,1,2.8-.3,15.576,15.576,0,0,1,2.414.3s0,3.622,1.7,4.406c.869.386,2.547,1.1,4.177,1.787h0l.157.072.543.229.7.29.338.145.531.229,2.113.881c.748,1.968-1.907,6.386-1.907,6.386a4.5,4.5,0,0,1,.193.99v.169a24.072,24.072,0,0,1-.592,5.553c-.724,3.8-1.871,8.161-2.149,11.095a6.821,6.821,0,0,0,.1,2.415v.084c.109.338.241.8.374,1.352C406.373,411.782,407.387,417.818,408.075,421.995Z" transform="translate(-381.19 -372.276)"/><path class="a" d="M411.409,484.249l-12.591-8.185a3.006,3.006,0,0,1-1.364-2.547l.761-63.416c0-.555-1.207-1.111-1.811-1.111s-2.185.229-2.185.773l1.461,64.177a2.04,2.04,0,0,1-.942,1.775l-13.123,8.535a.447.447,0,0,0,.241.821h0l13.4-5.879a3.139,3.139,0,0,1,2.511,0l13.4,5.879a.447.447,0,0,0,.241-.821Z" transform="translate(-381.144 -364.667)"/></g><path class="k" d="M430.391,381.868s-3.549,4.213-8.076,2.414a13.62,13.62,0,0,1-.99-4.093v-.616c0-1.956-.084-3.054-.084-3.054h0c.205-.084,6.917-2.837,6.917-2.608C428.025,379.236,430.391,381.868,430.391,381.868Z" transform="translate(-372.89 -360.266)"/><path class="l" d="M427.471,375.009a10.551,10.551,0,0,1-6.157,4.406c0-1.956-.084-3.054-.084-3.054h0C421.423,376.289,427.665,374.635,427.471,375.009Z" transform="translate(-372.892 -360.047)"/><path class="t" d="M407.59,421.049a42.34,42.34,0,0,1-9.863,0,32.029,32.029,0,0,1-3.863-.749,17.227,17.227,0,0,1-10.334-6.845c1.7-3.742,3.622-6.592,4.153-8.9.664-2.9-.748-9.658-1.763-13.847l.942-13.28h0l2.221-.592s-.748,8.451,11.227,8.946c3.767.157,5.891.676,7.026,1.3.423,4.829-3.622,16.189-2.608,19.316C405.5,408.663,406.781,416.111,407.59,421.049Z" transform="translate(-380.705 -359.656)"/><path class="k" d="M420.261,378.066s7.557,1.775,8.583-2.934,2.7-7.666-2.076-9.006-6.109.266-6.833,1.751S418.329,377.486,420.261,378.066Z" transform="translate(-373.335 -361.981)"/><path class="f" d="M429.062,377.037c.1.072,1.726.567,4.829-5.565a5.336,5.336,0,0,0-.314-4.829c-1.135-1.835-5.119-3.284-8.451-3.911s-4.1,1.207-4.889,3.115a10.116,10.116,0,0,1-3.187,3.622c2.861,1.593,6.3-.688,7.5-.314s1.618,2.258,1.7,2.861.229,1.1,1.726.567.676,2.125.435,2.632A1.7,1.7,0,0,0,429.062,377.037Z" transform="translate(-373.758 -362.606)"/><path class="v" d="M443.084,473.938h4.575c.954,0,2.016-.966,2.294-2.716s2.233-2.716,2.656-4.153-1.763-3.465-1.763-3.465l-.362-.471-.374-.483-3.622.845s-.085.869-.145,1.968a24.861,24.861,0,0,0,0,2.511c.1,1.919-.543,3.984-2.245,4.358S443.084,473.938,443.084,473.938Z" transform="translate(-368.392 -341.873)"/><path class="v" d="M416.71,473.12h12.422c.809-.41.555-3.5.459-4.467v-.278s-4.262-3.4-4.829-.8l-.072.241h0c-.736,2.414-4.044,3.549-5.952,3.863a2.064,2.064,0,0,0-2.028,1.437Z" transform="translate(-373.829 -341.056)"/><path class="b" d="M418.73,414.327s.652,8.076,1.412,17.771c1.026,13.183,2.27,29.372,2.414,32.438.217,5.324,1.074,13.847,1.074,13.847s2.016,2.028,6.036,1.207a140.151,140.151,0,0,0,4.636-25.026v-.64c.954-13.1,2.414-40.684,2.414-40.684Z" transform="translate(-373.41 -352.113)"/><path class="j" d="M418.73,414.333s.652,8.076,1.412,17.771l14.173,22.43v-.64c.954-13.1,2.414-40.684,2.414-40.684Z" transform="translate(-373.41 -352.119)"/><path class="b" d="M421.18,415.833s11.662,29.239,19.316,42.978,10.068,17.565,10.068,17.565,4.382-1.75,4.829-2.946c0,0-2.934-26.559-8.076-32.994-2.9-3.622-6.3-14.62-6.471-18.447s-1.038-11.42-1.038-11.42Z" transform="translate(-372.903 -352.666)"/><path class="e" d="M440.317,422.245a31.385,31.385,0,0,1-9.658,4.02c-4.141.905-9.211.519-10.865.736a.785.785,0,0,1-.495-.133c-.133-.072-.8-5.191-1.437-11.662,0-.254-.06-.531-.06-.773v-.1c-.072-.676-.133-1.352-.193-2.052-.1-.966-.169-1.956-.254-2.946-.06-.773-.109-1.545-.169-2.318v-.507c-.193-2.861-.338-5.662-.386-8.161v-1.268a39.73,39.73,0,0,1,.145-4.358,6.56,6.56,0,0,1,.1-.881,15.7,15.7,0,0,1,4.02-8.378l1.654-2.064c1.606.133,2.994.374,4.563-.628s2.414-2.547,2.789-2.354c2.62,1.533,5.795,5.734,7.243,10.865a59.619,59.619,0,0,1,1.69,9.127c.133,1.207.241,2.535.314,3.827a126.754,126.754,0,0,0,2.089,16.3c.181.99.326,1.775.4,2.318S440.739,421.992,440.317,422.245Z" transform="translate(-373.81 -359.332)"/><path class="a" d="M428.3,387.88s-1.473,12.543-11.022,19.5c-.06-.773-.109-1.545-.169-2.318v-.507c-.193-2.861-.338-5.662-.386-8.161v-1.268c0-1.473.06-2.813.145-3.948A24.048,24.048,0,0,1,428.3,387.88Z" transform="translate(-373.827 -357.368)"/><path class="p" d="M403.874,377.69s-.266,17.07-10.31,23.3-2.9,42.966-5.819,56.511,26.2,2.5,27.67-12.8-12.712-38.873-12.591-41.782,3.706-21.622,3.32-24.265Z" transform="translate(-379.874 -359.48)"/><path class="k" d="M421.1,401.461a20.248,20.248,0,0,1-2.946,1.606,27.535,27.535,0,0,1-6.978,1.075c-6.121.35-13.28,0-13.28,0a4.527,4.527,0,0,1-4.563-.253,25.112,25.112,0,0,0-2.415-1.135.712.712,0,0,1-.314-1.1,1.582,1.582,0,0,1,1.014-.761,6.459,6.459,0,0,1,3.984-.121,1,1,0,0,1-.253-.712c.06-.229,1.618.688,2.306,1.111,2.306.326,7.726-1.28,11.783-2.644,2.414-.821,4.382-1.557,4.829-1.738a19,19,0,0,0,3.006-2.909,26.983,26.983,0,0,0,3.827,7.581Z" transform="translate(-379.269 -356.125)"/><path class="e" d="M431.578,394.511c-4.829,3.38-13.69,9.658-16.008,10.974a20.813,20.813,0,0,1-6.266,3.078c-4.056-2.752-3.066-7.775-3.066-7.775,2.414-.821,4.382-1.557,4.829-1.738,1.207-.471,11.119-12.181,11.119-12.181s3.767-4.829,7.159-4.044a6.266,6.266,0,0,1,4.757,5.058,6.362,6.362,0,0,1-2.523,6.628Z" transform="translate(-376.021 -358.434)"/></g><g transform="translate(0 97.356)"><path class="e" d="M356.184,478.3H339.15a2.909,2.909,0,0,1-2.909-3.078l.278-4.829h0l.181-3.223.519-8.982.169-2.825.4-6.857.145-2.5a2.909,2.909,0,0,1,2.909-2.753h13.352a2.861,2.861,0,0,1,1.316.314,2.9,2.9,0,0,1,1.594,2.414l.145,2.016.435,5.819.06.917.652,9.537.519,7.618.229,3.332a2.922,2.922,0,0,1-2.958,3.078Z" transform="translate(-336.236 -443.25)"/><path class="b" d="M337.139,456.388s9.042,1.05,20.414-4.419l.35,5.179s-5.433,6.724-21.284,8.221Z" transform="translate(-336.156 -441.443)"/><path class="b" d="M358.884,468.25a28.248,28.248,0,0,1-9.054,6.447H339.17a2.909,2.909,0,0,1-2.909-3.078l.278-4.829h0a66.615,66.615,0,0,0,21.827-6.169Z" transform="translate(-336.232 -439.65)"/><path class="b" d="M357.049,447.938c-1.919,1.763-7.75,6.109-19.859,7.376l.4-6.857a29.227,29.227,0,0,0,17.722-4.938,2.9,2.9,0,0,1,1.594,2.415Z" transform="translate(-336.038 -443.194)"/></g></g></g><rect class="w" width="500" height="1.521" transform="translate(0 235.736)"/></g><rect class="x" width="500" height="270" transform="translate(42.73 262.383)"/></g></svg>