<svg xmlns="http://www.w3.org/2000/svg" width="457.56" height="436.74" viewBox="0 0 457.56 436.74"><defs><style>.a{fill:#f2e9e4;}.b{fill:#839eb6;}.c{fill:#fafafa;}.d{fill:#aed3f2;}.e{fill:#344154;}.f{fill:#ffbf9d;}.g{fill:#d9a171;}.h{fill:#dbdbdb;}.i{fill:#c7c7c7;}.j{fill:#5e6178;}.k{fill:#b78876;}.l{fill:#aa6550;}.m{opacity:0.4;}.n{fill:#fff;}.o{opacity:0.3;}</style></defs><g transform="translate(-24.52 -38.52)"><circle class="a" cx="218.37" cy="218.37" r="218.37" transform="translate(36.7 38.52)"/><rect class="b" width="5.44" height="40.71" transform="translate(316.33 278.07) rotate(-90)"/><path class="c" d="M321.88,272.86a13.13,13.13,0,0,1,0,5.1A12.63,12.63,0,0,1,321.88,272.86Z"/><path class="c" d="M321,272.75a12.63,12.63,0,0,1,0,5.1,13.129,13.129,0,0,1,0-5.1Z"/><path class="c" d="M353.89,272.86a12.63,12.63,0,0,1,0,5.1,13.13,13.13,0,0,1,0-5.1Z"/><ellipse class="c" cx="0.26" cy="2.55" rx="0.26" ry="2.55" transform="translate(352.75 272.75)"/><path class="c" d="M347.69,275.52c0,.14-4.66.26-10.41.26s-10.42-.12-10.42-.26,4.66-.25,10.42-.25S347.69,275.38,347.69,275.52Z"/><rect class="b" width="10.88" height="40.71" transform="translate(316.16 308) rotate(-90)"/><path class="c" d="M357.39,304.94l-.23.13-.67.31a12.7,12.7,0,0,1-2.76.79,7.21,7.21,0,0,1-4.48-.64,5.89,5.89,0,0,1-2.13-1.93,4.5,4.5,0,0,1-.74-3.13,3.3,3.3,0,0,1,.75-1.62,2.16,2.16,0,0,1,1.72-.78,2.46,2.46,0,0,1,1.72.93,3.39,3.39,0,0,1,.79,1.86,4.93,4.93,0,0,1-1.4,3.85,6.23,6.23,0,0,1-3.92,1.91,10.42,10.42,0,0,1-4.54-.56,8.359,8.359,0,0,1-4-2.67,4.38,4.38,0,0,1-.92-2.34,3,3,0,0,1,.87-2.45,2,2,0,0,1,1.27-.56,2.37,2.37,0,0,1,1.33.38,3.52,3.52,0,0,1,1.5,2.19A5.11,5.11,0,0,1,340,305.4a8,8,0,0,1-4.58,1.87,11.319,11.319,0,0,1-4.75-.47A6.59,6.59,0,0,1,327,304a4.84,4.84,0,0,1-.45-4.32,2.27,2.27,0,0,1,1.66-1.4,2.59,2.59,0,0,1,2,.49,3.39,3.39,0,0,1,1,3.66,6.3,6.3,0,0,1-2.05,2.9,9.26,9.26,0,0,1-5.58,2.16,8.87,8.87,0,0,1-4.42-1,8.72,8.72,0,0,1-2.31-1.71,5.5,5.5,0,0,1-.49-.57c-.1-.13-.15-.2-.14-.21a10.2,10.2,0,0,0,3,2.31A8.79,8.79,0,0,0,329,305a5.93,5.93,0,0,0,1.91-2.73,3,3,0,0,0-.84-3.21,2.17,2.17,0,0,0-1.71-.4,1.83,1.83,0,0,0-1.34,1.15,4.39,4.39,0,0,0,.45,3.9,6.09,6.09,0,0,0,3.37,2.59,10.76,10.76,0,0,0,4.54.43,7.52,7.52,0,0,0,4.29-1.74,4.63,4.63,0,0,0,1.45-4.3,3,3,0,0,0-1.27-1.88,1.55,1.55,0,0,0-2,.12,2.58,2.58,0,0,0-.72,2,4,4,0,0,0,.82,2.08,8,8,0,0,0,3.73,2.51,10,10,0,0,0,4.33.56,5.78,5.78,0,0,0,3.64-1.76,4.55,4.55,0,0,0,1.31-3.5,2.59,2.59,0,0,0-2.11-2.43,1.76,1.76,0,0,0-1.42.63,3,3,0,0,0-.67,1.43,4.14,4.14,0,0,0,.65,2.9,5.76,5.76,0,0,0,2,1.85,7.05,7.05,0,0,0,4.31.69,12.71,12.71,0,0,0,2.75-.69C357.06,305.06,357.38,304.92,357.39,304.94Z"/><rect class="d" width="18.87" height="37.07" transform="translate(319.79 297.11) rotate(-90)"/><path class="b" d="M326,278.88a81.426,81.426,0,0,1,.26,9.13,81.532,81.532,0,0,1-.26,9.14,83.136,83.136,0,0,1-.25-9.14A83.009,83.009,0,0,1,326,278.88Z"/><path class="b" d="M328.76,278.65a79.232,79.232,0,0,1,.26,9,79.475,79.475,0,0,1-.26,9,81,81,0,0,1-.25-9A80.789,80.789,0,0,1,328.76,278.65Z"/><path class="b" d="M352.67,278a88.057,88.057,0,0,1,.26,9.5,87.943,87.943,0,0,1-.26,9.49,89.668,89.668,0,0,1-.25-9.49A89.782,89.782,0,0,1,352.67,278Z"/><path class="b" d="M349.37,278.3a83.519,83.519,0,0,1,.26,9.25,83.519,83.519,0,0,1-.26,9.25,83.534,83.534,0,0,1-.26-9.25,83.526,83.526,0,0,1,.26-9.25Z"/><rect class="b" width="249.93" height="165.78" transform="translate(99.07 63.38)"/><path class="d" d="M102,416.69c-1.09-.93-3.52-3.89-1.65-7.33.69-1.26,2.15-1.88,3.47-2.44a13.8,13.8,0,0,0,3.79-2c2.06-1.75,2.63-4.66,4-7a8.75,8.75,0,0,1,7.59-4.56c3.54.16,6.5,3.06,7.84,6.36s1.39,7,1.41,10.53c0,2-.07,4.19-1.52,5.52s-3.34,1.24-5.15,1.18l-19.36-.59"/><path class="b" d="M139.06,363.44H88.14l9.17,54.7a6.11,6.11,0,0,0,4.35,4.87l.18.05.45.12a6.994,6.994,0,0,0,1,.12v.05h22.94a6.389,6.389,0,0,0,1.25-.12,6.14,6.14,0,0,0,5.15-5.35l4.42-37.69.2-1.5h0L139,363.73Zm-9.6,34.89h-5.23l.53-15.87h6Zm1.86-15.87h5l-1.86,15.87H130Zm-14.93,33.47-.32-13.79h7.53l-.46,13.79Zm-8.14-13.79h7.32l.31,13.79h-6.55Zm.57,13.79h-6.13c-.59-3.72-1.34-8.56-2.16-13.79h7.22Zm-.86-17.6-1.24-15.87h8.39l.37,15.87Zm8,0-.36-15.87h8.63l-.53,15.87Zm-.45-19.68-.34-14.7h9.68l-.49,14.7Zm-.5,0h-8.6L105.29,364h9.4Zm-9.11,0H96.8c-.32-2-.62-3.95-.9-5.68-1-5.94-1.3-8.18-1.5-9h10.36Zm.3,3.81,1.23,15.87h-7.5c-.26-1.61-.51-3.24-.77-4.87-.59-3.74-1.18-7.49-1.73-11Zm-6.8,15.87H94.5l-2.66-15.87h5.08c.77,4.91,1.63,10.37,2.5,15.87Zm.59,3.81c.75,4.77,1.49,9.48,2.17,13.79H97.45l-2.31-13.79Zm23.64,13.79.45-13.79h5L128,415.93Zm1.23-37.28.49-14.7h7l-1.25,14.7ZM93.94,364c.2,1.06,1.13,6.85,2.37,14.7H91.2L88.74,364Zm38.46,52h-3.94l1.18-13.79H134Zm4.37-37.28h-5.12L132.9,364h5.6Z"/><rect class="b" width="106.94" height="30.12" rx="3.13" transform="translate(24.52 249.55)"/><ellipse class="d" cx="6.52" cy="6.55" rx="6.52" ry="6.55" transform="translate(35.45 258.99)"/><path class="b" d="M45.64,263.32a26.871,26.871,0,0,1-3.51,3.78l-.86.84-.17.17-.17-.17a18.63,18.63,0,0,1-2.62-3,18.468,18.468,0,0,1,3,2.63h-.34l.85-.85A26,26,0,0,1,45.64,263.32Z"/><path class="c" d="M120.93,262.31c0,.14-14.35.25-32.06.25s-32.05-.11-32.05-.25,14.35-.25,32.05-.25S120.93,262.17,120.93,262.31Z"/><path class="c" d="M121.21,267.76c0,.14-14.35.25-32,.25s-32.06-.11-32.06-.25,14.35-.25,32.06-.25S121.21,267.62,121.21,267.76Z"/><path class="d" d="M384.45,271.73l-1.96,152.01h87.46V273.81Z"/><path class="b" d="M431.57,272.88l-.78,150.86h39.16V273.81Z"/><path class="b" d="M387.2,274.47v31.09h41.43V275.94Z"/><path class="d" d="M401.48,283.02v4.6h12.68v-5.01Z"/><rect class="d" width="13.09" height="1.88" transform="translate(401.48 291.48)"/><path class="b" d="M387.2,383.42v31.09h41.43V384.89Z"/><path class="d" d="M401.48,391.97v4.6h12.68v-5.01Z"/><rect class="d" width="13.09" height="1.88" transform="translate(401.48 400.43)"/><path class="b" d="M387.2,309.52v31.09h41.43V310.99Z"/><path class="d" d="M401.48,318.07v4.59h12.68v-5.01Z"/><rect class="d" width="13.09" height="1.88" transform="translate(401.48 326.53)"/><rect class="b" width="41.43" height="31.09" transform="translate(386.66 346.75)"/><path class="d" d="M401.22,360.76v4.31h11.91v-4.7Z"/><rect class="d" width="12.3" height="1.77" transform="translate(401.22 368.7)"/><path class="e" d="M482.08,422.25c0,.28-95.77.5-213.87.5s-213.89-.22-213.89-.5,95.75-.51,213.89-.51S482.08,422,482.08,422.25Z"/><rect class="c" width="258.83" height="169.77" transform="translate(84.08 67.54)"/><path class="e" d="M342.91,237.31c0-1.63-.08-66.22-.2-169.77l.2.2L84.1,67.79h0l.25-.25V237.31l-.23-.23,258.83.23-258.83.23h-.23V67.29H343.17v.2C343,171.09,342.91,235.68,342.91,237.31Z"/><rect class="f" width="170.26" height="13.1" transform="translate(121.36 142.98)"/><rect class="g" width="170.26" height="13.1" transform="translate(121.36 129.88)"/><rect class="h" width="170.26" height="13.1" transform="translate(121.36 156.06)"/><rect class="f" width="170.26" height="13.1" transform="translate(121.36 169.16)"/><rect class="h" width="170.26" height="13.1" transform="translate(121.36 182.25)"/><rect class="f" width="170.26" height="13.1" transform="translate(121.36 195.34)"/><rect class="h" width="170.26" height="13.1" transform="translate(121.36 208.43)"/><rect class="i" width="51.05" height="91.64" transform="translate(121.36 129.88)"/><path class="e" d="M121.36,156.06l85.13-.16,85.13.16-85.13.17Z"/><path class="e" d="M121.36,169.16l85.13-.16,85.13.16-85.13.17Z"/><path class="e" d="M121.36,182.25l85.13-.17,85.13.17-85.13.16Z"/><path class="e" d="M121.36,195.34l85.13-.16,85.13.16-85.13.17Z"/><path class="e" d="M121.36,208.43l85.13-.16,85.13.16-85.13.17Z"/><path class="e" d="M130.48,136.4c5.43-.27,10.87-.29,16.3-.33s10.87,0,16.31.33c-5.44.28-10.87.29-16.31.33S135.91,136.7,130.48,136.4Z"/><path class="e" d="M130.48,149.52c4.1-.28,8.22-.29,12.33-.33s8.22,0,12.34.33c-4.12.28-8.22.29-12.34.33S134.58,149.8,130.48,149.52Z"/><path class="e" d="M130.48,162.62c5.43-.28,10.87-.29,16.3-.33s10.87,0,16.31.33c-5.44.27-10.87.29-16.31.33S135.91,162.88,130.48,162.62Z"/><path class="e" d="M130.48,175.7c4.46-.27,8.94-.29,13.41-.33s9,0,13.43.33c-4.48.28-8.95.29-13.43.33S134.94,176,130.48,175.7Z"/><path class="e" d="M130.48,188.8c5.43-.28,10.87-.3,16.3-.34s10.87,0,16.31.34c-5.44.27-10.87.29-16.31.33S135.91,189.07,130.48,188.8Z"/><path class="e" d="M130.48,201.89c5.43-.28,10.87-.29,16.3-.33s10.87,0,16.31.33c-5.44.28-10.87.29-16.31.33S135.91,202.16,130.48,201.89Z"/><path class="e" d="M130.48,215c3.3-.25,6.62-.31,9.89-.33s6.62.08,9.91.33c-3.3.27-6.63.32-9.91.33S133.78,215.24,130.48,215Z"/><path class="e" d="M184.33,136.4c4.08-.27,8.17-.29,12.25-.33s8.18,0,12.26.33c-4.08.28-8.17.29-12.26.33S188.44,136.7,184.33,136.4Z"/><path class="e" d="M184.33,149.52c4.08-.28,8.17-.29,12.25-.33s8.18,0,12.26.33c-4.08.28-8.17.29-12.26.33S188.44,149.8,184.33,149.52Z"/><path class="e" d="M184.33,162.62c4.08-.28,8.17-.29,12.25-.33s8.18,0,12.26.33c-4.08.27-8.17.29-12.26.33S188.44,162.88,184.33,162.62Z"/><path class="e" d="M184.33,175.7c4.08-.27,8.17-.29,12.25-.33s8.18,0,12.26.33c-4.08.28-8.17.29-12.26.33S188.44,176,184.33,175.7Z"/><path class="e" d="M184.33,188.8c4.08-.28,8.17-.3,12.25-.34s8.18,0,12.26.34c-4.08.27-8.17.29-12.26.33S188.44,189.07,184.33,188.8Z"/><path class="e" d="M184.33,201.89c4.08-.28,8.17-.29,12.25-.33s8.18,0,12.26.33c-4.08.28-8.17.29-12.26.33S188.44,202.16,184.33,201.89Z"/><path class="e" d="M184.33,215c4.08-.26,8.17-.29,12.25-.33s8.18,0,12.26.33c-4.08.28-8.17.29-12.26.33S188.44,215.25,184.33,215Z"/><path class="e" d="M219.75,136.4c4.1-.27,8.17-.29,12.27-.33s8.17,0,12.24.33c-4.07.28-8.17.29-12.24.33S223.85,136.7,219.75,136.4Z"/><path class="e" d="M228.16,201.89a23.39,23.39,0,0,1,7.83,0,23.39,23.39,0,0,1-7.83,0Z"/><path class="e" d="M228.16,188.8a21.149,21.149,0,0,1,4-.34,20.519,20.519,0,0,1,3.91.34,23.391,23.391,0,0,1-7.83,0Z"/><path class="e" d="M228.16,175.7a23.39,23.39,0,0,1,7.83,0,23.39,23.39,0,0,1-7.83,0Z"/><path class="e" d="M228.16,162.62a23.39,23.39,0,0,1,7.83,0,23.39,23.39,0,0,1-7.83,0Z"/><path class="e" d="M228.16,149.52a22,22,0,0,1,4-.33,20.51,20.51,0,0,1,3.91.33,19.73,19.73,0,0,1-3.91.33,22,22,0,0,1-4-.33Z"/><path class="e" d="M255.17,136.4c4.1-.27,8.17-.29,12.27-.33s8.17,0,12.24.33c-4.07.28-8.17.29-12.24.33S259.27,136.7,255.17,136.4Z"/><path class="e" d="M255.17,149.52c4.1-.28,8.17-.29,12.27-.33s8.17,0,12.24.33c-4.07.28-8.17.29-12.24.33S259.27,149.8,255.17,149.52Z"/><path class="e" d="M255.17,162.62c4.1-.28,8.17-.29,12.27-.33s8.17,0,12.24.33c-4.07.27-8.17.29-12.24.33S259.27,162.88,255.17,162.62Z"/><path class="e" d="M255.17,175.7c4.1-.27,8.17-.29,12.27-.33s8.17,0,12.24.33c-4.07.28-8.17.29-12.24.33S259.27,176,255.17,175.7Z"/><path class="e" d="M255.17,188.8c4.1-.28,8.17-.3,12.27-.34s8.17,0,12.24.34c-4.07.27-8.17.29-12.24.33S259.27,189.07,255.17,188.8Z"/><path class="e" d="M255.17,201.89c4.1-.28,8.17-.29,12.27-.33s8.17,0,12.24.33c-4.07.28-8.17.29-12.24.33S259.27,202.16,255.17,201.89Z"/><path class="e" d="M255.17,215c4.1-.26,8.17-.29,12.27-.33s8.17,0,12.24.33c-4.07.28-8.17.29-12.24.33S259.27,215.25,255.17,215Z"/><path class="e" d="M121.36,106.79c4.7-.21,9.38-.3,14.08-.38s9.41,0,14.11-.11,9.39,0,14.09.11,9.38.17,14.08.38c-4.7.21-9.38.3-14.08.38s-9.41,0-14.09.11-9.4,0-14.11-.11S126.06,107,121.36,106.79Z"/><path class="e" d="M121.36,112.37c2.94-.2,5.89-.31,8.83-.39s5.89,0,8.84-.1,5.9,0,8.84.1,5.89.19,8.84.39c-3,.21-5.89.3-8.84.38s-5.9.08-8.84.12-5.89,0-8.84-.12S124.3,112.56,121.36,112.37Z"/><path class="e" d="M121.36,117.94c4.1-.2,8.19-.29,12.3-.37s8.19-.08,12.3-.12,8.21,0,12.3.12,8.21.17,12.3.37c-4.09.21-8.2.3-12.3.38s-8.2.08-12.3.12-8.2,0-12.3-.12S125.46,118.15,121.36,117.94Z"/><rect class="e" width="57.69" height="2.81" transform="translate(197.76 305.88)"/><path class="e" d="M188.82,308.69,178,268.14h45.04l9.8,40.55Z"/><path class="d" d="M230.14,305.62H189.9l-9.37-35.61h40.45Z"/><path class="d" d="M181.21,272.57h40.45L221,270H180.53Z"/><path class="c" d="M185.57,271.29a.45.45,0,1,0,.45-.44A.45.45,0,0,0,185.57,271.29Z"/><path class="c" d="M184.05,271.29a.45.45,0,1,0,.445-.383.45.45,0,0,0-.445.383Z"/><path class="c" d="M182.53,271.29a.44.44,0,0,0,.44.44.43.43,0,0,0,.44-.44.44.44,0,0,0-.88,0Z"/><path class="g" d="M211.61,288.17l4.43,5.07a6.26,6.26,0,0,0,2.72-5.09c0-3.55-3.26-6.45-7.18-6.44s-7.14,3-7.12,6.49Z"/><path class="e" d="M211.05,289a9.38,9.38,0,0,1,1.26,1.26c.79.85,1.92,2.09,3.27,3.6l.16.18-.19.14a7.65,7.65,0,0,1-7.47.73,7.26,7.26,0,0,1-3.07-2.47,6.26,6.26,0,0,1-1.14-3.33v-.22h5.31a9.471,9.471,0,0,1,1.88.1,14.188,14.188,0,0,1-2,.15c-1.22.05-2.95.12-5,.17l.21-.23a6,6,0,0,0,1.1,3.07,6.92,6.92,0,0,0,2.88,2.29,7.32,7.32,0,0,0,7-.62v.32c-1.28-1.51-2.34-2.77-3.08-3.67A11.943,11.943,0,0,1,211.05,289Z"/><path class="e" d="M208.15,284.35a.4.4,0,1,0,.4-.4.4.4,0,0,0-.4.4Z"/><path class="e" d="M200.18,281.45a22.9,22.9,0,0,1,4.79-.27h.74l.07.07a18.372,18.372,0,0,1,2.77,3.1,19.3,19.3,0,0,1-3.12-2.75l.18.08H205a23.108,23.108,0,0,1-4.82-.23Z"/><path class="e" d="M191.12,286.52a19.112,19.112,0,0,1-.46-1.87c-.27-1.23-.65-3-1.09-5.23v-.24h.25l10-.09.25.21h0v.47l.09.47.18.94c.11.62.23,1.23.34,1.83l.63,3.42v.27h-.27c-3,0-5.54,0-7.3-.08l-2-.06a2.711,2.711,0,0,1-.69-.05,4.53,4.53,0,0,1,.78-.06l2.07-.07c1.77-.05,4.25-.11,7.17-.14l-.23.27-.66-3.41c-.12-.6-.23-1.21-.35-1.83l-.18-.94-.09-.47v-.45h0c-.23-.18.3.25.24.21h-10l.2-.24c.38,2.13.67,3.9.87,5.15a18.216,18.216,0,0,1,.25,1.99Z"/><path class="e" d="M207.56,292.41a.4.4,0,1,0,.4-.4.39.39,0,0,0-.4.4Z"/><path class="e" d="M200.68,292.44a13.349,13.349,0,0,1,3.64-.27,13.16,13.16,0,0,1,3.64.24,13.35,13.35,0,0,1-3.64.27,13.639,13.639,0,0,1-3.64-.24Z"/><path class="e" d="M191.16,295.6a8.4,8.4,0,0,1-.44-1.34c-.27-.89-.64-2.21-1.09-3.85l-.06-.24h.24c2.73-.05,6.36-.09,10.33-.1l.24.19h0v.26l.09.35.17.68c.12.45.23.89.34,1.33.23.88.44,1.73.64,2.54l.08.3h-.31c-3.06,0-5.67,0-7.49-.07l-2.11-.06a3,3,0,0,1-.72-.06,5.453,5.453,0,0,1,.81-.07l2.15-.07c1.84,0,4.39-.11,7.36-.14l-.23.3c-.21-.81-.43-1.66-.66-2.53-.11-.44-.23-.89-.34-1.34l-.18-.68-.09-.34v-.33h0l.24.19H189.81l.18-.24c.38,1.59.67,2.89.88,3.81A11.83,11.83,0,0,1,191.16,295.6Z"/><path class="e" d="M191.92,281.57a11.61,11.61,0,0,1,3.42-.26,12.39,12.39,0,0,1,3.43.23,11.9,11.9,0,0,1-3.43.27A11.631,11.631,0,0,1,191.92,281.57Z"/><path class="e" d="M192,282.69a12.21,12.21,0,0,1,3.45-.26,11.77,11.77,0,0,1,3.44.24,12.171,12.171,0,0,1-3.44.26,11.819,11.819,0,0,1-3.45-.24Z"/><path class="e" d="M192.21,283.77a11.319,11.319,0,0,1,3.32-.26,11,11,0,0,1,3.33.24,22.24,22.24,0,0,1-6.65,0Z"/><path class="e" d="M192.12,292.35a10.751,10.751,0,0,1,3.26-.27,11,11,0,0,1,3.27.24,10.751,10.751,0,0,1-3.26.27A11,11,0,0,1,192.12,292.35Z"/><path class="e" d="M192.52,293.59a15,15,0,0,1,5.57,0,8,8,0,0,1-2.78.26,7.86,7.86,0,0,1-2.79-.26Z"/><path class="e" d="M129.44,308.56v5.32h3.48V421.55h7.14V313.88h37.93V421.55h7.15V313.88H349.66V421.52h7.15V313.88h3.09v-5.32Z"/><path class="e" d="M284.38,348.68a57,57,0,0,0,9.3,0,54.16,54.16,0,0,0-9.3,0Z"/><ellipse class="j" cx="0.25" cy="0.12" rx="0.25" ry="0.12" transform="translate(216.45 349.53)"/><path class="k" d="M262.24,253.94l-26.7-27.12-.57-2.94c-.11-.53-.23-1.13-.33-1.81a7.37,7.37,0,0,1,0-2.39,10.921,10.921,0,0,1,.83-2.85c.44-.78-.28-1.73-1-1.4s-2,2.45-2.31,5.38-2.78-.95-3.71-2.35-4-5.6-4.68-5.65c-.94-.07-1.18.95-.22,2.33s3.58,5.71,2.84,6.17h0a3.49,3.49,0,0,0-3.69,1.83c-.67,1.29-1.43,3.12-.81,4a47.472,47.472,0,0,0,4.26,4.51l.89.77s23.09,33.46,28.12,34.54c3.13.68,51.52,4.69,51.52,4.69l3.66-13.33Z"/><path class="k" d="M221.68,226.55l2.47,2.37a2.94,2.94,0,0,0,.93.68.89.89,0,0,0,1.23-1.16,3.17,3.17,0,0,0-.57-.88l-2.4-2.89"/><path class="l" d="M223.34,224.67a6,6,0,0,1,1.22,1.2c.4.44.8.9,1.22,1.38a4.31,4.31,0,0,1,.68.92,1.31,1.31,0,0,1-.06,1.37,1.23,1.23,0,0,1-1.36.31,2.71,2.71,0,0,1-1-.68l-1.3-1.32a6.34,6.34,0,0,1-1.1-1.3,5.631,5.631,0,0,1,1.35,1l1.37,1.23a2.25,2.25,0,0,0,.81.55.71.71,0,0,0,.79-.15.83.83,0,0,0,0-.85,5.581,5.581,0,0,0-.59-.84c-.4-.49-.77-1-1.14-1.45A5.57,5.57,0,0,1,223.34,224.67Z"/><path class="k" d="M223.44,224.82l2.47,2.37a2.82,2.82,0,0,0,.92.69.9.9,0,0,0,1.23-1.18,3,3,0,0,0-.57-.88l-2.4-2.88"/><path class="l" d="M225.09,223a10.986,10.986,0,0,1,1.22,1.19l1.22,1.38a4.69,4.69,0,0,1,.69.92,1.33,1.33,0,0,1-.07,1.37,1.19,1.19,0,0,1-1.35.31,2.55,2.55,0,0,1-1-.68l-1.29-1.31a5.51,5.51,0,0,1-1.1-1.31,6.09,6.09,0,0,1,1.34,1.05l1.37,1.24a2.38,2.38,0,0,0,.81.55.73.73,0,0,0,.79-.16.81.81,0,0,0,0-.84,4.73,4.73,0,0,0-.59-.84l-1.13-1.5A6,6,0,0,1,225.09,223Z"/><path class="k" d="M225.36,223.41l2.47,2.37a2.94,2.94,0,0,0,.93.68.883.883,0,0,0,1.22-1.17,2.67,2.67,0,0,0-.57-.88l-2.4-2.89"/><path class="l" d="M227,221.53a7.8,7.8,0,0,1,1.23,1.19l1.22,1.39a4.669,4.669,0,0,1,.68.92,1.31,1.31,0,0,1-.07,1.37,1.22,1.22,0,0,1-1.35.31,2.75,2.75,0,0,1-1-.68l-1.29-1.32c-.73-.76-1.15-1.25-1.1-1.3a5.63,5.63,0,0,1,1.35,1.05l1.36,1.23a2.48,2.48,0,0,0,.81.55.75.75,0,0,0,.8-.15.85.85,0,0,0,0-.85,4.429,4.429,0,0,0-.59-.84L228,223a5.939,5.939,0,0,1-1-1.47Z"/><path class="l" d="M229.26,227.51c0-.08.61-.2,1.51.07l-.29.24a4.08,4.08,0,0,1-.06-1.69,4.43,4.43,0,0,1,.92-2.07c.38-.44.7-.61.74-.57a8.939,8.939,0,0,0-1.16,2.72,4.94,4.94,0,0,0,0,1.53v.39l-.33-.15C229.84,227.65,229.26,227.61,229.26,227.51Z"/><path class="k" d="M297.2,213.28l.11,37.15-14.48.69-.59-8.9s-7,1.06-8.45-4.2c-.93-3.36-.7-29.31-.7-29.31Z"/><path class="e" d="M269.5,212.38c1.07,2.21,6.18,6.28,6.18,6.28l2.31,6.18c2-1.57,4.7-1.48,5.21,2,.37,2.55-2.8,3.06-2.8,3.06,1.84,3.14,3.09,5.68,5.78,8.66,2.9,3.23,4.53,3.55,7.68,3.61h3.47s7.11-5.94,5.71-21.59-15.47-11.08-18.83-15C278.74,199.27,265.91,205,269.5,212.38Z"/><path class="j" d="M302.25,233.71a4.821,4.821,0,0,1-1.72-.08,8.85,8.85,0,0,1-4.15-2.13,22.74,22.74,0,0,1-4.2-5.55c-1.35-2.21-2.83-4.79-5.32-6.51s-5.48-2-8-2.55a15.08,15.08,0,0,1-6.48-2.46,7,7,0,0,1-2.6-3.85,3.939,3.939,0,0,1-.07-1.72,6,6,0,0,0,.15,1.7,7,7,0,0,0,2.6,3.75,15.09,15.09,0,0,0,6.43,2.4c2.54.51,5.53.84,8.1,2.56s4,4.37,5.37,6.59a22.809,22.809,0,0,0,4.13,5.53,9.08,9.08,0,0,0,4.07,2.17,7.53,7.53,0,0,0,1.26.15C302.09,233.7,302.25,233.71,302.25,233.71Z"/><path class="j" d="M303.07,221l-.75-.23a11.422,11.422,0,0,0-2.18-.48,4.85,4.85,0,0,0-3.36.75,2.71,2.71,0,0,0-1.16,1.76,2.43,2.43,0,0,0,.67,2.21,1.85,1.85,0,0,0,1.17.47,2.48,2.48,0,0,0,1.29-.35,4,4,0,0,0,1.76-2.24A5.56,5.56,0,0,0,299,217a5.64,5.64,0,0,0-3.13-1.39,9.77,9.77,0,0,0-3.6.47,24.929,24.929,0,0,1-3.72.9,15.359,15.359,0,0,1-3.95,0,13.059,13.059,0,0,1-3.82-1.06,4.61,4.61,0,0,1-2.6-2.75,3.6,3.6,0,0,1,.88-3.51,3.13,3.13,0,0,1,3.41-.5,2.65,2.65,0,0,1,1.26,1.19A2.85,2.85,0,0,1,284,212a3.78,3.78,0,0,1-1.69,2.65,5.46,5.46,0,0,1-2.86.8,8.57,8.57,0,0,1-2.72-.42,9.76,9.76,0,0,1-4-2.46,10,10,0,0,1-2-2.91,10.313,10.313,0,0,1-.72-2.12c-.09-.51-.12-.78-.12-.78s.06.27.16.77a11.169,11.169,0,0,0,.75,2.1,10.19,10.19,0,0,0,2,2.86,9.59,9.59,0,0,0,4,2.4,8,8,0,0,0,2.66.4,5.3,5.3,0,0,0,2.78-.78,3.63,3.63,0,0,0,1.61-2.54,2.49,2.49,0,0,0-1.43-2.66,2.91,2.91,0,0,0-3.19.47,3.4,3.4,0,0,0-.83,3.32,4.42,4.42,0,0,0,2.5,2.62,12.889,12.889,0,0,0,3.75,1,15,15,0,0,0,3.9,0,25.259,25.259,0,0,0,3.7-.89,10,10,0,0,1,3.67-.47,5.71,5.71,0,0,1,4.81,7.51,4.08,4.08,0,0,1-1.83,2.32,2.59,2.59,0,0,1-1.37.37,2,2,0,0,1-1.26-.51,2.57,2.57,0,0,1-.71-2.35,2.9,2.9,0,0,1,1.23-1.83,5,5,0,0,1,3.43-.73,10.1,10.1,0,0,1,2.18.52Z"/><path class="g" d="M284.66,412.48l-4.73-6.07,11.32-8.94,7,8.81-.67.6c-3,2.64-15.37,13.21-18,14.23C276.75,422.24,284.66,412.48,284.66,412.48Z"/><g class="m"><path class="n" d="M280.93,417.42s-2.61,3.63-1.75,3.86,13.78-10,19.09-15l-.22-.24-15,12S281.61,416.92,280.93,417.42Z"/></g><path class="e" d="M298.22,405.89l-.18.18-.53.47-2,1.72c-1.68,1.43-4,3.39-6.69,5.49s-5.1,3.94-6.88,5.26c-.84.6-1.55,1.12-2.12,1.54l-.59.41-.21.13.19-.16.57-.44,2.09-1.58c1.76-1.34,4.19-3.2,6.84-5.3s5-4,6.72-5.45l2-1.67L298,406Z"/><path class="e" d="M283.22,418.26a6.082,6.082,0,0,0-1.16-.68,5.781,5.781,0,0,0-1.32-.23,2.33,2.33,0,0,1,2.48.91Z"/><path class="e" d="M285.22,413.92c0,.05-.33,0-.7-.15s-.66-.27-.64-.32a1.67,1.67,0,0,1,.7.16C285,413.74,285.24,413.88,285.22,413.92Z"/><path class="e" d="M285.75,412.71c0,.05-.27.08-.6.05s-.61-.07-.6-.12.27-.07.61-.05S285.76,412.67,285.75,412.71Z"/><path class="e" d="M285.49,411.19a3.457,3.457,0,0,1-.53.54,1.87,1.87,0,0,1-.64.41,3.457,3.457,0,0,1,.53-.54C285.17,411.34,285.46,411.15,285.49,411.19Z"/><path class="e" d="M285.09,410.28a1.44,1.44,0,0,1-.5.71,1.53,1.53,0,0,1-.76.45,7.568,7.568,0,0,1,.64-.58C284.81,410.54,285.05,410.25,285.09,410.28Z"/><path class="e" d="M284.06,413.24a2.86,2.86,0,0,1-.73.57,5.532,5.532,0,0,1-.91.44,3,3,0,0,1-.59.17.54.54,0,0,1-.36-.08.4.4,0,0,1-.12-.38,1.71,1.71,0,0,1,2-.92,1.78,1.78,0,0,1,.62.3c.13.1.18.18.17.18a2.52,2.52,0,0,0-.82-.35,1.64,1.64,0,0,0-.94.08,1.47,1.47,0,0,0-.82.75.24.24,0,0,0,.3.25,2.551,2.551,0,0,0,.54-.15,5.609,5.609,0,0,0,.91-.4A6.2,6.2,0,0,1,284.06,413.24Z"/><path class="e" d="M283.9,413.43a1,1,0,0,1-.49-.44,1.65,1.65,0,0,1-.22-.69.92.92,0,0,1,.32-.85.36.36,0,0,1,.48.16,1,1,0,0,1,.14.42,2.8,2.8,0,0,1,0,.71,1.431,1.431,0,0,1-.18.63,4.663,4.663,0,0,1,.06-.64,3.36,3.36,0,0,0,0-.68c0-.23-.17-.56-.38-.45s-.24.46-.24.69a1.51,1.51,0,0,0,.17.64,3.753,3.753,0,0,0,.34.5Z"/><path class="e" d="M295.54,403a5.009,5.009,0,0,0-.81.69,4.53,4.53,0,0,0-1.1,4.71,8,8,0,0,0,.43,1,1.192,1.192,0,0,1-.18-.22,3.538,3.538,0,0,1-.36-.71,4.43,4.43,0,0,1-.19-2.6,4.55,4.55,0,0,1,1.31-2.24,4.189,4.189,0,0,1,.64-.48.879.879,0,0,1,.26-.15Z"/><path class="e" d="M290.65,399.2a26.526,26.526,0,0,1,1.93,2.24,26.243,26.243,0,0,1,1.8,2.36,24.86,24.86,0,0,1-1.94-2.25A24.143,24.143,0,0,1,290.65,399.2Z"/><path class="e" d="M291.79,409.45a7.241,7.241,0,0,1-1.52,1.47,7.91,7.91,0,0,1-1.76,1.18s.75-.58,1.65-1.31S291.76,409.42,291.79,409.45Z"/><path class="e" d="M294,407.7c.05,0,.06.2.12.43s.14.41.1.44-.2-.13-.27-.4A.639.639,0,0,1,294,407.7Z"/><path class="e" d="M294,406c.05,0,.07.18.05.39s-.08.38-.13.37-.07-.18-.05-.39A.868.868,0,0,1,294,406Z"/><path class="e" d="M294.84,404.58a4.087,4.087,0,0,0-.25.35c-.12.19-.17.37-.22.37s-.07-.23.08-.47S294.83,404.53,294.84,404.58Z"/><path class="e" d="M295.52,403.68v.24a.185.185,0,0,1-.19.16c-.04-.02,0-.14,0-.25S295.48,403.65,295.52,403.68Z"/><g class="o"><path class="g" d="M295.29,402.69l-11.46,8.75-1.06-1.38,12.04-8.16Z"/></g><path class="g" d="M232.6,418.58v-7.7l14.43-.05.08,11.26-.89.06c-4,.24-20.25.92-22.92.12C220.35,421.38,232.6,418.58,232.6,418.58Z"/><g class="m"><path class="n" d="M226.62,420.16s-4.29,1.26-3.76,2,17,.64,24.27,0v-.32L227.9,422S227.46,420.19,226.62,420.16Z"/></g><path class="e" d="M247.34,421.76h-.96l-2.62.13c-2.22.09-5.28.17-8.66.19s-6.44,0-8.66-.11l-2.62-.09h-.71a.792.792,0,0,1-.25,0h3.62c2.22,0,5.28.07,8.66.05s6.44-.08,8.65-.14l2.62-.06h.72Z"/><path class="e" d="M227.9,422.24a5.471,5.471,0,0,0-.49-1.25,5.681,5.681,0,0,0-.9-1,2,2,0,0,1,1.05.91A1.9,1.9,0,0,1,227.9,422.24Z"/><path class="e" d="M232.15,420.06a3.322,3.322,0,0,1-.46-.55c-.22-.33-.35-.62-.31-.65s.25.23.46.56S232.19,420,232.15,420.06Z"/><path class="e" d="M233.32,419.44a2.373,2.373,0,0,1-.51-.34c-.25-.22-.43-.43-.4-.47s.26.12.51.34S233.35,419.4,233.32,419.44Z"/><path class="e" d="M234.05,418.07a1.58,1.58,0,0,1-.75.1,1.68,1.68,0,0,1-.76-.07,1.74,1.74,0,0,1,.75-.1,1.86,1.86,0,0,1,.76.07Z"/><path class="e" d="M234.3,417.11a1.41,1.41,0,0,1-.84.25,1.53,1.53,0,0,1-.87-.11,5,5,0,0,1,.86-.06A5.368,5.368,0,0,1,234.3,417.11Z"/><path class="e" d="M231.66,418.81a3.1,3.1,0,0,1-.93,0,5.521,5.521,0,0,1-1-.21,2.371,2.371,0,0,1-.56-.23.46.46,0,0,1-.23-.29.37.37,0,0,1,.13-.37,1.7,1.7,0,0,1,2.11.49,1.64,1.64,0,0,1,.3.62.53.53,0,0,1,0,.25,2.59,2.59,0,0,0-.43-.79,1.58,1.58,0,0,0-.79-.51,1.4,1.4,0,0,0-1.1.08c-.15.11-.09.28.07.38a4.058,4.058,0,0,0,.52.22,6.382,6.382,0,0,0,1,.24C231.3,418.78,231.66,418.78,231.66,418.81Z"/><path class="e" d="M231.42,418.85a1.022,1.022,0,0,1-.11-.64,1.42,1.42,0,0,1,.25-.68.9.9,0,0,1,.77-.47.37.37,0,0,1,.29.42,1.11,1.11,0,0,1-.16.42,2.659,2.659,0,0,1-.44.56,1.6,1.6,0,0,1-.52.38s.18-.17.43-.46a3.222,3.222,0,0,0,.39-.56c.13-.2.21-.55,0-.59s-.47.21-.61.39a1.391,1.391,0,0,0-.26.61,3,3,0,0,0-.03.62Z"/><path class="e" d="M247,417.81s-.42,0-1.07.05a4.63,4.63,0,0,0-2.32,1,4.78,4.78,0,0,0-1.45,2.06c-.21.62-.23,1-.26,1s0-.1,0-.29a4.06,4.06,0,0,1,.16-.77,4.37,4.37,0,0,1,1.45-2.16,4.52,4.52,0,0,1,2.42-1,3.8,3.8,0,0,1,.79,0Z"/><path class="e" d="M245.5,411.82a24.9,24.9,0,0,1,.14,3,28.276,28.276,0,0,1,0,3,25.176,25.176,0,0,1-.14-3,28.006,28.006,0,0,1,0-3Z"/><path class="e" d="M240.08,420.6a8.637,8.637,0,0,1-2.1.22,8.91,8.91,0,0,1-2.11-.16c0-.05.94,0,2.11,0S240.08,420.55,240.08,420.6Z"/><path class="e" d="M242.91,420.58s-.08.2-.17.42-.15.41-.2.4-.07-.22,0-.47S242.88,420.55,242.91,420.58Z"/><path class="e" d="M244,419.25a.939.939,0,0,1-.21.34c-.15.15-.29.25-.33.21s.06-.18.21-.33S243.94,419.22,244,419.25Z"/><path class="e" d="M245.49,418.64c0,.05-.2.05-.41.12s-.37.19-.4.16.08-.23.34-.32S245.51,418.6,245.49,418.64Z"/><path class="e" d="M246.58,418.35a.451.451,0,0,1-.19.17.39.39,0,0,1-.25,0c-.02,0,.07-.12.19-.17S246.56,418.3,246.58,418.35Z"/><g class="o"><path class="g" d="M247.13,417.24l-14.54.01.02-1.74,14.47-.09Z"/></g><path class="k" d="M268.21,285.66l-5.78,17.4c-1.56,4.69-5.66,5.5-10.61,5.5H219.69v-7.21L249,297.16l7-17.87Z"/><path class="k" d="M216.15,299.85l-2.55-1.21s-2.74-5.31-3.38-5.09-.81,1.77.29,4.21l-3.38-1s-7.35,3.4-7,3.85a1.68,1.68,0,0,0,2.52.72c1.6-.81,3.7-1.77,3.7-1.77l4,1.13-5.11.64-4.79,4.37a2.34,2.34,0,0,0,2.93-.07l12.46,2.68,3.91.22v-7.21Z"/><path class="l" d="M203.32,305.66c.05,0,.28-.34.73-.83a3.82,3.82,0,0,1,.91-.7,3.71,3.71,0,0,1,1.35-.35,18,18,0,0,0,3.74-.64,19.272,19.272,0,0,0-3.79.26,3.68,3.68,0,0,0-1.48.42,3.4,3.4,0,0,0-.94.84,2.19,2.19,0,0,0-.52,1Z"/><path class="l" d="M205.27,306.16a.57.57,0,0,1,.44-.33c.35-.07.92-.14,1.51-.2a12.433,12.433,0,0,0,2.19-.22,4.48,4.48,0,0,0-2.23-.17,6.617,6.617,0,0,0-1.57.33.63.63,0,0,0-.38.39C205.2,306.09,205.25,306.16,205.27,306.16Z"/><path class="g" d="M270.93,281.87l-2.47,8.37-15.68-7.1c.56-1.75,3.15-9.56,8.12-21.95a21.3,21.3,0,0,1,16.25-13.1,93.24,93.24,0,0,1,15-1.47c8.8.09,21.74,5.59,23.48,14.21,1.33,6.58.05,18.2.05,32.32l-1.15,27-45.06,1.53Z"/><g class="o"><path class="g" d="M315.65,286.9c-5.48,1.13-11.11,0-16.7-.34-3.39-.2-7.15-.56-9.83,1.52-2.12,1.65-3,4.43-3.59,7.05-2.34,10-2.76,16.68-3.29,26.92l27.13,1.65Z"/></g><path class="e" d="M269.77,252.6a12.106,12.106,0,0,1,1.2.36,6.2,6.2,0,0,1,2.6,2.1,8.72,8.72,0,0,1,1.55,4.69,29.35,29.35,0,0,1-.48,6.18A101.911,101.911,0,0,1,272.13,277c-.37,1.35-.68,2.47-.91,3.32a7.241,7.241,0,0,0-.29,1.23,9.118,9.118,0,0,0,.43-1.19c.26-.77.61-1.89,1-3.29A85,85,0,0,0,275,266a28.5,28.5,0,0,0,.45-6.26,8.88,8.88,0,0,0-1.69-4.84,6.2,6.2,0,0,0-2.76-2.08,5.119,5.119,0,0,0-.93-.21C269.89,252.59,269.77,252.58,269.77,252.6Z"/><path class="e" d="M253.27,281a13.849,13.849,0,0,0,2.21,1.27c1.39.73,3.34,1.69,5.52,2.68s4.2,1.81,5.67,2.37a15.816,15.816,0,0,0,2.41.82,17.73,17.73,0,0,0-2.3-1.08c-1.44-.62-3.43-1.48-5.62-2.47s-4.14-1.9-5.56-2.57a19.094,19.094,0,0,0-2.33-1.02Z"/><path class="e" d="M246.08,323.7a16.06,16.06,0,0,0-6.56,21.51l39.23,67.34,18.09-10.93-30.46-60.8,22.08-14.41"/><path class="e" d="M293.84,320.36,240,322.26a16.07,16.07,0,0,0-15.49,16.3l2.24,76.91,22.64-.05-.75-72.71,45.21-1.19Z"/><path class="j" d="M248.63,345.33a3.421,3.421,0,0,1,.06.72c0,.51.05,1.19.09,2,.07,1.77.14,4.33.2,7.5.14,6.35.23,15.11.28,24.78s.09,18.39.13,24.78v9.51a3.68,3.68,0,0,1,0,.72,4.52,4.52,0,0,1-.06-.71q0-.78-.09-2c-.07-1.78-.13-4.34-.2-7.51-.14-6.34-.23-15.11-.28-24.78s-.09-18.39-.12-24.78v-9.51A3.681,3.681,0,0,1,248.63,345.33Z"/><path class="j" d="M317.16,271.55H300.87A11.88,11.88,0,0,0,289,283.43v56.83H256.45a8.22,8.22,0,0,0-8.22,8.22h74.31a6.8,6.8,0,0,0,6.5-6.78V283.43a11.88,11.88,0,0,0-11.88-11.88Z"/><path class="e" d="M293.74,273.43c.14,0,.25,16.7.25,37.3s-.11,37.3-.25,37.3-.26-16.7-.26-37.3S293.6,273.43,293.74,273.43Z"/><path class="j" d="M291.68,408.14V348.51h-5.3v59.63c-3.23,6.37-10.83,10.68-20.09,14.21H313.5C303.91,418.46,295.26,415.47,291.68,408.14Z"/><path class="e" d="M100.42,400.42a1.7,1.7,0,0,1,.14-.36l.48-1a25.7,25.7,0,0,0,1.39-4.05,35.641,35.641,0,0,0-.12-15.63,82.4,82.4,0,0,0-2.9-10.51c-1.23-3.73-2.65-7.68-3.82-12a46.129,46.129,0,0,1-1.88-13.75c.18-4.86,1.62-9.71,3.2-14.55s3.21-9.57,3.7-14.33A21.81,21.81,0,0,0,98,301c-2.1-3.86-4.74-7.16-6.71-10.59a36.68,36.68,0,0,1-4-10.17A38,38,0,0,1,87,264.51,29.07,29.07,0,0,1,88.64,259a3,3,0,0,1-.1.37l-.33,1.06a39.191,39.191,0,0,0-1,4.17,38.44,38.44,0,0,0,.4,15.65,36.66,36.66,0,0,0,4,10c2,3.38,4.62,6.67,6.75,10.58a22.22,22.22,0,0,1,2.71,13.5c-.49,4.84-2.14,9.61-3.71,14.44s-3,9.63-3.19,14.41A46.11,46.11,0,0,0,96,356.78c1.15,4.26,2.56,8.21,3.77,12a82,82,0,0,1,2.85,10.57,35.27,35.27,0,0,1,0,15.75,24.1,24.1,0,0,1-1.49,4.05l-.52,1C100.49,400.31,100.42,400.42,100.42,400.42Z"/><path class="g" d="M94,293.83S90,281,97.14,273.51a.44.44,0,0,1,.76.22C98.29,275.85,98.77,282.29,94,293.83Z"/><path class="e" d="M96.36,277.78a11.92,11.92,0,0,1-.27,2.37l-.91,5.65c-.34,2.11-.64,4-.9,5.65a13.739,13.739,0,0,1-.42,2.34,9.54,9.54,0,0,1,.07-2.38c.13-1.47.39-3.48.75-5.69s.75-4.2,1.06-5.64a10.5,10.5,0,0,1,.62-2.3Z"/><path class="g" d="M98.67,324.05s2.45-13.2,12.31-16.47a.44.44,0,0,1,.57.55C110.9,310.18,108.31,316.1,98.67,324.05Z"/><path class="e" d="M108.29,311a11.43,11.43,0,0,1-1.34,2l-3.45,4.57-3.44,4.58A12,12,0,0,1,98.59,324a10.071,10.071,0,0,1,1.18-2.07c.8-1.24,2-2.9,3.33-4.68s2.62-3.37,3.57-4.49a11.3,11.3,0,0,1,1.62-1.76Z"/><path class="g" d="M96,357.17s-1.49-13.34,7-19.34a.45.45,0,0,1,.71.36C103.68,340.34,102.92,346.76,96,357.17Z"/><path class="e" d="M101.42,341.87a11.921,11.921,0,0,1-.72,2.27c-.56,1.55-1.23,3.37-2,5.38l-2,5.37a13.1,13.1,0,0,1-.86,2.22,9.18,9.18,0,0,1,.52-2.33c.41-1.41,1-3.34,1.83-5.44s1.53-4,2.11-5.33A11.381,11.381,0,0,1,101.42,341.87Z"/><path class="g" d="M103.43,390.48s-1-13.39,7.69-19.07a.44.44,0,0,1,.69.38C111.71,373.94,110.72,380.33,103.43,390.48Z"/><path class="e" d="M109.39,375.39a11.192,11.192,0,0,1-.79,2.24l-2.17,5.3-2.15,5.3a13.35,13.35,0,0,1-.94,2.19,10,10,0,0,1,.61-2.31c.46-1.39,1.16-3.3,2-5.37s1.67-3.92,2.3-5.25A10.87,10.87,0,0,1,109.39,375.39Z"/><path class="g" d="M88.2,282.57S76.3,276.36,76.07,266a.44.44,0,0,1,.69-.39C78.53,266.81,83.43,271,88.2,282.57Z"/><path class="e" d="M78.54,269.54A11.841,11.841,0,0,1,80,271.4l3.38,4.6c1.25,1.73,2.39,3.29,3.36,4.62a13.477,13.477,0,0,1,1.36,2,10.219,10.219,0,0,1-1.64-1.74c-.94-1.12-2.18-2.73-3.49-4.55s-2.45-3.5-3.24-4.73a10.631,10.631,0,0,1-1.19-2.06Z"/><path class="g" d="M101,310.09s-12.26-5.48-13.12-15.83a.45.45,0,0,1,.67-.43C90.37,294.94,95.52,298.85,101,310.09Z"/><path class="e" d="M90.54,297.67a11.592,11.592,0,0,1,1.6,1.76c1,1.28,2.27,2.78,3.63,4.43l3.64,4.42a13.078,13.078,0,0,1,1.47,1.86,9.313,9.313,0,0,1-1.74-1.63c-1-1.07-2.35-2.59-3.76-4.33s-2.66-3.34-3.52-4.53A11.22,11.22,0,0,1,90.54,297.67Z"/><path class="g" d="M93.93,340.79s-8.42-10.46-4.47-20.08a.45.45,0,0,1,.79-.07C91.38,322.47,94.18,328.29,93.93,340.79Z"/><path class="e" d="M90.29,325a11.24,11.24,0,0,1,.62,2.3l1.21,5.6c.46,2.09.88,4,1.24,5.59a13.371,13.371,0,0,1,.46,2.33,9.52,9.52,0,0,1-.81-2.24c-.41-1.42-.91-3.38-1.38-5.58s-.84-4.18-1.07-5.63A11.921,11.921,0,0,1,90.29,325Z"/><path class="g" d="M102.26,376.91s-12.16-5.68-12.85-16.05a.45.45,0,0,1,.68-.42C91.91,361.59,97,365.58,102.26,376.91Z"/><path class="e" d="M92,364.31a13,13,0,0,1,1.56,1.8l3.56,4.49,3.56,4.47a12.49,12.49,0,0,1,1.44,1.89,10,10,0,0,1-1.71-1.66c-1-1.08-2.3-2.63-3.69-4.39s-2.6-3.39-3.44-4.59A10,10,0,0,1,92,364.31Z"/><path class="e" d="M126.49,324.12a1.11,1.11,0,0,1,0,.3v.86c0,.81-.08,1.89-.14,3.25-.16,2.87-.38,6.86-.64,11.63h0c-.87,4.86-3.34,10.24-6.67,15.47-2.43,3.85-5,7.35-7.19,10.61a75.526,75.526,0,0,0-5.4,8.92,37.672,37.672,0,0,0-2.52,6.54c-.22.81-.38,1.43-.47,1.86a3.09,3.09,0,0,1-.18.65,3,3,0,0,1,.08-.67c.06-.44.19-1.07.38-1.88a34.7,34.7,0,0,1,2.39-6.66,72.631,72.631,0,0,1,5.33-9c2.19-3.28,4.73-6.79,7.16-10.62,3.3-5.2,5.77-10.5,6.67-15.28h0c.34-4.77.62-8.75.82-11.61.11-1.36.2-2.44.26-3.25a5.838,5.838,0,0,1,.09-.85,1,1,0,0,1,.03-.27Z"/><path class="g" d="M119.25,354.66s5.15-12.4-1.33-20.52a.44.44,0,0,0-.78.15C116.57,336.36,115.51,342.74,119.25,354.66Z"/><path class="e" d="M118.31,338.46a10.389,10.389,0,0,1,.41,2.35c.18,1.45.38,3.47.54,5.71s.24,4.26.24,5.73a10.25,10.25,0,0,1-.14,2.38,11.6,11.6,0,0,1-.21-2.37c-.11-1.64-.24-3.57-.39-5.71s-.28-4.06-.4-5.71a11.57,11.57,0,0,1-.05-2.38Z"/><g class="o"><path class="g" d="M119.25,354.66s5.15-12.4-1.33-20.52a.44.44,0,0,0-.78.15C116.57,336.36,115.51,342.74,119.25,354.66Z"/></g><path class="g" d="M103.29,384.54s4.13-12.78-3-20.35a.45.45,0,0,0-.77.21C99.14,366.52,98.6,373,103.29,384.54Z"/><path class="e" d="M101.05,368.47a11.87,11.87,0,0,1,.59,2.3c.3,1.44.67,3.44,1,5.65s.58,4.23.7,5.7a10,10,0,0,1,.05,2.38,12.8,12.8,0,0,1-.4-2.34c-.25-1.63-.53-3.55-.85-5.66s-.61-4-.86-5.66A11.251,11.251,0,0,1,101.05,368.47Z"/><g class="o"><path class="g" d="M103.29,384.54s4.13-12.78-3-20.35a.45.45,0,0,0-.77.21C99.14,366.52,98.6,373,103.29,384.54Z"/></g><path class="g" d="M125.81,339.51s11-7.7,9.89-18a.44.44,0,0,0-.74-.29C133.36,322.63,129.05,327.44,125.81,339.51Z"/><g class="o"><path class="g" d="M125.81,339.51s11-7.7,9.89-18a.44.44,0,0,0-.74-.29C133.36,322.63,129.05,327.44,125.81,339.51Z"/></g><path class="e" d="M133.71,325.33a10.821,10.821,0,0,1-.92,2.2c-.62,1.33-1.53,3.14-2.6,5.11s-2.09,3.73-2.88,5a10.512,10.512,0,0,1-1.39,1.93,12,12,0,0,1,1.09-2.11c.79-1.45,1.71-3.15,2.74-5l2.73-5a12.5,12.5,0,0,1,1.23-2.13Z"/><path class="g" d="M107.73,371.87S121,369.8,124.55,360a.45.45,0,0,0-.54-.59C122,360.05,116,362.46,107.73,371.87Z"/><g class="o"><path class="g" d="M107.73,371.87S121,369.8,124.55,360a.45.45,0,0,0-.54-.59C122,360.05,116,362.46,107.73,371.87Z"/></g><path class="e" d="M121.06,362.63a10.842,10.842,0,0,1-1.79,1.57c-1.14.91-2.76,2.14-4.58,3.44s-3.52,2.43-4.77,3.19a10.183,10.183,0,0,1-2.11,1.12,13.1,13.1,0,0,1,1.91-1.42l4.68-3.3,4.66-3.32a11.181,11.181,0,0,1,2-1.28Z"/><path class="j" d="M95.07,396.29,91.2,422.33h24.12l-3.13-26.04Z"/><path class="e" d="M113.16,404.36a94.29,94.29,0,0,1-9.73.25,94,94,0,0,1-9.72-.25,93.994,93.994,0,0,1,9.72-.25,94.281,94.281,0,0,1,9.73.25Z"/><path class="e" d="M113.64,406.43q-4.991.374-10,.25-5,.125-10-.25,4.991-.375,10-.25,5-.124,10,.25Z"/></g></svg>