<svg xmlns="http://www.w3.org/2000/svg" width="500" height="270.001" viewBox="0 0 500 270.001"><defs><style>.a{fill:#5a3842;}.b,.g{fill:#875b4b;}.c{fill:#5e6178;}.d{fill:#a499a4;}.d,.k,.m{opacity:0.3;}.e{fill:#ffc393;}.f{fill:#6595bf;}.aa,.g{opacity:0.5;}.h,.k{fill:#f1dec1;}.i{fill:#edd2b2;}.j{fill:#dbb49b;}.l{fill:#344154;}.n{fill:#eba87f;}.o{fill:#4c708f;}.p{fill:#cde2e7;}.q{fill:#e9f2f5;}.r{fill:#9fb6c4;}.s{fill:#64413f;}.t{fill:#ad886d;}.u{fill:#233545;}.v{fill:#fff;}.w{fill:#69463a;}.x{fill:#3a231b;}.y{fill:#d9a171;}.z{fill:#fcd6e8;}.aa{fill:#a66d58;}.ab{fill:none;}</style></defs><g transform="translate(98.674 -63.624)"><g transform="translate(23.326 63.624)"><path class="a" d="M435.863,514.778l.094,3.3H420.67l11.066-3.62Z" transform="translate(-185.83 -248.08)"/><path class="a" d="M367.409,514.778l-.512,3.3H351.61l11.737-3.62Z" transform="translate(-157.603 -248.08)"/><path class="b" d="M365.11,308.76l-12.838,124.7H349.44l9.13-124.7Z" transform="translate(-156.716 -163.463)"/><path class="c" d="M428.746,414.237l-4.12-.318a616.546,616.546,0,0,0-4.762-69.807c-.124-.965-.253-1.931-.383-2.884a325.1,325.1,0,0,0-16.111-64.7l21.78-6.475c3.444,3.962,4.056,24.964,3.873,43.7-.153,16.364-.912,30.992-.912,30.992s4.491,3.361,6.028,13.009C436.363,371.714,428.746,414.237,428.746,414.237Z" transform="translate(-178.714 -147.54)"/><path class="c" d="M392.4,323.8c-2.466,11.867-4.621,20.961-4.621,20.961s3.873,3.361,3.626,13.009c-.353,13.963-15.817,56.51-15.817,56.51l-4.073-.318a627.814,627.814,0,0,0,8.129-69.807q0-.318,0-.636a297.076,297.076,0,0,0-4.05-66.952l22.986-6.475C401.823,274.746,396.655,303.384,392.4,323.8Z" transform="translate(-165.612 -147.556)"/><path class="d" d="M391.43,395.277c-.353,13.963-15.817,56.509-15.817,56.509l-4.073-.318a627.813,627.813,0,0,0,8.129-69.807q0-.318,0-.636c2.678,14.021,8.682-4.35,12.726-19.7-2.466,11.867-4.621,20.962-4.621,20.962S391.677,385.653,391.43,395.277Z" transform="translate(-165.62 -185.089)"/><path class="e" d="M279.023,228.08,254.3,267.431l2.237,1.372s30.609-32.475,31.957-33.847S279.023,228.08,279.023,228.08Z" transform="translate(-117.755 -130.851)"/><path class="e" d="M244.445,294.93a12.556,12.556,0,0,1-4.674,1.372c-4,.406-9.371.1-9.371.689,0,.995,13.745.624,14.863.624s1.419-1.313,1.419-1.313Z" transform="translate(-108.024 -158.263)"/><path class="f" d="M315.795,162c-4.062,6.087-17.465,38.22-17.465,38.22l8.241,7.564,17.371-29.891Z" transform="translate(-135.783 -103.833)"/><g transform="translate(0 15.691)"><g transform="translate(22.406 106.837)"><path class="b" d="M88.24,270.433l.194,13.374,1.925,131h3.167l2.26-133.445.194-11.278Z" transform="translate(-72.435 -270.08)"/><path class="g" d="M88.24,270.433l.194,13.374,7.352-2.449.194-11.278Z" transform="translate(-72.435 -270.08)"/><path class="b" d="M81.215,512.4l19.36,4.491H61.39Z" transform="translate(-61.39 -369.761)"/></g><path class="h" d="M96.68,141.327c-3.1,22.239-8.37,55.744-8.37,55.744l-1.065.171c-4.709.748-23.846,3.532-37.426,1.266a32,32,0,0,1-7.134-1.954c-.253-8.524-5.3-48.633-5.3-48.633s-.283-.477-.783-1.277c-2.16-3.55-8.482-13.35-12.974-17.029,1.725-4.274,5.427-8.612,9.612-12.5a120.432,120.432,0,0,1,19.219-14.045l1.5-12.532,15.546-.253,4.515,12.538s14.045,9.359,21.009,15.234c2.154,1.813,3.632,3.3,3.809,4.068C99.082,123.12,98.117,131.014,96.68,141.327Z" transform="translate(-23.451 -90.28)"/><path class="i" d="M105.747,177c-3.1,22.239-8.37,55.744-8.37,55.744l-1.065.171c-4.709.748-23.846,3.532-37.426,1.266-1.177-.194-2.272-.424-3.338-.695a26.333,26.333,0,0,1-3.8-1.26c-.253-8.523-5.3-48.633-5.3-48.633s-.283-.477-.783-1.277l.589-1.46,1.466-3.785h3.261a43.188,43.188,0,0,0,14.793,5.262c7.776,1,16.8-4.762,22.563-4.509s13.786,5.769,17.071-.253A3.852,3.852,0,0,1,105.747,177Z" transform="translate(-32.517 -125.953)"/><path class="j" d="M55.547,235.942a26.339,26.339,0,0,1-3.8-1.248c-.253-8.523-5.3-48.633-5.3-48.633s-.283-.477-.783-1.277l.589-1.46L49.4,183Z" transform="translate(-32.517 -128.421)"/><path class="h" d="M105.546,238.829c-4.709.748-23.846,3.532-37.426,1.266,2.555-15.358,10.6-45.873,26.206-48.575C110.431,188.724,107.488,224.031,105.546,238.829Z" transform="translate(-41.752 -131.862)"/><path class="j" d="M23.5,154.8c-1.878,7.217,11.508,22.256,17.071,18.836S26.807,142.065,23.5,154.8Z" transform="translate(-23.326 -115.47)"/><path class="k" d="M101.75,118.023c-4.915,4.427-13.492,10.637-23.94,11.726-13.2,1.383-31.121-8.541-37.85-12.638a120.432,120.432,0,0,1,19.219-14.045l1.5-12.532,15.546-.253,4.515,12.538S94.786,112.148,101.75,118.023Z" transform="translate(-30.168 -90.28)"/><path class="h" d="M148.958,144.32s5.51,8.123-2.16,19.225C142.836,159.277,148.958,144.32,148.958,144.32Z" transform="translate(-73.568 -112.51)"/></g><path class="l" d="M394.146,208.116s-1.248,1.054-3.326,2.637c-1.024.783-2.243,1.689-3.614,2.661-2.284,1.625-4.986,3.426-7.858,5.121-1.177.677-2.319,1.342-3.532,1.96-.818.424-1.63.842-2.455,1.23l-5.751-6.54s-.094,1.271-.212,2.943c-.135,1.907-.306,4.362-.424,6.081q-.736.224-1.448.389a16.941,16.941,0,0,1-6.475.43,100.7,100.7,0,0,0-3.632-11.614q-.512-1.425-1.071-2.943c-.559-1.507-1.177-3.067-1.766-4.68q-.512-1.348-1.06-2.737c-1.313-3.355-2.714-6.887-4.173-10.472-.589-1.419-1.148-2.843-1.731-4.274-1.654-4.056-3.344-8.123-4.974-12.067l-2.019-4.856-2.878-6.922c-.43-1.03-.842-2.031-1.242-3.014-1.766-4.215-3.255-7.911-4.374-10.772-.712-1.766-1.266-3.255-1.631-4.321a7.147,7.147,0,0,1-.5-1.842c.088-1.042,1.142-2.943,2.425-4.9.424-.647.877-1.307,1.319-1.943.589-.836,1.177-1.636,1.7-2.355,1.077-1.436,1.884-2.443,1.884-2.443l-1.107-4.9-1.177-5.2,6.563-3.285.5.683,5.81,7.905a19.36,19.36,0,0,1,1.954-.424,24.929,24.929,0,0,1,4.774-.33c.453,0,.918.041,1.389.088a17.071,17.071,0,0,1,3.09.589.43.43,0,0,1,.112.041,13.147,13.147,0,0,1,2.566,1.048,4.079,4.079,0,0,1,1.1,1.054c1.766,2.219,4.415,7.411,7.482,14.127q.918,2,1.866,4.162c.377.848.759,1.719,1.142,2.6,1.177,2.7,2.355,5.533,3.585,8.435q.742,1.766,1.483,3.567c.73,1.766,1.46,3.561,2.184,5.351.465,1.136.924,2.266,1.383,3.4,1.536,3.82,3.037,7.593,4.45,11.184.553,1.407,1.095,2.8,1.619,4.12,1.283,3.273,2.466,6.334,3.5,9.047.536,1.389,1.036,2.684,1.483,3.873C392.992,205.025,394.146,208.116,394.146,208.116Z" transform="translate(-147.709 -86.605)"/><g class="m" transform="translate(180.791 41.675)"><path class="a" d="M360.166,135.088a13.144,13.144,0,0,0-2.566-1.048L328.85,152.358c.365,1.065.918,2.531,1.631,4.321l30.786-20.538a4.079,4.079,0,0,0-1.1-1.054Z" transform="translate(-328.85 -134.04)"/><path class="a" d="M372.944,161.61,339.05,178.792c.4.983.812,1.984,1.242,3.014l34.518-16.035Q373.868,163.605,372.944,161.61Z" transform="translate(-333.046 -145.381)"/><path class="a" d="M382.416,187.42,346.05,199.346l2.019,4.856L383.9,190.987Q383.158,189.186,382.416,187.42Z" transform="translate(-335.925 -155.998)"/><path class="a" d="M390.97,202.57,357.93,222.5c.589,1.43,1.177,2.855,1.731,4.274l32.693-20.8C391.895,204.836,391.435,203.706,390.97,202.57Z" transform="translate(-340.812 -162.23)"/><path class="a" d="M400.964,227.37,368,247.449q.547,1.389,1.06,2.737l33.552-18.672C402.041,230.166,401.5,228.777,400.964,227.37Z" transform="translate(-344.955 -172.432)"/><path class="a" d="M408.03,249.78l-35.26,14.3q.553,1.513,1.071,2.943l35.672-13.362C409.066,252.464,408.565,251.169,408.03,249.78Z" transform="translate(-346.917 -181.651)"/></g><g class="m" transform="translate(182.722 32.897)"><path class="a" d="M332.13,152.3c7.064,17.071,31.133,75.346,35.124,85q.712-.171,1.448-.389c.118-1.719.288-4.173.424-6.081L333.449,150.36C333.007,151,332.554,151.655,332.13,152.3Z" transform="translate(-332.13 -132.2)"/><path class="a" d="M343.654,120.193l-.5-.683-6.563,3.285,1.177,5.2c.824-.536,1.407-1.012,1.407-1.289.353,0,32.558,75.758,40.216,93.8,1.177-.618,2.355-1.283,3.532-1.96-8.635-20.844-40.41-95.948-40.41-96.537A7.205,7.205,0,0,1,343.654,120.193Z" transform="translate(-333.965 -119.51)"/><path class="a" d="M374.37,133.527a17.069,17.069,0,0,0-3.09-.589c-.471-.047-.936-.077-1.389-.088,9.524,23.434,27.825,69.46,34.547,86.077,1.372-.971,2.59-1.878,3.614-2.661Z" transform="translate(-347.663 -124.998)"/></g><path class="f" d="M349.18,164.992s-9.03-13.439-12.232-35.424c1.077-1.436,1.884-2.443,1.884-2.443l-.336-1.5-1.719-7.652-.218-.965,1.1-2.413,4.12-9.118,3.779,8.329,2.614,5.763,1.242,2.743a19.362,19.362,0,0,1,1.954-.424C347.415,133.058,349.18,164.992,349.18,164.992Z" transform="translate(-151.45 -80.842)"/><path class="n" d="M348.374,119.584c-2.6,2.325-6.546,5.845-7.064,6.293-.336.288-1.442.082-2.631-.247l-1.719-7.652.453-1.689.43-1.689,4.12-9.118,3.779,8.329Z" transform="translate(-151.624 -80.842)"/><path class="o" d="M337.921,132.207l3.508,1.842,7.334-7.5,2.39,3.9-2.849,7.382-6.7-2.749-.512,5.327-3.438-3.09Z" transform="translate(-151.9 -89.509)"/><path class="f" d="M381.447,173.663c-13.292-4.709-18.024-35.984-11.314-40.693a15.246,15.246,0,0,1,5.769,1.678c2.019,1.095,6.5,10.236,11.59,21.939C389.765,166.057,390.483,176.859,381.447,173.663Z" transform="translate(-163.796 -91.971)"/><path class="f" d="M368,140.953c-2.867,3.9-11.855,46.226-11.855,46.226s8.594,11.184,8.594,10.654,11-36.431,11.337-45.914S370.4,137.692,368,140.953Z" transform="translate(-159.442 -94.799)"/><path class="e" d="M326.259,211.485,284.33,198.6l.171,3.09s41.411,24.058,43.989,24.058S326.259,211.485,326.259,211.485Z" transform="translate(-129.999 -118.819)"/><path class="o" d="M291.63,224.135l13.4,9.106,1.542-2.749-11-11.172Z" transform="translate(-133.072 -127.312)"/><g transform="translate(122.455 46.741)"><g transform="translate(9.768 15.587)"><path class="p" d="M264.317,179.807s-.412.589-.471.489-4.709-3.285-4.709-3.285l-.412.077-.589.106-1.289.224-.071-.053a3.2,3.2,0,0,1-.312-.224l-.724-.512c-2.237-1.613-7.164-5.3-8.347-6.94a5.385,5.385,0,0,1-.324-.518l9.848,6.375h0l.047.047h.247l1.383-.059h.795Z" transform="translate(-247.07 -169.17)"/><path class="p" d="M279.359,184.554c-1.766-1.536-3.779,1.9-3.779,1.9s2.7,3.3,4.321,2.984S281.125,186.09,279.359,184.554Zm.93,3.579a.818.818,0,0,1-.371.665l-.135.041c-.783.153-2.4-1.26-3.438-2.431a4.709,4.709,0,0,1,1.572-1.519.865.865,0,0,1,1.042.13,3.891,3.891,0,0,1,1.324,3.114Z" transform="translate(-258.798 -175.336)"/></g><path class="p" d="M263.59,180.507l-3.014-5.816.177-.589.035-.118.459-1.589h0L257.58,161.47c.071.071.141.141.206.218,1.554,1.766,4.491,9.083,5.133,10.7.082.206.124.324.124.324l-.589,1.342h0l-.341.771s1.948,5.3,2.06,5.374S263.59,180.507,263.59,180.507Z" transform="translate(-241.626 -150.415)"/><path class="p" d="M260.477,164.958l-1.142-.194-.365-.071h0l-.277-.047-3.667-10.925-3.7-11.031a9.831,9.831,0,0,1,2.178.353,15.375,15.375,0,0,1,5.145,3.061c.724.824,1.672,16.105,1.819,18.53Z" transform="translate(-239.055 -142.69)"/><path class="q" d="M259.327,164.764l-.653-.118L251.31,142.69a9.83,9.83,0,0,1,2.178.353C254.624,147.346,258.909,163.21,259.327,164.764Z" transform="translate(-239.047 -142.69)"/><path class="p" d="M250.116,171.222h0l-.047.653-.088,1.177h-.029a3.331,3.331,0,0,1-.347-.106c-2.525-.818-16.829-5.451-17.436-6.346a15.54,15.54,0,0,1-1.689-5.739,10.007,10.007,0,0,1,.2-2.2l9.565,6.2,9.848,6.363h0Z" transform="translate(-230.477 -149.259)"/><path class="q" d="M250.077,171.89l.047-.665L230.7,158.64a9.937,9.937,0,0,0-.2,2.2C234.378,163.008,248.682,171.1,250.077,171.89Z" transform="translate(-230.485 -149.251)"/><path class="p" d="M268.644,198.133c.695-1.5-1.866-4.9-1.866-4.9s-3.814,1.124-2.749,3.214S267.92,199.634,268.644,198.133Zm-4.12-1.966a.859.859,0,0,1,.124-1.042,4.78,4.78,0,0,1,1.848-1.177c.889,1.283,1.878,3.2,1.536,3.914a.424.424,0,0,1-.071.124.812.812,0,0,1-.73.206A3.9,3.9,0,0,1,264.523,196.167Z" transform="translate(-244.201 -163.48)"/><path class="r" d="M264.847,180.558a.518.518,0,0,1,.082.736.524.524,0,1,1-.818-.653.518.518,0,0,1,.736-.082Z" transform="translate(-244.26 -158.22)"/></g><g transform="translate(156.063)"><path class="s" d="M320.707,70.32s5.5-2.943-6.569-5.345c-15.84-3.185-27.931-.371-26.771,4.58s9.76,5.015,9.76,5.015Z" transform="translate(-287.289 -63.624)"/><path class="e" d="M303.809,84.982a2.471,2.471,0,0,0,.077.406c.471,2.29,2.79,10.56,4.374,15.3.112.341.224.671.33.971.188.542.359,1.012.512,1.4,1.5,3.779,8.83,13.639,9.418,13.433s12.7-7.423,12.95-10.078-2.355-16.735-2.355-16.735l-1.636-14.81a72.46,72.46,0,0,0-9.913-.035c-10.961.742-13.668,4.291-13.668,4.291a43.729,43.729,0,0,0-.088,5.857Z" transform="translate(-294.06 -68.172)"/><path class="n" d="M304,92.038c.471,2.29,2.79,10.56,4.374,15.3.112.341.224.671.33.971,1.636-.082,5.092-.371,5.186-1.377.118-1.283-4.862-16-4.862-16C307.82,90.573,305.5,91.4,304,92.038Z" transform="translate(-294.163 -74.823)"/><path class="s" d="M311.41,100.7c.312.954.589,1.766.842,2.355,1.5,3.779,8.83,13.639,9.418,13.433s12.7-7.423,12.95-10.078-2.355-16.735-2.355-16.735l-.341-3.12-1.3-11.69a72.459,72.459,0,0,0-9.913-.035c3.755,2.637,5.963,7.958,7.217,12.438a49.44,49.44,0,0,1,1.483,7.4s-10.566,5.651-13.015,5.975A29.179,29.179,0,0,1,311.41,100.7Z" transform="translate(-297.212 -68.172)"/><path class="e" d="M322.129,104.295c-2.1,3.1-4.986,4.744-5.886,4.368s-4.485-16.659-4.25-17.7S322.129,104.295,322.129,104.295Z" transform="translate(-297.447 -74.848)"/><path class="t" d="M327.22,74.793c3.756,2.637,5.963,7.958,7.217,12.438,1.077-.141,2.778-.447,3.973-.671l-1.277-11.7a72.461,72.461,0,0,0-9.913-.065Z" transform="translate(-303.715 -68.161)"/><path class="u" d="M324.489,95.325c.795,1.472,1.913,2.419,2.49,2.1s.406-1.766-.389-3.238-1.913-2.419-2.49-2.1S323.688,93.847,324.489,95.325Z" transform="translate(-302.291 -75.307)"/><path class="u" d="M309.355,100.376c.795,1.472,1.854,2.443,2.355,2.166s.283-1.7-.512-3.173-1.854-2.449-2.355-2.172S308.56,98.9,309.355,100.376Z" transform="translate(-296.045 -77.415)"/><path class="s" d="M324.632,86.45a15.146,15.146,0,0,0-8.376,1.289l-.736-2.025s5.786-1.766,7.064-1.242A4.844,4.844,0,0,1,324.632,86.45Z" transform="translate(-298.902 -72.16)"/><path class="s" d="M307.613,87.49,308.1,89.6s-4.515.671-5.1,1.766c-.094-.418-.33-1.313.218-1.766A15.655,15.655,0,0,1,307.613,87.49Z" transform="translate(-293.697 -73.442)"/><path class="v" d="M329.945,115.18c-2.5,4.627-8.005,5.439-8.005,5.439l4.168,3.185S329.486,121.09,329.945,115.18Z" transform="translate(-301.543 -84.832)"/><path class="e" d="M342.8,91.779s1.042,6.663,1.254,7.152,3.867.736,5.162-2.837-.942-7.923-2.678-7.323S342.8,91.779,342.8,91.779Z" transform="translate(-310.124 -73.945)"/></g><path class="o" d="M352.05,214.5c0,.689,4.3,19.249,4.986,19.767s9.277-5.5,9.277-5.5l-12.026-15.3Z" transform="translate(-157.788 -124.905)"/><path class="e" d="M277.4,193.638s-1.619-6.981-2.419-7.1-.689,5.3-.689,5.3-6.552,1.607-6.787,2.184,1.036,1.377,3.338.459c-.589,1.377.689,4.485,1.954,4.709s5.3-1.5,5.516-2.761A4.515,4.515,0,0,0,277.4,193.638Z" transform="translate(-123.2 -113.903)"/><path class="d" d="M440.005,444.777l-4.12-.318a616.552,616.552,0,0,0-4.762-69.807c-.124-.965-.253-1.931-.383-2.884,4.65,10.437,7.929-12.067,9.548-27.478-.153,16.364-.912,30.992-.912,30.992s4.491,3.361,6.028,13.009C447.622,402.253,440.005,444.777,440.005,444.777Z" transform="translate(-189.972 -178.079)"/><g transform="translate(49.453 139.84)"><g transform="translate(6.175 5.457)"><path class="w" d="M152.4,308.76l12.838,124.7h2.831l-9.13-124.7Z" transform="translate(-131.527 -308.76)"/><path class="b" d="M116.94,308.76l12.838,124.7h2.831l-9.13-124.7Z" transform="translate(-116.94 -308.76)"/></g><path class="w" d="M329.65,308.76l-12.838,124.7H313.98l9.13-124.7Z" transform="translate(-191.82 -303.303)"/><path class="x" d="M272.694,299.49l-.6,5.457H109.181l-2.731-5.457Z" transform="translate(-106.45 -299.49)"/><path class="y" d="M280.831,351.149,143.56,352.574V299.49H276.693l1.99,24.905Z" transform="translate(-121.716 -299.49)"/><g transform="translate(37.814 0.551)"><rect class="z" width="0.93" height="3.102" transform="translate(3.494 24.701) rotate(-8.09)"/><rect class="z" width="0.93" height="3.102" transform="translate(2.621 18.562) rotate(-8.09)"/><rect class="z" width="0.93" height="3.102" transform="translate(4.211 30.917) rotate(-8.049)"/><rect class="z" width="0.93" height="3.102" transform="translate(5.075 37.062) rotate(-8.049)"/><rect class="z" width="0.93" height="3.102" transform="translate(0 0.131) rotate(-8.09)"/><rect class="z" width="0.93" height="3.102" transform="translate(0.88 6.274) rotate(-8.09)"/><rect class="z" width="0.93" height="3.102" transform="translate(1.616 12.478) rotate(-8.049)"/><path class="z" d="M182.137,374.585l-.153-1.095-.924.13.283,1.972,1.978-.177-.077-.924Z" transform="translate(-174.955 -330.481)"/><rect class="z" width="3.585" height="0.93" transform="translate(11.851 43.708) rotate(-4.99)"/><rect class="z" width="3.585" height="0.93" transform="translate(19.013 43.07) rotate(-5.01)"/><path class="z" d="M216.24,371.574l-1.16.106.082.924,1.931-.171.188-1.925-.924-.088Z" transform="translate(-188.95 -329.219)"/><rect class="z" width="3.326" height="0.93" transform="translate(29.049 24.666) rotate(-84.33)"/><rect class="z" width="3.326" height="0.93" transform="translate(30.994 4.787) rotate(-84.35)"/><rect class="z" width="3.326" height="0.93" transform="translate(27.734 37.886) rotate(-84.35)"/><rect class="z" width="3.326" height="0.93" transform="translate(29.695 18.033) rotate(-84.35)"/><rect class="z" width="3.326" height="0.93" transform="translate(28.382 31.261) rotate(-84.37)"/><rect class="z" width="3.326" height="0.93" transform="translate(30.342 11.393) rotate(-84.37)"/><rect class="z" width="0.93" height="3.126" transform="translate(15.97 32.418) rotate(-2.8)"/><rect class="z" width="0.93" height="3.126" transform="translate(15.34 19.956) rotate(-2.81)"/><rect class="z" width="0.93" height="3.126" transform="translate(15.64 26.191) rotate(-2.81)"/><rect class="z" width="0.93" height="3.126" transform="translate(15.051 13.701) rotate(-2.8)"/><rect class="z" width="0.93" height="3.126" transform="translate(14.747 7.467) rotate(-2.8)"/><rect class="z" width="0.93" height="3.126" transform="translate(16.269 38.659) rotate(-2.8)"/><rect class="z" width="0.93" height="3.126" transform="translate(14.448 1.226) rotate(-2.8)"/><path class="z" d="M299.3,301.421l-.895-.241a15.181,15.181,0,0,1-1.048,2.808l.836.412A16.326,16.326,0,0,0,299.3,301.421Z" transform="translate(-222.796 -300.736)"/><path class="z" d="M275.314,321.187l-.212-.907c-.954.224-1.966.412-3,.553l.124.918C273.289,321.6,274.331,321.416,275.314,321.187Z" transform="translate(-212.405 -308.593)"/><path class="z" d="M285.352,317.5l-.447-.812a20.343,20.343,0,0,1-2.755,1.242l.318.877a21.19,21.19,0,0,0,2.884-1.307Z" transform="translate(-216.539 -307.116)"/><path class="z" d="M264.824,322.624l-.047-.924c-1.018.053-2.107.065-3.067.047v.93h.877C263.323,322.683,264.082,322.665,264.824,322.624Z" transform="translate(-208.131 -309.177)"/><path class="z" d="M293.177,310.24a14.056,14.056,0,0,1-2.107,2.119l.589.724a15.1,15.1,0,0,0,2.243-2.266Z" transform="translate(-220.209 -304.463)"/><rect class="z" width="0.93" height="3.096" transform="matrix(1, -0.021, 0.021, 1, 48.91, 4.405)"/><path class="z" d="M255.393,321.139l.094-.924-.512-.059-.035-1.766h-.93l.059,2.572.389.053A5.277,5.277,0,0,0,255.393,321.139Z" transform="translate(-204.964 -307.816)"/><path class="z" d="M254.594,301.827l-.924.018-.029-1.124h.93Z" transform="translate(-204.812 -300.547)"/><path class="z" d="M254.61,335.12v2.072h.93v-1.036l1.065.071.077-.93c-.965-.077-1.525-.141-1.525-.141Z" transform="translate(-205.211 -314.698)"/><rect class="z" width="0.93" height="2.202" transform="translate(49.399 24.696)"/><path class="z" d="M255.54,350.9v-1.03h-.93v2.078l.524-.071s.589-.077,1.5-.112l-.035-.924C256.158,350.853,255.8,350.882,255.54,350.9Z" transform="translate(-205.211 -320.765)"/><path class="z" d="M280.67,358.1a18.249,18.249,0,0,1,2.219,1.648l.589-.695a17.951,17.951,0,0,0-2.355-1.736Z" transform="translate(-215.931 -323.83)"/><path class="z" d="M262.78,352.53a26.493,26.493,0,0,1,2.767.336l.165-.918a28.667,28.667,0,0,0-2.867-.347Z" transform="translate(-208.571 -321.477)"/><path class="z" d="M272.09,354.2a21.779,21.779,0,0,1,2.608.959l.377-.854a22.237,22.237,0,0,0-2.72-.995Z" transform="translate(-212.401 -322.18)"/><path class="z" d="M289.25,364.864c-.259-.359-.536-.712-.812-1.054l-.718.589c.318.383.63.789.918,1.177l.147.212h.253c.43,0,.954-.047,1.554-.094l-.065-.924C290.051,364.822,289.651,364.846,289.25,364.864Z" transform="translate(-218.831 -326.499)"/><rect class="z" width="3.214" height="0.93" transform="matrix(0.994, -0.11, 0.11, 0.994, 94.078, 36.038)"/><rect class="z" width="3.214" height="0.93" transform="matrix(0.994, -0.112, 0.112, 0.994, 100.453, 35.341)"/><path class="z" d="M308.78,363.77l.094.924,3.2-.33-.1-.924Z" transform="translate(-227.494 -326.347)"/><path class="z" d="M297.91,364.79l.082.924,3.208-.3-.088-.924Z" transform="translate(-223.022 -326.779)"/><path class="z" d="M319.64,362.611l.094.924,3.2-.341-.1-.924Z" transform="translate(-231.961 -325.866)"/><path class="z" d="M353.29,358.212l-1.13.13.106.924,1.943-.224.018-1.96-.93-.012Z" transform="translate(-245.339 -323.727)"/><rect class="z" width="3.055" height="0.93" transform="translate(108.197 5.863) rotate(-89.49)"/><rect class="z" width="3.055" height="0.93" transform="translate(108.129 11.956) rotate(-89.51)"/><rect class="z" width="3.055" height="0.93" transform="translate(107.986 30.29) rotate(-89.51)"/><rect class="z" width="3.055" height="0.93" transform="matrix(0.008, -1, 1, 0.008, 108.093, 18.081)"/><rect class="z" width="3.055" height="0.93" transform="translate(108.343 24.455) rotate(-89.427)"/><path class="z" d="M263.47,336.72c1.089.041,2.184.071,3.243.071v-.93c-1.054,0-2.131,0-3.208-.071Z" transform="translate(-208.855 -314.973)"/><path class="z" d="M311.382,312.217l-.918-.147a19.809,19.809,0,0,1-.724,3.067l.883.288a21.127,21.127,0,0,0,.759-3.208Z" transform="translate(-227.889 -305.216)"/><path class="z" d="M312.351,304.477V303.4a21.227,21.227,0,0,0-.077-2.19l-.924.059c.047.724.071,1.442.071,2.131v1.048Z" transform="translate(-228.551 -300.748)"/><path class="z" d="M306.369,322.17a13.357,13.357,0,0,1-1.819,2.519l.683.63a14.044,14.044,0,0,0,1.943-2.7Z" transform="translate(-225.754 -309.37)"/><path class="z" d="M274.44,335.666l.035.93c1.113-.047,2.207-.118,3.249-.212l-.088-.924C276.612,335.554,275.535,335.625,274.44,335.666Z" transform="translate(-213.368 -314.837)"/><path class="z" d="M288.4,333.74c-.971.235-2.025.447-3.126.624l.147.912c1.124-.177,2.207-.389,3.2-.636Z" transform="translate(-217.823 -314.13)"/><path class="z" d="M298.54,329.8a16.538,16.538,0,0,1-2.82,1.377l.336.865A17.254,17.254,0,0,0,299,330.589Z" transform="translate(-222.122 -312.509)"/></g><path class="aa" d="M280.831,359.586,143.56,361.011V320c13.639,29.538,91.039,34.141,135.122,12.809Z" transform="translate(-121.716 -307.927)"/><path class="aa" d="M162.51,316.86c22.233,19.237,76.205,24.482,107.933,1.766C238.733,331.6,194.491,332.836,162.51,316.86Z" transform="translate(-129.511 -306.635)"/></g></g><rect class="ab" width="500" height="270" transform="translate(-98.674 63.624)"/></g></svg>