<svg xmlns="http://www.w3.org/2000/svg" xmlns:xlink="http://www.w3.org/1999/xlink" width="385.889" height="265.799" viewBox="0 0 385.889 265.799"><defs><style>.a,.ad{fill:none;}.b{fill:#f4f4f4;}.c{fill:#6595bf;}.d{fill:#aed3f2;}.e{clip-path:url(#a);}.f{fill:#af7e44;}.g{fill:#d9a171;}.h{fill:#a37955;}.i{fill:#1d2c2c;}.j{fill:#d42415;}.k{fill:#344154;}.l{fill:#303030;}.m{fill:#ffbd95;}.n{fill:#ffa47c;}.o{fill:#4c708f;}.p{fill:#793b26;}.q{fill:#8d3b26;}.r{fill:#e0f2ff;}.s{fill:#b8d1ff;}.t{fill:#eaf6ff;}.u{fill:#4a7da7;}.v{fill:#bed0df;}.w{fill:#8f8f8e;}.x{fill:#5e6178;}.y{fill:#999;}.z{fill:#737373;}.aa{fill:#cecbc6;}.ab{fill:#ffecb8;}.ac{fill:#ff9a6c;}.ad{stroke:#6595bf;stroke-width:2px;}</style><clipPath id="a"><circle class="a" cx="106.67" cy="106.67" r="106.67"/></clipPath></defs><g transform="translate(-1270.063 -5652)"><path class="b" d="M123.856,0A123.856,123.856,0,1,1,0,123.856,123.856,123.856,0,0,1,123.856,0Z" transform="translate(1270.063 5661.077)"/><path class="c" d="M400.071,1364.021h-.031q-1.887-.083-3.756-.224a.7.7,0,0,1-.644-.748.707.707,0,0,1,.749-.644q1.85.141,3.711.222a.7.7,0,0,1-.029,1.4Zm16.8-.486a.7.7,0,0,1-.07-1.392q1.854-.187,3.69-.436a.7.7,0,1,1,.187,1.383q-1.858.25-3.736.442A.56.56,0,0,1,416.872,1363.535Zm-37.157-2.232a.694.694,0,0,1-.156-.018q-1.839-.417-3.655-.891a.7.7,0,0,1,.353-1.35q1.794.468,3.611.88a.7.7,0,0,1-.153,1.379Zm57.318-1.673a.7.7,0,0,1-.194-1.369q1.791-.516,3.553-1.09a.7.7,0,1,1,.431,1.326q-1.785.582-3.6,1.105A.7.7,0,0,1,437.033,1359.63Zm-76.87-4.657a.7.7,0,0,1-.274-.056q-1.736-.741-3.443-1.538a.7.7,0,1,1,.589-1.265q1.688.786,3.4,1.52a.7.7,0,0,1-.275,1.339Zm96.005-2.809a.7.7,0,0,1-.312-1.322q1.661-.83,3.291-1.708a.7.7,0,0,1,.664,1.228q-1.65.891-3.332,1.729A.691.691,0,0,1,456.168,1352.164Zm-114.105-6.93a.7.7,0,0,1-.384-.115q-1.572-1.039-3.109-2.127a.7.7,0,1,1,.807-1.139q1.518,1.075,3.071,2.1a.7.7,0,0,1-.385,1.28Zm131.581-3.83a.7.7,0,0,1-.419-1.257q1.491-1.111,2.94-2.271a.7.7,0,0,1,.871,1.091q-1.467,1.172-2.974,2.3A.7.7,0,0,1,473.644,1341.4ZM326,1332.429a.694.694,0,0,1-.482-.192q-1.36-1.3-2.679-2.643a.7.7,0,0,1,1-.978q1.3,1.328,2.647,2.61a.7.7,0,0,1-.482,1.2Zm162.937-4.732a.687.687,0,0,1-.476-.188.7.7,0,0,1-.034-.986q1.268-1.359,2.492-2.758a.7.7,0,0,1,1.051.918q-1.239,1.418-2.523,2.793A.7.7,0,0,1,488.935,1327.7Zm-176.468-10.716a.7.7,0,0,1-.565-.287q-1.105-1.516-2.164-3.072a.7.7,0,1,1,1.154-.785q1.044,1.536,2.137,3.034a.7.7,0,0,1-.562,1.11Zm189.088-5.492a.689.689,0,0,1-.377-.111.7.7,0,0,1-.209-.965q1.007-1.564,1.963-3.162a.7.7,0,0,1,1.2.718q-.968,1.616-1.987,3.2A.7.7,0,0,1,501.555,1311.489ZM301.9,1299.38a.7.7,0,0,1-.628-.394q-.818-1.687-1.58-3.4a.7.7,0,0,1,1.276-.567q.753,1.7,1.559,3.363a.7.7,0,0,1-.627,1Zm209.181-6.1a.718.718,0,0,1-.267-.052.7.7,0,0,1-.379-.913q.713-1.719,1.368-3.467a.7.7,0,0,1,1.307.491q-.664,1.77-1.384,3.511A.7.7,0,0,1,511.085,1293.28Zm-216.421-13.109a.7.7,0,0,1-.673-.512q-.5-1.809-.944-3.641a.7.7,0,0,1,1.356-.329q.438,1.811.933,3.6a.7.7,0,0,1-.486.859A.718.718,0,0,1,294.664,1280.171Zm222.528-6.524a.733.733,0,0,1-.147-.015.7.7,0,0,1-.536-.829q.389-1.813.719-3.646a.7.7,0,1,1,1.374.247q-.336,1.857-.728,3.692A.7.7,0,0,1,517.192,1273.647Zm-226.2-13.681a.7.7,0,0,1-.7-.635q-.168-1.867-.278-3.752a.7.7,0,0,1,.656-.737.676.676,0,0,1,.738.656q.108,1.861.275,3.707a.7.7,0,0,1-.633.758Zm228.687-6.7h-.023a.7.7,0,0,1-.675-.721q.06-1.851.06-3.716v-.375a.7.7,0,0,1,1.4,0v.369q0,1.9-.06,3.768A.7.7,0,0,1,519.675,1253.262Zm-228.716-13.834-.062,0a.7.7,0,0,1-.635-.757q.165-1.879.388-3.742a.7.7,0,0,1,1.387.167q-.22,1.839-.384,3.7A.7.7,0,0,1,290.959,1239.428Zm227.5-7.043a.7.7,0,0,1-.69-.595q-.274-1.842-.61-3.665a.7.7,0,1,1,1.372-.252q.339,1.845.619,3.71a.7.7,0,0,1-.587.794A.739.739,0,0,1,518.462,1232.385Zm-223.891-13.174a.741.741,0,0,1-.185-.024.7.7,0,0,1-.488-.858q.5-1.818,1.052-3.612a.7.7,0,1,1,1.334.412q-.547,1.773-1.04,3.569A.7.7,0,0,1,294.571,1219.211Zm219.028-6.779a.7.7,0,0,1-.661-.471q-.6-1.761-1.259-3.5a.7.7,0,1,1,1.305-.495q.664,1.758,1.276,3.54a.7.7,0,0,1-.435.887A.712.712,0,0,1,513.6,1212.432Zm-211.84-12.47a.681.681,0,0,1-.3-.069.7.7,0,0,1-.326-.931q.816-1.7,1.688-3.371a.7.7,0,1,1,1.237.646q-.859,1.65-1.667,3.33A.7.7,0,0,1,301.759,1199.962Zm203.479-6.275a.7.7,0,0,1-.61-.357q-.906-1.621-1.863-3.209a.7.7,0,1,1,1.2-.72q.967,1.607,1.885,3.247a.7.7,0,0,1-.268.95A.691.691,0,0,1,505.238,1193.687Zm-192.952-11.376a.7.7,0,0,1-.564-1.108q1.106-1.525,2.26-3.011a.7.7,0,1,1,1.1.856q-1.141,1.467-2.233,2.975A.7.7,0,0,1,312.286,1182.311Zm181.373-5.573a.7.7,0,0,1-.538-.255q-1.182-1.437-2.408-2.83a.7.7,0,1,1,1.049-.921q1.24,1.41,2.436,2.864a.7.7,0,0,1-.539,1.142Zm-167.877-9.916a.7.7,0,0,1-.484-1.2q1.356-1.3,2.756-2.56a.7.7,0,1,1,.934,1.038q-1.383,1.243-2.723,2.529A.7.7,0,0,1,325.782,1166.822Zm153.465-4.716a.692.692,0,0,1-.452-.166q-1.418-1.2-2.874-2.36a.7.7,0,1,1,.869-1.093q1.473,1.171,2.909,2.389a.7.7,0,0,1-.452,1.23Zm-137.44-8.124a.7.7,0,0,1-.388-1.28q1.564-1.037,3.163-2.026a.7.7,0,0,1,.734,1.187q-1.58.977-3.124,2A.687.687,0,0,1,341.807,1153.982Zm120.65-3.718a.7.7,0,0,1-.349-.093q-1.609-.933-3.252-1.814a.7.7,0,0,1,.66-1.23q1.662.891,3.292,1.835a.7.7,0,0,1-.351,1.3Zm-102.607-6.058a.7.7,0,0,1-.277-1.338q1.721-.742,3.469-1.428a.7.7,0,0,1,.511,1.3q-1.728.678-3.427,1.409A.694.694,0,0,1,359.85,1144.206Zm83.967-2.6a.706.706,0,0,1-.237-.041q-1.752-.63-3.529-1.2a.7.7,0,1,1,.427-1.329q1.8.579,3.575,1.216a.7.7,0,0,1-.236,1.355Zm-64.459-3.787a.7.7,0,0,1-.156-1.378q1.83-.419,3.68-.783a.7.7,0,0,1,.269,1.371q-1.828.358-3.636.773A.714.714,0,0,1,379.358,1137.824Zm44.567-1.375a.619.619,0,0,1-.114-.009q-1.828-.3-3.676-.545a.7.7,0,1,1,.182-1.383q1.869.246,3.721.551a.7.7,0,0,1-.113,1.386Zm-24.22-1.407a.7.7,0,0,1-.032-1.4q1.873-.088,3.762-.116a.665.665,0,0,1,.708.688.7.7,0,0,1-.688.708q-1.866.027-3.716.114Z" transform="translate(988.792 4536.108)"/><g transform="translate(0 3)"><circle class="d" cx="17.684" cy="17.684" r="17.684" transform="translate(1617.792 5799.16) rotate(-90)"/><path class="b" d="M632.331,1259.324a20.476,20.476,0,1,1,20.476-20.476A20.5,20.5,0,0,1,632.331,1259.324Zm0-35.369a14.893,14.893,0,1,0,14.893,14.893A14.91,14.91,0,0,0,632.331,1223.955Z" transform="translate(1003.145 4542.628)"/></g><g transform="translate(0 3.423)"><g transform="translate(0 -112.423)"><circle class="d" cx="17.684" cy="17.684" r="17.684" transform="translate(1617.792 5799.16) rotate(-90)"/><path class="b" d="M632.331,1259.324a20.476,20.476,0,1,1,20.476-20.476A20.5,20.5,0,0,1,632.331,1259.324Zm0-35.369a14.893,14.893,0,1,0,14.893,14.893A14.91,14.91,0,0,0,632.331,1223.955Z" transform="translate(1003.145 4542.628)"/></g><circle class="d" cx="17.684" cy="17.684" r="17.684" transform="translate(1617.792 5911.583) rotate(-90)"/><path class="b" d="M632.331,1259.324a20.476,20.476,0,1,1,20.476-20.476A20.5,20.5,0,0,1,632.331,1259.324Zm0-35.369a14.893,14.893,0,1,0,14.893,14.893A14.91,14.91,0,0,0,632.331,1223.955Z" transform="translate(1003.145 4655.051)"/></g><g class="e" transform="translate(1288 5676.524)"><g transform="translate(-8.043 15.019)"><g transform="translate(180.952 70.308)"><g transform="translate(3.252)"><path class="f" d="M380.154,217.31l-7.554-3.86h77.975l-7.684,3.86Z" transform="translate(-372.6 -209.595)"/><rect class="g" width="62.737" height="37.039" transform="translate(7.554 7.715)"/><path class="h" d="M385.06,213.745l-2.25-7.715h66.841l-1.855,7.715Z" transform="translate(-377.505 -206.03)"/><g transform="translate(43.118 11.939)"><rect class="i" width="22.996" height="0.888" transform="translate(22.996 0.888) rotate(180)"/><rect class="i" width="15.109" height="0.888" transform="translate(22.996 3.502) rotate(180)"/><rect class="i" width="8.552" height="0.888" transform="translate(22.996 6.391) rotate(180)"/></g><rect class="j" width="8.277" height="3.611" rx="0.25" transform="translate(57.837 29.807)"/><rect class="i" width="23.401" height="0.904" transform="translate(25.225 40.099)"/><rect class="i" width="8.703" height="0.904" transform="translate(25.225 38.136)"/><g transform="translate(13.524 31.594)"><rect class="i" width="4.494" height="4.494" rx="0.37"/><rect class="i" width="4.494" height="4.494" rx="0.37" transform="translate(5.227)"/><rect class="i" width="4.494" height="4.494" rx="0.37" transform="translate(0 5.201)"/><rect class="i" width="4.494" height="4.494" rx="0.37" transform="translate(5.227 5.201)"/></g></g><g transform="translate(0 44.755)"><rect class="k" width="81.311" height="182.765" transform="translate(3.252)"/><path class="k" d="M453.906,304.04l-56.081,176.6H372.6V304.04Z" transform="translate(-369.348 -297.873)"/><path class="k" d="M436.739,304.04l-56.585,176.6H372.6V304.04Z" transform="translate(-369.348 -297.873)"/><rect class="l" width="87.566" height="6.167"/></g></g><g transform="translate(75.213)"><path class="m" d="M174.3,332.192c-3.226,4.931-3.808,14.22-3.336,26.394.644,16.6,6.266,41.211,6.754,43.6,2.229,10.911,12.828,11.259,15.067,2.915.623-2.3,6.141-48.979,5.959-54.278s0-14.979-3.362-21.11C192.913,325.142,179.1,324.835,174.3,332.192Z" transform="translate(-166.666 -193.572)"/><path class="m" d="M191.649,462.77c5.861,0,12.625,4.453,13.093,20.813.364,12.615-5.066,37.024-6.266,49.919-.359,3.829-.1,9.679-.473,9.747-1.611.281-9.425,2.967-7.913-1.59.239-.727-.12-4.063-.338-6.089-1.507-13.94-6.276-44.064-6.411-48.631C183.186,481.63,182.276,462.8,191.649,462.77Z" transform="translate(-172.635 -259.07)"/><path class="c" d="M272.478,176.962c3.471-2.141,12.625,7.035,19.416,18.631,11.815,20.143,18.605,24.939,12.812,29.3-5.258,3.943-10.433-4.058-22.8-19.852C272.234,192.7,265.292,181.383,272.478,176.962Z" transform="translate(-214.081 -121.606)"/><path class="m" d="M229.835,175.181c-1.512-3.408-11.259-5.2-14.844-6.271-3.663-1.091-14.5-1.46-14.5-1.46s-10.833.369-14.5,1.46c-3.585,1.07-13.332,2.863-14.844,6.271-2.286,5.149,13.129,40.427,13.129,56.242,0,6.344-13.706,25.49-12.121,31.631,1.917,7.508,26.856,12.152,26.856,12.152h2.93s24.939-4.645,26.866-12.152c1.585-6.141-8.858-23.962-8.858-30.306C219.969,216.938,232.121,180.33,229.835,175.181Z" transform="translate(-166.716 -117.186)"/><path class="m" d="M257.027,332.693c3.029,5.055,3.252,14.361,2.307,26.5-1.289,16.558-7.861,40.931-8.443,43.3-2.65,10.8-13.259,10.75-15.192,2.328-.52-2.322-4.229-49.181-3.845-54.47s.6-14.968,4.182-20.969C238.7,324.926,252.512,325.175,257.027,332.693Z" transform="translate(-195.975 -193.575)"/><path class="m" d="M247.288,459.523c-5.492,2.047-7.222,5.128-4.39,22.029,2.151,12.823,9.4,37.73,13.207,51.067,1.211,4.24,1.559,11.17,1.954,11.165,1.637,0,6.536-.125,7.024-3.912.109-.826-.6-7.4-.608-9.685-.047-13.2.81-42.651.031-47.327C263.608,477.37,262,454.037,247.288,459.523Z" transform="translate(-200.649 -257.112)"/><path class="m" d="M222.271,144.148c-1.1-2.858-.987-13.618-.987-13.618h-13.69s.109,10.76-.987,13.618-6.666,7.024-6.666,7.024h28.991S223.351,147,222.271,144.148Z" transform="translate(-180.656 -99.448)"/><path class="n" d="M221.439,137.918l-6.806-7.388h-7.04s.109,10.76-.987,13.618-6.666,7.024-6.666,7.024h0l.109,2.525,24.419-6.474C221.055,142.111,221.465,138.412,221.439,137.918Z" transform="translate(-180.656 -99.448)"/><path class="c" d="M229.581,263.728c-2.021-13.628-7.534-27.989-8.012-33.3s8.012-53.13,8.012-53.13c-2.437-5.263-16.439-7.035-16.439-7.035l-14.5,19.135-14.5-19.135s-14,1.772-16.439,7.035a178.317,178.317,0,0,0,4.51,26.908c1.928,7.409,3.637,9.217,3.351,26.222-.088,5.336-6.552,22.18-7.861,33.3-2.006,17.036,1.372,73.777,1.372,73.777l29.563,1.559,37.736-1.559S231.508,276.686,229.581,263.728Z" transform="translate(-164.866 -118.536)"/><path class="o" d="M196.432,290.608c.655-14.1,27.817-75.762,25.006-74.686-6.489,2.494-13.244.057-19.7.577-8.043.639-15.415,3.46-18.73-1.85-2.624-4.2-.426-25.8-8.832-30.2-1.424-.748-6.276,1.465-6.276,1.465a175.611,175.611,0,0,0,4.344,25.032c1.928,7.409,3.637,9.217,3.351,26.222-.088,5.336-6.552,22.18-7.861,33.3-2.005,17.036,1.372,73.777,1.372,73.777l26.549,1.559S195.273,315.526,196.432,290.608Z" transform="translate(-164.876 -125.278)"/><g transform="translate(81.838 62.032)"><path class="m" d="M320.858,235.9c-2.255-2.977,2.941-11.035,13.077-17.317,11.669-7.243,28.222-17.888,30.088-15.145C366.569,207.188,353,217.3,343.4,227,333.671,236.823,325.514,242.076,320.858,235.9Z" transform="translate(-320.337 -196.298)"/><path class="m" d="M392.316,205.52s2.91.779,3.388.79,4.458-.442,5.632,0,1.741,1.075,2.011,1.07,2.078-1.621.275-2.832-4.157-1.47-4.5-2.078,3.117-3.678,4.073-4,7.492-1.512,7.793-1.6,1.138-.52,1.164-.847-1.268-1.47-1.657-1.559.1-.821-.182-1.091-1.377-1.039-1.377-1.039a6.385,6.385,0,0,0-1.642-1.429,25.171,25.171,0,0,0-3.782-.816c-.338.057-6.235.9-7.435,1.657s-7.243,7.793-7.243,7.793Z" transform="translate(-353.244 -190.1)"/></g><path class="p" d="M215.4,80.06s.634-9.217-6.682-9.352-13.1,7.648-12.8,11.789-4.333,17.5-5.2,17.078-1.33,2.078.52,3.117,8.058,2.728,10.568-3.741a21.1,21.1,0,0,1,7.045-9.472Z" transform="translate(-175.867 -70.707)"/><path class="m" d="M206.429,102.894c-.395,11.233,8.921,20.678,14.652,20.881,5.585.2,13.467-8.723,14.937-20.024,1.444-11.145-5.076-18.673-13.56-18.969S206.824,91.645,206.429,102.894Z" transform="translate(-183.768 -77.465)"/><path class="q" d="M227.765,92.877c-1.787,2.816-5.17,4.079-11.9,3.315-4.821-.52-9.175,5.44-9.627,8.058-.177,1,.026,6.022.026,6.022S198,98.462,209.586,87.7s21.369-1.46,21.271-.468S228.654,91.521,227.765,92.877Z" transform="translate(-182.321 -76.4)"/><path class="q" d="M245.79,93.016s-.9,4.562,2.811,6.235,6.827,5.653,6.827,5.653,2.873-10.682-4.333-14.464S245.79,93.016,245.79,93.016Z" transform="translate(-202.575 -79.61)"/><path class="r" d="M232.224,91.987s-4.266-.883-12.937-6.037a12.012,12.012,0,0,1-3.9-3.476l4.91-8.614,15.119,5.668Z" transform="translate(-188.079 -72.222)"/><path class="s" d="M247.79,95.682s7.17-2.728,7.939-4.78c.556-1.486-.639-9.352-.639-9.352l-4.1,1.689Z" transform="translate(-203.645 -75.916)"/><path class="t" d="M239.959,79.528,224.84,73.86A70.14,70.14,0,0,1,237.1,74.972c4,.67,6.8,2.255,6.962,2.878S239.959,79.528,239.959,79.528Z" transform="translate(-192.619 -72.222)"/><path class="c" d="M233.142,96.451a127.174,127.174,0,0,1-12.272-6.266c-3.71-2.421-4.11-3.5-4.11-3.5l.805-1.418a19.224,19.224,0,0,0,4.042,3.575c2.5,1.652,11.882,6.235,11.882,6.235Z" transform="translate(-188.737 -77.704)"/><path class="c" d="M248.29,100.736s6.707-2.6,7.825-5.045l-.047-1.5s-.494,2.286-7.43,5.2Z" transform="translate(-203.885 -81.989)"/><path class="u" d="M238.766,170.26l5.793,1.138-2.26,6.733-3.533.145,1.818,3.793-20.174,12.3Z" transform="translate(-190.491 -118.536)"/><path class="u" d="M194.408,170.26,188.62,171.4l2.255,6.733,3.533.145-1.813,3.793,17.431,8.7Z" transform="translate(-175.217 -118.536)"/><rect class="v" width="13.623" height="0.764" transform="translate(44.041 73.405)"/><rect class="v" width="13.623" height="0.764" transform="translate(10.483 73.784)"/><path class="c" d="M166.864,181.926c-4.032.592-5.144,13.508-2.894,26.752,3.907,23.027,1.8,31.08,9.03,30.68,6.562-.364,5.383-9.809,4.7-29.864C177.172,193.824,175.213,180.7,166.864,181.926Z" transform="translate(-162.824 -124.103)"/></g><g transform="translate(0 126.571)"><rect class="w" width="15.296" height="127.042" transform="translate(15.14 38.478)"/><rect class="x" width="14.511" height="127.042" transform="translate(230.985 38.478)"/><rect class="x" width="25.349" height="80.241" transform="translate(10.111 38.478)"/><rect class="x" width="25.349" height="80.241" transform="translate(225.561 38.478)"/><path class="y" d="M62.874,396.054l-19.328,4.021-.9,68.545H37.52V388.38H62.874Z" transform="translate(-27.409 -349.902)"/><path class="y" d="M477.554,396.054l-19.328,4.021-.9,68.545H452.2V388.38h25.354Z" transform="translate(-226.639 -349.902)"/><path class="z" d="M62.587,542.82H47.39v35.091h4.079l1.657-26.96,9.461-3.637Z" transform="translate(-32.151 -424.101)"/><path class="y" d="M476.741,542.82H461.98v35.746h3.959L467.55,551.1l9.191-3.7Z" transform="translate(-231.338 -424.101)"/><rect class="l" width="263.556" height="3.33"/><rect class="w" width="263.556" height="33.122" transform="translate(0 3.33)"/><rect class="x" width="263.556" height="5.476" transform="translate(0 3.33)"/><path class="l" d="M62.178,342.352A11.4,11.4,0,1,1,50.784,331.27,11.243,11.243,0,0,1,62.178,342.352Z" transform="translate(-28.308 -322.464)"/><ellipse class="l" cx="11.394" cy="11.087" rx="11.394" ry="11.087" transform="translate(47.139 8.801)"/><ellipse class="l" cx="11.394" cy="11.087" rx="11.394" ry="11.087" transform="translate(83.197 8.801)"/><path class="l" d="M270.373,342.352a11.4,11.4,0,1,1-11.389-11.082A11.242,11.242,0,0,1,270.373,342.352Z" transform="translate(-128.336 -322.464)"/><ellipse class="l" cx="11.394" cy="11.087" rx="11.394" ry="11.087" transform="translate(155.306 8.801)"/><path class="l" d="M409.173,342.352a11.4,11.4,0,1,1-11.394-11.082A11.243,11.243,0,0,1,409.173,342.352Z" transform="translate(-195.021 -322.464)"/><ellipse class="l" cx="11.394" cy="11.087" rx="11.394" ry="11.087" transform="translate(227.421 8.801)"/><rect class="x" width="263.556" height="24.159" transform="translate(0 15.446)"/><path class="k" d="M281.616,331.27H18.06v6.64H195.2Z" transform="translate(-18.06 -322.464)"/></g><g transform="translate(9.986 105.877)"><rect class="aa" width="18.075" height="20.694" transform="translate(0.603)"/><rect class="g" width="18.075" height="16.584" transform="translate(0.603 2.369)"/><rect class="aa" width="19.286" height="0.717" rx="0.1"/><rect class="ab" width="11.103" height="1.408" transform="translate(4.489 4.837)"/><rect class="ab" width="5.663" height="1.408" transform="translate(6.806 7.845)"/><rect class="aa" width="19.286" height="0.717" rx="0.1" transform="translate(0 19.982)"/><path class="aa" d="M56.515,295.135H38.44V275.87H56.515l-12.189.79v17.691Z" transform="translate(-37.837 -275.153)"/><g transform="translate(43.378)"><rect class="aa" width="18.075" height="20.694" transform="translate(0.603)"/><rect class="g" width="18.075" height="16.584" transform="translate(0.603 2.369)"/><rect class="aa" width="19.286" height="0.717" rx="0.1"/><rect class="ab" width="11.103" height="1.408" transform="translate(4.494 4.837)"/><rect class="ab" width="5.663" height="1.408" transform="translate(6.811 7.845)"/><rect class="aa" width="19.286" height="0.717" rx="0.1" transform="translate(0 19.982)"/><path class="aa" d="M140.015,295.135H121.94V275.87h18.075l-12.194.79v17.691Z" transform="translate(-121.332 -275.153)"/></g><g transform="translate(126.362)"><rect class="aa" width="18.075" height="20.694" transform="translate(0.608)"/><rect class="g" width="18.075" height="16.584" transform="translate(0.608 2.369)"/><rect class="aa" width="19.286" height="0.717" rx="0.1" transform="translate(0)"/><rect class="ab" width="11.103" height="1.408" transform="translate(4.494 4.837)"/><rect class="ab" width="5.663" height="1.408" transform="translate(6.811 7.845)"/><rect class="aa" width="19.286" height="0.717" rx="0.1" transform="translate(0 19.982)"/><path class="aa" d="M299.731,295.135H281.65V275.87h18.081l-12.194.79v17.691Z" transform="translate(-281.047 -275.153)"/></g><g transform="translate(210.535)"><rect class="aa" width="18.075" height="20.694" transform="translate(0.603)"/><rect class="g" width="18.075" height="16.584" transform="translate(0.603 2.369)"/><rect class="aa" width="19.286" height="0.717" rx="0.1"/><rect class="ab" width="11.103" height="1.408" transform="translate(4.494 4.837)"/><rect class="ab" width="5.663" height="1.408" transform="translate(6.811 7.845)"/><rect class="aa" width="19.286" height="0.717" rx="0.1" transform="translate(0 19.982)"/><path class="aa" d="M461.745,295.135H443.67V275.87h18.075l-12.194.79v17.691Z" transform="translate(-443.062 -275.153)"/></g></g><g transform="translate(80.363 104.82)"><path class="m" d="M172.743,278.973c-.3,3.72,8.406,7.736,20.325,7.606,13.737-.145,33.418-.036,33.522-3.351.14-4.525-16.74-5.777-30.041-8.832C183.072,271.315,173.392,271.268,172.743,278.973Z" transform="translate(-172.735 -272.455)"/><path class="m" d="M259.386,282.1a20.734,20.734,0,0,1,2.426-2.25c.442-.171,3.637-1.122,5.866-.52a8.994,8.994,0,0,0,4.1-.13c1.138-.369,1.8.333.566,2.141s-5.424.333-5.512,1.013,4.276,2.229,5.279,2.167,7.508-1.424,7.83-1.46,1.242.036,1.4.348-.623,1.834-.951,2.078.4.722.244,1.076-.878,1.5-.878,1.5a6.086,6.086,0,0,1-.982,1.943,25.071,25.071,0,0,1-3.2,2.177c-.327.078-6.131,1.522-7.508,1.268s-9.643-4.531-9.643-4.531Z" transform="translate(-213.902 -275.651)"/></g><g transform="translate(108.67 22.109)"><g transform="translate(11.498 5.759)"><path class="k" d="M252.8,131.841a1.1,1.1,0,0,1-1.288.831,1.039,1.039,0,0,1-.873-1.231,1.1,1.1,0,0,1,1.289-.831,1.039,1.039,0,0,1,.873,1.231Z" transform="translate(-249.959 -127.344)"/><path class="k" d="M253.562,126.057c-.166.109-.837-.686-1.985-.961s-2.135.1-2.224-.073c-.047-.078.151-.3.582-.473a2.977,2.977,0,0,1,1.818-.114,2.894,2.894,0,0,1,1.559.935C253.583,125.724,253.64,126.01,253.562,126.057Z" transform="translate(-249.347 -124.344)"/></g><g transform="translate(0.54 3.278)"><path class="k" d="M232.9,127.315a1.091,1.091,0,0,1-1.288.831,1.039,1.039,0,0,1-.868-1.226,1.1,1.1,0,0,1,1.288-.831,1.039,1.039,0,0,1,.868,1.226Z" transform="translate(-229.442 -122.69)"/><path class="k" d="M232.472,121.278c-.166.109-.836-.686-1.985-.956s-2.135.1-2.224-.073c-.047-.078.145-.3.582-.478a3.034,3.034,0,0,1,1.824-.114,2.9,2.9,0,0,1,1.533.94C232.493,120.951,232.55,121.232,232.472,121.278Z" transform="translate(-228.257 -119.568)"/></g><path class="k" d="M239.68,132.2a7.694,7.694,0,0,1,1.948.109c.3.042.592.052.691-.14a1.558,1.558,0,0,0,0-.914c-.109-.779-.218-1.6-.333-2.447a39.508,39.508,0,0,1-.546-6.323,38.657,38.657,0,0,1,1.039,6.266q.156,1.278.3,2.447a1.756,1.756,0,0,1-.125,1.19.769.769,0,0,1-.587.317,2.192,2.192,0,0,1-.52-.052A7.59,7.59,0,0,1,239.68,132.2Z" transform="translate(-233.205 -117.69)"/><path class="ac" d="M234.1,145.146a2.135,2.135,0,0,0-1.673-1.216,1.943,1.943,0,0,0-1.476.384,1.221,1.221,0,0,0-.421,1.351,1.424,1.424,0,0,0,1.413.743,4.385,4.385,0,0,0,1.683-.52,1.252,1.252,0,0,0,.41-.26.385.385,0,0,0,.1-.426" transform="translate(-228.782 -127.985)"/><path class="k" d="M232.426,141.138c.192.036-.109,1.283.748,2.426s2.219,1.33,2.187,1.507c0,.083-.353.171-.92.052a3.227,3.227,0,0,1-1.844-1.185,2.785,2.785,0,0,1-.546-2.016C232.129,141.388,232.342,141.112,232.426,141.138Z" transform="translate(-229.53 -126.653)"/><path class="k" d="M232.6,114.793c-.192.286-1.3-.135-2.691-.3s-2.572-.052-2.681-.379c-.052-.151.213-.4.722-.6a4.526,4.526,0,0,1,2.109-.213,4.473,4.473,0,0,1,1.985.733C232.487,114.351,232.679,114.683,232.6,114.793Z" transform="translate(-227.218 -113.26)"/><path class="k" d="M255.559,116.153c-.265.213-.992-.249-1.943-.52s-1.8-.244-1.922-.561c-.047-.156.14-.384.551-.551a2.91,2.91,0,0,1,3.117.852C255.632,115.737,255.679,116.049,255.559,116.153Z" transform="translate(-238.973 -113.794)"/></g></g></g><g transform="translate(989.792 4544.198)"><circle class="c" cx="3.499" cy="3.499" r="3.499" transform="translate(528.984 1236.802)"/></g><g transform="translate(1002.381 4544.198)"><path class="c" d="M607.117,1243.8a3.5,3.5,0,1,0-3.5-3.5A3.5,3.5,0,0,0,607.117,1243.8Z"/></g><g transform="translate(1.59 3.446)"><g transform="translate(1052.806 4525.993)"><path class="c" d="M553.2,1140.125a3.5,3.5,0,1,1-1.029,4.84A3.5,3.5,0,0,1,553.2,1140.125Z"/></g><g transform="translate(1053.18 4549.933)"><path class="c" d="M556.5,1340.949a3.5,3.5,0,1,1-4.789,1.245A3.5,3.5,0,0,1,556.5,1340.949Z"/></g></g><g transform="translate(3 3.062)"><g transform="translate(989.005 4536.108)"><path class="c" d="M506.588,1170.4a3.5,3.5,0,1,0,4.84,1.029A3.5,3.5,0,0,0,506.588,1170.4Z"/></g><g transform="translate(985.864 4536.108)"><path class="c" d="M513.407,1315.638a3.5,3.5,0,1,0,1.245,4.789A3.5,3.5,0,0,0,513.407,1315.638Z"/></g></g><line class="ad" x2="109" y2="40" transform="translate(1500.5 5857.5)"/><line class="ad" y1="40" x2="109" transform="translate(1500.5 5672.5)"/><line class="ad" x2="86" transform="translate(1521.5 5784.5)"/></g></svg>