<svg xmlns="http://www.w3.org/2000/svg" width="102.514" height="102.514" viewBox="0 0 102.514 102.514"><defs><style>.a{fill:#d9a171;}.b{fill:#fff;}</style></defs><g transform="translate(-1589.211 -5584.365)"><path class="a" d="M48.465,0A48.465,48.465,0,1,1,0,48.465,48.465,48.465,0,0,1,48.465,0Z" transform="translate(1592.002 5684.088) rotate(-90)"/><path class="b" d="M654.675,1140.4a51.257,51.257,0,1,1,51.258-51.257A51.315,51.315,0,0,1,654.675,1140.4Zm0-96.93a45.674,45.674,0,1,0,45.675,45.673A45.725,45.725,0,0,0,654.675,1043.466Z" transform="translate(985.792 4546.483)"/><path class="b" d="M36.234,58H28.472V28.083l-9.265,2.874V24.646l16.194-5.8h.833Z" transform="translate(1610 5598.791)"/></g></svg>