<svg xmlns="http://www.w3.org/2000/svg" width="102.515" height="102.513" viewBox="0 0 102.515 102.513"><defs><style>.a{fill:#d9a171;}.b{fill:#fff;}</style></defs><g transform="translate(-1588.999 -5738.366)"><circle class="a" cx="48.465" cy="48.465" r="48.465" transform="translate(1591.792 5741.156)"/><path class="b" d="M721.631,1287.576a51.257,51.257,0,1,1,51.257-51.257A51.316,51.316,0,0,1,721.631,1287.576Zm0-96.93a45.674,45.674,0,1,0,45.673,45.673A45.726,45.726,0,0,0,721.631,1190.646Z" transform="translate(918.626 4553.303)"/><path class="b" d="M44.183,58h-26.8V52.683L30.03,39.2a31.2,31.2,0,0,0,3.854-4.968A7.982,7.982,0,0,0,35.133,30.2a5.973,5.973,0,0,0-1.316-4.1,4.75,4.75,0,0,0-3.76-1.49,5.123,5.123,0,0,0-4.149,1.813A7.181,7.181,0,0,0,24.39,31.2H16.6a12.819,12.819,0,0,1,1.705-6.526,12.019,12.019,0,0,1,4.821-4.633,14.652,14.652,0,0,1,7.063-1.678q6.042,0,9.386,2.9t3.344,8.191a13.147,13.147,0,0,1-1.5,5.908A32.833,32.833,0,0,1,36.26,42.37l-8.889,9.373H44.183Z" transform="translate(1609.834 5751.61)"/></g></svg>