<svg xmlns="http://www.w3.org/2000/svg" width="657.28" height="489.537" viewBox="0 0 657.28 489.537"><defs><style>.a{fill:none;stroke:#a66d58;stroke-miterlimit:10;stroke-width:2px;}.b{fill:#d9a171;}.c{fill:#fff;}</style></defs><g transform="translate(-3116 5895.209)"><line class="a" y2="375.609" transform="translate(3621.17 -5838.109)"/><path class="a" d="M167.32,110.46,251,145.93m-166.33,0,83.7-35.47" transform="translate(3099.72 -5951.629)"/><rect class="b" width="304.22" height="56.62" rx="3.59" transform="translate(3116 -5895.209)"/><rect class="b" width="142.16" height="56.62" rx="3.59" transform="translate(3116 -5807.739)"/><path class="c" d="M110.2,85h-2.1v4.69h-2.64V76.86h4.76a5.41,5.41,0,0,1,3.5,1A3.49,3.49,0,0,1,115,80.73a3.91,3.91,0,0,1-.57,2.18,3.85,3.85,0,0,1-1.72,1.39l2.77,5.23v.13H112.6Zm-2.1-2.13h2.13a2.14,2.14,0,0,0,1.53-.51,1.79,1.79,0,0,0,.55-1.39,2,2,0,0,0-.51-1.43,2.18,2.18,0,0,0-1.58-.51H108.1Z" transform="translate(3099.72 -5951.629)"/><path class="c" d="M121.16,89.83a4.71,4.71,0,0,1-3.41-1.28,4.6,4.6,0,0,1-1.31-3.42v-.25a5.87,5.87,0,0,1,.55-2.56,4.15,4.15,0,0,1,1.57-1.74,4.39,4.39,0,0,1,2.32-.61A4,4,0,0,1,124,81.2a5,5,0,0,1,1.12,3.49v1h-6a2.34,2.34,0,0,0,.74,1.49,2.21,2.21,0,0,0,1.57.56,2.73,2.73,0,0,0,2.29-1.06l1.25,1.4a3.8,3.8,0,0,1-1.55,1.26A5.09,5.09,0,0,1,121.16,89.83ZM120.87,82a1.61,1.61,0,0,0-1.23.51A2.69,2.69,0,0,0,119,84h3.54v-.21a2,2,0,0,0-.46-1.31,1.63,1.63,0,0,0-1.21-.48Z" transform="translate(3099.72 -5951.629)"/><path class="c" d="M130.47,87.78a1.64,1.64,0,0,0,1.14-.38,1.37,1.37,0,0,0,.46-1h2.38a3.28,3.28,0,0,1-.53,1.77,3.45,3.45,0,0,1-1.42,1.25,4.5,4.5,0,0,1-2,.44,4.12,4.12,0,0,1-3.21-1.29A5.13,5.13,0,0,1,126.12,85v-.16a5.06,5.06,0,0,1,1.17-3.51,4.07,4.07,0,0,1,3.2-1.31,4,4,0,0,1,2.87,1,3.59,3.59,0,0,1,1.09,2.7h-2.38a1.76,1.76,0,0,0-.46-1.21,1.7,1.7,0,0,0-2.5.19,3.76,3.76,0,0,0-.45,2.1V85a3.78,3.78,0,0,0,.45,2.11A1.53,1.53,0,0,0,130.47,87.78Z" transform="translate(3099.72 -5951.629)"/><path class="c" d="M141.59,88.69a3.17,3.17,0,0,1-2.6,1.14,3,3,0,0,1-2.33-.88,3.7,3.7,0,0,1-.82-2.57V80.15h2.54V86.3c0,1,.45,1.48,1.35,1.48a1.84,1.84,0,0,0,1.78-.89V80.15h2.55v9.51h-2.39Z" transform="translate(3099.72 -5951.629)"/><path class="c" d="M151.32,82.53a6.462,6.462,0,0,0-.92-.07,1.86,1.86,0,0,0-1.89,1v6.23H146V80.15h2.4l.07,1.13A2.36,2.36,0,0,1,150.56,80a2.56,2.56,0,0,1,.79.12Z" transform="translate(3099.72 -5951.629)"/><path class="c" d="M157.69,87a.84.84,0,0,0-.46-.74,5.72,5.72,0,0,0-1.48-.47q-3.41-.72-3.4-2.89a2.6,2.6,0,0,1,1.05-2.11,4.22,4.22,0,0,1,2.75-.85,4.63,4.63,0,0,1,2.9.85A2.7,2.7,0,0,1,160.13,83h-2.54a1.22,1.22,0,0,0-.35-.9,1.47,1.47,0,0,0-1.1-.36,1.52,1.52,0,0,0-1,.29.9.9,0,0,0-.35.74.77.77,0,0,0,.4.68,4.16,4.16,0,0,0,1.35.45,11.079,11.079,0,0,1,1.59.43,2.62,2.62,0,0,1,2,2.55A2.48,2.48,0,0,1,159,89a4.83,4.83,0,0,1-2.88.8,5,5,0,0,1-2.12-.42,3.65,3.65,0,0,1-1.46-1.17,2.75,2.75,0,0,1-.53-1.61h2.41a1.35,1.35,0,0,0,.5,1,2,2,0,0,0,1.25.36,1.77,1.77,0,0,0,1.1-.28.85.85,0,0,0,.42-.68Z" transform="translate(3099.72 -5951.629)"/><path class="c" d="M161.4,84.81a5.69,5.69,0,0,1,.54-2.52,3.94,3.94,0,0,1,1.57-1.71,4.53,4.53,0,0,1,2.38-.61A4.31,4.31,0,0,1,169,81.15a4.75,4.75,0,0,1,1.36,3.2V85a4.94,4.94,0,0,1-1.23,3.51,4.735,4.735,0,0,1-6.56,0,5.08,5.08,0,0,1-1.22-3.58Zm2.54.18a3.57,3.57,0,0,0,.51,2.08,1.67,1.67,0,0,0,1.46.71,1.69,1.69,0,0,0,1.44-.7,4,4,0,0,0,.52-2.27,3.56,3.56,0,0,0-.52-2.06,1.69,1.69,0,0,0-1.46-.73,1.66,1.66,0,0,0-1.44.72,4,4,0,0,0-.51,2.26Z" transform="translate(3099.72 -5951.629)"/><path class="c" d="M177.12,87a.82.82,0,0,0-.46-.74,5.59,5.59,0,0,0-1.48-.47q-3.39-.72-3.39-2.89a2.6,2.6,0,0,1,1.05-2.11,4.19,4.19,0,0,1,2.74-.85,4.63,4.63,0,0,1,2.9.85A2.7,2.7,0,0,1,179.56,83H177a1.18,1.18,0,0,0-.35-.9,1.47,1.47,0,0,0-1.1-.36,1.54,1.54,0,0,0-1,.29.92.92,0,0,0-.35.74.77.77,0,0,0,.4.68,4.25,4.25,0,0,0,1.35.45,11.63,11.63,0,0,1,1.6.43,2.62,2.62,0,0,1,2,2.55A2.48,2.48,0,0,1,178.47,89a4.83,4.83,0,0,1-2.88.8,5.08,5.08,0,0,1-2.12-.42A3.72,3.72,0,0,1,172,88.24a2.73,2.73,0,0,1-.52-1.61h2.4a1.36,1.36,0,0,0,.51,1,2,2,0,0,0,1.24.36,1.82,1.82,0,0,0,1.11-.28.84.84,0,0,0,.38-.71Z" transform="translate(3099.72 -5951.629)"/><path class="c" d="M185.31,84.83a5.7,5.7,0,0,1,1-3.54A3.22,3.22,0,0,1,189,80a2.91,2.91,0,0,1,2.29,1V76.16h2.55v13.5h-2.29l-.13-1A3,3,0,0,1,189,89.83a3.21,3.21,0,0,1-2.69-1.32,5.9,5.9,0,0,1-1-3.68Zm2.54.19a3.74,3.74,0,0,0,.47,2,1.5,1.5,0,0,0,1.35.71,1.69,1.69,0,0,0,1.66-1V83a1.66,1.66,0,0,0-1.64-1c-1.23,0-1.84,1-1.84,3Z" transform="translate(3099.72 -5951.629)"/><path class="c" d="M195.83,77.69a1.24,1.24,0,0,1,.38-.94,1.45,1.45,0,0,1,1-.37,1.4,1.4,0,0,1,1,.37,1.21,1.21,0,0,1,.39.94,1.23,1.23,0,0,1-.39.94,1.63,1.63,0,0,1-2.07,0,1.23,1.23,0,0,1-.31-.94Zm2.7,12H196V80.15h2.55Z" transform="translate(3099.72 -5951.629)"/><path class="c" d="M206,82.53a6.461,6.461,0,0,0-.92-.07,1.86,1.86,0,0,0-1.89,1v6.23h-2.54V80.15H203l.07,1.13A2.36,2.36,0,0,1,205.21,80a2.52,2.52,0,0,1,.79.12Z" transform="translate(3099.72 -5951.629)"/><path class="c" d="M211.4,89.83a4.7,4.7,0,0,1-3.4-1.28,4.6,4.6,0,0,1-1.31-3.42v-.25a5.73,5.73,0,0,1,.55-2.56,4.08,4.08,0,0,1,1.57-1.74,4.39,4.39,0,0,1,2.32-.61,4,4,0,0,1,3.07,1.23,5,5,0,0,1,1.12,3.49v1h-6.06a2.35,2.35,0,0,0,.75,1.49,2.2,2.2,0,0,0,1.56.56,2.74,2.74,0,0,0,2.3-1.06l1.25,1.4a3.8,3.8,0,0,1-1.55,1.26,5.09,5.09,0,0,1-2.17.49ZM211.11,82a1.58,1.58,0,0,0-1.23.51,2.69,2.69,0,0,0-.6,1.47h3.53v-.21a1.9,1.9,0,0,0-.45-1.31,1.65,1.65,0,0,0-1.25-.46Z" transform="translate(3099.72 -5951.629)"/><path class="c" d="M220.71,87.78a1.67,1.67,0,0,0,1.14-.38,1.36,1.36,0,0,0,.45-1h2.39a3.28,3.28,0,0,1-.53,1.77,3.52,3.52,0,0,1-1.42,1.25,4.5,4.5,0,0,1-2,.44,4.15,4.15,0,0,1-3.22-1.29A5.18,5.18,0,0,1,216.35,85v-.16a5.06,5.06,0,0,1,1.17-3.51A4.1,4.1,0,0,1,220.73,80a4,4,0,0,1,2.86,1,3.6,3.6,0,0,1,1.1,2.7H222.3a1.75,1.75,0,0,0-.45-1.21,1.53,1.53,0,0,0-1.16-.46,1.51,1.51,0,0,0-1.34.65,3.75,3.75,0,0,0-.46,2.1V85a3.78,3.78,0,0,0,.45,2.11,1.56,1.56,0,0,0,1.37.67Z" transform="translate(3099.72 -5951.629)"/><path class="c" d="M229.18,77.81v2.34h1.62V82h-1.62v4.75a1.14,1.14,0,0,0,.2.75,1,1,0,0,0,.77.23,4.221,4.221,0,0,0,.75-.06V89.6a5,5,0,0,1-1.54.23,2.42,2.42,0,0,1-2.72-2.7V82h-1.39V80.15h1.39V77.81Z" transform="translate(3099.72 -5951.629)"/><path class="c" d="M231.56,84.81a5.69,5.69,0,0,1,.54-2.52,4,4,0,0,1,1.57-1.71,4.56,4.56,0,0,1,2.38-.61,4.31,4.31,0,0,1,3.14,1.18,4.7,4.7,0,0,1,1.36,3.2V85a5,5,0,0,1-1.22,3.51,4.74,4.74,0,0,1-6.56,0,5,5,0,0,1-1.23-3.58Zm2.54.18a3.57,3.57,0,0,0,.51,2.08,1.84,1.84,0,0,0,2.9,0,3.88,3.88,0,0,0,.52-2.27,3.49,3.49,0,0,0-.52-2.06,1.68,1.68,0,0,0-1.46-.73,1.66,1.66,0,0,0-1.44.72A4,4,0,0,0,234.1,85Z" transform="translate(3099.72 -5951.629)"/><path class="c" d="M247.28,87a.82.82,0,0,0-.46-.74,5.59,5.59,0,0,0-1.48-.47Q242,85.1,242,82.93a2.6,2.6,0,0,1,1-2.11,4.2,4.2,0,0,1,2.75-.85,4.6,4.6,0,0,1,2.89.85A2.71,2.71,0,0,1,249.73,83h-2.54a1.22,1.22,0,0,0-.35-.9,1.5,1.5,0,0,0-1.1-.36,1.57,1.57,0,0,0-1,.29.92.92,0,0,0-.35.74.79.79,0,0,0,.4.68,4.34,4.34,0,0,0,1.35.45,11.251,11.251,0,0,1,1.6.43,2.62,2.62,0,0,1,2,2.55,2.49,2.49,0,0,1-1.1,2.12,4.89,4.89,0,0,1-2.89.8,5.11,5.11,0,0,1-2.12-.42,3.62,3.62,0,0,1-1.45-1.17,2.75,2.75,0,0,1-.53-1.61h2.41a1.32,1.32,0,0,0,.5,1,2,2,0,0,0,1.25.36,1.81,1.81,0,0,0,1.1-.28.84.84,0,0,0,.37-.68Z" transform="translate(3099.72 -5951.629)"/><rect class="b" width="304.22" height="56.62" rx="3.59" transform="translate(3469.06 -5895.209)"/><path class="c" d="M455.83,85h-2.1v4.69h-2.64V76.86h4.76a5.38,5.38,0,0,1,3.49,1,3.5,3.5,0,0,1,1.24,2.86,3.91,3.91,0,0,1-.57,2.18,3.85,3.85,0,0,1-1.72,1.39l2.77,5.23v.13h-2.83Zm-2.1-2.13h2.13a2.14,2.14,0,0,0,1.53-.51,1.79,1.79,0,0,0,.55-1.39,1.92,1.92,0,0,0-.52-1.43,2.13,2.13,0,0,0-1.57-.51h-2.12Z" transform="translate(3099.72 -5951.629)"/><path class="c" d="M466.79,89.83a4.7,4.7,0,0,1-3.41-1.28,4.6,4.6,0,0,1-1.31-3.42v-.25a5.731,5.731,0,0,1,.55-2.56,4.15,4.15,0,0,1,1.57-1.74,4.39,4.39,0,0,1,2.32-.61,4,4,0,0,1,3.07,1.23,5,5,0,0,1,1.12,3.49v1h-6.06a2.35,2.35,0,0,0,.75,1.49,2.21,2.21,0,0,0,1.57.56,2.74,2.74,0,0,0,2.29-1.06l1.25,1.4a3.8,3.8,0,0,1-1.5,1.3,5.09,5.09,0,0,1-2.21.45ZM466.5,82a1.61,1.61,0,0,0-1.23.51,2.69,2.69,0,0,0-.6,1.47h3.53v-.21a1.9,1.9,0,0,0-.45-1.31A1.65,1.65,0,0,0,466.5,82Z" transform="translate(3099.72 -5951.629)"/><path class="c" d="M476.1,87.78a1.64,1.64,0,0,0,1.14-.38,1.4,1.4,0,0,0,.46-1h2.38a3.281,3.281,0,0,1-.53,1.77,3.52,3.52,0,0,1-1.42,1.25,4.5,4.5,0,0,1-2,.44,4.15,4.15,0,0,1-3.22-1.29A5.17,5.17,0,0,1,471.75,85v-.16a5.06,5.06,0,0,1,1.17-3.51,4.06,4.06,0,0,1,3.2-1.31A4,4,0,0,1,479,81a3.56,3.56,0,0,1,1.1,2.7h-2.4a1.8,1.8,0,0,0-.46-1.21,1.7,1.7,0,0,0-2.5.19,3.76,3.76,0,0,0-.45,2.1V85a3.88,3.88,0,0,0,.44,2.11,1.56,1.56,0,0,0,1.37.67Z" transform="translate(3099.72 -5951.629)"/><path class="c" d="M487.22,88.69a3.17,3.17,0,0,1-2.6,1.14,3,3,0,0,1-2.33-.88,3.7,3.7,0,0,1-.82-2.57V80.15H484V86.3c0,1,.45,1.48,1.35,1.48a1.84,1.84,0,0,0,1.78-.89V80.15h2.54v9.51h-2.39Z" transform="translate(3099.72 -5951.629)"/><path class="c" d="M496.94,82.53a6.329,6.329,0,0,0-.91-.07,1.86,1.86,0,0,0-1.89,1v6.23H491.6V80.15H494l.07,1.13A2.36,2.36,0,0,1,496.19,80a2.56,2.56,0,0,1,.79.12Z" transform="translate(3099.72 -5951.629)"/><path class="c" d="M503.32,87a.84.84,0,0,0-.46-.74,5.68,5.68,0,0,0-1.49-.47Q498,85.1,498,82.93a2.6,2.6,0,0,1,1-2.11,4.22,4.22,0,0,1,2.75-.85,4.58,4.58,0,0,1,2.89.85A2.68,2.68,0,0,1,505.76,83h-2.54a1.22,1.22,0,0,0-.35-.9,1.49,1.49,0,0,0-1.1-.36,1.52,1.52,0,0,0-1,.29.9.9,0,0,0-.36.74.79.79,0,0,0,.4.68,4.34,4.34,0,0,0,1.35.45,10.892,10.892,0,0,1,1.6.43,2.62,2.62,0,0,1,2,2.55A2.5,2.5,0,0,1,504.67,89a4.86,4.86,0,0,1-2.88.8,5.12,5.12,0,0,1-2.13-.42,3.68,3.68,0,0,1-1.45-1.17,2.75,2.75,0,0,1-.53-1.61h2.41a1.32,1.32,0,0,0,.5,1,2,2,0,0,0,1.25.36,1.79,1.79,0,0,0,1.1-.28.85.85,0,0,0,.38-.68Z" transform="translate(3099.72 -5951.629)"/><path class="c" d="M507,84.81a5.689,5.689,0,0,1,.54-2.52,3.94,3.94,0,0,1,1.57-1.71,4.51,4.51,0,0,1,2.38-.61,4.31,4.31,0,0,1,3.14,1.18,4.75,4.75,0,0,1,1.36,3.2V85a4.94,4.94,0,0,1-1.22,3.51,4.74,4.74,0,0,1-6.56,0A5,5,0,0,1,507,84.93Zm2.54.18a3.57,3.57,0,0,0,.51,2.08,1.65,1.65,0,0,0,1.45.71,1.7,1.7,0,0,0,1.45-.7,4,4,0,0,0,.51-2.27,3.56,3.56,0,0,0-.51-2.06,1.69,1.69,0,0,0-1.46-.73,1.65,1.65,0,0,0-1.44.72,4,4,0,0,0-.48,2.26Z" transform="translate(3099.72 -5951.629)"/><path class="c" d="M522.75,87a.82.82,0,0,0-.46-.74,5.59,5.59,0,0,0-1.48-.47q-3.4-.72-3.4-2.89a2.6,2.6,0,0,1,1.05-2.11,4.22,4.22,0,0,1,2.75-.85,4.63,4.63,0,0,1,2.9.85A2.7,2.7,0,0,1,525.19,83h-2.54a1.18,1.18,0,0,0-.35-.9,1.47,1.47,0,0,0-1.1-.36,1.52,1.52,0,0,0-1,.29.9.9,0,0,0-.35.74.77.77,0,0,0,.4.68,4.159,4.159,0,0,0,1.35.45,11.629,11.629,0,0,1,1.6.43,2.62,2.62,0,0,1,2,2.55A2.48,2.48,0,0,1,524.1,89a4.83,4.83,0,0,1-2.88.8,5.08,5.08,0,0,1-2.12-.42,3.649,3.649,0,0,1-1.46-1.17,2.73,2.73,0,0,1-.52-1.61h2.4a1.35,1.35,0,0,0,.5,1,2,2,0,0,0,1.25.36,1.82,1.82,0,0,0,1.11-.28.86.86,0,0,0,.37-.68Z" transform="translate(3099.72 -5951.629)"/><path class="c" d="M531.32,77.69a1.24,1.24,0,0,1,.38-.94,1.65,1.65,0,0,1,2.08,0,1.21,1.21,0,0,1,.39.94,1.23,1.23,0,0,1-.39.94,1.46,1.46,0,0,1-1,.37,1.42,1.42,0,0,1-1-.37,1.23,1.23,0,0,1-.46-.94Zm2.7,12h-2.55V80.15H534Z" transform="translate(3099.72 -5951.629)"/><path class="c" d="M538.45,80.15l.08,1.1A3.31,3.31,0,0,1,541.26,80a2.76,2.76,0,0,1,2.25.89,4.14,4.14,0,0,1,.75,2.65v6.15h-2.54V83.57a1.62,1.62,0,0,0-.35-1.17,1.58,1.58,0,0,0-1.17-.4,1.73,1.73,0,0,0-1.6.91v6.71h-2.54V80.15Z" transform="translate(3099.72 -5951.629)"/><path class="c" d="M545.79,84.83a5.76,5.76,0,0,1,1-3.54A3.25,3.25,0,0,1,549.52,80a2.9,2.9,0,0,1,2.29,1V76.16h2.55v13.5h-2.29l-.12-1a3,3,0,0,1-2.45,1.18,3.23,3.23,0,0,1-2.69-1.32A5.9,5.9,0,0,1,545.79,84.83Zm2.54.19a3.739,3.739,0,0,0,.47,2,1.5,1.5,0,0,0,1.35.71,1.69,1.69,0,0,0,1.66-1V83a1.66,1.66,0,0,0-1.64-1c-1.17,0-1.84,1-1.84,3Z" transform="translate(3099.72 -5951.629)"/><path class="c" d="M556.31,77.69a1.21,1.21,0,0,1,.39-.94,1.41,1.41,0,0,1,1-.37,1.44,1.44,0,0,1,1,.37,1.34,1.34,0,0,1-.01,1.88,1.62,1.62,0,0,1-2.06,0,1.2,1.2,0,0,1-.32-.94Zm2.7,12h-2.55V80.15H559Z" transform="translate(3099.72 -5951.629)"/><path class="c" d="M566.45,82.53a6.462,6.462,0,0,0-.92-.07,1.86,1.86,0,0,0-1.89,1v6.23H561.1V80.15h2.4l.07,1.13A2.36,2.36,0,0,1,565.69,80a2.52,2.52,0,0,1,.79.12Z" transform="translate(3099.72 -5951.629)"/><path class="c" d="M571.88,89.83a4.71,4.71,0,0,1-3.41-1.28,4.6,4.6,0,0,1-1.31-3.42v-.25a5.73,5.73,0,0,1,.55-2.56,4.15,4.15,0,0,1,1.57-1.74A4.39,4.39,0,0,1,571.6,80a4,4,0,0,1,3.07,1.23,5,5,0,0,1,1.12,3.49v1h-6a2.34,2.34,0,0,0,.74,1.49,2.21,2.21,0,0,0,1.57.56,2.73,2.73,0,0,0,2.29-1.06l1.25,1.4A3.8,3.8,0,0,1,574,89.38,5.09,5.09,0,0,1,571.88,89.83ZM571.59,82a1.61,1.61,0,0,0-1.23.51,2.69,2.69,0,0,0-.6,1.47h3.54v-.21a2,2,0,0,0-.46-1.31,1.65,1.65,0,0,0-1.25-.46Z" transform="translate(3099.72 -5951.629)"/><path class="c" d="M581.19,87.78a1.64,1.64,0,0,0,1.14-.38,1.37,1.37,0,0,0,.46-1h2.38a3.28,3.28,0,0,1-.53,1.77,3.45,3.45,0,0,1-1.42,1.25,4.5,4.5,0,0,1-2,.44A4.15,4.15,0,0,1,578,88.54,5.17,5.17,0,0,1,576.84,85v-.16A5.06,5.06,0,0,1,578,81.28a4.07,4.07,0,0,1,3.2-1.31,4,4,0,0,1,2.86,1,3.56,3.56,0,0,1,1.1,2.7h-2.38a1.76,1.76,0,0,0-.46-1.21,1.7,1.7,0,0,0-2.5.19,3.759,3.759,0,0,0-.45,2.1V85a3.78,3.78,0,0,0,.45,2.11A1.53,1.53,0,0,0,581.19,87.78Z" transform="translate(3099.72 -5951.629)"/><path class="c" d="M589.66,77.81v2.34h1.63V82h-1.63v4.75a1.14,1.14,0,0,0,.2.75,1,1,0,0,0,.78.23,4,4,0,0,0,.74-.06V89.6a5,5,0,0,1-1.54.23,2.43,2.43,0,0,1-2.72-2.7V82h-1.39V80.15h1.39V77.81Z" transform="translate(3099.72 -5951.629)"/><path class="c" d="M592,84.81a5.561,5.561,0,0,1,.55-2.52,3.891,3.891,0,0,1,1.57-1.71,4.5,4.5,0,0,1,2.37-.61,4.33,4.33,0,0,1,3.15,1.18,4.7,4.7,0,0,1,1.35,3.2V85a5,5,0,0,1-1.22,3.51,4.74,4.74,0,0,1-6.56,0A5,5,0,0,1,592,84.93Zm2.54.18a3.57,3.57,0,0,0,.51,2.08,1.84,1.84,0,0,0,2.9,0,3.88,3.88,0,0,0,.52-2.27,3.491,3.491,0,0,0-.52-2.06,1.81,1.81,0,0,0-2.9,0,4,4,0,0,0-.47,2.26Z" transform="translate(3099.72 -5951.629)"/><path class="c" d="M607.77,87a.83.83,0,0,0-.47-.74,5.459,5.459,0,0,0-1.48-.47q-3.39-.72-3.39-2.89a2.6,2.6,0,0,1,1.05-2.11,4.22,4.22,0,0,1,2.75-.85,4.6,4.6,0,0,1,2.89.85A2.68,2.68,0,0,1,610.21,83h-2.54a1.22,1.22,0,0,0-.35-.9,1.49,1.49,0,0,0-1.1-.36,1.52,1.52,0,0,0-1,.29.9.9,0,0,0-.36.74.79.79,0,0,0,.4.68,4.34,4.34,0,0,0,1.35.45,10.891,10.891,0,0,1,1.6.43,2.63,2.63,0,0,1,2,2.55A2.5,2.5,0,0,1,609.12,89a4.88,4.88,0,0,1-2.88.8,5.12,5.12,0,0,1-2.13-.42,3.68,3.68,0,0,1-1.45-1.17,2.75,2.75,0,0,1-.53-1.61h2.41a1.32,1.32,0,0,0,.5,1,2,2,0,0,0,1.25.36,1.79,1.79,0,0,0,1.1-.28.85.85,0,0,0,.38-.68Z" transform="translate(3099.72 -5951.629)"/><rect class="b" width="304.22" height="56.62" rx="3.59" transform="translate(3469.06 -5808.689)"/><path class="c" d="M456.79,176.17h-2.64v-12.8h2.64Z" transform="translate(3099.72 -5951.629)"/><path class="c" d="M458.67,171.34a5.7,5.7,0,0,1,1-3.54,3.22,3.22,0,0,1,2.72-1.32,2.94,2.94,0,0,1,2.3,1v-4.85h2.55v13.5h-2.3l-.12-1a3,3,0,0,1-2.44,1.18,3.24,3.24,0,0,1-2.7-1.32,6,6,0,0,1-1.01-3.65Zm2.54.19a3.75,3.75,0,0,0,.46,2.05,1.52,1.52,0,0,0,1.36.71,1.7,1.7,0,0,0,1.66-1v-3.76a1.68,1.68,0,0,0-1.64-1c-1.23.02-1.84,1.01-1.84,3Z" transform="translate(3099.72 -5951.629)"/><path class="c" d="M473.58,176.34a4.63,4.63,0,0,1-3.4-1.28,4.57,4.57,0,0,1-1.32-3.42v-.25a5.759,5.759,0,0,1,.56-2.56,4.08,4.08,0,0,1,1.57-1.74,4.42,4.42,0,0,1,2.31-.61,3.93,3.93,0,0,1,3.07,1.23,5,5,0,0,1,1.12,3.49v1h-6.05a2.34,2.34,0,0,0,.74,1.49,2.22,2.22,0,0,0,1.57.56,2.73,2.73,0,0,0,2.29-1.06l1.25,1.4a3.76,3.76,0,0,1-1.54,1.26,5.17,5.17,0,0,1-2.17.49Zm-.29-7.81a1.58,1.58,0,0,0-1.22.51,2.62,2.62,0,0,0-.61,1.47H475v-.21a1.91,1.91,0,0,0-.46-1.31,1.63,1.63,0,0,0-1.25-.46Z" transform="translate(3099.72 -5951.629)"/><path class="c" d="M481.27,166.66l.08,1.1a3.33,3.33,0,0,1,2.74-1.28,2.79,2.79,0,0,1,2.25.89,4.14,4.14,0,0,1,.75,2.65v6.15h-2.54v-6.08a1.68,1.68,0,0,0-.35-1.18,1.58,1.58,0,0,0-1.17-.36,1.75,1.75,0,0,0-1.61.91v6.71h-2.54v-9.51Z" transform="translate(3099.72 -5951.629)"/><path class="c" d="M492.06,164.32v2.34h1.62v1.86h-1.62v4.75a1.09,1.09,0,0,0,.2.75,1,1,0,0,0,.77.23,4.221,4.221,0,0,0,.75-.06v1.92a5,5,0,0,1-1.54.23,2.42,2.42,0,0,1-2.72-2.7v-5.12h-1.39v-1.86h1.39v-2.34Z" transform="translate(3099.72 -5951.629)"/><path class="c" d="M495.08,164.2a1.26,1.26,0,0,1,.38-.94,1.45,1.45,0,0,1,1.05-.37,1.42,1.42,0,0,1,1,.37,1.23,1.23,0,0,1,.39.94,1.27,1.27,0,0,1-.39,1,1.67,1.67,0,0,1-2.07,0,1.27,1.27,0,0,1-.36-1Zm2.7,12h-2.55v-9.51h2.55Z" transform="translate(3099.72 -5951.629)"/><path class="c" d="M500.57,176.17v-7.65h-1.42v-1.86h1.42v-.81a3.26,3.26,0,0,1,.91-2.48,3.57,3.57,0,0,1,2.57-.89,5.81,5.81,0,0,1,1.3.18v2a2.89,2.89,0,0,0-.77-.08c-1,0-1.44.45-1.44,1.34v.77H505v1.86h-1.89v7.65Z" transform="translate(3099.72 -5951.629)"/><path class="c" d="M506.3,164.2a1.23,1.23,0,0,1,.39-.94,1.41,1.41,0,0,1,1-.37,1.44,1.44,0,0,1,1,.37,1.35,1.35,0,0,1,0,1.89,1.65,1.65,0,0,1-2.06,0,1.24,1.24,0,0,1-.33-.95Zm2.7,12h-2.55v-9.51H509Z" transform="translate(3099.72 -5951.629)"/><path class="c" d="M515.05,174.29a1.64,1.64,0,0,0,1.14-.38,1.33,1.33,0,0,0,.46-1H519a3.19,3.19,0,0,1-.53,1.77,3.45,3.45,0,0,1-1.42,1.25,4.5,4.5,0,0,1-2,.44,4.12,4.12,0,0,1-3.21-1.29,5.13,5.13,0,0,1-1.18-3.59v-.16a5.06,5.06,0,0,1,1.17-3.51,4.1,4.1,0,0,1,3.21-1.31,4,4,0,0,1,2.86,1,3.59,3.59,0,0,1,1.09,2.7h-2.38a1.71,1.71,0,0,0-.46-1.21,1.51,1.51,0,0,0-1.16-.46,1.53,1.53,0,0,0-1.34.65,3.76,3.76,0,0,0-.45,2.1v.26a3.78,3.78,0,0,0,.45,2.11,1.54,1.54,0,0,0,1.4.63Z" transform="translate(3099.72 -5951.629)"/><path class="c" d="M526,176.17a2.73,2.73,0,0,1-.25-.86,3.07,3.07,0,0,1-2.4,1,3.38,3.38,0,0,1-2.32-.81,2.58,2.58,0,0,1-.92-2,2.72,2.72,0,0,1,1.12-2.33,5.57,5.57,0,0,1,3.24-.81h1.17v-.55a1.53,1.53,0,0,0-.34-1.05,1.3,1.3,0,0,0-1.06-.4,1.49,1.49,0,0,0-1,.31,1.07,1.07,0,0,0-.37.84h-2.54a2.56,2.56,0,0,1,.51-1.53,3.429,3.429,0,0,1,1.45-1.1,5.16,5.16,0,0,1,2.09-.4,4.2,4.2,0,0,1,2.79.88,3.1,3.1,0,0,1,1,2.49V174a4.579,4.579,0,0,0,.38,2.05v.15Zm-2.1-1.77a2.16,2.16,0,0,0,1-.25,1.62,1.62,0,0,0,.7-.67v-1.64h-1c-1.27,0-1.95.44-2,1.32v.15a1,1,0,0,0,.34.78,1.27,1.27,0,0,0,.95.31Z" transform="translate(3099.72 -5951.629)"/><path class="c" d="M543.17,171.5a5.741,5.741,0,0,1-1,3.52,3.22,3.22,0,0,1-2.7,1.32,3,3,0,0,1-2.33-1v4.48H534.6V166.66H537l.09.93a3,3,0,0,1,2.41-1.11,3.23,3.23,0,0,1,2.73,1.3,5.87,5.87,0,0,1,1,3.59Zm-2.54-.18a3.68,3.68,0,0,0-.47-2,1.51,1.51,0,0,0-1.36-.72,1.67,1.67,0,0,0-1.65.91v3.89a1.7,1.7,0,0,0,1.67.94C540,174.29,540.63,173.3,540.63,171.32Z" transform="translate(3099.72 -5951.629)"/><path class="c" d="M550.09,169a6.328,6.328,0,0,0-.91-.07,1.86,1.86,0,0,0-1.89,1v6.23h-2.54v-9.51h2.4l.07,1.13a2.35,2.35,0,0,1,2.12-1.31,2.56,2.56,0,0,1,.79.12Z" transform="translate(3099.72 -5951.629)"/><path class="c" d="M550.6,171.32a5.559,5.559,0,0,1,.55-2.52,3.89,3.89,0,0,1,1.57-1.71,4.5,4.5,0,0,1,2.37-.61,4.33,4.33,0,0,1,3.15,1.18,4.7,4.7,0,0,1,1.35,3.2v.65a5,5,0,0,1-1.22,3.51,4.74,4.74,0,0,1-6.56,0,5,5,0,0,1-1.23-3.58Zm2.54.18a3.571,3.571,0,0,0,.51,2.08,1.84,1.84,0,0,0,2.9,0,3.88,3.88,0,0,0,.52-2.27,3.49,3.49,0,0,0-.52-2.06,1.67,1.67,0,0,0-1.46-.73,1.65,1.65,0,0,0-1.44.73A3.919,3.919,0,0,0,553.14,171.5Z" transform="translate(3099.72 -5951.629)"/><path class="c" d="M565.13,174.29a1.64,1.64,0,0,0,1.14-.38,1.33,1.33,0,0,0,.46-1h2.38a3.19,3.19,0,0,1-.53,1.77,3.39,3.39,0,0,1-1.42,1.25,4.5,4.5,0,0,1-2,.44,4.12,4.12,0,0,1-3.21-1.29,5.13,5.13,0,0,1-1.18-3.59v-.16a5.06,5.06,0,0,1,1.17-3.51,4.1,4.1,0,0,1,3.21-1.31,4,4,0,0,1,2.86,1,3.59,3.59,0,0,1,1.09,2.7h-2.38a1.71,1.71,0,0,0-.46-1.21,1.51,1.51,0,0,0-1.16-.46,1.53,1.53,0,0,0-1.34.65,3.76,3.76,0,0,0-.45,2.1v.26a3.78,3.78,0,0,0,.45,2.11,1.54,1.54,0,0,0,1.37.63Z" transform="translate(3099.72 -5951.629)"/><path class="c" d="M574.94,176.34a4.66,4.66,0,0,1-3.41-1.28,4.6,4.6,0,0,1-1.31-3.42v-.25a5.76,5.76,0,0,1,.55-2.56,4.079,4.079,0,0,1,1.57-1.74,4.49,4.49,0,0,1,2.32-.61,4,4,0,0,1,3.07,1.23,5,5,0,0,1,1.12,3.49v1h-6.06a2.35,2.35,0,0,0,.75,1.49,2.21,2.21,0,0,0,1.57.56,2.74,2.74,0,0,0,2.29-1.06l1.25,1.4a3.8,3.8,0,0,1-1.55,1.26A5.09,5.09,0,0,1,574.94,176.34Zm-.29-7.81a1.6,1.6,0,0,0-1.23.51,2.69,2.69,0,0,0-.6,1.47h3.53v-.21a1.9,1.9,0,0,0-.45-1.31,1.65,1.65,0,0,0-1.25-.46Z" transform="translate(3099.72 -5951.629)"/><path class="c" d="M585.44,173.54a.8.8,0,0,0-.46-.73,5.19,5.19,0,0,0-1.48-.48q-3.39-.72-3.39-2.89a2.62,2.62,0,0,1,1-2.11,4.19,4.19,0,0,1,2.74-.85,4.61,4.61,0,0,1,2.9.85,2.7,2.7,0,0,1,1.08,2.22h-2.54a1.21,1.21,0,0,0-.35-.9,1.47,1.47,0,0,0-1.1-.36,1.56,1.56,0,0,0-1,.29.94.94,0,0,0-.35.74.77.77,0,0,0,.4.68,4.341,4.341,0,0,0,1.35.45,11.624,11.624,0,0,1,1.6.43,2.62,2.62,0,0,1,2,2.55,2.49,2.49,0,0,1-1.11,2.11,4.89,4.89,0,0,1-2.89.8,5.11,5.11,0,0,1-2.12-.42,3.62,3.62,0,0,1-1.45-1.17,2.681,2.681,0,0,1-.53-1.61h2.41a1.32,1.32,0,0,0,.5,1,2,2,0,0,0,1.24.36,1.82,1.82,0,0,0,1.11-.28.84.84,0,0,0,.44-.68Z" transform="translate(3099.72 -5951.629)"/><path class="c" d="M589.15,171.32a5.561,5.561,0,0,1,.55-2.52,3.92,3.92,0,0,1,1.56-1.71,4.56,4.56,0,0,1,2.38-.61,4.31,4.31,0,0,1,3.14,1.18,4.66,4.66,0,0,1,1.36,3.2v.65a5,5,0,0,1-1.22,3.51,4.74,4.74,0,0,1-6.56,0,5,5,0,0,1-1.23-3.58Zm2.54.18a3.57,3.57,0,0,0,.51,2.08,1.84,1.84,0,0,0,2.9,0,3.88,3.88,0,0,0,.52-2.27,3.49,3.49,0,0,0-.52-2.06,1.68,1.68,0,0,0-1.46-.73,1.65,1.65,0,0,0-1.44.73A3.92,3.92,0,0,0,591.69,171.5Z" transform="translate(3099.72 -5951.629)"/><path class="c" d="M604.87,173.54a.8.8,0,0,0-.46-.73,5.08,5.08,0,0,0-1.48-.48q-3.39-.72-3.39-2.89a2.62,2.62,0,0,1,1.05-2.11,4.2,4.2,0,0,1,2.75-.85,4.6,4.6,0,0,1,2.89.85,2.68,2.68,0,0,1,1.09,2.22h-2.54a1.25,1.25,0,0,0-.35-.9,1.49,1.49,0,0,0-1.1-.36,1.57,1.57,0,0,0-1,.29.94.94,0,0,0-.35.74.79.79,0,0,0,.4.68,4.34,4.34,0,0,0,1.35.45,11.251,11.251,0,0,1,1.6.43,2.62,2.62,0,0,1,2,2.55,2.49,2.49,0,0,1-1.11,2.11,4.89,4.89,0,0,1-2.89.8,5.11,5.11,0,0,1-2.12-.42,3.62,3.62,0,0,1-1.45-1.17,2.75,2.75,0,0,1-.53-1.61h2.41a1.32,1.32,0,0,0,.5,1,2,2,0,0,0,1.25.36,1.81,1.81,0,0,0,1.1-.28.84.84,0,0,0,.38-.68Z" transform="translate(3099.72 -5951.629)"/><rect class="b" width="304.22" height="56.62" rx="3.59" transform="translate(3469.06 -5722.179)"/><path class="c" d="M462,256.57a7.79,7.79,0,0,1-.67,3.31,5.08,5.08,0,0,1-1.91,2.2,5.67,5.67,0,0,1-5.69,0,5.06,5.06,0,0,1-1.94-2.19,7.48,7.48,0,0,1-.69-3.26V256a7.77,7.77,0,0,1,.68-3.33,5.07,5.07,0,0,1,1.92-2.21,5.71,5.71,0,0,1,5.69,0,5.16,5.16,0,0,1,1.93,2.21A7.72,7.72,0,0,1,462,256Zm-2.68-.58a5.4,5.4,0,0,0-.72-3.06,2.53,2.53,0,0,0-4.1,0,5.37,5.37,0,0,0-.73,3v.62a5.44,5.44,0,0,0,.72,3,2.34,2.34,0,0,0,2.08,1.08,2.31,2.31,0,0,0,2-1,5.33,5.33,0,0,0,.72-3Z" transform="translate(3099.72 -5951.629)"/><path class="c" d="M472.34,258a5.75,5.75,0,0,1-1,3.56,3.22,3.22,0,0,1-2.73,1.28,2.94,2.94,0,0,1-2.46-1.18l-.12,1h-2.28v-13.5h2.54V254a2.86,2.86,0,0,1,2.31-1,3.27,3.27,0,0,1,2.73,1.28,5.75,5.75,0,0,1,1,3.6Zm-2.54-.18a3.84,3.84,0,0,0-.46-2.11,1.55,1.55,0,0,0-1.36-.66,1.67,1.67,0,0,0-1.67,1v3.75a1.69,1.69,0,0,0,1.68,1,1.58,1.58,0,0,0,1.62-1.22,6.251,6.251,0,0,0,.19-1.75Z" transform="translate(3099.72 -5951.629)"/><path class="c" d="M476.94,250.83v2.34h1.63V255h-1.63v4.75a1.14,1.14,0,0,0,.2.75,1,1,0,0,0,.78.23,4,4,0,0,0,.74-.06v1.92a5,5,0,0,1-1.53.23,2.43,2.43,0,0,1-2.73-2.69V255H473v-1.86h1.39V250.8Z" transform="translate(3099.72 -5951.629)"/><path class="c" d="M480,250.71a1.23,1.23,0,0,1,.39-.94,1.63,1.63,0,0,1,2.07,0,1.23,1.23,0,0,1,.39.94,1.27,1.27,0,0,1-.39.95,1.62,1.62,0,0,1-2.06,0,1.24,1.24,0,0,1-.4-.95Zm2.7,12h-2.55V253.2h2.55Z" transform="translate(3099.72 -5951.629)"/><path class="c" d="M489.13,262.85a4.63,4.63,0,0,1-3.4-1.28,4.55,4.55,0,0,1-1.32-3.42v-.24a5.91,5.91,0,0,1,.55-2.57,4.15,4.15,0,0,1,1.57-1.74,4.49,4.49,0,0,1,2.32-.61,4,4,0,0,1,3.07,1.23,5,5,0,0,1,1.12,3.49v1H487a2.34,2.34,0,0,0,.74,1.49,2.23,2.23,0,0,0,1.57.57,2.73,2.73,0,0,0,2.29-1.07l1.25,1.4a3.8,3.8,0,0,1-1.55,1.26,5.09,5.09,0,0,1-2.17.49Zm-.29-7.81a1.61,1.61,0,0,0-1.23.51A2.69,2.69,0,0,0,487,257h3.54v-.21a2,2,0,0,0-.46-1.31,1.63,1.63,0,0,0-1.24-.48Z" transform="translate(3099.72 -5951.629)"/><path class="c" d="M496.82,253.17l.08,1.1a3.32,3.32,0,0,1,2.73-1.28,2.76,2.76,0,0,1,2.25.89,4.08,4.08,0,0,1,.76,2.65v6.15H500.1V256.6a1.7,1.7,0,0,0-.35-1.18,1.61,1.61,0,0,0-1.17-.36A1.74,1.74,0,0,0,497,256v6.71h-2.54V253.2Z" transform="translate(3099.72 -5951.629)"/><path class="c" d="M508.94,262.85a4.63,4.63,0,0,1-3.4-1.28,4.55,4.55,0,0,1-1.32-3.42v-.24a5.781,5.781,0,0,1,.56-2.57,4.06,4.06,0,0,1,1.56-1.74,4.49,4.49,0,0,1,2.32-.61,3.93,3.93,0,0,1,3.07,1.23,5,5,0,0,1,1.12,3.49v1H506.8a2.34,2.34,0,0,0,.74,1.49,2.23,2.23,0,0,0,1.57.57,2.73,2.73,0,0,0,2.29-1.07l1.25,1.4a3.8,3.8,0,0,1-1.55,1.26,5.09,5.09,0,0,1-2.16.49Zm-.29-7.81a1.58,1.58,0,0,0-1.22.51,2.62,2.62,0,0,0-.61,1.47h3.54v-.21a2,2,0,0,0-.46-1.31,1.63,1.63,0,0,0-1.25-.5Z" transform="translate(3099.72 -5951.629)"/><path class="c" d="M524.29,262.68a3,3,0,0,1-.26-.85,3.07,3.07,0,0,1-2.4,1,3.36,3.36,0,0,1-2.31-.81,2.55,2.55,0,0,1-.92-2,2.67,2.67,0,0,1,1.12-2.32,5.49,5.49,0,0,1,3.24-.82h1.17v-.55a1.58,1.58,0,0,0-.34-1,1.32,1.32,0,0,0-1.07-.4,1.56,1.56,0,0,0-1,.31,1.06,1.06,0,0,0-.36.84h-2.54a2.51,2.51,0,0,1,.51-1.52,3.4,3.4,0,0,1,1.44-1.11,5.369,5.369,0,0,1,2.09-.4,4.15,4.15,0,0,1,2.79.89,3.07,3.07,0,0,1,1,2.48v4.12a4.569,4.569,0,0,0,.37,2v.15Zm-2.1-1.77a2.12,2.12,0,0,0,1-.25,1.71,1.71,0,0,0,.71-.67v-1.64H523c-1.27,0-2,.44-2,1.32v.15a1,1,0,0,0,.33.78A1.3,1.3,0,0,0,522.19,260.91Z" transform="translate(3099.72 -5951.629)"/><path class="c" d="M532.38,260.81a1.64,1.64,0,0,0,1.14-.39,1.33,1.33,0,0,0,.46-1h2.38a3.22,3.22,0,0,1-.52,1.77,3.52,3.52,0,0,1-1.42,1.25,4.4,4.4,0,0,1-2,.44,4.14,4.14,0,0,1-3.22-1.29A5.12,5.12,0,0,1,528,258v-.17a5.06,5.06,0,0,1,1.17-3.51,4.1,4.1,0,0,1,3.21-1.31,4,4,0,0,1,2.86,1,3.55,3.55,0,0,1,1.09,2.7H534a1.73,1.73,0,0,0-.46-1.21,1.51,1.51,0,0,0-1.16-.46,1.55,1.55,0,0,0-1.34.65,3.76,3.76,0,0,0-.45,2.1v.26a3.78,3.78,0,0,0,.45,2.11A1.55,1.55,0,0,0,532.38,260.81Z" transform="translate(3099.72 -5951.629)"/><path class="c" d="M540.85,250.83v2.34h1.63V255h-1.63v4.75a1.08,1.08,0,0,0,.21.75,1,1,0,0,0,.77.23,4.221,4.221,0,0,0,.75-.06v1.92a5,5,0,0,1-1.54.23,2.43,2.43,0,0,1-2.73-2.69V255h-1.38v-1.86h1.38V250.8Z" transform="translate(3099.72 -5951.629)"/><path class="c" d="M543.88,250.71a1.26,1.26,0,0,1,.38-.94,1.65,1.65,0,0,1,2.08,0,1.33,1.33,0,0,1,0,1.89,1.62,1.62,0,0,1-2.06,0,1.27,1.27,0,0,1-.4-.95Zm2.7,12H544V253.2h2.55Z" transform="translate(3099.72 -5951.629)"/><path class="c" d="M552.23,259.58l1.76-6.41h2.66l-3.21,9.51H551l-3.2-9.51h2.65Z" transform="translate(3099.72 -5951.629)"/><path class="c" d="M557.75,250.71a1.22,1.22,0,0,1,.38-.94,1.41,1.41,0,0,1,1-.37,1.44,1.44,0,0,1,1,.37,1.22,1.22,0,0,1,.38.94,1.27,1.27,0,0,1-.39.95,1.62,1.62,0,0,1-2.06,0A1.27,1.27,0,0,1,557.75,250.71Zm2.7,12H557.9V253.2h2.55Z" transform="translate(3099.72 -5951.629)"/><path class="c" d="M562.14,257.85a5.7,5.7,0,0,1,1-3.54,3.22,3.22,0,0,1,2.73-1.32,2.91,2.91,0,0,1,2.29,1v-4.85h2.55v13.5h-2.29l-.13-1a3,3,0,0,1-2.44,1.18,3.21,3.21,0,0,1-2.69-1.32,5.9,5.9,0,0,1-1.02-3.65Zm2.54.19a3.74,3.74,0,0,0,.47,2,1.51,1.51,0,0,0,1.35.72,1.7,1.7,0,0,0,1.66-1V256a1.66,1.66,0,0,0-1.64-1c-1.23.06-1.84,1.05-1.84,3Z" transform="translate(3099.72 -5951.629)"/><path class="c" d="M578.19,262.68a2.751,2.751,0,0,1-.25-.85,3.1,3.1,0,0,1-2.4,1,3.36,3.36,0,0,1-2.32-.81,2.58,2.58,0,0,1-.92-2,2.69,2.69,0,0,1,1.12-2.32,5.49,5.49,0,0,1,3.24-.82h1.17v-.55a1.53,1.53,0,0,0-.34-1,1.3,1.3,0,0,0-1.07-.4,1.53,1.53,0,0,0-1,.31,1,1,0,0,0-.37.84h-2.54a2.51,2.51,0,0,1,.51-1.52,3.4,3.4,0,0,1,1.44-1.11,5.38,5.38,0,0,1,2.1-.4,4.15,4.15,0,0,1,2.79.89,3.09,3.09,0,0,1,1,2.48v4.12a4.421,4.421,0,0,0,.38,2v.15Zm-2.1-1.77a2.19,2.19,0,0,0,1-.25,1.68,1.68,0,0,0,.7-.67v-1.64h-1c-1.27,0-2,.44-2,1.32v.15a1,1,0,0,0,.34.78A1.26,1.26,0,0,0,576.09,260.91Z" transform="translate(3099.72 -5951.629)"/><path class="c" d="M581.93,257.85a5.761,5.761,0,0,1,1-3.54,3.25,3.25,0,0,1,2.73-1.32,2.94,2.94,0,0,1,2.3,1v-4.85h2.54v13.5h-2.29l-.12-1a3,3,0,0,1-2.45,1.18,3.23,3.23,0,0,1-2.69-1.32,5.9,5.9,0,0,1-1.02-3.65Zm2.54.19a3.74,3.74,0,0,0,.47,2,1.51,1.51,0,0,0,1.35.72,1.72,1.72,0,0,0,1.67-1V256a1.69,1.69,0,0,0-1.65-1c-1.22.06-1.84,1.05-1.84,3Z" transform="translate(3099.72 -5951.629)"/><path class="c" d="M596.85,262.85a4.66,4.66,0,0,1-3.41-1.28,4.58,4.58,0,0,1-1.31-3.42v-.24a5.77,5.77,0,0,1,.55-2.57,4.15,4.15,0,0,1,1.57-1.74,4.49,4.49,0,0,1,2.32-.61,4,4,0,0,1,3.07,1.23,5,5,0,0,1,1.12,3.49v1h-6a2.29,2.29,0,0,0,.74,1.49,2.21,2.21,0,0,0,1.57.57,2.73,2.73,0,0,0,2.29-1.07l1.25,1.4a3.8,3.8,0,0,1-1.61,1.3A5.09,5.09,0,0,1,596.85,262.85Zm-.29-7.81a1.61,1.61,0,0,0-1.23.51,2.69,2.69,0,0,0-.6,1.47h3.53v-.21a1.9,1.9,0,0,0-.45-1.31,1.65,1.65,0,0,0-1.25-.5Z" transform="translate(3099.72 -5951.629)"/><path class="c" d="M607.35,260.05a.8.8,0,0,0-.46-.73,5.19,5.19,0,0,0-1.48-.48Q602,258.12,602,256a2.62,2.62,0,0,1,1.05-2.11,4.19,4.19,0,0,1,2.74-.85,4.61,4.61,0,0,1,2.9.85,2.71,2.71,0,0,1,1.09,2.22h-2.54a1.22,1.22,0,0,0-.36-.9,1.46,1.46,0,0,0-1.09-.36,1.57,1.57,0,0,0-1,.29.94.94,0,0,0-.35.74.77.77,0,0,0,.4.68,4.341,4.341,0,0,0,1.35.45,11.25,11.25,0,0,1,1.6.43,2.62,2.62,0,0,1,2,2.55,2.49,2.49,0,0,1-1.11,2.11,4.82,4.82,0,0,1-2.89.8,5.11,5.11,0,0,1-2.12-.42,3.62,3.62,0,0,1-1.45-1.17,2.68,2.68,0,0,1-.53-1.61h2.41a1.31,1.31,0,0,0,.5,1,2,2,0,0,0,1.25.36,1.81,1.81,0,0,0,1.1-.28.84.84,0,0,0,.4-.73Z" transform="translate(3099.72 -5951.629)"/><rect class="b" width="304.22" height="56.62" rx="3.59" transform="translate(3469.06 -5635.669)"/><rect class="b" width="304.22" height="56.62" rx="3.59" transform="translate(3469.06 -5548.981)"/><path class="c" d="M417.26,343.08a7.79,7.79,0,0,1-.67,3.31,5,5,0,0,1-1.91,2.2,5.67,5.67,0,0,1-5.69,0,5.09,5.09,0,0,1-1.94-2.18,7.409,7.409,0,0,1-.69-3.27v-.63a7.621,7.621,0,0,1,.68-3.33A5.07,5.07,0,0,1,409,337a5.71,5.71,0,0,1,5.69,0,5.07,5.07,0,0,1,1.92,2.21,7.58,7.58,0,0,1,.69,3.32Zm-2.68-.58a5.4,5.4,0,0,0-.72-3.06,2.55,2.55,0,0,0-4.1,0,5.37,5.37,0,0,0-.73,3v.62a5.44,5.44,0,0,0,.72,3,2.52,2.52,0,0,0,4.11,0,5.33,5.33,0,0,0,.72-3Z" transform="translate(3099.72 -5951.629)"/><path class="c" d="M427.57,344.52a5.8,5.8,0,0,1-1,3.57,3.24,3.24,0,0,1-2.73,1.27,3,3,0,0,1-2.47-1.18l-.11,1H419v-13.5h2.54v4.84a2.93,2.93,0,0,1,2.32-1,3.27,3.27,0,0,1,2.73,1.28,5.82,5.82,0,0,1,1,3.6Zm-2.54-.18a3.85,3.85,0,0,0-.45-2.11,1.56,1.56,0,0,0-1.37-.66,1.69,1.69,0,0,0-1.67,1v3.75a1.72,1.72,0,0,0,1.69,1,1.58,1.58,0,0,0,1.62-1.22,6.33,6.33,0,0,0,.15-1.76Z" transform="translate(3099.72 -5951.629)"/><path class="c" d="M432.18,337.34v2.34h1.63v1.86h-1.63v4.75a1.14,1.14,0,0,0,.2.75,1,1,0,0,0,.78.23,4,4,0,0,0,.74-.06v1.93a5.31,5.31,0,0,1-1.54.22,2.42,2.42,0,0,1-2.72-2.69v-5.13h-1.39v-1.86h1.39v-2.34Z" transform="translate(3099.72 -5951.629)"/><path class="c" d="M435.2,337.22a1.23,1.23,0,0,1,.39-.94,1.63,1.63,0,0,1,2.07,0,1.23,1.23,0,0,1,.39.94,1.27,1.27,0,0,1-.39.95,1.63,1.63,0,0,1-2.07,0,1.27,1.27,0,0,1-.39-.95Zm2.7,12h-2.55v-9.51h2.55Z" transform="translate(3099.72 -5951.629)"/><path class="c" d="M444.37,349.36a4.67,4.67,0,0,1-3.41-1.28,4.57,4.57,0,0,1-1.31-3.42v-.24a5.77,5.77,0,0,1,.55-2.57,4.15,4.15,0,0,1,1.57-1.74,4.49,4.49,0,0,1,2.32-.61,4,4,0,0,1,3.07,1.23,5,5,0,0,1,1.12,3.49v1h-6a2.34,2.34,0,0,0,.74,1.49,2.21,2.21,0,0,0,1.57.57,2.73,2.73,0,0,0,2.29-1.07l1.25,1.4a3.8,3.8,0,0,1-1.55,1.26,5.091,5.091,0,0,1-2.21.49Zm-.29-7.81a1.61,1.61,0,0,0-1.23.51,2.69,2.69,0,0,0-.6,1.47h3.54v-.2a2,2,0,0,0-.46-1.32,1.67,1.67,0,0,0-1.25-.46Z" transform="translate(3099.72 -5951.629)"/><path class="c" d="M452.06,339.68l.08,1.1a3.32,3.32,0,0,1,2.73-1.28,2.76,2.76,0,0,1,2.25.89,4.08,4.08,0,0,1,.76,2.65v6.15h-2.54v-6.08a1.7,1.7,0,0,0-.35-1.18,1.61,1.61,0,0,0-1.17-.36,1.74,1.74,0,0,0-1.61.91v6.71h-2.54v-9.51Z" transform="translate(3099.72 -5951.629)"/><path class="c" d="M464.18,349.36a4.67,4.67,0,0,1-3.41-1.28,4.57,4.57,0,0,1-1.31-3.42v-.24a5.909,5.909,0,0,1,.55-2.57,4.15,4.15,0,0,1,1.57-1.74,4.49,4.49,0,0,1,2.32-.61,4,4,0,0,1,3.07,1.23,5,5,0,0,1,1.12,3.49v1h-6a2.34,2.34,0,0,0,.74,1.49,2.21,2.21,0,0,0,1.57.57,2.73,2.73,0,0,0,2.29-1.07l1.25,1.4a3.8,3.8,0,0,1-1.55,1.26A5.09,5.09,0,0,1,464.18,349.36Zm-.29-7.81a1.61,1.61,0,0,0-1.23.51,2.69,2.69,0,0,0-.6,1.47h3.54v-.2a2,2,0,0,0-.46-1.32,1.67,1.67,0,0,0-1.25-.46Z" transform="translate(3099.72 -5951.629)"/><path class="c" d="M474,337.22a1.26,1.26,0,0,1,.38-.94,1.65,1.65,0,0,1,2.08,0,1.33,1.33,0,0,1,0,1.89,1.62,1.62,0,0,1-2.06,0,1.27,1.27,0,0,1-.4-.95Zm2.7,12h-2.55v-9.51h2.55Z" transform="translate(3099.72 -5951.629)"/><path class="c" d="M481.13,339.68l.07,1.1a3.34,3.34,0,0,1,2.74-1.28,2.76,2.76,0,0,1,2.25.89,4.14,4.14,0,0,1,.75,2.65v6.15H484.4v-6.08a1.65,1.65,0,0,0-.35-1.18,1.58,1.58,0,0,0-1.17-.36,1.73,1.73,0,0,0-1.6.91v6.71h-2.54v-9.51Z" transform="translate(3099.72 -5951.629)"/><path class="c" d="M488.47,344.36a5.76,5.76,0,0,1,1-3.54,3.25,3.25,0,0,1,2.73-1.32,2.9,2.9,0,0,1,2.29,1v-4.85H497v13.5h-2.29l-.12-1a3,3,0,0,1-2.45,1.18,3.23,3.23,0,0,1-2.69-1.32A5.9,5.9,0,0,1,488.47,344.36Zm2.54.19a3.741,3.741,0,0,0,.47,2.05,1.51,1.51,0,0,0,1.35.72,1.7,1.7,0,0,0,1.66-1v-3.76a1.66,1.66,0,0,0-1.64-1c-1.22.01-1.85,1-1.85,2.99Z" transform="translate(3099.72 -5951.629)"/><path class="c" d="M504.71,348.22a3.2,3.2,0,0,1-2.6,1.14,3,3,0,0,1-2.34-.87,3.8,3.8,0,0,1-.82-2.58v-6.23h2.54v6.15c0,1,.45,1.49,1.35,1.49a1.84,1.84,0,0,0,1.78-.9v-6.74h2.55v9.51h-2.39Z" transform="translate(3099.72 -5951.629)"/><path class="c" d="M513,347.32a1.64,1.64,0,0,0,1.14-.39,1.37,1.37,0,0,0,.46-1H517a3.23,3.23,0,0,1-.53,1.77,3.451,3.451,0,0,1-1.42,1.25,4.37,4.37,0,0,1-2,.44,4.12,4.12,0,0,1-3.21-1.29,5.12,5.12,0,0,1-1.18-3.58v-.17a5.08,5.08,0,0,1,1.17-3.51,4.1,4.1,0,0,1,3.21-1.31,4,4,0,0,1,2.86,1,3.6,3.6,0,0,1,1.09,2.7h-2.38a1.77,1.77,0,0,0-.46-1.21,1.55,1.55,0,0,0-1.16-.46,1.53,1.53,0,0,0-1.34.65,3.76,3.76,0,0,0-.45,2.1v.26a3.76,3.76,0,0,0,.45,2.11,1.55,1.55,0,0,0,1.35.64Z" transform="translate(3099.72 -5951.629)"/><path class="c" d="M521.51,337.34v2.34h1.63v1.86h-1.63v4.75a1.14,1.14,0,0,0,.2.75,1,1,0,0,0,.78.23,4,4,0,0,0,.74-.06v1.93a5.239,5.239,0,0,1-1.53.22,2.43,2.43,0,0,1-2.73-2.69v-5.13h-1.39v-1.86H519v-2.34Z" transform="translate(3099.72 -5951.629)"/><path class="c" d="M523.89,344.35a5.7,5.7,0,0,1,.55-2.53,3.89,3.89,0,0,1,1.57-1.71,4.5,4.5,0,0,1,2.37-.61,4.36,4.36,0,0,1,3.15,1.18,4.72,4.72,0,0,1,1.35,3.2v.65a4.94,4.94,0,0,1-1.22,3.51,4.748,4.748,0,0,1-6.56.01,5.06,5.06,0,0,1-1.23-3.59Zm2.54.18a3.55,3.55,0,0,0,.51,2.07,1.83,1.83,0,0,0,2.9,0,3.86,3.86,0,0,0,.52-2.27,3.49,3.49,0,0,0-.52-2.06,1.67,1.67,0,0,0-1.46-.73,1.65,1.65,0,0,0-1.44.73A3.94,3.94,0,0,0,526.43,344.53Z" transform="translate(3099.72 -5951.629)"/><path class="c" d="M539.81,342.06a6.432,6.432,0,0,0-.91-.07,1.87,1.87,0,0,0-1.89,1v6.22h-2.54V339.7h2.4l.07,1.13a2.35,2.35,0,0,1,2.11-1.31,2.58,2.58,0,0,1,.8.12Z" transform="translate(3099.72 -5951.629)"/><path class="c" d="M545.24,349.36a4.63,4.63,0,0,1-3.4-1.28,4.53,4.53,0,0,1-1.32-3.42v-.24a5.781,5.781,0,0,1,.56-2.57,4.13,4.13,0,0,1,1.56-1.74,4.49,4.49,0,0,1,2.32-.61,3.93,3.93,0,0,1,3.07,1.23,5,5,0,0,1,1.12,3.49v1h-6a2.34,2.34,0,0,0,.74,1.49,2.23,2.23,0,0,0,1.57.57,2.73,2.73,0,0,0,2.29-1.07l1.25,1.4a3.8,3.8,0,0,1-1.55,1.26A5.089,5.089,0,0,1,545.24,349.36Zm-.29-7.81a1.58,1.58,0,0,0-1.22.51,2.62,2.62,0,0,0-.61,1.47h3.54v-.2a1.92,1.92,0,0,0-.46-1.32,1.67,1.67,0,0,0-1.2-.46Z" transform="translate(3099.72 -5951.629)"/><path class="c" d="M555.75,346.56a.82.82,0,0,0-.47-.73,5.08,5.08,0,0,0-1.48-.48q-3.39-.72-3.39-2.89a2.62,2.62,0,0,1,1.05-2.11,4.28,4.28,0,0,1,2.75-.85,4.54,4.54,0,0,1,2.89.86,2.65,2.65,0,0,1,1.09,2.21h-2.54a1.25,1.25,0,0,0-.35-.9,1.49,1.49,0,0,0-1.1-.36,1.57,1.57,0,0,0-1,.29.94.94,0,0,0-.35.74.79.79,0,0,0,.4.68,3.871,3.871,0,0,0,1.35.45,10.891,10.891,0,0,1,1.6.43,2.62,2.62,0,0,1,2,2.55,2.49,2.49,0,0,1-1.11,2.11,4.81,4.81,0,0,1-2.88.8,5.12,5.12,0,0,1-2.13-.42,3.62,3.62,0,0,1-1.45-1.17,2.75,2.75,0,0,1-.53-1.61h2.41a1.31,1.31,0,0,0,.5,1,2,2,0,0,0,1.25.36,1.88,1.88,0,0,0,1.1-.27.88.88,0,0,0,.39-.69Z" transform="translate(3099.72 -5951.629)"/><path class="c" d="M563.94,344.36a5.761,5.761,0,0,1,1-3.54,3.25,3.25,0,0,1,2.73-1.32,2.94,2.94,0,0,1,2.3,1v-4.85h2.55v13.5h-2.3l-.12-1a3,3,0,0,1-2.44,1.18A3.24,3.24,0,0,1,565,348a5.9,5.9,0,0,1-1.06-3.64Zm2.54.19a3.751,3.751,0,0,0,.46,2.05,1.51,1.51,0,0,0,1.36.72,1.72,1.72,0,0,0,1.66-1v-3.76a1.69,1.69,0,0,0-1.65-1C567.09,341.57,566.48,342.56,566.48,344.55Z" transform="translate(3099.72 -5951.629)"/><path class="c" d="M578.85,349.36a4.63,4.63,0,0,1-3.4-1.28,4.53,4.53,0,0,1-1.32-3.42v-.24a5.78,5.78,0,0,1,.56-2.57,4.06,4.06,0,0,1,1.56-1.74,4.49,4.49,0,0,1,2.32-.61,4,4,0,0,1,3.07,1.23,5,5,0,0,1,1.12,3.49v1h-6a2.34,2.34,0,0,0,.74,1.49,2.23,2.23,0,0,0,1.57.57,2.73,2.73,0,0,0,2.29-1.07l1.25,1.4a3.8,3.8,0,0,1-1.55,1.26A5.09,5.09,0,0,1,578.85,349.36Zm-.29-7.81a1.58,1.58,0,0,0-1.22.51,2.62,2.62,0,0,0-.61,1.47h3.54v-.2a2,2,0,0,0-.46-1.32,1.67,1.67,0,0,0-1.25-.46Z" transform="translate(3099.72 -5951.629)"/><path class="c" d="M586.88,349.19h-2.54v-13.5h2.54Z" transform="translate(3099.72 -5951.629)"/><path class="c" d="M597.41,347.32a1.69,1.69,0,0,0,1.15-.39,1.36,1.36,0,0,0,.45-1h2.39a3.31,3.31,0,0,1-.53,1.77,3.52,3.52,0,0,1-1.42,1.25,4.4,4.4,0,0,1-2,.44,4.15,4.15,0,0,1-3.22-1.29,5.17,5.17,0,0,1-1.18-3.58v-.17a5.08,5.08,0,0,1,1.17-3.51,4.1,4.1,0,0,1,3.21-1.31,4,4,0,0,1,2.86,1,3.61,3.61,0,0,1,1.1,2.7H599a1.77,1.77,0,0,0-.45-1.21,1.57,1.57,0,0,0-1.16-.46,1.52,1.52,0,0,0-1.34.65,3.669,3.669,0,0,0-.46,2.1v.26a3.759,3.759,0,0,0,.45,2.11A1.55,1.55,0,0,0,597.41,347.32Z" transform="translate(3099.72 -5951.629)"/><path class="c" d="M602.45,344.35a5.57,5.57,0,0,1,.55-2.53,3.92,3.92,0,0,1,1.56-1.71,4.56,4.56,0,0,1,2.38-.61,4.35,4.35,0,0,1,3.14,1.18,4.73,4.73,0,0,1,1.36,3.2v.65a5,5,0,0,1-1.22,3.51,4.75,4.75,0,0,1-6.56,0,5.06,5.06,0,0,1-1.23-3.59Zm2.54.18a3.55,3.55,0,0,0,.51,2.07,1.83,1.83,0,0,0,2.9,0,3.86,3.86,0,0,0,.52-2.27,3.49,3.49,0,0,0-.52-2.06,1.68,1.68,0,0,0-1.46-.73,1.65,1.65,0,0,0-1.44.73,3.939,3.939,0,0,0-.5,2.26Z" transform="translate(3099.72 -5951.629)"/><path class="c" d="M618.17,346.56a.81.81,0,0,0-.46-.73,5.19,5.19,0,0,0-1.48-.48q-3.39-.72-3.39-2.89a2.62,2.62,0,0,1,1-2.11,4.26,4.26,0,0,1,2.75-.85,4.54,4.54,0,0,1,2.89.86,2.65,2.65,0,0,1,1.09,2.21h-2.54a1.25,1.25,0,0,0-.35-.9,1.5,1.5,0,0,0-1.1-.36,1.57,1.57,0,0,0-1,.29.94.94,0,0,0-.35.74.79.79,0,0,0,.4.68,3.87,3.87,0,0,0,1.35.45,11.25,11.25,0,0,1,1.6.43,2.62,2.62,0,0,1,2,2.55,2.49,2.49,0,0,1-1.11,2.11,4.82,4.82,0,0,1-2.89.8,5.109,5.109,0,0,1-2.12-.42,3.62,3.62,0,0,1-1.45-1.17,2.75,2.75,0,0,1-.53-1.61H615a1.31,1.31,0,0,0,.5,1,2,2,0,0,0,1.25.36,1.88,1.88,0,0,0,1.1-.27.87.87,0,0,0,.32-.69Z" transform="translate(3099.72 -5951.629)"/><path class="c" d="M625.32,337.34v2.34H627v1.86h-1.63v4.75a1.14,1.14,0,0,0,.2.75,1,1,0,0,0,.77.23,4.061,4.061,0,0,0,.75-.06v1.93a5.31,5.31,0,0,1-1.54.22,2.42,2.42,0,0,1-2.72-2.69v-5.13h-1.39v-1.86h1.39v-2.34Z" transform="translate(3099.72 -5951.629)"/><path class="c" d="M627.7,344.35a5.57,5.57,0,0,1,.55-2.53,3.92,3.92,0,0,1,1.56-1.71,4.56,4.56,0,0,1,2.38-.61,4.33,4.33,0,0,1,3.14,1.18,4.68,4.68,0,0,1,1.36,3.2v.65a5,5,0,0,1-1.22,3.51,4.75,4.75,0,0,1-6.56,0,5.06,5.06,0,0,1-1.23-3.59Zm2.54.18a3.55,3.55,0,0,0,.51,2.07,1.83,1.83,0,0,0,2.9,0,3.86,3.86,0,0,0,.52-2.27,3.49,3.49,0,0,0-.52-2.06,1.67,1.67,0,0,0-1.46-.73,1.65,1.65,0,0,0-1.44.73,3.94,3.94,0,0,0-.51,2.26Z" transform="translate(3099.72 -5951.629)"/><g transform="translate(0 86.866)"><rect class="b" width="657.28" height="56.62" rx="3.59" transform="translate(3116 -5549.159)"/><path class="c" d="M229.58,431.19v4.51H227V422.9h5a5.78,5.78,0,0,1,2.53.53,3.92,3.92,0,0,1,1.69,1.5,4.2,4.2,0,0,1,.59,2.21,3.66,3.66,0,0,1-1.29,3,5.35,5.35,0,0,1-3.57,1.09Zm0-2.14h2.36a2.28,2.28,0,0,0,1.59-.49,1.77,1.77,0,0,0,.55-1.4,2.09,2.09,0,0,0-.55-1.52A2.05,2.05,0,0,0,232,425h-2.42Z" transform="translate(3099.72 -5951.629)"/><path class="c" d="M243.73,428.57a6.33,6.33,0,0,0-.91-.07,1.87,1.87,0,0,0-1.89,1v6.22h-2.54v-9.51h2.4l.07,1.13A2.35,2.35,0,0,1,243,426a2.559,2.559,0,0,1,.79.12Z" transform="translate(3099.72 -5951.629)"/><path class="c" d="M244.24,430.86a5.57,5.57,0,0,1,.55-2.53,3.94,3.94,0,0,1,1.57-1.71,4.59,4.59,0,0,1,2.37-.61,4.38,4.38,0,0,1,3.15,1.18,4.72,4.72,0,0,1,1.35,3.2v.65a5,5,0,0,1-1.22,3.51,4.75,4.75,0,0,1-6.56,0,5.06,5.06,0,0,1-1.23-3.59Zm2.54.18a3.55,3.55,0,0,0,.51,2.07,1.83,1.83,0,0,0,2.9,0,3.86,3.86,0,0,0,.52-2.27,3.51,3.51,0,0,0-.52-2.06,1.67,1.67,0,0,0-1.46-.73,1.65,1.65,0,0,0-1.44.73,3.94,3.94,0,0,0-.51,2.22Z" transform="translate(3099.72 -5951.629)"/><path class="c" d="M254.42,430.87a5.7,5.7,0,0,1,1-3.54,3.22,3.22,0,0,1,2.73-1.32,2.91,2.91,0,0,1,2.29,1V422.2H263v13.5h-2.3l-.13-1a3,3,0,0,1-2.44,1.18,3.21,3.21,0,0,1-2.69-1.32,5.9,5.9,0,0,1-1.02-3.69Zm2.54.19a3.74,3.74,0,0,0,.47,2.05,1.51,1.51,0,0,0,1.35.72,1.69,1.69,0,0,0,1.66-1v-3.76a1.67,1.67,0,0,0-1.64-1c-1.23.01-1.8,1-1.8,2.99Z" transform="translate(3099.72 -5951.629)"/><path class="c" d="M270.65,434.73a3.17,3.17,0,0,1-2.6,1.14,3,3,0,0,1-2.33-.87,3.75,3.75,0,0,1-.82-2.58v-6.23h2.54v6.15c0,1,.45,1.49,1.35,1.49a1.85,1.85,0,0,0,1.78-.9v-6.74h2.54v9.51h-2.39Z" transform="translate(3099.72 -5951.629)"/><path class="c" d="M279,433.83a1.66,1.66,0,0,0,1.14-.39,1.4,1.4,0,0,0,.46-1H283a3.23,3.23,0,0,1-.53,1.77,3.45,3.45,0,0,1-1.42,1.25,4.37,4.37,0,0,1-2,.44,4.15,4.15,0,0,1-3.22-1.29,5.16,5.16,0,0,1-1.17-3.58v-.17a5.09,5.09,0,0,1,1.16-3.51A4.1,4.1,0,0,1,279,426a4,4,0,0,1,2.86,1,3.59,3.59,0,0,1,1.1,2.7h-2.38a1.78,1.78,0,0,0-.46-1.2,1.69,1.69,0,0,0-2.5.18,3.76,3.76,0,0,0-.45,2.1v.26a3.77,3.77,0,0,0,.44,2.11A1.56,1.56,0,0,0,279,433.83Z" transform="translate(3099.72 -5951.629)"/><path class="c" d="M287.46,423.85v2.34h1.62v1.86h-1.62v4.75a1.14,1.14,0,0,0,.2.75,1,1,0,0,0,.77.23,4.146,4.146,0,0,0,.75-.06v1.93a5.311,5.311,0,0,1-1.54.22,2.41,2.41,0,0,1-2.72-2.69v-5.13h-1.39v-1.86h1.39v-2.34Z" transform="translate(3099.72 -5951.629)"/><path class="c" d="M289.84,430.86a5.571,5.571,0,0,1,.55-2.53,4,4,0,0,1,1.56-1.71,4.66,4.66,0,0,1,2.38-.61,4.35,4.35,0,0,1,3.14,1.18,4.68,4.68,0,0,1,1.36,3.2v.65a5,5,0,0,1-1.22,3.51,4.75,4.75,0,0,1-6.56,0,5.06,5.06,0,0,1-1.23-3.59Zm2.54.18a3.55,3.55,0,0,0,.51,2.07,1.83,1.83,0,0,0,2.9,0,3.86,3.86,0,0,0,.52-2.27,3.51,3.51,0,0,0-.52-2.06,1.68,1.68,0,0,0-1.46-.73,1.65,1.65,0,0,0-1.44.73,3.94,3.94,0,0,0-.51,2.22Z" transform="translate(3099.72 -5951.629)"/><path class="c" d="M305.56,433.07a.81.81,0,0,0-.46-.73,5.19,5.19,0,0,0-1.48-.48q-3.39-.72-3.39-2.88a2.62,2.62,0,0,1,1-2.12A4.26,4.26,0,0,1,304,426a4.54,4.54,0,0,1,2.89.86,2.65,2.65,0,0,1,1.09,2.21h-2.54a1.25,1.25,0,0,0-.35-.9,1.49,1.49,0,0,0-1.1-.36,1.57,1.57,0,0,0-1,.29.94.94,0,0,0-.35.74.79.79,0,0,0,.4.68,3.871,3.871,0,0,0,1.35.45,11.246,11.246,0,0,1,1.6.43,2.62,2.62,0,0,1,2,2.56,2.49,2.49,0,0,1-1.11,2.1,4.82,4.82,0,0,1-2.89.8,5.11,5.11,0,0,1-2.12-.42,3.62,3.62,0,0,1-1.45-1.17,2.74,2.74,0,0,1-.53-1.6h2.41a1.3,1.3,0,0,0,.5,1,2,2,0,0,0,1.25.36,1.88,1.88,0,0,0,1.1-.27.87.87,0,0,0,.41-.69Z" transform="translate(3099.72 -5951.629)"/><path class="c" d="M309.8,434.45a1.28,1.28,0,0,1,.41-1,1.4,1.4,0,0,1,1-.38,1.45,1.45,0,0,1,1,.38,1.27,1.27,0,0,1,.4,1,1.25,1.25,0,0,1-.4,1,1.6,1.6,0,0,1-2.07,0,1.25,1.25,0,0,1-.34-1Z" transform="translate(3099.72 -5951.629)"/><path class="c" d="M324.28,431h-2.1v4.69h-2.63V422.9h4.75a5.41,5.41,0,0,1,3.5,1,3.51,3.51,0,0,1,1.23,2.86,3.91,3.91,0,0,1-.57,2.18,3.83,3.83,0,0,1-1.71,1.4l2.76,5.23v.12h-2.83Zm-2.1-2.13h2.13a2.17,2.17,0,0,0,1.54-.51,1.8,1.8,0,0,0,.54-1.39,1.93,1.93,0,0,0-.51-1.42,2.12,2.12,0,0,0-1.58-.52h-2.12Z" transform="translate(3099.72 -5951.629)"/><path class="c" d="M330.47,430.86a5.571,5.571,0,0,1,.55-2.53,3.94,3.94,0,0,1,1.57-1.71A4.59,4.59,0,0,1,335,426a4.38,4.38,0,0,1,3.15,1.18,4.72,4.72,0,0,1,1.35,3.2v.65a5,5,0,0,1-1.22,3.51,4.75,4.75,0,0,1-6.56,0,5.06,5.06,0,0,1-1.23-3.59ZM333,431a3.55,3.55,0,0,0,.51,2.07,1.83,1.83,0,0,0,2.9,0,3.86,3.86,0,0,0,.52-2.27,3.51,3.51,0,0,0-.52-2.06,1.67,1.67,0,0,0-1.46-.73,1.65,1.65,0,0,0-1.44.73A3.94,3.94,0,0,0,333,431Z" transform="translate(3099.72 -5951.629)"/><path class="c" d="M349.61,431a5.72,5.72,0,0,1-1,3.52,3.21,3.21,0,0,1-2.7,1.32,2.93,2.93,0,0,1-2.32-1v4.49h-2.54V426.19h2.35l.09.93A3,3,0,0,1,345.9,426a3.23,3.23,0,0,1,2.73,1.3,5.89,5.89,0,0,1,1,3.59Zm-2.54-.18a3.77,3.77,0,0,0-.47-2.05,1.54,1.54,0,0,0-1.37-.72,1.64,1.64,0,0,0-1.64.91v3.9a1.7,1.7,0,0,0,1.66.94c1.21.03,1.82-.97,1.82-2.95Z" transform="translate(3099.72 -5951.629)"/><path class="c" d="M356.69,435.7a2.94,2.94,0,0,1-.26-.85,3.06,3.06,0,0,1-2.39,1,3.36,3.36,0,0,1-2.32-.8,2.61,2.61,0,0,1-.92-2,2.68,2.68,0,0,1,1.12-2.32,5.57,5.57,0,0,1,3.24-.82h1.17v-.55a1.54,1.54,0,0,0-.34-1,1.34,1.34,0,0,0-1.07-.4,1.53,1.53,0,0,0-1,.31,1,1,0,0,0-.37.85H351a2.54,2.54,0,0,1,.51-1.53,3.4,3.4,0,0,1,1.44-1.11,5.38,5.38,0,0,1,2.1-.4,4.15,4.15,0,0,1,2.79.89,3.11,3.11,0,0,1,1,2.48v4.12a4.42,4.42,0,0,0,.38,2.05v.15Zm-2.1-1.77a2.191,2.191,0,0,0,1-.25,1.68,1.68,0,0,0,.7-.67v-1.64h-.95c-1.27,0-1.95.44-2,1.32v.15a1,1,0,0,0,.34.78,1.26,1.26,0,0,0,.91.31Z" transform="translate(3099.72 -5951.629)"/><path class="c" d="M364.92,430.87a5.76,5.76,0,0,1,1-3.54,3.25,3.25,0,0,1,2.73-1.32,2.94,2.94,0,0,1,2.3,1V422.2h2.55v13.5h-2.3l-.12-1a3,3,0,0,1-2.44,1.18,3.24,3.24,0,0,1-2.7-1.32,5.9,5.9,0,0,1-1.02-3.69Zm2.54.19a3.75,3.75,0,0,0,.46,2.05,1.51,1.51,0,0,0,1.36.72,1.7,1.7,0,0,0,1.66-1v-3.76a1.69,1.69,0,0,0-1.65-1c-1.22.01-1.83,1-1.83,2.99Z" transform="translate(3099.72 -5951.629)"/><path class="c" d="M379.83,435.87a4.63,4.63,0,0,1-3.4-1.28,4.53,4.53,0,0,1-1.32-3.42v-.24a5.781,5.781,0,0,1,.56-2.57,4.06,4.06,0,0,1,1.56-1.74,4.49,4.49,0,0,1,2.32-.61,4,4,0,0,1,3.07,1.23,5,5,0,0,1,1.12,3.49v1h-6.05a2.34,2.34,0,0,0,.74,1.49,2.23,2.23,0,0,0,1.57.57,2.73,2.73,0,0,0,2.29-1.07l1.25,1.4a3.8,3.8,0,0,1-1.55,1.26,5.091,5.091,0,0,1-2.16.49Zm-.29-7.81a1.58,1.58,0,0,0-1.22.51,2.62,2.62,0,0,0-.61,1.47h3.54v-.2a2,2,0,0,0-.46-1.32,1.67,1.67,0,0,0-1.25-.46Z" transform="translate(3099.72 -5951.629)"/><path class="c" d="M392.71,423.85v2.34h1.62v1.86h-1.62v4.75a1.09,1.09,0,0,0,.2.75,1,1,0,0,0,.77.23,4.221,4.221,0,0,0,.75-.06v1.93a5.311,5.311,0,0,1-1.54.22,2.41,2.41,0,0,1-2.72-2.69v-5.13h-1.39v-1.86h1.39v-2.34Z" transform="translate(3099.72 -5951.629)"/><path class="c" d="M401.09,428.57a6.33,6.33,0,0,0-.91-.07,1.87,1.87,0,0,0-1.89,1v6.22h-2.54v-9.51h2.4l.07,1.13a2.35,2.35,0,0,1,2.12-1.31,2.561,2.561,0,0,1,.79.12Z" transform="translate(3099.72 -5951.629)"/><path class="c" d="M407.56,435.7a2.669,2.669,0,0,1-.25-.85,3.1,3.1,0,0,1-2.4,1,3.36,3.36,0,0,1-2.32-.8,2.61,2.61,0,0,1-.92-2,2.7,2.7,0,0,1,1.12-2.32,5.57,5.57,0,0,1,3.24-.82h1.17v-.55a1.54,1.54,0,0,0-.34-1,1.34,1.34,0,0,0-1.07-.4,1.53,1.53,0,0,0-1,.31,1,1,0,0,0-.37.85h-2.54a2.54,2.54,0,0,1,.51-1.53,3.4,3.4,0,0,1,1.44-1.11,5.42,5.42,0,0,1,2.1-.4,4.15,4.15,0,0,1,2.79.89,3.07,3.07,0,0,1,1,2.48v4.12a4.55,4.55,0,0,0,.38,2.05v.15Zm-2.1-1.77a2.16,2.16,0,0,0,1-.25,1.68,1.68,0,0,0,.7-.67v-1.64h-.95c-1.27,0-1.95.44-2,1.32v.15a1,1,0,0,0,.34.78,1.26,1.26,0,0,0,.91.31Z" transform="translate(3099.72 -5951.629)"/><path class="c" d="M420.27,431a5.78,5.78,0,0,1-1,3.57,3.22,3.22,0,0,1-2.72,1.27,3,3,0,0,1-2.47-1.18l-.11,1H411.7V422.2h2.54V427a2.92,2.92,0,0,1,2.31-1,3.27,3.27,0,0,1,2.73,1.28,5.75,5.75,0,0,1,1,3.6Zm-2.54-.18a3.75,3.75,0,0,0-.46-2.11,1.54,1.54,0,0,0-1.36-.66,1.68,1.68,0,0,0-1.67,1v3.75a1.7,1.7,0,0,0,1.69,1,1.58,1.58,0,0,0,1.62-1.22,6.33,6.33,0,0,0,.18-1.73Z" transform="translate(3099.72 -5951.629)"/><path class="c" d="M427.35,435.7a2.661,2.661,0,0,1-.26-.85,3.09,3.09,0,0,1-2.4,1,3.39,3.39,0,0,1-2.32-.8,2.6,2.6,0,0,1-.91-2,2.68,2.68,0,0,1,1.12-2.32,5.52,5.52,0,0,1,3.24-.82H427v-.55a1.59,1.59,0,0,0-.33-1,1.37,1.37,0,0,0-1.07-.4,1.56,1.56,0,0,0-1,.31,1.07,1.07,0,0,0-.36.85H421.7a2.54,2.54,0,0,1,.51-1.53,3.4,3.4,0,0,1,1.44-1.11,5.371,5.371,0,0,1,2.09-.4,4.15,4.15,0,0,1,2.79.89,3.07,3.07,0,0,1,1,2.48v4.12a4.7,4.7,0,0,0,.38,2.05v.15Zm-2.11-1.77a2.13,2.13,0,0,0,1-.25,1.62,1.62,0,0,0,.7-.67v-1.64H426c-1.28,0-2,.44-2,1.32v.15a1,1,0,0,0,.33.78,1.27,1.27,0,0,0,.91.31Z" transform="translate(3099.72 -5951.629)"/><path class="c" d="M434.17,426.19v10a3.4,3.4,0,0,1-.83,2.45,3.19,3.19,0,0,1-2.41.87,5.179,5.179,0,0,1-1.26-.15v-2a5.251,5.251,0,0,0,.8.08c.77,0,1.16-.41,1.16-1.22V426.19Zm-2.75-2.46a1.23,1.23,0,0,1,.39-.94,1.536,1.536,0,0,1,2,0,1.35,1.35,0,0,1,0,1.89,1.48,1.48,0,0,1-1,.37,1.5,1.5,0,0,1-1-.37,1.27,1.27,0,0,1-.39-.95Z" transform="translate(3099.72 -5951.629)"/><path class="c" d="M435.77,430.86a5.7,5.7,0,0,1,.54-2.53,4,4,0,0,1,1.57-1.71,4.6,4.6,0,0,1,2.38-.61,4.35,4.35,0,0,1,3.14,1.18,4.77,4.77,0,0,1,1.36,3.2V431a4.94,4.94,0,0,1-1.22,3.51,4.75,4.75,0,0,1-6.56,0,5.06,5.06,0,0,1-1.22-3.59Zm2.54.18a3.56,3.56,0,0,0,.5,2.07,1.68,1.68,0,0,0,1.46.72,1.71,1.71,0,0,0,1.45-.71,4,4,0,0,0,.51-2.27,3.58,3.58,0,0,0-.51-2.06,1.69,1.69,0,0,0-1.46-.73,1.66,1.66,0,0,0-1.45.73,4,4,0,0,0-.5,2.21Z" transform="translate(3099.72 -5951.629)"/></g><path class="c" d="M35.25,164.32l3.29,9.28,3.27-9.28h3.46v12.8H42.62v-3.5l.27-6-3.46,9.54H37.62l-3.44-9.53.26,6v3.5H31.8v-12.8Z" transform="translate(3099.72 -5951.629)"/><path class="c" d="M52.92,177.12a2.66,2.66,0,0,1-.26-.85,3.08,3.08,0,0,1-2.4,1,3.36,3.36,0,0,1-2.31-.81,2.58,2.58,0,0,1-.92-2,2.68,2.68,0,0,1,1.12-2.32,5.52,5.52,0,0,1,3.24-.82h1.17v-.54a1.6,1.6,0,0,0-.34-1.06,1.35,1.35,0,0,0-1.07-.4,1.56,1.56,0,0,0-1,.31,1.07,1.07,0,0,0-.36.85H47.24a2.56,2.56,0,0,1,.51-1.53,3.4,3.4,0,0,1,1.44-1.11,5.369,5.369,0,0,1,2.09-.4,4.15,4.15,0,0,1,2.79.89,3.07,3.07,0,0,1,1,2.48v4.12a4.7,4.7,0,0,0,.38,2.05v.15Zm-2.1-1.77a2.12,2.12,0,0,0,1-.25,1.65,1.65,0,0,0,.71-.67V172.8h-1c-1.28,0-2,.43-2,1.31v.15a1,1,0,0,0,.33.79,1.32,1.32,0,0,0,.96.3Z" transform="translate(3099.72 -5951.629)"/><path class="c" d="M60.1,165.27v2.34h1.62v1.86H60.1v4.75a1.13,1.13,0,0,0,.2.76,1,1,0,0,0,.77.22,4.22,4.22,0,0,0,.75-.06v1.93a5.319,5.319,0,0,1-1.54.23,2.42,2.42,0,0,1-2.72-2.7v-5.13H56.17v-1.86h1.39v-2.34Z" transform="translate(3099.72 -5951.629)"/><path class="c" d="M67.51,177.3a4.64,4.64,0,0,1-3.4-1.29,4.53,4.53,0,0,1-1.32-3.42v-.24a5.7,5.7,0,0,1,.56-2.56A4.05,4.05,0,0,1,64.92,168a4.45,4.45,0,0,1,2.31-.61,3.93,3.93,0,0,1,3.07,1.23,5,5,0,0,1,1.13,3.49v1H65.37a2.34,2.34,0,0,0,.74,1.49,2.25,2.25,0,0,0,1.57.57,2.77,2.77,0,0,0,2.3-1.07l1.24,1.4a3.76,3.76,0,0,1-1.54,1.26,5.11,5.11,0,0,1-2.17.54Zm-.29-7.82A1.58,1.58,0,0,0,66,170a2.58,2.58,0,0,0-.6,1.47h3.53v-.2a1.83,1.83,0,0,0-.46-1.31,1.64,1.64,0,0,0-1.25-.48Z" transform="translate(3099.72 -5951.629)"/><path class="c" d="M78.21,170a6.426,6.426,0,0,0-.91-.07,1.87,1.87,0,0,0-1.89,1v6.22H72.87v-9.51h2.4l.07,1.13a2.35,2.35,0,0,1,2.11-1.31,2.581,2.581,0,0,1,.8.12Z" transform="translate(3099.72 -5951.629)"/><path class="c" d="M79.41,165.15a1.23,1.23,0,0,1,.39-.94,1.41,1.41,0,0,1,1-.37,1.44,1.44,0,0,1,1,.37,1.35,1.35,0,0,1,0,1.89,1.62,1.62,0,0,1-2.06,0A1.26,1.26,0,0,1,79.41,165.15Zm2.7,12H79.56v-9.51h2.55Z" transform="translate(3099.72 -5951.629)"/><path class="c" d="M89.72,177.12a2.66,2.66,0,0,1-.26-.85,3.08,3.08,0,0,1-2.4,1,3.36,3.36,0,0,1-2.31-.81,2.58,2.58,0,0,1-.92-2A2.68,2.68,0,0,1,85,172.13a5.52,5.52,0,0,1,3.24-.82h1.17v-.54a1.6,1.6,0,0,0-.34-1.06,1.35,1.35,0,0,0-1.07-.4,1.56,1.56,0,0,0-1,.31,1.07,1.07,0,0,0-.36.85H84a2.56,2.56,0,0,1,.51-1.53A3.4,3.4,0,0,1,86,167.83a5.37,5.37,0,0,1,2.09-.4,4.15,4.15,0,0,1,2.79.89,3.07,3.07,0,0,1,1,2.48v4.12a4.7,4.7,0,0,0,.38,2.05v.15Zm-2.1-1.77a2.12,2.12,0,0,0,1-.25,1.65,1.65,0,0,0,.71-.67V172.8h-1c-1.28,0-2,.43-2,1.31v.15a1,1,0,0,0,.33.79,1.32,1.32,0,0,0,.96.3Z" transform="translate(3099.72 -5951.629)"/><path class="c" d="M106.9,172.45a5.66,5.66,0,0,1-1,3.52,3.2,3.2,0,0,1-2.69,1.33,3,3,0,0,1-2.33-1v4.49H98.34V167.61h2.35l.09.93a3,3,0,0,1,2.41-1.11,3.23,3.23,0,0,1,2.73,1.3,5.89,5.89,0,0,1,1,3.59Zm-2.54-.18a3.77,3.77,0,0,0-.47-2.05,1.54,1.54,0,0,0-1.37-.72,1.65,1.65,0,0,0-1.64.91v3.9a1.7,1.7,0,0,0,1.66.94C103.75,175.25,104.36,174.25,104.36,172.27Z" transform="translate(3099.72 -5951.629)"/><path class="c" d="M113.82,170a6.558,6.558,0,0,0-.92-.07,1.87,1.87,0,0,0-1.89,1v6.22h-2.54v-9.51h2.4l.07,1.13a2.36,2.36,0,0,1,2.12-1.31,2.56,2.56,0,0,1,.79.12Z" transform="translate(3099.72 -5951.629)"/><path class="c" d="M115,165.15a1.26,1.26,0,0,1,.38-.94,1.65,1.65,0,0,1,2.08,0,1.23,1.23,0,0,1,.39.94,1.25,1.25,0,0,1-.39.95,1.5,1.5,0,0,1-1,.37,1.48,1.48,0,0,1-1-.37,1.25,1.25,0,0,1-.46-.95Zm2.7,12h-2.55v-9.51h2.55Z" transform="translate(3099.72 -5951.629)"/><path class="c" d="M122.19,167.61l.08,1.06a3.36,3.36,0,0,1,2.73-1.24,2.55,2.55,0,0,1,2.53,1.45,3.27,3.27,0,0,1,2.85-1.45,2.86,2.86,0,0,1,2.31.9,4.2,4.2,0,0,1,.75,2.72v6.07h-2.55v-6.06a1.84,1.84,0,0,0-.31-1.19,1.41,1.41,0,0,0-1.12-.37,1.58,1.58,0,0,0-1.58,1.09v6.53h-2.54v-6.06a1.75,1.75,0,0,0-.33-1.19,1.4,1.4,0,0,0-1.11-.37,1.64,1.64,0,0,0-1.56.9v6.72H119.8v-9.51Z" transform="translate(3099.72 -5951.629)"/><path class="c" d="M140.9,177.12a3,3,0,0,1-.25-.85,3.11,3.11,0,0,1-2.4,1,3.4,3.4,0,0,1-2.32-.81,2.61,2.61,0,0,1-.92-2,2.69,2.69,0,0,1,1.13-2.32,5.51,5.51,0,0,1,3.23-.82h1.17v-.54a1.55,1.55,0,0,0-.34-1.06,1.33,1.33,0,0,0-1.06-.4,1.54,1.54,0,0,0-1,.31,1.07,1.07,0,0,0-.36.85h-2.54a2.56,2.56,0,0,1,.51-1.53,3.34,3.34,0,0,1,1.44-1.11,5.329,5.329,0,0,1,2.09-.4,4.15,4.15,0,0,1,2.79.89,3.07,3.07,0,0,1,1,2.48v4.12a4.55,4.55,0,0,0,.38,2.05v.15Zm-2.1-1.77a2.16,2.16,0,0,0,1-.25,1.57,1.57,0,0,0,.7-.67V172.8h-.95c-1.27,0-1.94.43-2,1.31v.15a1,1,0,0,0,.34.79,1.31,1.31,0,0,0,.91.3Z" transform="translate(3099.72 -5951.629)"/><rect class="b" width="142.16" height="56.62" rx="3.59" transform="translate(3277.81 -5807.739)"/><path class="c" d="M199.67,164.32,203,173.6l3.27-9.28h3.46v12.8H207v-3.5l.27-6-3.46,9.54H202l-3.44-9.53.26,6v3.5h-2.64v-12.8Z" transform="translate(3099.72 -5951.629)"/><path class="c" d="M217.34,177.12a2.66,2.66,0,0,1-.26-.85,3.08,3.08,0,0,1-2.4,1,3.36,3.36,0,0,1-2.31-.81,2.58,2.58,0,0,1-.92-2,2.68,2.68,0,0,1,1.12-2.32,5.55,5.55,0,0,1,3.24-.82H217v-.54a1.6,1.6,0,0,0-.34-1.06,1.35,1.35,0,0,0-1.07-.4,1.56,1.56,0,0,0-1,.31,1.07,1.07,0,0,0-.36.85h-2.54a2.56,2.56,0,0,1,.51-1.53,3.4,3.4,0,0,1,1.44-1.11,5.369,5.369,0,0,1,2.09-.4,4.15,4.15,0,0,1,2.79.89,3.07,3.07,0,0,1,1,2.48v4.12a4.7,4.7,0,0,0,.38,2.05v.15Zm-2.1-1.77a2.12,2.12,0,0,0,1-.25,1.65,1.65,0,0,0,.71-.67V172.8H216c-1.27,0-1.95.43-2,1.31v.15a1,1,0,0,0,.33.79,1.32,1.32,0,0,0,.91.3Z" transform="translate(3099.72 -5951.629)"/><path class="c" d="M223.81,167.61l.08,1.1a3.33,3.33,0,0,1,2.74-1.28,2.79,2.79,0,0,1,2.25.89,4.15,4.15,0,0,1,.75,2.66v6.14h-2.54V171a1.7,1.7,0,0,0-.35-1.18,1.58,1.58,0,0,0-1.17-.36,1.75,1.75,0,0,0-1.61.91v6.71h-2.54v-9.51Z" transform="translate(3099.72 -5951.629)"/><path class="c" d="M231.16,172.28a5.57,5.57,0,0,1,.55-2.53,3.94,3.94,0,0,1,1.57-1.71,4.59,4.59,0,0,1,2.37-.61,4.33,4.33,0,0,1,3.14,1.18,4.68,4.68,0,0,1,1.36,3.2v.65A5,5,0,0,1,239,176a4.72,4.72,0,0,1-6.56,0,5.06,5.06,0,0,1-1.23-3.59Zm2.54.18a3.55,3.55,0,0,0,.51,2.07,1.83,1.83,0,0,0,2.9,0,3.86,3.86,0,0,0,.52-2.27,3.51,3.51,0,0,0-.52-2.06,1.69,1.69,0,0,0-1.46-.73,1.65,1.65,0,0,0-1.44.73,3.94,3.94,0,0,0-.51,2.26Z" transform="translate(3099.72 -5951.629)"/><path class="c" d="M245.82,172.29a5.7,5.7,0,0,1,1-3.54,3.22,3.22,0,0,1,2.73-1.32,2.91,2.91,0,0,1,2.29,1v-4.85h2.55v13.5H252.1l-.13-1a3,3,0,0,1-2.44,1.19,3.22,3.22,0,0,1-2.69-1.33,5.9,5.9,0,0,1-1.02-3.65Zm2.54.19a3.72,3.72,0,0,0,.47,2.05,1.51,1.51,0,0,0,1.35.72,1.69,1.69,0,0,0,1.66-1v-3.76a1.66,1.66,0,0,0-1.64-1C249,169.5,248.36,170.49,248.36,172.48Z" transform="translate(3099.72 -5951.629)"/><path class="c" d="M260.74,177.3a4.66,4.66,0,0,1-3.41-1.29,4.53,4.53,0,0,1-1.31-3.42v-.24a5.7,5.7,0,0,1,.55-2.56,4.05,4.05,0,0,1,1.57-1.75,4.49,4.49,0,0,1,2.32-.61,4,4,0,0,1,3.07,1.23,5,5,0,0,1,1.12,3.49v1h-6.06a2.34,2.34,0,0,0,.74,1.49,2.25,2.25,0,0,0,1.57.57,2.75,2.75,0,0,0,2.3-1.07l1.25,1.4a3.86,3.86,0,0,1-1.55,1.26,5.1,5.1,0,0,1-2.16.5Zm-.29-7.82a1.58,1.58,0,0,0-1.23.51,2.72,2.72,0,0,0-.6,1.47h3.53v-.2a1.83,1.83,0,0,0-.46-1.31A1.61,1.61,0,0,0,260.45,169.48Z" transform="translate(3099.72 -5951.629)"/><path class="c" d="M270.18,172.28a5.7,5.7,0,0,1,.54-2.53,4,4,0,0,1,1.57-1.71,4.6,4.6,0,0,1,2.38-.61,4.35,4.35,0,0,1,3.14,1.18,4.77,4.77,0,0,1,1.36,3.2v.65A4.94,4.94,0,0,1,278,176a4.72,4.72,0,0,1-6.56,0,5.06,5.06,0,0,1-1.22-3.59Zm2.54.18a3.55,3.55,0,0,0,.51,2.07,1.67,1.67,0,0,0,1.45.72,1.71,1.71,0,0,0,1.45-.71,4,4,0,0,0,.51-2.27,3.58,3.58,0,0,0-.51-2.06,1.72,1.72,0,0,0-1.46-.73,1.65,1.65,0,0,0-1.44.73A3.94,3.94,0,0,0,272.72,172.46Z" transform="translate(3099.72 -5951.629)"/><path class="c" d="M289.32,172.45a5.78,5.78,0,0,1-1,3.57,3.24,3.24,0,0,1-2.72,1.28,3,3,0,0,1-2.47-1.19l-.12,1h-2.28v-13.5h2.54v4.84a2.92,2.92,0,0,1,2.31-1,3.27,3.27,0,0,1,2.73,1.28,5.79,5.79,0,0,1,1,3.6Zm-2.54-.18a3.77,3.77,0,0,0-.46-2.11,1.54,1.54,0,0,0-1.36-.66,1.67,1.67,0,0,0-1.67,1v3.76a1.71,1.71,0,0,0,1.69,1,1.56,1.56,0,0,0,1.61-1.22,5.9,5.9,0,0,0,.19-1.77Z" transform="translate(3099.72 -5951.629)"/><path class="c" d="M296.23,170a6.463,6.463,0,0,0-.92-.07,1.87,1.87,0,0,0-1.89,1v6.22h-2.54v-9.51h2.4l.07,1.13a2.36,2.36,0,0,1,2.12-1.31,2.52,2.52,0,0,1,.79.12Z" transform="translate(3099.72 -5951.629)"/><path class="c" d="M302.7,177.12a2.66,2.66,0,0,1-.26-.85,3.08,3.08,0,0,1-2.4,1,3.36,3.36,0,0,1-2.31-.81,2.58,2.58,0,0,1-.92-2,2.68,2.68,0,0,1,1.12-2.32,5.52,5.52,0,0,1,3.24-.82h1.17v-.54a1.6,1.6,0,0,0-.34-1.06,1.35,1.35,0,0,0-1.07-.4,1.56,1.56,0,0,0-1,.31,1.07,1.07,0,0,0-.36.85H297a2.56,2.56,0,0,1,.51-1.53,3.4,3.4,0,0,1,1.44-1.11,5.37,5.37,0,0,1,2.09-.4,4.15,4.15,0,0,1,2.79.89,3.07,3.07,0,0,1,1,2.48v4.12a4.7,4.7,0,0,0,.38,2.05v.15Zm-2.11-1.77a2.13,2.13,0,0,0,1-.25,1.65,1.65,0,0,0,.71-.67V172.8h-.95c-1.28,0-1.95.43-2,1.31v.15a1,1,0,0,0,.33.79,1.31,1.31,0,0,0,.91.3Z" transform="translate(3099.72 -5951.629)"/><line class="a" y2="288.629" transform="translate(3185.2 -5751.129)"/><line class="a" y2="288.629" transform="translate(3348.89 -5751.129)"/><path class="c" d="M11.188-4.263A4.528,4.528,0,0,1,9.664-1.011,5.355,5.355,0,0,1,6.038.176,4.816,4.816,0,0,1,2.167-1.481,6.793,6.793,0,0,1,.756-6.029v-.782a7.671,7.671,0,0,1,.65-3.252,4.874,4.874,0,0,1,1.859-2.158,5.207,5.207,0,0,1,2.808-.751,5.217,5.217,0,0,1,3.568,1.187,4.866,4.866,0,0,1,1.564,3.331H8.569a2.673,2.673,0,0,0-.69-1.8,2.555,2.555,0,0,0-1.806-.558A2.24,2.24,0,0,0,4.1-9.866a5.3,5.3,0,0,0-.672,2.931v.967a5.667,5.667,0,0,0,.628,3.032,2.2,2.2,0,0,0,1.982.958,2.6,2.6,0,0,0,1.824-.558,2.521,2.521,0,0,0,.69-1.727ZM18.264,0a2.821,2.821,0,0,1-.255-.853,3.073,3.073,0,0,1-2.4,1.028,3.376,3.376,0,0,1-2.316-.809,2.6,2.6,0,0,1-.918-2.039A2.687,2.687,0,0,1,13.5-4.992a5.529,5.529,0,0,1,3.239-.817H17.9v-.545a1.567,1.567,0,0,0-.338-1.055A1.331,1.331,0,0,0,16.5-7.8a1.513,1.513,0,0,0-1.006.308,1.045,1.045,0,0,0-.365.844h-2.54a2.551,2.551,0,0,1,.51-1.529,3.37,3.37,0,0,1,1.441-1.1,5.253,5.253,0,0,1,2.092-.4,4.15,4.15,0,0,1,2.791.883,3.09,3.09,0,0,1,1.033,2.483V-2.2A4.546,4.546,0,0,0,20.83-.149V0Zm-2.1-1.767a2.188,2.188,0,0,0,1.037-.25,1.645,1.645,0,0,0,.7-.672V-4.324h-.949q-1.907,0-2.03,1.318l-.009.149a1.017,1.017,0,0,0,.334.782A1.3,1.3,0,0,0,16.163-1.767ZM25.084,0H22.535V-13.5h2.549Zm6.047-1.872a1.666,1.666,0,0,0,1.143-.387,1.355,1.355,0,0,0,.457-1.028h2.382a3.258,3.258,0,0,1-.527,1.771A3.48,3.48,0,0,1,33.166-.268a4.442,4.442,0,0,1-1.991.444,4.129,4.129,0,0,1-3.217-1.3A5.13,5.13,0,0,1,26.78-4.7v-.167a5.071,5.071,0,0,1,1.169-3.507,4.08,4.08,0,0,1,3.208-1.31A4,4,0,0,1,34.018-8.67a3.594,3.594,0,0,1,1.094,2.7H32.73a1.731,1.731,0,0,0-.457-1.2,1.528,1.528,0,0,0-1.16-.461,1.531,1.531,0,0,0-1.34.646,3.739,3.739,0,0,0-.453,2.1v.264a3.786,3.786,0,0,0,.448,2.109A1.55,1.55,0,0,0,31.131-1.872Zm11.127.905a3.185,3.185,0,0,1-2.6,1.143A3,3,0,0,1,37.323-.7,3.752,3.752,0,0,1,36.5-3.278V-9.51h2.54v6.144q0,1.485,1.354,1.485a1.835,1.835,0,0,0,1.775-.9V-9.51h2.549V0H42.328ZM49.315,0H46.767V-13.5h2.549Zm7.6,0a2.821,2.821,0,0,1-.255-.853,3.073,3.073,0,0,1-2.4,1.028,3.376,3.376,0,0,1-2.316-.809,2.6,2.6,0,0,1-.918-2.039,2.687,2.687,0,0,1,1.121-2.32,5.529,5.529,0,0,1,3.239-.817h1.169v-.545a1.567,1.567,0,0,0-.338-1.055,1.331,1.331,0,0,0-1.068-.4,1.513,1.513,0,0,0-1.006.308,1.045,1.045,0,0,0-.365.844H51.24a2.551,2.551,0,0,1,.51-1.529,3.37,3.37,0,0,1,1.441-1.1,5.253,5.253,0,0,1,2.092-.4,4.15,4.15,0,0,1,2.791.883,3.09,3.09,0,0,1,1.033,2.483V-2.2a4.546,4.546,0,0,0,.378,2.048V0Zm-2.1-1.767a2.188,2.188,0,0,0,1.037-.25,1.645,1.645,0,0,0,.7-.672V-4.324h-.949q-1.907,0-2.03,1.318l-.009.149a1.017,1.017,0,0,0,.334.782A1.3,1.3,0,0,0,54.817-1.767ZM69.5-1.872a1.666,1.666,0,0,0,1.143-.387,1.355,1.355,0,0,0,.457-1.028h2.382a3.258,3.258,0,0,1-.527,1.771A3.48,3.48,0,0,1,71.53-.268a4.442,4.442,0,0,1-1.991.444,4.129,4.129,0,0,1-3.217-1.3A5.13,5.13,0,0,1,65.145-4.7v-.167a5.071,5.071,0,0,1,1.169-3.507,4.08,4.08,0,0,1,3.208-1.31A4,4,0,0,1,72.382-8.67a3.594,3.594,0,0,1,1.094,2.7H71.095a1.731,1.731,0,0,0-.457-1.2,1.528,1.528,0,0,0-1.16-.461,1.531,1.531,0,0,0-1.34.646,3.739,3.739,0,0,0-.453,2.1v.264a3.786,3.786,0,0,0,.448,2.109A1.55,1.55,0,0,0,69.5-1.872Zm5.036-2.971a5.64,5.64,0,0,1,.545-2.522,3.989,3.989,0,0,1,1.569-1.714,4.577,4.577,0,0,1,2.377-.606,4.33,4.33,0,0,1,3.142,1.178,4.727,4.727,0,0,1,1.358,3.2l.018.65a4.97,4.97,0,0,1-1.222,3.511A4.247,4.247,0,0,1,79.04.176a4.268,4.268,0,0,1-3.283-1.318,5.058,5.058,0,0,1-1.226-3.586Zm2.54.185a3.545,3.545,0,0,0,.51,2.07,1.682,1.682,0,0,0,1.459.716,1.686,1.686,0,0,0,1.441-.708A3.879,3.879,0,0,0,81-4.843,3.51,3.51,0,0,0,80.481-6.9a1.686,1.686,0,0,0-1.459-.729,1.659,1.659,0,0,0-1.441.725A3.944,3.944,0,0,0,77.071-4.658Zm13.184,2.03a.818.818,0,0,0-.461-.734,5.241,5.241,0,0,0-1.481-.479Q84.92-4.553,84.92-6.724a2.613,2.613,0,0,1,1.05-2.114,4.237,4.237,0,0,1,2.747-.848,4.56,4.56,0,0,1,2.9.853A2.687,2.687,0,0,1,92.7-6.618h-2.54a1.229,1.229,0,0,0-.352-.9,1.488,1.488,0,0,0-1.1-.356,1.52,1.52,0,0,0-.993.29.916.916,0,0,0-.352.738.783.783,0,0,0,.4.681,4.114,4.114,0,0,0,1.349.448,11.019,11.019,0,0,1,1.6.426,2.628,2.628,0,0,1,2.013,2.558,2.481,2.481,0,0,1-1.116,2.1,4.815,4.815,0,0,1-2.883.8A5.029,5.029,0,0,1,86.6-.25a3.561,3.561,0,0,1-1.455-1.169,2.716,2.716,0,0,1-.527-1.6h2.408a1.326,1.326,0,0,0,.5,1.037,1.987,1.987,0,0,0,1.248.36,1.839,1.839,0,0,0,1.1-.277A.861.861,0,0,0,90.255-2.628Zm7.146-9.22V-9.51h1.626v1.863H97.4V-2.9a1.133,1.133,0,0,0,.2.756,1.015,1.015,0,0,0,.773.229,4.051,4.051,0,0,0,.747-.062V-.053a5.229,5.229,0,0,1-1.538.229,2.425,2.425,0,0,1-2.725-2.7V-7.646H93.472V-9.51H94.86v-2.338Zm2.382,7a5.64,5.64,0,0,1,.545-2.522A3.989,3.989,0,0,1,101.9-9.079a4.577,4.577,0,0,1,2.377-.606,4.33,4.33,0,0,1,3.142,1.178,4.727,4.727,0,0,1,1.358,3.2l.018.65a4.97,4.97,0,0,1-1.222,3.511A4.247,4.247,0,0,1,104.291.176a4.268,4.268,0,0,1-3.283-1.318,5.058,5.058,0,0,1-1.226-3.586Zm2.54.185a3.545,3.545,0,0,0,.51,2.07,1.682,1.682,0,0,0,1.459.716,1.686,1.686,0,0,0,1.441-.708,3.879,3.879,0,0,0,.519-2.263,3.51,3.51,0,0,0-.519-2.057,1.686,1.686,0,0,0-1.459-.729,1.659,1.659,0,0,0-1.441.725A3.944,3.944,0,0,0,102.322-4.658ZM117.519,0H114.97V-9.51h2.549Zm-2.7-11.971a1.251,1.251,0,0,1,.382-.94,1.436,1.436,0,0,1,1.042-.369,1.44,1.44,0,0,1,1.037.369,1.244,1.244,0,0,1,.387.94,1.247,1.247,0,0,1-.391.949,1.443,1.443,0,0,1-1.033.369,1.443,1.443,0,0,1-1.033-.369A1.247,1.247,0,0,1,114.82-11.971Zm7.128,2.461.079,1.1a3.32,3.32,0,0,1,2.733-1.274,2.759,2.759,0,0,1,2.25.888,4.142,4.142,0,0,1,.756,2.654V0h-2.54V-6.082a1.648,1.648,0,0,0-.352-1.173,1.574,1.574,0,0,0-1.169-.365,1.747,1.747,0,0,0-1.608.914V0h-2.54V-9.51ZM129.3-4.825a5.731,5.731,0,0,1,1-3.542,3.237,3.237,0,0,1,2.729-1.318,2.913,2.913,0,0,1,2.294,1.037V-13.5h2.549V0h-2.294l-.123-1.011A2.989,2.989,0,0,1,133,.176a3.228,3.228,0,0,1-2.694-1.323A5.916,5.916,0,0,1,129.3-4.825Zm2.54.185a3.744,3.744,0,0,0,.466,2.048,1.518,1.518,0,0,0,1.354.712,1.7,1.7,0,0,0,1.661-.993V-6.627a1.676,1.676,0,0,0-1.644-.993Q131.836-7.62,131.836-4.641ZM142.515,0h-2.549V-9.51h2.549Zm-2.7-11.971a1.251,1.251,0,0,1,.382-.94,1.436,1.436,0,0,1,1.042-.369,1.44,1.44,0,0,1,1.037.369,1.244,1.244,0,0,1,.387.94,1.247,1.247,0,0,1-.391.949,1.443,1.443,0,0,1-1.033.369,1.443,1.443,0,0,1-1.033-.369A1.247,1.247,0,0,1,139.816-11.971ZM149.95-7.128a6.9,6.9,0,0,0-.914-.07,1.86,1.86,0,0,0-1.89.976V0h-2.54V-9.51h2.4l.07,1.134a2.354,2.354,0,0,1,2.118-1.31,2.662,2.662,0,0,1,.791.114Zm5.6,7.3a4.668,4.668,0,0,1-3.406-1.283,4.561,4.561,0,0,1-1.314-3.419v-.246a5.745,5.745,0,0,1,.554-2.562,4.064,4.064,0,0,1,1.569-1.74,4.4,4.4,0,0,1,2.316-.611,3.947,3.947,0,0,1,3.072,1.23,5,5,0,0,1,1.121,3.489v1.037H153.4a2.36,2.36,0,0,0,.743,1.494,2.245,2.245,0,0,0,1.569.563,2.742,2.742,0,0,0,2.294-1.063l1.248,1.4a3.813,3.813,0,0,1-1.547,1.261A5.075,5.075,0,0,1,155.549.176Zm-.29-7.8a1.591,1.591,0,0,0-1.226.51,2.634,2.634,0,0,0-.6,1.459h3.533v-.2a1.878,1.878,0,0,0-.457-1.305A1.642,1.642,0,0,0,155.259-7.629Zm9.6,5.757A1.666,1.666,0,0,0,166-2.259a1.355,1.355,0,0,0,.457-1.028h2.382a3.258,3.258,0,0,1-.527,1.771,3.48,3.48,0,0,1-1.419,1.248A4.442,4.442,0,0,1,164.9.176a4.129,4.129,0,0,1-3.217-1.3A5.13,5.13,0,0,1,160.506-4.7v-.167a5.071,5.071,0,0,1,1.169-3.507,4.08,4.08,0,0,1,3.208-1.31,4,4,0,0,1,2.861,1.015,3.594,3.594,0,0,1,1.094,2.7h-2.382a1.731,1.731,0,0,0-.457-1.2,1.528,1.528,0,0,0-1.16-.461,1.531,1.531,0,0,0-1.34.646,3.739,3.739,0,0,0-.453,2.1v.264a3.786,3.786,0,0,0,.448,2.109A1.55,1.55,0,0,0,164.856-1.872Zm8.473-9.976V-9.51h1.626v1.863h-1.626V-2.9a1.133,1.133,0,0,0,.2.756,1.015,1.015,0,0,0,.773.229,4.051,4.051,0,0,0,.747-.062V-.053a5.229,5.229,0,0,1-1.538.229,2.425,2.425,0,0,1-2.725-2.7V-7.646H169.4V-9.51h1.389v-2.338Zm2.382,7a5.64,5.64,0,0,1,.545-2.522,3.989,3.989,0,0,1,1.569-1.714,4.577,4.577,0,0,1,2.377-.606,4.33,4.33,0,0,1,3.142,1.178,4.727,4.727,0,0,1,1.358,3.2l.018.65A4.97,4.97,0,0,1,183.5-1.147,4.247,4.247,0,0,1,180.22.176a4.268,4.268,0,0,1-3.283-1.318,5.058,5.058,0,0,1-1.226-3.586Zm2.54.185a3.545,3.545,0,0,0,.51,2.07,1.682,1.682,0,0,0,1.459.716,1.686,1.686,0,0,0,1.441-.708,3.879,3.879,0,0,0,.519-2.263,3.51,3.51,0,0,0-.519-2.057,1.686,1.686,0,0,0-1.459-.729,1.659,1.659,0,0,0-1.441.725A3.944,3.944,0,0,0,178.251-4.658Z" transform="translate(3528 -5516)"/></g></svg>