<svg xmlns="http://www.w3.org/2000/svg" width="111.206" height="111.206" viewBox="0 0 111.206 111.206"><defs><style>.a{fill:#d9a171;}.b{fill:#fff;}</style></defs><g transform="translate(-3492 -3611)"><path class="a" d="M48.465,0A48.465,48.465,0,1,1,0,48.465,48.465,48.465,0,0,1,48.465,0Z" transform="matrix(0.16, -0.987, 0.987, 0.16, 3492, 3706.679)"/><path class="b" d="M654.675,1140.4a51.257,51.257,0,1,1,51.258-51.257A51.315,51.315,0,0,1,654.675,1140.4Zm0-96.93a45.674,45.674,0,1,0,45.675,45.673A45.725,45.725,0,0,0,654.675,1043.466Z" transform="translate(2892.581 2577.118)"/><path class="b" d="M25.277,35.012h4.136a5.828,5.828,0,0,0,4.377-1.477,5.412,5.412,0,0,0,1.423-3.921,4.786,4.786,0,0,0-1.41-3.679,5.464,5.464,0,0,0-3.881-1.316,5.727,5.727,0,0,0-3.733,1.222,3.907,3.907,0,0,0-1.5,3.182H16.925a9.545,9.545,0,0,1,1.652-5.492,11.006,11.006,0,0,1,4.619-3.8,15.416,15.416,0,0,1,6.539-1.37q6.2,0,9.722,2.968a10.125,10.125,0,0,1,3.518,8.177,8.228,8.228,0,0,1-1.638,4.941,10.643,10.643,0,0,1-4.3,3.464,9.716,9.716,0,0,1,4.928,3.545,9.616,9.616,0,0,1,1.625,5.586,10.293,10.293,0,0,1-3.8,8.352q-3.8,3.142-10.057,3.142a14.487,14.487,0,0,1-9.574-3.088,10.086,10.086,0,0,1-3.719-8.164H24.2a4.5,4.5,0,0,0,1.652,3.6,6.086,6.086,0,0,0,4.069,1.4,6.115,6.115,0,0,0,4.337-1.464,5.052,5.052,0,0,0,1.571-3.881q0-5.854-6.445-5.854H25.277Z" transform="translate(3517.559 3627.639)"/></g></svg>